M48
; DRILL file {KiCad (5.1.8)-1} date 12/22/20 12:36:24
; FORMAT={-:-/ absolute / inch / decimal}
; #@! TF.CreationDate,2020-12-22T12:36:24-05:00
; #@! TF.GenerationSoftware,Kicad,Pcbnew,(5.1.8)-1
FMAT,2
INCH
T1C0.0100
T2C0.0300
T3C0.0315
T4C0.0394
%
G90
G05
T1
X2.745Y-1.5
X2.745Y-1.54
X2.745Y-3.2
X2.745Y-3.24
X2.745Y-4.9
X2.745Y-4.94
X2.745Y-6.6
X2.745Y-6.64
X2.7456Y-1.4006
X2.7456Y-3.1006
X2.7456Y-4.8006
X2.7456Y-6.5006
X2.865Y-1.48
X2.865Y-1.56
X2.865Y-3.18
X2.865Y-3.26
X2.865Y-4.88
X2.865Y-4.96
X2.865Y-6.58
X2.865Y-6.66
X3.85Y-2.775
X3.85Y-3.275
X3.85Y-4.475
X3.85Y-4.975
X3.85Y-5.875
X3.85Y-6.175
X3.85Y-6.675
X3.8569Y-6.0319
X4.05Y-1.275
X4.05Y-2.975
X4.05Y-4.675
X4.1Y-6.875
X4.15Y-2.975
X4.15Y-4.675
X4.55Y-1.375
X4.55Y-3.075
X4.55Y-4.775
X4.55Y-6.475
X5.01Y-1.775
X5.01Y-3.475
X5.01Y-5.175
X5.01Y-6.875
X5.2256Y-1.2794
X5.2256Y-1.5206
X5.2256Y-1.5406
X5.2256Y-2.9794
X5.2256Y-3.2206
X5.2256Y-3.2406
X5.2256Y-4.6794
X5.2256Y-4.9206
X5.2256Y-4.9406
X5.2256Y-6.3794
X5.2256Y-6.6206
X5.2256Y-6.6406
X5.245Y-1.5
X5.245Y-3.2
X5.245Y-4.9
X5.245Y-6.6
X5.2644Y-1.3806
X5.2644Y-3.0806
X5.2644Y-4.7806
X5.2644Y-6.4806
T2
X5.65Y-2.575
X5.65Y-3.475
X5.75Y-2.575
X5.75Y-3.475
X5.85Y-2.575
X5.85Y-3.475
X5.95Y-2.575
X5.95Y-3.475
X6.05Y-2.575
X6.05Y-3.475
X6.15Y-2.575
X6.15Y-3.475
X2.05Y-2.575
X2.05Y-3.475
X2.15Y-2.575
X2.15Y-3.475
X2.25Y-2.575
X2.25Y-3.475
X2.35Y-2.575
X2.35Y-3.475
X2.45Y-2.575
X2.45Y-3.475
X2.55Y-2.575
X2.55Y-3.475
X2.05Y-5.975
X2.05Y-6.875
X2.15Y-5.975
X2.15Y-6.875
X2.25Y-5.975
X2.25Y-6.875
X2.35Y-5.975
X2.35Y-6.875
X2.45Y-5.975
X2.45Y-6.875
X2.55Y-5.975
X2.55Y-6.875
X5.65Y-4.275
X5.65Y-5.175
X5.75Y-4.275
X5.75Y-5.175
X5.85Y-4.275
X5.85Y-5.175
X5.95Y-4.275
X5.95Y-5.175
X6.05Y-4.275
X6.05Y-5.175
X6.15Y-4.275
X6.15Y-5.175
X5.65Y-5.975
X5.65Y-6.875
X5.75Y-5.975
X5.75Y-6.875
X5.85Y-5.975
X5.85Y-6.875
X5.95Y-5.975
X5.95Y-6.875
X6.05Y-5.975
X6.05Y-6.875
X6.15Y-5.975
X6.15Y-6.875
X2.05Y-0.875
X2.05Y-1.775
X2.15Y-0.875
X2.15Y-1.775
X2.25Y-0.875
X2.25Y-1.775
X2.35Y-0.875
X2.35Y-1.775
X2.45Y-0.875
X2.45Y-1.775
X2.55Y-0.875
X2.55Y-1.775
X5.65Y-0.875
X5.65Y-1.775
X5.75Y-0.875
X5.75Y-1.775
X5.85Y-0.875
X5.85Y-1.775
X5.95Y-0.875
X5.95Y-1.775
X6.05Y-0.875
X6.05Y-1.775
X6.15Y-0.875
X6.15Y-1.775
X2.05Y-4.275
X2.05Y-5.175
X2.15Y-4.275
X2.15Y-5.175
X2.25Y-4.275
X2.25Y-5.175
X2.35Y-4.275
X2.35Y-5.175
X2.45Y-4.275
X2.45Y-5.175
X2.55Y-4.275
X2.55Y-5.175
T3
X3.95Y-4.175
X3.95Y-4.275
X3.95Y-4.375
X3.95Y-4.475
X3.95Y-4.575
X3.95Y-4.675
X3.95Y-4.775
X3.95Y-4.875
X3.95Y-4.975
X3.95Y-5.075
X3.95Y-5.175
X3.95Y-5.275
X4.25Y-4.175
X4.25Y-4.275
X4.25Y-4.375
X4.25Y-4.475
X4.25Y-4.575
X4.25Y-4.675
X4.25Y-4.775
X4.25Y-4.875
X4.25Y-4.975
X4.25Y-5.075
X4.25Y-5.175
X4.25Y-5.275
X3.95Y-5.875
X3.95Y-5.975
X3.95Y-6.075
X3.95Y-6.175
X3.95Y-6.275
X3.95Y-6.375
X3.95Y-6.475
X3.95Y-6.575
X3.95Y-6.675
X3.95Y-6.775
X3.95Y-6.875
X3.95Y-6.975
X4.25Y-5.875
X4.25Y-5.975
X4.25Y-6.075
X4.25Y-6.175
X4.25Y-6.275
X4.25Y-6.375
X4.25Y-6.475
X4.25Y-6.575
X4.25Y-6.675
X4.25Y-6.775
X4.25Y-6.875
X4.25Y-6.975
X5.45Y-7.35
X5.45Y-7.65
X5.55Y-7.35
X5.55Y-7.65
X6.05Y-7.35
X6.05Y-7.65
X6.15Y-7.35
X6.15Y-7.65
X3.95Y-0.775
X3.95Y-0.875
X3.95Y-0.975
X3.95Y-1.075
X3.95Y-1.175
X3.95Y-1.275
X3.95Y-1.375
X3.95Y-1.475
X3.95Y-1.575
X3.95Y-1.675
X3.95Y-1.775
X3.95Y-1.875
X4.25Y-0.775
X4.25Y-0.875
X4.25Y-0.975
X4.25Y-1.075
X4.25Y-1.175
X4.25Y-1.275
X4.25Y-1.375
X4.25Y-1.475
X4.25Y-1.575
X4.25Y-1.675
X4.25Y-1.775
X4.25Y-1.875
X3.95Y-2.475
X3.95Y-2.575
X3.95Y-2.675
X3.95Y-2.775
X3.95Y-2.875
X3.95Y-2.975
X3.95Y-3.075
X3.95Y-3.175
X3.95Y-3.275
X3.95Y-3.375
X3.95Y-3.475
X3.95Y-3.575
X4.25Y-2.475
X4.25Y-2.575
X4.25Y-2.675
X4.25Y-2.775
X4.25Y-2.875
X4.25Y-2.975
X4.25Y-3.075
X4.25Y-3.175
X4.25Y-3.275
X4.25Y-3.375
X4.25Y-3.475
X4.25Y-3.575
X4.55Y-7.4
X5.15Y-7.4
T4
X2.85Y-7.45
X2.85Y-7.55
X2.95Y-7.45
X2.95Y-7.55
X3.05Y-7.45
X3.05Y-7.55
X3.15Y-7.45
X3.15Y-7.55
T0
M30
