%TF.GenerationSoftware,KiCad,Pcbnew,(5.1.8)-1*%
%TF.CreationDate,2021-01-26T12:47:38-05:00*%
%TF.ProjectId,SSD_Panel,5353445f-5061-46e6-956c-2e6b69636164,rev?*%
%TF.SameCoordinates,Original*%
%TF.FileFunction,Soldermask,Top*%
%TF.FilePolarity,Negative*%
%FSLAX46Y46*%
G04 Gerber Fmt 4.6, Leading zero omitted, Abs format (unit mm)*
G04 Created by KiCad (PCBNEW (5.1.8)-1) date 2021-01-26 12:47:38*
%MOMM*%
%LPD*%
G01*
G04 APERTURE LIST*
%ADD10R,1.700000X1.700000*%
%ADD11O,1.700000X1.700000*%
%ADD12O,1.600000X1.600000*%
%ADD13R,1.600000X1.600000*%
%ADD14C,8.600000*%
%ADD15C,0.900000*%
%ADD16R,1.222000X1.222000*%
%ADD17C,1.222000*%
%ADD18C,1.600000*%
G04 APERTURE END LIST*
D10*
%TO.C,J14*%
X20320000Y-34925000D03*
D11*
X17780000Y-34925000D03*
X20320000Y-37465000D03*
X17780000Y-37465000D03*
X20320000Y-40005000D03*
X17780000Y-40005000D03*
X20320000Y-42545000D03*
X17780000Y-42545000D03*
%TD*%
D12*
%TO.C,U2*%
X40640000Y-28575000D03*
X33020000Y-56515000D03*
X40640000Y-31115000D03*
X33020000Y-53975000D03*
X40640000Y-33655000D03*
X33020000Y-51435000D03*
X40640000Y-36195000D03*
X33020000Y-48895000D03*
X40640000Y-38735000D03*
X33020000Y-46355000D03*
X40640000Y-41275000D03*
X33020000Y-43815000D03*
X40640000Y-43815000D03*
X33020000Y-41275000D03*
X40640000Y-46355000D03*
X33020000Y-38735000D03*
X40640000Y-48895000D03*
X33020000Y-36195000D03*
X40640000Y-51435000D03*
X33020000Y-33655000D03*
X40640000Y-53975000D03*
X33020000Y-31115000D03*
X40640000Y-56515000D03*
D13*
X33020000Y-28575000D03*
%TD*%
D10*
%TO.C,J1*%
X36830000Y-73025000D03*
D11*
X36830000Y-75565000D03*
X34290000Y-73025000D03*
X34290000Y-75565000D03*
X31750000Y-73025000D03*
X31750000Y-75565000D03*
%TD*%
D14*
%TO.C,REF\u002A\u002A*%
X113030000Y-23495000D03*
D15*
X116255000Y-23495000D03*
X115310419Y-25775419D03*
X113030000Y-26720000D03*
X110749581Y-25775419D03*
X109805000Y-23495000D03*
X110749581Y-21214581D03*
X113030000Y-20270000D03*
X115310419Y-21214581D03*
%TD*%
D14*
%TO.C,REF\u002A\u002A*%
X113030000Y-75565000D03*
D15*
X116255000Y-75565000D03*
X115310419Y-77845419D03*
X113030000Y-78790000D03*
X110749581Y-77845419D03*
X109805000Y-75565000D03*
X110749581Y-73284581D03*
X113030000Y-72340000D03*
X115310419Y-73284581D03*
%TD*%
D14*
%TO.C,REF\u002A\u002A*%
X21590000Y-75565000D03*
D15*
X24815000Y-75565000D03*
X23870419Y-77845419D03*
X21590000Y-78790000D03*
X19309581Y-77845419D03*
X18365000Y-75565000D03*
X19309581Y-73284581D03*
X21590000Y-72340000D03*
X23870419Y-73284581D03*
%TD*%
D14*
%TO.C,REF\u002A\u002A*%
X21590000Y-23495000D03*
D15*
X24815000Y-23495000D03*
X23870419Y-25775419D03*
X21590000Y-26720000D03*
X19309581Y-25775419D03*
X18365000Y-23495000D03*
X19309581Y-21214581D03*
X21590000Y-20270000D03*
X23870419Y-21214581D03*
%TD*%
%TO.C,C1*%
G36*
G01*
X58600001Y-72945000D02*
X55699999Y-72945000D01*
G75*
G02*
X55450000Y-72695001I0J249999D01*
G01*
X55450000Y-71619999D01*
G75*
G02*
X55699999Y-71370000I249999J0D01*
G01*
X58600001Y-71370000D01*
G75*
G02*
X58850000Y-71619999I0J-249999D01*
G01*
X58850000Y-72695001D01*
G75*
G02*
X58600001Y-72945000I-249999J0D01*
G01*
G37*
G36*
G01*
X58600001Y-77220000D02*
X55699999Y-77220000D01*
G75*
G02*
X55450000Y-76970001I0J249999D01*
G01*
X55450000Y-75894999D01*
G75*
G02*
X55699999Y-75645000I249999J0D01*
G01*
X58600001Y-75645000D01*
G75*
G02*
X58850000Y-75894999I0J-249999D01*
G01*
X58850000Y-76970001D01*
G75*
G02*
X58600001Y-77220000I-249999J0D01*
G01*
G37*
%TD*%
%TO.C,C2*%
G36*
G01*
X31119000Y-65986999D02*
X31119000Y-68887001D01*
G75*
G02*
X30869001Y-69137000I-249999J0D01*
G01*
X29793999Y-69137000D01*
G75*
G02*
X29544000Y-68887001I0J249999D01*
G01*
X29544000Y-65986999D01*
G75*
G02*
X29793999Y-65737000I249999J0D01*
G01*
X30869001Y-65737000D01*
G75*
G02*
X31119000Y-65986999I0J-249999D01*
G01*
G37*
G36*
G01*
X26844000Y-65986999D02*
X26844000Y-68887001D01*
G75*
G02*
X26594001Y-69137000I-249999J0D01*
G01*
X25518999Y-69137000D01*
G75*
G02*
X25269000Y-68887001I0J249999D01*
G01*
X25269000Y-65986999D01*
G75*
G02*
X25518999Y-65737000I249999J0D01*
G01*
X26594001Y-65737000D01*
G75*
G02*
X26844000Y-65986999I0J-249999D01*
G01*
G37*
%TD*%
D10*
%TO.C,J2*%
X48260000Y-74295000D03*
D11*
X45720000Y-74295000D03*
%TD*%
%TO.C,R5*%
G36*
G01*
X79815000Y-76495000D02*
X77665000Y-76495000D01*
G75*
G02*
X77415000Y-76245000I0J250000D01*
G01*
X77415000Y-75445000D01*
G75*
G02*
X77665000Y-75195000I250000J0D01*
G01*
X79815000Y-75195000D01*
G75*
G02*
X80065000Y-75445000I0J-250000D01*
G01*
X80065000Y-76245000D01*
G75*
G02*
X79815000Y-76495000I-250000J0D01*
G01*
G37*
G36*
G01*
X79815000Y-73395000D02*
X77665000Y-73395000D01*
G75*
G02*
X77415000Y-73145000I0J250000D01*
G01*
X77415000Y-72345000D01*
G75*
G02*
X77665000Y-72095000I250000J0D01*
G01*
X79815000Y-72095000D01*
G75*
G02*
X80065000Y-72345000I0J-250000D01*
G01*
X80065000Y-73145000D01*
G75*
G02*
X79815000Y-73395000I-250000J0D01*
G01*
G37*
%TD*%
%TO.C,R1*%
G36*
G01*
X43520000Y-65210000D02*
X43520000Y-63060000D01*
G75*
G02*
X43770000Y-62810000I250000J0D01*
G01*
X44570000Y-62810000D01*
G75*
G02*
X44820000Y-63060000I0J-250000D01*
G01*
X44820000Y-65210000D01*
G75*
G02*
X44570000Y-65460000I-250000J0D01*
G01*
X43770000Y-65460000D01*
G75*
G02*
X43520000Y-65210000I0J250000D01*
G01*
G37*
G36*
G01*
X46620000Y-65210000D02*
X46620000Y-63060000D01*
G75*
G02*
X46870000Y-62810000I250000J0D01*
G01*
X47670000Y-62810000D01*
G75*
G02*
X47920000Y-63060000I0J-250000D01*
G01*
X47920000Y-65210000D01*
G75*
G02*
X47670000Y-65460000I-250000J0D01*
G01*
X46870000Y-65460000D01*
G75*
G02*
X46620000Y-65210000I0J250000D01*
G01*
G37*
%TD*%
%TO.C,R3*%
G36*
G01*
X66940000Y-65210000D02*
X66940000Y-63060000D01*
G75*
G02*
X67190000Y-62810000I250000J0D01*
G01*
X67990000Y-62810000D01*
G75*
G02*
X68240000Y-63060000I0J-250000D01*
G01*
X68240000Y-65210000D01*
G75*
G02*
X67990000Y-65460000I-250000J0D01*
G01*
X67190000Y-65460000D01*
G75*
G02*
X66940000Y-65210000I0J250000D01*
G01*
G37*
G36*
G01*
X63840000Y-65210000D02*
X63840000Y-63060000D01*
G75*
G02*
X64090000Y-62810000I250000J0D01*
G01*
X64890000Y-62810000D01*
G75*
G02*
X65140000Y-63060000I0J-250000D01*
G01*
X65140000Y-65210000D01*
G75*
G02*
X64890000Y-65460000I-250000J0D01*
G01*
X64090000Y-65460000D01*
G75*
G02*
X63840000Y-65210000I0J250000D01*
G01*
G37*
%TD*%
%TO.C,R2*%
G36*
G01*
X84160000Y-65210000D02*
X84160000Y-63060000D01*
G75*
G02*
X84410000Y-62810000I250000J0D01*
G01*
X85210000Y-62810000D01*
G75*
G02*
X85460000Y-63060000I0J-250000D01*
G01*
X85460000Y-65210000D01*
G75*
G02*
X85210000Y-65460000I-250000J0D01*
G01*
X84410000Y-65460000D01*
G75*
G02*
X84160000Y-65210000I0J250000D01*
G01*
G37*
G36*
G01*
X87260000Y-65210000D02*
X87260000Y-63060000D01*
G75*
G02*
X87510000Y-62810000I250000J0D01*
G01*
X88310000Y-62810000D01*
G75*
G02*
X88560000Y-63060000I0J-250000D01*
G01*
X88560000Y-65210000D01*
G75*
G02*
X88310000Y-65460000I-250000J0D01*
G01*
X87510000Y-65460000D01*
G75*
G02*
X87260000Y-65210000I0J250000D01*
G01*
G37*
%TD*%
%TO.C,R4*%
G36*
G01*
X107580000Y-65210000D02*
X107580000Y-63060000D01*
G75*
G02*
X107830000Y-62810000I250000J0D01*
G01*
X108630000Y-62810000D01*
G75*
G02*
X108880000Y-63060000I0J-250000D01*
G01*
X108880000Y-65210000D01*
G75*
G02*
X108630000Y-65460000I-250000J0D01*
G01*
X107830000Y-65460000D01*
G75*
G02*
X107580000Y-65210000I0J250000D01*
G01*
G37*
G36*
G01*
X104480000Y-65210000D02*
X104480000Y-63060000D01*
G75*
G02*
X104730000Y-62810000I250000J0D01*
G01*
X105530000Y-62810000D01*
G75*
G02*
X105780000Y-63060000I0J-250000D01*
G01*
X105780000Y-65210000D01*
G75*
G02*
X105530000Y-65460000I-250000J0D01*
G01*
X104730000Y-65460000D01*
G75*
G02*
X104480000Y-65210000I0J250000D01*
G01*
G37*
%TD*%
D16*
%TO.C,RV1*%
X34290000Y-64135000D03*
D17*
X36830000Y-61595000D03*
X39370000Y-64135000D03*
%TD*%
%TO.C,RV3*%
X59690000Y-64135000D03*
X57150000Y-61595000D03*
D16*
X54610000Y-64135000D03*
%TD*%
%TO.C,RV2*%
X74930000Y-64135000D03*
D17*
X77470000Y-61595000D03*
X80010000Y-64135000D03*
%TD*%
%TO.C,RV4*%
X100330000Y-64135000D03*
X97790000Y-61595000D03*
D16*
X95250000Y-64135000D03*
%TD*%
D13*
%TO.C,U1*%
X64770000Y-78105000D03*
D18*
X67310000Y-78105000D03*
X69850000Y-78105000D03*
X72390000Y-78105000D03*
X72390000Y-70485000D03*
X69850000Y-70485000D03*
X67310000Y-70485000D03*
X64770000Y-70485000D03*
%TD*%
D13*
%TO.C,U3*%
X53340000Y-28575000D03*
D12*
X60960000Y-56515000D03*
X53340000Y-31115000D03*
X60960000Y-53975000D03*
X53340000Y-33655000D03*
X60960000Y-51435000D03*
X53340000Y-36195000D03*
X60960000Y-48895000D03*
X53340000Y-38735000D03*
X60960000Y-46355000D03*
X53340000Y-41275000D03*
X60960000Y-43815000D03*
X53340000Y-43815000D03*
X60960000Y-41275000D03*
X53340000Y-46355000D03*
X60960000Y-38735000D03*
X53340000Y-48895000D03*
X60960000Y-36195000D03*
X53340000Y-51435000D03*
X60960000Y-33655000D03*
X53340000Y-53975000D03*
X60960000Y-31115000D03*
X53340000Y-56515000D03*
X60960000Y-28575000D03*
%TD*%
D13*
%TO.C,U4*%
X73660000Y-28575000D03*
D12*
X81280000Y-56515000D03*
X73660000Y-31115000D03*
X81280000Y-53975000D03*
X73660000Y-33655000D03*
X81280000Y-51435000D03*
X73660000Y-36195000D03*
X81280000Y-48895000D03*
X73660000Y-38735000D03*
X81280000Y-46355000D03*
X73660000Y-41275000D03*
X81280000Y-43815000D03*
X73660000Y-43815000D03*
X81280000Y-41275000D03*
X73660000Y-46355000D03*
X81280000Y-38735000D03*
X73660000Y-48895000D03*
X81280000Y-36195000D03*
X73660000Y-51435000D03*
X81280000Y-33655000D03*
X73660000Y-53975000D03*
X81280000Y-31115000D03*
X73660000Y-56515000D03*
X81280000Y-28575000D03*
%TD*%
%TO.C,U5*%
X101600000Y-28575000D03*
X93980000Y-56515000D03*
X101600000Y-31115000D03*
X93980000Y-53975000D03*
X101600000Y-33655000D03*
X93980000Y-51435000D03*
X101600000Y-36195000D03*
X93980000Y-48895000D03*
X101600000Y-38735000D03*
X93980000Y-46355000D03*
X101600000Y-41275000D03*
X93980000Y-43815000D03*
X101600000Y-43815000D03*
X93980000Y-41275000D03*
X101600000Y-46355000D03*
X93980000Y-38735000D03*
X101600000Y-48895000D03*
X93980000Y-36195000D03*
X101600000Y-51435000D03*
X93980000Y-33655000D03*
X101600000Y-53975000D03*
X93980000Y-31115000D03*
X101600000Y-56515000D03*
D13*
X93980000Y-28575000D03*
%TD*%
D11*
%TO.C,J3*%
X72390000Y-19685000D03*
X72390000Y-22225000D03*
X74930000Y-19685000D03*
D10*
X74930000Y-22225000D03*
%TD*%
D11*
%TO.C,J4*%
X116840000Y-33655000D03*
X114300000Y-33655000D03*
X116840000Y-36195000D03*
D10*
X114300000Y-36195000D03*
%TD*%
%TO.C,J5*%
X36830000Y-22225000D03*
D11*
X36830000Y-19685000D03*
X34290000Y-22225000D03*
X34290000Y-19685000D03*
%TD*%
%TO.C,J6*%
X17780000Y-62865000D03*
X20320000Y-62865000D03*
X17780000Y-60325000D03*
D10*
X20320000Y-60325000D03*
%TD*%
%TO.C,J7*%
X85090000Y-22225000D03*
D11*
X85090000Y-19685000D03*
X82550000Y-22225000D03*
X82550000Y-19685000D03*
%TD*%
%TO.C,J8*%
X116840000Y-43815000D03*
X114300000Y-43815000D03*
X116840000Y-46355000D03*
D10*
X114300000Y-46355000D03*
%TD*%
%TO.C,J9*%
X46990000Y-22225000D03*
D11*
X46990000Y-19685000D03*
X44450000Y-22225000D03*
X44450000Y-19685000D03*
%TD*%
D10*
%TO.C,J10*%
X20320000Y-50165000D03*
D11*
X17780000Y-50165000D03*
X20320000Y-52705000D03*
X17780000Y-52705000D03*
%TD*%
D10*
%TO.C,J11*%
X100330000Y-22225000D03*
D11*
X100330000Y-19685000D03*
X97790000Y-22225000D03*
X97790000Y-19685000D03*
X95250000Y-22225000D03*
X95250000Y-19685000D03*
X92710000Y-22225000D03*
X92710000Y-19685000D03*
%TD*%
%TO.C,J12*%
X116840000Y-53975000D03*
X114300000Y-53975000D03*
X116840000Y-56515000D03*
X114300000Y-56515000D03*
X116840000Y-59055000D03*
X114300000Y-59055000D03*
X116840000Y-61595000D03*
D10*
X114300000Y-61595000D03*
%TD*%
D11*
%TO.C,J13*%
X54610000Y-19685000D03*
X54610000Y-22225000D03*
X57150000Y-19685000D03*
X57150000Y-22225000D03*
X59690000Y-19685000D03*
X59690000Y-22225000D03*
X62230000Y-19685000D03*
D10*
X62230000Y-22225000D03*
%TD*%
M02*
