%TF.GenerationSoftware,KiCad,Pcbnew,(5.1.8)-1*%
%TF.CreationDate,2021-01-26T12:47:38-05:00*%
%TF.ProjectId,SSD_Panel,5353445f-5061-46e6-956c-2e6b69636164,rev?*%
%TF.SameCoordinates,Original*%
%TF.FileFunction,Legend,Top*%
%TF.FilePolarity,Positive*%
%FSLAX46Y46*%
G04 Gerber Fmt 4.6, Leading zero omitted, Abs format (unit mm)*
G04 Created by KiCad (PCBNEW (5.1.8)-1) date 2021-01-26 12:47:38*
%MOMM*%
%LPD*%
G01*
G04 APERTURE LIST*
%ADD10C,0.150000*%
%ADD11C,0.120000*%
%ADD12C,0.127000*%
%ADD13C,0.200000*%
%ADD14C,0.100000*%
%ADD15C,0.015000*%
G04 APERTURE END LIST*
D10*
X90837142Y-72207380D02*
X90503809Y-71731190D01*
X90265714Y-72207380D02*
X90265714Y-71207380D01*
X90646666Y-71207380D01*
X90741904Y-71255000D01*
X90789523Y-71302619D01*
X90837142Y-71397857D01*
X90837142Y-71540714D01*
X90789523Y-71635952D01*
X90741904Y-71683571D01*
X90646666Y-71731190D01*
X90265714Y-71731190D01*
X91646666Y-72159761D02*
X91551428Y-72207380D01*
X91360952Y-72207380D01*
X91265714Y-72159761D01*
X91218095Y-72064523D01*
X91218095Y-71683571D01*
X91265714Y-71588333D01*
X91360952Y-71540714D01*
X91551428Y-71540714D01*
X91646666Y-71588333D01*
X91694285Y-71683571D01*
X91694285Y-71778809D01*
X91218095Y-71874047D01*
X92027619Y-71540714D02*
X92265714Y-72207380D01*
X92503809Y-71540714D01*
X92884761Y-72207380D02*
X92884761Y-71540714D01*
X92884761Y-71207380D02*
X92837142Y-71255000D01*
X92884761Y-71302619D01*
X92932380Y-71255000D01*
X92884761Y-71207380D01*
X92884761Y-71302619D01*
X93313333Y-72159761D02*
X93408571Y-72207380D01*
X93599047Y-72207380D01*
X93694285Y-72159761D01*
X93741904Y-72064523D01*
X93741904Y-72016904D01*
X93694285Y-71921666D01*
X93599047Y-71874047D01*
X93456190Y-71874047D01*
X93360952Y-71826428D01*
X93313333Y-71731190D01*
X93313333Y-71683571D01*
X93360952Y-71588333D01*
X93456190Y-71540714D01*
X93599047Y-71540714D01*
X93694285Y-71588333D01*
X94170476Y-72207380D02*
X94170476Y-71540714D01*
X94170476Y-71207380D02*
X94122857Y-71255000D01*
X94170476Y-71302619D01*
X94218095Y-71255000D01*
X94170476Y-71207380D01*
X94170476Y-71302619D01*
X94789523Y-72207380D02*
X94694285Y-72159761D01*
X94646666Y-72112142D01*
X94599047Y-72016904D01*
X94599047Y-71731190D01*
X94646666Y-71635952D01*
X94694285Y-71588333D01*
X94789523Y-71540714D01*
X94932380Y-71540714D01*
X95027619Y-71588333D01*
X95075238Y-71635952D01*
X95122857Y-71731190D01*
X95122857Y-72016904D01*
X95075238Y-72112142D01*
X95027619Y-72159761D01*
X94932380Y-72207380D01*
X94789523Y-72207380D01*
X95551428Y-71540714D02*
X95551428Y-72207380D01*
X95551428Y-71635952D02*
X95599047Y-71588333D01*
X95694285Y-71540714D01*
X95837142Y-71540714D01*
X95932380Y-71588333D01*
X95980000Y-71683571D01*
X95980000Y-72207380D01*
X97694285Y-71207380D02*
X97218095Y-71207380D01*
X97170476Y-71683571D01*
X97218095Y-71635952D01*
X97313333Y-71588333D01*
X97551428Y-71588333D01*
X97646666Y-71635952D01*
X97694285Y-71683571D01*
X97741904Y-71778809D01*
X97741904Y-72016904D01*
X97694285Y-72112142D01*
X97646666Y-72159761D01*
X97551428Y-72207380D01*
X97313333Y-72207380D01*
X97218095Y-72159761D01*
X97170476Y-72112142D01*
X87146666Y-75589761D02*
X87289523Y-75637380D01*
X87527619Y-75637380D01*
X87622857Y-75589761D01*
X87670476Y-75542142D01*
X87718095Y-75446904D01*
X87718095Y-75351666D01*
X87670476Y-75256428D01*
X87622857Y-75208809D01*
X87527619Y-75161190D01*
X87337142Y-75113571D01*
X87241904Y-75065952D01*
X87194285Y-75018333D01*
X87146666Y-74923095D01*
X87146666Y-74827857D01*
X87194285Y-74732619D01*
X87241904Y-74685000D01*
X87337142Y-74637380D01*
X87575238Y-74637380D01*
X87718095Y-74685000D01*
X88099047Y-75589761D02*
X88241904Y-75637380D01*
X88480000Y-75637380D01*
X88575238Y-75589761D01*
X88622857Y-75542142D01*
X88670476Y-75446904D01*
X88670476Y-75351666D01*
X88622857Y-75256428D01*
X88575238Y-75208809D01*
X88480000Y-75161190D01*
X88289523Y-75113571D01*
X88194285Y-75065952D01*
X88146666Y-75018333D01*
X88099047Y-74923095D01*
X88099047Y-74827857D01*
X88146666Y-74732619D01*
X88194285Y-74685000D01*
X88289523Y-74637380D01*
X88527619Y-74637380D01*
X88670476Y-74685000D01*
X89099047Y-75637380D02*
X89099047Y-74637380D01*
X89337142Y-74637380D01*
X89480000Y-74685000D01*
X89575238Y-74780238D01*
X89622857Y-74875476D01*
X89670476Y-75065952D01*
X89670476Y-75208809D01*
X89622857Y-75399285D01*
X89575238Y-75494523D01*
X89480000Y-75589761D01*
X89337142Y-75637380D01*
X89099047Y-75637380D01*
X91432380Y-75542142D02*
X91384761Y-75589761D01*
X91241904Y-75637380D01*
X91146666Y-75637380D01*
X91003809Y-75589761D01*
X90908571Y-75494523D01*
X90860952Y-75399285D01*
X90813333Y-75208809D01*
X90813333Y-75065952D01*
X90860952Y-74875476D01*
X90908571Y-74780238D01*
X91003809Y-74685000D01*
X91146666Y-74637380D01*
X91241904Y-74637380D01*
X91384761Y-74685000D01*
X91432380Y-74732619D01*
X92003809Y-75637380D02*
X91908571Y-75589761D01*
X91860952Y-75542142D01*
X91813333Y-75446904D01*
X91813333Y-75161190D01*
X91860952Y-75065952D01*
X91908571Y-75018333D01*
X92003809Y-74970714D01*
X92146666Y-74970714D01*
X92241904Y-75018333D01*
X92289523Y-75065952D01*
X92337142Y-75161190D01*
X92337142Y-75446904D01*
X92289523Y-75542142D01*
X92241904Y-75589761D01*
X92146666Y-75637380D01*
X92003809Y-75637380D01*
X92765714Y-74970714D02*
X92765714Y-75637380D01*
X92765714Y-75065952D02*
X92813333Y-75018333D01*
X92908571Y-74970714D01*
X93051428Y-74970714D01*
X93146666Y-75018333D01*
X93194285Y-75113571D01*
X93194285Y-75637380D01*
X93527619Y-74970714D02*
X93908571Y-74970714D01*
X93670476Y-74637380D02*
X93670476Y-75494523D01*
X93718095Y-75589761D01*
X93813333Y-75637380D01*
X93908571Y-75637380D01*
X94241904Y-75637380D02*
X94241904Y-74970714D01*
X94241904Y-75161190D02*
X94289523Y-75065952D01*
X94337142Y-75018333D01*
X94432380Y-74970714D01*
X94527619Y-74970714D01*
X95003809Y-75637380D02*
X94908571Y-75589761D01*
X94860952Y-75542142D01*
X94813333Y-75446904D01*
X94813333Y-75161190D01*
X94860952Y-75065952D01*
X94908571Y-75018333D01*
X95003809Y-74970714D01*
X95146666Y-74970714D01*
X95241904Y-75018333D01*
X95289523Y-75065952D01*
X95337142Y-75161190D01*
X95337142Y-75446904D01*
X95289523Y-75542142D01*
X95241904Y-75589761D01*
X95146666Y-75637380D01*
X95003809Y-75637380D01*
X95908571Y-75637380D02*
X95813333Y-75589761D01*
X95765714Y-75494523D01*
X95765714Y-74637380D01*
X97051428Y-75637380D02*
X97051428Y-74637380D01*
X97432380Y-74637380D01*
X97527619Y-74685000D01*
X97575238Y-74732619D01*
X97622857Y-74827857D01*
X97622857Y-74970714D01*
X97575238Y-75065952D01*
X97527619Y-75113571D01*
X97432380Y-75161190D01*
X97051428Y-75161190D01*
X98480000Y-75637380D02*
X98480000Y-75113571D01*
X98432380Y-75018333D01*
X98337142Y-74970714D01*
X98146666Y-74970714D01*
X98051428Y-75018333D01*
X98480000Y-75589761D02*
X98384761Y-75637380D01*
X98146666Y-75637380D01*
X98051428Y-75589761D01*
X98003809Y-75494523D01*
X98003809Y-75399285D01*
X98051428Y-75304047D01*
X98146666Y-75256428D01*
X98384761Y-75256428D01*
X98480000Y-75208809D01*
X98956190Y-74970714D02*
X98956190Y-75637380D01*
X98956190Y-75065952D02*
X99003809Y-75018333D01*
X99099047Y-74970714D01*
X99241904Y-74970714D01*
X99337142Y-75018333D01*
X99384761Y-75113571D01*
X99384761Y-75637380D01*
X100241904Y-75589761D02*
X100146666Y-75637380D01*
X99956190Y-75637380D01*
X99860952Y-75589761D01*
X99813333Y-75494523D01*
X99813333Y-75113571D01*
X99860952Y-75018333D01*
X99956190Y-74970714D01*
X100146666Y-74970714D01*
X100241904Y-75018333D01*
X100289523Y-75113571D01*
X100289523Y-75208809D01*
X99813333Y-75304047D01*
X100860952Y-75637380D02*
X100765714Y-75589761D01*
X100718095Y-75494523D01*
X100718095Y-74637380D01*
X83980000Y-77668333D02*
X83932380Y-77620714D01*
X83837142Y-77477857D01*
X83789523Y-77382619D01*
X83741904Y-77239761D01*
X83694285Y-77001666D01*
X83694285Y-76811190D01*
X83741904Y-76573095D01*
X83789523Y-76430238D01*
X83837142Y-76335000D01*
X83932380Y-76192142D01*
X83980000Y-76144523D01*
X84789523Y-77239761D02*
X84694285Y-77287380D01*
X84503809Y-77287380D01*
X84408571Y-77239761D01*
X84360952Y-77192142D01*
X84313333Y-77096904D01*
X84313333Y-76811190D01*
X84360952Y-76715952D01*
X84408571Y-76668333D01*
X84503809Y-76620714D01*
X84694285Y-76620714D01*
X84789523Y-76668333D01*
X85122857Y-77668333D02*
X85170476Y-77620714D01*
X85265714Y-77477857D01*
X85313333Y-77382619D01*
X85360952Y-77239761D01*
X85408571Y-77001666D01*
X85408571Y-76811190D01*
X85360952Y-76573095D01*
X85313333Y-76430238D01*
X85265714Y-76335000D01*
X85170476Y-76192142D01*
X85122857Y-76144523D01*
X86599047Y-77001666D02*
X87075238Y-77001666D01*
X86503809Y-77287380D02*
X86837142Y-76287380D01*
X87170476Y-77287380D01*
X87932380Y-76620714D02*
X87932380Y-77287380D01*
X87503809Y-76620714D02*
X87503809Y-77144523D01*
X87551428Y-77239761D01*
X87646666Y-77287380D01*
X87789523Y-77287380D01*
X87884761Y-77239761D01*
X87932380Y-77192142D01*
X88360952Y-77239761D02*
X88456190Y-77287380D01*
X88646666Y-77287380D01*
X88741904Y-77239761D01*
X88789523Y-77144523D01*
X88789523Y-77096904D01*
X88741904Y-77001666D01*
X88646666Y-76954047D01*
X88503809Y-76954047D01*
X88408571Y-76906428D01*
X88360952Y-76811190D01*
X88360952Y-76763571D01*
X88408571Y-76668333D01*
X88503809Y-76620714D01*
X88646666Y-76620714D01*
X88741904Y-76668333D01*
X89075238Y-76620714D02*
X89456190Y-76620714D01*
X89218095Y-76287380D02*
X89218095Y-77144523D01*
X89265714Y-77239761D01*
X89360952Y-77287380D01*
X89456190Y-77287380D01*
X90170476Y-77239761D02*
X90075238Y-77287380D01*
X89884761Y-77287380D01*
X89789523Y-77239761D01*
X89741904Y-77144523D01*
X89741904Y-76763571D01*
X89789523Y-76668333D01*
X89884761Y-76620714D01*
X90075238Y-76620714D01*
X90170476Y-76668333D01*
X90218095Y-76763571D01*
X90218095Y-76858809D01*
X89741904Y-76954047D01*
X90646666Y-76620714D02*
X90646666Y-77287380D01*
X90646666Y-76715952D02*
X90694285Y-76668333D01*
X90789523Y-76620714D01*
X90932380Y-76620714D01*
X91027619Y-76668333D01*
X91075238Y-76763571D01*
X91075238Y-77287380D01*
X92313333Y-77287380D02*
X92313333Y-76287380D01*
X92313333Y-76763571D02*
X92884761Y-76763571D01*
X92884761Y-77287380D02*
X92884761Y-76287380D01*
X93360952Y-77287380D02*
X93360952Y-76620714D01*
X93360952Y-76287380D02*
X93313333Y-76335000D01*
X93360952Y-76382619D01*
X93408571Y-76335000D01*
X93360952Y-76287380D01*
X93360952Y-76382619D01*
X94265714Y-76620714D02*
X94265714Y-77430238D01*
X94218095Y-77525476D01*
X94170476Y-77573095D01*
X94075238Y-77620714D01*
X93932380Y-77620714D01*
X93837142Y-77573095D01*
X94265714Y-77239761D02*
X94170476Y-77287380D01*
X93980000Y-77287380D01*
X93884761Y-77239761D01*
X93837142Y-77192142D01*
X93789523Y-77096904D01*
X93789523Y-76811190D01*
X93837142Y-76715952D01*
X93884761Y-76668333D01*
X93980000Y-76620714D01*
X94170476Y-76620714D01*
X94265714Y-76668333D01*
X95170476Y-76620714D02*
X95170476Y-77430238D01*
X95122857Y-77525476D01*
X95075238Y-77573095D01*
X94980000Y-77620714D01*
X94837142Y-77620714D01*
X94741904Y-77573095D01*
X95170476Y-77239761D02*
X95075238Y-77287380D01*
X94884761Y-77287380D01*
X94789523Y-77239761D01*
X94741904Y-77192142D01*
X94694285Y-77096904D01*
X94694285Y-76811190D01*
X94741904Y-76715952D01*
X94789523Y-76668333D01*
X94884761Y-76620714D01*
X95075238Y-76620714D01*
X95170476Y-76668333D01*
X95646666Y-77287380D02*
X95646666Y-76620714D01*
X95646666Y-76287380D02*
X95599047Y-76335000D01*
X95646666Y-76382619D01*
X95694285Y-76335000D01*
X95646666Y-76287380D01*
X95646666Y-76382619D01*
X96122857Y-76620714D02*
X96122857Y-77287380D01*
X96122857Y-76715952D02*
X96170476Y-76668333D01*
X96265714Y-76620714D01*
X96408571Y-76620714D01*
X96503809Y-76668333D01*
X96551428Y-76763571D01*
X96551428Y-77287380D01*
X96980000Y-77239761D02*
X97075238Y-77287380D01*
X97265714Y-77287380D01*
X97360952Y-77239761D01*
X97408571Y-77144523D01*
X97408571Y-77096904D01*
X97360952Y-77001666D01*
X97265714Y-76954047D01*
X97122857Y-76954047D01*
X97027619Y-76906428D01*
X96980000Y-76811190D01*
X96980000Y-76763571D01*
X97027619Y-76668333D01*
X97122857Y-76620714D01*
X97265714Y-76620714D01*
X97360952Y-76668333D01*
X97837142Y-76906428D02*
X98599047Y-76906428D01*
X99646666Y-77192142D02*
X99599047Y-77239761D01*
X99456190Y-77287380D01*
X99360952Y-77287380D01*
X99218095Y-77239761D01*
X99122857Y-77144523D01*
X99075238Y-77049285D01*
X99027619Y-76858809D01*
X99027619Y-76715952D01*
X99075238Y-76525476D01*
X99122857Y-76430238D01*
X99218095Y-76335000D01*
X99360952Y-76287380D01*
X99456190Y-76287380D01*
X99599047Y-76335000D01*
X99646666Y-76382619D01*
X100503809Y-77287380D02*
X100503809Y-76763571D01*
X100456190Y-76668333D01*
X100360952Y-76620714D01*
X100170476Y-76620714D01*
X100075238Y-76668333D01*
X100503809Y-77239761D02*
X100408571Y-77287380D01*
X100170476Y-77287380D01*
X100075238Y-77239761D01*
X100027619Y-77144523D01*
X100027619Y-77049285D01*
X100075238Y-76954047D01*
X100170476Y-76906428D01*
X100408571Y-76906428D01*
X100503809Y-76858809D01*
X100932380Y-77239761D02*
X101027619Y-77287380D01*
X101218095Y-77287380D01*
X101313333Y-77239761D01*
X101360952Y-77144523D01*
X101360952Y-77096904D01*
X101313333Y-77001666D01*
X101218095Y-76954047D01*
X101075238Y-76954047D01*
X100980000Y-76906428D01*
X100932380Y-76811190D01*
X100932380Y-76763571D01*
X100980000Y-76668333D01*
X101075238Y-76620714D01*
X101218095Y-76620714D01*
X101313333Y-76668333D01*
X101741904Y-77239761D02*
X101837142Y-77287380D01*
X102027619Y-77287380D01*
X102122857Y-77239761D01*
X102170476Y-77144523D01*
X102170476Y-77096904D01*
X102122857Y-77001666D01*
X102027619Y-76954047D01*
X101884761Y-76954047D01*
X101789523Y-76906428D01*
X101741904Y-76811190D01*
X101741904Y-76763571D01*
X101789523Y-76668333D01*
X101884761Y-76620714D01*
X102027619Y-76620714D01*
X102122857Y-76668333D01*
X102599047Y-77287380D02*
X102599047Y-76620714D01*
X102599047Y-76287380D02*
X102551428Y-76335000D01*
X102599047Y-76382619D01*
X102646666Y-76335000D01*
X102599047Y-76287380D01*
X102599047Y-76382619D01*
X103503809Y-77287380D02*
X103503809Y-76287380D01*
X103503809Y-77239761D02*
X103408571Y-77287380D01*
X103218095Y-77287380D01*
X103122857Y-77239761D01*
X103075238Y-77192142D01*
X103027619Y-77096904D01*
X103027619Y-76811190D01*
X103075238Y-76715952D01*
X103122857Y-76668333D01*
X103218095Y-76620714D01*
X103408571Y-76620714D01*
X103503809Y-76668333D01*
X103884761Y-76620714D02*
X104122857Y-77287380D01*
X104360952Y-76620714D02*
X104122857Y-77287380D01*
X104027619Y-77525476D01*
X103980000Y-77573095D01*
X103884761Y-77620714D01*
X87956190Y-78937380D02*
X87956190Y-77937380D01*
X88289523Y-78651666D01*
X88622857Y-77937380D01*
X88622857Y-78937380D01*
X89099047Y-78937380D02*
X89099047Y-78270714D01*
X89099047Y-77937380D02*
X89051428Y-77985000D01*
X89099047Y-78032619D01*
X89146666Y-77985000D01*
X89099047Y-77937380D01*
X89099047Y-78032619D01*
X89718095Y-78937380D02*
X89622857Y-78889761D01*
X89575238Y-78794523D01*
X89575238Y-77937380D01*
X90241904Y-78937380D02*
X90146666Y-78889761D01*
X90099047Y-78794523D01*
X90099047Y-77937380D01*
X90622857Y-78937380D02*
X90622857Y-78270714D01*
X90622857Y-77937380D02*
X90575238Y-77985000D01*
X90622857Y-78032619D01*
X90670476Y-77985000D01*
X90622857Y-77937380D01*
X90622857Y-78032619D01*
X91099047Y-78937380D02*
X91099047Y-77937380D01*
X91099047Y-78318333D02*
X91194285Y-78270714D01*
X91384761Y-78270714D01*
X91480000Y-78318333D01*
X91527619Y-78365952D01*
X91575238Y-78461190D01*
X91575238Y-78746904D01*
X91527619Y-78842142D01*
X91480000Y-78889761D01*
X91384761Y-78937380D01*
X91194285Y-78937380D01*
X91099047Y-78889761D01*
X91908571Y-78270714D02*
X92146666Y-78937380D01*
X92384761Y-78270714D02*
X92146666Y-78937380D01*
X92051428Y-79175476D01*
X92003809Y-79223095D01*
X91908571Y-79270714D01*
X92622857Y-78270714D02*
X93003809Y-78270714D01*
X92765714Y-77937380D02*
X92765714Y-78794523D01*
X92813333Y-78889761D01*
X92908571Y-78937380D01*
X93003809Y-78937380D01*
X93718095Y-78889761D02*
X93622857Y-78937380D01*
X93432380Y-78937380D01*
X93337142Y-78889761D01*
X93289523Y-78794523D01*
X93289523Y-78413571D01*
X93337142Y-78318333D01*
X93432380Y-78270714D01*
X93622857Y-78270714D01*
X93718095Y-78318333D01*
X93765714Y-78413571D01*
X93765714Y-78508809D01*
X93289523Y-78604047D01*
X94908571Y-78889761D02*
X95051428Y-78937380D01*
X95289523Y-78937380D01*
X95384761Y-78889761D01*
X95432380Y-78842142D01*
X95480000Y-78746904D01*
X95480000Y-78651666D01*
X95432380Y-78556428D01*
X95384761Y-78508809D01*
X95289523Y-78461190D01*
X95099047Y-78413571D01*
X95003809Y-78365952D01*
X94956190Y-78318333D01*
X94908571Y-78223095D01*
X94908571Y-78127857D01*
X94956190Y-78032619D01*
X95003809Y-77985000D01*
X95099047Y-77937380D01*
X95337142Y-77937380D01*
X95480000Y-77985000D01*
X95765714Y-78270714D02*
X96146666Y-78270714D01*
X95908571Y-77937380D02*
X95908571Y-78794523D01*
X95956190Y-78889761D01*
X96051428Y-78937380D01*
X96146666Y-78937380D01*
X96908571Y-78270714D02*
X96908571Y-78937380D01*
X96480000Y-78270714D02*
X96480000Y-78794523D01*
X96527619Y-78889761D01*
X96622857Y-78937380D01*
X96765714Y-78937380D01*
X96860952Y-78889761D01*
X96908571Y-78842142D01*
X97813333Y-78937380D02*
X97813333Y-77937380D01*
X97813333Y-78889761D02*
X97718095Y-78937380D01*
X97527619Y-78937380D01*
X97432380Y-78889761D01*
X97384761Y-78842142D01*
X97337142Y-78746904D01*
X97337142Y-78461190D01*
X97384761Y-78365952D01*
X97432380Y-78318333D01*
X97527619Y-78270714D01*
X97718095Y-78270714D01*
X97813333Y-78318333D01*
X98289523Y-78937380D02*
X98289523Y-78270714D01*
X98289523Y-77937380D02*
X98241904Y-77985000D01*
X98289523Y-78032619D01*
X98337142Y-77985000D01*
X98289523Y-77937380D01*
X98289523Y-78032619D01*
X98908571Y-78937380D02*
X98813333Y-78889761D01*
X98765714Y-78842142D01*
X98718095Y-78746904D01*
X98718095Y-78461190D01*
X98765714Y-78365952D01*
X98813333Y-78318333D01*
X98908571Y-78270714D01*
X99051428Y-78270714D01*
X99146666Y-78318333D01*
X99194285Y-78365952D01*
X99241904Y-78461190D01*
X99241904Y-78746904D01*
X99194285Y-78842142D01*
X99146666Y-78889761D01*
X99051428Y-78937380D01*
X98908571Y-78937380D01*
X99622857Y-78889761D02*
X99718095Y-78937380D01*
X99908571Y-78937380D01*
X100003809Y-78889761D01*
X100051428Y-78794523D01*
X100051428Y-78746904D01*
X100003809Y-78651666D01*
X99908571Y-78604047D01*
X99765714Y-78604047D01*
X99670476Y-78556428D01*
X99622857Y-78461190D01*
X99622857Y-78413571D01*
X99670476Y-78318333D01*
X99765714Y-78270714D01*
X99908571Y-78270714D01*
X100003809Y-78318333D01*
X89360952Y-80097380D02*
X89360952Y-80811666D01*
X89313333Y-80954523D01*
X89218095Y-81049761D01*
X89075238Y-81097380D01*
X88980000Y-81097380D01*
X90313333Y-81097380D02*
X89837142Y-81097380D01*
X89837142Y-80097380D01*
X91218095Y-81002142D02*
X91170476Y-81049761D01*
X91027619Y-81097380D01*
X90932380Y-81097380D01*
X90789523Y-81049761D01*
X90694285Y-80954523D01*
X90646666Y-80859285D01*
X90599047Y-80668809D01*
X90599047Y-80525952D01*
X90646666Y-80335476D01*
X90694285Y-80240238D01*
X90789523Y-80145000D01*
X90932380Y-80097380D01*
X91027619Y-80097380D01*
X91170476Y-80145000D01*
X91218095Y-80192619D01*
X91932380Y-80097380D02*
X91932380Y-80811666D01*
X91884761Y-80954523D01*
X91789523Y-81049761D01*
X91646666Y-81097380D01*
X91551428Y-81097380D01*
X92884761Y-81097380D02*
X92408571Y-81097380D01*
X92408571Y-80097380D01*
X93789523Y-81002142D02*
X93741904Y-81049761D01*
X93599047Y-81097380D01*
X93503809Y-81097380D01*
X93360952Y-81049761D01*
X93265714Y-80954523D01*
X93218095Y-80859285D01*
X93170476Y-80668809D01*
X93170476Y-80525952D01*
X93218095Y-80335476D01*
X93265714Y-80240238D01*
X93360952Y-80145000D01*
X93503809Y-80097380D01*
X93599047Y-80097380D01*
X93741904Y-80145000D01*
X93789523Y-80192619D01*
X94503809Y-80097380D02*
X94503809Y-80811666D01*
X94456190Y-80954523D01*
X94360952Y-81049761D01*
X94218095Y-81097380D01*
X94122857Y-81097380D01*
X95456190Y-81097380D02*
X94980000Y-81097380D01*
X94980000Y-80097380D01*
X96360952Y-81002142D02*
X96313333Y-81049761D01*
X96170476Y-81097380D01*
X96075238Y-81097380D01*
X95932380Y-81049761D01*
X95837142Y-80954523D01*
X95789523Y-80859285D01*
X95741904Y-80668809D01*
X95741904Y-80525952D01*
X95789523Y-80335476D01*
X95837142Y-80240238D01*
X95932380Y-80145000D01*
X96075238Y-80097380D01*
X96170476Y-80097380D01*
X96313333Y-80145000D01*
X96360952Y-80192619D01*
X97075238Y-80097380D02*
X97075238Y-80811666D01*
X97027619Y-80954523D01*
X96932380Y-81049761D01*
X96789523Y-81097380D01*
X96694285Y-81097380D01*
X98027619Y-81097380D02*
X97551428Y-81097380D01*
X97551428Y-80097380D01*
X98932380Y-81002142D02*
X98884761Y-81049761D01*
X98741904Y-81097380D01*
X98646666Y-81097380D01*
X98503809Y-81049761D01*
X98408571Y-80954523D01*
X98360952Y-80859285D01*
X98313333Y-80668809D01*
X98313333Y-80525952D01*
X98360952Y-80335476D01*
X98408571Y-80240238D01*
X98503809Y-80145000D01*
X98646666Y-80097380D01*
X98741904Y-80097380D01*
X98884761Y-80145000D01*
X98932380Y-80192619D01*
D11*
%TO.C,J14*%
X20320000Y-33595000D02*
X21650000Y-33595000D01*
X21650000Y-33595000D02*
X21650000Y-34925000D01*
X19050000Y-33595000D02*
X19050000Y-36195000D01*
X19050000Y-36195000D02*
X21650000Y-36195000D01*
X21650000Y-36195000D02*
X21650000Y-43875000D01*
X16450000Y-43875000D02*
X21650000Y-43875000D01*
X16450000Y-33595000D02*
X16450000Y-43875000D01*
X16450000Y-33595000D02*
X19050000Y-33595000D01*
%TO.C,U2*%
X35830000Y-27245000D02*
X34180000Y-27245000D01*
X34180000Y-27245000D02*
X34180000Y-57845000D01*
X34180000Y-57845000D02*
X39480000Y-57845000D01*
X39480000Y-57845000D02*
X39480000Y-27245000D01*
X39480000Y-27245000D02*
X37830000Y-27245000D01*
X37830000Y-27245000D02*
G75*
G02*
X35830000Y-27245000I-1000000J0D01*
G01*
%TO.C,J1*%
X38160000Y-71695000D02*
X38160000Y-73025000D01*
X36830000Y-71695000D02*
X38160000Y-71695000D01*
X38160000Y-74295000D02*
X38160000Y-76895000D01*
X35560000Y-74295000D02*
X38160000Y-74295000D01*
X35560000Y-71695000D02*
X35560000Y-74295000D01*
X38160000Y-76895000D02*
X30420000Y-76895000D01*
X35560000Y-71695000D02*
X30420000Y-71695000D01*
X30420000Y-71695000D02*
X30420000Y-76895000D01*
%TO.C,C1*%
X55440000Y-75456252D02*
X55440000Y-73133748D01*
X58860000Y-75456252D02*
X58860000Y-73133748D01*
%TO.C,C2*%
X29355252Y-65727000D02*
X27032748Y-65727000D01*
X29355252Y-69147000D02*
X27032748Y-69147000D01*
%TO.C,J2*%
X49590000Y-72965000D02*
X49590000Y-74295000D01*
X48260000Y-72965000D02*
X49590000Y-72965000D01*
X46990000Y-72965000D02*
X46990000Y-75625000D01*
X46990000Y-75625000D02*
X44390000Y-75625000D01*
X46990000Y-72965000D02*
X44390000Y-72965000D01*
X44390000Y-72965000D02*
X44390000Y-75625000D01*
%TO.C,R5*%
X80095000Y-75018737D02*
X80095000Y-73571263D01*
X77385000Y-75018737D02*
X77385000Y-73571263D01*
%TO.C,R1*%
X44996263Y-65490000D02*
X46443737Y-65490000D01*
X44996263Y-62780000D02*
X46443737Y-62780000D01*
%TO.C,R3*%
X65316263Y-62780000D02*
X66763737Y-62780000D01*
X65316263Y-65490000D02*
X66763737Y-65490000D01*
%TO.C,R2*%
X85636263Y-65490000D02*
X87083737Y-65490000D01*
X85636263Y-62780000D02*
X87083737Y-62780000D01*
%TO.C,R4*%
X105956263Y-62780000D02*
X107403737Y-62780000D01*
X105956263Y-65490000D02*
X107403737Y-65490000D01*
D12*
%TO.C,RV1*%
X33530000Y-67655000D02*
X33530000Y-65370000D01*
X33530000Y-62830000D02*
X33530000Y-60665000D01*
X33530000Y-60665000D02*
X40130000Y-60665000D01*
X40130000Y-60665000D02*
X40130000Y-62830000D01*
X40130000Y-65370000D02*
X40130000Y-67655000D01*
X40130000Y-67665000D02*
X33530000Y-67665000D01*
D13*
X32866000Y-64135000D02*
G75*
G03*
X32866000Y-64135000I-100000J0D01*
G01*
%TO.C,RV3*%
X53186000Y-64135000D02*
G75*
G03*
X53186000Y-64135000I-100000J0D01*
G01*
D12*
X60450000Y-67665000D02*
X53850000Y-67665000D01*
X60450000Y-65370000D02*
X60450000Y-67655000D01*
X60450000Y-60665000D02*
X60450000Y-62830000D01*
X53850000Y-60665000D02*
X60450000Y-60665000D01*
X53850000Y-62830000D02*
X53850000Y-60665000D01*
X53850000Y-67655000D02*
X53850000Y-65370000D01*
%TO.C,RV2*%
X74170000Y-67655000D02*
X74170000Y-65370000D01*
X74170000Y-62830000D02*
X74170000Y-60665000D01*
X74170000Y-60665000D02*
X80770000Y-60665000D01*
X80770000Y-60665000D02*
X80770000Y-62830000D01*
X80770000Y-65370000D02*
X80770000Y-67655000D01*
X80770000Y-67665000D02*
X74170000Y-67665000D01*
D13*
X73506000Y-64135000D02*
G75*
G03*
X73506000Y-64135000I-100000J0D01*
G01*
%TO.C,RV4*%
X93826000Y-64135000D02*
G75*
G03*
X93826000Y-64135000I-100000J0D01*
G01*
D12*
X101090000Y-67665000D02*
X94490000Y-67665000D01*
X101090000Y-65370000D02*
X101090000Y-67655000D01*
X101090000Y-60665000D02*
X101090000Y-62830000D01*
X94490000Y-60665000D02*
X101090000Y-60665000D01*
X94490000Y-62830000D02*
X94490000Y-60665000D01*
X94490000Y-67655000D02*
X94490000Y-65370000D01*
D14*
%TO.C,U1*%
X73570000Y-77705000D02*
X73570000Y-77405000D01*
X73270000Y-77705000D02*
X73570000Y-77705000D01*
X73570000Y-70905000D02*
X73570000Y-71205000D01*
X73270000Y-70905000D02*
X73570000Y-70905000D01*
X63570000Y-70905000D02*
X63570000Y-71205000D01*
X63870000Y-70905000D02*
X63570000Y-70905000D01*
X63570000Y-77705000D02*
X63570000Y-77405000D01*
X63870000Y-77705000D02*
X63570000Y-77705000D01*
D11*
%TO.C,U3*%
X59800000Y-27245000D02*
X58150000Y-27245000D01*
X59800000Y-57845000D02*
X59800000Y-27245000D01*
X54500000Y-57845000D02*
X59800000Y-57845000D01*
X54500000Y-27245000D02*
X54500000Y-57845000D01*
X56150000Y-27245000D02*
X54500000Y-27245000D01*
X58150000Y-27245000D02*
G75*
G02*
X56150000Y-27245000I-1000000J0D01*
G01*
%TO.C,U4*%
X80120000Y-27245000D02*
X78470000Y-27245000D01*
X80120000Y-57845000D02*
X80120000Y-27245000D01*
X74820000Y-57845000D02*
X80120000Y-57845000D01*
X74820000Y-27245000D02*
X74820000Y-57845000D01*
X76470000Y-27245000D02*
X74820000Y-27245000D01*
X78470000Y-27245000D02*
G75*
G02*
X76470000Y-27245000I-1000000J0D01*
G01*
%TO.C,U5*%
X96790000Y-27245000D02*
X95140000Y-27245000D01*
X95140000Y-27245000D02*
X95140000Y-57845000D01*
X95140000Y-57845000D02*
X100440000Y-57845000D01*
X100440000Y-57845000D02*
X100440000Y-27245000D01*
X100440000Y-27245000D02*
X98790000Y-27245000D01*
X98790000Y-27245000D02*
G75*
G02*
X96790000Y-27245000I-1000000J0D01*
G01*
%TO.C,J3*%
X76260000Y-18355000D02*
X76260000Y-20955000D01*
X76260000Y-18355000D02*
X71060000Y-18355000D01*
X71060000Y-18355000D02*
X71060000Y-23555000D01*
X73660000Y-23555000D02*
X71060000Y-23555000D01*
X73660000Y-20955000D02*
X73660000Y-23555000D01*
X76260000Y-20955000D02*
X73660000Y-20955000D01*
X76260000Y-23555000D02*
X74930000Y-23555000D01*
X76260000Y-22225000D02*
X76260000Y-23555000D01*
%TO.C,J4*%
X118170000Y-37525000D02*
X115570000Y-37525000D01*
X118170000Y-37525000D02*
X118170000Y-32325000D01*
X118170000Y-32325000D02*
X112970000Y-32325000D01*
X112970000Y-34925000D02*
X112970000Y-32325000D01*
X115570000Y-34925000D02*
X112970000Y-34925000D01*
X115570000Y-37525000D02*
X115570000Y-34925000D01*
X112970000Y-37525000D02*
X112970000Y-36195000D01*
X114300000Y-37525000D02*
X112970000Y-37525000D01*
%TO.C,J5*%
X38160000Y-22225000D02*
X38160000Y-23555000D01*
X38160000Y-23555000D02*
X36830000Y-23555000D01*
X38160000Y-20955000D02*
X35560000Y-20955000D01*
X35560000Y-20955000D02*
X35560000Y-23555000D01*
X35560000Y-23555000D02*
X32960000Y-23555000D01*
X32960000Y-18355000D02*
X32960000Y-23555000D01*
X38160000Y-18355000D02*
X32960000Y-18355000D01*
X38160000Y-18355000D02*
X38160000Y-20955000D01*
%TO.C,J6*%
X16450000Y-58995000D02*
X19050000Y-58995000D01*
X16450000Y-58995000D02*
X16450000Y-64195000D01*
X16450000Y-64195000D02*
X21650000Y-64195000D01*
X21650000Y-61595000D02*
X21650000Y-64195000D01*
X19050000Y-61595000D02*
X21650000Y-61595000D01*
X19050000Y-58995000D02*
X19050000Y-61595000D01*
X21650000Y-58995000D02*
X21650000Y-60325000D01*
X20320000Y-58995000D02*
X21650000Y-58995000D01*
%TO.C,J7*%
X86420000Y-22225000D02*
X86420000Y-23555000D01*
X86420000Y-23555000D02*
X85090000Y-23555000D01*
X86420000Y-20955000D02*
X83820000Y-20955000D01*
X83820000Y-20955000D02*
X83820000Y-23555000D01*
X83820000Y-23555000D02*
X81220000Y-23555000D01*
X81220000Y-18355000D02*
X81220000Y-23555000D01*
X86420000Y-18355000D02*
X81220000Y-18355000D01*
X86420000Y-18355000D02*
X86420000Y-20955000D01*
%TO.C,J8*%
X118170000Y-47685000D02*
X115570000Y-47685000D01*
X118170000Y-47685000D02*
X118170000Y-42485000D01*
X118170000Y-42485000D02*
X112970000Y-42485000D01*
X112970000Y-45085000D02*
X112970000Y-42485000D01*
X115570000Y-45085000D02*
X112970000Y-45085000D01*
X115570000Y-47685000D02*
X115570000Y-45085000D01*
X112970000Y-47685000D02*
X112970000Y-46355000D01*
X114300000Y-47685000D02*
X112970000Y-47685000D01*
%TO.C,J9*%
X48320000Y-22225000D02*
X48320000Y-23555000D01*
X48320000Y-23555000D02*
X46990000Y-23555000D01*
X48320000Y-20955000D02*
X45720000Y-20955000D01*
X45720000Y-20955000D02*
X45720000Y-23555000D01*
X45720000Y-23555000D02*
X43120000Y-23555000D01*
X43120000Y-18355000D02*
X43120000Y-23555000D01*
X48320000Y-18355000D02*
X43120000Y-18355000D01*
X48320000Y-18355000D02*
X48320000Y-20955000D01*
%TO.C,J10*%
X20320000Y-48835000D02*
X21650000Y-48835000D01*
X21650000Y-48835000D02*
X21650000Y-50165000D01*
X19050000Y-48835000D02*
X19050000Y-51435000D01*
X19050000Y-51435000D02*
X21650000Y-51435000D01*
X21650000Y-51435000D02*
X21650000Y-54035000D01*
X16450000Y-54035000D02*
X21650000Y-54035000D01*
X16450000Y-48835000D02*
X16450000Y-54035000D01*
X16450000Y-48835000D02*
X19050000Y-48835000D01*
%TO.C,J11*%
X101660000Y-22225000D02*
X101660000Y-23555000D01*
X101660000Y-23555000D02*
X100330000Y-23555000D01*
X101660000Y-20955000D02*
X99060000Y-20955000D01*
X99060000Y-20955000D02*
X99060000Y-23555000D01*
X99060000Y-23555000D02*
X91380000Y-23555000D01*
X91380000Y-18355000D02*
X91380000Y-23555000D01*
X101660000Y-18355000D02*
X91380000Y-18355000D01*
X101660000Y-18355000D02*
X101660000Y-20955000D01*
%TO.C,J12*%
X118170000Y-62925000D02*
X115570000Y-62925000D01*
X118170000Y-62925000D02*
X118170000Y-52645000D01*
X118170000Y-52645000D02*
X112970000Y-52645000D01*
X112970000Y-60325000D02*
X112970000Y-52645000D01*
X115570000Y-60325000D02*
X112970000Y-60325000D01*
X115570000Y-62925000D02*
X115570000Y-60325000D01*
X112970000Y-62925000D02*
X112970000Y-61595000D01*
X114300000Y-62925000D02*
X112970000Y-62925000D01*
%TO.C,J13*%
X63560000Y-18355000D02*
X63560000Y-20955000D01*
X63560000Y-18355000D02*
X53280000Y-18355000D01*
X53280000Y-18355000D02*
X53280000Y-23555000D01*
X60960000Y-23555000D02*
X53280000Y-23555000D01*
X60960000Y-20955000D02*
X60960000Y-23555000D01*
X63560000Y-20955000D02*
X60960000Y-20955000D01*
X63560000Y-23555000D02*
X62230000Y-23555000D01*
X63560000Y-22225000D02*
X63560000Y-23555000D01*
%TO.C,J14*%
D10*
X18240476Y-31607380D02*
X18240476Y-32321666D01*
X18192857Y-32464523D01*
X18097619Y-32559761D01*
X17954761Y-32607380D01*
X17859523Y-32607380D01*
X19240476Y-32607380D02*
X18669047Y-32607380D01*
X18954761Y-32607380D02*
X18954761Y-31607380D01*
X18859523Y-31750238D01*
X18764285Y-31845476D01*
X18669047Y-31893095D01*
X20097619Y-31940714D02*
X20097619Y-32607380D01*
X19859523Y-31559761D02*
X19621428Y-32274047D01*
X20240476Y-32274047D01*
%TO.C,U2*%
X36068095Y-25697380D02*
X36068095Y-26506904D01*
X36115714Y-26602142D01*
X36163333Y-26649761D01*
X36258571Y-26697380D01*
X36449047Y-26697380D01*
X36544285Y-26649761D01*
X36591904Y-26602142D01*
X36639523Y-26506904D01*
X36639523Y-25697380D01*
X37068095Y-25792619D02*
X37115714Y-25745000D01*
X37210952Y-25697380D01*
X37449047Y-25697380D01*
X37544285Y-25745000D01*
X37591904Y-25792619D01*
X37639523Y-25887857D01*
X37639523Y-25983095D01*
X37591904Y-26125952D01*
X37020476Y-26697380D01*
X37639523Y-26697380D01*
%TO.C,J1*%
X38612380Y-74628333D02*
X39326666Y-74628333D01*
X39469523Y-74675952D01*
X39564761Y-74771190D01*
X39612380Y-74914047D01*
X39612380Y-75009285D01*
X39612380Y-73628333D02*
X39612380Y-74199761D01*
X39612380Y-73914047D02*
X38612380Y-73914047D01*
X38755238Y-74009285D01*
X38850476Y-74104523D01*
X38898095Y-74199761D01*
%TO.C,C1*%
X54857142Y-74461666D02*
X54904761Y-74509285D01*
X54952380Y-74652142D01*
X54952380Y-74747380D01*
X54904761Y-74890238D01*
X54809523Y-74985476D01*
X54714285Y-75033095D01*
X54523809Y-75080714D01*
X54380952Y-75080714D01*
X54190476Y-75033095D01*
X54095238Y-74985476D01*
X54000000Y-74890238D01*
X53952380Y-74747380D01*
X53952380Y-74652142D01*
X54000000Y-74509285D01*
X54047619Y-74461666D01*
X54952380Y-73509285D02*
X54952380Y-74080714D01*
X54952380Y-73795000D02*
X53952380Y-73795000D01*
X54095238Y-73890238D01*
X54190476Y-73985476D01*
X54238095Y-74080714D01*
%TO.C,C2*%
X28027333Y-70444142D02*
X27979714Y-70491761D01*
X27836857Y-70539380D01*
X27741619Y-70539380D01*
X27598761Y-70491761D01*
X27503523Y-70396523D01*
X27455904Y-70301285D01*
X27408285Y-70110809D01*
X27408285Y-69967952D01*
X27455904Y-69777476D01*
X27503523Y-69682238D01*
X27598761Y-69587000D01*
X27741619Y-69539380D01*
X27836857Y-69539380D01*
X27979714Y-69587000D01*
X28027333Y-69634619D01*
X28408285Y-69634619D02*
X28455904Y-69587000D01*
X28551142Y-69539380D01*
X28789238Y-69539380D01*
X28884476Y-69587000D01*
X28932095Y-69634619D01*
X28979714Y-69729857D01*
X28979714Y-69825095D01*
X28932095Y-69967952D01*
X28360666Y-70539380D01*
X28979714Y-70539380D01*
%TO.C,J2*%
X50042380Y-74628333D02*
X50756666Y-74628333D01*
X50899523Y-74675952D01*
X50994761Y-74771190D01*
X51042380Y-74914047D01*
X51042380Y-75009285D01*
X50137619Y-74199761D02*
X50090000Y-74152142D01*
X50042380Y-74056904D01*
X50042380Y-73818809D01*
X50090000Y-73723571D01*
X50137619Y-73675952D01*
X50232857Y-73628333D01*
X50328095Y-73628333D01*
X50470952Y-73675952D01*
X51042380Y-74247380D01*
X51042380Y-73628333D01*
%TO.C,R5*%
X76912380Y-74461666D02*
X76436190Y-74795000D01*
X76912380Y-75033095D02*
X75912380Y-75033095D01*
X75912380Y-74652142D01*
X75960000Y-74556904D01*
X76007619Y-74509285D01*
X76102857Y-74461666D01*
X76245714Y-74461666D01*
X76340952Y-74509285D01*
X76388571Y-74556904D01*
X76436190Y-74652142D01*
X76436190Y-75033095D01*
X75912380Y-73556904D02*
X75912380Y-74033095D01*
X76388571Y-74080714D01*
X76340952Y-74033095D01*
X76293333Y-73937857D01*
X76293333Y-73699761D01*
X76340952Y-73604523D01*
X76388571Y-73556904D01*
X76483809Y-73509285D01*
X76721904Y-73509285D01*
X76817142Y-73556904D01*
X76864761Y-73604523D01*
X76912380Y-73699761D01*
X76912380Y-73937857D01*
X76864761Y-74033095D01*
X76817142Y-74080714D01*
%TO.C,R1*%
X45553333Y-62307380D02*
X45220000Y-61831190D01*
X44981904Y-62307380D02*
X44981904Y-61307380D01*
X45362857Y-61307380D01*
X45458095Y-61355000D01*
X45505714Y-61402619D01*
X45553333Y-61497857D01*
X45553333Y-61640714D01*
X45505714Y-61735952D01*
X45458095Y-61783571D01*
X45362857Y-61831190D01*
X44981904Y-61831190D01*
X46505714Y-62307380D02*
X45934285Y-62307380D01*
X46220000Y-62307380D02*
X46220000Y-61307380D01*
X46124761Y-61450238D01*
X46029523Y-61545476D01*
X45934285Y-61593095D01*
%TO.C,R3*%
X65873333Y-62307380D02*
X65540000Y-61831190D01*
X65301904Y-62307380D02*
X65301904Y-61307380D01*
X65682857Y-61307380D01*
X65778095Y-61355000D01*
X65825714Y-61402619D01*
X65873333Y-61497857D01*
X65873333Y-61640714D01*
X65825714Y-61735952D01*
X65778095Y-61783571D01*
X65682857Y-61831190D01*
X65301904Y-61831190D01*
X66206666Y-61307380D02*
X66825714Y-61307380D01*
X66492380Y-61688333D01*
X66635238Y-61688333D01*
X66730476Y-61735952D01*
X66778095Y-61783571D01*
X66825714Y-61878809D01*
X66825714Y-62116904D01*
X66778095Y-62212142D01*
X66730476Y-62259761D01*
X66635238Y-62307380D01*
X66349523Y-62307380D01*
X66254285Y-62259761D01*
X66206666Y-62212142D01*
%TO.C,R2*%
X86193333Y-62307380D02*
X85860000Y-61831190D01*
X85621904Y-62307380D02*
X85621904Y-61307380D01*
X86002857Y-61307380D01*
X86098095Y-61355000D01*
X86145714Y-61402619D01*
X86193333Y-61497857D01*
X86193333Y-61640714D01*
X86145714Y-61735952D01*
X86098095Y-61783571D01*
X86002857Y-61831190D01*
X85621904Y-61831190D01*
X86574285Y-61402619D02*
X86621904Y-61355000D01*
X86717142Y-61307380D01*
X86955238Y-61307380D01*
X87050476Y-61355000D01*
X87098095Y-61402619D01*
X87145714Y-61497857D01*
X87145714Y-61593095D01*
X87098095Y-61735952D01*
X86526666Y-62307380D01*
X87145714Y-62307380D01*
%TO.C,R4*%
X106513333Y-62307380D02*
X106180000Y-61831190D01*
X105941904Y-62307380D02*
X105941904Y-61307380D01*
X106322857Y-61307380D01*
X106418095Y-61355000D01*
X106465714Y-61402619D01*
X106513333Y-61497857D01*
X106513333Y-61640714D01*
X106465714Y-61735952D01*
X106418095Y-61783571D01*
X106322857Y-61831190D01*
X105941904Y-61831190D01*
X107370476Y-61640714D02*
X107370476Y-62307380D01*
X107132380Y-61259761D02*
X106894285Y-61974047D01*
X107513333Y-61974047D01*
%TO.C,RV1*%
D15*
X36408591Y-59940837D02*
X36074339Y-59463334D01*
X35835588Y-59940837D02*
X35835588Y-58938081D01*
X36217590Y-58938081D01*
X36313090Y-58985832D01*
X36360841Y-59033582D01*
X36408591Y-59129082D01*
X36408591Y-59272333D01*
X36360841Y-59367834D01*
X36313090Y-59415584D01*
X36217590Y-59463334D01*
X35835588Y-59463334D01*
X36695093Y-58938081D02*
X37029345Y-59940837D01*
X37363597Y-58938081D01*
X38223102Y-59940837D02*
X37650098Y-59940837D01*
X37936600Y-59940837D02*
X37936600Y-58938081D01*
X37841100Y-59081332D01*
X37745599Y-59176833D01*
X37650098Y-59224583D01*
%TO.C,RV3*%
X56728591Y-59940837D02*
X56394339Y-59463334D01*
X56155588Y-59940837D02*
X56155588Y-58938081D01*
X56537590Y-58938081D01*
X56633090Y-58985832D01*
X56680841Y-59033582D01*
X56728591Y-59129082D01*
X56728591Y-59272333D01*
X56680841Y-59367834D01*
X56633090Y-59415584D01*
X56537590Y-59463334D01*
X56155588Y-59463334D01*
X57015093Y-58938081D02*
X57349345Y-59940837D01*
X57683597Y-58938081D01*
X57922348Y-58938081D02*
X58543102Y-58938081D01*
X58208850Y-59320084D01*
X58352101Y-59320084D01*
X58447601Y-59367834D01*
X58495352Y-59415584D01*
X58543102Y-59511085D01*
X58543102Y-59749836D01*
X58495352Y-59845337D01*
X58447601Y-59893087D01*
X58352101Y-59940837D01*
X58065599Y-59940837D01*
X57970098Y-59893087D01*
X57922348Y-59845337D01*
%TO.C,RV2*%
X77048591Y-59940837D02*
X76714339Y-59463334D01*
X76475588Y-59940837D02*
X76475588Y-58938081D01*
X76857590Y-58938081D01*
X76953090Y-58985832D01*
X77000841Y-59033582D01*
X77048591Y-59129082D01*
X77048591Y-59272333D01*
X77000841Y-59367834D01*
X76953090Y-59415584D01*
X76857590Y-59463334D01*
X76475588Y-59463334D01*
X77335093Y-58938081D02*
X77669345Y-59940837D01*
X78003597Y-58938081D01*
X78290098Y-59033582D02*
X78337849Y-58985832D01*
X78433349Y-58938081D01*
X78672101Y-58938081D01*
X78767601Y-58985832D01*
X78815352Y-59033582D01*
X78863102Y-59129082D01*
X78863102Y-59224583D01*
X78815352Y-59367834D01*
X78242348Y-59940837D01*
X78863102Y-59940837D01*
%TO.C,RV4*%
X97368591Y-59940837D02*
X97034339Y-59463334D01*
X96795588Y-59940837D02*
X96795588Y-58938081D01*
X97177590Y-58938081D01*
X97273090Y-58985832D01*
X97320841Y-59033582D01*
X97368591Y-59129082D01*
X97368591Y-59272333D01*
X97320841Y-59367834D01*
X97273090Y-59415584D01*
X97177590Y-59463334D01*
X96795588Y-59463334D01*
X97655093Y-58938081D02*
X97989345Y-59940837D01*
X98323597Y-58938081D01*
X99087601Y-59272333D02*
X99087601Y-59940837D01*
X98848850Y-58890331D02*
X98610098Y-59606585D01*
X99230852Y-59606585D01*
%TO.C,U1*%
D10*
X61702380Y-74816904D02*
X62511904Y-74816904D01*
X62607142Y-74769285D01*
X62654761Y-74721666D01*
X62702380Y-74626428D01*
X62702380Y-74435952D01*
X62654761Y-74340714D01*
X62607142Y-74293095D01*
X62511904Y-74245476D01*
X61702380Y-74245476D01*
X62702380Y-73245476D02*
X62702380Y-73816904D01*
X62702380Y-73531190D02*
X61702380Y-73531190D01*
X61845238Y-73626428D01*
X61940476Y-73721666D01*
X61988095Y-73816904D01*
%TO.C,U3*%
X56388095Y-25697380D02*
X56388095Y-26506904D01*
X56435714Y-26602142D01*
X56483333Y-26649761D01*
X56578571Y-26697380D01*
X56769047Y-26697380D01*
X56864285Y-26649761D01*
X56911904Y-26602142D01*
X56959523Y-26506904D01*
X56959523Y-25697380D01*
X57340476Y-25697380D02*
X57959523Y-25697380D01*
X57626190Y-26078333D01*
X57769047Y-26078333D01*
X57864285Y-26125952D01*
X57911904Y-26173571D01*
X57959523Y-26268809D01*
X57959523Y-26506904D01*
X57911904Y-26602142D01*
X57864285Y-26649761D01*
X57769047Y-26697380D01*
X57483333Y-26697380D01*
X57388095Y-26649761D01*
X57340476Y-26602142D01*
%TO.C,U4*%
X76708095Y-25697380D02*
X76708095Y-26506904D01*
X76755714Y-26602142D01*
X76803333Y-26649761D01*
X76898571Y-26697380D01*
X77089047Y-26697380D01*
X77184285Y-26649761D01*
X77231904Y-26602142D01*
X77279523Y-26506904D01*
X77279523Y-25697380D01*
X78184285Y-26030714D02*
X78184285Y-26697380D01*
X77946190Y-25649761D02*
X77708095Y-26364047D01*
X78327142Y-26364047D01*
%TO.C,U5*%
X97028095Y-25697380D02*
X97028095Y-26506904D01*
X97075714Y-26602142D01*
X97123333Y-26649761D01*
X97218571Y-26697380D01*
X97409047Y-26697380D01*
X97504285Y-26649761D01*
X97551904Y-26602142D01*
X97599523Y-26506904D01*
X97599523Y-25697380D01*
X98551904Y-25697380D02*
X98075714Y-25697380D01*
X98028095Y-26173571D01*
X98075714Y-26125952D01*
X98170952Y-26078333D01*
X98409047Y-26078333D01*
X98504285Y-26125952D01*
X98551904Y-26173571D01*
X98599523Y-26268809D01*
X98599523Y-26506904D01*
X98551904Y-26602142D01*
X98504285Y-26649761D01*
X98409047Y-26697380D01*
X98170952Y-26697380D01*
X98075714Y-26649761D01*
X98028095Y-26602142D01*
%TO.C,J3*%
X77152380Y-21288333D02*
X77866666Y-21288333D01*
X78009523Y-21335952D01*
X78104761Y-21431190D01*
X78152380Y-21574047D01*
X78152380Y-21669285D01*
X77152380Y-20907380D02*
X77152380Y-20288333D01*
X77533333Y-20621666D01*
X77533333Y-20478809D01*
X77580952Y-20383571D01*
X77628571Y-20335952D01*
X77723809Y-20288333D01*
X77961904Y-20288333D01*
X78057142Y-20335952D01*
X78104761Y-20383571D01*
X78152380Y-20478809D01*
X78152380Y-20764523D01*
X78104761Y-20859761D01*
X78057142Y-20907380D01*
%TO.C,J4*%
X115236666Y-38417380D02*
X115236666Y-39131666D01*
X115189047Y-39274523D01*
X115093809Y-39369761D01*
X114950952Y-39417380D01*
X114855714Y-39417380D01*
X116141428Y-38750714D02*
X116141428Y-39417380D01*
X115903333Y-38369761D02*
X115665238Y-39084047D01*
X116284285Y-39084047D01*
%TO.C,J5*%
X39052380Y-21288333D02*
X39766666Y-21288333D01*
X39909523Y-21335952D01*
X40004761Y-21431190D01*
X40052380Y-21574047D01*
X40052380Y-21669285D01*
X39052380Y-20335952D02*
X39052380Y-20812142D01*
X39528571Y-20859761D01*
X39480952Y-20812142D01*
X39433333Y-20716904D01*
X39433333Y-20478809D01*
X39480952Y-20383571D01*
X39528571Y-20335952D01*
X39623809Y-20288333D01*
X39861904Y-20288333D01*
X39957142Y-20335952D01*
X40004761Y-20383571D01*
X40052380Y-20478809D01*
X40052380Y-20716904D01*
X40004761Y-20812142D01*
X39957142Y-20859761D01*
%TO.C,J6*%
X18716666Y-57007380D02*
X18716666Y-57721666D01*
X18669047Y-57864523D01*
X18573809Y-57959761D01*
X18430952Y-58007380D01*
X18335714Y-58007380D01*
X19621428Y-57007380D02*
X19430952Y-57007380D01*
X19335714Y-57055000D01*
X19288095Y-57102619D01*
X19192857Y-57245476D01*
X19145238Y-57435952D01*
X19145238Y-57816904D01*
X19192857Y-57912142D01*
X19240476Y-57959761D01*
X19335714Y-58007380D01*
X19526190Y-58007380D01*
X19621428Y-57959761D01*
X19669047Y-57912142D01*
X19716666Y-57816904D01*
X19716666Y-57578809D01*
X19669047Y-57483571D01*
X19621428Y-57435952D01*
X19526190Y-57388333D01*
X19335714Y-57388333D01*
X19240476Y-57435952D01*
X19192857Y-57483571D01*
X19145238Y-57578809D01*
%TO.C,J7*%
X87312380Y-21288333D02*
X88026666Y-21288333D01*
X88169523Y-21335952D01*
X88264761Y-21431190D01*
X88312380Y-21574047D01*
X88312380Y-21669285D01*
X87312380Y-20907380D02*
X87312380Y-20240714D01*
X88312380Y-20669285D01*
%TO.C,J8*%
X115236666Y-48577380D02*
X115236666Y-49291666D01*
X115189047Y-49434523D01*
X115093809Y-49529761D01*
X114950952Y-49577380D01*
X114855714Y-49577380D01*
X115855714Y-49005952D02*
X115760476Y-48958333D01*
X115712857Y-48910714D01*
X115665238Y-48815476D01*
X115665238Y-48767857D01*
X115712857Y-48672619D01*
X115760476Y-48625000D01*
X115855714Y-48577380D01*
X116046190Y-48577380D01*
X116141428Y-48625000D01*
X116189047Y-48672619D01*
X116236666Y-48767857D01*
X116236666Y-48815476D01*
X116189047Y-48910714D01*
X116141428Y-48958333D01*
X116046190Y-49005952D01*
X115855714Y-49005952D01*
X115760476Y-49053571D01*
X115712857Y-49101190D01*
X115665238Y-49196428D01*
X115665238Y-49386904D01*
X115712857Y-49482142D01*
X115760476Y-49529761D01*
X115855714Y-49577380D01*
X116046190Y-49577380D01*
X116141428Y-49529761D01*
X116189047Y-49482142D01*
X116236666Y-49386904D01*
X116236666Y-49196428D01*
X116189047Y-49101190D01*
X116141428Y-49053571D01*
X116046190Y-49005952D01*
%TO.C,J9*%
X49212380Y-21288333D02*
X49926666Y-21288333D01*
X50069523Y-21335952D01*
X50164761Y-21431190D01*
X50212380Y-21574047D01*
X50212380Y-21669285D01*
X50212380Y-20764523D02*
X50212380Y-20574047D01*
X50164761Y-20478809D01*
X50117142Y-20431190D01*
X49974285Y-20335952D01*
X49783809Y-20288333D01*
X49402857Y-20288333D01*
X49307619Y-20335952D01*
X49260000Y-20383571D01*
X49212380Y-20478809D01*
X49212380Y-20669285D01*
X49260000Y-20764523D01*
X49307619Y-20812142D01*
X49402857Y-20859761D01*
X49640952Y-20859761D01*
X49736190Y-20812142D01*
X49783809Y-20764523D01*
X49831428Y-20669285D01*
X49831428Y-20478809D01*
X49783809Y-20383571D01*
X49736190Y-20335952D01*
X49640952Y-20288333D01*
%TO.C,J10*%
X18240476Y-46847380D02*
X18240476Y-47561666D01*
X18192857Y-47704523D01*
X18097619Y-47799761D01*
X17954761Y-47847380D01*
X17859523Y-47847380D01*
X19240476Y-47847380D02*
X18669047Y-47847380D01*
X18954761Y-47847380D02*
X18954761Y-46847380D01*
X18859523Y-46990238D01*
X18764285Y-47085476D01*
X18669047Y-47133095D01*
X19859523Y-46847380D02*
X19954761Y-46847380D01*
X20050000Y-46895000D01*
X20097619Y-46942619D01*
X20145238Y-47037857D01*
X20192857Y-47228333D01*
X20192857Y-47466428D01*
X20145238Y-47656904D01*
X20097619Y-47752142D01*
X20050000Y-47799761D01*
X19954761Y-47847380D01*
X19859523Y-47847380D01*
X19764285Y-47799761D01*
X19716666Y-47752142D01*
X19669047Y-47656904D01*
X19621428Y-47466428D01*
X19621428Y-47228333D01*
X19669047Y-47037857D01*
X19716666Y-46942619D01*
X19764285Y-46895000D01*
X19859523Y-46847380D01*
%TO.C,J11*%
X102552380Y-21764523D02*
X103266666Y-21764523D01*
X103409523Y-21812142D01*
X103504761Y-21907380D01*
X103552380Y-22050238D01*
X103552380Y-22145476D01*
X103552380Y-20764523D02*
X103552380Y-21335952D01*
X103552380Y-21050238D02*
X102552380Y-21050238D01*
X102695238Y-21145476D01*
X102790476Y-21240714D01*
X102838095Y-21335952D01*
X103552380Y-19812142D02*
X103552380Y-20383571D01*
X103552380Y-20097857D02*
X102552380Y-20097857D01*
X102695238Y-20193095D01*
X102790476Y-20288333D01*
X102838095Y-20383571D01*
%TO.C,J12*%
X114760476Y-63817380D02*
X114760476Y-64531666D01*
X114712857Y-64674523D01*
X114617619Y-64769761D01*
X114474761Y-64817380D01*
X114379523Y-64817380D01*
X115760476Y-64817380D02*
X115189047Y-64817380D01*
X115474761Y-64817380D02*
X115474761Y-63817380D01*
X115379523Y-63960238D01*
X115284285Y-64055476D01*
X115189047Y-64103095D01*
X116141428Y-63912619D02*
X116189047Y-63865000D01*
X116284285Y-63817380D01*
X116522380Y-63817380D01*
X116617619Y-63865000D01*
X116665238Y-63912619D01*
X116712857Y-64007857D01*
X116712857Y-64103095D01*
X116665238Y-64245952D01*
X116093809Y-64817380D01*
X116712857Y-64817380D01*
%TO.C,J13*%
X64452380Y-21764523D02*
X65166666Y-21764523D01*
X65309523Y-21812142D01*
X65404761Y-21907380D01*
X65452380Y-22050238D01*
X65452380Y-22145476D01*
X65452380Y-20764523D02*
X65452380Y-21335952D01*
X65452380Y-21050238D02*
X64452380Y-21050238D01*
X64595238Y-21145476D01*
X64690476Y-21240714D01*
X64738095Y-21335952D01*
X64452380Y-20431190D02*
X64452380Y-19812142D01*
X64833333Y-20145476D01*
X64833333Y-20002619D01*
X64880952Y-19907380D01*
X64928571Y-19859761D01*
X65023809Y-19812142D01*
X65261904Y-19812142D01*
X65357142Y-19859761D01*
X65404761Y-19907380D01*
X65452380Y-20002619D01*
X65452380Y-20288333D01*
X65404761Y-20383571D01*
X65357142Y-20431190D01*
%TD*%
M02*
