M48
; DRILL file {KiCad (5.1.8)-1} date 01/26/21 12:47:30
; FORMAT={-:-/ absolute / metric / decimal}
; #@! TF.CreationDate,2021-01-26T12:47:30-05:00
; #@! TF.GenerationSoftware,Kicad,Pcbnew,(5.1.8)-1
FMAT,2
METRIC
T1C0.300
T2C0.714
T3C0.800
T4C1.000
T5C0.600
T6C4.300
%
G90
G05
T1
X21.59Y-41.275
X22.098Y-60.325
X22.86Y-34.925
X23.114Y-50.165
X24.13Y-32.385
X24.13Y-51.181
X24.13Y-67.945
X25.146Y-61.341
X25.4Y-37.465
X26.162Y-63.881
X26.67Y-36.195
X27.178Y-53.721
X27.94Y-38.735
X28.194Y-24.257
X28.194Y-52.705
X29.21Y-33.655
X29.21Y-62.865
X44.958Y-42.545
X45.974Y-30.353
X46.99Y-40.005
X48.556Y-30.353
X48.556Y-32.893
X49.022Y-62.357
X50.546Y-32.893
X50.546Y-61.849
X52.112Y-29.845
X52.578Y-26.289
X53.086Y-80.137
X55.626Y-33.909
X55.626Y-45.085
X55.626Y-48.641
X55.626Y-69.977
X57.658Y-38.481
X62.738Y-43.561
X63.246Y-35.433
X69.342Y-62.357
X71.374Y-61.849
X74.422Y-69.977
X74.422Y-74.549
X76.454Y-38.481
X76.454Y-41.529
X78.486Y-33.401
X84.624Y-50.165
X85.09Y-37.465
X85.09Y-48.641
X85.09Y-71.501
X87.122Y-45.593
X88.138Y-30.861
X88.138Y-35.433
X89.662Y-62.865
X91.186Y-61.849
X105.41Y-32.385
X105.41Y-48.641
X106.426Y-41.529
X106.426Y-43.561
X107.442Y-42.545
X107.442Y-45.085
X107.442Y-49.657
X108.458Y-33.909
X109.474Y-35.941
X109.474Y-53.721
T2
X95.25Y-64.135
X97.79Y-61.595
X100.33Y-64.135
X54.61Y-64.135
X57.15Y-61.595
X59.69Y-64.135
X74.93Y-64.135
X77.47Y-61.595
X80.01Y-64.135
X34.29Y-64.135
X36.83Y-61.595
X39.37Y-64.135
T3
X73.66Y-28.575
X73.66Y-31.115
X73.66Y-33.655
X73.66Y-36.195
X73.66Y-38.735
X73.66Y-41.275
X73.66Y-43.815
X73.66Y-46.355
X73.66Y-48.895
X73.66Y-51.435
X73.66Y-53.975
X73.66Y-56.515
X81.28Y-28.575
X81.28Y-31.115
X81.28Y-33.655
X81.28Y-36.195
X81.28Y-38.735
X81.28Y-41.275
X81.28Y-43.815
X81.28Y-46.355
X81.28Y-48.895
X81.28Y-51.435
X81.28Y-53.975
X81.28Y-56.515
X93.98Y-28.575
X93.98Y-31.115
X93.98Y-33.655
X93.98Y-36.195
X93.98Y-38.735
X93.98Y-41.275
X93.98Y-43.815
X93.98Y-46.355
X93.98Y-48.895
X93.98Y-51.435
X93.98Y-53.975
X93.98Y-56.515
X101.6Y-28.575
X101.6Y-31.115
X101.6Y-33.655
X101.6Y-36.195
X101.6Y-38.735
X101.6Y-41.275
X101.6Y-43.815
X101.6Y-46.355
X101.6Y-48.895
X101.6Y-51.435
X101.6Y-53.975
X101.6Y-56.515
X53.34Y-28.575
X53.34Y-31.115
X53.34Y-33.655
X53.34Y-36.195
X53.34Y-38.735
X53.34Y-41.275
X53.34Y-43.815
X53.34Y-46.355
X53.34Y-48.895
X53.34Y-51.435
X53.34Y-53.975
X53.34Y-56.515
X60.96Y-28.575
X60.96Y-31.115
X60.96Y-33.655
X60.96Y-36.195
X60.96Y-38.735
X60.96Y-41.275
X60.96Y-43.815
X60.96Y-46.355
X60.96Y-48.895
X60.96Y-51.435
X60.96Y-53.975
X60.96Y-56.515
X33.02Y-28.575
X33.02Y-31.115
X33.02Y-33.655
X33.02Y-36.195
X33.02Y-38.735
X33.02Y-41.275
X33.02Y-43.815
X33.02Y-46.355
X33.02Y-48.895
X33.02Y-51.435
X33.02Y-53.975
X33.02Y-56.515
X40.64Y-28.575
X40.64Y-31.115
X40.64Y-33.655
X40.64Y-36.195
X40.64Y-38.735
X40.64Y-41.275
X40.64Y-43.815
X40.64Y-46.355
X40.64Y-48.895
X40.64Y-51.435
X40.64Y-53.975
X40.64Y-56.515
T4
X82.55Y-19.685
X82.55Y-22.225
X85.09Y-19.685
X85.09Y-22.225
X64.77Y-70.485
X64.77Y-78.105
X67.31Y-70.485
X67.31Y-78.105
X69.85Y-70.485
X69.85Y-78.105
X72.39Y-70.485
X72.39Y-78.105
X17.78Y-60.325
X17.78Y-62.865
X20.32Y-60.325
X20.32Y-62.865
X34.29Y-19.685
X34.29Y-22.225
X36.83Y-19.685
X36.83Y-22.225
X114.3Y-33.655
X114.3Y-36.195
X116.84Y-33.655
X116.84Y-36.195
X54.61Y-19.685
X54.61Y-22.225
X57.15Y-19.685
X57.15Y-22.225
X59.69Y-19.685
X59.69Y-22.225
X62.23Y-19.685
X62.23Y-22.225
X114.3Y-43.815
X114.3Y-46.355
X116.84Y-43.815
X116.84Y-46.355
X72.39Y-19.685
X72.39Y-22.225
X74.93Y-19.685
X74.93Y-22.225
X45.72Y-74.295
X48.26Y-74.295
X92.71Y-19.685
X92.71Y-22.225
X95.25Y-19.685
X95.25Y-22.225
X97.79Y-19.685
X97.79Y-22.225
X100.33Y-19.685
X100.33Y-22.225
X44.45Y-19.685
X44.45Y-22.225
X46.99Y-19.685
X46.99Y-22.225
X17.78Y-34.925
X17.78Y-37.465
X17.78Y-40.005
X17.78Y-42.545
X20.32Y-34.925
X20.32Y-37.465
X20.32Y-40.005
X20.32Y-42.545
X31.75Y-73.025
X31.75Y-75.565
X34.29Y-73.025
X34.29Y-75.565
X36.83Y-73.025
X36.83Y-75.565
X17.78Y-50.165
X17.78Y-52.705
X20.32Y-50.165
X20.32Y-52.705
X114.3Y-53.975
X114.3Y-56.515
X114.3Y-59.055
X114.3Y-61.595
X116.84Y-53.975
X116.84Y-56.515
X116.84Y-59.055
X116.84Y-61.595
T5
X109.805Y-23.495
X110.75Y-21.215
X110.75Y-25.775
X113.03Y-20.27
X113.03Y-26.72
X115.31Y-21.215
X115.31Y-25.775
X116.255Y-23.495
X18.365Y-23.495
X19.31Y-21.215
X19.31Y-25.775
X21.59Y-20.27
X21.59Y-26.72
X23.87Y-21.215
X23.87Y-25.775
X24.815Y-23.495
X18.365Y-75.565
X19.31Y-73.285
X19.31Y-77.845
X21.59Y-72.34
X21.59Y-78.79
X23.87Y-73.285
X23.87Y-77.845
X24.815Y-75.565
X109.805Y-75.565
X110.75Y-73.285
X110.75Y-77.845
X113.03Y-72.34
X113.03Y-78.79
X115.31Y-73.285
X115.31Y-77.845
X116.255Y-75.565
T6
X113.03Y-23.495
X21.59Y-23.495
X21.59Y-75.565
X113.03Y-75.565
T0
M30
