%TF.GenerationSoftware,KiCad,Pcbnew,(5.1.8)-1*%
%TF.CreationDate,2020-12-22T12:36:21-05:00*%
%TF.ProjectId,SSD_Panel,5353445f-5061-46e6-956c-2e6b69636164,rev?*%
%TF.SameCoordinates,Original*%
%TF.FileFunction,Legend,Top*%
%TF.FilePolarity,Positive*%
%FSLAX46Y46*%
G04 Gerber Fmt 4.6, Leading zero omitted, Abs format (unit mm)*
G04 Created by KiCad (PCBNEW (5.1.8)-1) date 2020-12-22 12:36:21*
%MOMM*%
%LPD*%
G01*
G04 APERTURE LIST*
%ADD10C,0.150000*%
%ADD11C,0.120000*%
G04 APERTURE END LIST*
D10*
X33480952Y-194778380D02*
X33480952Y-195492666D01*
X33433333Y-195635523D01*
X33338095Y-195730761D01*
X33195238Y-195778380D01*
X33100000Y-195778380D01*
X34433333Y-195778380D02*
X33957142Y-195778380D01*
X33957142Y-194778380D01*
X35338095Y-195683142D02*
X35290476Y-195730761D01*
X35147619Y-195778380D01*
X35052380Y-195778380D01*
X34909523Y-195730761D01*
X34814285Y-195635523D01*
X34766666Y-195540285D01*
X34719047Y-195349809D01*
X34719047Y-195206952D01*
X34766666Y-195016476D01*
X34814285Y-194921238D01*
X34909523Y-194826000D01*
X35052380Y-194778380D01*
X35147619Y-194778380D01*
X35290476Y-194826000D01*
X35338095Y-194873619D01*
X36052380Y-194778380D02*
X36052380Y-195492666D01*
X36004761Y-195635523D01*
X35909523Y-195730761D01*
X35766666Y-195778380D01*
X35671428Y-195778380D01*
X37004761Y-195778380D02*
X36528571Y-195778380D01*
X36528571Y-194778380D01*
X37909523Y-195683142D02*
X37861904Y-195730761D01*
X37719047Y-195778380D01*
X37623809Y-195778380D01*
X37480952Y-195730761D01*
X37385714Y-195635523D01*
X37338095Y-195540285D01*
X37290476Y-195349809D01*
X37290476Y-195206952D01*
X37338095Y-195016476D01*
X37385714Y-194921238D01*
X37480952Y-194826000D01*
X37623809Y-194778380D01*
X37719047Y-194778380D01*
X37861904Y-194826000D01*
X37909523Y-194873619D01*
X38623809Y-194778380D02*
X38623809Y-195492666D01*
X38576190Y-195635523D01*
X38480952Y-195730761D01*
X38338095Y-195778380D01*
X38242857Y-195778380D01*
X39576190Y-195778380D02*
X39100000Y-195778380D01*
X39100000Y-194778380D01*
X40480952Y-195683142D02*
X40433333Y-195730761D01*
X40290476Y-195778380D01*
X40195238Y-195778380D01*
X40052380Y-195730761D01*
X39957142Y-195635523D01*
X39909523Y-195540285D01*
X39861904Y-195349809D01*
X39861904Y-195206952D01*
X39909523Y-195016476D01*
X39957142Y-194921238D01*
X40052380Y-194826000D01*
X40195238Y-194778380D01*
X40290476Y-194778380D01*
X40433333Y-194826000D01*
X40480952Y-194873619D01*
X41195238Y-194778380D02*
X41195238Y-195492666D01*
X41147619Y-195635523D01*
X41052380Y-195730761D01*
X40909523Y-195778380D01*
X40814285Y-195778380D01*
X42147619Y-195778380D02*
X41671428Y-195778380D01*
X41671428Y-194778380D01*
X43052380Y-195683142D02*
X43004761Y-195730761D01*
X42861904Y-195778380D01*
X42766666Y-195778380D01*
X42623809Y-195730761D01*
X42528571Y-195635523D01*
X42480952Y-195540285D01*
X42433333Y-195349809D01*
X42433333Y-195206952D01*
X42480952Y-195016476D01*
X42528571Y-194921238D01*
X42623809Y-194826000D01*
X42766666Y-194778380D01*
X42861904Y-194778380D01*
X43004761Y-194826000D01*
X43052380Y-194873619D01*
X36227142Y-193492380D02*
X35893809Y-193016190D01*
X35655714Y-193492380D02*
X35655714Y-192492380D01*
X36036666Y-192492380D01*
X36131904Y-192540000D01*
X36179523Y-192587619D01*
X36227142Y-192682857D01*
X36227142Y-192825714D01*
X36179523Y-192920952D01*
X36131904Y-192968571D01*
X36036666Y-193016190D01*
X35655714Y-193016190D01*
X37036666Y-193444761D02*
X36941428Y-193492380D01*
X36750952Y-193492380D01*
X36655714Y-193444761D01*
X36608095Y-193349523D01*
X36608095Y-192968571D01*
X36655714Y-192873333D01*
X36750952Y-192825714D01*
X36941428Y-192825714D01*
X37036666Y-192873333D01*
X37084285Y-192968571D01*
X37084285Y-193063809D01*
X36608095Y-193159047D01*
X37417619Y-192825714D02*
X37655714Y-193492380D01*
X37893809Y-192825714D01*
X38274761Y-193492380D02*
X38274761Y-192825714D01*
X38274761Y-192492380D02*
X38227142Y-192540000D01*
X38274761Y-192587619D01*
X38322380Y-192540000D01*
X38274761Y-192492380D01*
X38274761Y-192587619D01*
X38703333Y-193444761D02*
X38798571Y-193492380D01*
X38989047Y-193492380D01*
X39084285Y-193444761D01*
X39131904Y-193349523D01*
X39131904Y-193301904D01*
X39084285Y-193206666D01*
X38989047Y-193159047D01*
X38846190Y-193159047D01*
X38750952Y-193111428D01*
X38703333Y-193016190D01*
X38703333Y-192968571D01*
X38750952Y-192873333D01*
X38846190Y-192825714D01*
X38989047Y-192825714D01*
X39084285Y-192873333D01*
X39560476Y-193492380D02*
X39560476Y-192825714D01*
X39560476Y-192492380D02*
X39512857Y-192540000D01*
X39560476Y-192587619D01*
X39608095Y-192540000D01*
X39560476Y-192492380D01*
X39560476Y-192587619D01*
X40179523Y-193492380D02*
X40084285Y-193444761D01*
X40036666Y-193397142D01*
X39989047Y-193301904D01*
X39989047Y-193016190D01*
X40036666Y-192920952D01*
X40084285Y-192873333D01*
X40179523Y-192825714D01*
X40322380Y-192825714D01*
X40417619Y-192873333D01*
X40465238Y-192920952D01*
X40512857Y-193016190D01*
X40512857Y-193301904D01*
X40465238Y-193397142D01*
X40417619Y-193444761D01*
X40322380Y-193492380D01*
X40179523Y-193492380D01*
X40941428Y-192825714D02*
X40941428Y-193492380D01*
X40941428Y-192920952D02*
X40989047Y-192873333D01*
X41084285Y-192825714D01*
X41227142Y-192825714D01*
X41322380Y-192873333D01*
X41370000Y-192968571D01*
X41370000Y-193492380D01*
X43131904Y-193492380D02*
X42560476Y-193492380D01*
X42846190Y-193492380D02*
X42846190Y-192492380D01*
X42750952Y-192635238D01*
X42655714Y-192730476D01*
X42560476Y-192778095D01*
X25576190Y-189238333D02*
X25528571Y-189190714D01*
X25433333Y-189047857D01*
X25385714Y-188952619D01*
X25338095Y-188809761D01*
X25290476Y-188571666D01*
X25290476Y-188381190D01*
X25338095Y-188143095D01*
X25385714Y-188000238D01*
X25433333Y-187905000D01*
X25528571Y-187762142D01*
X25576190Y-187714523D01*
X26385714Y-188809761D02*
X26290476Y-188857380D01*
X26100000Y-188857380D01*
X26004761Y-188809761D01*
X25957142Y-188762142D01*
X25909523Y-188666904D01*
X25909523Y-188381190D01*
X25957142Y-188285952D01*
X26004761Y-188238333D01*
X26100000Y-188190714D01*
X26290476Y-188190714D01*
X26385714Y-188238333D01*
X26719047Y-189238333D02*
X26766666Y-189190714D01*
X26861904Y-189047857D01*
X26909523Y-188952619D01*
X26957142Y-188809761D01*
X27004761Y-188571666D01*
X27004761Y-188381190D01*
X26957142Y-188143095D01*
X26909523Y-188000238D01*
X26861904Y-187905000D01*
X26766666Y-187762142D01*
X26719047Y-187714523D01*
X28195238Y-188571666D02*
X28671428Y-188571666D01*
X28100000Y-188857380D02*
X28433333Y-187857380D01*
X28766666Y-188857380D01*
X29528571Y-188190714D02*
X29528571Y-188857380D01*
X29100000Y-188190714D02*
X29100000Y-188714523D01*
X29147619Y-188809761D01*
X29242857Y-188857380D01*
X29385714Y-188857380D01*
X29480952Y-188809761D01*
X29528571Y-188762142D01*
X29957142Y-188809761D02*
X30052380Y-188857380D01*
X30242857Y-188857380D01*
X30338095Y-188809761D01*
X30385714Y-188714523D01*
X30385714Y-188666904D01*
X30338095Y-188571666D01*
X30242857Y-188524047D01*
X30100000Y-188524047D01*
X30004761Y-188476428D01*
X29957142Y-188381190D01*
X29957142Y-188333571D01*
X30004761Y-188238333D01*
X30100000Y-188190714D01*
X30242857Y-188190714D01*
X30338095Y-188238333D01*
X30671428Y-188190714D02*
X31052380Y-188190714D01*
X30814285Y-187857380D02*
X30814285Y-188714523D01*
X30861904Y-188809761D01*
X30957142Y-188857380D01*
X31052380Y-188857380D01*
X31766666Y-188809761D02*
X31671428Y-188857380D01*
X31480952Y-188857380D01*
X31385714Y-188809761D01*
X31338095Y-188714523D01*
X31338095Y-188333571D01*
X31385714Y-188238333D01*
X31480952Y-188190714D01*
X31671428Y-188190714D01*
X31766666Y-188238333D01*
X31814285Y-188333571D01*
X31814285Y-188428809D01*
X31338095Y-188524047D01*
X32242857Y-188190714D02*
X32242857Y-188857380D01*
X32242857Y-188285952D02*
X32290476Y-188238333D01*
X32385714Y-188190714D01*
X32528571Y-188190714D01*
X32623809Y-188238333D01*
X32671428Y-188333571D01*
X32671428Y-188857380D01*
X33909523Y-188857380D02*
X33909523Y-187857380D01*
X33909523Y-188333571D02*
X34480952Y-188333571D01*
X34480952Y-188857380D02*
X34480952Y-187857380D01*
X34957142Y-188857380D02*
X34957142Y-188190714D01*
X34957142Y-187857380D02*
X34909523Y-187905000D01*
X34957142Y-187952619D01*
X35004761Y-187905000D01*
X34957142Y-187857380D01*
X34957142Y-187952619D01*
X35861904Y-188190714D02*
X35861904Y-189000238D01*
X35814285Y-189095476D01*
X35766666Y-189143095D01*
X35671428Y-189190714D01*
X35528571Y-189190714D01*
X35433333Y-189143095D01*
X35861904Y-188809761D02*
X35766666Y-188857380D01*
X35576190Y-188857380D01*
X35480952Y-188809761D01*
X35433333Y-188762142D01*
X35385714Y-188666904D01*
X35385714Y-188381190D01*
X35433333Y-188285952D01*
X35480952Y-188238333D01*
X35576190Y-188190714D01*
X35766666Y-188190714D01*
X35861904Y-188238333D01*
X36766666Y-188190714D02*
X36766666Y-189000238D01*
X36719047Y-189095476D01*
X36671428Y-189143095D01*
X36576190Y-189190714D01*
X36433333Y-189190714D01*
X36338095Y-189143095D01*
X36766666Y-188809761D02*
X36671428Y-188857380D01*
X36480952Y-188857380D01*
X36385714Y-188809761D01*
X36338095Y-188762142D01*
X36290476Y-188666904D01*
X36290476Y-188381190D01*
X36338095Y-188285952D01*
X36385714Y-188238333D01*
X36480952Y-188190714D01*
X36671428Y-188190714D01*
X36766666Y-188238333D01*
X37242857Y-188857380D02*
X37242857Y-188190714D01*
X37242857Y-187857380D02*
X37195238Y-187905000D01*
X37242857Y-187952619D01*
X37290476Y-187905000D01*
X37242857Y-187857380D01*
X37242857Y-187952619D01*
X37719047Y-188190714D02*
X37719047Y-188857380D01*
X37719047Y-188285952D02*
X37766666Y-188238333D01*
X37861904Y-188190714D01*
X38004761Y-188190714D01*
X38100000Y-188238333D01*
X38147619Y-188333571D01*
X38147619Y-188857380D01*
X38576190Y-188809761D02*
X38671428Y-188857380D01*
X38861904Y-188857380D01*
X38957142Y-188809761D01*
X39004761Y-188714523D01*
X39004761Y-188666904D01*
X38957142Y-188571666D01*
X38861904Y-188524047D01*
X38719047Y-188524047D01*
X38623809Y-188476428D01*
X38576190Y-188381190D01*
X38576190Y-188333571D01*
X38623809Y-188238333D01*
X38719047Y-188190714D01*
X38861904Y-188190714D01*
X38957142Y-188238333D01*
X39433333Y-188476428D02*
X40195238Y-188476428D01*
X41242857Y-188762142D02*
X41195238Y-188809761D01*
X41052380Y-188857380D01*
X40957142Y-188857380D01*
X40814285Y-188809761D01*
X40719047Y-188714523D01*
X40671428Y-188619285D01*
X40623809Y-188428809D01*
X40623809Y-188285952D01*
X40671428Y-188095476D01*
X40719047Y-188000238D01*
X40814285Y-187905000D01*
X40957142Y-187857380D01*
X41052380Y-187857380D01*
X41195238Y-187905000D01*
X41242857Y-187952619D01*
X42100000Y-188857380D02*
X42100000Y-188333571D01*
X42052380Y-188238333D01*
X41957142Y-188190714D01*
X41766666Y-188190714D01*
X41671428Y-188238333D01*
X42100000Y-188809761D02*
X42004761Y-188857380D01*
X41766666Y-188857380D01*
X41671428Y-188809761D01*
X41623809Y-188714523D01*
X41623809Y-188619285D01*
X41671428Y-188524047D01*
X41766666Y-188476428D01*
X42004761Y-188476428D01*
X42100000Y-188428809D01*
X42528571Y-188809761D02*
X42623809Y-188857380D01*
X42814285Y-188857380D01*
X42909523Y-188809761D01*
X42957142Y-188714523D01*
X42957142Y-188666904D01*
X42909523Y-188571666D01*
X42814285Y-188524047D01*
X42671428Y-188524047D01*
X42576190Y-188476428D01*
X42528571Y-188381190D01*
X42528571Y-188333571D01*
X42576190Y-188238333D01*
X42671428Y-188190714D01*
X42814285Y-188190714D01*
X42909523Y-188238333D01*
X43338095Y-188809761D02*
X43433333Y-188857380D01*
X43623809Y-188857380D01*
X43719047Y-188809761D01*
X43766666Y-188714523D01*
X43766666Y-188666904D01*
X43719047Y-188571666D01*
X43623809Y-188524047D01*
X43480952Y-188524047D01*
X43385714Y-188476428D01*
X43338095Y-188381190D01*
X43338095Y-188333571D01*
X43385714Y-188238333D01*
X43480952Y-188190714D01*
X43623809Y-188190714D01*
X43719047Y-188238333D01*
X44195238Y-188857380D02*
X44195238Y-188190714D01*
X44195238Y-187857380D02*
X44147619Y-187905000D01*
X44195238Y-187952619D01*
X44242857Y-187905000D01*
X44195238Y-187857380D01*
X44195238Y-187952619D01*
X45100000Y-188857380D02*
X45100000Y-187857380D01*
X45100000Y-188809761D02*
X45004761Y-188857380D01*
X44814285Y-188857380D01*
X44719047Y-188809761D01*
X44671428Y-188762142D01*
X44623809Y-188666904D01*
X44623809Y-188381190D01*
X44671428Y-188285952D01*
X44719047Y-188238333D01*
X44814285Y-188190714D01*
X45004761Y-188190714D01*
X45100000Y-188238333D01*
X45480952Y-188190714D02*
X45719047Y-188857380D01*
X45957142Y-188190714D02*
X45719047Y-188857380D01*
X45623809Y-189095476D01*
X45576190Y-189143095D01*
X45480952Y-189190714D01*
X46385714Y-188809761D02*
X46385714Y-188857380D01*
X46338095Y-188952619D01*
X46290476Y-189000238D01*
X47528571Y-187952619D02*
X47576190Y-187905000D01*
X47671428Y-187857380D01*
X47909523Y-187857380D01*
X48004761Y-187905000D01*
X48052380Y-187952619D01*
X48100000Y-188047857D01*
X48100000Y-188143095D01*
X48052380Y-188285952D01*
X47480952Y-188857380D01*
X48100000Y-188857380D01*
X48719047Y-187857380D02*
X48814285Y-187857380D01*
X48909523Y-187905000D01*
X48957142Y-187952619D01*
X49004761Y-188047857D01*
X49052380Y-188238333D01*
X49052380Y-188476428D01*
X49004761Y-188666904D01*
X48957142Y-188762142D01*
X48909523Y-188809761D01*
X48814285Y-188857380D01*
X48719047Y-188857380D01*
X48623809Y-188809761D01*
X48576190Y-188762142D01*
X48528571Y-188666904D01*
X48480952Y-188476428D01*
X48480952Y-188238333D01*
X48528571Y-188047857D01*
X48576190Y-187952619D01*
X48623809Y-187905000D01*
X48719047Y-187857380D01*
X49433333Y-187952619D02*
X49480952Y-187905000D01*
X49576190Y-187857380D01*
X49814285Y-187857380D01*
X49909523Y-187905000D01*
X49957142Y-187952619D01*
X50004761Y-188047857D01*
X50004761Y-188143095D01*
X49957142Y-188285952D01*
X49385714Y-188857380D01*
X50004761Y-188857380D01*
X50623809Y-187857380D02*
X50719047Y-187857380D01*
X50814285Y-187905000D01*
X50861904Y-187952619D01*
X50909523Y-188047857D01*
X50957142Y-188238333D01*
X50957142Y-188476428D01*
X50909523Y-188666904D01*
X50861904Y-188762142D01*
X50814285Y-188809761D01*
X50719047Y-188857380D01*
X50623809Y-188857380D01*
X50528571Y-188809761D01*
X50480952Y-188762142D01*
X50433333Y-188666904D01*
X50385714Y-188476428D01*
X50385714Y-188238333D01*
X50433333Y-188047857D01*
X50480952Y-187952619D01*
X50528571Y-187905000D01*
X50623809Y-187857380D01*
X32076190Y-190507380D02*
X32076190Y-189507380D01*
X32409523Y-190221666D01*
X32742857Y-189507380D01*
X32742857Y-190507380D01*
X33219047Y-190507380D02*
X33219047Y-189840714D01*
X33219047Y-189507380D02*
X33171428Y-189555000D01*
X33219047Y-189602619D01*
X33266666Y-189555000D01*
X33219047Y-189507380D01*
X33219047Y-189602619D01*
X33838095Y-190507380D02*
X33742857Y-190459761D01*
X33695238Y-190364523D01*
X33695238Y-189507380D01*
X34361904Y-190507380D02*
X34266666Y-190459761D01*
X34219047Y-190364523D01*
X34219047Y-189507380D01*
X34742857Y-190507380D02*
X34742857Y-189840714D01*
X34742857Y-189507380D02*
X34695238Y-189555000D01*
X34742857Y-189602619D01*
X34790476Y-189555000D01*
X34742857Y-189507380D01*
X34742857Y-189602619D01*
X35219047Y-190507380D02*
X35219047Y-189507380D01*
X35219047Y-189888333D02*
X35314285Y-189840714D01*
X35504761Y-189840714D01*
X35600000Y-189888333D01*
X35647619Y-189935952D01*
X35695238Y-190031190D01*
X35695238Y-190316904D01*
X35647619Y-190412142D01*
X35600000Y-190459761D01*
X35504761Y-190507380D01*
X35314285Y-190507380D01*
X35219047Y-190459761D01*
X36028571Y-189840714D02*
X36266666Y-190507380D01*
X36504761Y-189840714D02*
X36266666Y-190507380D01*
X36171428Y-190745476D01*
X36123809Y-190793095D01*
X36028571Y-190840714D01*
X36742857Y-189840714D02*
X37123809Y-189840714D01*
X36885714Y-189507380D02*
X36885714Y-190364523D01*
X36933333Y-190459761D01*
X37028571Y-190507380D01*
X37123809Y-190507380D01*
X37838095Y-190459761D02*
X37742857Y-190507380D01*
X37552380Y-190507380D01*
X37457142Y-190459761D01*
X37409523Y-190364523D01*
X37409523Y-189983571D01*
X37457142Y-189888333D01*
X37552380Y-189840714D01*
X37742857Y-189840714D01*
X37838095Y-189888333D01*
X37885714Y-189983571D01*
X37885714Y-190078809D01*
X37409523Y-190174047D01*
X39028571Y-190459761D02*
X39171428Y-190507380D01*
X39409523Y-190507380D01*
X39504761Y-190459761D01*
X39552380Y-190412142D01*
X39600000Y-190316904D01*
X39600000Y-190221666D01*
X39552380Y-190126428D01*
X39504761Y-190078809D01*
X39409523Y-190031190D01*
X39219047Y-189983571D01*
X39123809Y-189935952D01*
X39076190Y-189888333D01*
X39028571Y-189793095D01*
X39028571Y-189697857D01*
X39076190Y-189602619D01*
X39123809Y-189555000D01*
X39219047Y-189507380D01*
X39457142Y-189507380D01*
X39600000Y-189555000D01*
X39885714Y-189840714D02*
X40266666Y-189840714D01*
X40028571Y-189507380D02*
X40028571Y-190364523D01*
X40076190Y-190459761D01*
X40171428Y-190507380D01*
X40266666Y-190507380D01*
X41028571Y-189840714D02*
X41028571Y-190507380D01*
X40600000Y-189840714D02*
X40600000Y-190364523D01*
X40647619Y-190459761D01*
X40742857Y-190507380D01*
X40885714Y-190507380D01*
X40980952Y-190459761D01*
X41028571Y-190412142D01*
X41933333Y-190507380D02*
X41933333Y-189507380D01*
X41933333Y-190459761D02*
X41838095Y-190507380D01*
X41647619Y-190507380D01*
X41552380Y-190459761D01*
X41504761Y-190412142D01*
X41457142Y-190316904D01*
X41457142Y-190031190D01*
X41504761Y-189935952D01*
X41552380Y-189888333D01*
X41647619Y-189840714D01*
X41838095Y-189840714D01*
X41933333Y-189888333D01*
X42409523Y-190507380D02*
X42409523Y-189840714D01*
X42409523Y-189507380D02*
X42361904Y-189555000D01*
X42409523Y-189602619D01*
X42457142Y-189555000D01*
X42409523Y-189507380D01*
X42409523Y-189602619D01*
X43028571Y-190507380D02*
X42933333Y-190459761D01*
X42885714Y-190412142D01*
X42838095Y-190316904D01*
X42838095Y-190031190D01*
X42885714Y-189935952D01*
X42933333Y-189888333D01*
X43028571Y-189840714D01*
X43171428Y-189840714D01*
X43266666Y-189888333D01*
X43314285Y-189935952D01*
X43361904Y-190031190D01*
X43361904Y-190316904D01*
X43314285Y-190412142D01*
X43266666Y-190459761D01*
X43171428Y-190507380D01*
X43028571Y-190507380D01*
X43742857Y-190459761D02*
X43838095Y-190507380D01*
X44028571Y-190507380D01*
X44123809Y-190459761D01*
X44171428Y-190364523D01*
X44171428Y-190316904D01*
X44123809Y-190221666D01*
X44028571Y-190174047D01*
X43885714Y-190174047D01*
X43790476Y-190126428D01*
X43742857Y-190031190D01*
X43742857Y-189983571D01*
X43790476Y-189888333D01*
X43885714Y-189840714D01*
X44028571Y-189840714D01*
X44123809Y-189888333D01*
X27004761Y-185824761D02*
X27147619Y-185872380D01*
X27385714Y-185872380D01*
X27480952Y-185824761D01*
X27528571Y-185777142D01*
X27576190Y-185681904D01*
X27576190Y-185586666D01*
X27528571Y-185491428D01*
X27480952Y-185443809D01*
X27385714Y-185396190D01*
X27195238Y-185348571D01*
X27099999Y-185300952D01*
X27052380Y-185253333D01*
X27004761Y-185158095D01*
X27004761Y-185062857D01*
X27052380Y-184967619D01*
X27099999Y-184920000D01*
X27195238Y-184872380D01*
X27433333Y-184872380D01*
X27576190Y-184920000D01*
X28385714Y-185824761D02*
X28290476Y-185872380D01*
X28099999Y-185872380D01*
X28004761Y-185824761D01*
X27957142Y-185729523D01*
X27957142Y-185348571D01*
X28004761Y-185253333D01*
X28099999Y-185205714D01*
X28290476Y-185205714D01*
X28385714Y-185253333D01*
X28433333Y-185348571D01*
X28433333Y-185443809D01*
X27957142Y-185539047D01*
X28766666Y-185205714D02*
X29004761Y-185872380D01*
X29242857Y-185205714D01*
X30004761Y-185824761D02*
X29909523Y-185872380D01*
X29719047Y-185872380D01*
X29623809Y-185824761D01*
X29576190Y-185729523D01*
X29576190Y-185348571D01*
X29623809Y-185253333D01*
X29719047Y-185205714D01*
X29909523Y-185205714D01*
X30004761Y-185253333D01*
X30052380Y-185348571D01*
X30052380Y-185443809D01*
X29576190Y-185539047D01*
X30480952Y-185205714D02*
X30480952Y-185872380D01*
X30480952Y-185300952D02*
X30528571Y-185253333D01*
X30623809Y-185205714D01*
X30766666Y-185205714D01*
X30861904Y-185253333D01*
X30909523Y-185348571D01*
X30909523Y-185872380D01*
X32099999Y-185824761D02*
X32242857Y-185872380D01*
X32480952Y-185872380D01*
X32576190Y-185824761D01*
X32623809Y-185777142D01*
X32671428Y-185681904D01*
X32671428Y-185586666D01*
X32623809Y-185491428D01*
X32576190Y-185443809D01*
X32480952Y-185396190D01*
X32290476Y-185348571D01*
X32195238Y-185300952D01*
X32147619Y-185253333D01*
X32099999Y-185158095D01*
X32099999Y-185062857D01*
X32147619Y-184967619D01*
X32195238Y-184920000D01*
X32290476Y-184872380D01*
X32528571Y-184872380D01*
X32671428Y-184920000D01*
X33480952Y-185824761D02*
X33385714Y-185872380D01*
X33195238Y-185872380D01*
X33099999Y-185824761D01*
X33052380Y-185729523D01*
X33052380Y-185348571D01*
X33099999Y-185253333D01*
X33195238Y-185205714D01*
X33385714Y-185205714D01*
X33480952Y-185253333D01*
X33528571Y-185348571D01*
X33528571Y-185443809D01*
X33052380Y-185539047D01*
X34385714Y-185205714D02*
X34385714Y-186015238D01*
X34338095Y-186110476D01*
X34290476Y-186158095D01*
X34195238Y-186205714D01*
X34052380Y-186205714D01*
X33957142Y-186158095D01*
X34385714Y-185824761D02*
X34290476Y-185872380D01*
X34099999Y-185872380D01*
X34004761Y-185824761D01*
X33957142Y-185777142D01*
X33909523Y-185681904D01*
X33909523Y-185396190D01*
X33957142Y-185300952D01*
X34004761Y-185253333D01*
X34099999Y-185205714D01*
X34290476Y-185205714D01*
X34385714Y-185253333D01*
X34861904Y-185872380D02*
X34861904Y-185205714D01*
X34861904Y-185300952D02*
X34909523Y-185253333D01*
X35004761Y-185205714D01*
X35147619Y-185205714D01*
X35242857Y-185253333D01*
X35290476Y-185348571D01*
X35290476Y-185872380D01*
X35290476Y-185348571D02*
X35338095Y-185253333D01*
X35433333Y-185205714D01*
X35576190Y-185205714D01*
X35671428Y-185253333D01*
X35719047Y-185348571D01*
X35719047Y-185872380D01*
X36576190Y-185824761D02*
X36480952Y-185872380D01*
X36290476Y-185872380D01*
X36195238Y-185824761D01*
X36147619Y-185729523D01*
X36147619Y-185348571D01*
X36195238Y-185253333D01*
X36290476Y-185205714D01*
X36480952Y-185205714D01*
X36576190Y-185253333D01*
X36623809Y-185348571D01*
X36623809Y-185443809D01*
X36147619Y-185539047D01*
X37052380Y-185205714D02*
X37052380Y-185872380D01*
X37052380Y-185300952D02*
X37099999Y-185253333D01*
X37195238Y-185205714D01*
X37338095Y-185205714D01*
X37433333Y-185253333D01*
X37480952Y-185348571D01*
X37480952Y-185872380D01*
X37814285Y-185205714D02*
X38195238Y-185205714D01*
X37957142Y-184872380D02*
X37957142Y-185729523D01*
X38004761Y-185824761D01*
X38099999Y-185872380D01*
X38195238Y-185872380D01*
X39290476Y-185872380D02*
X39290476Y-184872380D01*
X39528571Y-184872380D01*
X39671428Y-184920000D01*
X39766666Y-185015238D01*
X39814285Y-185110476D01*
X39861904Y-185300952D01*
X39861904Y-185443809D01*
X39814285Y-185634285D01*
X39766666Y-185729523D01*
X39671428Y-185824761D01*
X39528571Y-185872380D01*
X39290476Y-185872380D01*
X40290476Y-185872380D02*
X40290476Y-185205714D01*
X40290476Y-184872380D02*
X40242857Y-184920000D01*
X40290476Y-184967619D01*
X40338095Y-184920000D01*
X40290476Y-184872380D01*
X40290476Y-184967619D01*
X40719047Y-185824761D02*
X40814285Y-185872380D01*
X41004761Y-185872380D01*
X41099999Y-185824761D01*
X41147619Y-185729523D01*
X41147619Y-185681904D01*
X41099999Y-185586666D01*
X41004761Y-185539047D01*
X40861904Y-185539047D01*
X40766666Y-185491428D01*
X40719047Y-185396190D01*
X40719047Y-185348571D01*
X40766666Y-185253333D01*
X40861904Y-185205714D01*
X41004761Y-185205714D01*
X41099999Y-185253333D01*
X41576190Y-185205714D02*
X41576190Y-186205714D01*
X41576190Y-185253333D02*
X41671428Y-185205714D01*
X41861904Y-185205714D01*
X41957142Y-185253333D01*
X42004761Y-185300952D01*
X42052380Y-185396190D01*
X42052380Y-185681904D01*
X42004761Y-185777142D01*
X41957142Y-185824761D01*
X41861904Y-185872380D01*
X41671428Y-185872380D01*
X41576190Y-185824761D01*
X42623809Y-185872380D02*
X42528571Y-185824761D01*
X42480952Y-185729523D01*
X42480952Y-184872380D01*
X43433333Y-185872380D02*
X43433333Y-185348571D01*
X43385714Y-185253333D01*
X43290476Y-185205714D01*
X43099999Y-185205714D01*
X43004761Y-185253333D01*
X43433333Y-185824761D02*
X43338095Y-185872380D01*
X43099999Y-185872380D01*
X43004761Y-185824761D01*
X42957142Y-185729523D01*
X42957142Y-185634285D01*
X43004761Y-185539047D01*
X43099999Y-185491428D01*
X43338095Y-185491428D01*
X43433333Y-185443809D01*
X43814285Y-185205714D02*
X44052380Y-185872380D01*
X44290476Y-185205714D02*
X44052380Y-185872380D01*
X43957142Y-186110476D01*
X43909523Y-186158095D01*
X43814285Y-186205714D01*
X45433333Y-185872380D02*
X45433333Y-184872380D01*
X45814285Y-184872380D01*
X45909523Y-184920000D01*
X45957142Y-184967619D01*
X46004761Y-185062857D01*
X46004761Y-185205714D01*
X45957142Y-185300952D01*
X45909523Y-185348571D01*
X45814285Y-185396190D01*
X45433333Y-185396190D01*
X46861904Y-185872380D02*
X46861904Y-185348571D01*
X46814285Y-185253333D01*
X46719047Y-185205714D01*
X46528571Y-185205714D01*
X46433333Y-185253333D01*
X46861904Y-185824761D02*
X46766666Y-185872380D01*
X46528571Y-185872380D01*
X46433333Y-185824761D01*
X46385714Y-185729523D01*
X46385714Y-185634285D01*
X46433333Y-185539047D01*
X46528571Y-185491428D01*
X46766666Y-185491428D01*
X46861904Y-185443809D01*
X47338095Y-185205714D02*
X47338095Y-185872380D01*
X47338095Y-185300952D02*
X47385714Y-185253333D01*
X47480952Y-185205714D01*
X47623809Y-185205714D01*
X47719047Y-185253333D01*
X47766666Y-185348571D01*
X47766666Y-185872380D01*
X48623809Y-185824761D02*
X48528571Y-185872380D01*
X48338095Y-185872380D01*
X48242857Y-185824761D01*
X48195238Y-185729523D01*
X48195238Y-185348571D01*
X48242857Y-185253333D01*
X48338095Y-185205714D01*
X48528571Y-185205714D01*
X48623809Y-185253333D01*
X48671428Y-185348571D01*
X48671428Y-185443809D01*
X48195238Y-185539047D01*
X49242857Y-185872380D02*
X49147619Y-185824761D01*
X49099999Y-185729523D01*
X49099999Y-184872380D01*
D11*
%TO.C,DS1*%
X52070000Y-175895000D02*
X50800000Y-174625000D01*
X50800000Y-175895000D02*
X52070000Y-175895000D01*
X50800000Y-174625000D02*
X50800000Y-175895000D01*
X21590000Y-149225000D02*
X21590000Y-177165000D01*
X21590000Y-149225000D02*
X95250000Y-149225000D01*
X95250000Y-149225000D02*
X95250000Y-177165000D01*
X95250000Y-177165000D02*
X21590000Y-177165000D01*
%TO.C,U1*%
X103140000Y-147895000D02*
X101490000Y-147895000D01*
X101490000Y-147895000D02*
X101490000Y-178495000D01*
X101490000Y-178495000D02*
X106790000Y-178495000D01*
X106790000Y-178495000D02*
X106790000Y-147895000D01*
X106790000Y-147895000D02*
X105140000Y-147895000D01*
X105140000Y-147895000D02*
G75*
G02*
X103140000Y-147895000I-1000000J0D01*
G01*
%TO.C,DS2*%
X143510000Y-175895000D02*
X142240000Y-174625000D01*
X142240000Y-175895000D02*
X143510000Y-175895000D01*
X142240000Y-174625000D02*
X142240000Y-175895000D01*
X113030000Y-149225000D02*
X113030000Y-177165000D01*
X113030000Y-149225000D02*
X186690000Y-149225000D01*
X186690000Y-149225000D02*
X186690000Y-177165000D01*
X186690000Y-177165000D02*
X113030000Y-177165000D01*
%TO.C,DS7*%
X52070000Y-46355000D02*
X50800000Y-45085000D01*
X50800000Y-46355000D02*
X52070000Y-46355000D01*
X50800000Y-45085000D02*
X50800000Y-46355000D01*
X21590000Y-19685000D02*
X21590000Y-47625000D01*
X21590000Y-19685000D02*
X95250000Y-19685000D01*
X95250000Y-19685000D02*
X95250000Y-47625000D01*
X95250000Y-47625000D02*
X21590000Y-47625000D01*
%TO.C,U5*%
X103140000Y-18355000D02*
X101490000Y-18355000D01*
X101490000Y-18355000D02*
X101490000Y-48955000D01*
X101490000Y-48955000D02*
X106790000Y-48955000D01*
X106790000Y-48955000D02*
X106790000Y-18355000D01*
X106790000Y-18355000D02*
X105140000Y-18355000D01*
X105140000Y-18355000D02*
G75*
G02*
X103140000Y-18355000I-1000000J0D01*
G01*
%TO.C,DS8*%
X143510000Y-46355000D02*
X142240000Y-45085000D01*
X142240000Y-46355000D02*
X143510000Y-46355000D01*
X142240000Y-45085000D02*
X142240000Y-46355000D01*
X113030000Y-19685000D02*
X113030000Y-47625000D01*
X113030000Y-19685000D02*
X186690000Y-19685000D01*
X186690000Y-19685000D02*
X186690000Y-47625000D01*
X186690000Y-47625000D02*
X113030000Y-47625000D01*
%TO.C,DS5*%
X52070000Y-89535000D02*
X50800000Y-88265000D01*
X50800000Y-89535000D02*
X52070000Y-89535000D01*
X50800000Y-88265000D02*
X50800000Y-89535000D01*
X21590000Y-62865000D02*
X21590000Y-90805000D01*
X21590000Y-62865000D02*
X95250000Y-62865000D01*
X95250000Y-62865000D02*
X95250000Y-90805000D01*
X95250000Y-90805000D02*
X21590000Y-90805000D01*
%TO.C,U4*%
X103140000Y-61535000D02*
X101490000Y-61535000D01*
X101490000Y-61535000D02*
X101490000Y-92135000D01*
X101490000Y-92135000D02*
X106790000Y-92135000D01*
X106790000Y-92135000D02*
X106790000Y-61535000D01*
X106790000Y-61535000D02*
X105140000Y-61535000D01*
X105140000Y-61535000D02*
G75*
G02*
X103140000Y-61535000I-1000000J0D01*
G01*
%TO.C,DS6*%
X143510000Y-89535000D02*
X142240000Y-88265000D01*
X142240000Y-89535000D02*
X143510000Y-89535000D01*
X142240000Y-88265000D02*
X142240000Y-89535000D01*
X113030000Y-62865000D02*
X113030000Y-90805000D01*
X113030000Y-62865000D02*
X186690000Y-62865000D01*
X186690000Y-62865000D02*
X186690000Y-90805000D01*
X186690000Y-90805000D02*
X113030000Y-90805000D01*
%TO.C,DS3*%
X52070000Y-132715000D02*
X50800000Y-131445000D01*
X50800000Y-132715000D02*
X52070000Y-132715000D01*
X50800000Y-131445000D02*
X50800000Y-132715000D01*
X21590000Y-106045000D02*
X21590000Y-133985000D01*
X21590000Y-106045000D02*
X95250000Y-106045000D01*
X95250000Y-106045000D02*
X95250000Y-133985000D01*
X95250000Y-133985000D02*
X21590000Y-133985000D01*
%TO.C,U3*%
X103140000Y-104715000D02*
X101490000Y-104715000D01*
X101490000Y-104715000D02*
X101490000Y-135315000D01*
X101490000Y-135315000D02*
X106790000Y-135315000D01*
X106790000Y-135315000D02*
X106790000Y-104715000D01*
X106790000Y-104715000D02*
X105140000Y-104715000D01*
X105140000Y-104715000D02*
G75*
G02*
X103140000Y-104715000I-1000000J0D01*
G01*
%TO.C,DS4*%
X143510000Y-132715000D02*
X142240000Y-131445000D01*
X142240000Y-132715000D02*
X143510000Y-132715000D01*
X142240000Y-131445000D02*
X142240000Y-132715000D01*
X113030000Y-106045000D02*
X113030000Y-133985000D01*
X113030000Y-106045000D02*
X186690000Y-106045000D01*
X186690000Y-106045000D02*
X186690000Y-133985000D01*
X186690000Y-133985000D02*
X113030000Y-133985000D01*
%TO.C,R1*%
X119920000Y-186590000D02*
X119920000Y-189330000D01*
X119920000Y-189330000D02*
X126460000Y-189330000D01*
X126460000Y-189330000D02*
X126460000Y-186590000D01*
X126460000Y-186590000D02*
X119920000Y-186590000D01*
X116610000Y-187960000D02*
X119920000Y-187960000D01*
X129770000Y-187960000D02*
X126460000Y-187960000D01*
%TO.C,U2*%
X137100000Y-191500000D02*
X137100000Y-193150000D01*
X137100000Y-193150000D02*
X157540000Y-193150000D01*
X157540000Y-193150000D02*
X157540000Y-187850000D01*
X157540000Y-187850000D02*
X137100000Y-187850000D01*
X137100000Y-187850000D02*
X137100000Y-189500000D01*
X137100000Y-189500000D02*
G75*
G02*
X137100000Y-191500000I0J-1000000D01*
G01*
%TO.C,DS1*%
D10*
X57205714Y-178887380D02*
X57205714Y-177887380D01*
X57443809Y-177887380D01*
X57586666Y-177935000D01*
X57681904Y-178030238D01*
X57729523Y-178125476D01*
X57777142Y-178315952D01*
X57777142Y-178458809D01*
X57729523Y-178649285D01*
X57681904Y-178744523D01*
X57586666Y-178839761D01*
X57443809Y-178887380D01*
X57205714Y-178887380D01*
X58158095Y-178839761D02*
X58300952Y-178887380D01*
X58539047Y-178887380D01*
X58634285Y-178839761D01*
X58681904Y-178792142D01*
X58729523Y-178696904D01*
X58729523Y-178601666D01*
X58681904Y-178506428D01*
X58634285Y-178458809D01*
X58539047Y-178411190D01*
X58348571Y-178363571D01*
X58253333Y-178315952D01*
X58205714Y-178268333D01*
X58158095Y-178173095D01*
X58158095Y-178077857D01*
X58205714Y-177982619D01*
X58253333Y-177935000D01*
X58348571Y-177887380D01*
X58586666Y-177887380D01*
X58729523Y-177935000D01*
X59681904Y-178887380D02*
X59110476Y-178887380D01*
X59396190Y-178887380D02*
X59396190Y-177887380D01*
X59300952Y-178030238D01*
X59205714Y-178125476D01*
X59110476Y-178173095D01*
%TO.C,U1*%
X103378095Y-146347380D02*
X103378095Y-147156904D01*
X103425714Y-147252142D01*
X103473333Y-147299761D01*
X103568571Y-147347380D01*
X103759047Y-147347380D01*
X103854285Y-147299761D01*
X103901904Y-147252142D01*
X103949523Y-147156904D01*
X103949523Y-146347380D01*
X104949523Y-147347380D02*
X104378095Y-147347380D01*
X104663809Y-147347380D02*
X104663809Y-146347380D01*
X104568571Y-146490238D01*
X104473333Y-146585476D01*
X104378095Y-146633095D01*
%TO.C,DS2*%
X148645714Y-178887380D02*
X148645714Y-177887380D01*
X148883809Y-177887380D01*
X149026666Y-177935000D01*
X149121904Y-178030238D01*
X149169523Y-178125476D01*
X149217142Y-178315952D01*
X149217142Y-178458809D01*
X149169523Y-178649285D01*
X149121904Y-178744523D01*
X149026666Y-178839761D01*
X148883809Y-178887380D01*
X148645714Y-178887380D01*
X149598095Y-178839761D02*
X149740952Y-178887380D01*
X149979047Y-178887380D01*
X150074285Y-178839761D01*
X150121904Y-178792142D01*
X150169523Y-178696904D01*
X150169523Y-178601666D01*
X150121904Y-178506428D01*
X150074285Y-178458809D01*
X149979047Y-178411190D01*
X149788571Y-178363571D01*
X149693333Y-178315952D01*
X149645714Y-178268333D01*
X149598095Y-178173095D01*
X149598095Y-178077857D01*
X149645714Y-177982619D01*
X149693333Y-177935000D01*
X149788571Y-177887380D01*
X150026666Y-177887380D01*
X150169523Y-177935000D01*
X150550476Y-177982619D02*
X150598095Y-177935000D01*
X150693333Y-177887380D01*
X150931428Y-177887380D01*
X151026666Y-177935000D01*
X151074285Y-177982619D01*
X151121904Y-178077857D01*
X151121904Y-178173095D01*
X151074285Y-178315952D01*
X150502857Y-178887380D01*
X151121904Y-178887380D01*
%TO.C,DS7*%
X57205714Y-49347380D02*
X57205714Y-48347380D01*
X57443809Y-48347380D01*
X57586666Y-48395000D01*
X57681904Y-48490238D01*
X57729523Y-48585476D01*
X57777142Y-48775952D01*
X57777142Y-48918809D01*
X57729523Y-49109285D01*
X57681904Y-49204523D01*
X57586666Y-49299761D01*
X57443809Y-49347380D01*
X57205714Y-49347380D01*
X58158095Y-49299761D02*
X58300952Y-49347380D01*
X58539047Y-49347380D01*
X58634285Y-49299761D01*
X58681904Y-49252142D01*
X58729523Y-49156904D01*
X58729523Y-49061666D01*
X58681904Y-48966428D01*
X58634285Y-48918809D01*
X58539047Y-48871190D01*
X58348571Y-48823571D01*
X58253333Y-48775952D01*
X58205714Y-48728333D01*
X58158095Y-48633095D01*
X58158095Y-48537857D01*
X58205714Y-48442619D01*
X58253333Y-48395000D01*
X58348571Y-48347380D01*
X58586666Y-48347380D01*
X58729523Y-48395000D01*
X59062857Y-48347380D02*
X59729523Y-48347380D01*
X59300952Y-49347380D01*
%TO.C,U5*%
X103378095Y-16807380D02*
X103378095Y-17616904D01*
X103425714Y-17712142D01*
X103473333Y-17759761D01*
X103568571Y-17807380D01*
X103759047Y-17807380D01*
X103854285Y-17759761D01*
X103901904Y-17712142D01*
X103949523Y-17616904D01*
X103949523Y-16807380D01*
X104901904Y-16807380D02*
X104425714Y-16807380D01*
X104378095Y-17283571D01*
X104425714Y-17235952D01*
X104520952Y-17188333D01*
X104759047Y-17188333D01*
X104854285Y-17235952D01*
X104901904Y-17283571D01*
X104949523Y-17378809D01*
X104949523Y-17616904D01*
X104901904Y-17712142D01*
X104854285Y-17759761D01*
X104759047Y-17807380D01*
X104520952Y-17807380D01*
X104425714Y-17759761D01*
X104378095Y-17712142D01*
%TO.C,DS8*%
X148645714Y-49347380D02*
X148645714Y-48347380D01*
X148883809Y-48347380D01*
X149026666Y-48395000D01*
X149121904Y-48490238D01*
X149169523Y-48585476D01*
X149217142Y-48775952D01*
X149217142Y-48918809D01*
X149169523Y-49109285D01*
X149121904Y-49204523D01*
X149026666Y-49299761D01*
X148883809Y-49347380D01*
X148645714Y-49347380D01*
X149598095Y-49299761D02*
X149740952Y-49347380D01*
X149979047Y-49347380D01*
X150074285Y-49299761D01*
X150121904Y-49252142D01*
X150169523Y-49156904D01*
X150169523Y-49061666D01*
X150121904Y-48966428D01*
X150074285Y-48918809D01*
X149979047Y-48871190D01*
X149788571Y-48823571D01*
X149693333Y-48775952D01*
X149645714Y-48728333D01*
X149598095Y-48633095D01*
X149598095Y-48537857D01*
X149645714Y-48442619D01*
X149693333Y-48395000D01*
X149788571Y-48347380D01*
X150026666Y-48347380D01*
X150169523Y-48395000D01*
X150740952Y-48775952D02*
X150645714Y-48728333D01*
X150598095Y-48680714D01*
X150550476Y-48585476D01*
X150550476Y-48537857D01*
X150598095Y-48442619D01*
X150645714Y-48395000D01*
X150740952Y-48347380D01*
X150931428Y-48347380D01*
X151026666Y-48395000D01*
X151074285Y-48442619D01*
X151121904Y-48537857D01*
X151121904Y-48585476D01*
X151074285Y-48680714D01*
X151026666Y-48728333D01*
X150931428Y-48775952D01*
X150740952Y-48775952D01*
X150645714Y-48823571D01*
X150598095Y-48871190D01*
X150550476Y-48966428D01*
X150550476Y-49156904D01*
X150598095Y-49252142D01*
X150645714Y-49299761D01*
X150740952Y-49347380D01*
X150931428Y-49347380D01*
X151026666Y-49299761D01*
X151074285Y-49252142D01*
X151121904Y-49156904D01*
X151121904Y-48966428D01*
X151074285Y-48871190D01*
X151026666Y-48823571D01*
X150931428Y-48775952D01*
%TO.C,DS5*%
X57205714Y-92527380D02*
X57205714Y-91527380D01*
X57443809Y-91527380D01*
X57586666Y-91575000D01*
X57681904Y-91670238D01*
X57729523Y-91765476D01*
X57777142Y-91955952D01*
X57777142Y-92098809D01*
X57729523Y-92289285D01*
X57681904Y-92384523D01*
X57586666Y-92479761D01*
X57443809Y-92527380D01*
X57205714Y-92527380D01*
X58158095Y-92479761D02*
X58300952Y-92527380D01*
X58539047Y-92527380D01*
X58634285Y-92479761D01*
X58681904Y-92432142D01*
X58729523Y-92336904D01*
X58729523Y-92241666D01*
X58681904Y-92146428D01*
X58634285Y-92098809D01*
X58539047Y-92051190D01*
X58348571Y-92003571D01*
X58253333Y-91955952D01*
X58205714Y-91908333D01*
X58158095Y-91813095D01*
X58158095Y-91717857D01*
X58205714Y-91622619D01*
X58253333Y-91575000D01*
X58348571Y-91527380D01*
X58586666Y-91527380D01*
X58729523Y-91575000D01*
X59634285Y-91527380D02*
X59158095Y-91527380D01*
X59110476Y-92003571D01*
X59158095Y-91955952D01*
X59253333Y-91908333D01*
X59491428Y-91908333D01*
X59586666Y-91955952D01*
X59634285Y-92003571D01*
X59681904Y-92098809D01*
X59681904Y-92336904D01*
X59634285Y-92432142D01*
X59586666Y-92479761D01*
X59491428Y-92527380D01*
X59253333Y-92527380D01*
X59158095Y-92479761D01*
X59110476Y-92432142D01*
%TO.C,U4*%
X103378095Y-59987380D02*
X103378095Y-60796904D01*
X103425714Y-60892142D01*
X103473333Y-60939761D01*
X103568571Y-60987380D01*
X103759047Y-60987380D01*
X103854285Y-60939761D01*
X103901904Y-60892142D01*
X103949523Y-60796904D01*
X103949523Y-59987380D01*
X104854285Y-60320714D02*
X104854285Y-60987380D01*
X104616190Y-59939761D02*
X104378095Y-60654047D01*
X104997142Y-60654047D01*
%TO.C,DS6*%
X148645714Y-92527380D02*
X148645714Y-91527380D01*
X148883809Y-91527380D01*
X149026666Y-91575000D01*
X149121904Y-91670238D01*
X149169523Y-91765476D01*
X149217142Y-91955952D01*
X149217142Y-92098809D01*
X149169523Y-92289285D01*
X149121904Y-92384523D01*
X149026666Y-92479761D01*
X148883809Y-92527380D01*
X148645714Y-92527380D01*
X149598095Y-92479761D02*
X149740952Y-92527380D01*
X149979047Y-92527380D01*
X150074285Y-92479761D01*
X150121904Y-92432142D01*
X150169523Y-92336904D01*
X150169523Y-92241666D01*
X150121904Y-92146428D01*
X150074285Y-92098809D01*
X149979047Y-92051190D01*
X149788571Y-92003571D01*
X149693333Y-91955952D01*
X149645714Y-91908333D01*
X149598095Y-91813095D01*
X149598095Y-91717857D01*
X149645714Y-91622619D01*
X149693333Y-91575000D01*
X149788571Y-91527380D01*
X150026666Y-91527380D01*
X150169523Y-91575000D01*
X151026666Y-91527380D02*
X150836190Y-91527380D01*
X150740952Y-91575000D01*
X150693333Y-91622619D01*
X150598095Y-91765476D01*
X150550476Y-91955952D01*
X150550476Y-92336904D01*
X150598095Y-92432142D01*
X150645714Y-92479761D01*
X150740952Y-92527380D01*
X150931428Y-92527380D01*
X151026666Y-92479761D01*
X151074285Y-92432142D01*
X151121904Y-92336904D01*
X151121904Y-92098809D01*
X151074285Y-92003571D01*
X151026666Y-91955952D01*
X150931428Y-91908333D01*
X150740952Y-91908333D01*
X150645714Y-91955952D01*
X150598095Y-92003571D01*
X150550476Y-92098809D01*
%TO.C,DS3*%
X57205714Y-135707380D02*
X57205714Y-134707380D01*
X57443809Y-134707380D01*
X57586666Y-134755000D01*
X57681904Y-134850238D01*
X57729523Y-134945476D01*
X57777142Y-135135952D01*
X57777142Y-135278809D01*
X57729523Y-135469285D01*
X57681904Y-135564523D01*
X57586666Y-135659761D01*
X57443809Y-135707380D01*
X57205714Y-135707380D01*
X58158095Y-135659761D02*
X58300952Y-135707380D01*
X58539047Y-135707380D01*
X58634285Y-135659761D01*
X58681904Y-135612142D01*
X58729523Y-135516904D01*
X58729523Y-135421666D01*
X58681904Y-135326428D01*
X58634285Y-135278809D01*
X58539047Y-135231190D01*
X58348571Y-135183571D01*
X58253333Y-135135952D01*
X58205714Y-135088333D01*
X58158095Y-134993095D01*
X58158095Y-134897857D01*
X58205714Y-134802619D01*
X58253333Y-134755000D01*
X58348571Y-134707380D01*
X58586666Y-134707380D01*
X58729523Y-134755000D01*
X59062857Y-134707380D02*
X59681904Y-134707380D01*
X59348571Y-135088333D01*
X59491428Y-135088333D01*
X59586666Y-135135952D01*
X59634285Y-135183571D01*
X59681904Y-135278809D01*
X59681904Y-135516904D01*
X59634285Y-135612142D01*
X59586666Y-135659761D01*
X59491428Y-135707380D01*
X59205714Y-135707380D01*
X59110476Y-135659761D01*
X59062857Y-135612142D01*
%TO.C,U3*%
X103378095Y-103167380D02*
X103378095Y-103976904D01*
X103425714Y-104072142D01*
X103473333Y-104119761D01*
X103568571Y-104167380D01*
X103759047Y-104167380D01*
X103854285Y-104119761D01*
X103901904Y-104072142D01*
X103949523Y-103976904D01*
X103949523Y-103167380D01*
X104330476Y-103167380D02*
X104949523Y-103167380D01*
X104616190Y-103548333D01*
X104759047Y-103548333D01*
X104854285Y-103595952D01*
X104901904Y-103643571D01*
X104949523Y-103738809D01*
X104949523Y-103976904D01*
X104901904Y-104072142D01*
X104854285Y-104119761D01*
X104759047Y-104167380D01*
X104473333Y-104167380D01*
X104378095Y-104119761D01*
X104330476Y-104072142D01*
%TO.C,DS4*%
X148645714Y-135707380D02*
X148645714Y-134707380D01*
X148883809Y-134707380D01*
X149026666Y-134755000D01*
X149121904Y-134850238D01*
X149169523Y-134945476D01*
X149217142Y-135135952D01*
X149217142Y-135278809D01*
X149169523Y-135469285D01*
X149121904Y-135564523D01*
X149026666Y-135659761D01*
X148883809Y-135707380D01*
X148645714Y-135707380D01*
X149598095Y-135659761D02*
X149740952Y-135707380D01*
X149979047Y-135707380D01*
X150074285Y-135659761D01*
X150121904Y-135612142D01*
X150169523Y-135516904D01*
X150169523Y-135421666D01*
X150121904Y-135326428D01*
X150074285Y-135278809D01*
X149979047Y-135231190D01*
X149788571Y-135183571D01*
X149693333Y-135135952D01*
X149645714Y-135088333D01*
X149598095Y-134993095D01*
X149598095Y-134897857D01*
X149645714Y-134802619D01*
X149693333Y-134755000D01*
X149788571Y-134707380D01*
X150026666Y-134707380D01*
X150169523Y-134755000D01*
X151026666Y-135040714D02*
X151026666Y-135707380D01*
X150788571Y-134659761D02*
X150550476Y-135374047D01*
X151169523Y-135374047D01*
%TO.C,R1*%
X123023333Y-186042380D02*
X122690000Y-185566190D01*
X122451904Y-186042380D02*
X122451904Y-185042380D01*
X122832857Y-185042380D01*
X122928095Y-185090000D01*
X122975714Y-185137619D01*
X123023333Y-185232857D01*
X123023333Y-185375714D01*
X122975714Y-185470952D01*
X122928095Y-185518571D01*
X122832857Y-185566190D01*
X122451904Y-185566190D01*
X123975714Y-186042380D02*
X123404285Y-186042380D01*
X123690000Y-186042380D02*
X123690000Y-185042380D01*
X123594761Y-185185238D01*
X123499523Y-185280476D01*
X123404285Y-185328095D01*
%TO.C,U2*%
X135552380Y-191261904D02*
X136361904Y-191261904D01*
X136457142Y-191214285D01*
X136504761Y-191166666D01*
X136552380Y-191071428D01*
X136552380Y-190880952D01*
X136504761Y-190785714D01*
X136457142Y-190738095D01*
X136361904Y-190690476D01*
X135552380Y-190690476D01*
X135647619Y-190261904D02*
X135600000Y-190214285D01*
X135552380Y-190119047D01*
X135552380Y-189880952D01*
X135600000Y-189785714D01*
X135647619Y-189738095D01*
X135742857Y-189690476D01*
X135838095Y-189690476D01*
X135980952Y-189738095D01*
X136552380Y-190309523D01*
X136552380Y-189690476D01*
%TD*%
M02*
