%TF.GenerationSoftware,KiCad,Pcbnew,(5.1.8)-1*%
%TF.CreationDate,2021-01-25T11:57:41-05:00*%
%TF.ProjectId,Analog_Panel,416e616c-6f67-45f5-9061-6e656c2e6b69,rev?*%
%TF.SameCoordinates,Original*%
%TF.FileFunction,Copper,L1,Top*%
%TF.FilePolarity,Positive*%
%FSLAX46Y46*%
G04 Gerber Fmt 4.6, Leading zero omitted, Abs format (unit mm)*
G04 Created by KiCad (PCBNEW (5.1.8)-1) date 2021-01-25 11:57:41*
%MOMM*%
%LPD*%
G01*
G04 APERTURE LIST*
%TA.AperFunction,WasherPad*%
%ADD10C,8.600000*%
%TD*%
%TA.AperFunction,WasherPad*%
%ADD11C,0.900000*%
%TD*%
%TA.AperFunction,ComponentPad*%
%ADD12R,1.700000X1.700000*%
%TD*%
%TA.AperFunction,ComponentPad*%
%ADD13O,1.700000X1.700000*%
%TD*%
%TA.AperFunction,SMDPad,CuDef*%
%ADD14R,1.422400X0.558800*%
%TD*%
%TA.AperFunction,ComponentPad*%
%ADD15R,1.600000X1.600000*%
%TD*%
%TA.AperFunction,ComponentPad*%
%ADD16C,1.600000*%
%TD*%
%TA.AperFunction,SMDPad,CuDef*%
%ADD17R,1.600000X0.410000*%
%TD*%
%TA.AperFunction,SMDPad,CuDef*%
%ADD18R,1.680000X1.880000*%
%TD*%
%TA.AperFunction,ComponentPad*%
%ADD19C,0.500000*%
%TD*%
%TA.AperFunction,ViaPad*%
%ADD20C,0.500000*%
%TD*%
%TA.AperFunction,Conductor*%
%ADD21C,0.500000*%
%TD*%
%TA.AperFunction,Conductor*%
%ADD22C,0.180000*%
%TD*%
%TA.AperFunction,Conductor*%
%ADD23C,0.200000*%
%TD*%
%TA.AperFunction,Conductor*%
%ADD24C,0.254000*%
%TD*%
%TA.AperFunction,Conductor*%
%ADD25C,0.100000*%
%TD*%
G04 APERTURE END LIST*
D10*
%TO.P,REF\u002A\u002A,*%
%TO.N,*%
X31750000Y-24130000D03*
D11*
X34975000Y-24130000D03*
X34030419Y-26410419D03*
X31750000Y-27355000D03*
X29469581Y-26410419D03*
X28525000Y-24130000D03*
X29469581Y-21849581D03*
X31750000Y-20905000D03*
X34030419Y-21849581D03*
%TD*%
D10*
%TO.P,REF\u002A\u002A,*%
%TO.N,*%
X99060000Y-24130000D03*
D11*
X102285000Y-24130000D03*
X101340419Y-26410419D03*
X99060000Y-27355000D03*
X96779581Y-26410419D03*
X95835000Y-24130000D03*
X96779581Y-21849581D03*
X99060000Y-20905000D03*
X101340419Y-21849581D03*
%TD*%
D10*
%TO.P,REF\u002A\u002A,*%
%TO.N,*%
X99060000Y-55880000D03*
D11*
X102285000Y-55880000D03*
X101340419Y-58160419D03*
X99060000Y-59105000D03*
X96779581Y-58160419D03*
X95835000Y-55880000D03*
X96779581Y-53599581D03*
X99060000Y-52655000D03*
X101340419Y-53599581D03*
%TD*%
D10*
%TO.P,REF\u002A\u002A,*%
%TO.N,*%
X31750000Y-55880000D03*
D11*
X34975000Y-55880000D03*
X34030419Y-58160419D03*
X31750000Y-59105000D03*
X29469581Y-58160419D03*
X28525000Y-55880000D03*
X29469581Y-53599581D03*
X31750000Y-52655000D03*
X34030419Y-53599581D03*
%TD*%
%TO.P,C1,1*%
%TO.N,+5V*%
%TA.AperFunction,SMDPad,CuDef*%
G36*
G01*
X54429999Y-49145000D02*
X57330001Y-49145000D01*
G75*
G02*
X57580000Y-49394999I0J-249999D01*
G01*
X57580000Y-50470001D01*
G75*
G02*
X57330001Y-50720000I-249999J0D01*
G01*
X54429999Y-50720000D01*
G75*
G02*
X54180000Y-50470001I0J249999D01*
G01*
X54180000Y-49394999D01*
G75*
G02*
X54429999Y-49145000I249999J0D01*
G01*
G37*
%TD.AperFunction*%
%TO.P,C1,2*%
%TO.N,GND*%
%TA.AperFunction,SMDPad,CuDef*%
G36*
G01*
X54429999Y-53420000D02*
X57330001Y-53420000D01*
G75*
G02*
X57580000Y-53669999I0J-249999D01*
G01*
X57580000Y-54745001D01*
G75*
G02*
X57330001Y-54995000I-249999J0D01*
G01*
X54429999Y-54995000D01*
G75*
G02*
X54180000Y-54745001I0J249999D01*
G01*
X54180000Y-53669999D01*
G75*
G02*
X54429999Y-53420000I249999J0D01*
G01*
G37*
%TD.AperFunction*%
%TD*%
D12*
%TO.P,J1,1*%
%TO.N,/MISO_DATA*%
X64770000Y-53340000D03*
D13*
%TO.P,J1,2*%
%TO.N,+5V*%
X64770000Y-55880000D03*
%TO.P,J1,3*%
%TO.N,/SCK*%
X67310000Y-53340000D03*
%TO.P,J1,4*%
%TO.N,/MOSI_SDA*%
X67310000Y-55880000D03*
%TO.P,J1,5*%
%TO.N,/RST*%
X69850000Y-53340000D03*
%TO.P,J1,6*%
%TO.N,GND*%
X69850000Y-55880000D03*
%TD*%
D12*
%TO.P,J2,1*%
%TO.N,+5V*%
X78740000Y-55880000D03*
D13*
%TO.P,J2,2*%
%TO.N,GND*%
X81280000Y-55880000D03*
%TD*%
D12*
%TO.P,J3,1*%
%TO.N,GND*%
X44450000Y-22860000D03*
D13*
%TO.P,J3,2*%
%TO.N,/A0*%
X46990000Y-22860000D03*
%TO.P,J3,3*%
%TO.N,/PULLUP_A*%
X49530000Y-22860000D03*
%TD*%
%TO.P,J4,3*%
%TO.N,/PULLUP_D*%
X87630000Y-22860000D03*
%TO.P,J4,2*%
%TO.N,/A3*%
X85090000Y-22860000D03*
D12*
%TO.P,J4,1*%
%TO.N,GND*%
X82550000Y-22860000D03*
%TD*%
%TO.P,J5,1*%
%TO.N,GND*%
X69850000Y-29210000D03*
D13*
%TO.P,J5,2*%
%TO.N,/A6*%
X72390000Y-29210000D03*
%TO.P,J5,3*%
%TO.N,/PULLUP_G*%
X74930000Y-29210000D03*
%TD*%
%TO.P,J6,3*%
%TO.N,/PULLUP_J*%
X62230000Y-35560000D03*
%TO.P,J6,2*%
%TO.N,/A9*%
X59690000Y-35560000D03*
D12*
%TO.P,J6,1*%
%TO.N,GND*%
X57150000Y-35560000D03*
%TD*%
%TO.P,J7,1*%
%TO.N,GND*%
X57150000Y-22860000D03*
D13*
%TO.P,J7,2*%
%TO.N,/A1*%
X59690000Y-22860000D03*
%TO.P,J7,3*%
%TO.N,/PULLUP_B*%
X62230000Y-22860000D03*
%TD*%
D12*
%TO.P,J8,1*%
%TO.N,GND*%
X44450000Y-29210000D03*
D13*
%TO.P,J8,2*%
%TO.N,/A4*%
X46990000Y-29210000D03*
%TO.P,J8,3*%
%TO.N,/PULLUP_E*%
X49530000Y-29210000D03*
%TD*%
%TO.P,J9,3*%
%TO.N,/PULLUP_H*%
X87630000Y-29210000D03*
%TO.P,J9,2*%
%TO.N,/A7*%
X85090000Y-29210000D03*
D12*
%TO.P,J9,1*%
%TO.N,GND*%
X82550000Y-29210000D03*
%TD*%
%TO.P,J10,1*%
%TO.N,GND*%
X69850000Y-35560000D03*
D13*
%TO.P,J10,2*%
%TO.N,/A10*%
X72390000Y-35560000D03*
%TO.P,J10,3*%
%TO.N,/PULLUP_K*%
X74930000Y-35560000D03*
%TD*%
%TO.P,J11,3*%
%TO.N,/PULLUP_C*%
X74930000Y-22860000D03*
%TO.P,J11,2*%
%TO.N,/A2*%
X72390000Y-22860000D03*
D12*
%TO.P,J11,1*%
%TO.N,GND*%
X69850000Y-22860000D03*
%TD*%
%TO.P,J12,1*%
%TO.N,GND*%
X57150000Y-29210000D03*
D13*
%TO.P,J12,2*%
%TO.N,/A5*%
X59690000Y-29210000D03*
%TO.P,J12,3*%
%TO.N,/PULLUP_F*%
X62230000Y-29210000D03*
%TD*%
%TO.P,J13,3*%
%TO.N,/PULLUP_I*%
X49530000Y-35560000D03*
%TO.P,J13,2*%
%TO.N,/A8*%
X46990000Y-35560000D03*
D12*
%TO.P,J13,1*%
%TO.N,GND*%
X44450000Y-35560000D03*
%TD*%
%TO.P,J14,1*%
%TO.N,GND*%
X85090000Y-36830000D03*
D13*
%TO.P,J14,2*%
%TO.N,/AOUT0*%
X87630000Y-36830000D03*
%TD*%
%TO.P,J15,2*%
%TO.N,/AOUT1*%
X87630000Y-43180000D03*
D12*
%TO.P,J15,1*%
%TO.N,GND*%
X85090000Y-43180000D03*
%TD*%
%TO.P,R1,1*%
%TO.N,/RST*%
%TA.AperFunction,SMDPad,CuDef*%
G36*
G01*
X73492000Y-52383000D02*
X73492000Y-50233000D01*
G75*
G02*
X73742000Y-49983000I250000J0D01*
G01*
X74542000Y-49983000D01*
G75*
G02*
X74792000Y-50233000I0J-250000D01*
G01*
X74792000Y-52383000D01*
G75*
G02*
X74542000Y-52633000I-250000J0D01*
G01*
X73742000Y-52633000D01*
G75*
G02*
X73492000Y-52383000I0J250000D01*
G01*
G37*
%TD.AperFunction*%
%TO.P,R1,2*%
%TO.N,+5V*%
%TA.AperFunction,SMDPad,CuDef*%
G36*
G01*
X76592000Y-52383000D02*
X76592000Y-50233000D01*
G75*
G02*
X76842000Y-49983000I250000J0D01*
G01*
X77642000Y-49983000D01*
G75*
G02*
X77892000Y-50233000I0J-250000D01*
G01*
X77892000Y-52383000D01*
G75*
G02*
X77642000Y-52633000I-250000J0D01*
G01*
X76842000Y-52633000D01*
G75*
G02*
X76592000Y-52383000I0J250000D01*
G01*
G37*
%TD.AperFunction*%
%TD*%
%TO.P,R2,2*%
%TO.N,/PULLUP_L*%
%TA.AperFunction,SMDPad,CuDef*%
G36*
G01*
X68696000Y-47185000D02*
X68696000Y-49335000D01*
G75*
G02*
X68446000Y-49585000I-250000J0D01*
G01*
X67646000Y-49585000D01*
G75*
G02*
X67396000Y-49335000I0J250000D01*
G01*
X67396000Y-47185000D01*
G75*
G02*
X67646000Y-46935000I250000J0D01*
G01*
X68446000Y-46935000D01*
G75*
G02*
X68696000Y-47185000I0J-250000D01*
G01*
G37*
%TD.AperFunction*%
%TO.P,R2,1*%
%TO.N,/AREF*%
%TA.AperFunction,SMDPad,CuDef*%
G36*
G01*
X71796000Y-47185000D02*
X71796000Y-49335000D01*
G75*
G02*
X71546000Y-49585000I-250000J0D01*
G01*
X70746000Y-49585000D01*
G75*
G02*
X70496000Y-49335000I0J250000D01*
G01*
X70496000Y-47185000D01*
G75*
G02*
X70746000Y-46935000I250000J0D01*
G01*
X71546000Y-46935000D01*
G75*
G02*
X71796000Y-47185000I0J-250000D01*
G01*
G37*
%TD.AperFunction*%
%TD*%
%TO.P,R3,2*%
%TO.N,/SCL1*%
%TA.AperFunction,SMDPad,CuDef*%
G36*
G01*
X89800000Y-52383000D02*
X89800000Y-50233000D01*
G75*
G02*
X90050000Y-49983000I250000J0D01*
G01*
X90850000Y-49983000D01*
G75*
G02*
X91100000Y-50233000I0J-250000D01*
G01*
X91100000Y-52383000D01*
G75*
G02*
X90850000Y-52633000I-250000J0D01*
G01*
X90050000Y-52633000D01*
G75*
G02*
X89800000Y-52383000I0J250000D01*
G01*
G37*
%TD.AperFunction*%
%TO.P,R3,1*%
%TO.N,+5V*%
%TA.AperFunction,SMDPad,CuDef*%
G36*
G01*
X86700000Y-52383000D02*
X86700000Y-50233000D01*
G75*
G02*
X86950000Y-49983000I250000J0D01*
G01*
X87750000Y-49983000D01*
G75*
G02*
X88000000Y-50233000I0J-250000D01*
G01*
X88000000Y-52383000D01*
G75*
G02*
X87750000Y-52633000I-250000J0D01*
G01*
X86950000Y-52633000D01*
G75*
G02*
X86700000Y-52383000I0J250000D01*
G01*
G37*
%TD.AperFunction*%
%TD*%
%TO.P,R4,1*%
%TO.N,+5V*%
%TA.AperFunction,SMDPad,CuDef*%
G36*
G01*
X86700000Y-58479000D02*
X86700000Y-56329000D01*
G75*
G02*
X86950000Y-56079000I250000J0D01*
G01*
X87750000Y-56079000D01*
G75*
G02*
X88000000Y-56329000I0J-250000D01*
G01*
X88000000Y-58479000D01*
G75*
G02*
X87750000Y-58729000I-250000J0D01*
G01*
X86950000Y-58729000D01*
G75*
G02*
X86700000Y-58479000I0J250000D01*
G01*
G37*
%TD.AperFunction*%
%TO.P,R4,2*%
%TO.N,/SDA1*%
%TA.AperFunction,SMDPad,CuDef*%
G36*
G01*
X89800000Y-58479000D02*
X89800000Y-56329000D01*
G75*
G02*
X90050000Y-56079000I250000J0D01*
G01*
X90850000Y-56079000D01*
G75*
G02*
X91100000Y-56329000I0J-250000D01*
G01*
X91100000Y-58479000D01*
G75*
G02*
X90850000Y-58729000I-250000J0D01*
G01*
X90050000Y-58729000D01*
G75*
G02*
X89800000Y-58479000I0J250000D01*
G01*
G37*
%TD.AperFunction*%
%TD*%
D14*
%TO.P,RN1,1*%
%TO.N,+5V*%
X30708600Y-35331400D03*
%TO.P,RN1,2*%
%TO.N,/PULLUP_A*%
X30708600Y-36677600D03*
%TO.P,RN1,3*%
%TO.N,/PULLUP_B*%
X30708600Y-38023800D03*
%TO.P,RN1,4*%
%TO.N,/PULLUP_C*%
X30708600Y-39370000D03*
%TO.P,RN1,5*%
%TO.N,/PULLUP_D*%
X30708600Y-40716200D03*
%TO.P,RN1,6*%
%TO.N,/PULLUP_E*%
X30708600Y-42062400D03*
%TO.P,RN1,7*%
%TO.N,/PULLUP_F*%
X30708600Y-43408600D03*
%TO.P,RN1,8*%
%TO.N,/PULLUP_G*%
X37871400Y-43408600D03*
%TO.P,RN1,9*%
%TO.N,/PULLUP_H*%
X37871400Y-42062400D03*
%TO.P,RN1,10*%
%TO.N,/PULLUP_I*%
X37871400Y-40716200D03*
%TO.P,RN1,11*%
%TO.N,/PULLUP_J*%
X37871400Y-39370000D03*
%TO.P,RN1,12*%
%TO.N,/PULLUP_K*%
X37871400Y-38023800D03*
%TO.P,RN1,13*%
%TO.N,/PULLUP_L*%
X37871400Y-36677600D03*
%TO.P,RN1,14*%
%TO.N,N/C*%
X37871400Y-35331400D03*
%TD*%
D15*
%TO.P,U1,1*%
%TO.N,/RST*%
X41910000Y-45720000D03*
D16*
%TO.P,U1,2*%
%TO.N,/SCL1*%
X41910000Y-48260000D03*
%TO.P,U1,3*%
%TO.N,/SDA1*%
X41910000Y-50800000D03*
%TO.P,U1,4*%
%TO.N,GND*%
X41910000Y-53340000D03*
%TO.P,U1,5*%
%TO.N,/MOSI_SDA*%
X49530000Y-53340000D03*
%TO.P,U1,6*%
%TO.N,/MISO_DATA*%
X49530000Y-50800000D03*
%TO.P,U1,7*%
%TO.N,/SCK*%
X49530000Y-48260000D03*
%TO.P,U1,8*%
%TO.N,+5V*%
X49530000Y-45720000D03*
%TD*%
D17*
%TO.P,U2,1*%
%TO.N,/AREF*%
X95135700Y-33337500D03*
%TO.P,U2,2*%
%TO.N,/A10*%
X95135700Y-33972500D03*
%TO.P,U2,3*%
%TO.N,/A9*%
X95135700Y-34607500D03*
%TO.P,U2,4*%
%TO.N,/A8*%
X95135700Y-35242500D03*
%TO.P,U2,5*%
%TO.N,/A0*%
X95135700Y-35877500D03*
%TO.P,U2,6*%
%TO.N,/A1*%
X95135700Y-36512500D03*
%TO.P,U2,7*%
%TO.N,/A2*%
X95135700Y-37147500D03*
%TO.P,U2,8*%
%TO.N,/A3*%
X95135700Y-37782500D03*
%TO.P,U2,9*%
%TO.N,/A4*%
X100444300Y-37782500D03*
%TO.P,U2,10*%
%TO.N,/A5*%
X100444300Y-37147500D03*
%TO.P,U2,11*%
%TO.N,/A6*%
X100444300Y-36512500D03*
%TO.P,U2,12*%
%TO.N,/A7*%
X100444300Y-35877500D03*
%TO.P,U2,13*%
%TO.N,/SCL1*%
X100444300Y-35242500D03*
%TO.P,U2,14*%
%TO.N,/SDA1*%
X100444300Y-34607500D03*
%TO.P,U2,15*%
%TO.N,GND*%
X100444300Y-33972500D03*
%TO.P,U2,16*%
%TO.N,+5V*%
X100444300Y-33337500D03*
%TD*%
%TO.P,U3,1*%
%TO.N,+5V*%
%TA.AperFunction,SMDPad,CuDef*%
G36*
G01*
X94915000Y-43525000D02*
X94915000Y-43375000D01*
G75*
G02*
X94990000Y-43300000I75000J0D01*
G01*
X96290000Y-43300000D01*
G75*
G02*
X96365000Y-43375000I0J-75000D01*
G01*
X96365000Y-43525000D01*
G75*
G02*
X96290000Y-43600000I-75000J0D01*
G01*
X94990000Y-43600000D01*
G75*
G02*
X94915000Y-43525000I0J75000D01*
G01*
G37*
%TD.AperFunction*%
%TO.P,U3,2*%
%TO.N,GND*%
%TA.AperFunction,SMDPad,CuDef*%
G36*
G01*
X94915000Y-44025000D02*
X94915000Y-43875000D01*
G75*
G02*
X94990000Y-43800000I75000J0D01*
G01*
X96290000Y-43800000D01*
G75*
G02*
X96365000Y-43875000I0J-75000D01*
G01*
X96365000Y-44025000D01*
G75*
G02*
X96290000Y-44100000I-75000J0D01*
G01*
X94990000Y-44100000D01*
G75*
G02*
X94915000Y-44025000I0J75000D01*
G01*
G37*
%TD.AperFunction*%
%TO.P,U3,3*%
%TO.N,+5V*%
%TA.AperFunction,SMDPad,CuDef*%
G36*
G01*
X94915000Y-44525000D02*
X94915000Y-44375000D01*
G75*
G02*
X94990000Y-44300000I75000J0D01*
G01*
X96290000Y-44300000D01*
G75*
G02*
X96365000Y-44375000I0J-75000D01*
G01*
X96365000Y-44525000D01*
G75*
G02*
X96290000Y-44600000I-75000J0D01*
G01*
X94990000Y-44600000D01*
G75*
G02*
X94915000Y-44525000I0J75000D01*
G01*
G37*
%TD.AperFunction*%
%TO.P,U3,4*%
%TO.N,/AOUT0*%
%TA.AperFunction,SMDPad,CuDef*%
G36*
G01*
X94915000Y-45025000D02*
X94915000Y-44875000D01*
G75*
G02*
X94990000Y-44800000I75000J0D01*
G01*
X96290000Y-44800000D01*
G75*
G02*
X96365000Y-44875000I0J-75000D01*
G01*
X96365000Y-45025000D01*
G75*
G02*
X96290000Y-45100000I-75000J0D01*
G01*
X94990000Y-45100000D01*
G75*
G02*
X94915000Y-45025000I0J75000D01*
G01*
G37*
%TD.AperFunction*%
%TO.P,U3,5*%
%TO.N,/AOUT1*%
%TA.AperFunction,SMDPad,CuDef*%
G36*
G01*
X94915000Y-45525000D02*
X94915000Y-45375000D01*
G75*
G02*
X94990000Y-45300000I75000J0D01*
G01*
X96290000Y-45300000D01*
G75*
G02*
X96365000Y-45375000I0J-75000D01*
G01*
X96365000Y-45525000D01*
G75*
G02*
X96290000Y-45600000I-75000J0D01*
G01*
X94990000Y-45600000D01*
G75*
G02*
X94915000Y-45525000I0J75000D01*
G01*
G37*
%TD.AperFunction*%
%TO.P,U3,6*%
%TO.N,N/C*%
%TA.AperFunction,SMDPad,CuDef*%
G36*
G01*
X99215000Y-45525000D02*
X99215000Y-45375000D01*
G75*
G02*
X99290000Y-45300000I75000J0D01*
G01*
X100590000Y-45300000D01*
G75*
G02*
X100665000Y-45375000I0J-75000D01*
G01*
X100665000Y-45525000D01*
G75*
G02*
X100590000Y-45600000I-75000J0D01*
G01*
X99290000Y-45600000D01*
G75*
G02*
X99215000Y-45525000I0J75000D01*
G01*
G37*
%TD.AperFunction*%
%TO.P,U3,7*%
%TO.N,GND*%
%TA.AperFunction,SMDPad,CuDef*%
G36*
G01*
X99215000Y-45025000D02*
X99215000Y-44875000D01*
G75*
G02*
X99290000Y-44800000I75000J0D01*
G01*
X100590000Y-44800000D01*
G75*
G02*
X100665000Y-44875000I0J-75000D01*
G01*
X100665000Y-45025000D01*
G75*
G02*
X100590000Y-45100000I-75000J0D01*
G01*
X99290000Y-45100000D01*
G75*
G02*
X99215000Y-45025000I0J75000D01*
G01*
G37*
%TD.AperFunction*%
%TO.P,U3,8*%
%TA.AperFunction,SMDPad,CuDef*%
G36*
G01*
X99215000Y-44525000D02*
X99215000Y-44375000D01*
G75*
G02*
X99290000Y-44300000I75000J0D01*
G01*
X100590000Y-44300000D01*
G75*
G02*
X100665000Y-44375000I0J-75000D01*
G01*
X100665000Y-44525000D01*
G75*
G02*
X100590000Y-44600000I-75000J0D01*
G01*
X99290000Y-44600000D01*
G75*
G02*
X99215000Y-44525000I0J75000D01*
G01*
G37*
%TD.AperFunction*%
%TO.P,U3,9*%
%TO.N,/SCL1*%
%TA.AperFunction,SMDPad,CuDef*%
G36*
G01*
X99215000Y-44025000D02*
X99215000Y-43875000D01*
G75*
G02*
X99290000Y-43800000I75000J0D01*
G01*
X100590000Y-43800000D01*
G75*
G02*
X100665000Y-43875000I0J-75000D01*
G01*
X100665000Y-44025000D01*
G75*
G02*
X100590000Y-44100000I-75000J0D01*
G01*
X99290000Y-44100000D01*
G75*
G02*
X99215000Y-44025000I0J75000D01*
G01*
G37*
%TD.AperFunction*%
%TO.P,U3,10*%
%TO.N,/SDA1*%
%TA.AperFunction,SMDPad,CuDef*%
G36*
G01*
X99215000Y-43525000D02*
X99215000Y-43375000D01*
G75*
G02*
X99290000Y-43300000I75000J0D01*
G01*
X100590000Y-43300000D01*
G75*
G02*
X100665000Y-43375000I0J-75000D01*
G01*
X100665000Y-43525000D01*
G75*
G02*
X100590000Y-43600000I-75000J0D01*
G01*
X99290000Y-43600000D01*
G75*
G02*
X99215000Y-43525000I0J75000D01*
G01*
G37*
%TD.AperFunction*%
D18*
%TO.P,U3,11*%
%TO.N,N/C*%
X97790000Y-44450000D03*
D19*
X97240000Y-43800000D03*
X98340000Y-43800000D03*
X97240000Y-45100000D03*
X98340000Y-45100000D03*
%TD*%
D20*
%TO.N,+5V*%
X28448000Y-35052000D03*
X90932000Y-43688000D03*
X85852000Y-50292000D03*
X103718000Y-40640000D03*
X92964000Y-42672000D03*
%TO.N,GND*%
X92456000Y-43688000D03*
X101426907Y-45038907D03*
X99060000Y-30988000D03*
X47752000Y-58420000D03*
X60452000Y-58420000D03*
%TO.N,/A0*%
X93493950Y-29464000D03*
%TO.N,/A3*%
X93980000Y-26056002D03*
%TO.N,/A6*%
X97764970Y-34693138D03*
%TO.N,/A9*%
X96520000Y-34544000D03*
%TO.N,/A1*%
X93003950Y-28593016D03*
%TO.N,/A4*%
X97536000Y-36576000D03*
%TO.N,/A7*%
X97830011Y-33528000D03*
%TO.N,/A10*%
X96520000Y-33528000D03*
%TO.N,/A2*%
X93472000Y-27432000D03*
%TO.N,/A5*%
X97536000Y-35560000D03*
%TO.N,/A8*%
X96520000Y-35560000D03*
%TO.N,/PULLUP_L*%
X39116000Y-37084000D03*
X59027554Y-46636446D03*
%TO.N,/AREF*%
X91948000Y-33528000D03*
X84328000Y-33528000D03*
%TD*%
D21*
%TO.N,+5V*%
X61827500Y-55880000D02*
X55880000Y-49932500D01*
X64770000Y-55880000D02*
X61827500Y-55880000D01*
X64770000Y-55880000D02*
X67310000Y-58420000D01*
X67310000Y-58420000D02*
X76200000Y-58420000D01*
X76200000Y-58420000D02*
X78740000Y-55880000D01*
X77242000Y-54382000D02*
X78740000Y-55880000D01*
X77242000Y-51308000D02*
X77242000Y-54382000D01*
X53742500Y-49932500D02*
X49530000Y-45720000D01*
X55880000Y-49932500D02*
X53742500Y-49932500D01*
X30429200Y-35052000D02*
X30708600Y-35331400D01*
X28448000Y-35052000D02*
X30429200Y-35052000D01*
X80264000Y-57404000D02*
X87350000Y-57404000D01*
X78740000Y-55880000D02*
X80264000Y-57404000D01*
X87350000Y-57404000D02*
X87350000Y-51308000D01*
D22*
X91694000Y-44450000D02*
X90932000Y-43688000D01*
X95640000Y-44450000D02*
X91694000Y-44450000D01*
X86334000Y-50292000D02*
X87350000Y-51308000D01*
X85852000Y-50292000D02*
X86334000Y-50292000D01*
X95640000Y-43450000D02*
X93234000Y-43450000D01*
X91526001Y-43093999D02*
X90932000Y-43688000D01*
X92877999Y-43093999D02*
X91526001Y-43093999D01*
X93234000Y-43450000D02*
X92877999Y-43093999D01*
X103718000Y-35621998D02*
X103718000Y-40640000D01*
X101433502Y-33337500D02*
X103718000Y-35621998D01*
X100444300Y-33337500D02*
X101433502Y-33337500D01*
X92877999Y-42758001D02*
X92877999Y-43093999D01*
X92964000Y-42672000D02*
X92877999Y-42758001D01*
%TO.N,GND*%
X92718000Y-43950000D02*
X92456000Y-43688000D01*
X95640000Y-43950000D02*
X92718000Y-43950000D01*
X101338000Y-44950000D02*
X101426907Y-45038907D01*
X99940000Y-44950000D02*
X101338000Y-44950000D01*
X99060000Y-33577402D02*
X99060000Y-30988000D01*
X99455098Y-33972500D02*
X99060000Y-33577402D01*
X100444300Y-33972500D02*
X99455098Y-33972500D01*
D21*
X46990000Y-58420000D02*
X47752000Y-58420000D01*
X41910000Y-53340000D02*
X46990000Y-58420000D01*
X60092500Y-58420000D02*
X60452000Y-58420000D01*
X55880000Y-54207500D02*
X60092500Y-58420000D01*
D23*
%TO.N,/RST*%
X72110000Y-53340000D02*
X74142000Y-51308000D01*
X69850000Y-53340000D02*
X72110000Y-53340000D01*
X43064001Y-44565999D02*
X56249999Y-44565999D01*
X41910000Y-45720000D02*
X43064001Y-44565999D01*
X56249999Y-44565999D02*
X62484000Y-50800000D01*
X67310000Y-50800000D02*
X69850000Y-53340000D01*
X62484000Y-50800000D02*
X67310000Y-50800000D01*
D22*
%TO.N,/A0*%
X95135700Y-35877500D02*
X91249500Y-35877500D01*
X91249500Y-35877500D02*
X90932000Y-35560000D01*
X90932000Y-32025950D02*
X93493950Y-29464000D01*
X90932000Y-35560000D02*
X90932000Y-32025950D01*
D23*
%TO.N,/PULLUP_A*%
X31619800Y-36677600D02*
X32004000Y-36293400D01*
X30708600Y-36677600D02*
X31619800Y-36677600D01*
X32004000Y-36293400D02*
X32004000Y-30480000D01*
X32004000Y-30480000D02*
X37592000Y-24892000D01*
X47498000Y-24892000D02*
X49530000Y-22860000D01*
X37592000Y-24892000D02*
X47498000Y-24892000D01*
%TO.N,/PULLUP_D*%
X31619800Y-40716200D02*
X33528000Y-38808000D01*
X30708600Y-40716200D02*
X31619800Y-40716200D01*
X33528000Y-30480000D02*
X38065970Y-25942030D01*
X33528000Y-38808000D02*
X33528000Y-30480000D01*
X84547970Y-25942030D02*
X87630000Y-22860000D01*
X38065970Y-25942030D02*
X84547970Y-25942030D01*
D22*
%TO.N,/A3*%
X91948000Y-28088002D02*
X93980000Y-26056002D01*
X95135700Y-37782500D02*
X90614500Y-37782500D01*
X90614500Y-37782500D02*
X89408000Y-36576000D01*
X89408000Y-30628002D02*
X91948000Y-28088002D01*
X89408000Y-36576000D02*
X89408000Y-30628002D01*
%TO.N,/A6*%
X99584332Y-36512500D02*
X100444300Y-36512500D01*
X97764970Y-34693138D02*
X99584332Y-36512500D01*
D23*
%TO.N,/PULLUP_G*%
X37871400Y-43408600D02*
X37820600Y-43408600D01*
X37820600Y-43408600D02*
X35052000Y-40640000D01*
X35052000Y-40640000D02*
X35052000Y-33528000D01*
X72801990Y-31338010D02*
X74930000Y-29210000D01*
X37241990Y-31338010D02*
X72801990Y-31338010D01*
X35052000Y-33528000D02*
X37241990Y-31338010D01*
%TO.N,/PULLUP_J*%
X58420000Y-39370000D02*
X62230000Y-35560000D01*
X37871400Y-39370000D02*
X58420000Y-39370000D01*
D22*
%TO.N,/A9*%
X95199200Y-34544000D02*
X95135700Y-34607500D01*
X96520000Y-34544000D02*
X95199200Y-34544000D01*
%TO.N,/A1*%
X95135700Y-36512500D02*
X90868500Y-36512500D01*
X90868500Y-36512500D02*
X90424000Y-36068000D01*
X90424000Y-31172966D02*
X93003950Y-28593016D01*
X90424000Y-36068000D02*
X90424000Y-31172966D01*
D23*
%TO.N,/PULLUP_B*%
X31619800Y-38023800D02*
X32512000Y-37131600D01*
X30708600Y-38023800D02*
X31619800Y-38023800D01*
X32512000Y-37131600D02*
X32512000Y-30480000D01*
X35052000Y-27940000D02*
X35052000Y-27926988D01*
X32512000Y-30480000D02*
X35052000Y-27940000D01*
X59847990Y-25242010D02*
X62230000Y-22860000D01*
X37736978Y-25242010D02*
X59847990Y-25242010D01*
X35052000Y-27926988D02*
X37736978Y-25242010D01*
D22*
%TO.N,/A4*%
X98742500Y-37782500D02*
X100444300Y-37782500D01*
X97536000Y-36576000D02*
X98742500Y-37782500D01*
D23*
%TO.N,/PULLUP_E*%
X31619800Y-42062400D02*
X34036000Y-39646200D01*
X30708600Y-42062400D02*
X31619800Y-42062400D01*
X34036000Y-39646200D02*
X34036000Y-30480000D01*
X34036000Y-30480000D02*
X38100000Y-26416000D01*
X46736000Y-26416000D02*
X49530000Y-29210000D01*
X38100000Y-26416000D02*
X46736000Y-26416000D01*
%TO.N,/PULLUP_H*%
X37439600Y-42062400D02*
X35560000Y-40182800D01*
X37871400Y-42062400D02*
X37439600Y-42062400D01*
X35560000Y-40182800D02*
X35560000Y-33528000D01*
X35560000Y-33528000D02*
X37399980Y-31688020D01*
X85151980Y-31688020D02*
X87630000Y-29210000D01*
X37399980Y-31688020D02*
X85151980Y-31688020D01*
D22*
%TO.N,/A7*%
X99642298Y-35877500D02*
X100444300Y-35877500D01*
X97830011Y-34065213D02*
X99642298Y-35877500D01*
X97830011Y-33528000D02*
X97830011Y-34065213D01*
%TO.N,/A10*%
X96075500Y-33972500D02*
X95135700Y-33972500D01*
X96520000Y-33528000D02*
X96075500Y-33972500D01*
D23*
%TO.N,/PULLUP_K*%
X73725999Y-34355999D02*
X74930000Y-35560000D01*
X61805999Y-34355999D02*
X73725999Y-34355999D01*
X61129999Y-35031999D02*
X61805999Y-34355999D01*
X61129999Y-35748003D02*
X61129999Y-35031999D01*
X58854202Y-38023800D02*
X61129999Y-35748003D01*
X37871400Y-38023800D02*
X58854202Y-38023800D01*
%TO.N,/PULLUP_C*%
X31619800Y-39370000D02*
X33020000Y-37969800D01*
X30708600Y-39370000D02*
X31619800Y-39370000D01*
X33020000Y-30480000D02*
X37907980Y-25592020D01*
X33020000Y-37969800D02*
X33020000Y-30480000D01*
X72197980Y-25592020D02*
X74930000Y-22860000D01*
X37907980Y-25592020D02*
X72197980Y-25592020D01*
D22*
%TO.N,/A2*%
X92456000Y-28448000D02*
X93472000Y-27432000D01*
X95135700Y-37147500D02*
X90487500Y-37147500D01*
X90487500Y-37147500D02*
X89916000Y-36576000D01*
X89916000Y-30988000D02*
X92456000Y-28448000D01*
X89916000Y-36576000D02*
X89916000Y-30988000D01*
%TO.N,/A5*%
X99123500Y-37147500D02*
X100444300Y-37147500D01*
X97536000Y-35560000D02*
X99123500Y-37147500D01*
D23*
%TO.N,/PULLUP_F*%
X31619800Y-43408600D02*
X34544000Y-40484400D01*
X30708600Y-43408600D02*
X31619800Y-43408600D01*
X34544000Y-40484400D02*
X34544000Y-33528000D01*
X34544000Y-33528000D02*
X37084000Y-30988000D01*
X60452000Y-30988000D02*
X62230000Y-29210000D01*
X37084000Y-30988000D02*
X60452000Y-30988000D01*
%TO.N,/PULLUP_I*%
X37871400Y-40716200D02*
X37160200Y-40716200D01*
X37160200Y-40716200D02*
X36068000Y-39624000D01*
X36068000Y-39624000D02*
X36068000Y-33528000D01*
X36068000Y-33528000D02*
X37557970Y-32038030D01*
X46008030Y-32038030D02*
X49530000Y-35560000D01*
X37557970Y-32038030D02*
X46008030Y-32038030D01*
D22*
%TO.N,/A8*%
X95184197Y-35194003D02*
X95135700Y-35242500D01*
X96520000Y-35194003D02*
X95184197Y-35194003D01*
D23*
X96520000Y-35194003D02*
X96520000Y-35560000D01*
%TO.N,/AOUT0*%
X87630000Y-36830000D02*
X87630000Y-41402000D01*
X91182010Y-44954010D02*
X95640000Y-44954010D01*
X87630000Y-41402000D02*
X91182010Y-44954010D01*
%TO.N,/AOUT1*%
X89900000Y-45450000D02*
X95640000Y-45450000D01*
X87630000Y-43180000D02*
X89900000Y-45450000D01*
%TO.N,/PULLUP_L*%
X38709600Y-36677600D02*
X39116000Y-37084000D01*
X37871400Y-36677600D02*
X38709600Y-36677600D01*
X60651108Y-48260000D02*
X59027554Y-46636446D01*
X68046000Y-48260000D02*
X60651108Y-48260000D01*
D22*
%TO.N,/AREF*%
X92138500Y-33337500D02*
X91948000Y-33528000D01*
X95135700Y-33337500D02*
X92138500Y-33337500D01*
D23*
X71146000Y-48260000D02*
X73660000Y-48260000D01*
X73660000Y-48260000D02*
X81280000Y-40640000D01*
X81280000Y-36576000D02*
X84328000Y-33528000D01*
X81280000Y-40640000D02*
X81280000Y-36576000D01*
%TO.N,/SCL1*%
X41910000Y-48260000D02*
X53594000Y-59944000D01*
X89549990Y-52208010D02*
X90450000Y-51308000D01*
X89549990Y-57533212D02*
X89549990Y-52208010D01*
X87139202Y-59944000D02*
X89549990Y-57533212D01*
X53594000Y-59944000D02*
X87139202Y-59944000D01*
X90450000Y-51308000D02*
X96012000Y-51308000D01*
X96012000Y-51308000D02*
X102108000Y-45212000D01*
D22*
X99215000Y-43950000D02*
X99940000Y-43950000D01*
X98974990Y-43709990D02*
X99215000Y-43950000D01*
X98974990Y-43244516D02*
X98974990Y-43709990D01*
X101484301Y-40735205D02*
X98974990Y-43244516D01*
X101484301Y-35480499D02*
X101484301Y-40735205D01*
X101246302Y-35242500D02*
X101484301Y-35480499D01*
X100444300Y-35242500D02*
X101246302Y-35242500D01*
X101217122Y-43950000D02*
X100830000Y-43950000D01*
X102108000Y-45212000D02*
X102108000Y-44840878D01*
X102108000Y-44840878D02*
X101217122Y-43950000D01*
X100830000Y-43950000D02*
X100846000Y-43950000D01*
X99940000Y-43950000D02*
X100830000Y-43950000D01*
D23*
%TO.N,/SDA1*%
X41910000Y-50800000D02*
X51562000Y-60452000D01*
X87402000Y-60452000D02*
X90450000Y-57404000D01*
X51562000Y-60452000D02*
X87402000Y-60452000D01*
X90450000Y-57404000D02*
X102121000Y-45733000D01*
X102121000Y-45733000D02*
X102458008Y-45395992D01*
D22*
X102854000Y-43450000D02*
X103124000Y-43180000D01*
X101246302Y-34607500D02*
X100444300Y-34607500D01*
X103124000Y-36485198D02*
X101246302Y-34607500D01*
X103124000Y-43180000D02*
X103124000Y-36485198D01*
X99940000Y-43450000D02*
X102854000Y-43450000D01*
X102458008Y-43845992D02*
X102854000Y-43450000D01*
X102458008Y-45395992D02*
X102458008Y-43845992D01*
%TD*%
D24*
%TO.N,GND*%
X99945870Y-18536837D02*
X100809927Y-18744279D01*
X101630891Y-19084334D01*
X102388559Y-19548633D01*
X103064262Y-20125738D01*
X103641367Y-20801441D01*
X104105666Y-21559107D01*
X104445721Y-22380072D01*
X104653163Y-23244136D01*
X104725001Y-24156922D01*
X104725000Y-55853091D01*
X104653163Y-56765864D01*
X104445721Y-57629928D01*
X104105666Y-58450893D01*
X103641367Y-59208559D01*
X103064262Y-59884262D01*
X102388559Y-60461367D01*
X101630891Y-60925666D01*
X100809927Y-61265721D01*
X99945870Y-61473163D01*
X99033092Y-61545000D01*
X31776909Y-61545000D01*
X30864136Y-61473163D01*
X30000072Y-61265721D01*
X29179107Y-60925666D01*
X28421441Y-60461367D01*
X27745738Y-59884262D01*
X27168633Y-59208559D01*
X26704334Y-58450891D01*
X26364279Y-57629927D01*
X26156837Y-56765870D01*
X26085000Y-55853092D01*
X26085000Y-55393945D01*
X26815000Y-55393945D01*
X26815000Y-56366055D01*
X27004650Y-57319486D01*
X27376660Y-58217599D01*
X27916735Y-59025879D01*
X28604121Y-59713265D01*
X29412401Y-60253340D01*
X30310514Y-60625350D01*
X31263945Y-60815000D01*
X32236055Y-60815000D01*
X33189486Y-60625350D01*
X34087599Y-60253340D01*
X34895879Y-59713265D01*
X35583265Y-59025879D01*
X36123340Y-58217599D01*
X36495350Y-57319486D01*
X36685000Y-56366055D01*
X36685000Y-55393945D01*
X36495350Y-54440514D01*
X36450693Y-54332702D01*
X41096903Y-54332702D01*
X41168486Y-54576671D01*
X41423996Y-54697571D01*
X41698184Y-54766300D01*
X41980512Y-54780217D01*
X42260130Y-54738787D01*
X42526292Y-54643603D01*
X42651514Y-54576671D01*
X42723097Y-54332702D01*
X41910000Y-53519605D01*
X41096903Y-54332702D01*
X36450693Y-54332702D01*
X36123340Y-53542401D01*
X36035215Y-53410512D01*
X40469783Y-53410512D01*
X40511213Y-53690130D01*
X40606397Y-53956292D01*
X40673329Y-54081514D01*
X40917298Y-54153097D01*
X41730395Y-53340000D01*
X40917298Y-52526903D01*
X40673329Y-52598486D01*
X40552429Y-52853996D01*
X40483700Y-53128184D01*
X40469783Y-53410512D01*
X36035215Y-53410512D01*
X35583265Y-52734121D01*
X34895879Y-52046735D01*
X34087599Y-51506660D01*
X33189486Y-51134650D01*
X32236055Y-50945000D01*
X31263945Y-50945000D01*
X30310514Y-51134650D01*
X29412401Y-51506660D01*
X28604121Y-52046735D01*
X27916735Y-52734121D01*
X27376660Y-53542401D01*
X27004650Y-54440514D01*
X26815000Y-55393945D01*
X26085000Y-55393945D01*
X26085000Y-44920000D01*
X40471928Y-44920000D01*
X40471928Y-46520000D01*
X40484188Y-46644482D01*
X40520498Y-46764180D01*
X40579463Y-46874494D01*
X40658815Y-46971185D01*
X40755506Y-47050537D01*
X40865820Y-47109502D01*
X40985518Y-47145812D01*
X40993961Y-47146643D01*
X40795363Y-47345241D01*
X40638320Y-47580273D01*
X40530147Y-47841426D01*
X40475000Y-48118665D01*
X40475000Y-48401335D01*
X40530147Y-48678574D01*
X40638320Y-48939727D01*
X40795363Y-49174759D01*
X40995241Y-49374637D01*
X41227759Y-49530000D01*
X40995241Y-49685363D01*
X40795363Y-49885241D01*
X40638320Y-50120273D01*
X40530147Y-50381426D01*
X40475000Y-50658665D01*
X40475000Y-50941335D01*
X40530147Y-51218574D01*
X40638320Y-51479727D01*
X40795363Y-51714759D01*
X40995241Y-51914637D01*
X41229128Y-52070915D01*
X41168486Y-52103329D01*
X41096903Y-52347298D01*
X41910000Y-53160395D01*
X41924143Y-53146253D01*
X42103748Y-53325858D01*
X42089605Y-53340000D01*
X42902702Y-54153097D01*
X43146671Y-54081514D01*
X43267571Y-53826004D01*
X43336300Y-53551816D01*
X43349739Y-53279185D01*
X51016746Y-60946193D01*
X51039762Y-60974238D01*
X51151680Y-61066087D01*
X51279367Y-61134337D01*
X51417915Y-61176365D01*
X51525895Y-61187000D01*
X51525904Y-61187000D01*
X51561999Y-61190555D01*
X51598094Y-61187000D01*
X87365895Y-61187000D01*
X87402000Y-61190556D01*
X87438105Y-61187000D01*
X87546085Y-61176365D01*
X87684633Y-61134337D01*
X87812320Y-61066087D01*
X87924238Y-60974238D01*
X87947259Y-60946187D01*
X89634442Y-59259005D01*
X89710150Y-59299472D01*
X89876746Y-59350008D01*
X90050000Y-59367072D01*
X90850000Y-59367072D01*
X91023254Y-59350008D01*
X91189850Y-59299472D01*
X91343386Y-59217405D01*
X91477962Y-59106962D01*
X91588405Y-58972386D01*
X91670472Y-58818850D01*
X91721008Y-58652254D01*
X91738072Y-58479000D01*
X91738072Y-57155374D01*
X94280314Y-54613132D01*
X94125000Y-55393945D01*
X94125000Y-56366055D01*
X94314650Y-57319486D01*
X94686660Y-58217599D01*
X95226735Y-59025879D01*
X95914121Y-59713265D01*
X96722401Y-60253340D01*
X97620514Y-60625350D01*
X98573945Y-60815000D01*
X99546055Y-60815000D01*
X100499486Y-60625350D01*
X101397599Y-60253340D01*
X102205879Y-59713265D01*
X102893265Y-59025879D01*
X103433340Y-58217599D01*
X103805350Y-57319486D01*
X103995000Y-56366055D01*
X103995000Y-55393945D01*
X103805350Y-54440514D01*
X103433340Y-53542401D01*
X102893265Y-52734121D01*
X102205879Y-52046735D01*
X101397599Y-51506660D01*
X100499486Y-51134650D01*
X99546055Y-50945000D01*
X98573945Y-50945000D01*
X97793133Y-51100314D01*
X102666253Y-46227194D01*
X102666258Y-46227188D01*
X103003261Y-45890185D01*
X103072094Y-45806312D01*
X103140344Y-45678626D01*
X103182372Y-45540078D01*
X103196563Y-45395993D01*
X103183008Y-45258365D01*
X103183008Y-44146296D01*
X103341474Y-43987830D01*
X103369132Y-43965132D01*
X103391832Y-43937472D01*
X103611476Y-43717828D01*
X103639131Y-43695132D01*
X103666321Y-43662002D01*
X103709711Y-43609131D01*
X103729731Y-43584737D01*
X103797053Y-43458788D01*
X103838509Y-43322125D01*
X103849000Y-43215607D01*
X103849000Y-43215600D01*
X103852506Y-43180000D01*
X103849000Y-43144400D01*
X103849000Y-41516281D01*
X103976145Y-41490990D01*
X104137205Y-41424277D01*
X104282155Y-41327424D01*
X104405424Y-41204155D01*
X104502277Y-41059205D01*
X104568990Y-40898145D01*
X104603000Y-40727165D01*
X104603000Y-40552835D01*
X104568990Y-40381855D01*
X104502277Y-40220795D01*
X104443000Y-40132081D01*
X104443000Y-35657594D01*
X104446506Y-35621997D01*
X104443000Y-35586400D01*
X104443000Y-35586391D01*
X104432509Y-35479873D01*
X104391053Y-35343210D01*
X104323731Y-35217261D01*
X104310970Y-35201712D01*
X104255830Y-35134523D01*
X104255823Y-35134516D01*
X104233131Y-35106866D01*
X104205482Y-35084175D01*
X101971334Y-32850028D01*
X101948634Y-32822368D01*
X101838239Y-32731769D01*
X101712290Y-32664447D01*
X101653025Y-32646469D01*
X101598794Y-32601963D01*
X101488480Y-32542998D01*
X101368782Y-32506688D01*
X101244300Y-32494428D01*
X99644300Y-32494428D01*
X99519818Y-32506688D01*
X99400120Y-32542998D01*
X99289806Y-32601963D01*
X99193115Y-32681315D01*
X99113763Y-32778006D01*
X99054798Y-32888320D01*
X99018488Y-33008018D01*
X99006228Y-33132500D01*
X99006228Y-33542500D01*
X99017665Y-33658624D01*
X99009300Y-33735750D01*
X99052433Y-33778883D01*
X99054798Y-33786680D01*
X99113763Y-33896994D01*
X99175729Y-33972500D01*
X99113763Y-34048006D01*
X99054798Y-34158320D01*
X99052433Y-34166117D01*
X99009300Y-34209250D01*
X99010510Y-34220408D01*
X98650319Y-33860217D01*
X98681001Y-33786145D01*
X98715011Y-33615165D01*
X98715011Y-33440835D01*
X98681001Y-33269855D01*
X98614288Y-33108795D01*
X98517435Y-32963845D01*
X98394166Y-32840576D01*
X98249216Y-32743723D01*
X98088156Y-32677010D01*
X97917176Y-32643000D01*
X97742846Y-32643000D01*
X97571866Y-32677010D01*
X97410806Y-32743723D01*
X97265856Y-32840576D01*
X97175006Y-32931427D01*
X97084155Y-32840576D01*
X96939205Y-32743723D01*
X96778145Y-32677010D01*
X96607165Y-32643000D01*
X96432835Y-32643000D01*
X96358271Y-32657832D01*
X96290194Y-32601963D01*
X96179880Y-32542998D01*
X96060182Y-32506688D01*
X95935700Y-32494428D01*
X94335700Y-32494428D01*
X94211218Y-32506688D01*
X94091520Y-32542998D01*
X93981206Y-32601963D01*
X93968367Y-32612500D01*
X92174097Y-32612500D01*
X92138500Y-32608994D01*
X92102903Y-32612500D01*
X92102893Y-32612500D01*
X91996375Y-32622991D01*
X91930414Y-32643000D01*
X91860835Y-32643000D01*
X91689855Y-32677010D01*
X91657000Y-32690619D01*
X91657000Y-32326254D01*
X93647450Y-30335805D01*
X93752095Y-30314990D01*
X93913155Y-30248277D01*
X94058105Y-30151424D01*
X94181374Y-30028155D01*
X94278227Y-29883205D01*
X94344940Y-29722145D01*
X94378950Y-29551165D01*
X94378950Y-29376835D01*
X94344940Y-29205855D01*
X94278227Y-29044795D01*
X94181374Y-28899845D01*
X94058105Y-28776576D01*
X93913155Y-28679723D01*
X93888950Y-28669697D01*
X93888950Y-28505851D01*
X93854940Y-28334871D01*
X93818322Y-28246466D01*
X93891205Y-28216277D01*
X94036155Y-28119424D01*
X94159424Y-27996155D01*
X94256277Y-27851205D01*
X94322990Y-27690145D01*
X94357000Y-27519165D01*
X94357000Y-27344835D01*
X94322990Y-27173855D01*
X94256277Y-27012795D01*
X94191748Y-26916221D01*
X94238145Y-26906992D01*
X94399205Y-26840279D01*
X94544155Y-26743426D01*
X94667424Y-26620157D01*
X94728010Y-26529484D01*
X95226735Y-27275879D01*
X95914121Y-27963265D01*
X96722401Y-28503340D01*
X97620514Y-28875350D01*
X98573945Y-29065000D01*
X99546055Y-29065000D01*
X100499486Y-28875350D01*
X101397599Y-28503340D01*
X102205879Y-27963265D01*
X102893265Y-27275879D01*
X103433340Y-26467599D01*
X103805350Y-25569486D01*
X103995000Y-24616055D01*
X103995000Y-23643945D01*
X103805350Y-22690514D01*
X103433340Y-21792401D01*
X102893265Y-20984121D01*
X102205879Y-20296735D01*
X101397599Y-19756660D01*
X100499486Y-19384650D01*
X99546055Y-19195000D01*
X98573945Y-19195000D01*
X97620514Y-19384650D01*
X96722401Y-19756660D01*
X95914121Y-20296735D01*
X95226735Y-20984121D01*
X94686660Y-21792401D01*
X94314650Y-22690514D01*
X94125000Y-23643945D01*
X94125000Y-24616055D01*
X94242511Y-25206820D01*
X94238145Y-25205012D01*
X94067165Y-25171002D01*
X93892835Y-25171002D01*
X93721855Y-25205012D01*
X93560795Y-25271725D01*
X93415845Y-25368578D01*
X93292576Y-25491847D01*
X93195723Y-25636797D01*
X93129010Y-25797857D01*
X93108195Y-25902502D01*
X91460530Y-27550168D01*
X91460525Y-27550172D01*
X88920523Y-30090175D01*
X88892869Y-30112870D01*
X88870173Y-30140525D01*
X88870170Y-30140528D01*
X88802269Y-30223266D01*
X88734947Y-30349215D01*
X88706575Y-30442747D01*
X88699594Y-30465763D01*
X88693492Y-30485878D01*
X88679494Y-30628002D01*
X88683001Y-30663609D01*
X88683000Y-35782893D01*
X88576632Y-35676525D01*
X88333411Y-35514010D01*
X88063158Y-35402068D01*
X87776260Y-35345000D01*
X87483740Y-35345000D01*
X87196842Y-35402068D01*
X86926589Y-35514010D01*
X86683368Y-35676525D01*
X86551513Y-35808380D01*
X86529502Y-35735820D01*
X86470537Y-35625506D01*
X86391185Y-35528815D01*
X86294494Y-35449463D01*
X86184180Y-35390498D01*
X86064482Y-35354188D01*
X85940000Y-35341928D01*
X85375750Y-35345000D01*
X85217000Y-35503750D01*
X85217000Y-36703000D01*
X85237000Y-36703000D01*
X85237000Y-36957000D01*
X85217000Y-36957000D01*
X85217000Y-38156250D01*
X85375750Y-38315000D01*
X85940000Y-38318072D01*
X86064482Y-38305812D01*
X86184180Y-38269502D01*
X86294494Y-38210537D01*
X86391185Y-38131185D01*
X86470537Y-38034494D01*
X86529502Y-37924180D01*
X86551513Y-37851620D01*
X86683368Y-37983475D01*
X86895000Y-38124883D01*
X86895001Y-41365885D01*
X86891444Y-41402000D01*
X86905635Y-41546085D01*
X86928486Y-41621412D01*
X86947664Y-41684633D01*
X87015914Y-41812320D01*
X87024912Y-41823284D01*
X86926589Y-41864010D01*
X86683368Y-42026525D01*
X86551513Y-42158380D01*
X86529502Y-42085820D01*
X86470537Y-41975506D01*
X86391185Y-41878815D01*
X86294494Y-41799463D01*
X86184180Y-41740498D01*
X86064482Y-41704188D01*
X85940000Y-41691928D01*
X85375750Y-41695000D01*
X85217000Y-41853750D01*
X85217000Y-43053000D01*
X85237000Y-43053000D01*
X85237000Y-43307000D01*
X85217000Y-43307000D01*
X85217000Y-44506250D01*
X85375750Y-44665000D01*
X85940000Y-44668072D01*
X86064482Y-44655812D01*
X86184180Y-44619502D01*
X86294494Y-44560537D01*
X86391185Y-44481185D01*
X86470537Y-44384494D01*
X86529502Y-44274180D01*
X86551513Y-44201620D01*
X86683368Y-44333475D01*
X86926589Y-44495990D01*
X87196842Y-44607932D01*
X87483740Y-44665000D01*
X87776260Y-44665000D01*
X88025897Y-44615344D01*
X89354746Y-45944193D01*
X89377762Y-45972238D01*
X89489680Y-46064087D01*
X89617367Y-46132337D01*
X89755915Y-46174365D01*
X89900000Y-46188556D01*
X89936105Y-46185000D01*
X94721098Y-46185000D01*
X94850887Y-46224371D01*
X94990000Y-46238072D01*
X96290000Y-46238072D01*
X96429113Y-46224371D01*
X96562881Y-46183793D01*
X96686162Y-46117898D01*
X96794218Y-46029218D01*
X96809266Y-46010882D01*
X96825518Y-46015812D01*
X96950000Y-46028072D01*
X98630000Y-46028072D01*
X98754482Y-46015812D01*
X98770734Y-46010882D01*
X98785782Y-46029218D01*
X98893838Y-46117898D01*
X99017119Y-46183793D01*
X99150887Y-46224371D01*
X99290000Y-46238072D01*
X100042481Y-46238072D01*
X95707554Y-50573000D01*
X91738072Y-50573000D01*
X91738072Y-50233000D01*
X91721008Y-50059746D01*
X91670472Y-49893150D01*
X91588405Y-49739614D01*
X91477962Y-49605038D01*
X91343386Y-49494595D01*
X91189850Y-49412528D01*
X91023254Y-49361992D01*
X90850000Y-49344928D01*
X90050000Y-49344928D01*
X89876746Y-49361992D01*
X89710150Y-49412528D01*
X89556614Y-49494595D01*
X89422038Y-49605038D01*
X89311595Y-49739614D01*
X89229528Y-49893150D01*
X89178992Y-50059746D01*
X89161928Y-50233000D01*
X89161928Y-51556626D01*
X89055798Y-51662756D01*
X89027753Y-51685772D01*
X88935904Y-51797690D01*
X88873879Y-51913731D01*
X88867654Y-51925377D01*
X88825625Y-52063925D01*
X88811434Y-52208010D01*
X88814991Y-52244125D01*
X88814990Y-57228765D01*
X88638072Y-57405683D01*
X88638072Y-56329000D01*
X88621008Y-56155746D01*
X88570472Y-55989150D01*
X88488405Y-55835614D01*
X88377962Y-55701038D01*
X88243386Y-55590595D01*
X88235000Y-55586113D01*
X88235000Y-53125887D01*
X88243386Y-53121405D01*
X88377962Y-53010962D01*
X88488405Y-52876386D01*
X88570472Y-52722850D01*
X88621008Y-52556254D01*
X88638072Y-52383000D01*
X88638072Y-50233000D01*
X88621008Y-50059746D01*
X88570472Y-49893150D01*
X88488405Y-49739614D01*
X88377962Y-49605038D01*
X88243386Y-49494595D01*
X88089850Y-49412528D01*
X87923254Y-49361992D01*
X87750000Y-49344928D01*
X86950000Y-49344928D01*
X86776746Y-49361992D01*
X86610150Y-49412528D01*
X86456614Y-49494595D01*
X86368517Y-49566894D01*
X86358246Y-49565882D01*
X86271205Y-49507723D01*
X86110145Y-49441010D01*
X85939165Y-49407000D01*
X85764835Y-49407000D01*
X85593855Y-49441010D01*
X85432795Y-49507723D01*
X85287845Y-49604576D01*
X85164576Y-49727845D01*
X85067723Y-49872795D01*
X85001010Y-50033855D01*
X84967000Y-50204835D01*
X84967000Y-50379165D01*
X85001010Y-50550145D01*
X85067723Y-50711205D01*
X85164576Y-50856155D01*
X85287845Y-50979424D01*
X85432795Y-51076277D01*
X85593855Y-51142990D01*
X85764835Y-51177000D01*
X85939165Y-51177000D01*
X86061928Y-51152581D01*
X86061928Y-52383000D01*
X86078992Y-52556254D01*
X86129528Y-52722850D01*
X86211595Y-52876386D01*
X86322038Y-53010962D01*
X86456614Y-53121405D01*
X86465001Y-53125888D01*
X86465000Y-55586112D01*
X86456614Y-55590595D01*
X86322038Y-55701038D01*
X86211595Y-55835614D01*
X86129528Y-55989150D01*
X86078992Y-56155746D01*
X86061928Y-56329000D01*
X86061928Y-56519000D01*
X82619542Y-56519000D01*
X82624157Y-56511252D01*
X82721481Y-56236891D01*
X82600814Y-56007000D01*
X81407000Y-56007000D01*
X81407000Y-56027000D01*
X81153000Y-56027000D01*
X81153000Y-56007000D01*
X81133000Y-56007000D01*
X81133000Y-55753000D01*
X81153000Y-55753000D01*
X81153000Y-54559845D01*
X81407000Y-54559845D01*
X81407000Y-55753000D01*
X82600814Y-55753000D01*
X82721481Y-55523109D01*
X82624157Y-55248748D01*
X82475178Y-54998645D01*
X82280269Y-54782412D01*
X82046920Y-54608359D01*
X81784099Y-54483175D01*
X81636890Y-54438524D01*
X81407000Y-54559845D01*
X81153000Y-54559845D01*
X80923110Y-54438524D01*
X80775901Y-54483175D01*
X80513080Y-54608359D01*
X80279731Y-54782412D01*
X80203966Y-54866466D01*
X80179502Y-54785820D01*
X80120537Y-54675506D01*
X80041185Y-54578815D01*
X79944494Y-54499463D01*
X79834180Y-54440498D01*
X79714482Y-54404188D01*
X79590000Y-54391928D01*
X78503506Y-54391928D01*
X78127000Y-54015422D01*
X78127000Y-53125887D01*
X78135386Y-53121405D01*
X78269962Y-53010962D01*
X78380405Y-52876386D01*
X78462472Y-52722850D01*
X78513008Y-52556254D01*
X78530072Y-52383000D01*
X78530072Y-50233000D01*
X78513008Y-50059746D01*
X78462472Y-49893150D01*
X78380405Y-49739614D01*
X78269962Y-49605038D01*
X78135386Y-49494595D01*
X77981850Y-49412528D01*
X77815254Y-49361992D01*
X77642000Y-49344928D01*
X76842000Y-49344928D01*
X76668746Y-49361992D01*
X76502150Y-49412528D01*
X76348614Y-49494595D01*
X76214038Y-49605038D01*
X76103595Y-49739614D01*
X76021528Y-49893150D01*
X75970992Y-50059746D01*
X75953928Y-50233000D01*
X75953928Y-52383000D01*
X75970992Y-52556254D01*
X76021528Y-52722850D01*
X76103595Y-52876386D01*
X76214038Y-53010962D01*
X76348614Y-53121405D01*
X76357001Y-53125888D01*
X76357001Y-54338521D01*
X76352719Y-54382000D01*
X76369805Y-54555490D01*
X76420412Y-54722313D01*
X76502590Y-54876059D01*
X76585468Y-54977046D01*
X76585471Y-54977049D01*
X76613184Y-55010817D01*
X76646951Y-55038529D01*
X77251928Y-55643506D01*
X77251928Y-56116493D01*
X75833422Y-57535000D01*
X67676579Y-57535000D01*
X67498230Y-57356652D01*
X67743158Y-57307932D01*
X68013411Y-57195990D01*
X68256632Y-57033475D01*
X68463475Y-56826632D01*
X68585195Y-56644466D01*
X68654822Y-56761355D01*
X68849731Y-56977588D01*
X69083080Y-57151641D01*
X69345901Y-57276825D01*
X69493110Y-57321476D01*
X69723000Y-57200155D01*
X69723000Y-56007000D01*
X69977000Y-56007000D01*
X69977000Y-57200155D01*
X70206890Y-57321476D01*
X70354099Y-57276825D01*
X70616920Y-57151641D01*
X70850269Y-56977588D01*
X71045178Y-56761355D01*
X71194157Y-56511252D01*
X71291481Y-56236891D01*
X71170814Y-56007000D01*
X69977000Y-56007000D01*
X69723000Y-56007000D01*
X69703000Y-56007000D01*
X69703000Y-55753000D01*
X69723000Y-55753000D01*
X69723000Y-55733000D01*
X69977000Y-55733000D01*
X69977000Y-55753000D01*
X71170814Y-55753000D01*
X71291481Y-55523109D01*
X71194157Y-55248748D01*
X71045178Y-54998645D01*
X70850269Y-54782412D01*
X70620594Y-54611100D01*
X70796632Y-54493475D01*
X71003475Y-54286632D01*
X71144883Y-54075000D01*
X72073895Y-54075000D01*
X72110000Y-54078556D01*
X72146105Y-54075000D01*
X72254085Y-54064365D01*
X72392633Y-54022337D01*
X72520320Y-53954087D01*
X72632238Y-53862238D01*
X72655258Y-53834188D01*
X73326442Y-53163005D01*
X73402150Y-53203472D01*
X73568746Y-53254008D01*
X73742000Y-53271072D01*
X74542000Y-53271072D01*
X74715254Y-53254008D01*
X74881850Y-53203472D01*
X75035386Y-53121405D01*
X75169962Y-53010962D01*
X75280405Y-52876386D01*
X75362472Y-52722850D01*
X75413008Y-52556254D01*
X75430072Y-52383000D01*
X75430072Y-50233000D01*
X75413008Y-50059746D01*
X75362472Y-49893150D01*
X75280405Y-49739614D01*
X75169962Y-49605038D01*
X75035386Y-49494595D01*
X74881850Y-49412528D01*
X74715254Y-49361992D01*
X74542000Y-49344928D01*
X73742000Y-49344928D01*
X73568746Y-49361992D01*
X73402150Y-49412528D01*
X73248614Y-49494595D01*
X73114038Y-49605038D01*
X73003595Y-49739614D01*
X72921528Y-49893150D01*
X72870992Y-50059746D01*
X72853928Y-50233000D01*
X72853928Y-51556625D01*
X71805554Y-52605000D01*
X71144883Y-52605000D01*
X71003475Y-52393368D01*
X70796632Y-52186525D01*
X70553411Y-52024010D01*
X70283158Y-51912068D01*
X69996260Y-51855000D01*
X69703740Y-51855000D01*
X69454103Y-51904656D01*
X67855259Y-50305812D01*
X67832238Y-50277762D01*
X67765598Y-50223072D01*
X68446000Y-50223072D01*
X68619254Y-50206008D01*
X68785850Y-50155472D01*
X68939386Y-50073405D01*
X69073962Y-49962962D01*
X69184405Y-49828386D01*
X69266472Y-49674850D01*
X69317008Y-49508254D01*
X69334072Y-49335000D01*
X69334072Y-47185000D01*
X69857928Y-47185000D01*
X69857928Y-49335000D01*
X69874992Y-49508254D01*
X69925528Y-49674850D01*
X70007595Y-49828386D01*
X70118038Y-49962962D01*
X70252614Y-50073405D01*
X70406150Y-50155472D01*
X70572746Y-50206008D01*
X70746000Y-50223072D01*
X71546000Y-50223072D01*
X71719254Y-50206008D01*
X71885850Y-50155472D01*
X72039386Y-50073405D01*
X72173962Y-49962962D01*
X72284405Y-49828386D01*
X72366472Y-49674850D01*
X72417008Y-49508254D01*
X72434072Y-49335000D01*
X72434072Y-48995000D01*
X73623895Y-48995000D01*
X73660000Y-48998556D01*
X73696105Y-48995000D01*
X73804085Y-48984365D01*
X73942633Y-48942337D01*
X74070320Y-48874087D01*
X74182238Y-48782238D01*
X74205259Y-48754187D01*
X78929446Y-44030000D01*
X83601928Y-44030000D01*
X83614188Y-44154482D01*
X83650498Y-44274180D01*
X83709463Y-44384494D01*
X83788815Y-44481185D01*
X83885506Y-44560537D01*
X83995820Y-44619502D01*
X84115518Y-44655812D01*
X84240000Y-44668072D01*
X84804250Y-44665000D01*
X84963000Y-44506250D01*
X84963000Y-43307000D01*
X83763750Y-43307000D01*
X83605000Y-43465750D01*
X83601928Y-44030000D01*
X78929446Y-44030000D01*
X80629446Y-42330000D01*
X83601928Y-42330000D01*
X83605000Y-42894250D01*
X83763750Y-43053000D01*
X84963000Y-43053000D01*
X84963000Y-41853750D01*
X84804250Y-41695000D01*
X84240000Y-41691928D01*
X84115518Y-41704188D01*
X83995820Y-41740498D01*
X83885506Y-41799463D01*
X83788815Y-41878815D01*
X83709463Y-41975506D01*
X83650498Y-42085820D01*
X83614188Y-42205518D01*
X83601928Y-42330000D01*
X80629446Y-42330000D01*
X81774198Y-41185249D01*
X81802237Y-41162238D01*
X81825250Y-41134197D01*
X81825253Y-41134194D01*
X81894086Y-41050321D01*
X81894087Y-41050320D01*
X81962337Y-40922633D01*
X82004365Y-40784085D01*
X82015000Y-40676105D01*
X82015000Y-40676096D01*
X82018555Y-40640001D01*
X82015000Y-40603906D01*
X82015000Y-37680000D01*
X83601928Y-37680000D01*
X83614188Y-37804482D01*
X83650498Y-37924180D01*
X83709463Y-38034494D01*
X83788815Y-38131185D01*
X83885506Y-38210537D01*
X83995820Y-38269502D01*
X84115518Y-38305812D01*
X84240000Y-38318072D01*
X84804250Y-38315000D01*
X84963000Y-38156250D01*
X84963000Y-36957000D01*
X83763750Y-36957000D01*
X83605000Y-37115750D01*
X83601928Y-37680000D01*
X82015000Y-37680000D01*
X82015000Y-36880446D01*
X82915446Y-35980000D01*
X83601928Y-35980000D01*
X83605000Y-36544250D01*
X83763750Y-36703000D01*
X84963000Y-36703000D01*
X84963000Y-35503750D01*
X84804250Y-35345000D01*
X84240000Y-35341928D01*
X84115518Y-35354188D01*
X83995820Y-35390498D01*
X83885506Y-35449463D01*
X83788815Y-35528815D01*
X83709463Y-35625506D01*
X83650498Y-35735820D01*
X83614188Y-35855518D01*
X83601928Y-35980000D01*
X82915446Y-35980000D01*
X84499153Y-34396294D01*
X84586145Y-34378990D01*
X84747205Y-34312277D01*
X84892155Y-34215424D01*
X85015424Y-34092155D01*
X85112277Y-33947205D01*
X85178990Y-33786145D01*
X85213000Y-33615165D01*
X85213000Y-33440835D01*
X85178990Y-33269855D01*
X85112277Y-33108795D01*
X85015424Y-32963845D01*
X84892155Y-32840576D01*
X84747205Y-32743723D01*
X84586145Y-32677010D01*
X84415165Y-32643000D01*
X84240835Y-32643000D01*
X84069855Y-32677010D01*
X83908795Y-32743723D01*
X83763845Y-32840576D01*
X83640576Y-32963845D01*
X83543723Y-33108795D01*
X83477010Y-33269855D01*
X83459706Y-33356847D01*
X80785808Y-36030746D01*
X80757763Y-36053762D01*
X80665914Y-36165680D01*
X80629550Y-36233712D01*
X80597664Y-36293367D01*
X80555635Y-36431915D01*
X80541444Y-36576000D01*
X80545001Y-36612115D01*
X80545000Y-40335553D01*
X73355554Y-47525000D01*
X72434072Y-47525000D01*
X72434072Y-47185000D01*
X72417008Y-47011746D01*
X72366472Y-46845150D01*
X72284405Y-46691614D01*
X72173962Y-46557038D01*
X72039386Y-46446595D01*
X71885850Y-46364528D01*
X71719254Y-46313992D01*
X71546000Y-46296928D01*
X70746000Y-46296928D01*
X70572746Y-46313992D01*
X70406150Y-46364528D01*
X70252614Y-46446595D01*
X70118038Y-46557038D01*
X70007595Y-46691614D01*
X69925528Y-46845150D01*
X69874992Y-47011746D01*
X69857928Y-47185000D01*
X69334072Y-47185000D01*
X69317008Y-47011746D01*
X69266472Y-46845150D01*
X69184405Y-46691614D01*
X69073962Y-46557038D01*
X68939386Y-46446595D01*
X68785850Y-46364528D01*
X68619254Y-46313992D01*
X68446000Y-46296928D01*
X67646000Y-46296928D01*
X67472746Y-46313992D01*
X67306150Y-46364528D01*
X67152614Y-46446595D01*
X67018038Y-46557038D01*
X66907595Y-46691614D01*
X66825528Y-46845150D01*
X66774992Y-47011746D01*
X66757928Y-47185000D01*
X66757928Y-47525000D01*
X60955555Y-47525000D01*
X59895848Y-46465294D01*
X59878544Y-46378301D01*
X59811831Y-46217241D01*
X59714978Y-46072291D01*
X59591709Y-45949022D01*
X59446759Y-45852169D01*
X59285699Y-45785456D01*
X59114719Y-45751446D01*
X58940389Y-45751446D01*
X58769409Y-45785456D01*
X58608349Y-45852169D01*
X58588727Y-45865280D01*
X56795258Y-44071812D01*
X56772237Y-44043761D01*
X56660319Y-43951912D01*
X56532632Y-43883662D01*
X56394084Y-43841634D01*
X56286104Y-43830999D01*
X56249999Y-43827443D01*
X56213894Y-43830999D01*
X43100106Y-43830999D01*
X43064001Y-43827443D01*
X43027896Y-43830999D01*
X42919916Y-43841634D01*
X42781368Y-43883662D01*
X42653681Y-43951912D01*
X42541763Y-44043761D01*
X42518747Y-44071806D01*
X42308625Y-44281928D01*
X41110000Y-44281928D01*
X40985518Y-44294188D01*
X40865820Y-44330498D01*
X40755506Y-44389463D01*
X40658815Y-44468815D01*
X40579463Y-44565506D01*
X40520498Y-44675820D01*
X40484188Y-44795518D01*
X40471928Y-44920000D01*
X26085000Y-44920000D01*
X26085000Y-24156908D01*
X26125370Y-23643945D01*
X26815000Y-23643945D01*
X26815000Y-24616055D01*
X27004650Y-25569486D01*
X27376660Y-26467599D01*
X27916735Y-27275879D01*
X28604121Y-27963265D01*
X29412401Y-28503340D01*
X30310514Y-28875350D01*
X31263945Y-29065000D01*
X32236055Y-29065000D01*
X32415185Y-29029369D01*
X31509808Y-29934746D01*
X31481763Y-29957762D01*
X31389914Y-30069680D01*
X31366829Y-30112870D01*
X31321664Y-30197367D01*
X31279635Y-30335915D01*
X31265444Y-30480000D01*
X31269001Y-30516115D01*
X31269000Y-34413928D01*
X31046740Y-34413928D01*
X30923259Y-34312589D01*
X30769513Y-34230411D01*
X30602690Y-34179805D01*
X30472677Y-34167000D01*
X30472669Y-34167000D01*
X30429200Y-34162719D01*
X30385731Y-34167000D01*
X28360835Y-34167000D01*
X28317987Y-34175523D01*
X28274510Y-34179805D01*
X28232705Y-34192487D01*
X28189855Y-34201010D01*
X28149487Y-34217731D01*
X28107687Y-34230411D01*
X28069165Y-34251001D01*
X28028795Y-34267723D01*
X27992467Y-34291996D01*
X27953941Y-34312589D01*
X27920171Y-34340304D01*
X27883845Y-34364576D01*
X27852951Y-34395470D01*
X27819183Y-34423183D01*
X27791470Y-34456951D01*
X27760576Y-34487845D01*
X27736304Y-34524171D01*
X27708589Y-34557941D01*
X27687996Y-34596467D01*
X27663723Y-34632795D01*
X27647001Y-34673165D01*
X27626411Y-34711687D01*
X27613731Y-34753487D01*
X27597010Y-34793855D01*
X27588487Y-34836705D01*
X27575805Y-34878510D01*
X27571523Y-34921987D01*
X27563000Y-34964835D01*
X27563000Y-35008523D01*
X27558718Y-35052000D01*
X27563000Y-35095477D01*
X27563000Y-35139165D01*
X27571523Y-35182013D01*
X27575805Y-35225490D01*
X27588487Y-35267295D01*
X27597010Y-35310145D01*
X27613731Y-35350513D01*
X27626411Y-35392313D01*
X27647001Y-35430835D01*
X27663723Y-35471205D01*
X27687996Y-35507533D01*
X27708589Y-35546059D01*
X27736304Y-35579829D01*
X27760576Y-35616155D01*
X27791470Y-35647049D01*
X27819183Y-35680817D01*
X27852951Y-35708530D01*
X27883845Y-35739424D01*
X27920171Y-35763696D01*
X27953941Y-35791411D01*
X27992467Y-35812004D01*
X28028795Y-35836277D01*
X28069165Y-35852999D01*
X28107687Y-35873589D01*
X28149487Y-35886269D01*
X28189855Y-35902990D01*
X28232705Y-35911513D01*
X28274510Y-35924195D01*
X28317987Y-35928477D01*
X28360835Y-35937000D01*
X29451739Y-35937000D01*
X29466863Y-35965294D01*
X29499038Y-36004500D01*
X29466863Y-36043706D01*
X29407898Y-36154020D01*
X29371588Y-36273718D01*
X29359328Y-36398200D01*
X29359328Y-36957000D01*
X29371588Y-37081482D01*
X29407898Y-37201180D01*
X29466863Y-37311494D01*
X29499038Y-37350700D01*
X29466863Y-37389906D01*
X29407898Y-37500220D01*
X29371588Y-37619918D01*
X29359328Y-37744400D01*
X29359328Y-38303200D01*
X29371588Y-38427682D01*
X29407898Y-38547380D01*
X29466863Y-38657694D01*
X29499038Y-38696900D01*
X29466863Y-38736106D01*
X29407898Y-38846420D01*
X29371588Y-38966118D01*
X29359328Y-39090600D01*
X29359328Y-39649400D01*
X29371588Y-39773882D01*
X29407898Y-39893580D01*
X29466863Y-40003894D01*
X29499038Y-40043100D01*
X29466863Y-40082306D01*
X29407898Y-40192620D01*
X29371588Y-40312318D01*
X29359328Y-40436800D01*
X29359328Y-40995600D01*
X29371588Y-41120082D01*
X29407898Y-41239780D01*
X29466863Y-41350094D01*
X29499038Y-41389300D01*
X29466863Y-41428506D01*
X29407898Y-41538820D01*
X29371588Y-41658518D01*
X29359328Y-41783000D01*
X29359328Y-42341800D01*
X29371588Y-42466282D01*
X29407898Y-42585980D01*
X29466863Y-42696294D01*
X29499038Y-42735500D01*
X29466863Y-42774706D01*
X29407898Y-42885020D01*
X29371588Y-43004718D01*
X29359328Y-43129200D01*
X29359328Y-43688000D01*
X29371588Y-43812482D01*
X29407898Y-43932180D01*
X29466863Y-44042494D01*
X29546215Y-44139185D01*
X29642906Y-44218537D01*
X29753220Y-44277502D01*
X29872918Y-44313812D01*
X29997400Y-44326072D01*
X31419800Y-44326072D01*
X31544282Y-44313812D01*
X31663980Y-44277502D01*
X31774294Y-44218537D01*
X31870985Y-44139185D01*
X31916948Y-44083178D01*
X32030120Y-44022687D01*
X32142038Y-43930838D01*
X32165059Y-43902787D01*
X34720200Y-41347646D01*
X36522128Y-43149575D01*
X36522128Y-43688000D01*
X36534388Y-43812482D01*
X36570698Y-43932180D01*
X36629663Y-44042494D01*
X36709015Y-44139185D01*
X36805706Y-44218537D01*
X36916020Y-44277502D01*
X37035718Y-44313812D01*
X37160200Y-44326072D01*
X38582600Y-44326072D01*
X38707082Y-44313812D01*
X38826780Y-44277502D01*
X38937094Y-44218537D01*
X39033785Y-44139185D01*
X39113137Y-44042494D01*
X39172102Y-43932180D01*
X39208412Y-43812482D01*
X39220672Y-43688000D01*
X39220672Y-43129200D01*
X39208412Y-43004718D01*
X39172102Y-42885020D01*
X39113137Y-42774706D01*
X39080962Y-42735500D01*
X39113137Y-42696294D01*
X39172102Y-42585980D01*
X39208412Y-42466282D01*
X39220672Y-42341800D01*
X39220672Y-41783000D01*
X39208412Y-41658518D01*
X39172102Y-41538820D01*
X39113137Y-41428506D01*
X39080962Y-41389300D01*
X39113137Y-41350094D01*
X39172102Y-41239780D01*
X39208412Y-41120082D01*
X39220672Y-40995600D01*
X39220672Y-40436800D01*
X39208412Y-40312318D01*
X39172102Y-40192620D01*
X39125267Y-40105000D01*
X58383895Y-40105000D01*
X58420000Y-40108556D01*
X58456105Y-40105000D01*
X58564085Y-40094365D01*
X58702633Y-40052337D01*
X58830320Y-39984087D01*
X58942238Y-39892238D01*
X58965259Y-39864187D01*
X61834103Y-36995344D01*
X62083740Y-37045000D01*
X62376260Y-37045000D01*
X62663158Y-36987932D01*
X62933411Y-36875990D01*
X63176632Y-36713475D01*
X63383475Y-36506632D01*
X63448042Y-36410000D01*
X68361928Y-36410000D01*
X68374188Y-36534482D01*
X68410498Y-36654180D01*
X68469463Y-36764494D01*
X68548815Y-36861185D01*
X68645506Y-36940537D01*
X68755820Y-36999502D01*
X68875518Y-37035812D01*
X69000000Y-37048072D01*
X69564250Y-37045000D01*
X69723000Y-36886250D01*
X69723000Y-35687000D01*
X68523750Y-35687000D01*
X68365000Y-35845750D01*
X68361928Y-36410000D01*
X63448042Y-36410000D01*
X63545990Y-36263411D01*
X63657932Y-35993158D01*
X63715000Y-35706260D01*
X63715000Y-35413740D01*
X63657932Y-35126842D01*
X63643085Y-35090999D01*
X68364002Y-35090999D01*
X68365000Y-35274250D01*
X68523750Y-35433000D01*
X69723000Y-35433000D01*
X69723000Y-35413000D01*
X69977000Y-35413000D01*
X69977000Y-35433000D01*
X69997000Y-35433000D01*
X69997000Y-35687000D01*
X69977000Y-35687000D01*
X69977000Y-36886250D01*
X70135750Y-37045000D01*
X70700000Y-37048072D01*
X70824482Y-37035812D01*
X70944180Y-36999502D01*
X71054494Y-36940537D01*
X71151185Y-36861185D01*
X71230537Y-36764494D01*
X71289502Y-36654180D01*
X71311513Y-36581620D01*
X71443368Y-36713475D01*
X71686589Y-36875990D01*
X71956842Y-36987932D01*
X72243740Y-37045000D01*
X72536260Y-37045000D01*
X72823158Y-36987932D01*
X73093411Y-36875990D01*
X73336632Y-36713475D01*
X73543475Y-36506632D01*
X73660000Y-36332240D01*
X73776525Y-36506632D01*
X73983368Y-36713475D01*
X74226589Y-36875990D01*
X74496842Y-36987932D01*
X74783740Y-37045000D01*
X75076260Y-37045000D01*
X75363158Y-36987932D01*
X75633411Y-36875990D01*
X75876632Y-36713475D01*
X76083475Y-36506632D01*
X76245990Y-36263411D01*
X76357932Y-35993158D01*
X76415000Y-35706260D01*
X76415000Y-35413740D01*
X76357932Y-35126842D01*
X76245990Y-34856589D01*
X76083475Y-34613368D01*
X75876632Y-34406525D01*
X75633411Y-34244010D01*
X75363158Y-34132068D01*
X75076260Y-34075000D01*
X74783740Y-34075000D01*
X74534103Y-34124656D01*
X74271257Y-33861811D01*
X74248237Y-33833761D01*
X74136319Y-33741912D01*
X74008632Y-33673662D01*
X73870084Y-33631634D01*
X73762104Y-33620999D01*
X73725999Y-33617443D01*
X73689894Y-33620999D01*
X61842093Y-33620999D01*
X61805998Y-33617444D01*
X61769903Y-33620999D01*
X61769894Y-33620999D01*
X61661914Y-33631634D01*
X61523366Y-33673662D01*
X61395679Y-33741912D01*
X61283761Y-33833761D01*
X61260745Y-33861806D01*
X60676329Y-34446222D01*
X60636632Y-34406525D01*
X60393411Y-34244010D01*
X60123158Y-34132068D01*
X59836260Y-34075000D01*
X59543740Y-34075000D01*
X59256842Y-34132068D01*
X58986589Y-34244010D01*
X58743368Y-34406525D01*
X58611513Y-34538380D01*
X58589502Y-34465820D01*
X58530537Y-34355506D01*
X58451185Y-34258815D01*
X58354494Y-34179463D01*
X58244180Y-34120498D01*
X58124482Y-34084188D01*
X58000000Y-34071928D01*
X57435750Y-34075000D01*
X57277000Y-34233750D01*
X57277000Y-35433000D01*
X57297000Y-35433000D01*
X57297000Y-35687000D01*
X57277000Y-35687000D01*
X57277000Y-36886250D01*
X57435750Y-37045000D01*
X58000000Y-37048072D01*
X58124482Y-37035812D01*
X58244180Y-36999502D01*
X58354494Y-36940537D01*
X58451185Y-36861185D01*
X58530537Y-36764494D01*
X58589502Y-36654180D01*
X58611513Y-36581620D01*
X58743368Y-36713475D01*
X58972188Y-36866368D01*
X58549756Y-37288800D01*
X39977601Y-37288800D01*
X40001000Y-37171165D01*
X40001000Y-36996835D01*
X39966990Y-36825855D01*
X39900277Y-36664795D01*
X39803424Y-36519845D01*
X39693579Y-36410000D01*
X42961928Y-36410000D01*
X42974188Y-36534482D01*
X43010498Y-36654180D01*
X43069463Y-36764494D01*
X43148815Y-36861185D01*
X43245506Y-36940537D01*
X43355820Y-36999502D01*
X43475518Y-37035812D01*
X43600000Y-37048072D01*
X44164250Y-37045000D01*
X44323000Y-36886250D01*
X44323000Y-35687000D01*
X43123750Y-35687000D01*
X42965000Y-35845750D01*
X42961928Y-36410000D01*
X39693579Y-36410000D01*
X39680155Y-36396576D01*
X39535205Y-36299723D01*
X39374145Y-36233010D01*
X39287152Y-36215706D01*
X39254859Y-36183413D01*
X39231838Y-36155362D01*
X39126697Y-36069075D01*
X39113137Y-36043706D01*
X39080962Y-36004500D01*
X39113137Y-35965294D01*
X39172102Y-35854980D01*
X39208412Y-35735282D01*
X39220672Y-35610800D01*
X39220672Y-35052000D01*
X39208412Y-34927518D01*
X39172102Y-34807820D01*
X39119816Y-34710000D01*
X42961928Y-34710000D01*
X42965000Y-35274250D01*
X43123750Y-35433000D01*
X44323000Y-35433000D01*
X44323000Y-34233750D01*
X44164250Y-34075000D01*
X43600000Y-34071928D01*
X43475518Y-34084188D01*
X43355820Y-34120498D01*
X43245506Y-34179463D01*
X43148815Y-34258815D01*
X43069463Y-34355506D01*
X43010498Y-34465820D01*
X42974188Y-34585518D01*
X42961928Y-34710000D01*
X39119816Y-34710000D01*
X39113137Y-34697506D01*
X39033785Y-34600815D01*
X38937094Y-34521463D01*
X38826780Y-34462498D01*
X38707082Y-34426188D01*
X38582600Y-34413928D01*
X37160200Y-34413928D01*
X37035718Y-34426188D01*
X36916020Y-34462498D01*
X36805706Y-34521463D01*
X36803000Y-34523684D01*
X36803000Y-33832446D01*
X37862417Y-32773030D01*
X45703584Y-32773030D01*
X47005554Y-34075000D01*
X46843740Y-34075000D01*
X46556842Y-34132068D01*
X46286589Y-34244010D01*
X46043368Y-34406525D01*
X45911513Y-34538380D01*
X45889502Y-34465820D01*
X45830537Y-34355506D01*
X45751185Y-34258815D01*
X45654494Y-34179463D01*
X45544180Y-34120498D01*
X45424482Y-34084188D01*
X45300000Y-34071928D01*
X44735750Y-34075000D01*
X44577000Y-34233750D01*
X44577000Y-35433000D01*
X44597000Y-35433000D01*
X44597000Y-35687000D01*
X44577000Y-35687000D01*
X44577000Y-36886250D01*
X44735750Y-37045000D01*
X45300000Y-37048072D01*
X45424482Y-37035812D01*
X45544180Y-36999502D01*
X45654494Y-36940537D01*
X45751185Y-36861185D01*
X45830537Y-36764494D01*
X45889502Y-36654180D01*
X45911513Y-36581620D01*
X46043368Y-36713475D01*
X46286589Y-36875990D01*
X46556842Y-36987932D01*
X46843740Y-37045000D01*
X47136260Y-37045000D01*
X47423158Y-36987932D01*
X47693411Y-36875990D01*
X47936632Y-36713475D01*
X48143475Y-36506632D01*
X48260000Y-36332240D01*
X48376525Y-36506632D01*
X48583368Y-36713475D01*
X48826589Y-36875990D01*
X49096842Y-36987932D01*
X49383740Y-37045000D01*
X49676260Y-37045000D01*
X49963158Y-36987932D01*
X50233411Y-36875990D01*
X50476632Y-36713475D01*
X50683475Y-36506632D01*
X50748042Y-36410000D01*
X55661928Y-36410000D01*
X55674188Y-36534482D01*
X55710498Y-36654180D01*
X55769463Y-36764494D01*
X55848815Y-36861185D01*
X55945506Y-36940537D01*
X56055820Y-36999502D01*
X56175518Y-37035812D01*
X56300000Y-37048072D01*
X56864250Y-37045000D01*
X57023000Y-36886250D01*
X57023000Y-35687000D01*
X55823750Y-35687000D01*
X55665000Y-35845750D01*
X55661928Y-36410000D01*
X50748042Y-36410000D01*
X50845990Y-36263411D01*
X50957932Y-35993158D01*
X51015000Y-35706260D01*
X51015000Y-35413740D01*
X50957932Y-35126842D01*
X50845990Y-34856589D01*
X50748043Y-34710000D01*
X55661928Y-34710000D01*
X55665000Y-35274250D01*
X55823750Y-35433000D01*
X57023000Y-35433000D01*
X57023000Y-34233750D01*
X56864250Y-34075000D01*
X56300000Y-34071928D01*
X56175518Y-34084188D01*
X56055820Y-34120498D01*
X55945506Y-34179463D01*
X55848815Y-34258815D01*
X55769463Y-34355506D01*
X55710498Y-34465820D01*
X55674188Y-34585518D01*
X55661928Y-34710000D01*
X50748043Y-34710000D01*
X50683475Y-34613368D01*
X50476632Y-34406525D01*
X50233411Y-34244010D01*
X49963158Y-34132068D01*
X49676260Y-34075000D01*
X49383740Y-34075000D01*
X49134103Y-34124656D01*
X47432466Y-32423020D01*
X85115875Y-32423020D01*
X85151980Y-32426576D01*
X85188085Y-32423020D01*
X85296065Y-32412385D01*
X85434613Y-32370357D01*
X85562300Y-32302107D01*
X85674218Y-32210258D01*
X85697239Y-32182208D01*
X87234103Y-30645344D01*
X87483740Y-30695000D01*
X87776260Y-30695000D01*
X88063158Y-30637932D01*
X88333411Y-30525990D01*
X88576632Y-30363475D01*
X88783475Y-30156632D01*
X88945990Y-29913411D01*
X89057932Y-29643158D01*
X89115000Y-29356260D01*
X89115000Y-29063740D01*
X89057932Y-28776842D01*
X88945990Y-28506589D01*
X88783475Y-28263368D01*
X88576632Y-28056525D01*
X88333411Y-27894010D01*
X88063158Y-27782068D01*
X87776260Y-27725000D01*
X87483740Y-27725000D01*
X87196842Y-27782068D01*
X86926589Y-27894010D01*
X86683368Y-28056525D01*
X86476525Y-28263368D01*
X86360000Y-28437760D01*
X86243475Y-28263368D01*
X86036632Y-28056525D01*
X85793411Y-27894010D01*
X85523158Y-27782068D01*
X85236260Y-27725000D01*
X84943740Y-27725000D01*
X84656842Y-27782068D01*
X84386589Y-27894010D01*
X84143368Y-28056525D01*
X84011513Y-28188380D01*
X83989502Y-28115820D01*
X83930537Y-28005506D01*
X83851185Y-27908815D01*
X83754494Y-27829463D01*
X83644180Y-27770498D01*
X83524482Y-27734188D01*
X83400000Y-27721928D01*
X82835750Y-27725000D01*
X82677000Y-27883750D01*
X82677000Y-29083000D01*
X82697000Y-29083000D01*
X82697000Y-29337000D01*
X82677000Y-29337000D01*
X82677000Y-30536250D01*
X82835750Y-30695000D01*
X83400000Y-30698072D01*
X83524482Y-30685812D01*
X83644180Y-30649502D01*
X83754494Y-30590537D01*
X83851185Y-30511185D01*
X83930537Y-30414494D01*
X83989502Y-30304180D01*
X84011513Y-30231620D01*
X84143368Y-30363475D01*
X84386589Y-30525990D01*
X84656842Y-30637932D01*
X84943740Y-30695000D01*
X85105554Y-30695000D01*
X84847534Y-30953020D01*
X74226426Y-30953020D01*
X74534103Y-30645344D01*
X74783740Y-30695000D01*
X75076260Y-30695000D01*
X75363158Y-30637932D01*
X75633411Y-30525990D01*
X75876632Y-30363475D01*
X76083475Y-30156632D01*
X76148042Y-30060000D01*
X81061928Y-30060000D01*
X81074188Y-30184482D01*
X81110498Y-30304180D01*
X81169463Y-30414494D01*
X81248815Y-30511185D01*
X81345506Y-30590537D01*
X81455820Y-30649502D01*
X81575518Y-30685812D01*
X81700000Y-30698072D01*
X82264250Y-30695000D01*
X82423000Y-30536250D01*
X82423000Y-29337000D01*
X81223750Y-29337000D01*
X81065000Y-29495750D01*
X81061928Y-30060000D01*
X76148042Y-30060000D01*
X76245990Y-29913411D01*
X76357932Y-29643158D01*
X76415000Y-29356260D01*
X76415000Y-29063740D01*
X76357932Y-28776842D01*
X76245990Y-28506589D01*
X76148043Y-28360000D01*
X81061928Y-28360000D01*
X81065000Y-28924250D01*
X81223750Y-29083000D01*
X82423000Y-29083000D01*
X82423000Y-27883750D01*
X82264250Y-27725000D01*
X81700000Y-27721928D01*
X81575518Y-27734188D01*
X81455820Y-27770498D01*
X81345506Y-27829463D01*
X81248815Y-27908815D01*
X81169463Y-28005506D01*
X81110498Y-28115820D01*
X81074188Y-28235518D01*
X81061928Y-28360000D01*
X76148043Y-28360000D01*
X76083475Y-28263368D01*
X75876632Y-28056525D01*
X75633411Y-27894010D01*
X75363158Y-27782068D01*
X75076260Y-27725000D01*
X74783740Y-27725000D01*
X74496842Y-27782068D01*
X74226589Y-27894010D01*
X73983368Y-28056525D01*
X73776525Y-28263368D01*
X73660000Y-28437760D01*
X73543475Y-28263368D01*
X73336632Y-28056525D01*
X73093411Y-27894010D01*
X72823158Y-27782068D01*
X72536260Y-27725000D01*
X72243740Y-27725000D01*
X71956842Y-27782068D01*
X71686589Y-27894010D01*
X71443368Y-28056525D01*
X71311513Y-28188380D01*
X71289502Y-28115820D01*
X71230537Y-28005506D01*
X71151185Y-27908815D01*
X71054494Y-27829463D01*
X70944180Y-27770498D01*
X70824482Y-27734188D01*
X70700000Y-27721928D01*
X70135750Y-27725000D01*
X69977000Y-27883750D01*
X69977000Y-29083000D01*
X69997000Y-29083000D01*
X69997000Y-29337000D01*
X69977000Y-29337000D01*
X69977000Y-29357000D01*
X69723000Y-29357000D01*
X69723000Y-29337000D01*
X68523750Y-29337000D01*
X68365000Y-29495750D01*
X68361928Y-30060000D01*
X68374188Y-30184482D01*
X68410498Y-30304180D01*
X68469463Y-30414494D01*
X68548815Y-30511185D01*
X68645506Y-30590537D01*
X68668841Y-30603010D01*
X62747468Y-30603010D01*
X62933411Y-30525990D01*
X63176632Y-30363475D01*
X63383475Y-30156632D01*
X63545990Y-29913411D01*
X63657932Y-29643158D01*
X63715000Y-29356260D01*
X63715000Y-29063740D01*
X63657932Y-28776842D01*
X63545990Y-28506589D01*
X63448043Y-28360000D01*
X68361928Y-28360000D01*
X68365000Y-28924250D01*
X68523750Y-29083000D01*
X69723000Y-29083000D01*
X69723000Y-27883750D01*
X69564250Y-27725000D01*
X69000000Y-27721928D01*
X68875518Y-27734188D01*
X68755820Y-27770498D01*
X68645506Y-27829463D01*
X68548815Y-27908815D01*
X68469463Y-28005506D01*
X68410498Y-28115820D01*
X68374188Y-28235518D01*
X68361928Y-28360000D01*
X63448043Y-28360000D01*
X63383475Y-28263368D01*
X63176632Y-28056525D01*
X62933411Y-27894010D01*
X62663158Y-27782068D01*
X62376260Y-27725000D01*
X62083740Y-27725000D01*
X61796842Y-27782068D01*
X61526589Y-27894010D01*
X61283368Y-28056525D01*
X61076525Y-28263368D01*
X60960000Y-28437760D01*
X60843475Y-28263368D01*
X60636632Y-28056525D01*
X60393411Y-27894010D01*
X60123158Y-27782068D01*
X59836260Y-27725000D01*
X59543740Y-27725000D01*
X59256842Y-27782068D01*
X58986589Y-27894010D01*
X58743368Y-28056525D01*
X58611513Y-28188380D01*
X58589502Y-28115820D01*
X58530537Y-28005506D01*
X58451185Y-27908815D01*
X58354494Y-27829463D01*
X58244180Y-27770498D01*
X58124482Y-27734188D01*
X58000000Y-27721928D01*
X57435750Y-27725000D01*
X57277000Y-27883750D01*
X57277000Y-29083000D01*
X57297000Y-29083000D01*
X57297000Y-29337000D01*
X57277000Y-29337000D01*
X57277000Y-29357000D01*
X57023000Y-29357000D01*
X57023000Y-29337000D01*
X55823750Y-29337000D01*
X55665000Y-29495750D01*
X55661928Y-30060000D01*
X55674188Y-30184482D01*
X55694973Y-30253000D01*
X50587107Y-30253000D01*
X50683475Y-30156632D01*
X50845990Y-29913411D01*
X50957932Y-29643158D01*
X51015000Y-29356260D01*
X51015000Y-29063740D01*
X50957932Y-28776842D01*
X50845990Y-28506589D01*
X50748043Y-28360000D01*
X55661928Y-28360000D01*
X55665000Y-28924250D01*
X55823750Y-29083000D01*
X57023000Y-29083000D01*
X57023000Y-27883750D01*
X56864250Y-27725000D01*
X56300000Y-27721928D01*
X56175518Y-27734188D01*
X56055820Y-27770498D01*
X55945506Y-27829463D01*
X55848815Y-27908815D01*
X55769463Y-28005506D01*
X55710498Y-28115820D01*
X55674188Y-28235518D01*
X55661928Y-28360000D01*
X50748043Y-28360000D01*
X50683475Y-28263368D01*
X50476632Y-28056525D01*
X50233411Y-27894010D01*
X49963158Y-27782068D01*
X49676260Y-27725000D01*
X49383740Y-27725000D01*
X49134103Y-27774656D01*
X48036476Y-26677030D01*
X84511865Y-26677030D01*
X84547970Y-26680586D01*
X84584075Y-26677030D01*
X84692055Y-26666395D01*
X84830603Y-26624367D01*
X84958290Y-26556117D01*
X85070208Y-26464268D01*
X85093229Y-26436217D01*
X87234103Y-24295344D01*
X87483740Y-24345000D01*
X87776260Y-24345000D01*
X88063158Y-24287932D01*
X88333411Y-24175990D01*
X88576632Y-24013475D01*
X88783475Y-23806632D01*
X88945990Y-23563411D01*
X89057932Y-23293158D01*
X89115000Y-23006260D01*
X89115000Y-22713740D01*
X89057932Y-22426842D01*
X88945990Y-22156589D01*
X88783475Y-21913368D01*
X88576632Y-21706525D01*
X88333411Y-21544010D01*
X88063158Y-21432068D01*
X87776260Y-21375000D01*
X87483740Y-21375000D01*
X87196842Y-21432068D01*
X86926589Y-21544010D01*
X86683368Y-21706525D01*
X86476525Y-21913368D01*
X86360000Y-22087760D01*
X86243475Y-21913368D01*
X86036632Y-21706525D01*
X85793411Y-21544010D01*
X85523158Y-21432068D01*
X85236260Y-21375000D01*
X84943740Y-21375000D01*
X84656842Y-21432068D01*
X84386589Y-21544010D01*
X84143368Y-21706525D01*
X84011513Y-21838380D01*
X83989502Y-21765820D01*
X83930537Y-21655506D01*
X83851185Y-21558815D01*
X83754494Y-21479463D01*
X83644180Y-21420498D01*
X83524482Y-21384188D01*
X83400000Y-21371928D01*
X82835750Y-21375000D01*
X82677000Y-21533750D01*
X82677000Y-22733000D01*
X82697000Y-22733000D01*
X82697000Y-22987000D01*
X82677000Y-22987000D01*
X82677000Y-24186250D01*
X82835750Y-24345000D01*
X83400000Y-24348072D01*
X83524482Y-24335812D01*
X83644180Y-24299502D01*
X83754494Y-24240537D01*
X83851185Y-24161185D01*
X83930537Y-24064494D01*
X83989502Y-23954180D01*
X84011513Y-23881620D01*
X84143368Y-24013475D01*
X84386589Y-24175990D01*
X84656842Y-24287932D01*
X84943740Y-24345000D01*
X85105554Y-24345000D01*
X84243524Y-25207030D01*
X73622416Y-25207030D01*
X74534103Y-24295344D01*
X74783740Y-24345000D01*
X75076260Y-24345000D01*
X75363158Y-24287932D01*
X75633411Y-24175990D01*
X75876632Y-24013475D01*
X76083475Y-23806632D01*
X76148042Y-23710000D01*
X81061928Y-23710000D01*
X81074188Y-23834482D01*
X81110498Y-23954180D01*
X81169463Y-24064494D01*
X81248815Y-24161185D01*
X81345506Y-24240537D01*
X81455820Y-24299502D01*
X81575518Y-24335812D01*
X81700000Y-24348072D01*
X82264250Y-24345000D01*
X82423000Y-24186250D01*
X82423000Y-22987000D01*
X81223750Y-22987000D01*
X81065000Y-23145750D01*
X81061928Y-23710000D01*
X76148042Y-23710000D01*
X76245990Y-23563411D01*
X76357932Y-23293158D01*
X76415000Y-23006260D01*
X76415000Y-22713740D01*
X76357932Y-22426842D01*
X76245990Y-22156589D01*
X76148043Y-22010000D01*
X81061928Y-22010000D01*
X81065000Y-22574250D01*
X81223750Y-22733000D01*
X82423000Y-22733000D01*
X82423000Y-21533750D01*
X82264250Y-21375000D01*
X81700000Y-21371928D01*
X81575518Y-21384188D01*
X81455820Y-21420498D01*
X81345506Y-21479463D01*
X81248815Y-21558815D01*
X81169463Y-21655506D01*
X81110498Y-21765820D01*
X81074188Y-21885518D01*
X81061928Y-22010000D01*
X76148043Y-22010000D01*
X76083475Y-21913368D01*
X75876632Y-21706525D01*
X75633411Y-21544010D01*
X75363158Y-21432068D01*
X75076260Y-21375000D01*
X74783740Y-21375000D01*
X74496842Y-21432068D01*
X74226589Y-21544010D01*
X73983368Y-21706525D01*
X73776525Y-21913368D01*
X73660000Y-22087760D01*
X73543475Y-21913368D01*
X73336632Y-21706525D01*
X73093411Y-21544010D01*
X72823158Y-21432068D01*
X72536260Y-21375000D01*
X72243740Y-21375000D01*
X71956842Y-21432068D01*
X71686589Y-21544010D01*
X71443368Y-21706525D01*
X71311513Y-21838380D01*
X71289502Y-21765820D01*
X71230537Y-21655506D01*
X71151185Y-21558815D01*
X71054494Y-21479463D01*
X70944180Y-21420498D01*
X70824482Y-21384188D01*
X70700000Y-21371928D01*
X70135750Y-21375000D01*
X69977000Y-21533750D01*
X69977000Y-22733000D01*
X69997000Y-22733000D01*
X69997000Y-22987000D01*
X69977000Y-22987000D01*
X69977000Y-24186250D01*
X70135750Y-24345000D01*
X70700000Y-24348072D01*
X70824482Y-24335812D01*
X70944180Y-24299502D01*
X71054494Y-24240537D01*
X71151185Y-24161185D01*
X71230537Y-24064494D01*
X71289502Y-23954180D01*
X71311513Y-23881620D01*
X71443368Y-24013475D01*
X71686589Y-24175990D01*
X71956842Y-24287932D01*
X72243740Y-24345000D01*
X72405554Y-24345000D01*
X71893534Y-24857020D01*
X61272426Y-24857020D01*
X61834103Y-24295344D01*
X62083740Y-24345000D01*
X62376260Y-24345000D01*
X62663158Y-24287932D01*
X62933411Y-24175990D01*
X63176632Y-24013475D01*
X63383475Y-23806632D01*
X63448042Y-23710000D01*
X68361928Y-23710000D01*
X68374188Y-23834482D01*
X68410498Y-23954180D01*
X68469463Y-24064494D01*
X68548815Y-24161185D01*
X68645506Y-24240537D01*
X68755820Y-24299502D01*
X68875518Y-24335812D01*
X69000000Y-24348072D01*
X69564250Y-24345000D01*
X69723000Y-24186250D01*
X69723000Y-22987000D01*
X68523750Y-22987000D01*
X68365000Y-23145750D01*
X68361928Y-23710000D01*
X63448042Y-23710000D01*
X63545990Y-23563411D01*
X63657932Y-23293158D01*
X63715000Y-23006260D01*
X63715000Y-22713740D01*
X63657932Y-22426842D01*
X63545990Y-22156589D01*
X63448043Y-22010000D01*
X68361928Y-22010000D01*
X68365000Y-22574250D01*
X68523750Y-22733000D01*
X69723000Y-22733000D01*
X69723000Y-21533750D01*
X69564250Y-21375000D01*
X69000000Y-21371928D01*
X68875518Y-21384188D01*
X68755820Y-21420498D01*
X68645506Y-21479463D01*
X68548815Y-21558815D01*
X68469463Y-21655506D01*
X68410498Y-21765820D01*
X68374188Y-21885518D01*
X68361928Y-22010000D01*
X63448043Y-22010000D01*
X63383475Y-21913368D01*
X63176632Y-21706525D01*
X62933411Y-21544010D01*
X62663158Y-21432068D01*
X62376260Y-21375000D01*
X62083740Y-21375000D01*
X61796842Y-21432068D01*
X61526589Y-21544010D01*
X61283368Y-21706525D01*
X61076525Y-21913368D01*
X60960000Y-22087760D01*
X60843475Y-21913368D01*
X60636632Y-21706525D01*
X60393411Y-21544010D01*
X60123158Y-21432068D01*
X59836260Y-21375000D01*
X59543740Y-21375000D01*
X59256842Y-21432068D01*
X58986589Y-21544010D01*
X58743368Y-21706525D01*
X58611513Y-21838380D01*
X58589502Y-21765820D01*
X58530537Y-21655506D01*
X58451185Y-21558815D01*
X58354494Y-21479463D01*
X58244180Y-21420498D01*
X58124482Y-21384188D01*
X58000000Y-21371928D01*
X57435750Y-21375000D01*
X57277000Y-21533750D01*
X57277000Y-22733000D01*
X57297000Y-22733000D01*
X57297000Y-22987000D01*
X57277000Y-22987000D01*
X57277000Y-24186250D01*
X57435750Y-24345000D01*
X58000000Y-24348072D01*
X58124482Y-24335812D01*
X58244180Y-24299502D01*
X58354494Y-24240537D01*
X58451185Y-24161185D01*
X58530537Y-24064494D01*
X58589502Y-23954180D01*
X58611513Y-23881620D01*
X58743368Y-24013475D01*
X58986589Y-24175990D01*
X59256842Y-24287932D01*
X59543740Y-24345000D01*
X59705554Y-24345000D01*
X59543544Y-24507010D01*
X48922436Y-24507010D01*
X49134103Y-24295344D01*
X49383740Y-24345000D01*
X49676260Y-24345000D01*
X49963158Y-24287932D01*
X50233411Y-24175990D01*
X50476632Y-24013475D01*
X50683475Y-23806632D01*
X50748042Y-23710000D01*
X55661928Y-23710000D01*
X55674188Y-23834482D01*
X55710498Y-23954180D01*
X55769463Y-24064494D01*
X55848815Y-24161185D01*
X55945506Y-24240537D01*
X56055820Y-24299502D01*
X56175518Y-24335812D01*
X56300000Y-24348072D01*
X56864250Y-24345000D01*
X57023000Y-24186250D01*
X57023000Y-22987000D01*
X55823750Y-22987000D01*
X55665000Y-23145750D01*
X55661928Y-23710000D01*
X50748042Y-23710000D01*
X50845990Y-23563411D01*
X50957932Y-23293158D01*
X51015000Y-23006260D01*
X51015000Y-22713740D01*
X50957932Y-22426842D01*
X50845990Y-22156589D01*
X50748043Y-22010000D01*
X55661928Y-22010000D01*
X55665000Y-22574250D01*
X55823750Y-22733000D01*
X57023000Y-22733000D01*
X57023000Y-21533750D01*
X56864250Y-21375000D01*
X56300000Y-21371928D01*
X56175518Y-21384188D01*
X56055820Y-21420498D01*
X55945506Y-21479463D01*
X55848815Y-21558815D01*
X55769463Y-21655506D01*
X55710498Y-21765820D01*
X55674188Y-21885518D01*
X55661928Y-22010000D01*
X50748043Y-22010000D01*
X50683475Y-21913368D01*
X50476632Y-21706525D01*
X50233411Y-21544010D01*
X49963158Y-21432068D01*
X49676260Y-21375000D01*
X49383740Y-21375000D01*
X49096842Y-21432068D01*
X48826589Y-21544010D01*
X48583368Y-21706525D01*
X48376525Y-21913368D01*
X48260000Y-22087760D01*
X48143475Y-21913368D01*
X47936632Y-21706525D01*
X47693411Y-21544010D01*
X47423158Y-21432068D01*
X47136260Y-21375000D01*
X46843740Y-21375000D01*
X46556842Y-21432068D01*
X46286589Y-21544010D01*
X46043368Y-21706525D01*
X45911513Y-21838380D01*
X45889502Y-21765820D01*
X45830537Y-21655506D01*
X45751185Y-21558815D01*
X45654494Y-21479463D01*
X45544180Y-21420498D01*
X45424482Y-21384188D01*
X45300000Y-21371928D01*
X44735750Y-21375000D01*
X44577000Y-21533750D01*
X44577000Y-22733000D01*
X44597000Y-22733000D01*
X44597000Y-22987000D01*
X44577000Y-22987000D01*
X44577000Y-23007000D01*
X44323000Y-23007000D01*
X44323000Y-22987000D01*
X43123750Y-22987000D01*
X42965000Y-23145750D01*
X42961928Y-23710000D01*
X42974188Y-23834482D01*
X43010498Y-23954180D01*
X43069463Y-24064494D01*
X43145380Y-24157000D01*
X37628094Y-24157000D01*
X37591999Y-24153445D01*
X37555904Y-24157000D01*
X37555895Y-24157000D01*
X37447915Y-24167635D01*
X37309367Y-24209663D01*
X37181680Y-24277913D01*
X37069762Y-24369762D01*
X37046746Y-24397807D01*
X36649369Y-24795184D01*
X36685000Y-24616055D01*
X36685000Y-23643945D01*
X36495350Y-22690514D01*
X36213473Y-22010000D01*
X42961928Y-22010000D01*
X42965000Y-22574250D01*
X43123750Y-22733000D01*
X44323000Y-22733000D01*
X44323000Y-21533750D01*
X44164250Y-21375000D01*
X43600000Y-21371928D01*
X43475518Y-21384188D01*
X43355820Y-21420498D01*
X43245506Y-21479463D01*
X43148815Y-21558815D01*
X43069463Y-21655506D01*
X43010498Y-21765820D01*
X42974188Y-21885518D01*
X42961928Y-22010000D01*
X36213473Y-22010000D01*
X36123340Y-21792401D01*
X35583265Y-20984121D01*
X34895879Y-20296735D01*
X34087599Y-19756660D01*
X33189486Y-19384650D01*
X32236055Y-19195000D01*
X31263945Y-19195000D01*
X30310514Y-19384650D01*
X29412401Y-19756660D01*
X28604121Y-20296735D01*
X27916735Y-20984121D01*
X27376660Y-21792401D01*
X27004650Y-22690514D01*
X26815000Y-23643945D01*
X26125370Y-23643945D01*
X26156837Y-23244130D01*
X26364279Y-22380073D01*
X26704334Y-21559109D01*
X27168633Y-20801441D01*
X27745738Y-20125738D01*
X28421441Y-19548633D01*
X29179107Y-19084334D01*
X30000072Y-18744279D01*
X30864136Y-18536837D01*
X31776909Y-18465000D01*
X99033092Y-18465000D01*
X99945870Y-18536837D01*
%TA.AperFunction,Conductor*%
D25*
G36*
X99945870Y-18536837D02*
G01*
X100809927Y-18744279D01*
X101630891Y-19084334D01*
X102388559Y-19548633D01*
X103064262Y-20125738D01*
X103641367Y-20801441D01*
X104105666Y-21559107D01*
X104445721Y-22380072D01*
X104653163Y-23244136D01*
X104725001Y-24156922D01*
X104725000Y-55853091D01*
X104653163Y-56765864D01*
X104445721Y-57629928D01*
X104105666Y-58450893D01*
X103641367Y-59208559D01*
X103064262Y-59884262D01*
X102388559Y-60461367D01*
X101630891Y-60925666D01*
X100809927Y-61265721D01*
X99945870Y-61473163D01*
X99033092Y-61545000D01*
X31776909Y-61545000D01*
X30864136Y-61473163D01*
X30000072Y-61265721D01*
X29179107Y-60925666D01*
X28421441Y-60461367D01*
X27745738Y-59884262D01*
X27168633Y-59208559D01*
X26704334Y-58450891D01*
X26364279Y-57629927D01*
X26156837Y-56765870D01*
X26085000Y-55853092D01*
X26085000Y-55393945D01*
X26815000Y-55393945D01*
X26815000Y-56366055D01*
X27004650Y-57319486D01*
X27376660Y-58217599D01*
X27916735Y-59025879D01*
X28604121Y-59713265D01*
X29412401Y-60253340D01*
X30310514Y-60625350D01*
X31263945Y-60815000D01*
X32236055Y-60815000D01*
X33189486Y-60625350D01*
X34087599Y-60253340D01*
X34895879Y-59713265D01*
X35583265Y-59025879D01*
X36123340Y-58217599D01*
X36495350Y-57319486D01*
X36685000Y-56366055D01*
X36685000Y-55393945D01*
X36495350Y-54440514D01*
X36450693Y-54332702D01*
X41096903Y-54332702D01*
X41168486Y-54576671D01*
X41423996Y-54697571D01*
X41698184Y-54766300D01*
X41980512Y-54780217D01*
X42260130Y-54738787D01*
X42526292Y-54643603D01*
X42651514Y-54576671D01*
X42723097Y-54332702D01*
X41910000Y-53519605D01*
X41096903Y-54332702D01*
X36450693Y-54332702D01*
X36123340Y-53542401D01*
X36035215Y-53410512D01*
X40469783Y-53410512D01*
X40511213Y-53690130D01*
X40606397Y-53956292D01*
X40673329Y-54081514D01*
X40917298Y-54153097D01*
X41730395Y-53340000D01*
X40917298Y-52526903D01*
X40673329Y-52598486D01*
X40552429Y-52853996D01*
X40483700Y-53128184D01*
X40469783Y-53410512D01*
X36035215Y-53410512D01*
X35583265Y-52734121D01*
X34895879Y-52046735D01*
X34087599Y-51506660D01*
X33189486Y-51134650D01*
X32236055Y-50945000D01*
X31263945Y-50945000D01*
X30310514Y-51134650D01*
X29412401Y-51506660D01*
X28604121Y-52046735D01*
X27916735Y-52734121D01*
X27376660Y-53542401D01*
X27004650Y-54440514D01*
X26815000Y-55393945D01*
X26085000Y-55393945D01*
X26085000Y-44920000D01*
X40471928Y-44920000D01*
X40471928Y-46520000D01*
X40484188Y-46644482D01*
X40520498Y-46764180D01*
X40579463Y-46874494D01*
X40658815Y-46971185D01*
X40755506Y-47050537D01*
X40865820Y-47109502D01*
X40985518Y-47145812D01*
X40993961Y-47146643D01*
X40795363Y-47345241D01*
X40638320Y-47580273D01*
X40530147Y-47841426D01*
X40475000Y-48118665D01*
X40475000Y-48401335D01*
X40530147Y-48678574D01*
X40638320Y-48939727D01*
X40795363Y-49174759D01*
X40995241Y-49374637D01*
X41227759Y-49530000D01*
X40995241Y-49685363D01*
X40795363Y-49885241D01*
X40638320Y-50120273D01*
X40530147Y-50381426D01*
X40475000Y-50658665D01*
X40475000Y-50941335D01*
X40530147Y-51218574D01*
X40638320Y-51479727D01*
X40795363Y-51714759D01*
X40995241Y-51914637D01*
X41229128Y-52070915D01*
X41168486Y-52103329D01*
X41096903Y-52347298D01*
X41910000Y-53160395D01*
X41924143Y-53146253D01*
X42103748Y-53325858D01*
X42089605Y-53340000D01*
X42902702Y-54153097D01*
X43146671Y-54081514D01*
X43267571Y-53826004D01*
X43336300Y-53551816D01*
X43349739Y-53279185D01*
X51016746Y-60946193D01*
X51039762Y-60974238D01*
X51151680Y-61066087D01*
X51279367Y-61134337D01*
X51417915Y-61176365D01*
X51525895Y-61187000D01*
X51525904Y-61187000D01*
X51561999Y-61190555D01*
X51598094Y-61187000D01*
X87365895Y-61187000D01*
X87402000Y-61190556D01*
X87438105Y-61187000D01*
X87546085Y-61176365D01*
X87684633Y-61134337D01*
X87812320Y-61066087D01*
X87924238Y-60974238D01*
X87947259Y-60946187D01*
X89634442Y-59259005D01*
X89710150Y-59299472D01*
X89876746Y-59350008D01*
X90050000Y-59367072D01*
X90850000Y-59367072D01*
X91023254Y-59350008D01*
X91189850Y-59299472D01*
X91343386Y-59217405D01*
X91477962Y-59106962D01*
X91588405Y-58972386D01*
X91670472Y-58818850D01*
X91721008Y-58652254D01*
X91738072Y-58479000D01*
X91738072Y-57155374D01*
X94280314Y-54613132D01*
X94125000Y-55393945D01*
X94125000Y-56366055D01*
X94314650Y-57319486D01*
X94686660Y-58217599D01*
X95226735Y-59025879D01*
X95914121Y-59713265D01*
X96722401Y-60253340D01*
X97620514Y-60625350D01*
X98573945Y-60815000D01*
X99546055Y-60815000D01*
X100499486Y-60625350D01*
X101397599Y-60253340D01*
X102205879Y-59713265D01*
X102893265Y-59025879D01*
X103433340Y-58217599D01*
X103805350Y-57319486D01*
X103995000Y-56366055D01*
X103995000Y-55393945D01*
X103805350Y-54440514D01*
X103433340Y-53542401D01*
X102893265Y-52734121D01*
X102205879Y-52046735D01*
X101397599Y-51506660D01*
X100499486Y-51134650D01*
X99546055Y-50945000D01*
X98573945Y-50945000D01*
X97793133Y-51100314D01*
X102666253Y-46227194D01*
X102666258Y-46227188D01*
X103003261Y-45890185D01*
X103072094Y-45806312D01*
X103140344Y-45678626D01*
X103182372Y-45540078D01*
X103196563Y-45395993D01*
X103183008Y-45258365D01*
X103183008Y-44146296D01*
X103341474Y-43987830D01*
X103369132Y-43965132D01*
X103391832Y-43937472D01*
X103611476Y-43717828D01*
X103639131Y-43695132D01*
X103666321Y-43662002D01*
X103709711Y-43609131D01*
X103729731Y-43584737D01*
X103797053Y-43458788D01*
X103838509Y-43322125D01*
X103849000Y-43215607D01*
X103849000Y-43215600D01*
X103852506Y-43180000D01*
X103849000Y-43144400D01*
X103849000Y-41516281D01*
X103976145Y-41490990D01*
X104137205Y-41424277D01*
X104282155Y-41327424D01*
X104405424Y-41204155D01*
X104502277Y-41059205D01*
X104568990Y-40898145D01*
X104603000Y-40727165D01*
X104603000Y-40552835D01*
X104568990Y-40381855D01*
X104502277Y-40220795D01*
X104443000Y-40132081D01*
X104443000Y-35657594D01*
X104446506Y-35621997D01*
X104443000Y-35586400D01*
X104443000Y-35586391D01*
X104432509Y-35479873D01*
X104391053Y-35343210D01*
X104323731Y-35217261D01*
X104310970Y-35201712D01*
X104255830Y-35134523D01*
X104255823Y-35134516D01*
X104233131Y-35106866D01*
X104205482Y-35084175D01*
X101971334Y-32850028D01*
X101948634Y-32822368D01*
X101838239Y-32731769D01*
X101712290Y-32664447D01*
X101653025Y-32646469D01*
X101598794Y-32601963D01*
X101488480Y-32542998D01*
X101368782Y-32506688D01*
X101244300Y-32494428D01*
X99644300Y-32494428D01*
X99519818Y-32506688D01*
X99400120Y-32542998D01*
X99289806Y-32601963D01*
X99193115Y-32681315D01*
X99113763Y-32778006D01*
X99054798Y-32888320D01*
X99018488Y-33008018D01*
X99006228Y-33132500D01*
X99006228Y-33542500D01*
X99017665Y-33658624D01*
X99009300Y-33735750D01*
X99052433Y-33778883D01*
X99054798Y-33786680D01*
X99113763Y-33896994D01*
X99175729Y-33972500D01*
X99113763Y-34048006D01*
X99054798Y-34158320D01*
X99052433Y-34166117D01*
X99009300Y-34209250D01*
X99010510Y-34220408D01*
X98650319Y-33860217D01*
X98681001Y-33786145D01*
X98715011Y-33615165D01*
X98715011Y-33440835D01*
X98681001Y-33269855D01*
X98614288Y-33108795D01*
X98517435Y-32963845D01*
X98394166Y-32840576D01*
X98249216Y-32743723D01*
X98088156Y-32677010D01*
X97917176Y-32643000D01*
X97742846Y-32643000D01*
X97571866Y-32677010D01*
X97410806Y-32743723D01*
X97265856Y-32840576D01*
X97175006Y-32931427D01*
X97084155Y-32840576D01*
X96939205Y-32743723D01*
X96778145Y-32677010D01*
X96607165Y-32643000D01*
X96432835Y-32643000D01*
X96358271Y-32657832D01*
X96290194Y-32601963D01*
X96179880Y-32542998D01*
X96060182Y-32506688D01*
X95935700Y-32494428D01*
X94335700Y-32494428D01*
X94211218Y-32506688D01*
X94091520Y-32542998D01*
X93981206Y-32601963D01*
X93968367Y-32612500D01*
X92174097Y-32612500D01*
X92138500Y-32608994D01*
X92102903Y-32612500D01*
X92102893Y-32612500D01*
X91996375Y-32622991D01*
X91930414Y-32643000D01*
X91860835Y-32643000D01*
X91689855Y-32677010D01*
X91657000Y-32690619D01*
X91657000Y-32326254D01*
X93647450Y-30335805D01*
X93752095Y-30314990D01*
X93913155Y-30248277D01*
X94058105Y-30151424D01*
X94181374Y-30028155D01*
X94278227Y-29883205D01*
X94344940Y-29722145D01*
X94378950Y-29551165D01*
X94378950Y-29376835D01*
X94344940Y-29205855D01*
X94278227Y-29044795D01*
X94181374Y-28899845D01*
X94058105Y-28776576D01*
X93913155Y-28679723D01*
X93888950Y-28669697D01*
X93888950Y-28505851D01*
X93854940Y-28334871D01*
X93818322Y-28246466D01*
X93891205Y-28216277D01*
X94036155Y-28119424D01*
X94159424Y-27996155D01*
X94256277Y-27851205D01*
X94322990Y-27690145D01*
X94357000Y-27519165D01*
X94357000Y-27344835D01*
X94322990Y-27173855D01*
X94256277Y-27012795D01*
X94191748Y-26916221D01*
X94238145Y-26906992D01*
X94399205Y-26840279D01*
X94544155Y-26743426D01*
X94667424Y-26620157D01*
X94728010Y-26529484D01*
X95226735Y-27275879D01*
X95914121Y-27963265D01*
X96722401Y-28503340D01*
X97620514Y-28875350D01*
X98573945Y-29065000D01*
X99546055Y-29065000D01*
X100499486Y-28875350D01*
X101397599Y-28503340D01*
X102205879Y-27963265D01*
X102893265Y-27275879D01*
X103433340Y-26467599D01*
X103805350Y-25569486D01*
X103995000Y-24616055D01*
X103995000Y-23643945D01*
X103805350Y-22690514D01*
X103433340Y-21792401D01*
X102893265Y-20984121D01*
X102205879Y-20296735D01*
X101397599Y-19756660D01*
X100499486Y-19384650D01*
X99546055Y-19195000D01*
X98573945Y-19195000D01*
X97620514Y-19384650D01*
X96722401Y-19756660D01*
X95914121Y-20296735D01*
X95226735Y-20984121D01*
X94686660Y-21792401D01*
X94314650Y-22690514D01*
X94125000Y-23643945D01*
X94125000Y-24616055D01*
X94242511Y-25206820D01*
X94238145Y-25205012D01*
X94067165Y-25171002D01*
X93892835Y-25171002D01*
X93721855Y-25205012D01*
X93560795Y-25271725D01*
X93415845Y-25368578D01*
X93292576Y-25491847D01*
X93195723Y-25636797D01*
X93129010Y-25797857D01*
X93108195Y-25902502D01*
X91460530Y-27550168D01*
X91460525Y-27550172D01*
X88920523Y-30090175D01*
X88892869Y-30112870D01*
X88870173Y-30140525D01*
X88870170Y-30140528D01*
X88802269Y-30223266D01*
X88734947Y-30349215D01*
X88706575Y-30442747D01*
X88699594Y-30465763D01*
X88693492Y-30485878D01*
X88679494Y-30628002D01*
X88683001Y-30663609D01*
X88683000Y-35782893D01*
X88576632Y-35676525D01*
X88333411Y-35514010D01*
X88063158Y-35402068D01*
X87776260Y-35345000D01*
X87483740Y-35345000D01*
X87196842Y-35402068D01*
X86926589Y-35514010D01*
X86683368Y-35676525D01*
X86551513Y-35808380D01*
X86529502Y-35735820D01*
X86470537Y-35625506D01*
X86391185Y-35528815D01*
X86294494Y-35449463D01*
X86184180Y-35390498D01*
X86064482Y-35354188D01*
X85940000Y-35341928D01*
X85375750Y-35345000D01*
X85217000Y-35503750D01*
X85217000Y-36703000D01*
X85237000Y-36703000D01*
X85237000Y-36957000D01*
X85217000Y-36957000D01*
X85217000Y-38156250D01*
X85375750Y-38315000D01*
X85940000Y-38318072D01*
X86064482Y-38305812D01*
X86184180Y-38269502D01*
X86294494Y-38210537D01*
X86391185Y-38131185D01*
X86470537Y-38034494D01*
X86529502Y-37924180D01*
X86551513Y-37851620D01*
X86683368Y-37983475D01*
X86895000Y-38124883D01*
X86895001Y-41365885D01*
X86891444Y-41402000D01*
X86905635Y-41546085D01*
X86928486Y-41621412D01*
X86947664Y-41684633D01*
X87015914Y-41812320D01*
X87024912Y-41823284D01*
X86926589Y-41864010D01*
X86683368Y-42026525D01*
X86551513Y-42158380D01*
X86529502Y-42085820D01*
X86470537Y-41975506D01*
X86391185Y-41878815D01*
X86294494Y-41799463D01*
X86184180Y-41740498D01*
X86064482Y-41704188D01*
X85940000Y-41691928D01*
X85375750Y-41695000D01*
X85217000Y-41853750D01*
X85217000Y-43053000D01*
X85237000Y-43053000D01*
X85237000Y-43307000D01*
X85217000Y-43307000D01*
X85217000Y-44506250D01*
X85375750Y-44665000D01*
X85940000Y-44668072D01*
X86064482Y-44655812D01*
X86184180Y-44619502D01*
X86294494Y-44560537D01*
X86391185Y-44481185D01*
X86470537Y-44384494D01*
X86529502Y-44274180D01*
X86551513Y-44201620D01*
X86683368Y-44333475D01*
X86926589Y-44495990D01*
X87196842Y-44607932D01*
X87483740Y-44665000D01*
X87776260Y-44665000D01*
X88025897Y-44615344D01*
X89354746Y-45944193D01*
X89377762Y-45972238D01*
X89489680Y-46064087D01*
X89617367Y-46132337D01*
X89755915Y-46174365D01*
X89900000Y-46188556D01*
X89936105Y-46185000D01*
X94721098Y-46185000D01*
X94850887Y-46224371D01*
X94990000Y-46238072D01*
X96290000Y-46238072D01*
X96429113Y-46224371D01*
X96562881Y-46183793D01*
X96686162Y-46117898D01*
X96794218Y-46029218D01*
X96809266Y-46010882D01*
X96825518Y-46015812D01*
X96950000Y-46028072D01*
X98630000Y-46028072D01*
X98754482Y-46015812D01*
X98770734Y-46010882D01*
X98785782Y-46029218D01*
X98893838Y-46117898D01*
X99017119Y-46183793D01*
X99150887Y-46224371D01*
X99290000Y-46238072D01*
X100042481Y-46238072D01*
X95707554Y-50573000D01*
X91738072Y-50573000D01*
X91738072Y-50233000D01*
X91721008Y-50059746D01*
X91670472Y-49893150D01*
X91588405Y-49739614D01*
X91477962Y-49605038D01*
X91343386Y-49494595D01*
X91189850Y-49412528D01*
X91023254Y-49361992D01*
X90850000Y-49344928D01*
X90050000Y-49344928D01*
X89876746Y-49361992D01*
X89710150Y-49412528D01*
X89556614Y-49494595D01*
X89422038Y-49605038D01*
X89311595Y-49739614D01*
X89229528Y-49893150D01*
X89178992Y-50059746D01*
X89161928Y-50233000D01*
X89161928Y-51556626D01*
X89055798Y-51662756D01*
X89027753Y-51685772D01*
X88935904Y-51797690D01*
X88873879Y-51913731D01*
X88867654Y-51925377D01*
X88825625Y-52063925D01*
X88811434Y-52208010D01*
X88814991Y-52244125D01*
X88814990Y-57228765D01*
X88638072Y-57405683D01*
X88638072Y-56329000D01*
X88621008Y-56155746D01*
X88570472Y-55989150D01*
X88488405Y-55835614D01*
X88377962Y-55701038D01*
X88243386Y-55590595D01*
X88235000Y-55586113D01*
X88235000Y-53125887D01*
X88243386Y-53121405D01*
X88377962Y-53010962D01*
X88488405Y-52876386D01*
X88570472Y-52722850D01*
X88621008Y-52556254D01*
X88638072Y-52383000D01*
X88638072Y-50233000D01*
X88621008Y-50059746D01*
X88570472Y-49893150D01*
X88488405Y-49739614D01*
X88377962Y-49605038D01*
X88243386Y-49494595D01*
X88089850Y-49412528D01*
X87923254Y-49361992D01*
X87750000Y-49344928D01*
X86950000Y-49344928D01*
X86776746Y-49361992D01*
X86610150Y-49412528D01*
X86456614Y-49494595D01*
X86368517Y-49566894D01*
X86358246Y-49565882D01*
X86271205Y-49507723D01*
X86110145Y-49441010D01*
X85939165Y-49407000D01*
X85764835Y-49407000D01*
X85593855Y-49441010D01*
X85432795Y-49507723D01*
X85287845Y-49604576D01*
X85164576Y-49727845D01*
X85067723Y-49872795D01*
X85001010Y-50033855D01*
X84967000Y-50204835D01*
X84967000Y-50379165D01*
X85001010Y-50550145D01*
X85067723Y-50711205D01*
X85164576Y-50856155D01*
X85287845Y-50979424D01*
X85432795Y-51076277D01*
X85593855Y-51142990D01*
X85764835Y-51177000D01*
X85939165Y-51177000D01*
X86061928Y-51152581D01*
X86061928Y-52383000D01*
X86078992Y-52556254D01*
X86129528Y-52722850D01*
X86211595Y-52876386D01*
X86322038Y-53010962D01*
X86456614Y-53121405D01*
X86465001Y-53125888D01*
X86465000Y-55586112D01*
X86456614Y-55590595D01*
X86322038Y-55701038D01*
X86211595Y-55835614D01*
X86129528Y-55989150D01*
X86078992Y-56155746D01*
X86061928Y-56329000D01*
X86061928Y-56519000D01*
X82619542Y-56519000D01*
X82624157Y-56511252D01*
X82721481Y-56236891D01*
X82600814Y-56007000D01*
X81407000Y-56007000D01*
X81407000Y-56027000D01*
X81153000Y-56027000D01*
X81153000Y-56007000D01*
X81133000Y-56007000D01*
X81133000Y-55753000D01*
X81153000Y-55753000D01*
X81153000Y-54559845D01*
X81407000Y-54559845D01*
X81407000Y-55753000D01*
X82600814Y-55753000D01*
X82721481Y-55523109D01*
X82624157Y-55248748D01*
X82475178Y-54998645D01*
X82280269Y-54782412D01*
X82046920Y-54608359D01*
X81784099Y-54483175D01*
X81636890Y-54438524D01*
X81407000Y-54559845D01*
X81153000Y-54559845D01*
X80923110Y-54438524D01*
X80775901Y-54483175D01*
X80513080Y-54608359D01*
X80279731Y-54782412D01*
X80203966Y-54866466D01*
X80179502Y-54785820D01*
X80120537Y-54675506D01*
X80041185Y-54578815D01*
X79944494Y-54499463D01*
X79834180Y-54440498D01*
X79714482Y-54404188D01*
X79590000Y-54391928D01*
X78503506Y-54391928D01*
X78127000Y-54015422D01*
X78127000Y-53125887D01*
X78135386Y-53121405D01*
X78269962Y-53010962D01*
X78380405Y-52876386D01*
X78462472Y-52722850D01*
X78513008Y-52556254D01*
X78530072Y-52383000D01*
X78530072Y-50233000D01*
X78513008Y-50059746D01*
X78462472Y-49893150D01*
X78380405Y-49739614D01*
X78269962Y-49605038D01*
X78135386Y-49494595D01*
X77981850Y-49412528D01*
X77815254Y-49361992D01*
X77642000Y-49344928D01*
X76842000Y-49344928D01*
X76668746Y-49361992D01*
X76502150Y-49412528D01*
X76348614Y-49494595D01*
X76214038Y-49605038D01*
X76103595Y-49739614D01*
X76021528Y-49893150D01*
X75970992Y-50059746D01*
X75953928Y-50233000D01*
X75953928Y-52383000D01*
X75970992Y-52556254D01*
X76021528Y-52722850D01*
X76103595Y-52876386D01*
X76214038Y-53010962D01*
X76348614Y-53121405D01*
X76357001Y-53125888D01*
X76357001Y-54338521D01*
X76352719Y-54382000D01*
X76369805Y-54555490D01*
X76420412Y-54722313D01*
X76502590Y-54876059D01*
X76585468Y-54977046D01*
X76585471Y-54977049D01*
X76613184Y-55010817D01*
X76646951Y-55038529D01*
X77251928Y-55643506D01*
X77251928Y-56116493D01*
X75833422Y-57535000D01*
X67676579Y-57535000D01*
X67498230Y-57356652D01*
X67743158Y-57307932D01*
X68013411Y-57195990D01*
X68256632Y-57033475D01*
X68463475Y-56826632D01*
X68585195Y-56644466D01*
X68654822Y-56761355D01*
X68849731Y-56977588D01*
X69083080Y-57151641D01*
X69345901Y-57276825D01*
X69493110Y-57321476D01*
X69723000Y-57200155D01*
X69723000Y-56007000D01*
X69977000Y-56007000D01*
X69977000Y-57200155D01*
X70206890Y-57321476D01*
X70354099Y-57276825D01*
X70616920Y-57151641D01*
X70850269Y-56977588D01*
X71045178Y-56761355D01*
X71194157Y-56511252D01*
X71291481Y-56236891D01*
X71170814Y-56007000D01*
X69977000Y-56007000D01*
X69723000Y-56007000D01*
X69703000Y-56007000D01*
X69703000Y-55753000D01*
X69723000Y-55753000D01*
X69723000Y-55733000D01*
X69977000Y-55733000D01*
X69977000Y-55753000D01*
X71170814Y-55753000D01*
X71291481Y-55523109D01*
X71194157Y-55248748D01*
X71045178Y-54998645D01*
X70850269Y-54782412D01*
X70620594Y-54611100D01*
X70796632Y-54493475D01*
X71003475Y-54286632D01*
X71144883Y-54075000D01*
X72073895Y-54075000D01*
X72110000Y-54078556D01*
X72146105Y-54075000D01*
X72254085Y-54064365D01*
X72392633Y-54022337D01*
X72520320Y-53954087D01*
X72632238Y-53862238D01*
X72655258Y-53834188D01*
X73326442Y-53163005D01*
X73402150Y-53203472D01*
X73568746Y-53254008D01*
X73742000Y-53271072D01*
X74542000Y-53271072D01*
X74715254Y-53254008D01*
X74881850Y-53203472D01*
X75035386Y-53121405D01*
X75169962Y-53010962D01*
X75280405Y-52876386D01*
X75362472Y-52722850D01*
X75413008Y-52556254D01*
X75430072Y-52383000D01*
X75430072Y-50233000D01*
X75413008Y-50059746D01*
X75362472Y-49893150D01*
X75280405Y-49739614D01*
X75169962Y-49605038D01*
X75035386Y-49494595D01*
X74881850Y-49412528D01*
X74715254Y-49361992D01*
X74542000Y-49344928D01*
X73742000Y-49344928D01*
X73568746Y-49361992D01*
X73402150Y-49412528D01*
X73248614Y-49494595D01*
X73114038Y-49605038D01*
X73003595Y-49739614D01*
X72921528Y-49893150D01*
X72870992Y-50059746D01*
X72853928Y-50233000D01*
X72853928Y-51556625D01*
X71805554Y-52605000D01*
X71144883Y-52605000D01*
X71003475Y-52393368D01*
X70796632Y-52186525D01*
X70553411Y-52024010D01*
X70283158Y-51912068D01*
X69996260Y-51855000D01*
X69703740Y-51855000D01*
X69454103Y-51904656D01*
X67855259Y-50305812D01*
X67832238Y-50277762D01*
X67765598Y-50223072D01*
X68446000Y-50223072D01*
X68619254Y-50206008D01*
X68785850Y-50155472D01*
X68939386Y-50073405D01*
X69073962Y-49962962D01*
X69184405Y-49828386D01*
X69266472Y-49674850D01*
X69317008Y-49508254D01*
X69334072Y-49335000D01*
X69334072Y-47185000D01*
X69857928Y-47185000D01*
X69857928Y-49335000D01*
X69874992Y-49508254D01*
X69925528Y-49674850D01*
X70007595Y-49828386D01*
X70118038Y-49962962D01*
X70252614Y-50073405D01*
X70406150Y-50155472D01*
X70572746Y-50206008D01*
X70746000Y-50223072D01*
X71546000Y-50223072D01*
X71719254Y-50206008D01*
X71885850Y-50155472D01*
X72039386Y-50073405D01*
X72173962Y-49962962D01*
X72284405Y-49828386D01*
X72366472Y-49674850D01*
X72417008Y-49508254D01*
X72434072Y-49335000D01*
X72434072Y-48995000D01*
X73623895Y-48995000D01*
X73660000Y-48998556D01*
X73696105Y-48995000D01*
X73804085Y-48984365D01*
X73942633Y-48942337D01*
X74070320Y-48874087D01*
X74182238Y-48782238D01*
X74205259Y-48754187D01*
X78929446Y-44030000D01*
X83601928Y-44030000D01*
X83614188Y-44154482D01*
X83650498Y-44274180D01*
X83709463Y-44384494D01*
X83788815Y-44481185D01*
X83885506Y-44560537D01*
X83995820Y-44619502D01*
X84115518Y-44655812D01*
X84240000Y-44668072D01*
X84804250Y-44665000D01*
X84963000Y-44506250D01*
X84963000Y-43307000D01*
X83763750Y-43307000D01*
X83605000Y-43465750D01*
X83601928Y-44030000D01*
X78929446Y-44030000D01*
X80629446Y-42330000D01*
X83601928Y-42330000D01*
X83605000Y-42894250D01*
X83763750Y-43053000D01*
X84963000Y-43053000D01*
X84963000Y-41853750D01*
X84804250Y-41695000D01*
X84240000Y-41691928D01*
X84115518Y-41704188D01*
X83995820Y-41740498D01*
X83885506Y-41799463D01*
X83788815Y-41878815D01*
X83709463Y-41975506D01*
X83650498Y-42085820D01*
X83614188Y-42205518D01*
X83601928Y-42330000D01*
X80629446Y-42330000D01*
X81774198Y-41185249D01*
X81802237Y-41162238D01*
X81825250Y-41134197D01*
X81825253Y-41134194D01*
X81894086Y-41050321D01*
X81894087Y-41050320D01*
X81962337Y-40922633D01*
X82004365Y-40784085D01*
X82015000Y-40676105D01*
X82015000Y-40676096D01*
X82018555Y-40640001D01*
X82015000Y-40603906D01*
X82015000Y-37680000D01*
X83601928Y-37680000D01*
X83614188Y-37804482D01*
X83650498Y-37924180D01*
X83709463Y-38034494D01*
X83788815Y-38131185D01*
X83885506Y-38210537D01*
X83995820Y-38269502D01*
X84115518Y-38305812D01*
X84240000Y-38318072D01*
X84804250Y-38315000D01*
X84963000Y-38156250D01*
X84963000Y-36957000D01*
X83763750Y-36957000D01*
X83605000Y-37115750D01*
X83601928Y-37680000D01*
X82015000Y-37680000D01*
X82015000Y-36880446D01*
X82915446Y-35980000D01*
X83601928Y-35980000D01*
X83605000Y-36544250D01*
X83763750Y-36703000D01*
X84963000Y-36703000D01*
X84963000Y-35503750D01*
X84804250Y-35345000D01*
X84240000Y-35341928D01*
X84115518Y-35354188D01*
X83995820Y-35390498D01*
X83885506Y-35449463D01*
X83788815Y-35528815D01*
X83709463Y-35625506D01*
X83650498Y-35735820D01*
X83614188Y-35855518D01*
X83601928Y-35980000D01*
X82915446Y-35980000D01*
X84499153Y-34396294D01*
X84586145Y-34378990D01*
X84747205Y-34312277D01*
X84892155Y-34215424D01*
X85015424Y-34092155D01*
X85112277Y-33947205D01*
X85178990Y-33786145D01*
X85213000Y-33615165D01*
X85213000Y-33440835D01*
X85178990Y-33269855D01*
X85112277Y-33108795D01*
X85015424Y-32963845D01*
X84892155Y-32840576D01*
X84747205Y-32743723D01*
X84586145Y-32677010D01*
X84415165Y-32643000D01*
X84240835Y-32643000D01*
X84069855Y-32677010D01*
X83908795Y-32743723D01*
X83763845Y-32840576D01*
X83640576Y-32963845D01*
X83543723Y-33108795D01*
X83477010Y-33269855D01*
X83459706Y-33356847D01*
X80785808Y-36030746D01*
X80757763Y-36053762D01*
X80665914Y-36165680D01*
X80629550Y-36233712D01*
X80597664Y-36293367D01*
X80555635Y-36431915D01*
X80541444Y-36576000D01*
X80545001Y-36612115D01*
X80545000Y-40335553D01*
X73355554Y-47525000D01*
X72434072Y-47525000D01*
X72434072Y-47185000D01*
X72417008Y-47011746D01*
X72366472Y-46845150D01*
X72284405Y-46691614D01*
X72173962Y-46557038D01*
X72039386Y-46446595D01*
X71885850Y-46364528D01*
X71719254Y-46313992D01*
X71546000Y-46296928D01*
X70746000Y-46296928D01*
X70572746Y-46313992D01*
X70406150Y-46364528D01*
X70252614Y-46446595D01*
X70118038Y-46557038D01*
X70007595Y-46691614D01*
X69925528Y-46845150D01*
X69874992Y-47011746D01*
X69857928Y-47185000D01*
X69334072Y-47185000D01*
X69317008Y-47011746D01*
X69266472Y-46845150D01*
X69184405Y-46691614D01*
X69073962Y-46557038D01*
X68939386Y-46446595D01*
X68785850Y-46364528D01*
X68619254Y-46313992D01*
X68446000Y-46296928D01*
X67646000Y-46296928D01*
X67472746Y-46313992D01*
X67306150Y-46364528D01*
X67152614Y-46446595D01*
X67018038Y-46557038D01*
X66907595Y-46691614D01*
X66825528Y-46845150D01*
X66774992Y-47011746D01*
X66757928Y-47185000D01*
X66757928Y-47525000D01*
X60955555Y-47525000D01*
X59895848Y-46465294D01*
X59878544Y-46378301D01*
X59811831Y-46217241D01*
X59714978Y-46072291D01*
X59591709Y-45949022D01*
X59446759Y-45852169D01*
X59285699Y-45785456D01*
X59114719Y-45751446D01*
X58940389Y-45751446D01*
X58769409Y-45785456D01*
X58608349Y-45852169D01*
X58588727Y-45865280D01*
X56795258Y-44071812D01*
X56772237Y-44043761D01*
X56660319Y-43951912D01*
X56532632Y-43883662D01*
X56394084Y-43841634D01*
X56286104Y-43830999D01*
X56249999Y-43827443D01*
X56213894Y-43830999D01*
X43100106Y-43830999D01*
X43064001Y-43827443D01*
X43027896Y-43830999D01*
X42919916Y-43841634D01*
X42781368Y-43883662D01*
X42653681Y-43951912D01*
X42541763Y-44043761D01*
X42518747Y-44071806D01*
X42308625Y-44281928D01*
X41110000Y-44281928D01*
X40985518Y-44294188D01*
X40865820Y-44330498D01*
X40755506Y-44389463D01*
X40658815Y-44468815D01*
X40579463Y-44565506D01*
X40520498Y-44675820D01*
X40484188Y-44795518D01*
X40471928Y-44920000D01*
X26085000Y-44920000D01*
X26085000Y-24156908D01*
X26125370Y-23643945D01*
X26815000Y-23643945D01*
X26815000Y-24616055D01*
X27004650Y-25569486D01*
X27376660Y-26467599D01*
X27916735Y-27275879D01*
X28604121Y-27963265D01*
X29412401Y-28503340D01*
X30310514Y-28875350D01*
X31263945Y-29065000D01*
X32236055Y-29065000D01*
X32415185Y-29029369D01*
X31509808Y-29934746D01*
X31481763Y-29957762D01*
X31389914Y-30069680D01*
X31366829Y-30112870D01*
X31321664Y-30197367D01*
X31279635Y-30335915D01*
X31265444Y-30480000D01*
X31269001Y-30516115D01*
X31269000Y-34413928D01*
X31046740Y-34413928D01*
X30923259Y-34312589D01*
X30769513Y-34230411D01*
X30602690Y-34179805D01*
X30472677Y-34167000D01*
X30472669Y-34167000D01*
X30429200Y-34162719D01*
X30385731Y-34167000D01*
X28360835Y-34167000D01*
X28317987Y-34175523D01*
X28274510Y-34179805D01*
X28232705Y-34192487D01*
X28189855Y-34201010D01*
X28149487Y-34217731D01*
X28107687Y-34230411D01*
X28069165Y-34251001D01*
X28028795Y-34267723D01*
X27992467Y-34291996D01*
X27953941Y-34312589D01*
X27920171Y-34340304D01*
X27883845Y-34364576D01*
X27852951Y-34395470D01*
X27819183Y-34423183D01*
X27791470Y-34456951D01*
X27760576Y-34487845D01*
X27736304Y-34524171D01*
X27708589Y-34557941D01*
X27687996Y-34596467D01*
X27663723Y-34632795D01*
X27647001Y-34673165D01*
X27626411Y-34711687D01*
X27613731Y-34753487D01*
X27597010Y-34793855D01*
X27588487Y-34836705D01*
X27575805Y-34878510D01*
X27571523Y-34921987D01*
X27563000Y-34964835D01*
X27563000Y-35008523D01*
X27558718Y-35052000D01*
X27563000Y-35095477D01*
X27563000Y-35139165D01*
X27571523Y-35182013D01*
X27575805Y-35225490D01*
X27588487Y-35267295D01*
X27597010Y-35310145D01*
X27613731Y-35350513D01*
X27626411Y-35392313D01*
X27647001Y-35430835D01*
X27663723Y-35471205D01*
X27687996Y-35507533D01*
X27708589Y-35546059D01*
X27736304Y-35579829D01*
X27760576Y-35616155D01*
X27791470Y-35647049D01*
X27819183Y-35680817D01*
X27852951Y-35708530D01*
X27883845Y-35739424D01*
X27920171Y-35763696D01*
X27953941Y-35791411D01*
X27992467Y-35812004D01*
X28028795Y-35836277D01*
X28069165Y-35852999D01*
X28107687Y-35873589D01*
X28149487Y-35886269D01*
X28189855Y-35902990D01*
X28232705Y-35911513D01*
X28274510Y-35924195D01*
X28317987Y-35928477D01*
X28360835Y-35937000D01*
X29451739Y-35937000D01*
X29466863Y-35965294D01*
X29499038Y-36004500D01*
X29466863Y-36043706D01*
X29407898Y-36154020D01*
X29371588Y-36273718D01*
X29359328Y-36398200D01*
X29359328Y-36957000D01*
X29371588Y-37081482D01*
X29407898Y-37201180D01*
X29466863Y-37311494D01*
X29499038Y-37350700D01*
X29466863Y-37389906D01*
X29407898Y-37500220D01*
X29371588Y-37619918D01*
X29359328Y-37744400D01*
X29359328Y-38303200D01*
X29371588Y-38427682D01*
X29407898Y-38547380D01*
X29466863Y-38657694D01*
X29499038Y-38696900D01*
X29466863Y-38736106D01*
X29407898Y-38846420D01*
X29371588Y-38966118D01*
X29359328Y-39090600D01*
X29359328Y-39649400D01*
X29371588Y-39773882D01*
X29407898Y-39893580D01*
X29466863Y-40003894D01*
X29499038Y-40043100D01*
X29466863Y-40082306D01*
X29407898Y-40192620D01*
X29371588Y-40312318D01*
X29359328Y-40436800D01*
X29359328Y-40995600D01*
X29371588Y-41120082D01*
X29407898Y-41239780D01*
X29466863Y-41350094D01*
X29499038Y-41389300D01*
X29466863Y-41428506D01*
X29407898Y-41538820D01*
X29371588Y-41658518D01*
X29359328Y-41783000D01*
X29359328Y-42341800D01*
X29371588Y-42466282D01*
X29407898Y-42585980D01*
X29466863Y-42696294D01*
X29499038Y-42735500D01*
X29466863Y-42774706D01*
X29407898Y-42885020D01*
X29371588Y-43004718D01*
X29359328Y-43129200D01*
X29359328Y-43688000D01*
X29371588Y-43812482D01*
X29407898Y-43932180D01*
X29466863Y-44042494D01*
X29546215Y-44139185D01*
X29642906Y-44218537D01*
X29753220Y-44277502D01*
X29872918Y-44313812D01*
X29997400Y-44326072D01*
X31419800Y-44326072D01*
X31544282Y-44313812D01*
X31663980Y-44277502D01*
X31774294Y-44218537D01*
X31870985Y-44139185D01*
X31916948Y-44083178D01*
X32030120Y-44022687D01*
X32142038Y-43930838D01*
X32165059Y-43902787D01*
X34720200Y-41347646D01*
X36522128Y-43149575D01*
X36522128Y-43688000D01*
X36534388Y-43812482D01*
X36570698Y-43932180D01*
X36629663Y-44042494D01*
X36709015Y-44139185D01*
X36805706Y-44218537D01*
X36916020Y-44277502D01*
X37035718Y-44313812D01*
X37160200Y-44326072D01*
X38582600Y-44326072D01*
X38707082Y-44313812D01*
X38826780Y-44277502D01*
X38937094Y-44218537D01*
X39033785Y-44139185D01*
X39113137Y-44042494D01*
X39172102Y-43932180D01*
X39208412Y-43812482D01*
X39220672Y-43688000D01*
X39220672Y-43129200D01*
X39208412Y-43004718D01*
X39172102Y-42885020D01*
X39113137Y-42774706D01*
X39080962Y-42735500D01*
X39113137Y-42696294D01*
X39172102Y-42585980D01*
X39208412Y-42466282D01*
X39220672Y-42341800D01*
X39220672Y-41783000D01*
X39208412Y-41658518D01*
X39172102Y-41538820D01*
X39113137Y-41428506D01*
X39080962Y-41389300D01*
X39113137Y-41350094D01*
X39172102Y-41239780D01*
X39208412Y-41120082D01*
X39220672Y-40995600D01*
X39220672Y-40436800D01*
X39208412Y-40312318D01*
X39172102Y-40192620D01*
X39125267Y-40105000D01*
X58383895Y-40105000D01*
X58420000Y-40108556D01*
X58456105Y-40105000D01*
X58564085Y-40094365D01*
X58702633Y-40052337D01*
X58830320Y-39984087D01*
X58942238Y-39892238D01*
X58965259Y-39864187D01*
X61834103Y-36995344D01*
X62083740Y-37045000D01*
X62376260Y-37045000D01*
X62663158Y-36987932D01*
X62933411Y-36875990D01*
X63176632Y-36713475D01*
X63383475Y-36506632D01*
X63448042Y-36410000D01*
X68361928Y-36410000D01*
X68374188Y-36534482D01*
X68410498Y-36654180D01*
X68469463Y-36764494D01*
X68548815Y-36861185D01*
X68645506Y-36940537D01*
X68755820Y-36999502D01*
X68875518Y-37035812D01*
X69000000Y-37048072D01*
X69564250Y-37045000D01*
X69723000Y-36886250D01*
X69723000Y-35687000D01*
X68523750Y-35687000D01*
X68365000Y-35845750D01*
X68361928Y-36410000D01*
X63448042Y-36410000D01*
X63545990Y-36263411D01*
X63657932Y-35993158D01*
X63715000Y-35706260D01*
X63715000Y-35413740D01*
X63657932Y-35126842D01*
X63643085Y-35090999D01*
X68364002Y-35090999D01*
X68365000Y-35274250D01*
X68523750Y-35433000D01*
X69723000Y-35433000D01*
X69723000Y-35413000D01*
X69977000Y-35413000D01*
X69977000Y-35433000D01*
X69997000Y-35433000D01*
X69997000Y-35687000D01*
X69977000Y-35687000D01*
X69977000Y-36886250D01*
X70135750Y-37045000D01*
X70700000Y-37048072D01*
X70824482Y-37035812D01*
X70944180Y-36999502D01*
X71054494Y-36940537D01*
X71151185Y-36861185D01*
X71230537Y-36764494D01*
X71289502Y-36654180D01*
X71311513Y-36581620D01*
X71443368Y-36713475D01*
X71686589Y-36875990D01*
X71956842Y-36987932D01*
X72243740Y-37045000D01*
X72536260Y-37045000D01*
X72823158Y-36987932D01*
X73093411Y-36875990D01*
X73336632Y-36713475D01*
X73543475Y-36506632D01*
X73660000Y-36332240D01*
X73776525Y-36506632D01*
X73983368Y-36713475D01*
X74226589Y-36875990D01*
X74496842Y-36987932D01*
X74783740Y-37045000D01*
X75076260Y-37045000D01*
X75363158Y-36987932D01*
X75633411Y-36875990D01*
X75876632Y-36713475D01*
X76083475Y-36506632D01*
X76245990Y-36263411D01*
X76357932Y-35993158D01*
X76415000Y-35706260D01*
X76415000Y-35413740D01*
X76357932Y-35126842D01*
X76245990Y-34856589D01*
X76083475Y-34613368D01*
X75876632Y-34406525D01*
X75633411Y-34244010D01*
X75363158Y-34132068D01*
X75076260Y-34075000D01*
X74783740Y-34075000D01*
X74534103Y-34124656D01*
X74271257Y-33861811D01*
X74248237Y-33833761D01*
X74136319Y-33741912D01*
X74008632Y-33673662D01*
X73870084Y-33631634D01*
X73762104Y-33620999D01*
X73725999Y-33617443D01*
X73689894Y-33620999D01*
X61842093Y-33620999D01*
X61805998Y-33617444D01*
X61769903Y-33620999D01*
X61769894Y-33620999D01*
X61661914Y-33631634D01*
X61523366Y-33673662D01*
X61395679Y-33741912D01*
X61283761Y-33833761D01*
X61260745Y-33861806D01*
X60676329Y-34446222D01*
X60636632Y-34406525D01*
X60393411Y-34244010D01*
X60123158Y-34132068D01*
X59836260Y-34075000D01*
X59543740Y-34075000D01*
X59256842Y-34132068D01*
X58986589Y-34244010D01*
X58743368Y-34406525D01*
X58611513Y-34538380D01*
X58589502Y-34465820D01*
X58530537Y-34355506D01*
X58451185Y-34258815D01*
X58354494Y-34179463D01*
X58244180Y-34120498D01*
X58124482Y-34084188D01*
X58000000Y-34071928D01*
X57435750Y-34075000D01*
X57277000Y-34233750D01*
X57277000Y-35433000D01*
X57297000Y-35433000D01*
X57297000Y-35687000D01*
X57277000Y-35687000D01*
X57277000Y-36886250D01*
X57435750Y-37045000D01*
X58000000Y-37048072D01*
X58124482Y-37035812D01*
X58244180Y-36999502D01*
X58354494Y-36940537D01*
X58451185Y-36861185D01*
X58530537Y-36764494D01*
X58589502Y-36654180D01*
X58611513Y-36581620D01*
X58743368Y-36713475D01*
X58972188Y-36866368D01*
X58549756Y-37288800D01*
X39977601Y-37288800D01*
X40001000Y-37171165D01*
X40001000Y-36996835D01*
X39966990Y-36825855D01*
X39900277Y-36664795D01*
X39803424Y-36519845D01*
X39693579Y-36410000D01*
X42961928Y-36410000D01*
X42974188Y-36534482D01*
X43010498Y-36654180D01*
X43069463Y-36764494D01*
X43148815Y-36861185D01*
X43245506Y-36940537D01*
X43355820Y-36999502D01*
X43475518Y-37035812D01*
X43600000Y-37048072D01*
X44164250Y-37045000D01*
X44323000Y-36886250D01*
X44323000Y-35687000D01*
X43123750Y-35687000D01*
X42965000Y-35845750D01*
X42961928Y-36410000D01*
X39693579Y-36410000D01*
X39680155Y-36396576D01*
X39535205Y-36299723D01*
X39374145Y-36233010D01*
X39287152Y-36215706D01*
X39254859Y-36183413D01*
X39231838Y-36155362D01*
X39126697Y-36069075D01*
X39113137Y-36043706D01*
X39080962Y-36004500D01*
X39113137Y-35965294D01*
X39172102Y-35854980D01*
X39208412Y-35735282D01*
X39220672Y-35610800D01*
X39220672Y-35052000D01*
X39208412Y-34927518D01*
X39172102Y-34807820D01*
X39119816Y-34710000D01*
X42961928Y-34710000D01*
X42965000Y-35274250D01*
X43123750Y-35433000D01*
X44323000Y-35433000D01*
X44323000Y-34233750D01*
X44164250Y-34075000D01*
X43600000Y-34071928D01*
X43475518Y-34084188D01*
X43355820Y-34120498D01*
X43245506Y-34179463D01*
X43148815Y-34258815D01*
X43069463Y-34355506D01*
X43010498Y-34465820D01*
X42974188Y-34585518D01*
X42961928Y-34710000D01*
X39119816Y-34710000D01*
X39113137Y-34697506D01*
X39033785Y-34600815D01*
X38937094Y-34521463D01*
X38826780Y-34462498D01*
X38707082Y-34426188D01*
X38582600Y-34413928D01*
X37160200Y-34413928D01*
X37035718Y-34426188D01*
X36916020Y-34462498D01*
X36805706Y-34521463D01*
X36803000Y-34523684D01*
X36803000Y-33832446D01*
X37862417Y-32773030D01*
X45703584Y-32773030D01*
X47005554Y-34075000D01*
X46843740Y-34075000D01*
X46556842Y-34132068D01*
X46286589Y-34244010D01*
X46043368Y-34406525D01*
X45911513Y-34538380D01*
X45889502Y-34465820D01*
X45830537Y-34355506D01*
X45751185Y-34258815D01*
X45654494Y-34179463D01*
X45544180Y-34120498D01*
X45424482Y-34084188D01*
X45300000Y-34071928D01*
X44735750Y-34075000D01*
X44577000Y-34233750D01*
X44577000Y-35433000D01*
X44597000Y-35433000D01*
X44597000Y-35687000D01*
X44577000Y-35687000D01*
X44577000Y-36886250D01*
X44735750Y-37045000D01*
X45300000Y-37048072D01*
X45424482Y-37035812D01*
X45544180Y-36999502D01*
X45654494Y-36940537D01*
X45751185Y-36861185D01*
X45830537Y-36764494D01*
X45889502Y-36654180D01*
X45911513Y-36581620D01*
X46043368Y-36713475D01*
X46286589Y-36875990D01*
X46556842Y-36987932D01*
X46843740Y-37045000D01*
X47136260Y-37045000D01*
X47423158Y-36987932D01*
X47693411Y-36875990D01*
X47936632Y-36713475D01*
X48143475Y-36506632D01*
X48260000Y-36332240D01*
X48376525Y-36506632D01*
X48583368Y-36713475D01*
X48826589Y-36875990D01*
X49096842Y-36987932D01*
X49383740Y-37045000D01*
X49676260Y-37045000D01*
X49963158Y-36987932D01*
X50233411Y-36875990D01*
X50476632Y-36713475D01*
X50683475Y-36506632D01*
X50748042Y-36410000D01*
X55661928Y-36410000D01*
X55674188Y-36534482D01*
X55710498Y-36654180D01*
X55769463Y-36764494D01*
X55848815Y-36861185D01*
X55945506Y-36940537D01*
X56055820Y-36999502D01*
X56175518Y-37035812D01*
X56300000Y-37048072D01*
X56864250Y-37045000D01*
X57023000Y-36886250D01*
X57023000Y-35687000D01*
X55823750Y-35687000D01*
X55665000Y-35845750D01*
X55661928Y-36410000D01*
X50748042Y-36410000D01*
X50845990Y-36263411D01*
X50957932Y-35993158D01*
X51015000Y-35706260D01*
X51015000Y-35413740D01*
X50957932Y-35126842D01*
X50845990Y-34856589D01*
X50748043Y-34710000D01*
X55661928Y-34710000D01*
X55665000Y-35274250D01*
X55823750Y-35433000D01*
X57023000Y-35433000D01*
X57023000Y-34233750D01*
X56864250Y-34075000D01*
X56300000Y-34071928D01*
X56175518Y-34084188D01*
X56055820Y-34120498D01*
X55945506Y-34179463D01*
X55848815Y-34258815D01*
X55769463Y-34355506D01*
X55710498Y-34465820D01*
X55674188Y-34585518D01*
X55661928Y-34710000D01*
X50748043Y-34710000D01*
X50683475Y-34613368D01*
X50476632Y-34406525D01*
X50233411Y-34244010D01*
X49963158Y-34132068D01*
X49676260Y-34075000D01*
X49383740Y-34075000D01*
X49134103Y-34124656D01*
X47432466Y-32423020D01*
X85115875Y-32423020D01*
X85151980Y-32426576D01*
X85188085Y-32423020D01*
X85296065Y-32412385D01*
X85434613Y-32370357D01*
X85562300Y-32302107D01*
X85674218Y-32210258D01*
X85697239Y-32182208D01*
X87234103Y-30645344D01*
X87483740Y-30695000D01*
X87776260Y-30695000D01*
X88063158Y-30637932D01*
X88333411Y-30525990D01*
X88576632Y-30363475D01*
X88783475Y-30156632D01*
X88945990Y-29913411D01*
X89057932Y-29643158D01*
X89115000Y-29356260D01*
X89115000Y-29063740D01*
X89057932Y-28776842D01*
X88945990Y-28506589D01*
X88783475Y-28263368D01*
X88576632Y-28056525D01*
X88333411Y-27894010D01*
X88063158Y-27782068D01*
X87776260Y-27725000D01*
X87483740Y-27725000D01*
X87196842Y-27782068D01*
X86926589Y-27894010D01*
X86683368Y-28056525D01*
X86476525Y-28263368D01*
X86360000Y-28437760D01*
X86243475Y-28263368D01*
X86036632Y-28056525D01*
X85793411Y-27894010D01*
X85523158Y-27782068D01*
X85236260Y-27725000D01*
X84943740Y-27725000D01*
X84656842Y-27782068D01*
X84386589Y-27894010D01*
X84143368Y-28056525D01*
X84011513Y-28188380D01*
X83989502Y-28115820D01*
X83930537Y-28005506D01*
X83851185Y-27908815D01*
X83754494Y-27829463D01*
X83644180Y-27770498D01*
X83524482Y-27734188D01*
X83400000Y-27721928D01*
X82835750Y-27725000D01*
X82677000Y-27883750D01*
X82677000Y-29083000D01*
X82697000Y-29083000D01*
X82697000Y-29337000D01*
X82677000Y-29337000D01*
X82677000Y-30536250D01*
X82835750Y-30695000D01*
X83400000Y-30698072D01*
X83524482Y-30685812D01*
X83644180Y-30649502D01*
X83754494Y-30590537D01*
X83851185Y-30511185D01*
X83930537Y-30414494D01*
X83989502Y-30304180D01*
X84011513Y-30231620D01*
X84143368Y-30363475D01*
X84386589Y-30525990D01*
X84656842Y-30637932D01*
X84943740Y-30695000D01*
X85105554Y-30695000D01*
X84847534Y-30953020D01*
X74226426Y-30953020D01*
X74534103Y-30645344D01*
X74783740Y-30695000D01*
X75076260Y-30695000D01*
X75363158Y-30637932D01*
X75633411Y-30525990D01*
X75876632Y-30363475D01*
X76083475Y-30156632D01*
X76148042Y-30060000D01*
X81061928Y-30060000D01*
X81074188Y-30184482D01*
X81110498Y-30304180D01*
X81169463Y-30414494D01*
X81248815Y-30511185D01*
X81345506Y-30590537D01*
X81455820Y-30649502D01*
X81575518Y-30685812D01*
X81700000Y-30698072D01*
X82264250Y-30695000D01*
X82423000Y-30536250D01*
X82423000Y-29337000D01*
X81223750Y-29337000D01*
X81065000Y-29495750D01*
X81061928Y-30060000D01*
X76148042Y-30060000D01*
X76245990Y-29913411D01*
X76357932Y-29643158D01*
X76415000Y-29356260D01*
X76415000Y-29063740D01*
X76357932Y-28776842D01*
X76245990Y-28506589D01*
X76148043Y-28360000D01*
X81061928Y-28360000D01*
X81065000Y-28924250D01*
X81223750Y-29083000D01*
X82423000Y-29083000D01*
X82423000Y-27883750D01*
X82264250Y-27725000D01*
X81700000Y-27721928D01*
X81575518Y-27734188D01*
X81455820Y-27770498D01*
X81345506Y-27829463D01*
X81248815Y-27908815D01*
X81169463Y-28005506D01*
X81110498Y-28115820D01*
X81074188Y-28235518D01*
X81061928Y-28360000D01*
X76148043Y-28360000D01*
X76083475Y-28263368D01*
X75876632Y-28056525D01*
X75633411Y-27894010D01*
X75363158Y-27782068D01*
X75076260Y-27725000D01*
X74783740Y-27725000D01*
X74496842Y-27782068D01*
X74226589Y-27894010D01*
X73983368Y-28056525D01*
X73776525Y-28263368D01*
X73660000Y-28437760D01*
X73543475Y-28263368D01*
X73336632Y-28056525D01*
X73093411Y-27894010D01*
X72823158Y-27782068D01*
X72536260Y-27725000D01*
X72243740Y-27725000D01*
X71956842Y-27782068D01*
X71686589Y-27894010D01*
X71443368Y-28056525D01*
X71311513Y-28188380D01*
X71289502Y-28115820D01*
X71230537Y-28005506D01*
X71151185Y-27908815D01*
X71054494Y-27829463D01*
X70944180Y-27770498D01*
X70824482Y-27734188D01*
X70700000Y-27721928D01*
X70135750Y-27725000D01*
X69977000Y-27883750D01*
X69977000Y-29083000D01*
X69997000Y-29083000D01*
X69997000Y-29337000D01*
X69977000Y-29337000D01*
X69977000Y-29357000D01*
X69723000Y-29357000D01*
X69723000Y-29337000D01*
X68523750Y-29337000D01*
X68365000Y-29495750D01*
X68361928Y-30060000D01*
X68374188Y-30184482D01*
X68410498Y-30304180D01*
X68469463Y-30414494D01*
X68548815Y-30511185D01*
X68645506Y-30590537D01*
X68668841Y-30603010D01*
X62747468Y-30603010D01*
X62933411Y-30525990D01*
X63176632Y-30363475D01*
X63383475Y-30156632D01*
X63545990Y-29913411D01*
X63657932Y-29643158D01*
X63715000Y-29356260D01*
X63715000Y-29063740D01*
X63657932Y-28776842D01*
X63545990Y-28506589D01*
X63448043Y-28360000D01*
X68361928Y-28360000D01*
X68365000Y-28924250D01*
X68523750Y-29083000D01*
X69723000Y-29083000D01*
X69723000Y-27883750D01*
X69564250Y-27725000D01*
X69000000Y-27721928D01*
X68875518Y-27734188D01*
X68755820Y-27770498D01*
X68645506Y-27829463D01*
X68548815Y-27908815D01*
X68469463Y-28005506D01*
X68410498Y-28115820D01*
X68374188Y-28235518D01*
X68361928Y-28360000D01*
X63448043Y-28360000D01*
X63383475Y-28263368D01*
X63176632Y-28056525D01*
X62933411Y-27894010D01*
X62663158Y-27782068D01*
X62376260Y-27725000D01*
X62083740Y-27725000D01*
X61796842Y-27782068D01*
X61526589Y-27894010D01*
X61283368Y-28056525D01*
X61076525Y-28263368D01*
X60960000Y-28437760D01*
X60843475Y-28263368D01*
X60636632Y-28056525D01*
X60393411Y-27894010D01*
X60123158Y-27782068D01*
X59836260Y-27725000D01*
X59543740Y-27725000D01*
X59256842Y-27782068D01*
X58986589Y-27894010D01*
X58743368Y-28056525D01*
X58611513Y-28188380D01*
X58589502Y-28115820D01*
X58530537Y-28005506D01*
X58451185Y-27908815D01*
X58354494Y-27829463D01*
X58244180Y-27770498D01*
X58124482Y-27734188D01*
X58000000Y-27721928D01*
X57435750Y-27725000D01*
X57277000Y-27883750D01*
X57277000Y-29083000D01*
X57297000Y-29083000D01*
X57297000Y-29337000D01*
X57277000Y-29337000D01*
X57277000Y-29357000D01*
X57023000Y-29357000D01*
X57023000Y-29337000D01*
X55823750Y-29337000D01*
X55665000Y-29495750D01*
X55661928Y-30060000D01*
X55674188Y-30184482D01*
X55694973Y-30253000D01*
X50587107Y-30253000D01*
X50683475Y-30156632D01*
X50845990Y-29913411D01*
X50957932Y-29643158D01*
X51015000Y-29356260D01*
X51015000Y-29063740D01*
X50957932Y-28776842D01*
X50845990Y-28506589D01*
X50748043Y-28360000D01*
X55661928Y-28360000D01*
X55665000Y-28924250D01*
X55823750Y-29083000D01*
X57023000Y-29083000D01*
X57023000Y-27883750D01*
X56864250Y-27725000D01*
X56300000Y-27721928D01*
X56175518Y-27734188D01*
X56055820Y-27770498D01*
X55945506Y-27829463D01*
X55848815Y-27908815D01*
X55769463Y-28005506D01*
X55710498Y-28115820D01*
X55674188Y-28235518D01*
X55661928Y-28360000D01*
X50748043Y-28360000D01*
X50683475Y-28263368D01*
X50476632Y-28056525D01*
X50233411Y-27894010D01*
X49963158Y-27782068D01*
X49676260Y-27725000D01*
X49383740Y-27725000D01*
X49134103Y-27774656D01*
X48036476Y-26677030D01*
X84511865Y-26677030D01*
X84547970Y-26680586D01*
X84584075Y-26677030D01*
X84692055Y-26666395D01*
X84830603Y-26624367D01*
X84958290Y-26556117D01*
X85070208Y-26464268D01*
X85093229Y-26436217D01*
X87234103Y-24295344D01*
X87483740Y-24345000D01*
X87776260Y-24345000D01*
X88063158Y-24287932D01*
X88333411Y-24175990D01*
X88576632Y-24013475D01*
X88783475Y-23806632D01*
X88945990Y-23563411D01*
X89057932Y-23293158D01*
X89115000Y-23006260D01*
X89115000Y-22713740D01*
X89057932Y-22426842D01*
X88945990Y-22156589D01*
X88783475Y-21913368D01*
X88576632Y-21706525D01*
X88333411Y-21544010D01*
X88063158Y-21432068D01*
X87776260Y-21375000D01*
X87483740Y-21375000D01*
X87196842Y-21432068D01*
X86926589Y-21544010D01*
X86683368Y-21706525D01*
X86476525Y-21913368D01*
X86360000Y-22087760D01*
X86243475Y-21913368D01*
X86036632Y-21706525D01*
X85793411Y-21544010D01*
X85523158Y-21432068D01*
X85236260Y-21375000D01*
X84943740Y-21375000D01*
X84656842Y-21432068D01*
X84386589Y-21544010D01*
X84143368Y-21706525D01*
X84011513Y-21838380D01*
X83989502Y-21765820D01*
X83930537Y-21655506D01*
X83851185Y-21558815D01*
X83754494Y-21479463D01*
X83644180Y-21420498D01*
X83524482Y-21384188D01*
X83400000Y-21371928D01*
X82835750Y-21375000D01*
X82677000Y-21533750D01*
X82677000Y-22733000D01*
X82697000Y-22733000D01*
X82697000Y-22987000D01*
X82677000Y-22987000D01*
X82677000Y-24186250D01*
X82835750Y-24345000D01*
X83400000Y-24348072D01*
X83524482Y-24335812D01*
X83644180Y-24299502D01*
X83754494Y-24240537D01*
X83851185Y-24161185D01*
X83930537Y-24064494D01*
X83989502Y-23954180D01*
X84011513Y-23881620D01*
X84143368Y-24013475D01*
X84386589Y-24175990D01*
X84656842Y-24287932D01*
X84943740Y-24345000D01*
X85105554Y-24345000D01*
X84243524Y-25207030D01*
X73622416Y-25207030D01*
X74534103Y-24295344D01*
X74783740Y-24345000D01*
X75076260Y-24345000D01*
X75363158Y-24287932D01*
X75633411Y-24175990D01*
X75876632Y-24013475D01*
X76083475Y-23806632D01*
X76148042Y-23710000D01*
X81061928Y-23710000D01*
X81074188Y-23834482D01*
X81110498Y-23954180D01*
X81169463Y-24064494D01*
X81248815Y-24161185D01*
X81345506Y-24240537D01*
X81455820Y-24299502D01*
X81575518Y-24335812D01*
X81700000Y-24348072D01*
X82264250Y-24345000D01*
X82423000Y-24186250D01*
X82423000Y-22987000D01*
X81223750Y-22987000D01*
X81065000Y-23145750D01*
X81061928Y-23710000D01*
X76148042Y-23710000D01*
X76245990Y-23563411D01*
X76357932Y-23293158D01*
X76415000Y-23006260D01*
X76415000Y-22713740D01*
X76357932Y-22426842D01*
X76245990Y-22156589D01*
X76148043Y-22010000D01*
X81061928Y-22010000D01*
X81065000Y-22574250D01*
X81223750Y-22733000D01*
X82423000Y-22733000D01*
X82423000Y-21533750D01*
X82264250Y-21375000D01*
X81700000Y-21371928D01*
X81575518Y-21384188D01*
X81455820Y-21420498D01*
X81345506Y-21479463D01*
X81248815Y-21558815D01*
X81169463Y-21655506D01*
X81110498Y-21765820D01*
X81074188Y-21885518D01*
X81061928Y-22010000D01*
X76148043Y-22010000D01*
X76083475Y-21913368D01*
X75876632Y-21706525D01*
X75633411Y-21544010D01*
X75363158Y-21432068D01*
X75076260Y-21375000D01*
X74783740Y-21375000D01*
X74496842Y-21432068D01*
X74226589Y-21544010D01*
X73983368Y-21706525D01*
X73776525Y-21913368D01*
X73660000Y-22087760D01*
X73543475Y-21913368D01*
X73336632Y-21706525D01*
X73093411Y-21544010D01*
X72823158Y-21432068D01*
X72536260Y-21375000D01*
X72243740Y-21375000D01*
X71956842Y-21432068D01*
X71686589Y-21544010D01*
X71443368Y-21706525D01*
X71311513Y-21838380D01*
X71289502Y-21765820D01*
X71230537Y-21655506D01*
X71151185Y-21558815D01*
X71054494Y-21479463D01*
X70944180Y-21420498D01*
X70824482Y-21384188D01*
X70700000Y-21371928D01*
X70135750Y-21375000D01*
X69977000Y-21533750D01*
X69977000Y-22733000D01*
X69997000Y-22733000D01*
X69997000Y-22987000D01*
X69977000Y-22987000D01*
X69977000Y-24186250D01*
X70135750Y-24345000D01*
X70700000Y-24348072D01*
X70824482Y-24335812D01*
X70944180Y-24299502D01*
X71054494Y-24240537D01*
X71151185Y-24161185D01*
X71230537Y-24064494D01*
X71289502Y-23954180D01*
X71311513Y-23881620D01*
X71443368Y-24013475D01*
X71686589Y-24175990D01*
X71956842Y-24287932D01*
X72243740Y-24345000D01*
X72405554Y-24345000D01*
X71893534Y-24857020D01*
X61272426Y-24857020D01*
X61834103Y-24295344D01*
X62083740Y-24345000D01*
X62376260Y-24345000D01*
X62663158Y-24287932D01*
X62933411Y-24175990D01*
X63176632Y-24013475D01*
X63383475Y-23806632D01*
X63448042Y-23710000D01*
X68361928Y-23710000D01*
X68374188Y-23834482D01*
X68410498Y-23954180D01*
X68469463Y-24064494D01*
X68548815Y-24161185D01*
X68645506Y-24240537D01*
X68755820Y-24299502D01*
X68875518Y-24335812D01*
X69000000Y-24348072D01*
X69564250Y-24345000D01*
X69723000Y-24186250D01*
X69723000Y-22987000D01*
X68523750Y-22987000D01*
X68365000Y-23145750D01*
X68361928Y-23710000D01*
X63448042Y-23710000D01*
X63545990Y-23563411D01*
X63657932Y-23293158D01*
X63715000Y-23006260D01*
X63715000Y-22713740D01*
X63657932Y-22426842D01*
X63545990Y-22156589D01*
X63448043Y-22010000D01*
X68361928Y-22010000D01*
X68365000Y-22574250D01*
X68523750Y-22733000D01*
X69723000Y-22733000D01*
X69723000Y-21533750D01*
X69564250Y-21375000D01*
X69000000Y-21371928D01*
X68875518Y-21384188D01*
X68755820Y-21420498D01*
X68645506Y-21479463D01*
X68548815Y-21558815D01*
X68469463Y-21655506D01*
X68410498Y-21765820D01*
X68374188Y-21885518D01*
X68361928Y-22010000D01*
X63448043Y-22010000D01*
X63383475Y-21913368D01*
X63176632Y-21706525D01*
X62933411Y-21544010D01*
X62663158Y-21432068D01*
X62376260Y-21375000D01*
X62083740Y-21375000D01*
X61796842Y-21432068D01*
X61526589Y-21544010D01*
X61283368Y-21706525D01*
X61076525Y-21913368D01*
X60960000Y-22087760D01*
X60843475Y-21913368D01*
X60636632Y-21706525D01*
X60393411Y-21544010D01*
X60123158Y-21432068D01*
X59836260Y-21375000D01*
X59543740Y-21375000D01*
X59256842Y-21432068D01*
X58986589Y-21544010D01*
X58743368Y-21706525D01*
X58611513Y-21838380D01*
X58589502Y-21765820D01*
X58530537Y-21655506D01*
X58451185Y-21558815D01*
X58354494Y-21479463D01*
X58244180Y-21420498D01*
X58124482Y-21384188D01*
X58000000Y-21371928D01*
X57435750Y-21375000D01*
X57277000Y-21533750D01*
X57277000Y-22733000D01*
X57297000Y-22733000D01*
X57297000Y-22987000D01*
X57277000Y-22987000D01*
X57277000Y-24186250D01*
X57435750Y-24345000D01*
X58000000Y-24348072D01*
X58124482Y-24335812D01*
X58244180Y-24299502D01*
X58354494Y-24240537D01*
X58451185Y-24161185D01*
X58530537Y-24064494D01*
X58589502Y-23954180D01*
X58611513Y-23881620D01*
X58743368Y-24013475D01*
X58986589Y-24175990D01*
X59256842Y-24287932D01*
X59543740Y-24345000D01*
X59705554Y-24345000D01*
X59543544Y-24507010D01*
X48922436Y-24507010D01*
X49134103Y-24295344D01*
X49383740Y-24345000D01*
X49676260Y-24345000D01*
X49963158Y-24287932D01*
X50233411Y-24175990D01*
X50476632Y-24013475D01*
X50683475Y-23806632D01*
X50748042Y-23710000D01*
X55661928Y-23710000D01*
X55674188Y-23834482D01*
X55710498Y-23954180D01*
X55769463Y-24064494D01*
X55848815Y-24161185D01*
X55945506Y-24240537D01*
X56055820Y-24299502D01*
X56175518Y-24335812D01*
X56300000Y-24348072D01*
X56864250Y-24345000D01*
X57023000Y-24186250D01*
X57023000Y-22987000D01*
X55823750Y-22987000D01*
X55665000Y-23145750D01*
X55661928Y-23710000D01*
X50748042Y-23710000D01*
X50845990Y-23563411D01*
X50957932Y-23293158D01*
X51015000Y-23006260D01*
X51015000Y-22713740D01*
X50957932Y-22426842D01*
X50845990Y-22156589D01*
X50748043Y-22010000D01*
X55661928Y-22010000D01*
X55665000Y-22574250D01*
X55823750Y-22733000D01*
X57023000Y-22733000D01*
X57023000Y-21533750D01*
X56864250Y-21375000D01*
X56300000Y-21371928D01*
X56175518Y-21384188D01*
X56055820Y-21420498D01*
X55945506Y-21479463D01*
X55848815Y-21558815D01*
X55769463Y-21655506D01*
X55710498Y-21765820D01*
X55674188Y-21885518D01*
X55661928Y-22010000D01*
X50748043Y-22010000D01*
X50683475Y-21913368D01*
X50476632Y-21706525D01*
X50233411Y-21544010D01*
X49963158Y-21432068D01*
X49676260Y-21375000D01*
X49383740Y-21375000D01*
X49096842Y-21432068D01*
X48826589Y-21544010D01*
X48583368Y-21706525D01*
X48376525Y-21913368D01*
X48260000Y-22087760D01*
X48143475Y-21913368D01*
X47936632Y-21706525D01*
X47693411Y-21544010D01*
X47423158Y-21432068D01*
X47136260Y-21375000D01*
X46843740Y-21375000D01*
X46556842Y-21432068D01*
X46286589Y-21544010D01*
X46043368Y-21706525D01*
X45911513Y-21838380D01*
X45889502Y-21765820D01*
X45830537Y-21655506D01*
X45751185Y-21558815D01*
X45654494Y-21479463D01*
X45544180Y-21420498D01*
X45424482Y-21384188D01*
X45300000Y-21371928D01*
X44735750Y-21375000D01*
X44577000Y-21533750D01*
X44577000Y-22733000D01*
X44597000Y-22733000D01*
X44597000Y-22987000D01*
X44577000Y-22987000D01*
X44577000Y-23007000D01*
X44323000Y-23007000D01*
X44323000Y-22987000D01*
X43123750Y-22987000D01*
X42965000Y-23145750D01*
X42961928Y-23710000D01*
X42974188Y-23834482D01*
X43010498Y-23954180D01*
X43069463Y-24064494D01*
X43145380Y-24157000D01*
X37628094Y-24157000D01*
X37591999Y-24153445D01*
X37555904Y-24157000D01*
X37555895Y-24157000D01*
X37447915Y-24167635D01*
X37309367Y-24209663D01*
X37181680Y-24277913D01*
X37069762Y-24369762D01*
X37046746Y-24397807D01*
X36649369Y-24795184D01*
X36685000Y-24616055D01*
X36685000Y-23643945D01*
X36495350Y-22690514D01*
X36213473Y-22010000D01*
X42961928Y-22010000D01*
X42965000Y-22574250D01*
X43123750Y-22733000D01*
X44323000Y-22733000D01*
X44323000Y-21533750D01*
X44164250Y-21375000D01*
X43600000Y-21371928D01*
X43475518Y-21384188D01*
X43355820Y-21420498D01*
X43245506Y-21479463D01*
X43148815Y-21558815D01*
X43069463Y-21655506D01*
X43010498Y-21765820D01*
X42974188Y-21885518D01*
X42961928Y-22010000D01*
X36213473Y-22010000D01*
X36123340Y-21792401D01*
X35583265Y-20984121D01*
X34895879Y-20296735D01*
X34087599Y-19756660D01*
X33189486Y-19384650D01*
X32236055Y-19195000D01*
X31263945Y-19195000D01*
X30310514Y-19384650D01*
X29412401Y-19756660D01*
X28604121Y-20296735D01*
X27916735Y-20984121D01*
X27376660Y-21792401D01*
X27004650Y-22690514D01*
X26815000Y-23643945D01*
X26125370Y-23643945D01*
X26156837Y-23244130D01*
X26364279Y-22380073D01*
X26704334Y-21559109D01*
X27168633Y-20801441D01*
X27745738Y-20125738D01*
X28421441Y-19548633D01*
X29179107Y-19084334D01*
X30000072Y-18744279D01*
X30864136Y-18536837D01*
X31776909Y-18465000D01*
X99033092Y-18465000D01*
X99945870Y-18536837D01*
G37*
%TD.AperFunction*%
D24*
X53085970Y-50527549D02*
X53113683Y-50561317D01*
X53147451Y-50589030D01*
X53147453Y-50589032D01*
X53248441Y-50671911D01*
X53402186Y-50754089D01*
X53553533Y-50800000D01*
X53569010Y-50804695D01*
X53609164Y-50808650D01*
X53609528Y-50809851D01*
X53691595Y-50963387D01*
X53802038Y-51097962D01*
X53936613Y-51208405D01*
X54090149Y-51290472D01*
X54256745Y-51341008D01*
X54429999Y-51358072D01*
X56053994Y-51358072D01*
X57478071Y-52782149D01*
X56165750Y-52785000D01*
X56007000Y-52943750D01*
X56007000Y-54080500D01*
X58056250Y-54080500D01*
X58215000Y-53921750D01*
X58217450Y-53521529D01*
X61170968Y-56475047D01*
X61198683Y-56508817D01*
X61232451Y-56536530D01*
X61232453Y-56536532D01*
X61275241Y-56571647D01*
X61333441Y-56619411D01*
X61487187Y-56701589D01*
X61654010Y-56752195D01*
X61784023Y-56765000D01*
X61784033Y-56765000D01*
X61827499Y-56769281D01*
X61870965Y-56765000D01*
X63575344Y-56765000D01*
X63616525Y-56826632D01*
X63823368Y-57033475D01*
X64066589Y-57195990D01*
X64336842Y-57307932D01*
X64623740Y-57365000D01*
X64916260Y-57365000D01*
X64988961Y-57350539D01*
X66653470Y-59015049D01*
X66681183Y-59048817D01*
X66714951Y-59076530D01*
X66714953Y-59076532D01*
X66786452Y-59135210D01*
X66815941Y-59159411D01*
X66908717Y-59209000D01*
X53898447Y-59209000D01*
X49684447Y-54995000D01*
X53541928Y-54995000D01*
X53554188Y-55119482D01*
X53590498Y-55239180D01*
X53649463Y-55349494D01*
X53728815Y-55446185D01*
X53825506Y-55525537D01*
X53935820Y-55584502D01*
X54055518Y-55620812D01*
X54180000Y-55633072D01*
X55594250Y-55630000D01*
X55753000Y-55471250D01*
X55753000Y-54334500D01*
X56007000Y-54334500D01*
X56007000Y-55471250D01*
X56165750Y-55630000D01*
X57580000Y-55633072D01*
X57704482Y-55620812D01*
X57824180Y-55584502D01*
X57934494Y-55525537D01*
X58031185Y-55446185D01*
X58110537Y-55349494D01*
X58169502Y-55239180D01*
X58205812Y-55119482D01*
X58218072Y-54995000D01*
X58215000Y-54493250D01*
X58056250Y-54334500D01*
X56007000Y-54334500D01*
X55753000Y-54334500D01*
X53703750Y-54334500D01*
X53545000Y-54493250D01*
X53541928Y-54995000D01*
X49684447Y-54995000D01*
X49464447Y-54775000D01*
X49671335Y-54775000D01*
X49948574Y-54719853D01*
X50209727Y-54611680D01*
X50444759Y-54454637D01*
X50644637Y-54254759D01*
X50801680Y-54019727D01*
X50909853Y-53758574D01*
X50965000Y-53481335D01*
X50965000Y-53420000D01*
X53541928Y-53420000D01*
X53545000Y-53921750D01*
X53703750Y-54080500D01*
X55753000Y-54080500D01*
X55753000Y-52943750D01*
X55594250Y-52785000D01*
X54180000Y-52781928D01*
X54055518Y-52794188D01*
X53935820Y-52830498D01*
X53825506Y-52889463D01*
X53728815Y-52968815D01*
X53649463Y-53065506D01*
X53590498Y-53175820D01*
X53554188Y-53295518D01*
X53541928Y-53420000D01*
X50965000Y-53420000D01*
X50965000Y-53198665D01*
X50909853Y-52921426D01*
X50801680Y-52660273D01*
X50644637Y-52425241D01*
X50444759Y-52225363D01*
X50212241Y-52070000D01*
X50444759Y-51914637D01*
X50644637Y-51714759D01*
X50801680Y-51479727D01*
X50909853Y-51218574D01*
X50965000Y-50941335D01*
X50965000Y-50658665D01*
X50909853Y-50381426D01*
X50801680Y-50120273D01*
X50644637Y-49885241D01*
X50444759Y-49685363D01*
X50212241Y-49530000D01*
X50444759Y-49374637D01*
X50644637Y-49174759D01*
X50801680Y-48939727D01*
X50909853Y-48678574D01*
X50964130Y-48405709D01*
X53085970Y-50527549D01*
%TA.AperFunction,Conductor*%
D25*
G36*
X53085970Y-50527549D02*
G01*
X53113683Y-50561317D01*
X53147451Y-50589030D01*
X53147453Y-50589032D01*
X53248441Y-50671911D01*
X53402186Y-50754089D01*
X53553533Y-50800000D01*
X53569010Y-50804695D01*
X53609164Y-50808650D01*
X53609528Y-50809851D01*
X53691595Y-50963387D01*
X53802038Y-51097962D01*
X53936613Y-51208405D01*
X54090149Y-51290472D01*
X54256745Y-51341008D01*
X54429999Y-51358072D01*
X56053994Y-51358072D01*
X57478071Y-52782149D01*
X56165750Y-52785000D01*
X56007000Y-52943750D01*
X56007000Y-54080500D01*
X58056250Y-54080500D01*
X58215000Y-53921750D01*
X58217450Y-53521529D01*
X61170968Y-56475047D01*
X61198683Y-56508817D01*
X61232451Y-56536530D01*
X61232453Y-56536532D01*
X61275241Y-56571647D01*
X61333441Y-56619411D01*
X61487187Y-56701589D01*
X61654010Y-56752195D01*
X61784023Y-56765000D01*
X61784033Y-56765000D01*
X61827499Y-56769281D01*
X61870965Y-56765000D01*
X63575344Y-56765000D01*
X63616525Y-56826632D01*
X63823368Y-57033475D01*
X64066589Y-57195990D01*
X64336842Y-57307932D01*
X64623740Y-57365000D01*
X64916260Y-57365000D01*
X64988961Y-57350539D01*
X66653470Y-59015049D01*
X66681183Y-59048817D01*
X66714951Y-59076530D01*
X66714953Y-59076532D01*
X66786452Y-59135210D01*
X66815941Y-59159411D01*
X66908717Y-59209000D01*
X53898447Y-59209000D01*
X49684447Y-54995000D01*
X53541928Y-54995000D01*
X53554188Y-55119482D01*
X53590498Y-55239180D01*
X53649463Y-55349494D01*
X53728815Y-55446185D01*
X53825506Y-55525537D01*
X53935820Y-55584502D01*
X54055518Y-55620812D01*
X54180000Y-55633072D01*
X55594250Y-55630000D01*
X55753000Y-55471250D01*
X55753000Y-54334500D01*
X56007000Y-54334500D01*
X56007000Y-55471250D01*
X56165750Y-55630000D01*
X57580000Y-55633072D01*
X57704482Y-55620812D01*
X57824180Y-55584502D01*
X57934494Y-55525537D01*
X58031185Y-55446185D01*
X58110537Y-55349494D01*
X58169502Y-55239180D01*
X58205812Y-55119482D01*
X58218072Y-54995000D01*
X58215000Y-54493250D01*
X58056250Y-54334500D01*
X56007000Y-54334500D01*
X55753000Y-54334500D01*
X53703750Y-54334500D01*
X53545000Y-54493250D01*
X53541928Y-54995000D01*
X49684447Y-54995000D01*
X49464447Y-54775000D01*
X49671335Y-54775000D01*
X49948574Y-54719853D01*
X50209727Y-54611680D01*
X50444759Y-54454637D01*
X50644637Y-54254759D01*
X50801680Y-54019727D01*
X50909853Y-53758574D01*
X50965000Y-53481335D01*
X50965000Y-53420000D01*
X53541928Y-53420000D01*
X53545000Y-53921750D01*
X53703750Y-54080500D01*
X55753000Y-54080500D01*
X55753000Y-52943750D01*
X55594250Y-52785000D01*
X54180000Y-52781928D01*
X54055518Y-52794188D01*
X53935820Y-52830498D01*
X53825506Y-52889463D01*
X53728815Y-52968815D01*
X53649463Y-53065506D01*
X53590498Y-53175820D01*
X53554188Y-53295518D01*
X53541928Y-53420000D01*
X50965000Y-53420000D01*
X50965000Y-53198665D01*
X50909853Y-52921426D01*
X50801680Y-52660273D01*
X50644637Y-52425241D01*
X50444759Y-52225363D01*
X50212241Y-52070000D01*
X50444759Y-51914637D01*
X50644637Y-51714759D01*
X50801680Y-51479727D01*
X50909853Y-51218574D01*
X50965000Y-50941335D01*
X50965000Y-50658665D01*
X50909853Y-50381426D01*
X50801680Y-50120273D01*
X50644637Y-49885241D01*
X50444759Y-49685363D01*
X50212241Y-49530000D01*
X50444759Y-49374637D01*
X50644637Y-49174759D01*
X50801680Y-48939727D01*
X50909853Y-48678574D01*
X50964130Y-48405709D01*
X53085970Y-50527549D01*
G37*
%TD.AperFunction*%
D24*
X47005554Y-27725000D02*
X46843740Y-27725000D01*
X46556842Y-27782068D01*
X46286589Y-27894010D01*
X46043368Y-28056525D01*
X45911513Y-28188380D01*
X45889502Y-28115820D01*
X45830537Y-28005506D01*
X45751185Y-27908815D01*
X45654494Y-27829463D01*
X45544180Y-27770498D01*
X45424482Y-27734188D01*
X45300000Y-27721928D01*
X44735750Y-27725000D01*
X44577000Y-27883750D01*
X44577000Y-29083000D01*
X44597000Y-29083000D01*
X44597000Y-29337000D01*
X44577000Y-29337000D01*
X44577000Y-29357000D01*
X44323000Y-29357000D01*
X44323000Y-29337000D01*
X43123750Y-29337000D01*
X42965000Y-29495750D01*
X42961928Y-30060000D01*
X42974188Y-30184482D01*
X42994973Y-30253000D01*
X37120094Y-30253000D01*
X37083999Y-30249445D01*
X37047904Y-30253000D01*
X37047895Y-30253000D01*
X36939915Y-30263635D01*
X36801367Y-30305663D01*
X36673680Y-30373913D01*
X36561762Y-30465762D01*
X36538746Y-30493807D01*
X34771000Y-32261554D01*
X34771000Y-30784446D01*
X37195446Y-28360000D01*
X42961928Y-28360000D01*
X42965000Y-28924250D01*
X43123750Y-29083000D01*
X44323000Y-29083000D01*
X44323000Y-27883750D01*
X44164250Y-27725000D01*
X43600000Y-27721928D01*
X43475518Y-27734188D01*
X43355820Y-27770498D01*
X43245506Y-27829463D01*
X43148815Y-27908815D01*
X43069463Y-28005506D01*
X43010498Y-28115820D01*
X42974188Y-28235518D01*
X42961928Y-28360000D01*
X37195446Y-28360000D01*
X38404447Y-27151000D01*
X46431554Y-27151000D01*
X47005554Y-27725000D01*
%TA.AperFunction,Conductor*%
D25*
G36*
X47005554Y-27725000D02*
G01*
X46843740Y-27725000D01*
X46556842Y-27782068D01*
X46286589Y-27894010D01*
X46043368Y-28056525D01*
X45911513Y-28188380D01*
X45889502Y-28115820D01*
X45830537Y-28005506D01*
X45751185Y-27908815D01*
X45654494Y-27829463D01*
X45544180Y-27770498D01*
X45424482Y-27734188D01*
X45300000Y-27721928D01*
X44735750Y-27725000D01*
X44577000Y-27883750D01*
X44577000Y-29083000D01*
X44597000Y-29083000D01*
X44597000Y-29337000D01*
X44577000Y-29337000D01*
X44577000Y-29357000D01*
X44323000Y-29357000D01*
X44323000Y-29337000D01*
X43123750Y-29337000D01*
X42965000Y-29495750D01*
X42961928Y-30060000D01*
X42974188Y-30184482D01*
X42994973Y-30253000D01*
X37120094Y-30253000D01*
X37083999Y-30249445D01*
X37047904Y-30253000D01*
X37047895Y-30253000D01*
X36939915Y-30263635D01*
X36801367Y-30305663D01*
X36673680Y-30373913D01*
X36561762Y-30465762D01*
X36538746Y-30493807D01*
X34771000Y-32261554D01*
X34771000Y-30784446D01*
X37195446Y-28360000D01*
X42961928Y-28360000D01*
X42965000Y-28924250D01*
X43123750Y-29083000D01*
X44323000Y-29083000D01*
X44323000Y-27883750D01*
X44164250Y-27725000D01*
X43600000Y-27721928D01*
X43475518Y-27734188D01*
X43355820Y-27770498D01*
X43245506Y-27829463D01*
X43148815Y-27908815D01*
X43069463Y-28005506D01*
X43010498Y-28115820D01*
X42974188Y-28235518D01*
X42961928Y-28360000D01*
X37195446Y-28360000D01*
X38404447Y-27151000D01*
X46431554Y-27151000D01*
X47005554Y-27725000D01*
G37*
%TD.AperFunction*%
%TD*%
M02*
