M48
; DRILL file {KiCad (5.1.8)-1} date 01/25/21 11:57:32
; FORMAT={-:-/ absolute / metric / decimal}
; #@! TF.CreationDate,2021-01-25T11:57:32-05:00
; #@! TF.GenerationSoftware,Kicad,Pcbnew,(5.1.8)-1
FMAT,2
METRIC
T1C0.200
T2C0.350
T3C1.000
T4C0.600
T5C4.300
%
G90
G05
T1
X39.116Y-37.084
X59.028Y-46.636
X84.328Y-33.528
X91.948Y-33.528
X93.004Y-28.593
X93.472Y-27.432
X93.494Y-29.464
X93.98Y-26.056
X96.52Y-33.528
X96.52Y-34.544
X96.52Y-35.56
X97.536Y-35.56
X97.536Y-36.576
X97.765Y-34.693
X97.83Y-33.528
X97.24Y-43.8
X97.24Y-45.1
X98.34Y-43.8
X98.34Y-45.1
T2
X28.448Y-35.052
X47.752Y-58.42
X60.452Y-58.42
X85.852Y-50.292
X90.932Y-43.688
X92.456Y-43.688
X92.964Y-42.672
X99.06Y-30.988
X101.427Y-45.039
X103.718Y-40.64
T3
X57.15Y-22.86
X59.69Y-22.86
X62.23Y-22.86
X64.77Y-53.34
X64.77Y-55.88
X67.31Y-53.34
X67.31Y-55.88
X69.85Y-53.34
X69.85Y-55.88
X57.15Y-35.56
X59.69Y-35.56
X62.23Y-35.56
X82.55Y-22.86
X85.09Y-22.86
X87.63Y-22.86
X82.55Y-29.21
X85.09Y-29.21
X87.63Y-29.21
X44.45Y-22.86
X46.99Y-22.86
X49.53Y-22.86
X41.91Y-45.72
X41.91Y-48.26
X41.91Y-50.8
X41.91Y-53.34
X49.53Y-45.72
X49.53Y-48.26
X49.53Y-50.8
X49.53Y-53.34
X85.09Y-36.83
X87.63Y-36.83
X69.85Y-29.21
X72.39Y-29.21
X74.93Y-29.21
X78.74Y-55.88
X81.28Y-55.88
X44.45Y-35.56
X46.99Y-35.56
X49.53Y-35.56
X69.85Y-22.86
X72.39Y-22.86
X74.93Y-22.86
X44.45Y-29.21
X46.99Y-29.21
X49.53Y-29.21
X85.09Y-43.18
X87.63Y-43.18
X57.15Y-29.21
X59.69Y-29.21
X62.23Y-29.21
X69.85Y-35.56
X72.39Y-35.56
X74.93Y-35.56
T4
X28.525Y-24.13
X29.47Y-21.85
X29.47Y-26.41
X31.75Y-20.905
X31.75Y-27.355
X34.03Y-21.85
X34.03Y-26.41
X34.975Y-24.13
X95.835Y-55.88
X96.78Y-53.6
X96.78Y-58.16
X99.06Y-52.655
X99.06Y-59.105
X101.34Y-53.6
X101.34Y-58.16
X102.285Y-55.88
X28.525Y-55.88
X29.47Y-53.6
X29.47Y-58.16
X31.75Y-52.655
X31.75Y-59.105
X34.03Y-53.6
X34.03Y-58.16
X34.975Y-55.88
X95.835Y-24.13
X96.78Y-21.85
X96.78Y-26.41
X99.06Y-20.905
X99.06Y-27.355
X101.34Y-21.85
X101.34Y-26.41
X102.285Y-24.13
T5
X99.06Y-55.88
X31.75Y-55.88
X99.06Y-24.13
X31.75Y-24.13
T0
M30
