%TF.GenerationSoftware,KiCad,Pcbnew,(5.1.8)-1*%
%TF.CreationDate,2021-01-25T11:57:41-05:00*%
%TF.ProjectId,Analog_Panel,416e616c-6f67-45f5-9061-6e656c2e6b69,rev?*%
%TF.SameCoordinates,Original*%
%TF.FileFunction,Copper,L2,Bot*%
%TF.FilePolarity,Positive*%
%FSLAX46Y46*%
G04 Gerber Fmt 4.6, Leading zero omitted, Abs format (unit mm)*
G04 Created by KiCad (PCBNEW (5.1.8)-1) date 2021-01-25 11:57:41*
%MOMM*%
%LPD*%
G01*
G04 APERTURE LIST*
%TA.AperFunction,WasherPad*%
%ADD10C,8.600000*%
%TD*%
%TA.AperFunction,WasherPad*%
%ADD11C,0.900000*%
%TD*%
%TA.AperFunction,ComponentPad*%
%ADD12R,1.700000X1.700000*%
%TD*%
%TA.AperFunction,ComponentPad*%
%ADD13O,1.700000X1.700000*%
%TD*%
%TA.AperFunction,ComponentPad*%
%ADD14R,1.600000X1.600000*%
%TD*%
%TA.AperFunction,ComponentPad*%
%ADD15C,1.600000*%
%TD*%
%TA.AperFunction,ComponentPad*%
%ADD16C,0.500000*%
%TD*%
%TA.AperFunction,SMDPad,CuDef*%
%ADD17R,1.600000X1.800000*%
%TD*%
%TA.AperFunction,ViaPad*%
%ADD18C,0.500000*%
%TD*%
%TA.AperFunction,Conductor*%
%ADD19C,0.500000*%
%TD*%
%TA.AperFunction,Conductor*%
%ADD20C,0.180000*%
%TD*%
%TA.AperFunction,Conductor*%
%ADD21C,0.200000*%
%TD*%
%TA.AperFunction,Conductor*%
%ADD22C,0.254000*%
%TD*%
%TA.AperFunction,Conductor*%
%ADD23C,0.100000*%
%TD*%
G04 APERTURE END LIST*
D10*
%TO.P,REF\u002A\u002A,*%
%TO.N,*%
X31750000Y-24130000D03*
D11*
X34975000Y-24130000D03*
X34030419Y-26410419D03*
X31750000Y-27355000D03*
X29469581Y-26410419D03*
X28525000Y-24130000D03*
X29469581Y-21849581D03*
X31750000Y-20905000D03*
X34030419Y-21849581D03*
%TD*%
D10*
%TO.P,REF\u002A\u002A,*%
%TO.N,*%
X99060000Y-24130000D03*
D11*
X102285000Y-24130000D03*
X101340419Y-26410419D03*
X99060000Y-27355000D03*
X96779581Y-26410419D03*
X95835000Y-24130000D03*
X96779581Y-21849581D03*
X99060000Y-20905000D03*
X101340419Y-21849581D03*
%TD*%
D10*
%TO.P,REF\u002A\u002A,*%
%TO.N,*%
X99060000Y-55880000D03*
D11*
X102285000Y-55880000D03*
X101340419Y-58160419D03*
X99060000Y-59105000D03*
X96779581Y-58160419D03*
X95835000Y-55880000D03*
X96779581Y-53599581D03*
X99060000Y-52655000D03*
X101340419Y-53599581D03*
%TD*%
D10*
%TO.P,REF\u002A\u002A,*%
%TO.N,*%
X31750000Y-55880000D03*
D11*
X34975000Y-55880000D03*
X34030419Y-58160419D03*
X31750000Y-59105000D03*
X29469581Y-58160419D03*
X28525000Y-55880000D03*
X29469581Y-53599581D03*
X31750000Y-52655000D03*
X34030419Y-53599581D03*
%TD*%
D12*
%TO.P,J1,1*%
%TO.N,/MISO_DATA*%
X64770000Y-53340000D03*
D13*
%TO.P,J1,2*%
%TO.N,+5V*%
X64770000Y-55880000D03*
%TO.P,J1,3*%
%TO.N,/SCK*%
X67310000Y-53340000D03*
%TO.P,J1,4*%
%TO.N,/MOSI_SDA*%
X67310000Y-55880000D03*
%TO.P,J1,5*%
%TO.N,/RST*%
X69850000Y-53340000D03*
%TO.P,J1,6*%
%TO.N,GND*%
X69850000Y-55880000D03*
%TD*%
D12*
%TO.P,J2,1*%
%TO.N,+5V*%
X78740000Y-55880000D03*
D13*
%TO.P,J2,2*%
%TO.N,GND*%
X81280000Y-55880000D03*
%TD*%
D12*
%TO.P,J3,1*%
%TO.N,GND*%
X44450000Y-22860000D03*
D13*
%TO.P,J3,2*%
%TO.N,/A0*%
X46990000Y-22860000D03*
%TO.P,J3,3*%
%TO.N,/PULLUP_A*%
X49530000Y-22860000D03*
%TD*%
%TO.P,J4,3*%
%TO.N,/PULLUP_D*%
X87630000Y-22860000D03*
%TO.P,J4,2*%
%TO.N,/A3*%
X85090000Y-22860000D03*
D12*
%TO.P,J4,1*%
%TO.N,GND*%
X82550000Y-22860000D03*
%TD*%
%TO.P,J5,1*%
%TO.N,GND*%
X69850000Y-29210000D03*
D13*
%TO.P,J5,2*%
%TO.N,/A6*%
X72390000Y-29210000D03*
%TO.P,J5,3*%
%TO.N,/PULLUP_G*%
X74930000Y-29210000D03*
%TD*%
%TO.P,J6,3*%
%TO.N,/PULLUP_J*%
X62230000Y-35560000D03*
%TO.P,J6,2*%
%TO.N,/A9*%
X59690000Y-35560000D03*
D12*
%TO.P,J6,1*%
%TO.N,GND*%
X57150000Y-35560000D03*
%TD*%
%TO.P,J7,1*%
%TO.N,GND*%
X57150000Y-22860000D03*
D13*
%TO.P,J7,2*%
%TO.N,/A1*%
X59690000Y-22860000D03*
%TO.P,J7,3*%
%TO.N,/PULLUP_B*%
X62230000Y-22860000D03*
%TD*%
D12*
%TO.P,J8,1*%
%TO.N,GND*%
X44450000Y-29210000D03*
D13*
%TO.P,J8,2*%
%TO.N,/A4*%
X46990000Y-29210000D03*
%TO.P,J8,3*%
%TO.N,/PULLUP_E*%
X49530000Y-29210000D03*
%TD*%
%TO.P,J9,3*%
%TO.N,/PULLUP_H*%
X87630000Y-29210000D03*
%TO.P,J9,2*%
%TO.N,/A7*%
X85090000Y-29210000D03*
D12*
%TO.P,J9,1*%
%TO.N,GND*%
X82550000Y-29210000D03*
%TD*%
%TO.P,J10,1*%
%TO.N,GND*%
X69850000Y-35560000D03*
D13*
%TO.P,J10,2*%
%TO.N,/A10*%
X72390000Y-35560000D03*
%TO.P,J10,3*%
%TO.N,/PULLUP_K*%
X74930000Y-35560000D03*
%TD*%
%TO.P,J11,3*%
%TO.N,/PULLUP_C*%
X74930000Y-22860000D03*
%TO.P,J11,2*%
%TO.N,/A2*%
X72390000Y-22860000D03*
D12*
%TO.P,J11,1*%
%TO.N,GND*%
X69850000Y-22860000D03*
%TD*%
%TO.P,J12,1*%
%TO.N,GND*%
X57150000Y-29210000D03*
D13*
%TO.P,J12,2*%
%TO.N,/A5*%
X59690000Y-29210000D03*
%TO.P,J12,3*%
%TO.N,/PULLUP_F*%
X62230000Y-29210000D03*
%TD*%
%TO.P,J13,3*%
%TO.N,/PULLUP_I*%
X49530000Y-35560000D03*
%TO.P,J13,2*%
%TO.N,/A8*%
X46990000Y-35560000D03*
D12*
%TO.P,J13,1*%
%TO.N,GND*%
X44450000Y-35560000D03*
%TD*%
%TO.P,J14,1*%
%TO.N,GND*%
X85090000Y-36830000D03*
D13*
%TO.P,J14,2*%
%TO.N,/AOUT0*%
X87630000Y-36830000D03*
%TD*%
%TO.P,J15,2*%
%TO.N,/AOUT1*%
X87630000Y-43180000D03*
D12*
%TO.P,J15,1*%
%TO.N,GND*%
X85090000Y-43180000D03*
%TD*%
D14*
%TO.P,U1,1*%
%TO.N,/RST*%
X41910000Y-45720000D03*
D15*
%TO.P,U1,2*%
%TO.N,/SCL1*%
X41910000Y-48260000D03*
%TO.P,U1,3*%
%TO.N,/SDA1*%
X41910000Y-50800000D03*
%TO.P,U1,4*%
%TO.N,GND*%
X41910000Y-53340000D03*
%TO.P,U1,5*%
%TO.N,/MOSI_SDA*%
X49530000Y-53340000D03*
%TO.P,U1,6*%
%TO.N,/MISO_DATA*%
X49530000Y-50800000D03*
%TO.P,U1,7*%
%TO.N,/SCK*%
X49530000Y-48260000D03*
%TO.P,U1,8*%
%TO.N,+5V*%
X49530000Y-45720000D03*
%TD*%
D16*
%TO.P,U3,11*%
%TO.N,N/C*%
X97240000Y-43800000D03*
X98340000Y-43800000D03*
X97240000Y-45100000D03*
X98340000Y-45100000D03*
D17*
X97790000Y-44450000D03*
%TD*%
D18*
%TO.N,+5V*%
X28448000Y-35052000D03*
X90932000Y-43688000D03*
X85852000Y-50292000D03*
X103718000Y-40640000D03*
X92964000Y-42672000D03*
%TO.N,GND*%
X92456000Y-43688000D03*
X101426907Y-45038907D03*
X99060000Y-30988000D03*
X47752000Y-58420000D03*
X60452000Y-58420000D03*
%TO.N,/A0*%
X93493950Y-29464000D03*
%TO.N,/A3*%
X93980000Y-26056002D03*
%TO.N,/A6*%
X97764970Y-34693138D03*
%TO.N,/A9*%
X96520000Y-34544000D03*
%TO.N,/A1*%
X93003950Y-28593016D03*
%TO.N,/A4*%
X97536000Y-36576000D03*
%TO.N,/A7*%
X97830011Y-33528000D03*
%TO.N,/A10*%
X96520000Y-33528000D03*
%TO.N,/A2*%
X93472000Y-27432000D03*
%TO.N,/A5*%
X97536000Y-35560000D03*
%TO.N,/A8*%
X96520000Y-35560000D03*
%TO.N,/PULLUP_L*%
X39116000Y-37084000D03*
X59027554Y-46636446D03*
%TO.N,/AREF*%
X91948000Y-33528000D03*
X84328000Y-33528000D03*
%TD*%
D19*
%TO.N,+5V*%
X38862000Y-35052000D02*
X28448000Y-35052000D01*
X49530000Y-45720000D02*
X38862000Y-35052000D01*
D20*
X85852000Y-48768000D02*
X85852000Y-50292000D01*
X90932000Y-43688000D02*
X85852000Y-48768000D01*
X94996000Y-40640000D02*
X92964000Y-42672000D01*
X103718000Y-40640000D02*
X94996000Y-40640000D01*
%TO.N,GND*%
X94462001Y-45694001D02*
X92456000Y-43688000D01*
X100771813Y-45694001D02*
X94462001Y-45694001D01*
X101426907Y-45038907D02*
X100771813Y-45694001D01*
X86284001Y-41985999D02*
X85090000Y-43180000D01*
X90753999Y-41985999D02*
X86284001Y-41985999D01*
X92456000Y-43688000D02*
X90753999Y-41985999D01*
D19*
X67310000Y-58420000D02*
X69850000Y-55880000D01*
X60452000Y-58420000D02*
X67310000Y-58420000D01*
X47752000Y-58420000D02*
X60452000Y-58420000D01*
D21*
%TO.N,/MISO_DATA*%
X52070000Y-53340000D02*
X49530000Y-50800000D01*
X64770000Y-53340000D02*
X52070000Y-53340000D01*
%TO.N,/SCK*%
X62230000Y-48260000D02*
X49530000Y-48260000D01*
X67310000Y-53340000D02*
X62230000Y-48260000D01*
%TO.N,/MOSI_SDA*%
X53274001Y-57084001D02*
X49530000Y-53340000D01*
X66105999Y-57084001D02*
X53274001Y-57084001D01*
X67310000Y-55880000D02*
X66105999Y-57084001D01*
D20*
%TO.N,/A0*%
X90424000Y-25400000D02*
X49530000Y-25400000D01*
X92456000Y-27432000D02*
X90424000Y-25400000D01*
X49530000Y-25400000D02*
X46990000Y-22860000D01*
X93493950Y-29464000D02*
X93140397Y-29464000D01*
X93140397Y-29464000D02*
X92456000Y-28779603D01*
X92456000Y-28779603D02*
X92456000Y-27432000D01*
%TO.N,/A3*%
X86180001Y-23950001D02*
X91873999Y-23950001D01*
X85090000Y-22860000D02*
X86180001Y-23950001D01*
X91873999Y-23950001D02*
X93980000Y-26056002D01*
%TO.N,/A6*%
X72390000Y-29210000D02*
X74676000Y-26924000D01*
X74676000Y-26924000D02*
X90424000Y-26924000D01*
X90424000Y-26924000D02*
X90932000Y-27432000D01*
X90932000Y-27432000D02*
X90932000Y-28448000D01*
X90932000Y-28448000D02*
X90932000Y-29464000D01*
X92633990Y-31165990D02*
X96283305Y-31165991D01*
X90932000Y-29464000D02*
X92633990Y-31165990D01*
X98320012Y-34138096D02*
X97764970Y-34693138D01*
X98320012Y-33202698D02*
X98320012Y-34138096D01*
X96283305Y-31165991D02*
X98320012Y-33202698D01*
%TO.N,/A9*%
X59690000Y-35560000D02*
X62738000Y-32512000D01*
X62738000Y-32512000D02*
X88900000Y-32512000D01*
X97010001Y-34053999D02*
X96520000Y-34544000D01*
X97010001Y-33292799D02*
X97010001Y-34053999D01*
X96229202Y-32512000D02*
X97010001Y-33292799D01*
X88900000Y-32512000D02*
X96229202Y-32512000D01*
%TO.N,/A1*%
X59690000Y-22860000D02*
X61722000Y-24892000D01*
X61722000Y-24892000D02*
X90932000Y-24892000D01*
X90932000Y-24892000D02*
X92964000Y-26924000D01*
X92964000Y-26924000D02*
X92964000Y-28448000D01*
%TO.N,/A4*%
X46990000Y-29210000D02*
X50292000Y-25908000D01*
X50292000Y-25908000D02*
X88900000Y-25908000D01*
X88900000Y-25908000D02*
X90424000Y-25908000D01*
X90424000Y-25908000D02*
X91948000Y-27432000D01*
X91948000Y-27432000D02*
X91948000Y-28448000D01*
X91948000Y-28448000D02*
X91948000Y-29464000D01*
X91948000Y-29464000D02*
X92964000Y-30480000D01*
X92964000Y-30480000D02*
X96012000Y-30480000D01*
X96530722Y-30480000D02*
X99060000Y-33009278D01*
X96012000Y-30480000D02*
X96530722Y-30480000D01*
X99060000Y-35052000D02*
X97536000Y-36576000D01*
X99060000Y-33009278D02*
X99060000Y-35052000D01*
%TO.N,/A7*%
X85090000Y-29210000D02*
X87376000Y-31496000D01*
X97830011Y-33179401D02*
X97830011Y-33528000D01*
X96146610Y-31496000D02*
X97830011Y-33179401D01*
X87376000Y-31496000D02*
X96146610Y-31496000D01*
%TO.N,/A10*%
X72390000Y-35560000D02*
X74930000Y-33020000D01*
X74930000Y-33020000D02*
X88900000Y-33020000D01*
X96012000Y-33020000D02*
X96520000Y-33528000D01*
X88900000Y-33020000D02*
X96012000Y-33020000D01*
%TO.N,/A2*%
X72390000Y-22860000D02*
X73914000Y-24384000D01*
X73914000Y-24384000D02*
X91440000Y-24384000D01*
X91440000Y-24384000D02*
X93472000Y-26416000D01*
X93472000Y-26416000D02*
X93472000Y-27432000D01*
%TO.N,/A5*%
X59690000Y-29210000D02*
X62484000Y-26416000D01*
X62484000Y-26416000D02*
X89916000Y-26416000D01*
X89916000Y-26416000D02*
X90424000Y-26416000D01*
X90424000Y-26416000D02*
X91440000Y-27432000D01*
X91440000Y-27432000D02*
X91440000Y-28448000D01*
X91440000Y-29464000D02*
X92811981Y-30835981D01*
X91440000Y-28448000D02*
X91440000Y-29464000D01*
X98650022Y-34533288D02*
X97623310Y-35560000D01*
X98650022Y-33066004D02*
X98650022Y-34533288D01*
X97623310Y-35560000D02*
X97536000Y-35560000D01*
X96420000Y-30835982D02*
X98650022Y-33066004D01*
X92811981Y-30835981D02*
X96420000Y-30835982D01*
%TO.N,/A8*%
X46990000Y-35560000D02*
X50546000Y-32004000D01*
X50546000Y-32004000D02*
X88900000Y-32004000D01*
X96595199Y-35194003D02*
X96520000Y-35194003D01*
X97340011Y-34449191D02*
X96595199Y-35194003D01*
X97340011Y-33156105D02*
X97340011Y-34449191D01*
X96187906Y-32004000D02*
X97340011Y-33156105D01*
X88900000Y-32004000D02*
X96187906Y-32004000D01*
D21*
X96595199Y-35484801D02*
X96520000Y-35560000D01*
X96595199Y-35194003D02*
X96595199Y-35484801D01*
%TO.N,/PULLUP_L*%
X48906001Y-46874001D02*
X58789999Y-46874001D01*
X39116000Y-37084000D02*
X48906001Y-46874001D01*
X59027554Y-46636446D02*
X58789999Y-46874001D01*
%TO.N,/AREF*%
X84328000Y-33528000D02*
X84836000Y-33528000D01*
%TD*%
D22*
%TO.N,GND*%
X99945870Y-18536837D02*
X100809927Y-18744279D01*
X101630891Y-19084334D01*
X102388559Y-19548633D01*
X103064262Y-20125738D01*
X103641367Y-20801441D01*
X104105666Y-21559107D01*
X104445721Y-22380072D01*
X104653163Y-23244136D01*
X104725001Y-24156922D01*
X104725000Y-55853091D01*
X104653163Y-56765864D01*
X104445721Y-57629928D01*
X104105666Y-58450893D01*
X103641367Y-59208559D01*
X103064262Y-59884262D01*
X102388559Y-60461367D01*
X101630891Y-60925666D01*
X100809927Y-61265721D01*
X99945870Y-61473163D01*
X99033092Y-61545000D01*
X31776909Y-61545000D01*
X30864136Y-61473163D01*
X30000072Y-61265721D01*
X29179107Y-60925666D01*
X28421441Y-60461367D01*
X27745738Y-59884262D01*
X27168633Y-59208559D01*
X26704334Y-58450891D01*
X26364279Y-57629927D01*
X26156837Y-56765870D01*
X26085000Y-55853092D01*
X26085000Y-55393945D01*
X26815000Y-55393945D01*
X26815000Y-56366055D01*
X27004650Y-57319486D01*
X27376660Y-58217599D01*
X27916735Y-59025879D01*
X28604121Y-59713265D01*
X29412401Y-60253340D01*
X30310514Y-60625350D01*
X31263945Y-60815000D01*
X32236055Y-60815000D01*
X33189486Y-60625350D01*
X34087599Y-60253340D01*
X34895879Y-59713265D01*
X35583265Y-59025879D01*
X36123340Y-58217599D01*
X36495350Y-57319486D01*
X36685000Y-56366055D01*
X36685000Y-55393945D01*
X36495350Y-54440514D01*
X36450693Y-54332702D01*
X41096903Y-54332702D01*
X41168486Y-54576671D01*
X41423996Y-54697571D01*
X41698184Y-54766300D01*
X41980512Y-54780217D01*
X42260130Y-54738787D01*
X42526292Y-54643603D01*
X42651514Y-54576671D01*
X42723097Y-54332702D01*
X41910000Y-53519605D01*
X41096903Y-54332702D01*
X36450693Y-54332702D01*
X36123340Y-53542401D01*
X36035215Y-53410512D01*
X40469783Y-53410512D01*
X40511213Y-53690130D01*
X40606397Y-53956292D01*
X40673329Y-54081514D01*
X40917298Y-54153097D01*
X41730395Y-53340000D01*
X42089605Y-53340000D01*
X42902702Y-54153097D01*
X43146671Y-54081514D01*
X43267571Y-53826004D01*
X43336300Y-53551816D01*
X43350217Y-53269488D01*
X43308787Y-52989870D01*
X43213603Y-52723708D01*
X43146671Y-52598486D01*
X42902702Y-52526903D01*
X42089605Y-53340000D01*
X41730395Y-53340000D01*
X40917298Y-52526903D01*
X40673329Y-52598486D01*
X40552429Y-52853996D01*
X40483700Y-53128184D01*
X40469783Y-53410512D01*
X36035215Y-53410512D01*
X35583265Y-52734121D01*
X34895879Y-52046735D01*
X34087599Y-51506660D01*
X33189486Y-51134650D01*
X32236055Y-50945000D01*
X31263945Y-50945000D01*
X30310514Y-51134650D01*
X29412401Y-51506660D01*
X28604121Y-52046735D01*
X27916735Y-52734121D01*
X27376660Y-53542401D01*
X27004650Y-54440514D01*
X26815000Y-55393945D01*
X26085000Y-55393945D01*
X26085000Y-44920000D01*
X40471928Y-44920000D01*
X40471928Y-46520000D01*
X40484188Y-46644482D01*
X40520498Y-46764180D01*
X40579463Y-46874494D01*
X40658815Y-46971185D01*
X40755506Y-47050537D01*
X40865820Y-47109502D01*
X40985518Y-47145812D01*
X40993961Y-47146643D01*
X40795363Y-47345241D01*
X40638320Y-47580273D01*
X40530147Y-47841426D01*
X40475000Y-48118665D01*
X40475000Y-48401335D01*
X40530147Y-48678574D01*
X40638320Y-48939727D01*
X40795363Y-49174759D01*
X40995241Y-49374637D01*
X41227759Y-49530000D01*
X40995241Y-49685363D01*
X40795363Y-49885241D01*
X40638320Y-50120273D01*
X40530147Y-50381426D01*
X40475000Y-50658665D01*
X40475000Y-50941335D01*
X40530147Y-51218574D01*
X40638320Y-51479727D01*
X40795363Y-51714759D01*
X40995241Y-51914637D01*
X41229128Y-52070915D01*
X41168486Y-52103329D01*
X41096903Y-52347298D01*
X41910000Y-53160395D01*
X42723097Y-52347298D01*
X42651514Y-52103329D01*
X42587008Y-52072806D01*
X42589727Y-52071680D01*
X42824759Y-51914637D01*
X43024637Y-51714759D01*
X43181680Y-51479727D01*
X43289853Y-51218574D01*
X43345000Y-50941335D01*
X43345000Y-50658665D01*
X43289853Y-50381426D01*
X43181680Y-50120273D01*
X43024637Y-49885241D01*
X42824759Y-49685363D01*
X42592241Y-49530000D01*
X42824759Y-49374637D01*
X43024637Y-49174759D01*
X43181680Y-48939727D01*
X43289853Y-48678574D01*
X43345000Y-48401335D01*
X43345000Y-48118665D01*
X43289853Y-47841426D01*
X43181680Y-47580273D01*
X43024637Y-47345241D01*
X42826039Y-47146643D01*
X42834482Y-47145812D01*
X42954180Y-47109502D01*
X43064494Y-47050537D01*
X43161185Y-46971185D01*
X43240537Y-46874494D01*
X43299502Y-46764180D01*
X43335812Y-46644482D01*
X43348072Y-46520000D01*
X43348072Y-44920000D01*
X43335812Y-44795518D01*
X43299502Y-44675820D01*
X43240537Y-44565506D01*
X43161185Y-44468815D01*
X43064494Y-44389463D01*
X42954180Y-44330498D01*
X42834482Y-44294188D01*
X42710000Y-44281928D01*
X41110000Y-44281928D01*
X40985518Y-44294188D01*
X40865820Y-44330498D01*
X40755506Y-44389463D01*
X40658815Y-44468815D01*
X40579463Y-44565506D01*
X40520498Y-44675820D01*
X40484188Y-44795518D01*
X40471928Y-44920000D01*
X26085000Y-44920000D01*
X26085000Y-35052000D01*
X27558718Y-35052000D01*
X27563000Y-35095477D01*
X27563000Y-35139165D01*
X27571523Y-35182013D01*
X27575805Y-35225490D01*
X27588487Y-35267295D01*
X27597010Y-35310145D01*
X27613731Y-35350513D01*
X27626411Y-35392313D01*
X27647001Y-35430835D01*
X27663723Y-35471205D01*
X27687996Y-35507533D01*
X27708589Y-35546059D01*
X27736304Y-35579829D01*
X27760576Y-35616155D01*
X27791470Y-35647049D01*
X27819183Y-35680817D01*
X27852951Y-35708530D01*
X27883845Y-35739424D01*
X27920171Y-35763696D01*
X27953941Y-35791411D01*
X27992467Y-35812004D01*
X28028795Y-35836277D01*
X28069165Y-35852999D01*
X28107687Y-35873589D01*
X28149487Y-35886269D01*
X28189855Y-35902990D01*
X28232705Y-35911513D01*
X28274510Y-35924195D01*
X28317987Y-35928477D01*
X28360835Y-35937000D01*
X38495422Y-35937000D01*
X38810887Y-36252465D01*
X38696795Y-36299723D01*
X38551845Y-36396576D01*
X38428576Y-36519845D01*
X38331723Y-36664795D01*
X38265010Y-36825855D01*
X38231000Y-36996835D01*
X38231000Y-37171165D01*
X38265010Y-37342145D01*
X38331723Y-37503205D01*
X38428576Y-37648155D01*
X38551845Y-37771424D01*
X38696795Y-37868277D01*
X38857855Y-37934990D01*
X38944848Y-37952294D01*
X48360747Y-47368194D01*
X48382398Y-47394576D01*
X48258320Y-47580273D01*
X48150147Y-47841426D01*
X48095000Y-48118665D01*
X48095000Y-48401335D01*
X48150147Y-48678574D01*
X48258320Y-48939727D01*
X48415363Y-49174759D01*
X48615241Y-49374637D01*
X48847759Y-49530000D01*
X48615241Y-49685363D01*
X48415363Y-49885241D01*
X48258320Y-50120273D01*
X48150147Y-50381426D01*
X48095000Y-50658665D01*
X48095000Y-50941335D01*
X48150147Y-51218574D01*
X48258320Y-51479727D01*
X48415363Y-51714759D01*
X48615241Y-51914637D01*
X48847759Y-52070000D01*
X48615241Y-52225363D01*
X48415363Y-52425241D01*
X48258320Y-52660273D01*
X48150147Y-52921426D01*
X48095000Y-53198665D01*
X48095000Y-53481335D01*
X48150147Y-53758574D01*
X48258320Y-54019727D01*
X48415363Y-54254759D01*
X48615241Y-54454637D01*
X48850273Y-54611680D01*
X49111426Y-54719853D01*
X49388665Y-54775000D01*
X49671335Y-54775000D01*
X49883376Y-54732822D01*
X52728747Y-57578194D01*
X52751763Y-57606239D01*
X52863681Y-57698088D01*
X52991368Y-57766338D01*
X53064473Y-57788514D01*
X53129915Y-57808366D01*
X53274001Y-57822557D01*
X53310106Y-57819001D01*
X66069894Y-57819001D01*
X66105999Y-57822557D01*
X66142104Y-57819001D01*
X66250084Y-57808366D01*
X66388632Y-57766338D01*
X66516319Y-57698088D01*
X66628237Y-57606239D01*
X66651257Y-57578189D01*
X66914103Y-57315344D01*
X67163740Y-57365000D01*
X67456260Y-57365000D01*
X67743158Y-57307932D01*
X68013411Y-57195990D01*
X68256632Y-57033475D01*
X68463475Y-56826632D01*
X68585195Y-56644466D01*
X68654822Y-56761355D01*
X68849731Y-56977588D01*
X69083080Y-57151641D01*
X69345901Y-57276825D01*
X69493110Y-57321476D01*
X69723000Y-57200155D01*
X69723000Y-56007000D01*
X69977000Y-56007000D01*
X69977000Y-57200155D01*
X70206890Y-57321476D01*
X70354099Y-57276825D01*
X70616920Y-57151641D01*
X70850269Y-56977588D01*
X71045178Y-56761355D01*
X71194157Y-56511252D01*
X71291481Y-56236891D01*
X71170814Y-56007000D01*
X69977000Y-56007000D01*
X69723000Y-56007000D01*
X69703000Y-56007000D01*
X69703000Y-55753000D01*
X69723000Y-55753000D01*
X69723000Y-55733000D01*
X69977000Y-55733000D01*
X69977000Y-55753000D01*
X71170814Y-55753000D01*
X71291481Y-55523109D01*
X71194157Y-55248748D01*
X71063856Y-55030000D01*
X77251928Y-55030000D01*
X77251928Y-56730000D01*
X77264188Y-56854482D01*
X77300498Y-56974180D01*
X77359463Y-57084494D01*
X77438815Y-57181185D01*
X77535506Y-57260537D01*
X77645820Y-57319502D01*
X77765518Y-57355812D01*
X77890000Y-57368072D01*
X79590000Y-57368072D01*
X79714482Y-57355812D01*
X79834180Y-57319502D01*
X79944494Y-57260537D01*
X80041185Y-57181185D01*
X80120537Y-57084494D01*
X80179502Y-56974180D01*
X80203966Y-56893534D01*
X80279731Y-56977588D01*
X80513080Y-57151641D01*
X80775901Y-57276825D01*
X80923110Y-57321476D01*
X81153000Y-57200155D01*
X81153000Y-56007000D01*
X81407000Y-56007000D01*
X81407000Y-57200155D01*
X81636890Y-57321476D01*
X81784099Y-57276825D01*
X82046920Y-57151641D01*
X82280269Y-56977588D01*
X82475178Y-56761355D01*
X82624157Y-56511252D01*
X82721481Y-56236891D01*
X82600814Y-56007000D01*
X81407000Y-56007000D01*
X81153000Y-56007000D01*
X81133000Y-56007000D01*
X81133000Y-55753000D01*
X81153000Y-55753000D01*
X81153000Y-54559845D01*
X81407000Y-54559845D01*
X81407000Y-55753000D01*
X82600814Y-55753000D01*
X82721481Y-55523109D01*
X82675663Y-55393945D01*
X94125000Y-55393945D01*
X94125000Y-56366055D01*
X94314650Y-57319486D01*
X94686660Y-58217599D01*
X95226735Y-59025879D01*
X95914121Y-59713265D01*
X96722401Y-60253340D01*
X97620514Y-60625350D01*
X98573945Y-60815000D01*
X99546055Y-60815000D01*
X100499486Y-60625350D01*
X101397599Y-60253340D01*
X102205879Y-59713265D01*
X102893265Y-59025879D01*
X103433340Y-58217599D01*
X103805350Y-57319486D01*
X103995000Y-56366055D01*
X103995000Y-55393945D01*
X103805350Y-54440514D01*
X103433340Y-53542401D01*
X102893265Y-52734121D01*
X102205879Y-52046735D01*
X101397599Y-51506660D01*
X100499486Y-51134650D01*
X99546055Y-50945000D01*
X98573945Y-50945000D01*
X97620514Y-51134650D01*
X96722401Y-51506660D01*
X95914121Y-52046735D01*
X95226735Y-52734121D01*
X94686660Y-53542401D01*
X94314650Y-54440514D01*
X94125000Y-55393945D01*
X82675663Y-55393945D01*
X82624157Y-55248748D01*
X82475178Y-54998645D01*
X82280269Y-54782412D01*
X82046920Y-54608359D01*
X81784099Y-54483175D01*
X81636890Y-54438524D01*
X81407000Y-54559845D01*
X81153000Y-54559845D01*
X80923110Y-54438524D01*
X80775901Y-54483175D01*
X80513080Y-54608359D01*
X80279731Y-54782412D01*
X80203966Y-54866466D01*
X80179502Y-54785820D01*
X80120537Y-54675506D01*
X80041185Y-54578815D01*
X79944494Y-54499463D01*
X79834180Y-54440498D01*
X79714482Y-54404188D01*
X79590000Y-54391928D01*
X77890000Y-54391928D01*
X77765518Y-54404188D01*
X77645820Y-54440498D01*
X77535506Y-54499463D01*
X77438815Y-54578815D01*
X77359463Y-54675506D01*
X77300498Y-54785820D01*
X77264188Y-54905518D01*
X77251928Y-55030000D01*
X71063856Y-55030000D01*
X71045178Y-54998645D01*
X70850269Y-54782412D01*
X70620594Y-54611100D01*
X70796632Y-54493475D01*
X71003475Y-54286632D01*
X71165990Y-54043411D01*
X71277932Y-53773158D01*
X71335000Y-53486260D01*
X71335000Y-53193740D01*
X71277932Y-52906842D01*
X71165990Y-52636589D01*
X71003475Y-52393368D01*
X70796632Y-52186525D01*
X70553411Y-52024010D01*
X70283158Y-51912068D01*
X69996260Y-51855000D01*
X69703740Y-51855000D01*
X69416842Y-51912068D01*
X69146589Y-52024010D01*
X68903368Y-52186525D01*
X68696525Y-52393368D01*
X68580000Y-52567760D01*
X68463475Y-52393368D01*
X68256632Y-52186525D01*
X68013411Y-52024010D01*
X67743158Y-51912068D01*
X67456260Y-51855000D01*
X67163740Y-51855000D01*
X66914103Y-51904656D01*
X65214282Y-50204835D01*
X84967000Y-50204835D01*
X84967000Y-50379165D01*
X85001010Y-50550145D01*
X85067723Y-50711205D01*
X85164576Y-50856155D01*
X85287845Y-50979424D01*
X85432795Y-51076277D01*
X85593855Y-51142990D01*
X85764835Y-51177000D01*
X85939165Y-51177000D01*
X86110145Y-51142990D01*
X86271205Y-51076277D01*
X86416155Y-50979424D01*
X86539424Y-50856155D01*
X86636277Y-50711205D01*
X86702990Y-50550145D01*
X86737000Y-50379165D01*
X86737000Y-50204835D01*
X86702990Y-50033855D01*
X86636277Y-49872795D01*
X86577000Y-49784081D01*
X86577000Y-49068304D01*
X91085500Y-44559805D01*
X91190145Y-44538990D01*
X91351205Y-44472277D01*
X91496155Y-44375424D01*
X91619424Y-44252155D01*
X91716277Y-44107205D01*
X91782990Y-43946145D01*
X91817000Y-43775165D01*
X91817000Y-43600835D01*
X91782990Y-43429855D01*
X91716277Y-43268795D01*
X91619424Y-43123845D01*
X91496155Y-43000576D01*
X91351205Y-42903723D01*
X91190145Y-42837010D01*
X91019165Y-42803000D01*
X90844835Y-42803000D01*
X90673855Y-42837010D01*
X90512795Y-42903723D01*
X90367845Y-43000576D01*
X90244576Y-43123845D01*
X90147723Y-43268795D01*
X90081010Y-43429855D01*
X90060195Y-43534500D01*
X85364524Y-48230172D01*
X85336868Y-48252869D01*
X85246269Y-48363264D01*
X85178947Y-48489213D01*
X85137491Y-48625876D01*
X85127000Y-48732394D01*
X85127000Y-48732403D01*
X85123494Y-48768000D01*
X85127000Y-48803597D01*
X85127001Y-49784080D01*
X85067723Y-49872795D01*
X85001010Y-50033855D01*
X84967000Y-50204835D01*
X65214282Y-50204835D01*
X62775259Y-47765813D01*
X62752238Y-47737762D01*
X62640320Y-47645913D01*
X62512633Y-47577663D01*
X62374085Y-47535635D01*
X62266105Y-47525000D01*
X62230000Y-47521444D01*
X62193895Y-47525000D01*
X59131261Y-47525000D01*
X59151656Y-47514099D01*
X59285699Y-47487436D01*
X59446759Y-47420723D01*
X59591709Y-47323870D01*
X59714978Y-47200601D01*
X59811831Y-47055651D01*
X59878544Y-46894591D01*
X59912554Y-46723611D01*
X59912554Y-46549281D01*
X59878544Y-46378301D01*
X59811831Y-46217241D01*
X59714978Y-46072291D01*
X59591709Y-45949022D01*
X59446759Y-45852169D01*
X59285699Y-45785456D01*
X59114719Y-45751446D01*
X58940389Y-45751446D01*
X58769409Y-45785456D01*
X58608349Y-45852169D01*
X58463399Y-45949022D01*
X58340130Y-46072291D01*
X58295556Y-46139001D01*
X50909676Y-46139001D01*
X50909853Y-46138574D01*
X50965000Y-45861335D01*
X50965000Y-45578665D01*
X50909853Y-45301426D01*
X50801680Y-45040273D01*
X50644637Y-44805241D01*
X50444759Y-44605363D01*
X50209727Y-44448320D01*
X49948574Y-44340147D01*
X49671335Y-44285000D01*
X49388665Y-44285000D01*
X49353562Y-44291983D01*
X49091579Y-44030000D01*
X83601928Y-44030000D01*
X83614188Y-44154482D01*
X83650498Y-44274180D01*
X83709463Y-44384494D01*
X83788815Y-44481185D01*
X83885506Y-44560537D01*
X83995820Y-44619502D01*
X84115518Y-44655812D01*
X84240000Y-44668072D01*
X84804250Y-44665000D01*
X84963000Y-44506250D01*
X84963000Y-43307000D01*
X83763750Y-43307000D01*
X83605000Y-43465750D01*
X83601928Y-44030000D01*
X49091579Y-44030000D01*
X47391579Y-42330000D01*
X83601928Y-42330000D01*
X83605000Y-42894250D01*
X83763750Y-43053000D01*
X84963000Y-43053000D01*
X84963000Y-41853750D01*
X85217000Y-41853750D01*
X85217000Y-43053000D01*
X85237000Y-43053000D01*
X85237000Y-43307000D01*
X85217000Y-43307000D01*
X85217000Y-44506250D01*
X85375750Y-44665000D01*
X85940000Y-44668072D01*
X86064482Y-44655812D01*
X86184180Y-44619502D01*
X86294494Y-44560537D01*
X86391185Y-44481185D01*
X86470537Y-44384494D01*
X86529502Y-44274180D01*
X86551513Y-44201620D01*
X86683368Y-44333475D01*
X86926589Y-44495990D01*
X87196842Y-44607932D01*
X87483740Y-44665000D01*
X87776260Y-44665000D01*
X88063158Y-44607932D01*
X88333411Y-44495990D01*
X88576632Y-44333475D01*
X88783475Y-44126632D01*
X88945990Y-43883411D01*
X89057932Y-43613158D01*
X89115000Y-43326260D01*
X89115000Y-43033740D01*
X89057932Y-42746842D01*
X88990827Y-42584835D01*
X92079000Y-42584835D01*
X92079000Y-42759165D01*
X92113010Y-42930145D01*
X92179723Y-43091205D01*
X92276576Y-43236155D01*
X92399845Y-43359424D01*
X92544795Y-43456277D01*
X92705855Y-43522990D01*
X92876835Y-43557000D01*
X93051165Y-43557000D01*
X93086356Y-43550000D01*
X96351928Y-43550000D01*
X96351928Y-45350000D01*
X96364188Y-45474482D01*
X96400498Y-45594180D01*
X96459463Y-45704494D01*
X96538815Y-45801185D01*
X96635506Y-45880537D01*
X96745820Y-45939502D01*
X96865518Y-45975812D01*
X96990000Y-45988072D01*
X98590000Y-45988072D01*
X98714482Y-45975812D01*
X98834180Y-45939502D01*
X98944494Y-45880537D01*
X99041185Y-45801185D01*
X99120537Y-45704494D01*
X99179502Y-45594180D01*
X99215812Y-45474482D01*
X99228072Y-45350000D01*
X99228072Y-43550000D01*
X99215812Y-43425518D01*
X99179502Y-43305820D01*
X99120537Y-43195506D01*
X99041185Y-43098815D01*
X98944494Y-43019463D01*
X98834180Y-42960498D01*
X98714482Y-42924188D01*
X98590000Y-42911928D01*
X96990000Y-42911928D01*
X96865518Y-42924188D01*
X96745820Y-42960498D01*
X96635506Y-43019463D01*
X96538815Y-43098815D01*
X96459463Y-43195506D01*
X96400498Y-43305820D01*
X96364188Y-43425518D01*
X96351928Y-43550000D01*
X93086356Y-43550000D01*
X93222145Y-43522990D01*
X93383205Y-43456277D01*
X93528155Y-43359424D01*
X93651424Y-43236155D01*
X93748277Y-43091205D01*
X93814990Y-42930145D01*
X93835805Y-42825499D01*
X95296305Y-41365000D01*
X103210081Y-41365000D01*
X103298795Y-41424277D01*
X103459855Y-41490990D01*
X103630835Y-41525000D01*
X103805165Y-41525000D01*
X103976145Y-41490990D01*
X104137205Y-41424277D01*
X104282155Y-41327424D01*
X104405424Y-41204155D01*
X104502277Y-41059205D01*
X104568990Y-40898145D01*
X104603000Y-40727165D01*
X104603000Y-40552835D01*
X104568990Y-40381855D01*
X104502277Y-40220795D01*
X104405424Y-40075845D01*
X104282155Y-39952576D01*
X104137205Y-39855723D01*
X103976145Y-39789010D01*
X103805165Y-39755000D01*
X103630835Y-39755000D01*
X103459855Y-39789010D01*
X103298795Y-39855723D01*
X103210081Y-39915000D01*
X95031597Y-39915000D01*
X94996000Y-39911494D01*
X94960403Y-39915000D01*
X94960393Y-39915000D01*
X94853875Y-39925491D01*
X94717212Y-39966947D01*
X94591263Y-40034269D01*
X94508525Y-40102170D01*
X94508523Y-40102172D01*
X94480868Y-40124868D01*
X94458172Y-40152523D01*
X92810501Y-41800195D01*
X92705855Y-41821010D01*
X92544795Y-41887723D01*
X92399845Y-41984576D01*
X92276576Y-42107845D01*
X92179723Y-42252795D01*
X92113010Y-42413855D01*
X92079000Y-42584835D01*
X88990827Y-42584835D01*
X88945990Y-42476589D01*
X88783475Y-42233368D01*
X88576632Y-42026525D01*
X88333411Y-41864010D01*
X88063158Y-41752068D01*
X87776260Y-41695000D01*
X87483740Y-41695000D01*
X87196842Y-41752068D01*
X86926589Y-41864010D01*
X86683368Y-42026525D01*
X86551513Y-42158380D01*
X86529502Y-42085820D01*
X86470537Y-41975506D01*
X86391185Y-41878815D01*
X86294494Y-41799463D01*
X86184180Y-41740498D01*
X86064482Y-41704188D01*
X85940000Y-41691928D01*
X85375750Y-41695000D01*
X85217000Y-41853750D01*
X84963000Y-41853750D01*
X84804250Y-41695000D01*
X84240000Y-41691928D01*
X84115518Y-41704188D01*
X83995820Y-41740498D01*
X83885506Y-41799463D01*
X83788815Y-41878815D01*
X83709463Y-41975506D01*
X83650498Y-42085820D01*
X83614188Y-42205518D01*
X83601928Y-42330000D01*
X47391579Y-42330000D01*
X42741579Y-37680000D01*
X83601928Y-37680000D01*
X83614188Y-37804482D01*
X83650498Y-37924180D01*
X83709463Y-38034494D01*
X83788815Y-38131185D01*
X83885506Y-38210537D01*
X83995820Y-38269502D01*
X84115518Y-38305812D01*
X84240000Y-38318072D01*
X84804250Y-38315000D01*
X84963000Y-38156250D01*
X84963000Y-36957000D01*
X83763750Y-36957000D01*
X83605000Y-37115750D01*
X83601928Y-37680000D01*
X42741579Y-37680000D01*
X41471579Y-36410000D01*
X42961928Y-36410000D01*
X42974188Y-36534482D01*
X43010498Y-36654180D01*
X43069463Y-36764494D01*
X43148815Y-36861185D01*
X43245506Y-36940537D01*
X43355820Y-36999502D01*
X43475518Y-37035812D01*
X43600000Y-37048072D01*
X44164250Y-37045000D01*
X44323000Y-36886250D01*
X44323000Y-35687000D01*
X43123750Y-35687000D01*
X42965000Y-35845750D01*
X42961928Y-36410000D01*
X41471579Y-36410000D01*
X39771579Y-34710000D01*
X42961928Y-34710000D01*
X42965000Y-35274250D01*
X43123750Y-35433000D01*
X44323000Y-35433000D01*
X44323000Y-34233750D01*
X44164250Y-34075000D01*
X43600000Y-34071928D01*
X43475518Y-34084188D01*
X43355820Y-34120498D01*
X43245506Y-34179463D01*
X43148815Y-34258815D01*
X43069463Y-34355506D01*
X43010498Y-34465820D01*
X42974188Y-34585518D01*
X42961928Y-34710000D01*
X39771579Y-34710000D01*
X39518534Y-34456956D01*
X39490817Y-34423183D01*
X39356059Y-34312589D01*
X39202313Y-34230411D01*
X39035490Y-34179805D01*
X38905477Y-34167000D01*
X38905469Y-34167000D01*
X38862000Y-34162719D01*
X38818531Y-34167000D01*
X28360835Y-34167000D01*
X28317987Y-34175523D01*
X28274510Y-34179805D01*
X28232705Y-34192487D01*
X28189855Y-34201010D01*
X28149487Y-34217731D01*
X28107687Y-34230411D01*
X28069165Y-34251001D01*
X28028795Y-34267723D01*
X27992467Y-34291996D01*
X27953941Y-34312589D01*
X27920171Y-34340304D01*
X27883845Y-34364576D01*
X27852951Y-34395470D01*
X27819183Y-34423183D01*
X27791470Y-34456951D01*
X27760576Y-34487845D01*
X27736304Y-34524171D01*
X27708589Y-34557941D01*
X27687996Y-34596467D01*
X27663723Y-34632795D01*
X27647001Y-34673165D01*
X27626411Y-34711687D01*
X27613731Y-34753487D01*
X27597010Y-34793855D01*
X27588487Y-34836705D01*
X27575805Y-34878510D01*
X27571523Y-34921987D01*
X27563000Y-34964835D01*
X27563000Y-35008523D01*
X27558718Y-35052000D01*
X26085000Y-35052000D01*
X26085000Y-30060000D01*
X42961928Y-30060000D01*
X42974188Y-30184482D01*
X43010498Y-30304180D01*
X43069463Y-30414494D01*
X43148815Y-30511185D01*
X43245506Y-30590537D01*
X43355820Y-30649502D01*
X43475518Y-30685812D01*
X43600000Y-30698072D01*
X44164250Y-30695000D01*
X44323000Y-30536250D01*
X44323000Y-29337000D01*
X43123750Y-29337000D01*
X42965000Y-29495750D01*
X42961928Y-30060000D01*
X26085000Y-30060000D01*
X26085000Y-24156908D01*
X26125370Y-23643945D01*
X26815000Y-23643945D01*
X26815000Y-24616055D01*
X27004650Y-25569486D01*
X27376660Y-26467599D01*
X27916735Y-27275879D01*
X28604121Y-27963265D01*
X29412401Y-28503340D01*
X30310514Y-28875350D01*
X31263945Y-29065000D01*
X32236055Y-29065000D01*
X33189486Y-28875350D01*
X34087599Y-28503340D01*
X34302122Y-28360000D01*
X42961928Y-28360000D01*
X42965000Y-28924250D01*
X43123750Y-29083000D01*
X44323000Y-29083000D01*
X44323000Y-27883750D01*
X44164250Y-27725000D01*
X43600000Y-27721928D01*
X43475518Y-27734188D01*
X43355820Y-27770498D01*
X43245506Y-27829463D01*
X43148815Y-27908815D01*
X43069463Y-28005506D01*
X43010498Y-28115820D01*
X42974188Y-28235518D01*
X42961928Y-28360000D01*
X34302122Y-28360000D01*
X34895879Y-27963265D01*
X35583265Y-27275879D01*
X36123340Y-26467599D01*
X36495350Y-25569486D01*
X36685000Y-24616055D01*
X36685000Y-23710000D01*
X42961928Y-23710000D01*
X42974188Y-23834482D01*
X43010498Y-23954180D01*
X43069463Y-24064494D01*
X43148815Y-24161185D01*
X43245506Y-24240537D01*
X43355820Y-24299502D01*
X43475518Y-24335812D01*
X43600000Y-24348072D01*
X44164250Y-24345000D01*
X44323000Y-24186250D01*
X44323000Y-22987000D01*
X43123750Y-22987000D01*
X42965000Y-23145750D01*
X42961928Y-23710000D01*
X36685000Y-23710000D01*
X36685000Y-23643945D01*
X36495350Y-22690514D01*
X36213473Y-22010000D01*
X42961928Y-22010000D01*
X42965000Y-22574250D01*
X43123750Y-22733000D01*
X44323000Y-22733000D01*
X44323000Y-21533750D01*
X44577000Y-21533750D01*
X44577000Y-22733000D01*
X44597000Y-22733000D01*
X44597000Y-22987000D01*
X44577000Y-22987000D01*
X44577000Y-24186250D01*
X44735750Y-24345000D01*
X45300000Y-24348072D01*
X45424482Y-24335812D01*
X45544180Y-24299502D01*
X45654494Y-24240537D01*
X45751185Y-24161185D01*
X45830537Y-24064494D01*
X45889502Y-23954180D01*
X45911513Y-23881620D01*
X46043368Y-24013475D01*
X46286589Y-24175990D01*
X46556842Y-24287932D01*
X46843740Y-24345000D01*
X47136260Y-24345000D01*
X47397693Y-24292997D01*
X48992172Y-25887477D01*
X49014868Y-25915132D01*
X49042523Y-25937828D01*
X49042525Y-25937830D01*
X49125263Y-26005731D01*
X49153742Y-26020953D01*
X47397693Y-27777003D01*
X47136260Y-27725000D01*
X46843740Y-27725000D01*
X46556842Y-27782068D01*
X46286589Y-27894010D01*
X46043368Y-28056525D01*
X45911513Y-28188380D01*
X45889502Y-28115820D01*
X45830537Y-28005506D01*
X45751185Y-27908815D01*
X45654494Y-27829463D01*
X45544180Y-27770498D01*
X45424482Y-27734188D01*
X45300000Y-27721928D01*
X44735750Y-27725000D01*
X44577000Y-27883750D01*
X44577000Y-29083000D01*
X44597000Y-29083000D01*
X44597000Y-29337000D01*
X44577000Y-29337000D01*
X44577000Y-30536250D01*
X44735750Y-30695000D01*
X45300000Y-30698072D01*
X45424482Y-30685812D01*
X45544180Y-30649502D01*
X45654494Y-30590537D01*
X45751185Y-30511185D01*
X45830537Y-30414494D01*
X45889502Y-30304180D01*
X45911513Y-30231620D01*
X46043368Y-30363475D01*
X46286589Y-30525990D01*
X46556842Y-30637932D01*
X46843740Y-30695000D01*
X47136260Y-30695000D01*
X47423158Y-30637932D01*
X47693411Y-30525990D01*
X47936632Y-30363475D01*
X48143475Y-30156632D01*
X48260000Y-29982240D01*
X48376525Y-30156632D01*
X48583368Y-30363475D01*
X48826589Y-30525990D01*
X49096842Y-30637932D01*
X49383740Y-30695000D01*
X49676260Y-30695000D01*
X49963158Y-30637932D01*
X50233411Y-30525990D01*
X50476632Y-30363475D01*
X50683475Y-30156632D01*
X50748042Y-30060000D01*
X55661928Y-30060000D01*
X55674188Y-30184482D01*
X55710498Y-30304180D01*
X55769463Y-30414494D01*
X55848815Y-30511185D01*
X55945506Y-30590537D01*
X56055820Y-30649502D01*
X56175518Y-30685812D01*
X56300000Y-30698072D01*
X56864250Y-30695000D01*
X57023000Y-30536250D01*
X57023000Y-29337000D01*
X55823750Y-29337000D01*
X55665000Y-29495750D01*
X55661928Y-30060000D01*
X50748042Y-30060000D01*
X50845990Y-29913411D01*
X50957932Y-29643158D01*
X51015000Y-29356260D01*
X51015000Y-29063740D01*
X50957932Y-28776842D01*
X50845990Y-28506589D01*
X50748043Y-28360000D01*
X55661928Y-28360000D01*
X55665000Y-28924250D01*
X55823750Y-29083000D01*
X57023000Y-29083000D01*
X57023000Y-27883750D01*
X56864250Y-27725000D01*
X56300000Y-27721928D01*
X56175518Y-27734188D01*
X56055820Y-27770498D01*
X55945506Y-27829463D01*
X55848815Y-27908815D01*
X55769463Y-28005506D01*
X55710498Y-28115820D01*
X55674188Y-28235518D01*
X55661928Y-28360000D01*
X50748043Y-28360000D01*
X50683475Y-28263368D01*
X50476632Y-28056525D01*
X50233411Y-27894010D01*
X49963158Y-27782068D01*
X49676260Y-27725000D01*
X49500305Y-27725000D01*
X50592305Y-26633000D01*
X61241695Y-26633000D01*
X60097693Y-27777003D01*
X59836260Y-27725000D01*
X59543740Y-27725000D01*
X59256842Y-27782068D01*
X58986589Y-27894010D01*
X58743368Y-28056525D01*
X58611513Y-28188380D01*
X58589502Y-28115820D01*
X58530537Y-28005506D01*
X58451185Y-27908815D01*
X58354494Y-27829463D01*
X58244180Y-27770498D01*
X58124482Y-27734188D01*
X58000000Y-27721928D01*
X57435750Y-27725000D01*
X57277000Y-27883750D01*
X57277000Y-29083000D01*
X57297000Y-29083000D01*
X57297000Y-29337000D01*
X57277000Y-29337000D01*
X57277000Y-30536250D01*
X57435750Y-30695000D01*
X58000000Y-30698072D01*
X58124482Y-30685812D01*
X58244180Y-30649502D01*
X58354494Y-30590537D01*
X58451185Y-30511185D01*
X58530537Y-30414494D01*
X58589502Y-30304180D01*
X58611513Y-30231620D01*
X58743368Y-30363475D01*
X58986589Y-30525990D01*
X59256842Y-30637932D01*
X59543740Y-30695000D01*
X59836260Y-30695000D01*
X60123158Y-30637932D01*
X60393411Y-30525990D01*
X60636632Y-30363475D01*
X60843475Y-30156632D01*
X60960000Y-29982240D01*
X61076525Y-30156632D01*
X61283368Y-30363475D01*
X61526589Y-30525990D01*
X61796842Y-30637932D01*
X62083740Y-30695000D01*
X62376260Y-30695000D01*
X62663158Y-30637932D01*
X62933411Y-30525990D01*
X63176632Y-30363475D01*
X63383475Y-30156632D01*
X63448042Y-30060000D01*
X68361928Y-30060000D01*
X68374188Y-30184482D01*
X68410498Y-30304180D01*
X68469463Y-30414494D01*
X68548815Y-30511185D01*
X68645506Y-30590537D01*
X68755820Y-30649502D01*
X68875518Y-30685812D01*
X69000000Y-30698072D01*
X69564250Y-30695000D01*
X69723000Y-30536250D01*
X69723000Y-29337000D01*
X68523750Y-29337000D01*
X68365000Y-29495750D01*
X68361928Y-30060000D01*
X63448042Y-30060000D01*
X63545990Y-29913411D01*
X63657932Y-29643158D01*
X63715000Y-29356260D01*
X63715000Y-29063740D01*
X63657932Y-28776842D01*
X63545990Y-28506589D01*
X63448043Y-28360000D01*
X68361928Y-28360000D01*
X68365000Y-28924250D01*
X68523750Y-29083000D01*
X69723000Y-29083000D01*
X69723000Y-27883750D01*
X69564250Y-27725000D01*
X69000000Y-27721928D01*
X68875518Y-27734188D01*
X68755820Y-27770498D01*
X68645506Y-27829463D01*
X68548815Y-27908815D01*
X68469463Y-28005506D01*
X68410498Y-28115820D01*
X68374188Y-28235518D01*
X68361928Y-28360000D01*
X63448043Y-28360000D01*
X63383475Y-28263368D01*
X63176632Y-28056525D01*
X62933411Y-27894010D01*
X62663158Y-27782068D01*
X62376260Y-27725000D01*
X62200305Y-27725000D01*
X62784305Y-27141000D01*
X73433695Y-27141000D01*
X72797693Y-27777003D01*
X72536260Y-27725000D01*
X72243740Y-27725000D01*
X71956842Y-27782068D01*
X71686589Y-27894010D01*
X71443368Y-28056525D01*
X71311513Y-28188380D01*
X71289502Y-28115820D01*
X71230537Y-28005506D01*
X71151185Y-27908815D01*
X71054494Y-27829463D01*
X70944180Y-27770498D01*
X70824482Y-27734188D01*
X70700000Y-27721928D01*
X70135750Y-27725000D01*
X69977000Y-27883750D01*
X69977000Y-29083000D01*
X69997000Y-29083000D01*
X69997000Y-29337000D01*
X69977000Y-29337000D01*
X69977000Y-30536250D01*
X70135750Y-30695000D01*
X70700000Y-30698072D01*
X70824482Y-30685812D01*
X70944180Y-30649502D01*
X71054494Y-30590537D01*
X71151185Y-30511185D01*
X71230537Y-30414494D01*
X71289502Y-30304180D01*
X71311513Y-30231620D01*
X71443368Y-30363475D01*
X71686589Y-30525990D01*
X71956842Y-30637932D01*
X72243740Y-30695000D01*
X72536260Y-30695000D01*
X72823158Y-30637932D01*
X73093411Y-30525990D01*
X73336632Y-30363475D01*
X73543475Y-30156632D01*
X73660000Y-29982240D01*
X73776525Y-30156632D01*
X73983368Y-30363475D01*
X74226589Y-30525990D01*
X74496842Y-30637932D01*
X74783740Y-30695000D01*
X75076260Y-30695000D01*
X75363158Y-30637932D01*
X75633411Y-30525990D01*
X75876632Y-30363475D01*
X76083475Y-30156632D01*
X76148042Y-30060000D01*
X81061928Y-30060000D01*
X81074188Y-30184482D01*
X81110498Y-30304180D01*
X81169463Y-30414494D01*
X81248815Y-30511185D01*
X81345506Y-30590537D01*
X81455820Y-30649502D01*
X81575518Y-30685812D01*
X81700000Y-30698072D01*
X82264250Y-30695000D01*
X82423000Y-30536250D01*
X82423000Y-29337000D01*
X81223750Y-29337000D01*
X81065000Y-29495750D01*
X81061928Y-30060000D01*
X76148042Y-30060000D01*
X76245990Y-29913411D01*
X76357932Y-29643158D01*
X76415000Y-29356260D01*
X76415000Y-29063740D01*
X76357932Y-28776842D01*
X76245990Y-28506589D01*
X76148043Y-28360000D01*
X81061928Y-28360000D01*
X81065000Y-28924250D01*
X81223750Y-29083000D01*
X82423000Y-29083000D01*
X82423000Y-27883750D01*
X82264250Y-27725000D01*
X81700000Y-27721928D01*
X81575518Y-27734188D01*
X81455820Y-27770498D01*
X81345506Y-27829463D01*
X81248815Y-27908815D01*
X81169463Y-28005506D01*
X81110498Y-28115820D01*
X81074188Y-28235518D01*
X81061928Y-28360000D01*
X76148043Y-28360000D01*
X76083475Y-28263368D01*
X75876632Y-28056525D01*
X75633411Y-27894010D01*
X75363158Y-27782068D01*
X75076260Y-27725000D01*
X74900305Y-27725000D01*
X74976305Y-27649000D01*
X90123696Y-27649000D01*
X90207000Y-27732305D01*
X90207001Y-28412385D01*
X90207000Y-28412394D01*
X90207001Y-29428394D01*
X90203494Y-29464000D01*
X90217492Y-29606124D01*
X90258947Y-29742787D01*
X90326269Y-29868736D01*
X90394170Y-29951474D01*
X90394173Y-29951477D01*
X90416869Y-29979132D01*
X90444523Y-30001827D01*
X91213696Y-30771000D01*
X87676305Y-30771000D01*
X87600305Y-30695000D01*
X87776260Y-30695000D01*
X88063158Y-30637932D01*
X88333411Y-30525990D01*
X88576632Y-30363475D01*
X88783475Y-30156632D01*
X88945990Y-29913411D01*
X89057932Y-29643158D01*
X89115000Y-29356260D01*
X89115000Y-29063740D01*
X89057932Y-28776842D01*
X88945990Y-28506589D01*
X88783475Y-28263368D01*
X88576632Y-28056525D01*
X88333411Y-27894010D01*
X88063158Y-27782068D01*
X87776260Y-27725000D01*
X87483740Y-27725000D01*
X87196842Y-27782068D01*
X86926589Y-27894010D01*
X86683368Y-28056525D01*
X86476525Y-28263368D01*
X86360000Y-28437760D01*
X86243475Y-28263368D01*
X86036632Y-28056525D01*
X85793411Y-27894010D01*
X85523158Y-27782068D01*
X85236260Y-27725000D01*
X84943740Y-27725000D01*
X84656842Y-27782068D01*
X84386589Y-27894010D01*
X84143368Y-28056525D01*
X84011513Y-28188380D01*
X83989502Y-28115820D01*
X83930537Y-28005506D01*
X83851185Y-27908815D01*
X83754494Y-27829463D01*
X83644180Y-27770498D01*
X83524482Y-27734188D01*
X83400000Y-27721928D01*
X82835750Y-27725000D01*
X82677000Y-27883750D01*
X82677000Y-29083000D01*
X82697000Y-29083000D01*
X82697000Y-29337000D01*
X82677000Y-29337000D01*
X82677000Y-30536250D01*
X82835750Y-30695000D01*
X83400000Y-30698072D01*
X83524482Y-30685812D01*
X83644180Y-30649502D01*
X83754494Y-30590537D01*
X83851185Y-30511185D01*
X83930537Y-30414494D01*
X83989502Y-30304180D01*
X84011513Y-30231620D01*
X84143368Y-30363475D01*
X84386589Y-30525990D01*
X84656842Y-30637932D01*
X84943740Y-30695000D01*
X85236260Y-30695000D01*
X85497693Y-30642997D01*
X86133695Y-31279000D01*
X50581596Y-31279000D01*
X50545999Y-31275494D01*
X50510402Y-31279000D01*
X50510393Y-31279000D01*
X50403875Y-31289491D01*
X50267212Y-31330947D01*
X50141263Y-31398269D01*
X50058525Y-31466170D01*
X50058523Y-31466172D01*
X50030868Y-31488868D01*
X50008172Y-31516523D01*
X47397693Y-34127003D01*
X47136260Y-34075000D01*
X46843740Y-34075000D01*
X46556842Y-34132068D01*
X46286589Y-34244010D01*
X46043368Y-34406525D01*
X45911513Y-34538380D01*
X45889502Y-34465820D01*
X45830537Y-34355506D01*
X45751185Y-34258815D01*
X45654494Y-34179463D01*
X45544180Y-34120498D01*
X45424482Y-34084188D01*
X45300000Y-34071928D01*
X44735750Y-34075000D01*
X44577000Y-34233750D01*
X44577000Y-35433000D01*
X44597000Y-35433000D01*
X44597000Y-35687000D01*
X44577000Y-35687000D01*
X44577000Y-36886250D01*
X44735750Y-37045000D01*
X45300000Y-37048072D01*
X45424482Y-37035812D01*
X45544180Y-36999502D01*
X45654494Y-36940537D01*
X45751185Y-36861185D01*
X45830537Y-36764494D01*
X45889502Y-36654180D01*
X45911513Y-36581620D01*
X46043368Y-36713475D01*
X46286589Y-36875990D01*
X46556842Y-36987932D01*
X46843740Y-37045000D01*
X47136260Y-37045000D01*
X47423158Y-36987932D01*
X47693411Y-36875990D01*
X47936632Y-36713475D01*
X48143475Y-36506632D01*
X48260000Y-36332240D01*
X48376525Y-36506632D01*
X48583368Y-36713475D01*
X48826589Y-36875990D01*
X49096842Y-36987932D01*
X49383740Y-37045000D01*
X49676260Y-37045000D01*
X49963158Y-36987932D01*
X50233411Y-36875990D01*
X50476632Y-36713475D01*
X50683475Y-36506632D01*
X50748042Y-36410000D01*
X55661928Y-36410000D01*
X55674188Y-36534482D01*
X55710498Y-36654180D01*
X55769463Y-36764494D01*
X55848815Y-36861185D01*
X55945506Y-36940537D01*
X56055820Y-36999502D01*
X56175518Y-37035812D01*
X56300000Y-37048072D01*
X56864250Y-37045000D01*
X57023000Y-36886250D01*
X57023000Y-35687000D01*
X55823750Y-35687000D01*
X55665000Y-35845750D01*
X55661928Y-36410000D01*
X50748042Y-36410000D01*
X50845990Y-36263411D01*
X50957932Y-35993158D01*
X51015000Y-35706260D01*
X51015000Y-35413740D01*
X50957932Y-35126842D01*
X50845990Y-34856589D01*
X50748043Y-34710000D01*
X55661928Y-34710000D01*
X55665000Y-35274250D01*
X55823750Y-35433000D01*
X57023000Y-35433000D01*
X57023000Y-34233750D01*
X56864250Y-34075000D01*
X56300000Y-34071928D01*
X56175518Y-34084188D01*
X56055820Y-34120498D01*
X55945506Y-34179463D01*
X55848815Y-34258815D01*
X55769463Y-34355506D01*
X55710498Y-34465820D01*
X55674188Y-34585518D01*
X55661928Y-34710000D01*
X50748043Y-34710000D01*
X50683475Y-34613368D01*
X50476632Y-34406525D01*
X50233411Y-34244010D01*
X49963158Y-34132068D01*
X49676260Y-34075000D01*
X49500305Y-34075000D01*
X50846305Y-32729000D01*
X61495695Y-32729000D01*
X60097693Y-34127003D01*
X59836260Y-34075000D01*
X59543740Y-34075000D01*
X59256842Y-34132068D01*
X58986589Y-34244010D01*
X58743368Y-34406525D01*
X58611513Y-34538380D01*
X58589502Y-34465820D01*
X58530537Y-34355506D01*
X58451185Y-34258815D01*
X58354494Y-34179463D01*
X58244180Y-34120498D01*
X58124482Y-34084188D01*
X58000000Y-34071928D01*
X57435750Y-34075000D01*
X57277000Y-34233750D01*
X57277000Y-35433000D01*
X57297000Y-35433000D01*
X57297000Y-35687000D01*
X57277000Y-35687000D01*
X57277000Y-36886250D01*
X57435750Y-37045000D01*
X58000000Y-37048072D01*
X58124482Y-37035812D01*
X58244180Y-36999502D01*
X58354494Y-36940537D01*
X58451185Y-36861185D01*
X58530537Y-36764494D01*
X58589502Y-36654180D01*
X58611513Y-36581620D01*
X58743368Y-36713475D01*
X58986589Y-36875990D01*
X59256842Y-36987932D01*
X59543740Y-37045000D01*
X59836260Y-37045000D01*
X60123158Y-36987932D01*
X60393411Y-36875990D01*
X60636632Y-36713475D01*
X60843475Y-36506632D01*
X60960000Y-36332240D01*
X61076525Y-36506632D01*
X61283368Y-36713475D01*
X61526589Y-36875990D01*
X61796842Y-36987932D01*
X62083740Y-37045000D01*
X62376260Y-37045000D01*
X62663158Y-36987932D01*
X62933411Y-36875990D01*
X63176632Y-36713475D01*
X63383475Y-36506632D01*
X63448042Y-36410000D01*
X68361928Y-36410000D01*
X68374188Y-36534482D01*
X68410498Y-36654180D01*
X68469463Y-36764494D01*
X68548815Y-36861185D01*
X68645506Y-36940537D01*
X68755820Y-36999502D01*
X68875518Y-37035812D01*
X69000000Y-37048072D01*
X69564250Y-37045000D01*
X69723000Y-36886250D01*
X69723000Y-35687000D01*
X68523750Y-35687000D01*
X68365000Y-35845750D01*
X68361928Y-36410000D01*
X63448042Y-36410000D01*
X63545990Y-36263411D01*
X63657932Y-35993158D01*
X63715000Y-35706260D01*
X63715000Y-35413740D01*
X63657932Y-35126842D01*
X63545990Y-34856589D01*
X63448043Y-34710000D01*
X68361928Y-34710000D01*
X68365000Y-35274250D01*
X68523750Y-35433000D01*
X69723000Y-35433000D01*
X69723000Y-34233750D01*
X69564250Y-34075000D01*
X69000000Y-34071928D01*
X68875518Y-34084188D01*
X68755820Y-34120498D01*
X68645506Y-34179463D01*
X68548815Y-34258815D01*
X68469463Y-34355506D01*
X68410498Y-34465820D01*
X68374188Y-34585518D01*
X68361928Y-34710000D01*
X63448043Y-34710000D01*
X63383475Y-34613368D01*
X63176632Y-34406525D01*
X62933411Y-34244010D01*
X62663158Y-34132068D01*
X62376260Y-34075000D01*
X62200305Y-34075000D01*
X63038305Y-33237000D01*
X73687695Y-33237000D01*
X72797693Y-34127003D01*
X72536260Y-34075000D01*
X72243740Y-34075000D01*
X71956842Y-34132068D01*
X71686589Y-34244010D01*
X71443368Y-34406525D01*
X71311513Y-34538380D01*
X71289502Y-34465820D01*
X71230537Y-34355506D01*
X71151185Y-34258815D01*
X71054494Y-34179463D01*
X70944180Y-34120498D01*
X70824482Y-34084188D01*
X70700000Y-34071928D01*
X70135750Y-34075000D01*
X69977000Y-34233750D01*
X69977000Y-35433000D01*
X69997000Y-35433000D01*
X69997000Y-35687000D01*
X69977000Y-35687000D01*
X69977000Y-36886250D01*
X70135750Y-37045000D01*
X70700000Y-37048072D01*
X70824482Y-37035812D01*
X70944180Y-36999502D01*
X71054494Y-36940537D01*
X71151185Y-36861185D01*
X71230537Y-36764494D01*
X71289502Y-36654180D01*
X71311513Y-36581620D01*
X71443368Y-36713475D01*
X71686589Y-36875990D01*
X71956842Y-36987932D01*
X72243740Y-37045000D01*
X72536260Y-37045000D01*
X72823158Y-36987932D01*
X73093411Y-36875990D01*
X73336632Y-36713475D01*
X73543475Y-36506632D01*
X73660000Y-36332240D01*
X73776525Y-36506632D01*
X73983368Y-36713475D01*
X74226589Y-36875990D01*
X74496842Y-36987932D01*
X74783740Y-37045000D01*
X75076260Y-37045000D01*
X75363158Y-36987932D01*
X75633411Y-36875990D01*
X75876632Y-36713475D01*
X76083475Y-36506632D01*
X76245990Y-36263411D01*
X76357932Y-35993158D01*
X76360549Y-35980000D01*
X83601928Y-35980000D01*
X83605000Y-36544250D01*
X83763750Y-36703000D01*
X84963000Y-36703000D01*
X84963000Y-35503750D01*
X85217000Y-35503750D01*
X85217000Y-36703000D01*
X85237000Y-36703000D01*
X85237000Y-36957000D01*
X85217000Y-36957000D01*
X85217000Y-38156250D01*
X85375750Y-38315000D01*
X85940000Y-38318072D01*
X86064482Y-38305812D01*
X86184180Y-38269502D01*
X86294494Y-38210537D01*
X86391185Y-38131185D01*
X86470537Y-38034494D01*
X86529502Y-37924180D01*
X86551513Y-37851620D01*
X86683368Y-37983475D01*
X86926589Y-38145990D01*
X87196842Y-38257932D01*
X87483740Y-38315000D01*
X87776260Y-38315000D01*
X88063158Y-38257932D01*
X88333411Y-38145990D01*
X88576632Y-37983475D01*
X88783475Y-37776632D01*
X88945990Y-37533411D01*
X89057932Y-37263158D01*
X89115000Y-36976260D01*
X89115000Y-36683740D01*
X89057932Y-36396842D01*
X88945990Y-36126589D01*
X88783475Y-35883368D01*
X88576632Y-35676525D01*
X88333411Y-35514010D01*
X88063158Y-35402068D01*
X87776260Y-35345000D01*
X87483740Y-35345000D01*
X87196842Y-35402068D01*
X86926589Y-35514010D01*
X86683368Y-35676525D01*
X86551513Y-35808380D01*
X86529502Y-35735820D01*
X86470537Y-35625506D01*
X86391185Y-35528815D01*
X86294494Y-35449463D01*
X86184180Y-35390498D01*
X86064482Y-35354188D01*
X85940000Y-35341928D01*
X85375750Y-35345000D01*
X85217000Y-35503750D01*
X84963000Y-35503750D01*
X84804250Y-35345000D01*
X84240000Y-35341928D01*
X84115518Y-35354188D01*
X83995820Y-35390498D01*
X83885506Y-35449463D01*
X83788815Y-35528815D01*
X83709463Y-35625506D01*
X83650498Y-35735820D01*
X83614188Y-35855518D01*
X83601928Y-35980000D01*
X76360549Y-35980000D01*
X76415000Y-35706260D01*
X76415000Y-35413740D01*
X76357932Y-35126842D01*
X76245990Y-34856589D01*
X76083475Y-34613368D01*
X75876632Y-34406525D01*
X75633411Y-34244010D01*
X75363158Y-34132068D01*
X75076260Y-34075000D01*
X74900305Y-34075000D01*
X75230305Y-33745000D01*
X83468826Y-33745000D01*
X83477010Y-33786145D01*
X83543723Y-33947205D01*
X83640576Y-34092155D01*
X83763845Y-34215424D01*
X83908795Y-34312277D01*
X84069855Y-34378990D01*
X84240835Y-34413000D01*
X84415165Y-34413000D01*
X84586145Y-34378990D01*
X84747205Y-34312277D01*
X84820953Y-34263000D01*
X84872105Y-34263000D01*
X84980085Y-34252365D01*
X85118633Y-34210337D01*
X85246320Y-34142087D01*
X85358238Y-34050238D01*
X85450087Y-33938320D01*
X85518337Y-33810633D01*
X85538247Y-33745000D01*
X91088826Y-33745000D01*
X91097010Y-33786145D01*
X91163723Y-33947205D01*
X91260576Y-34092155D01*
X91383845Y-34215424D01*
X91528795Y-34312277D01*
X91689855Y-34378990D01*
X91860835Y-34413000D01*
X92035165Y-34413000D01*
X92206145Y-34378990D01*
X92367205Y-34312277D01*
X92512155Y-34215424D01*
X92635424Y-34092155D01*
X92732277Y-33947205D01*
X92798990Y-33786145D01*
X92807174Y-33745000D01*
X95660826Y-33745000D01*
X95669010Y-33786145D01*
X95735723Y-33947205D01*
X95795054Y-34036000D01*
X95735723Y-34124795D01*
X95669010Y-34285855D01*
X95635000Y-34456835D01*
X95635000Y-34631165D01*
X95669010Y-34802145D01*
X95735723Y-34963205D01*
X95795054Y-35052000D01*
X95735723Y-35140795D01*
X95669010Y-35301855D01*
X95635000Y-35472835D01*
X95635000Y-35647165D01*
X95669010Y-35818145D01*
X95735723Y-35979205D01*
X95832576Y-36124155D01*
X95955845Y-36247424D01*
X96100795Y-36344277D01*
X96261855Y-36410990D01*
X96432835Y-36445000D01*
X96607165Y-36445000D01*
X96661884Y-36434116D01*
X96651000Y-36488835D01*
X96651000Y-36663165D01*
X96685010Y-36834145D01*
X96751723Y-36995205D01*
X96848576Y-37140155D01*
X96971845Y-37263424D01*
X97116795Y-37360277D01*
X97277855Y-37426990D01*
X97448835Y-37461000D01*
X97623165Y-37461000D01*
X97794145Y-37426990D01*
X97955205Y-37360277D01*
X98100155Y-37263424D01*
X98223424Y-37140155D01*
X98320277Y-36995205D01*
X98386990Y-36834145D01*
X98407805Y-36729499D01*
X99547477Y-35589828D01*
X99575132Y-35567132D01*
X99627149Y-35503750D01*
X99665731Y-35456737D01*
X99687551Y-35415915D01*
X99733053Y-35330788D01*
X99774509Y-35194125D01*
X99785000Y-35087607D01*
X99785000Y-35087598D01*
X99788506Y-35052001D01*
X99785000Y-35016404D01*
X99785000Y-33044874D01*
X99788506Y-33009277D01*
X99785000Y-32973680D01*
X99785000Y-32973671D01*
X99774509Y-32867153D01*
X99733053Y-32730490D01*
X99665731Y-32604541D01*
X99659515Y-32596967D01*
X99597830Y-32521803D01*
X99597823Y-32521796D01*
X99575131Y-32494146D01*
X99547482Y-32471455D01*
X97068554Y-29992528D01*
X97045854Y-29964868D01*
X96935459Y-29874269D01*
X96809510Y-29806947D01*
X96672847Y-29765491D01*
X96566329Y-29755000D01*
X96566319Y-29755000D01*
X96530722Y-29751494D01*
X96495125Y-29755000D01*
X94331331Y-29755000D01*
X94344940Y-29722145D01*
X94378950Y-29551165D01*
X94378950Y-29376835D01*
X94344940Y-29205855D01*
X94278227Y-29044795D01*
X94181374Y-28899845D01*
X94058105Y-28776576D01*
X93913155Y-28679723D01*
X93888950Y-28669697D01*
X93888950Y-28505851D01*
X93854940Y-28334871D01*
X93818322Y-28246466D01*
X93891205Y-28216277D01*
X94036155Y-28119424D01*
X94159424Y-27996155D01*
X94256277Y-27851205D01*
X94322990Y-27690145D01*
X94357000Y-27519165D01*
X94357000Y-27344835D01*
X94322990Y-27173855D01*
X94256277Y-27012795D01*
X94197000Y-26924081D01*
X94197000Y-26915176D01*
X94238145Y-26906992D01*
X94399205Y-26840279D01*
X94544155Y-26743426D01*
X94667424Y-26620157D01*
X94728010Y-26529484D01*
X95226735Y-27275879D01*
X95914121Y-27963265D01*
X96722401Y-28503340D01*
X97620514Y-28875350D01*
X98573945Y-29065000D01*
X99546055Y-29065000D01*
X100499486Y-28875350D01*
X101397599Y-28503340D01*
X102205879Y-27963265D01*
X102893265Y-27275879D01*
X103433340Y-26467599D01*
X103805350Y-25569486D01*
X103995000Y-24616055D01*
X103995000Y-23643945D01*
X103805350Y-22690514D01*
X103433340Y-21792401D01*
X102893265Y-20984121D01*
X102205879Y-20296735D01*
X101397599Y-19756660D01*
X100499486Y-19384650D01*
X99546055Y-19195000D01*
X98573945Y-19195000D01*
X97620514Y-19384650D01*
X96722401Y-19756660D01*
X95914121Y-20296735D01*
X95226735Y-20984121D01*
X94686660Y-21792401D01*
X94314650Y-22690514D01*
X94125000Y-23643945D01*
X94125000Y-24616055D01*
X94242511Y-25206820D01*
X94238145Y-25205012D01*
X94133500Y-25184197D01*
X92411831Y-23462529D01*
X92389131Y-23434869D01*
X92278736Y-23344270D01*
X92152787Y-23276948D01*
X92016124Y-23235492D01*
X91909606Y-23225001D01*
X91909596Y-23225001D01*
X91873999Y-23221495D01*
X91838402Y-23225001D01*
X89071489Y-23225001D01*
X89115000Y-23006260D01*
X89115000Y-22713740D01*
X89057932Y-22426842D01*
X88945990Y-22156589D01*
X88783475Y-21913368D01*
X88576632Y-21706525D01*
X88333411Y-21544010D01*
X88063158Y-21432068D01*
X87776260Y-21375000D01*
X87483740Y-21375000D01*
X87196842Y-21432068D01*
X86926589Y-21544010D01*
X86683368Y-21706525D01*
X86476525Y-21913368D01*
X86360000Y-22087760D01*
X86243475Y-21913368D01*
X86036632Y-21706525D01*
X85793411Y-21544010D01*
X85523158Y-21432068D01*
X85236260Y-21375000D01*
X84943740Y-21375000D01*
X84656842Y-21432068D01*
X84386589Y-21544010D01*
X84143368Y-21706525D01*
X84011513Y-21838380D01*
X83989502Y-21765820D01*
X83930537Y-21655506D01*
X83851185Y-21558815D01*
X83754494Y-21479463D01*
X83644180Y-21420498D01*
X83524482Y-21384188D01*
X83400000Y-21371928D01*
X82835750Y-21375000D01*
X82677000Y-21533750D01*
X82677000Y-22733000D01*
X82697000Y-22733000D01*
X82697000Y-22987000D01*
X82677000Y-22987000D01*
X82677000Y-23007000D01*
X82423000Y-23007000D01*
X82423000Y-22987000D01*
X81223750Y-22987000D01*
X81065000Y-23145750D01*
X81062206Y-23659000D01*
X76182120Y-23659000D01*
X76245990Y-23563411D01*
X76357932Y-23293158D01*
X76415000Y-23006260D01*
X76415000Y-22713740D01*
X76357932Y-22426842D01*
X76245990Y-22156589D01*
X76148043Y-22010000D01*
X81061928Y-22010000D01*
X81065000Y-22574250D01*
X81223750Y-22733000D01*
X82423000Y-22733000D01*
X82423000Y-21533750D01*
X82264250Y-21375000D01*
X81700000Y-21371928D01*
X81575518Y-21384188D01*
X81455820Y-21420498D01*
X81345506Y-21479463D01*
X81248815Y-21558815D01*
X81169463Y-21655506D01*
X81110498Y-21765820D01*
X81074188Y-21885518D01*
X81061928Y-22010000D01*
X76148043Y-22010000D01*
X76083475Y-21913368D01*
X75876632Y-21706525D01*
X75633411Y-21544010D01*
X75363158Y-21432068D01*
X75076260Y-21375000D01*
X74783740Y-21375000D01*
X74496842Y-21432068D01*
X74226589Y-21544010D01*
X73983368Y-21706525D01*
X73776525Y-21913368D01*
X73660000Y-22087760D01*
X73543475Y-21913368D01*
X73336632Y-21706525D01*
X73093411Y-21544010D01*
X72823158Y-21432068D01*
X72536260Y-21375000D01*
X72243740Y-21375000D01*
X71956842Y-21432068D01*
X71686589Y-21544010D01*
X71443368Y-21706525D01*
X71311513Y-21838380D01*
X71289502Y-21765820D01*
X71230537Y-21655506D01*
X71151185Y-21558815D01*
X71054494Y-21479463D01*
X70944180Y-21420498D01*
X70824482Y-21384188D01*
X70700000Y-21371928D01*
X70135750Y-21375000D01*
X69977000Y-21533750D01*
X69977000Y-22733000D01*
X69997000Y-22733000D01*
X69997000Y-22987000D01*
X69977000Y-22987000D01*
X69977000Y-23007000D01*
X69723000Y-23007000D01*
X69723000Y-22987000D01*
X68523750Y-22987000D01*
X68365000Y-23145750D01*
X68361928Y-23710000D01*
X68374188Y-23834482D01*
X68410498Y-23954180D01*
X68469463Y-24064494D01*
X68548815Y-24161185D01*
X68555901Y-24167000D01*
X62946865Y-24167000D01*
X63176632Y-24013475D01*
X63383475Y-23806632D01*
X63545990Y-23563411D01*
X63657932Y-23293158D01*
X63715000Y-23006260D01*
X63715000Y-22713740D01*
X63657932Y-22426842D01*
X63545990Y-22156589D01*
X63448043Y-22010000D01*
X68361928Y-22010000D01*
X68365000Y-22574250D01*
X68523750Y-22733000D01*
X69723000Y-22733000D01*
X69723000Y-21533750D01*
X69564250Y-21375000D01*
X69000000Y-21371928D01*
X68875518Y-21384188D01*
X68755820Y-21420498D01*
X68645506Y-21479463D01*
X68548815Y-21558815D01*
X68469463Y-21655506D01*
X68410498Y-21765820D01*
X68374188Y-21885518D01*
X68361928Y-22010000D01*
X63448043Y-22010000D01*
X63383475Y-21913368D01*
X63176632Y-21706525D01*
X62933411Y-21544010D01*
X62663158Y-21432068D01*
X62376260Y-21375000D01*
X62083740Y-21375000D01*
X61796842Y-21432068D01*
X61526589Y-21544010D01*
X61283368Y-21706525D01*
X61076525Y-21913368D01*
X60960000Y-22087760D01*
X60843475Y-21913368D01*
X60636632Y-21706525D01*
X60393411Y-21544010D01*
X60123158Y-21432068D01*
X59836260Y-21375000D01*
X59543740Y-21375000D01*
X59256842Y-21432068D01*
X58986589Y-21544010D01*
X58743368Y-21706525D01*
X58611513Y-21838380D01*
X58589502Y-21765820D01*
X58530537Y-21655506D01*
X58451185Y-21558815D01*
X58354494Y-21479463D01*
X58244180Y-21420498D01*
X58124482Y-21384188D01*
X58000000Y-21371928D01*
X57435750Y-21375000D01*
X57277000Y-21533750D01*
X57277000Y-22733000D01*
X57297000Y-22733000D01*
X57297000Y-22987000D01*
X57277000Y-22987000D01*
X57277000Y-24186250D01*
X57435750Y-24345000D01*
X58000000Y-24348072D01*
X58124482Y-24335812D01*
X58244180Y-24299502D01*
X58354494Y-24240537D01*
X58451185Y-24161185D01*
X58530537Y-24064494D01*
X58589502Y-23954180D01*
X58611513Y-23881620D01*
X58743368Y-24013475D01*
X58986589Y-24175990D01*
X59256842Y-24287932D01*
X59543740Y-24345000D01*
X59836260Y-24345000D01*
X60097693Y-24292997D01*
X60479695Y-24675000D01*
X49830305Y-24675000D01*
X49500305Y-24345000D01*
X49676260Y-24345000D01*
X49963158Y-24287932D01*
X50233411Y-24175990D01*
X50476632Y-24013475D01*
X50683475Y-23806632D01*
X50748042Y-23710000D01*
X55661928Y-23710000D01*
X55674188Y-23834482D01*
X55710498Y-23954180D01*
X55769463Y-24064494D01*
X55848815Y-24161185D01*
X55945506Y-24240537D01*
X56055820Y-24299502D01*
X56175518Y-24335812D01*
X56300000Y-24348072D01*
X56864250Y-24345000D01*
X57023000Y-24186250D01*
X57023000Y-22987000D01*
X55823750Y-22987000D01*
X55665000Y-23145750D01*
X55661928Y-23710000D01*
X50748042Y-23710000D01*
X50845990Y-23563411D01*
X50957932Y-23293158D01*
X51015000Y-23006260D01*
X51015000Y-22713740D01*
X50957932Y-22426842D01*
X50845990Y-22156589D01*
X50748043Y-22010000D01*
X55661928Y-22010000D01*
X55665000Y-22574250D01*
X55823750Y-22733000D01*
X57023000Y-22733000D01*
X57023000Y-21533750D01*
X56864250Y-21375000D01*
X56300000Y-21371928D01*
X56175518Y-21384188D01*
X56055820Y-21420498D01*
X55945506Y-21479463D01*
X55848815Y-21558815D01*
X55769463Y-21655506D01*
X55710498Y-21765820D01*
X55674188Y-21885518D01*
X55661928Y-22010000D01*
X50748043Y-22010000D01*
X50683475Y-21913368D01*
X50476632Y-21706525D01*
X50233411Y-21544010D01*
X49963158Y-21432068D01*
X49676260Y-21375000D01*
X49383740Y-21375000D01*
X49096842Y-21432068D01*
X48826589Y-21544010D01*
X48583368Y-21706525D01*
X48376525Y-21913368D01*
X48260000Y-22087760D01*
X48143475Y-21913368D01*
X47936632Y-21706525D01*
X47693411Y-21544010D01*
X47423158Y-21432068D01*
X47136260Y-21375000D01*
X46843740Y-21375000D01*
X46556842Y-21432068D01*
X46286589Y-21544010D01*
X46043368Y-21706525D01*
X45911513Y-21838380D01*
X45889502Y-21765820D01*
X45830537Y-21655506D01*
X45751185Y-21558815D01*
X45654494Y-21479463D01*
X45544180Y-21420498D01*
X45424482Y-21384188D01*
X45300000Y-21371928D01*
X44735750Y-21375000D01*
X44577000Y-21533750D01*
X44323000Y-21533750D01*
X44164250Y-21375000D01*
X43600000Y-21371928D01*
X43475518Y-21384188D01*
X43355820Y-21420498D01*
X43245506Y-21479463D01*
X43148815Y-21558815D01*
X43069463Y-21655506D01*
X43010498Y-21765820D01*
X42974188Y-21885518D01*
X42961928Y-22010000D01*
X36213473Y-22010000D01*
X36123340Y-21792401D01*
X35583265Y-20984121D01*
X34895879Y-20296735D01*
X34087599Y-19756660D01*
X33189486Y-19384650D01*
X32236055Y-19195000D01*
X31263945Y-19195000D01*
X30310514Y-19384650D01*
X29412401Y-19756660D01*
X28604121Y-20296735D01*
X27916735Y-20984121D01*
X27376660Y-21792401D01*
X27004650Y-22690514D01*
X26815000Y-23643945D01*
X26125370Y-23643945D01*
X26156837Y-23244130D01*
X26364279Y-22380073D01*
X26704334Y-21559109D01*
X27168633Y-20801441D01*
X27745738Y-20125738D01*
X28421441Y-19548633D01*
X29179107Y-19084334D01*
X30000072Y-18744279D01*
X30864136Y-18536837D01*
X31776909Y-18465000D01*
X99033092Y-18465000D01*
X99945870Y-18536837D01*
%TA.AperFunction,Conductor*%
D23*
G36*
X99945870Y-18536837D02*
G01*
X100809927Y-18744279D01*
X101630891Y-19084334D01*
X102388559Y-19548633D01*
X103064262Y-20125738D01*
X103641367Y-20801441D01*
X104105666Y-21559107D01*
X104445721Y-22380072D01*
X104653163Y-23244136D01*
X104725001Y-24156922D01*
X104725000Y-55853091D01*
X104653163Y-56765864D01*
X104445721Y-57629928D01*
X104105666Y-58450893D01*
X103641367Y-59208559D01*
X103064262Y-59884262D01*
X102388559Y-60461367D01*
X101630891Y-60925666D01*
X100809927Y-61265721D01*
X99945870Y-61473163D01*
X99033092Y-61545000D01*
X31776909Y-61545000D01*
X30864136Y-61473163D01*
X30000072Y-61265721D01*
X29179107Y-60925666D01*
X28421441Y-60461367D01*
X27745738Y-59884262D01*
X27168633Y-59208559D01*
X26704334Y-58450891D01*
X26364279Y-57629927D01*
X26156837Y-56765870D01*
X26085000Y-55853092D01*
X26085000Y-55393945D01*
X26815000Y-55393945D01*
X26815000Y-56366055D01*
X27004650Y-57319486D01*
X27376660Y-58217599D01*
X27916735Y-59025879D01*
X28604121Y-59713265D01*
X29412401Y-60253340D01*
X30310514Y-60625350D01*
X31263945Y-60815000D01*
X32236055Y-60815000D01*
X33189486Y-60625350D01*
X34087599Y-60253340D01*
X34895879Y-59713265D01*
X35583265Y-59025879D01*
X36123340Y-58217599D01*
X36495350Y-57319486D01*
X36685000Y-56366055D01*
X36685000Y-55393945D01*
X36495350Y-54440514D01*
X36450693Y-54332702D01*
X41096903Y-54332702D01*
X41168486Y-54576671D01*
X41423996Y-54697571D01*
X41698184Y-54766300D01*
X41980512Y-54780217D01*
X42260130Y-54738787D01*
X42526292Y-54643603D01*
X42651514Y-54576671D01*
X42723097Y-54332702D01*
X41910000Y-53519605D01*
X41096903Y-54332702D01*
X36450693Y-54332702D01*
X36123340Y-53542401D01*
X36035215Y-53410512D01*
X40469783Y-53410512D01*
X40511213Y-53690130D01*
X40606397Y-53956292D01*
X40673329Y-54081514D01*
X40917298Y-54153097D01*
X41730395Y-53340000D01*
X42089605Y-53340000D01*
X42902702Y-54153097D01*
X43146671Y-54081514D01*
X43267571Y-53826004D01*
X43336300Y-53551816D01*
X43350217Y-53269488D01*
X43308787Y-52989870D01*
X43213603Y-52723708D01*
X43146671Y-52598486D01*
X42902702Y-52526903D01*
X42089605Y-53340000D01*
X41730395Y-53340000D01*
X40917298Y-52526903D01*
X40673329Y-52598486D01*
X40552429Y-52853996D01*
X40483700Y-53128184D01*
X40469783Y-53410512D01*
X36035215Y-53410512D01*
X35583265Y-52734121D01*
X34895879Y-52046735D01*
X34087599Y-51506660D01*
X33189486Y-51134650D01*
X32236055Y-50945000D01*
X31263945Y-50945000D01*
X30310514Y-51134650D01*
X29412401Y-51506660D01*
X28604121Y-52046735D01*
X27916735Y-52734121D01*
X27376660Y-53542401D01*
X27004650Y-54440514D01*
X26815000Y-55393945D01*
X26085000Y-55393945D01*
X26085000Y-44920000D01*
X40471928Y-44920000D01*
X40471928Y-46520000D01*
X40484188Y-46644482D01*
X40520498Y-46764180D01*
X40579463Y-46874494D01*
X40658815Y-46971185D01*
X40755506Y-47050537D01*
X40865820Y-47109502D01*
X40985518Y-47145812D01*
X40993961Y-47146643D01*
X40795363Y-47345241D01*
X40638320Y-47580273D01*
X40530147Y-47841426D01*
X40475000Y-48118665D01*
X40475000Y-48401335D01*
X40530147Y-48678574D01*
X40638320Y-48939727D01*
X40795363Y-49174759D01*
X40995241Y-49374637D01*
X41227759Y-49530000D01*
X40995241Y-49685363D01*
X40795363Y-49885241D01*
X40638320Y-50120273D01*
X40530147Y-50381426D01*
X40475000Y-50658665D01*
X40475000Y-50941335D01*
X40530147Y-51218574D01*
X40638320Y-51479727D01*
X40795363Y-51714759D01*
X40995241Y-51914637D01*
X41229128Y-52070915D01*
X41168486Y-52103329D01*
X41096903Y-52347298D01*
X41910000Y-53160395D01*
X42723097Y-52347298D01*
X42651514Y-52103329D01*
X42587008Y-52072806D01*
X42589727Y-52071680D01*
X42824759Y-51914637D01*
X43024637Y-51714759D01*
X43181680Y-51479727D01*
X43289853Y-51218574D01*
X43345000Y-50941335D01*
X43345000Y-50658665D01*
X43289853Y-50381426D01*
X43181680Y-50120273D01*
X43024637Y-49885241D01*
X42824759Y-49685363D01*
X42592241Y-49530000D01*
X42824759Y-49374637D01*
X43024637Y-49174759D01*
X43181680Y-48939727D01*
X43289853Y-48678574D01*
X43345000Y-48401335D01*
X43345000Y-48118665D01*
X43289853Y-47841426D01*
X43181680Y-47580273D01*
X43024637Y-47345241D01*
X42826039Y-47146643D01*
X42834482Y-47145812D01*
X42954180Y-47109502D01*
X43064494Y-47050537D01*
X43161185Y-46971185D01*
X43240537Y-46874494D01*
X43299502Y-46764180D01*
X43335812Y-46644482D01*
X43348072Y-46520000D01*
X43348072Y-44920000D01*
X43335812Y-44795518D01*
X43299502Y-44675820D01*
X43240537Y-44565506D01*
X43161185Y-44468815D01*
X43064494Y-44389463D01*
X42954180Y-44330498D01*
X42834482Y-44294188D01*
X42710000Y-44281928D01*
X41110000Y-44281928D01*
X40985518Y-44294188D01*
X40865820Y-44330498D01*
X40755506Y-44389463D01*
X40658815Y-44468815D01*
X40579463Y-44565506D01*
X40520498Y-44675820D01*
X40484188Y-44795518D01*
X40471928Y-44920000D01*
X26085000Y-44920000D01*
X26085000Y-35052000D01*
X27558718Y-35052000D01*
X27563000Y-35095477D01*
X27563000Y-35139165D01*
X27571523Y-35182013D01*
X27575805Y-35225490D01*
X27588487Y-35267295D01*
X27597010Y-35310145D01*
X27613731Y-35350513D01*
X27626411Y-35392313D01*
X27647001Y-35430835D01*
X27663723Y-35471205D01*
X27687996Y-35507533D01*
X27708589Y-35546059D01*
X27736304Y-35579829D01*
X27760576Y-35616155D01*
X27791470Y-35647049D01*
X27819183Y-35680817D01*
X27852951Y-35708530D01*
X27883845Y-35739424D01*
X27920171Y-35763696D01*
X27953941Y-35791411D01*
X27992467Y-35812004D01*
X28028795Y-35836277D01*
X28069165Y-35852999D01*
X28107687Y-35873589D01*
X28149487Y-35886269D01*
X28189855Y-35902990D01*
X28232705Y-35911513D01*
X28274510Y-35924195D01*
X28317987Y-35928477D01*
X28360835Y-35937000D01*
X38495422Y-35937000D01*
X38810887Y-36252465D01*
X38696795Y-36299723D01*
X38551845Y-36396576D01*
X38428576Y-36519845D01*
X38331723Y-36664795D01*
X38265010Y-36825855D01*
X38231000Y-36996835D01*
X38231000Y-37171165D01*
X38265010Y-37342145D01*
X38331723Y-37503205D01*
X38428576Y-37648155D01*
X38551845Y-37771424D01*
X38696795Y-37868277D01*
X38857855Y-37934990D01*
X38944848Y-37952294D01*
X48360747Y-47368194D01*
X48382398Y-47394576D01*
X48258320Y-47580273D01*
X48150147Y-47841426D01*
X48095000Y-48118665D01*
X48095000Y-48401335D01*
X48150147Y-48678574D01*
X48258320Y-48939727D01*
X48415363Y-49174759D01*
X48615241Y-49374637D01*
X48847759Y-49530000D01*
X48615241Y-49685363D01*
X48415363Y-49885241D01*
X48258320Y-50120273D01*
X48150147Y-50381426D01*
X48095000Y-50658665D01*
X48095000Y-50941335D01*
X48150147Y-51218574D01*
X48258320Y-51479727D01*
X48415363Y-51714759D01*
X48615241Y-51914637D01*
X48847759Y-52070000D01*
X48615241Y-52225363D01*
X48415363Y-52425241D01*
X48258320Y-52660273D01*
X48150147Y-52921426D01*
X48095000Y-53198665D01*
X48095000Y-53481335D01*
X48150147Y-53758574D01*
X48258320Y-54019727D01*
X48415363Y-54254759D01*
X48615241Y-54454637D01*
X48850273Y-54611680D01*
X49111426Y-54719853D01*
X49388665Y-54775000D01*
X49671335Y-54775000D01*
X49883376Y-54732822D01*
X52728747Y-57578194D01*
X52751763Y-57606239D01*
X52863681Y-57698088D01*
X52991368Y-57766338D01*
X53064473Y-57788514D01*
X53129915Y-57808366D01*
X53274001Y-57822557D01*
X53310106Y-57819001D01*
X66069894Y-57819001D01*
X66105999Y-57822557D01*
X66142104Y-57819001D01*
X66250084Y-57808366D01*
X66388632Y-57766338D01*
X66516319Y-57698088D01*
X66628237Y-57606239D01*
X66651257Y-57578189D01*
X66914103Y-57315344D01*
X67163740Y-57365000D01*
X67456260Y-57365000D01*
X67743158Y-57307932D01*
X68013411Y-57195990D01*
X68256632Y-57033475D01*
X68463475Y-56826632D01*
X68585195Y-56644466D01*
X68654822Y-56761355D01*
X68849731Y-56977588D01*
X69083080Y-57151641D01*
X69345901Y-57276825D01*
X69493110Y-57321476D01*
X69723000Y-57200155D01*
X69723000Y-56007000D01*
X69977000Y-56007000D01*
X69977000Y-57200155D01*
X70206890Y-57321476D01*
X70354099Y-57276825D01*
X70616920Y-57151641D01*
X70850269Y-56977588D01*
X71045178Y-56761355D01*
X71194157Y-56511252D01*
X71291481Y-56236891D01*
X71170814Y-56007000D01*
X69977000Y-56007000D01*
X69723000Y-56007000D01*
X69703000Y-56007000D01*
X69703000Y-55753000D01*
X69723000Y-55753000D01*
X69723000Y-55733000D01*
X69977000Y-55733000D01*
X69977000Y-55753000D01*
X71170814Y-55753000D01*
X71291481Y-55523109D01*
X71194157Y-55248748D01*
X71063856Y-55030000D01*
X77251928Y-55030000D01*
X77251928Y-56730000D01*
X77264188Y-56854482D01*
X77300498Y-56974180D01*
X77359463Y-57084494D01*
X77438815Y-57181185D01*
X77535506Y-57260537D01*
X77645820Y-57319502D01*
X77765518Y-57355812D01*
X77890000Y-57368072D01*
X79590000Y-57368072D01*
X79714482Y-57355812D01*
X79834180Y-57319502D01*
X79944494Y-57260537D01*
X80041185Y-57181185D01*
X80120537Y-57084494D01*
X80179502Y-56974180D01*
X80203966Y-56893534D01*
X80279731Y-56977588D01*
X80513080Y-57151641D01*
X80775901Y-57276825D01*
X80923110Y-57321476D01*
X81153000Y-57200155D01*
X81153000Y-56007000D01*
X81407000Y-56007000D01*
X81407000Y-57200155D01*
X81636890Y-57321476D01*
X81784099Y-57276825D01*
X82046920Y-57151641D01*
X82280269Y-56977588D01*
X82475178Y-56761355D01*
X82624157Y-56511252D01*
X82721481Y-56236891D01*
X82600814Y-56007000D01*
X81407000Y-56007000D01*
X81153000Y-56007000D01*
X81133000Y-56007000D01*
X81133000Y-55753000D01*
X81153000Y-55753000D01*
X81153000Y-54559845D01*
X81407000Y-54559845D01*
X81407000Y-55753000D01*
X82600814Y-55753000D01*
X82721481Y-55523109D01*
X82675663Y-55393945D01*
X94125000Y-55393945D01*
X94125000Y-56366055D01*
X94314650Y-57319486D01*
X94686660Y-58217599D01*
X95226735Y-59025879D01*
X95914121Y-59713265D01*
X96722401Y-60253340D01*
X97620514Y-60625350D01*
X98573945Y-60815000D01*
X99546055Y-60815000D01*
X100499486Y-60625350D01*
X101397599Y-60253340D01*
X102205879Y-59713265D01*
X102893265Y-59025879D01*
X103433340Y-58217599D01*
X103805350Y-57319486D01*
X103995000Y-56366055D01*
X103995000Y-55393945D01*
X103805350Y-54440514D01*
X103433340Y-53542401D01*
X102893265Y-52734121D01*
X102205879Y-52046735D01*
X101397599Y-51506660D01*
X100499486Y-51134650D01*
X99546055Y-50945000D01*
X98573945Y-50945000D01*
X97620514Y-51134650D01*
X96722401Y-51506660D01*
X95914121Y-52046735D01*
X95226735Y-52734121D01*
X94686660Y-53542401D01*
X94314650Y-54440514D01*
X94125000Y-55393945D01*
X82675663Y-55393945D01*
X82624157Y-55248748D01*
X82475178Y-54998645D01*
X82280269Y-54782412D01*
X82046920Y-54608359D01*
X81784099Y-54483175D01*
X81636890Y-54438524D01*
X81407000Y-54559845D01*
X81153000Y-54559845D01*
X80923110Y-54438524D01*
X80775901Y-54483175D01*
X80513080Y-54608359D01*
X80279731Y-54782412D01*
X80203966Y-54866466D01*
X80179502Y-54785820D01*
X80120537Y-54675506D01*
X80041185Y-54578815D01*
X79944494Y-54499463D01*
X79834180Y-54440498D01*
X79714482Y-54404188D01*
X79590000Y-54391928D01*
X77890000Y-54391928D01*
X77765518Y-54404188D01*
X77645820Y-54440498D01*
X77535506Y-54499463D01*
X77438815Y-54578815D01*
X77359463Y-54675506D01*
X77300498Y-54785820D01*
X77264188Y-54905518D01*
X77251928Y-55030000D01*
X71063856Y-55030000D01*
X71045178Y-54998645D01*
X70850269Y-54782412D01*
X70620594Y-54611100D01*
X70796632Y-54493475D01*
X71003475Y-54286632D01*
X71165990Y-54043411D01*
X71277932Y-53773158D01*
X71335000Y-53486260D01*
X71335000Y-53193740D01*
X71277932Y-52906842D01*
X71165990Y-52636589D01*
X71003475Y-52393368D01*
X70796632Y-52186525D01*
X70553411Y-52024010D01*
X70283158Y-51912068D01*
X69996260Y-51855000D01*
X69703740Y-51855000D01*
X69416842Y-51912068D01*
X69146589Y-52024010D01*
X68903368Y-52186525D01*
X68696525Y-52393368D01*
X68580000Y-52567760D01*
X68463475Y-52393368D01*
X68256632Y-52186525D01*
X68013411Y-52024010D01*
X67743158Y-51912068D01*
X67456260Y-51855000D01*
X67163740Y-51855000D01*
X66914103Y-51904656D01*
X65214282Y-50204835D01*
X84967000Y-50204835D01*
X84967000Y-50379165D01*
X85001010Y-50550145D01*
X85067723Y-50711205D01*
X85164576Y-50856155D01*
X85287845Y-50979424D01*
X85432795Y-51076277D01*
X85593855Y-51142990D01*
X85764835Y-51177000D01*
X85939165Y-51177000D01*
X86110145Y-51142990D01*
X86271205Y-51076277D01*
X86416155Y-50979424D01*
X86539424Y-50856155D01*
X86636277Y-50711205D01*
X86702990Y-50550145D01*
X86737000Y-50379165D01*
X86737000Y-50204835D01*
X86702990Y-50033855D01*
X86636277Y-49872795D01*
X86577000Y-49784081D01*
X86577000Y-49068304D01*
X91085500Y-44559805D01*
X91190145Y-44538990D01*
X91351205Y-44472277D01*
X91496155Y-44375424D01*
X91619424Y-44252155D01*
X91716277Y-44107205D01*
X91782990Y-43946145D01*
X91817000Y-43775165D01*
X91817000Y-43600835D01*
X91782990Y-43429855D01*
X91716277Y-43268795D01*
X91619424Y-43123845D01*
X91496155Y-43000576D01*
X91351205Y-42903723D01*
X91190145Y-42837010D01*
X91019165Y-42803000D01*
X90844835Y-42803000D01*
X90673855Y-42837010D01*
X90512795Y-42903723D01*
X90367845Y-43000576D01*
X90244576Y-43123845D01*
X90147723Y-43268795D01*
X90081010Y-43429855D01*
X90060195Y-43534500D01*
X85364524Y-48230172D01*
X85336868Y-48252869D01*
X85246269Y-48363264D01*
X85178947Y-48489213D01*
X85137491Y-48625876D01*
X85127000Y-48732394D01*
X85127000Y-48732403D01*
X85123494Y-48768000D01*
X85127000Y-48803597D01*
X85127001Y-49784080D01*
X85067723Y-49872795D01*
X85001010Y-50033855D01*
X84967000Y-50204835D01*
X65214282Y-50204835D01*
X62775259Y-47765813D01*
X62752238Y-47737762D01*
X62640320Y-47645913D01*
X62512633Y-47577663D01*
X62374085Y-47535635D01*
X62266105Y-47525000D01*
X62230000Y-47521444D01*
X62193895Y-47525000D01*
X59131261Y-47525000D01*
X59151656Y-47514099D01*
X59285699Y-47487436D01*
X59446759Y-47420723D01*
X59591709Y-47323870D01*
X59714978Y-47200601D01*
X59811831Y-47055651D01*
X59878544Y-46894591D01*
X59912554Y-46723611D01*
X59912554Y-46549281D01*
X59878544Y-46378301D01*
X59811831Y-46217241D01*
X59714978Y-46072291D01*
X59591709Y-45949022D01*
X59446759Y-45852169D01*
X59285699Y-45785456D01*
X59114719Y-45751446D01*
X58940389Y-45751446D01*
X58769409Y-45785456D01*
X58608349Y-45852169D01*
X58463399Y-45949022D01*
X58340130Y-46072291D01*
X58295556Y-46139001D01*
X50909676Y-46139001D01*
X50909853Y-46138574D01*
X50965000Y-45861335D01*
X50965000Y-45578665D01*
X50909853Y-45301426D01*
X50801680Y-45040273D01*
X50644637Y-44805241D01*
X50444759Y-44605363D01*
X50209727Y-44448320D01*
X49948574Y-44340147D01*
X49671335Y-44285000D01*
X49388665Y-44285000D01*
X49353562Y-44291983D01*
X49091579Y-44030000D01*
X83601928Y-44030000D01*
X83614188Y-44154482D01*
X83650498Y-44274180D01*
X83709463Y-44384494D01*
X83788815Y-44481185D01*
X83885506Y-44560537D01*
X83995820Y-44619502D01*
X84115518Y-44655812D01*
X84240000Y-44668072D01*
X84804250Y-44665000D01*
X84963000Y-44506250D01*
X84963000Y-43307000D01*
X83763750Y-43307000D01*
X83605000Y-43465750D01*
X83601928Y-44030000D01*
X49091579Y-44030000D01*
X47391579Y-42330000D01*
X83601928Y-42330000D01*
X83605000Y-42894250D01*
X83763750Y-43053000D01*
X84963000Y-43053000D01*
X84963000Y-41853750D01*
X85217000Y-41853750D01*
X85217000Y-43053000D01*
X85237000Y-43053000D01*
X85237000Y-43307000D01*
X85217000Y-43307000D01*
X85217000Y-44506250D01*
X85375750Y-44665000D01*
X85940000Y-44668072D01*
X86064482Y-44655812D01*
X86184180Y-44619502D01*
X86294494Y-44560537D01*
X86391185Y-44481185D01*
X86470537Y-44384494D01*
X86529502Y-44274180D01*
X86551513Y-44201620D01*
X86683368Y-44333475D01*
X86926589Y-44495990D01*
X87196842Y-44607932D01*
X87483740Y-44665000D01*
X87776260Y-44665000D01*
X88063158Y-44607932D01*
X88333411Y-44495990D01*
X88576632Y-44333475D01*
X88783475Y-44126632D01*
X88945990Y-43883411D01*
X89057932Y-43613158D01*
X89115000Y-43326260D01*
X89115000Y-43033740D01*
X89057932Y-42746842D01*
X88990827Y-42584835D01*
X92079000Y-42584835D01*
X92079000Y-42759165D01*
X92113010Y-42930145D01*
X92179723Y-43091205D01*
X92276576Y-43236155D01*
X92399845Y-43359424D01*
X92544795Y-43456277D01*
X92705855Y-43522990D01*
X92876835Y-43557000D01*
X93051165Y-43557000D01*
X93086356Y-43550000D01*
X96351928Y-43550000D01*
X96351928Y-45350000D01*
X96364188Y-45474482D01*
X96400498Y-45594180D01*
X96459463Y-45704494D01*
X96538815Y-45801185D01*
X96635506Y-45880537D01*
X96745820Y-45939502D01*
X96865518Y-45975812D01*
X96990000Y-45988072D01*
X98590000Y-45988072D01*
X98714482Y-45975812D01*
X98834180Y-45939502D01*
X98944494Y-45880537D01*
X99041185Y-45801185D01*
X99120537Y-45704494D01*
X99179502Y-45594180D01*
X99215812Y-45474482D01*
X99228072Y-45350000D01*
X99228072Y-43550000D01*
X99215812Y-43425518D01*
X99179502Y-43305820D01*
X99120537Y-43195506D01*
X99041185Y-43098815D01*
X98944494Y-43019463D01*
X98834180Y-42960498D01*
X98714482Y-42924188D01*
X98590000Y-42911928D01*
X96990000Y-42911928D01*
X96865518Y-42924188D01*
X96745820Y-42960498D01*
X96635506Y-43019463D01*
X96538815Y-43098815D01*
X96459463Y-43195506D01*
X96400498Y-43305820D01*
X96364188Y-43425518D01*
X96351928Y-43550000D01*
X93086356Y-43550000D01*
X93222145Y-43522990D01*
X93383205Y-43456277D01*
X93528155Y-43359424D01*
X93651424Y-43236155D01*
X93748277Y-43091205D01*
X93814990Y-42930145D01*
X93835805Y-42825499D01*
X95296305Y-41365000D01*
X103210081Y-41365000D01*
X103298795Y-41424277D01*
X103459855Y-41490990D01*
X103630835Y-41525000D01*
X103805165Y-41525000D01*
X103976145Y-41490990D01*
X104137205Y-41424277D01*
X104282155Y-41327424D01*
X104405424Y-41204155D01*
X104502277Y-41059205D01*
X104568990Y-40898145D01*
X104603000Y-40727165D01*
X104603000Y-40552835D01*
X104568990Y-40381855D01*
X104502277Y-40220795D01*
X104405424Y-40075845D01*
X104282155Y-39952576D01*
X104137205Y-39855723D01*
X103976145Y-39789010D01*
X103805165Y-39755000D01*
X103630835Y-39755000D01*
X103459855Y-39789010D01*
X103298795Y-39855723D01*
X103210081Y-39915000D01*
X95031597Y-39915000D01*
X94996000Y-39911494D01*
X94960403Y-39915000D01*
X94960393Y-39915000D01*
X94853875Y-39925491D01*
X94717212Y-39966947D01*
X94591263Y-40034269D01*
X94508525Y-40102170D01*
X94508523Y-40102172D01*
X94480868Y-40124868D01*
X94458172Y-40152523D01*
X92810501Y-41800195D01*
X92705855Y-41821010D01*
X92544795Y-41887723D01*
X92399845Y-41984576D01*
X92276576Y-42107845D01*
X92179723Y-42252795D01*
X92113010Y-42413855D01*
X92079000Y-42584835D01*
X88990827Y-42584835D01*
X88945990Y-42476589D01*
X88783475Y-42233368D01*
X88576632Y-42026525D01*
X88333411Y-41864010D01*
X88063158Y-41752068D01*
X87776260Y-41695000D01*
X87483740Y-41695000D01*
X87196842Y-41752068D01*
X86926589Y-41864010D01*
X86683368Y-42026525D01*
X86551513Y-42158380D01*
X86529502Y-42085820D01*
X86470537Y-41975506D01*
X86391185Y-41878815D01*
X86294494Y-41799463D01*
X86184180Y-41740498D01*
X86064482Y-41704188D01*
X85940000Y-41691928D01*
X85375750Y-41695000D01*
X85217000Y-41853750D01*
X84963000Y-41853750D01*
X84804250Y-41695000D01*
X84240000Y-41691928D01*
X84115518Y-41704188D01*
X83995820Y-41740498D01*
X83885506Y-41799463D01*
X83788815Y-41878815D01*
X83709463Y-41975506D01*
X83650498Y-42085820D01*
X83614188Y-42205518D01*
X83601928Y-42330000D01*
X47391579Y-42330000D01*
X42741579Y-37680000D01*
X83601928Y-37680000D01*
X83614188Y-37804482D01*
X83650498Y-37924180D01*
X83709463Y-38034494D01*
X83788815Y-38131185D01*
X83885506Y-38210537D01*
X83995820Y-38269502D01*
X84115518Y-38305812D01*
X84240000Y-38318072D01*
X84804250Y-38315000D01*
X84963000Y-38156250D01*
X84963000Y-36957000D01*
X83763750Y-36957000D01*
X83605000Y-37115750D01*
X83601928Y-37680000D01*
X42741579Y-37680000D01*
X41471579Y-36410000D01*
X42961928Y-36410000D01*
X42974188Y-36534482D01*
X43010498Y-36654180D01*
X43069463Y-36764494D01*
X43148815Y-36861185D01*
X43245506Y-36940537D01*
X43355820Y-36999502D01*
X43475518Y-37035812D01*
X43600000Y-37048072D01*
X44164250Y-37045000D01*
X44323000Y-36886250D01*
X44323000Y-35687000D01*
X43123750Y-35687000D01*
X42965000Y-35845750D01*
X42961928Y-36410000D01*
X41471579Y-36410000D01*
X39771579Y-34710000D01*
X42961928Y-34710000D01*
X42965000Y-35274250D01*
X43123750Y-35433000D01*
X44323000Y-35433000D01*
X44323000Y-34233750D01*
X44164250Y-34075000D01*
X43600000Y-34071928D01*
X43475518Y-34084188D01*
X43355820Y-34120498D01*
X43245506Y-34179463D01*
X43148815Y-34258815D01*
X43069463Y-34355506D01*
X43010498Y-34465820D01*
X42974188Y-34585518D01*
X42961928Y-34710000D01*
X39771579Y-34710000D01*
X39518534Y-34456956D01*
X39490817Y-34423183D01*
X39356059Y-34312589D01*
X39202313Y-34230411D01*
X39035490Y-34179805D01*
X38905477Y-34167000D01*
X38905469Y-34167000D01*
X38862000Y-34162719D01*
X38818531Y-34167000D01*
X28360835Y-34167000D01*
X28317987Y-34175523D01*
X28274510Y-34179805D01*
X28232705Y-34192487D01*
X28189855Y-34201010D01*
X28149487Y-34217731D01*
X28107687Y-34230411D01*
X28069165Y-34251001D01*
X28028795Y-34267723D01*
X27992467Y-34291996D01*
X27953941Y-34312589D01*
X27920171Y-34340304D01*
X27883845Y-34364576D01*
X27852951Y-34395470D01*
X27819183Y-34423183D01*
X27791470Y-34456951D01*
X27760576Y-34487845D01*
X27736304Y-34524171D01*
X27708589Y-34557941D01*
X27687996Y-34596467D01*
X27663723Y-34632795D01*
X27647001Y-34673165D01*
X27626411Y-34711687D01*
X27613731Y-34753487D01*
X27597010Y-34793855D01*
X27588487Y-34836705D01*
X27575805Y-34878510D01*
X27571523Y-34921987D01*
X27563000Y-34964835D01*
X27563000Y-35008523D01*
X27558718Y-35052000D01*
X26085000Y-35052000D01*
X26085000Y-30060000D01*
X42961928Y-30060000D01*
X42974188Y-30184482D01*
X43010498Y-30304180D01*
X43069463Y-30414494D01*
X43148815Y-30511185D01*
X43245506Y-30590537D01*
X43355820Y-30649502D01*
X43475518Y-30685812D01*
X43600000Y-30698072D01*
X44164250Y-30695000D01*
X44323000Y-30536250D01*
X44323000Y-29337000D01*
X43123750Y-29337000D01*
X42965000Y-29495750D01*
X42961928Y-30060000D01*
X26085000Y-30060000D01*
X26085000Y-24156908D01*
X26125370Y-23643945D01*
X26815000Y-23643945D01*
X26815000Y-24616055D01*
X27004650Y-25569486D01*
X27376660Y-26467599D01*
X27916735Y-27275879D01*
X28604121Y-27963265D01*
X29412401Y-28503340D01*
X30310514Y-28875350D01*
X31263945Y-29065000D01*
X32236055Y-29065000D01*
X33189486Y-28875350D01*
X34087599Y-28503340D01*
X34302122Y-28360000D01*
X42961928Y-28360000D01*
X42965000Y-28924250D01*
X43123750Y-29083000D01*
X44323000Y-29083000D01*
X44323000Y-27883750D01*
X44164250Y-27725000D01*
X43600000Y-27721928D01*
X43475518Y-27734188D01*
X43355820Y-27770498D01*
X43245506Y-27829463D01*
X43148815Y-27908815D01*
X43069463Y-28005506D01*
X43010498Y-28115820D01*
X42974188Y-28235518D01*
X42961928Y-28360000D01*
X34302122Y-28360000D01*
X34895879Y-27963265D01*
X35583265Y-27275879D01*
X36123340Y-26467599D01*
X36495350Y-25569486D01*
X36685000Y-24616055D01*
X36685000Y-23710000D01*
X42961928Y-23710000D01*
X42974188Y-23834482D01*
X43010498Y-23954180D01*
X43069463Y-24064494D01*
X43148815Y-24161185D01*
X43245506Y-24240537D01*
X43355820Y-24299502D01*
X43475518Y-24335812D01*
X43600000Y-24348072D01*
X44164250Y-24345000D01*
X44323000Y-24186250D01*
X44323000Y-22987000D01*
X43123750Y-22987000D01*
X42965000Y-23145750D01*
X42961928Y-23710000D01*
X36685000Y-23710000D01*
X36685000Y-23643945D01*
X36495350Y-22690514D01*
X36213473Y-22010000D01*
X42961928Y-22010000D01*
X42965000Y-22574250D01*
X43123750Y-22733000D01*
X44323000Y-22733000D01*
X44323000Y-21533750D01*
X44577000Y-21533750D01*
X44577000Y-22733000D01*
X44597000Y-22733000D01*
X44597000Y-22987000D01*
X44577000Y-22987000D01*
X44577000Y-24186250D01*
X44735750Y-24345000D01*
X45300000Y-24348072D01*
X45424482Y-24335812D01*
X45544180Y-24299502D01*
X45654494Y-24240537D01*
X45751185Y-24161185D01*
X45830537Y-24064494D01*
X45889502Y-23954180D01*
X45911513Y-23881620D01*
X46043368Y-24013475D01*
X46286589Y-24175990D01*
X46556842Y-24287932D01*
X46843740Y-24345000D01*
X47136260Y-24345000D01*
X47397693Y-24292997D01*
X48992172Y-25887477D01*
X49014868Y-25915132D01*
X49042523Y-25937828D01*
X49042525Y-25937830D01*
X49125263Y-26005731D01*
X49153742Y-26020953D01*
X47397693Y-27777003D01*
X47136260Y-27725000D01*
X46843740Y-27725000D01*
X46556842Y-27782068D01*
X46286589Y-27894010D01*
X46043368Y-28056525D01*
X45911513Y-28188380D01*
X45889502Y-28115820D01*
X45830537Y-28005506D01*
X45751185Y-27908815D01*
X45654494Y-27829463D01*
X45544180Y-27770498D01*
X45424482Y-27734188D01*
X45300000Y-27721928D01*
X44735750Y-27725000D01*
X44577000Y-27883750D01*
X44577000Y-29083000D01*
X44597000Y-29083000D01*
X44597000Y-29337000D01*
X44577000Y-29337000D01*
X44577000Y-30536250D01*
X44735750Y-30695000D01*
X45300000Y-30698072D01*
X45424482Y-30685812D01*
X45544180Y-30649502D01*
X45654494Y-30590537D01*
X45751185Y-30511185D01*
X45830537Y-30414494D01*
X45889502Y-30304180D01*
X45911513Y-30231620D01*
X46043368Y-30363475D01*
X46286589Y-30525990D01*
X46556842Y-30637932D01*
X46843740Y-30695000D01*
X47136260Y-30695000D01*
X47423158Y-30637932D01*
X47693411Y-30525990D01*
X47936632Y-30363475D01*
X48143475Y-30156632D01*
X48260000Y-29982240D01*
X48376525Y-30156632D01*
X48583368Y-30363475D01*
X48826589Y-30525990D01*
X49096842Y-30637932D01*
X49383740Y-30695000D01*
X49676260Y-30695000D01*
X49963158Y-30637932D01*
X50233411Y-30525990D01*
X50476632Y-30363475D01*
X50683475Y-30156632D01*
X50748042Y-30060000D01*
X55661928Y-30060000D01*
X55674188Y-30184482D01*
X55710498Y-30304180D01*
X55769463Y-30414494D01*
X55848815Y-30511185D01*
X55945506Y-30590537D01*
X56055820Y-30649502D01*
X56175518Y-30685812D01*
X56300000Y-30698072D01*
X56864250Y-30695000D01*
X57023000Y-30536250D01*
X57023000Y-29337000D01*
X55823750Y-29337000D01*
X55665000Y-29495750D01*
X55661928Y-30060000D01*
X50748042Y-30060000D01*
X50845990Y-29913411D01*
X50957932Y-29643158D01*
X51015000Y-29356260D01*
X51015000Y-29063740D01*
X50957932Y-28776842D01*
X50845990Y-28506589D01*
X50748043Y-28360000D01*
X55661928Y-28360000D01*
X55665000Y-28924250D01*
X55823750Y-29083000D01*
X57023000Y-29083000D01*
X57023000Y-27883750D01*
X56864250Y-27725000D01*
X56300000Y-27721928D01*
X56175518Y-27734188D01*
X56055820Y-27770498D01*
X55945506Y-27829463D01*
X55848815Y-27908815D01*
X55769463Y-28005506D01*
X55710498Y-28115820D01*
X55674188Y-28235518D01*
X55661928Y-28360000D01*
X50748043Y-28360000D01*
X50683475Y-28263368D01*
X50476632Y-28056525D01*
X50233411Y-27894010D01*
X49963158Y-27782068D01*
X49676260Y-27725000D01*
X49500305Y-27725000D01*
X50592305Y-26633000D01*
X61241695Y-26633000D01*
X60097693Y-27777003D01*
X59836260Y-27725000D01*
X59543740Y-27725000D01*
X59256842Y-27782068D01*
X58986589Y-27894010D01*
X58743368Y-28056525D01*
X58611513Y-28188380D01*
X58589502Y-28115820D01*
X58530537Y-28005506D01*
X58451185Y-27908815D01*
X58354494Y-27829463D01*
X58244180Y-27770498D01*
X58124482Y-27734188D01*
X58000000Y-27721928D01*
X57435750Y-27725000D01*
X57277000Y-27883750D01*
X57277000Y-29083000D01*
X57297000Y-29083000D01*
X57297000Y-29337000D01*
X57277000Y-29337000D01*
X57277000Y-30536250D01*
X57435750Y-30695000D01*
X58000000Y-30698072D01*
X58124482Y-30685812D01*
X58244180Y-30649502D01*
X58354494Y-30590537D01*
X58451185Y-30511185D01*
X58530537Y-30414494D01*
X58589502Y-30304180D01*
X58611513Y-30231620D01*
X58743368Y-30363475D01*
X58986589Y-30525990D01*
X59256842Y-30637932D01*
X59543740Y-30695000D01*
X59836260Y-30695000D01*
X60123158Y-30637932D01*
X60393411Y-30525990D01*
X60636632Y-30363475D01*
X60843475Y-30156632D01*
X60960000Y-29982240D01*
X61076525Y-30156632D01*
X61283368Y-30363475D01*
X61526589Y-30525990D01*
X61796842Y-30637932D01*
X62083740Y-30695000D01*
X62376260Y-30695000D01*
X62663158Y-30637932D01*
X62933411Y-30525990D01*
X63176632Y-30363475D01*
X63383475Y-30156632D01*
X63448042Y-30060000D01*
X68361928Y-30060000D01*
X68374188Y-30184482D01*
X68410498Y-30304180D01*
X68469463Y-30414494D01*
X68548815Y-30511185D01*
X68645506Y-30590537D01*
X68755820Y-30649502D01*
X68875518Y-30685812D01*
X69000000Y-30698072D01*
X69564250Y-30695000D01*
X69723000Y-30536250D01*
X69723000Y-29337000D01*
X68523750Y-29337000D01*
X68365000Y-29495750D01*
X68361928Y-30060000D01*
X63448042Y-30060000D01*
X63545990Y-29913411D01*
X63657932Y-29643158D01*
X63715000Y-29356260D01*
X63715000Y-29063740D01*
X63657932Y-28776842D01*
X63545990Y-28506589D01*
X63448043Y-28360000D01*
X68361928Y-28360000D01*
X68365000Y-28924250D01*
X68523750Y-29083000D01*
X69723000Y-29083000D01*
X69723000Y-27883750D01*
X69564250Y-27725000D01*
X69000000Y-27721928D01*
X68875518Y-27734188D01*
X68755820Y-27770498D01*
X68645506Y-27829463D01*
X68548815Y-27908815D01*
X68469463Y-28005506D01*
X68410498Y-28115820D01*
X68374188Y-28235518D01*
X68361928Y-28360000D01*
X63448043Y-28360000D01*
X63383475Y-28263368D01*
X63176632Y-28056525D01*
X62933411Y-27894010D01*
X62663158Y-27782068D01*
X62376260Y-27725000D01*
X62200305Y-27725000D01*
X62784305Y-27141000D01*
X73433695Y-27141000D01*
X72797693Y-27777003D01*
X72536260Y-27725000D01*
X72243740Y-27725000D01*
X71956842Y-27782068D01*
X71686589Y-27894010D01*
X71443368Y-28056525D01*
X71311513Y-28188380D01*
X71289502Y-28115820D01*
X71230537Y-28005506D01*
X71151185Y-27908815D01*
X71054494Y-27829463D01*
X70944180Y-27770498D01*
X70824482Y-27734188D01*
X70700000Y-27721928D01*
X70135750Y-27725000D01*
X69977000Y-27883750D01*
X69977000Y-29083000D01*
X69997000Y-29083000D01*
X69997000Y-29337000D01*
X69977000Y-29337000D01*
X69977000Y-30536250D01*
X70135750Y-30695000D01*
X70700000Y-30698072D01*
X70824482Y-30685812D01*
X70944180Y-30649502D01*
X71054494Y-30590537D01*
X71151185Y-30511185D01*
X71230537Y-30414494D01*
X71289502Y-30304180D01*
X71311513Y-30231620D01*
X71443368Y-30363475D01*
X71686589Y-30525990D01*
X71956842Y-30637932D01*
X72243740Y-30695000D01*
X72536260Y-30695000D01*
X72823158Y-30637932D01*
X73093411Y-30525990D01*
X73336632Y-30363475D01*
X73543475Y-30156632D01*
X73660000Y-29982240D01*
X73776525Y-30156632D01*
X73983368Y-30363475D01*
X74226589Y-30525990D01*
X74496842Y-30637932D01*
X74783740Y-30695000D01*
X75076260Y-30695000D01*
X75363158Y-30637932D01*
X75633411Y-30525990D01*
X75876632Y-30363475D01*
X76083475Y-30156632D01*
X76148042Y-30060000D01*
X81061928Y-30060000D01*
X81074188Y-30184482D01*
X81110498Y-30304180D01*
X81169463Y-30414494D01*
X81248815Y-30511185D01*
X81345506Y-30590537D01*
X81455820Y-30649502D01*
X81575518Y-30685812D01*
X81700000Y-30698072D01*
X82264250Y-30695000D01*
X82423000Y-30536250D01*
X82423000Y-29337000D01*
X81223750Y-29337000D01*
X81065000Y-29495750D01*
X81061928Y-30060000D01*
X76148042Y-30060000D01*
X76245990Y-29913411D01*
X76357932Y-29643158D01*
X76415000Y-29356260D01*
X76415000Y-29063740D01*
X76357932Y-28776842D01*
X76245990Y-28506589D01*
X76148043Y-28360000D01*
X81061928Y-28360000D01*
X81065000Y-28924250D01*
X81223750Y-29083000D01*
X82423000Y-29083000D01*
X82423000Y-27883750D01*
X82264250Y-27725000D01*
X81700000Y-27721928D01*
X81575518Y-27734188D01*
X81455820Y-27770498D01*
X81345506Y-27829463D01*
X81248815Y-27908815D01*
X81169463Y-28005506D01*
X81110498Y-28115820D01*
X81074188Y-28235518D01*
X81061928Y-28360000D01*
X76148043Y-28360000D01*
X76083475Y-28263368D01*
X75876632Y-28056525D01*
X75633411Y-27894010D01*
X75363158Y-27782068D01*
X75076260Y-27725000D01*
X74900305Y-27725000D01*
X74976305Y-27649000D01*
X90123696Y-27649000D01*
X90207000Y-27732305D01*
X90207001Y-28412385D01*
X90207000Y-28412394D01*
X90207001Y-29428394D01*
X90203494Y-29464000D01*
X90217492Y-29606124D01*
X90258947Y-29742787D01*
X90326269Y-29868736D01*
X90394170Y-29951474D01*
X90394173Y-29951477D01*
X90416869Y-29979132D01*
X90444523Y-30001827D01*
X91213696Y-30771000D01*
X87676305Y-30771000D01*
X87600305Y-30695000D01*
X87776260Y-30695000D01*
X88063158Y-30637932D01*
X88333411Y-30525990D01*
X88576632Y-30363475D01*
X88783475Y-30156632D01*
X88945990Y-29913411D01*
X89057932Y-29643158D01*
X89115000Y-29356260D01*
X89115000Y-29063740D01*
X89057932Y-28776842D01*
X88945990Y-28506589D01*
X88783475Y-28263368D01*
X88576632Y-28056525D01*
X88333411Y-27894010D01*
X88063158Y-27782068D01*
X87776260Y-27725000D01*
X87483740Y-27725000D01*
X87196842Y-27782068D01*
X86926589Y-27894010D01*
X86683368Y-28056525D01*
X86476525Y-28263368D01*
X86360000Y-28437760D01*
X86243475Y-28263368D01*
X86036632Y-28056525D01*
X85793411Y-27894010D01*
X85523158Y-27782068D01*
X85236260Y-27725000D01*
X84943740Y-27725000D01*
X84656842Y-27782068D01*
X84386589Y-27894010D01*
X84143368Y-28056525D01*
X84011513Y-28188380D01*
X83989502Y-28115820D01*
X83930537Y-28005506D01*
X83851185Y-27908815D01*
X83754494Y-27829463D01*
X83644180Y-27770498D01*
X83524482Y-27734188D01*
X83400000Y-27721928D01*
X82835750Y-27725000D01*
X82677000Y-27883750D01*
X82677000Y-29083000D01*
X82697000Y-29083000D01*
X82697000Y-29337000D01*
X82677000Y-29337000D01*
X82677000Y-30536250D01*
X82835750Y-30695000D01*
X83400000Y-30698072D01*
X83524482Y-30685812D01*
X83644180Y-30649502D01*
X83754494Y-30590537D01*
X83851185Y-30511185D01*
X83930537Y-30414494D01*
X83989502Y-30304180D01*
X84011513Y-30231620D01*
X84143368Y-30363475D01*
X84386589Y-30525990D01*
X84656842Y-30637932D01*
X84943740Y-30695000D01*
X85236260Y-30695000D01*
X85497693Y-30642997D01*
X86133695Y-31279000D01*
X50581596Y-31279000D01*
X50545999Y-31275494D01*
X50510402Y-31279000D01*
X50510393Y-31279000D01*
X50403875Y-31289491D01*
X50267212Y-31330947D01*
X50141263Y-31398269D01*
X50058525Y-31466170D01*
X50058523Y-31466172D01*
X50030868Y-31488868D01*
X50008172Y-31516523D01*
X47397693Y-34127003D01*
X47136260Y-34075000D01*
X46843740Y-34075000D01*
X46556842Y-34132068D01*
X46286589Y-34244010D01*
X46043368Y-34406525D01*
X45911513Y-34538380D01*
X45889502Y-34465820D01*
X45830537Y-34355506D01*
X45751185Y-34258815D01*
X45654494Y-34179463D01*
X45544180Y-34120498D01*
X45424482Y-34084188D01*
X45300000Y-34071928D01*
X44735750Y-34075000D01*
X44577000Y-34233750D01*
X44577000Y-35433000D01*
X44597000Y-35433000D01*
X44597000Y-35687000D01*
X44577000Y-35687000D01*
X44577000Y-36886250D01*
X44735750Y-37045000D01*
X45300000Y-37048072D01*
X45424482Y-37035812D01*
X45544180Y-36999502D01*
X45654494Y-36940537D01*
X45751185Y-36861185D01*
X45830537Y-36764494D01*
X45889502Y-36654180D01*
X45911513Y-36581620D01*
X46043368Y-36713475D01*
X46286589Y-36875990D01*
X46556842Y-36987932D01*
X46843740Y-37045000D01*
X47136260Y-37045000D01*
X47423158Y-36987932D01*
X47693411Y-36875990D01*
X47936632Y-36713475D01*
X48143475Y-36506632D01*
X48260000Y-36332240D01*
X48376525Y-36506632D01*
X48583368Y-36713475D01*
X48826589Y-36875990D01*
X49096842Y-36987932D01*
X49383740Y-37045000D01*
X49676260Y-37045000D01*
X49963158Y-36987932D01*
X50233411Y-36875990D01*
X50476632Y-36713475D01*
X50683475Y-36506632D01*
X50748042Y-36410000D01*
X55661928Y-36410000D01*
X55674188Y-36534482D01*
X55710498Y-36654180D01*
X55769463Y-36764494D01*
X55848815Y-36861185D01*
X55945506Y-36940537D01*
X56055820Y-36999502D01*
X56175518Y-37035812D01*
X56300000Y-37048072D01*
X56864250Y-37045000D01*
X57023000Y-36886250D01*
X57023000Y-35687000D01*
X55823750Y-35687000D01*
X55665000Y-35845750D01*
X55661928Y-36410000D01*
X50748042Y-36410000D01*
X50845990Y-36263411D01*
X50957932Y-35993158D01*
X51015000Y-35706260D01*
X51015000Y-35413740D01*
X50957932Y-35126842D01*
X50845990Y-34856589D01*
X50748043Y-34710000D01*
X55661928Y-34710000D01*
X55665000Y-35274250D01*
X55823750Y-35433000D01*
X57023000Y-35433000D01*
X57023000Y-34233750D01*
X56864250Y-34075000D01*
X56300000Y-34071928D01*
X56175518Y-34084188D01*
X56055820Y-34120498D01*
X55945506Y-34179463D01*
X55848815Y-34258815D01*
X55769463Y-34355506D01*
X55710498Y-34465820D01*
X55674188Y-34585518D01*
X55661928Y-34710000D01*
X50748043Y-34710000D01*
X50683475Y-34613368D01*
X50476632Y-34406525D01*
X50233411Y-34244010D01*
X49963158Y-34132068D01*
X49676260Y-34075000D01*
X49500305Y-34075000D01*
X50846305Y-32729000D01*
X61495695Y-32729000D01*
X60097693Y-34127003D01*
X59836260Y-34075000D01*
X59543740Y-34075000D01*
X59256842Y-34132068D01*
X58986589Y-34244010D01*
X58743368Y-34406525D01*
X58611513Y-34538380D01*
X58589502Y-34465820D01*
X58530537Y-34355506D01*
X58451185Y-34258815D01*
X58354494Y-34179463D01*
X58244180Y-34120498D01*
X58124482Y-34084188D01*
X58000000Y-34071928D01*
X57435750Y-34075000D01*
X57277000Y-34233750D01*
X57277000Y-35433000D01*
X57297000Y-35433000D01*
X57297000Y-35687000D01*
X57277000Y-35687000D01*
X57277000Y-36886250D01*
X57435750Y-37045000D01*
X58000000Y-37048072D01*
X58124482Y-37035812D01*
X58244180Y-36999502D01*
X58354494Y-36940537D01*
X58451185Y-36861185D01*
X58530537Y-36764494D01*
X58589502Y-36654180D01*
X58611513Y-36581620D01*
X58743368Y-36713475D01*
X58986589Y-36875990D01*
X59256842Y-36987932D01*
X59543740Y-37045000D01*
X59836260Y-37045000D01*
X60123158Y-36987932D01*
X60393411Y-36875990D01*
X60636632Y-36713475D01*
X60843475Y-36506632D01*
X60960000Y-36332240D01*
X61076525Y-36506632D01*
X61283368Y-36713475D01*
X61526589Y-36875990D01*
X61796842Y-36987932D01*
X62083740Y-37045000D01*
X62376260Y-37045000D01*
X62663158Y-36987932D01*
X62933411Y-36875990D01*
X63176632Y-36713475D01*
X63383475Y-36506632D01*
X63448042Y-36410000D01*
X68361928Y-36410000D01*
X68374188Y-36534482D01*
X68410498Y-36654180D01*
X68469463Y-36764494D01*
X68548815Y-36861185D01*
X68645506Y-36940537D01*
X68755820Y-36999502D01*
X68875518Y-37035812D01*
X69000000Y-37048072D01*
X69564250Y-37045000D01*
X69723000Y-36886250D01*
X69723000Y-35687000D01*
X68523750Y-35687000D01*
X68365000Y-35845750D01*
X68361928Y-36410000D01*
X63448042Y-36410000D01*
X63545990Y-36263411D01*
X63657932Y-35993158D01*
X63715000Y-35706260D01*
X63715000Y-35413740D01*
X63657932Y-35126842D01*
X63545990Y-34856589D01*
X63448043Y-34710000D01*
X68361928Y-34710000D01*
X68365000Y-35274250D01*
X68523750Y-35433000D01*
X69723000Y-35433000D01*
X69723000Y-34233750D01*
X69564250Y-34075000D01*
X69000000Y-34071928D01*
X68875518Y-34084188D01*
X68755820Y-34120498D01*
X68645506Y-34179463D01*
X68548815Y-34258815D01*
X68469463Y-34355506D01*
X68410498Y-34465820D01*
X68374188Y-34585518D01*
X68361928Y-34710000D01*
X63448043Y-34710000D01*
X63383475Y-34613368D01*
X63176632Y-34406525D01*
X62933411Y-34244010D01*
X62663158Y-34132068D01*
X62376260Y-34075000D01*
X62200305Y-34075000D01*
X63038305Y-33237000D01*
X73687695Y-33237000D01*
X72797693Y-34127003D01*
X72536260Y-34075000D01*
X72243740Y-34075000D01*
X71956842Y-34132068D01*
X71686589Y-34244010D01*
X71443368Y-34406525D01*
X71311513Y-34538380D01*
X71289502Y-34465820D01*
X71230537Y-34355506D01*
X71151185Y-34258815D01*
X71054494Y-34179463D01*
X70944180Y-34120498D01*
X70824482Y-34084188D01*
X70700000Y-34071928D01*
X70135750Y-34075000D01*
X69977000Y-34233750D01*
X69977000Y-35433000D01*
X69997000Y-35433000D01*
X69997000Y-35687000D01*
X69977000Y-35687000D01*
X69977000Y-36886250D01*
X70135750Y-37045000D01*
X70700000Y-37048072D01*
X70824482Y-37035812D01*
X70944180Y-36999502D01*
X71054494Y-36940537D01*
X71151185Y-36861185D01*
X71230537Y-36764494D01*
X71289502Y-36654180D01*
X71311513Y-36581620D01*
X71443368Y-36713475D01*
X71686589Y-36875990D01*
X71956842Y-36987932D01*
X72243740Y-37045000D01*
X72536260Y-37045000D01*
X72823158Y-36987932D01*
X73093411Y-36875990D01*
X73336632Y-36713475D01*
X73543475Y-36506632D01*
X73660000Y-36332240D01*
X73776525Y-36506632D01*
X73983368Y-36713475D01*
X74226589Y-36875990D01*
X74496842Y-36987932D01*
X74783740Y-37045000D01*
X75076260Y-37045000D01*
X75363158Y-36987932D01*
X75633411Y-36875990D01*
X75876632Y-36713475D01*
X76083475Y-36506632D01*
X76245990Y-36263411D01*
X76357932Y-35993158D01*
X76360549Y-35980000D01*
X83601928Y-35980000D01*
X83605000Y-36544250D01*
X83763750Y-36703000D01*
X84963000Y-36703000D01*
X84963000Y-35503750D01*
X85217000Y-35503750D01*
X85217000Y-36703000D01*
X85237000Y-36703000D01*
X85237000Y-36957000D01*
X85217000Y-36957000D01*
X85217000Y-38156250D01*
X85375750Y-38315000D01*
X85940000Y-38318072D01*
X86064482Y-38305812D01*
X86184180Y-38269502D01*
X86294494Y-38210537D01*
X86391185Y-38131185D01*
X86470537Y-38034494D01*
X86529502Y-37924180D01*
X86551513Y-37851620D01*
X86683368Y-37983475D01*
X86926589Y-38145990D01*
X87196842Y-38257932D01*
X87483740Y-38315000D01*
X87776260Y-38315000D01*
X88063158Y-38257932D01*
X88333411Y-38145990D01*
X88576632Y-37983475D01*
X88783475Y-37776632D01*
X88945990Y-37533411D01*
X89057932Y-37263158D01*
X89115000Y-36976260D01*
X89115000Y-36683740D01*
X89057932Y-36396842D01*
X88945990Y-36126589D01*
X88783475Y-35883368D01*
X88576632Y-35676525D01*
X88333411Y-35514010D01*
X88063158Y-35402068D01*
X87776260Y-35345000D01*
X87483740Y-35345000D01*
X87196842Y-35402068D01*
X86926589Y-35514010D01*
X86683368Y-35676525D01*
X86551513Y-35808380D01*
X86529502Y-35735820D01*
X86470537Y-35625506D01*
X86391185Y-35528815D01*
X86294494Y-35449463D01*
X86184180Y-35390498D01*
X86064482Y-35354188D01*
X85940000Y-35341928D01*
X85375750Y-35345000D01*
X85217000Y-35503750D01*
X84963000Y-35503750D01*
X84804250Y-35345000D01*
X84240000Y-35341928D01*
X84115518Y-35354188D01*
X83995820Y-35390498D01*
X83885506Y-35449463D01*
X83788815Y-35528815D01*
X83709463Y-35625506D01*
X83650498Y-35735820D01*
X83614188Y-35855518D01*
X83601928Y-35980000D01*
X76360549Y-35980000D01*
X76415000Y-35706260D01*
X76415000Y-35413740D01*
X76357932Y-35126842D01*
X76245990Y-34856589D01*
X76083475Y-34613368D01*
X75876632Y-34406525D01*
X75633411Y-34244010D01*
X75363158Y-34132068D01*
X75076260Y-34075000D01*
X74900305Y-34075000D01*
X75230305Y-33745000D01*
X83468826Y-33745000D01*
X83477010Y-33786145D01*
X83543723Y-33947205D01*
X83640576Y-34092155D01*
X83763845Y-34215424D01*
X83908795Y-34312277D01*
X84069855Y-34378990D01*
X84240835Y-34413000D01*
X84415165Y-34413000D01*
X84586145Y-34378990D01*
X84747205Y-34312277D01*
X84820953Y-34263000D01*
X84872105Y-34263000D01*
X84980085Y-34252365D01*
X85118633Y-34210337D01*
X85246320Y-34142087D01*
X85358238Y-34050238D01*
X85450087Y-33938320D01*
X85518337Y-33810633D01*
X85538247Y-33745000D01*
X91088826Y-33745000D01*
X91097010Y-33786145D01*
X91163723Y-33947205D01*
X91260576Y-34092155D01*
X91383845Y-34215424D01*
X91528795Y-34312277D01*
X91689855Y-34378990D01*
X91860835Y-34413000D01*
X92035165Y-34413000D01*
X92206145Y-34378990D01*
X92367205Y-34312277D01*
X92512155Y-34215424D01*
X92635424Y-34092155D01*
X92732277Y-33947205D01*
X92798990Y-33786145D01*
X92807174Y-33745000D01*
X95660826Y-33745000D01*
X95669010Y-33786145D01*
X95735723Y-33947205D01*
X95795054Y-34036000D01*
X95735723Y-34124795D01*
X95669010Y-34285855D01*
X95635000Y-34456835D01*
X95635000Y-34631165D01*
X95669010Y-34802145D01*
X95735723Y-34963205D01*
X95795054Y-35052000D01*
X95735723Y-35140795D01*
X95669010Y-35301855D01*
X95635000Y-35472835D01*
X95635000Y-35647165D01*
X95669010Y-35818145D01*
X95735723Y-35979205D01*
X95832576Y-36124155D01*
X95955845Y-36247424D01*
X96100795Y-36344277D01*
X96261855Y-36410990D01*
X96432835Y-36445000D01*
X96607165Y-36445000D01*
X96661884Y-36434116D01*
X96651000Y-36488835D01*
X96651000Y-36663165D01*
X96685010Y-36834145D01*
X96751723Y-36995205D01*
X96848576Y-37140155D01*
X96971845Y-37263424D01*
X97116795Y-37360277D01*
X97277855Y-37426990D01*
X97448835Y-37461000D01*
X97623165Y-37461000D01*
X97794145Y-37426990D01*
X97955205Y-37360277D01*
X98100155Y-37263424D01*
X98223424Y-37140155D01*
X98320277Y-36995205D01*
X98386990Y-36834145D01*
X98407805Y-36729499D01*
X99547477Y-35589828D01*
X99575132Y-35567132D01*
X99627149Y-35503750D01*
X99665731Y-35456737D01*
X99687551Y-35415915D01*
X99733053Y-35330788D01*
X99774509Y-35194125D01*
X99785000Y-35087607D01*
X99785000Y-35087598D01*
X99788506Y-35052001D01*
X99785000Y-35016404D01*
X99785000Y-33044874D01*
X99788506Y-33009277D01*
X99785000Y-32973680D01*
X99785000Y-32973671D01*
X99774509Y-32867153D01*
X99733053Y-32730490D01*
X99665731Y-32604541D01*
X99659515Y-32596967D01*
X99597830Y-32521803D01*
X99597823Y-32521796D01*
X99575131Y-32494146D01*
X99547482Y-32471455D01*
X97068554Y-29992528D01*
X97045854Y-29964868D01*
X96935459Y-29874269D01*
X96809510Y-29806947D01*
X96672847Y-29765491D01*
X96566329Y-29755000D01*
X96566319Y-29755000D01*
X96530722Y-29751494D01*
X96495125Y-29755000D01*
X94331331Y-29755000D01*
X94344940Y-29722145D01*
X94378950Y-29551165D01*
X94378950Y-29376835D01*
X94344940Y-29205855D01*
X94278227Y-29044795D01*
X94181374Y-28899845D01*
X94058105Y-28776576D01*
X93913155Y-28679723D01*
X93888950Y-28669697D01*
X93888950Y-28505851D01*
X93854940Y-28334871D01*
X93818322Y-28246466D01*
X93891205Y-28216277D01*
X94036155Y-28119424D01*
X94159424Y-27996155D01*
X94256277Y-27851205D01*
X94322990Y-27690145D01*
X94357000Y-27519165D01*
X94357000Y-27344835D01*
X94322990Y-27173855D01*
X94256277Y-27012795D01*
X94197000Y-26924081D01*
X94197000Y-26915176D01*
X94238145Y-26906992D01*
X94399205Y-26840279D01*
X94544155Y-26743426D01*
X94667424Y-26620157D01*
X94728010Y-26529484D01*
X95226735Y-27275879D01*
X95914121Y-27963265D01*
X96722401Y-28503340D01*
X97620514Y-28875350D01*
X98573945Y-29065000D01*
X99546055Y-29065000D01*
X100499486Y-28875350D01*
X101397599Y-28503340D01*
X102205879Y-27963265D01*
X102893265Y-27275879D01*
X103433340Y-26467599D01*
X103805350Y-25569486D01*
X103995000Y-24616055D01*
X103995000Y-23643945D01*
X103805350Y-22690514D01*
X103433340Y-21792401D01*
X102893265Y-20984121D01*
X102205879Y-20296735D01*
X101397599Y-19756660D01*
X100499486Y-19384650D01*
X99546055Y-19195000D01*
X98573945Y-19195000D01*
X97620514Y-19384650D01*
X96722401Y-19756660D01*
X95914121Y-20296735D01*
X95226735Y-20984121D01*
X94686660Y-21792401D01*
X94314650Y-22690514D01*
X94125000Y-23643945D01*
X94125000Y-24616055D01*
X94242511Y-25206820D01*
X94238145Y-25205012D01*
X94133500Y-25184197D01*
X92411831Y-23462529D01*
X92389131Y-23434869D01*
X92278736Y-23344270D01*
X92152787Y-23276948D01*
X92016124Y-23235492D01*
X91909606Y-23225001D01*
X91909596Y-23225001D01*
X91873999Y-23221495D01*
X91838402Y-23225001D01*
X89071489Y-23225001D01*
X89115000Y-23006260D01*
X89115000Y-22713740D01*
X89057932Y-22426842D01*
X88945990Y-22156589D01*
X88783475Y-21913368D01*
X88576632Y-21706525D01*
X88333411Y-21544010D01*
X88063158Y-21432068D01*
X87776260Y-21375000D01*
X87483740Y-21375000D01*
X87196842Y-21432068D01*
X86926589Y-21544010D01*
X86683368Y-21706525D01*
X86476525Y-21913368D01*
X86360000Y-22087760D01*
X86243475Y-21913368D01*
X86036632Y-21706525D01*
X85793411Y-21544010D01*
X85523158Y-21432068D01*
X85236260Y-21375000D01*
X84943740Y-21375000D01*
X84656842Y-21432068D01*
X84386589Y-21544010D01*
X84143368Y-21706525D01*
X84011513Y-21838380D01*
X83989502Y-21765820D01*
X83930537Y-21655506D01*
X83851185Y-21558815D01*
X83754494Y-21479463D01*
X83644180Y-21420498D01*
X83524482Y-21384188D01*
X83400000Y-21371928D01*
X82835750Y-21375000D01*
X82677000Y-21533750D01*
X82677000Y-22733000D01*
X82697000Y-22733000D01*
X82697000Y-22987000D01*
X82677000Y-22987000D01*
X82677000Y-23007000D01*
X82423000Y-23007000D01*
X82423000Y-22987000D01*
X81223750Y-22987000D01*
X81065000Y-23145750D01*
X81062206Y-23659000D01*
X76182120Y-23659000D01*
X76245990Y-23563411D01*
X76357932Y-23293158D01*
X76415000Y-23006260D01*
X76415000Y-22713740D01*
X76357932Y-22426842D01*
X76245990Y-22156589D01*
X76148043Y-22010000D01*
X81061928Y-22010000D01*
X81065000Y-22574250D01*
X81223750Y-22733000D01*
X82423000Y-22733000D01*
X82423000Y-21533750D01*
X82264250Y-21375000D01*
X81700000Y-21371928D01*
X81575518Y-21384188D01*
X81455820Y-21420498D01*
X81345506Y-21479463D01*
X81248815Y-21558815D01*
X81169463Y-21655506D01*
X81110498Y-21765820D01*
X81074188Y-21885518D01*
X81061928Y-22010000D01*
X76148043Y-22010000D01*
X76083475Y-21913368D01*
X75876632Y-21706525D01*
X75633411Y-21544010D01*
X75363158Y-21432068D01*
X75076260Y-21375000D01*
X74783740Y-21375000D01*
X74496842Y-21432068D01*
X74226589Y-21544010D01*
X73983368Y-21706525D01*
X73776525Y-21913368D01*
X73660000Y-22087760D01*
X73543475Y-21913368D01*
X73336632Y-21706525D01*
X73093411Y-21544010D01*
X72823158Y-21432068D01*
X72536260Y-21375000D01*
X72243740Y-21375000D01*
X71956842Y-21432068D01*
X71686589Y-21544010D01*
X71443368Y-21706525D01*
X71311513Y-21838380D01*
X71289502Y-21765820D01*
X71230537Y-21655506D01*
X71151185Y-21558815D01*
X71054494Y-21479463D01*
X70944180Y-21420498D01*
X70824482Y-21384188D01*
X70700000Y-21371928D01*
X70135750Y-21375000D01*
X69977000Y-21533750D01*
X69977000Y-22733000D01*
X69997000Y-22733000D01*
X69997000Y-22987000D01*
X69977000Y-22987000D01*
X69977000Y-23007000D01*
X69723000Y-23007000D01*
X69723000Y-22987000D01*
X68523750Y-22987000D01*
X68365000Y-23145750D01*
X68361928Y-23710000D01*
X68374188Y-23834482D01*
X68410498Y-23954180D01*
X68469463Y-24064494D01*
X68548815Y-24161185D01*
X68555901Y-24167000D01*
X62946865Y-24167000D01*
X63176632Y-24013475D01*
X63383475Y-23806632D01*
X63545990Y-23563411D01*
X63657932Y-23293158D01*
X63715000Y-23006260D01*
X63715000Y-22713740D01*
X63657932Y-22426842D01*
X63545990Y-22156589D01*
X63448043Y-22010000D01*
X68361928Y-22010000D01*
X68365000Y-22574250D01*
X68523750Y-22733000D01*
X69723000Y-22733000D01*
X69723000Y-21533750D01*
X69564250Y-21375000D01*
X69000000Y-21371928D01*
X68875518Y-21384188D01*
X68755820Y-21420498D01*
X68645506Y-21479463D01*
X68548815Y-21558815D01*
X68469463Y-21655506D01*
X68410498Y-21765820D01*
X68374188Y-21885518D01*
X68361928Y-22010000D01*
X63448043Y-22010000D01*
X63383475Y-21913368D01*
X63176632Y-21706525D01*
X62933411Y-21544010D01*
X62663158Y-21432068D01*
X62376260Y-21375000D01*
X62083740Y-21375000D01*
X61796842Y-21432068D01*
X61526589Y-21544010D01*
X61283368Y-21706525D01*
X61076525Y-21913368D01*
X60960000Y-22087760D01*
X60843475Y-21913368D01*
X60636632Y-21706525D01*
X60393411Y-21544010D01*
X60123158Y-21432068D01*
X59836260Y-21375000D01*
X59543740Y-21375000D01*
X59256842Y-21432068D01*
X58986589Y-21544010D01*
X58743368Y-21706525D01*
X58611513Y-21838380D01*
X58589502Y-21765820D01*
X58530537Y-21655506D01*
X58451185Y-21558815D01*
X58354494Y-21479463D01*
X58244180Y-21420498D01*
X58124482Y-21384188D01*
X58000000Y-21371928D01*
X57435750Y-21375000D01*
X57277000Y-21533750D01*
X57277000Y-22733000D01*
X57297000Y-22733000D01*
X57297000Y-22987000D01*
X57277000Y-22987000D01*
X57277000Y-24186250D01*
X57435750Y-24345000D01*
X58000000Y-24348072D01*
X58124482Y-24335812D01*
X58244180Y-24299502D01*
X58354494Y-24240537D01*
X58451185Y-24161185D01*
X58530537Y-24064494D01*
X58589502Y-23954180D01*
X58611513Y-23881620D01*
X58743368Y-24013475D01*
X58986589Y-24175990D01*
X59256842Y-24287932D01*
X59543740Y-24345000D01*
X59836260Y-24345000D01*
X60097693Y-24292997D01*
X60479695Y-24675000D01*
X49830305Y-24675000D01*
X49500305Y-24345000D01*
X49676260Y-24345000D01*
X49963158Y-24287932D01*
X50233411Y-24175990D01*
X50476632Y-24013475D01*
X50683475Y-23806632D01*
X50748042Y-23710000D01*
X55661928Y-23710000D01*
X55674188Y-23834482D01*
X55710498Y-23954180D01*
X55769463Y-24064494D01*
X55848815Y-24161185D01*
X55945506Y-24240537D01*
X56055820Y-24299502D01*
X56175518Y-24335812D01*
X56300000Y-24348072D01*
X56864250Y-24345000D01*
X57023000Y-24186250D01*
X57023000Y-22987000D01*
X55823750Y-22987000D01*
X55665000Y-23145750D01*
X55661928Y-23710000D01*
X50748042Y-23710000D01*
X50845990Y-23563411D01*
X50957932Y-23293158D01*
X51015000Y-23006260D01*
X51015000Y-22713740D01*
X50957932Y-22426842D01*
X50845990Y-22156589D01*
X50748043Y-22010000D01*
X55661928Y-22010000D01*
X55665000Y-22574250D01*
X55823750Y-22733000D01*
X57023000Y-22733000D01*
X57023000Y-21533750D01*
X56864250Y-21375000D01*
X56300000Y-21371928D01*
X56175518Y-21384188D01*
X56055820Y-21420498D01*
X55945506Y-21479463D01*
X55848815Y-21558815D01*
X55769463Y-21655506D01*
X55710498Y-21765820D01*
X55674188Y-21885518D01*
X55661928Y-22010000D01*
X50748043Y-22010000D01*
X50683475Y-21913368D01*
X50476632Y-21706525D01*
X50233411Y-21544010D01*
X49963158Y-21432068D01*
X49676260Y-21375000D01*
X49383740Y-21375000D01*
X49096842Y-21432068D01*
X48826589Y-21544010D01*
X48583368Y-21706525D01*
X48376525Y-21913368D01*
X48260000Y-22087760D01*
X48143475Y-21913368D01*
X47936632Y-21706525D01*
X47693411Y-21544010D01*
X47423158Y-21432068D01*
X47136260Y-21375000D01*
X46843740Y-21375000D01*
X46556842Y-21432068D01*
X46286589Y-21544010D01*
X46043368Y-21706525D01*
X45911513Y-21838380D01*
X45889502Y-21765820D01*
X45830537Y-21655506D01*
X45751185Y-21558815D01*
X45654494Y-21479463D01*
X45544180Y-21420498D01*
X45424482Y-21384188D01*
X45300000Y-21371928D01*
X44735750Y-21375000D01*
X44577000Y-21533750D01*
X44323000Y-21533750D01*
X44164250Y-21375000D01*
X43600000Y-21371928D01*
X43475518Y-21384188D01*
X43355820Y-21420498D01*
X43245506Y-21479463D01*
X43148815Y-21558815D01*
X43069463Y-21655506D01*
X43010498Y-21765820D01*
X42974188Y-21885518D01*
X42961928Y-22010000D01*
X36213473Y-22010000D01*
X36123340Y-21792401D01*
X35583265Y-20984121D01*
X34895879Y-20296735D01*
X34087599Y-19756660D01*
X33189486Y-19384650D01*
X32236055Y-19195000D01*
X31263945Y-19195000D01*
X30310514Y-19384650D01*
X29412401Y-19756660D01*
X28604121Y-20296735D01*
X27916735Y-20984121D01*
X27376660Y-21792401D01*
X27004650Y-22690514D01*
X26815000Y-23643945D01*
X26125370Y-23643945D01*
X26156837Y-23244130D01*
X26364279Y-22380073D01*
X26704334Y-21559109D01*
X27168633Y-20801441D01*
X27745738Y-20125738D01*
X28421441Y-19548633D01*
X29179107Y-19084334D01*
X30000072Y-18744279D01*
X30864136Y-18536837D01*
X31776909Y-18465000D01*
X99033092Y-18465000D01*
X99945870Y-18536837D01*
G37*
%TD.AperFunction*%
%TD*%
M02*
