%TF.GenerationSoftware,KiCad,Pcbnew,(5.1.8)-1*%
%TF.CreationDate,2021-01-25T11:57:41-05:00*%
%TF.ProjectId,Analog_Panel,416e616c-6f67-45f5-9061-6e656c2e6b69,rev?*%
%TF.SameCoordinates,Original*%
%TF.FileFunction,Paste,Top*%
%TF.FilePolarity,Positive*%
%FSLAX46Y46*%
G04 Gerber Fmt 4.6, Leading zero omitted, Abs format (unit mm)*
G04 Created by KiCad (PCBNEW (5.1.8)-1) date 2021-01-25 11:57:41*
%MOMM*%
%LPD*%
G01*
G04 APERTURE LIST*
%ADD10R,1.422400X0.558800*%
%ADD11R,1.600000X0.410000*%
G04 APERTURE END LIST*
%TO.C,C1*%
G36*
G01*
X54429999Y-49145000D02*
X57330001Y-49145000D01*
G75*
G02*
X57580000Y-49394999I0J-249999D01*
G01*
X57580000Y-50470001D01*
G75*
G02*
X57330001Y-50720000I-249999J0D01*
G01*
X54429999Y-50720000D01*
G75*
G02*
X54180000Y-50470001I0J249999D01*
G01*
X54180000Y-49394999D01*
G75*
G02*
X54429999Y-49145000I249999J0D01*
G01*
G37*
G36*
G01*
X54429999Y-53420000D02*
X57330001Y-53420000D01*
G75*
G02*
X57580000Y-53669999I0J-249999D01*
G01*
X57580000Y-54745001D01*
G75*
G02*
X57330001Y-54995000I-249999J0D01*
G01*
X54429999Y-54995000D01*
G75*
G02*
X54180000Y-54745001I0J249999D01*
G01*
X54180000Y-53669999D01*
G75*
G02*
X54429999Y-53420000I249999J0D01*
G01*
G37*
%TD*%
%TO.C,R1*%
G36*
G01*
X73492000Y-52383000D02*
X73492000Y-50233000D01*
G75*
G02*
X73742000Y-49983000I250000J0D01*
G01*
X74542000Y-49983000D01*
G75*
G02*
X74792000Y-50233000I0J-250000D01*
G01*
X74792000Y-52383000D01*
G75*
G02*
X74542000Y-52633000I-250000J0D01*
G01*
X73742000Y-52633000D01*
G75*
G02*
X73492000Y-52383000I0J250000D01*
G01*
G37*
G36*
G01*
X76592000Y-52383000D02*
X76592000Y-50233000D01*
G75*
G02*
X76842000Y-49983000I250000J0D01*
G01*
X77642000Y-49983000D01*
G75*
G02*
X77892000Y-50233000I0J-250000D01*
G01*
X77892000Y-52383000D01*
G75*
G02*
X77642000Y-52633000I-250000J0D01*
G01*
X76842000Y-52633000D01*
G75*
G02*
X76592000Y-52383000I0J250000D01*
G01*
G37*
%TD*%
%TO.C,R2*%
G36*
G01*
X68696000Y-47185000D02*
X68696000Y-49335000D01*
G75*
G02*
X68446000Y-49585000I-250000J0D01*
G01*
X67646000Y-49585000D01*
G75*
G02*
X67396000Y-49335000I0J250000D01*
G01*
X67396000Y-47185000D01*
G75*
G02*
X67646000Y-46935000I250000J0D01*
G01*
X68446000Y-46935000D01*
G75*
G02*
X68696000Y-47185000I0J-250000D01*
G01*
G37*
G36*
G01*
X71796000Y-47185000D02*
X71796000Y-49335000D01*
G75*
G02*
X71546000Y-49585000I-250000J0D01*
G01*
X70746000Y-49585000D01*
G75*
G02*
X70496000Y-49335000I0J250000D01*
G01*
X70496000Y-47185000D01*
G75*
G02*
X70746000Y-46935000I250000J0D01*
G01*
X71546000Y-46935000D01*
G75*
G02*
X71796000Y-47185000I0J-250000D01*
G01*
G37*
%TD*%
%TO.C,R3*%
G36*
G01*
X89800000Y-52383000D02*
X89800000Y-50233000D01*
G75*
G02*
X90050000Y-49983000I250000J0D01*
G01*
X90850000Y-49983000D01*
G75*
G02*
X91100000Y-50233000I0J-250000D01*
G01*
X91100000Y-52383000D01*
G75*
G02*
X90850000Y-52633000I-250000J0D01*
G01*
X90050000Y-52633000D01*
G75*
G02*
X89800000Y-52383000I0J250000D01*
G01*
G37*
G36*
G01*
X86700000Y-52383000D02*
X86700000Y-50233000D01*
G75*
G02*
X86950000Y-49983000I250000J0D01*
G01*
X87750000Y-49983000D01*
G75*
G02*
X88000000Y-50233000I0J-250000D01*
G01*
X88000000Y-52383000D01*
G75*
G02*
X87750000Y-52633000I-250000J0D01*
G01*
X86950000Y-52633000D01*
G75*
G02*
X86700000Y-52383000I0J250000D01*
G01*
G37*
%TD*%
%TO.C,R4*%
G36*
G01*
X86700000Y-58479000D02*
X86700000Y-56329000D01*
G75*
G02*
X86950000Y-56079000I250000J0D01*
G01*
X87750000Y-56079000D01*
G75*
G02*
X88000000Y-56329000I0J-250000D01*
G01*
X88000000Y-58479000D01*
G75*
G02*
X87750000Y-58729000I-250000J0D01*
G01*
X86950000Y-58729000D01*
G75*
G02*
X86700000Y-58479000I0J250000D01*
G01*
G37*
G36*
G01*
X89800000Y-58479000D02*
X89800000Y-56329000D01*
G75*
G02*
X90050000Y-56079000I250000J0D01*
G01*
X90850000Y-56079000D01*
G75*
G02*
X91100000Y-56329000I0J-250000D01*
G01*
X91100000Y-58479000D01*
G75*
G02*
X90850000Y-58729000I-250000J0D01*
G01*
X90050000Y-58729000D01*
G75*
G02*
X89800000Y-58479000I0J250000D01*
G01*
G37*
%TD*%
D10*
%TO.C,RN1*%
X30708600Y-35331400D03*
X30708600Y-36677600D03*
X30708600Y-38023800D03*
X30708600Y-39370000D03*
X30708600Y-40716200D03*
X30708600Y-42062400D03*
X30708600Y-43408600D03*
X37871400Y-43408600D03*
X37871400Y-42062400D03*
X37871400Y-40716200D03*
X37871400Y-39370000D03*
X37871400Y-38023800D03*
X37871400Y-36677600D03*
X37871400Y-35331400D03*
%TD*%
D11*
%TO.C,U2*%
X95135700Y-33337500D03*
X95135700Y-33972500D03*
X95135700Y-34607500D03*
X95135700Y-35242500D03*
X95135700Y-35877500D03*
X95135700Y-36512500D03*
X95135700Y-37147500D03*
X95135700Y-37782500D03*
X100444300Y-37782500D03*
X100444300Y-37147500D03*
X100444300Y-36512500D03*
X100444300Y-35877500D03*
X100444300Y-35242500D03*
X100444300Y-34607500D03*
X100444300Y-33972500D03*
X100444300Y-33337500D03*
%TD*%
%TO.C,U3*%
G36*
G01*
X94915000Y-43525000D02*
X94915000Y-43375000D01*
G75*
G02*
X94990000Y-43300000I75000J0D01*
G01*
X96290000Y-43300000D01*
G75*
G02*
X96365000Y-43375000I0J-75000D01*
G01*
X96365000Y-43525000D01*
G75*
G02*
X96290000Y-43600000I-75000J0D01*
G01*
X94990000Y-43600000D01*
G75*
G02*
X94915000Y-43525000I0J75000D01*
G01*
G37*
G36*
G01*
X94915000Y-44025000D02*
X94915000Y-43875000D01*
G75*
G02*
X94990000Y-43800000I75000J0D01*
G01*
X96290000Y-43800000D01*
G75*
G02*
X96365000Y-43875000I0J-75000D01*
G01*
X96365000Y-44025000D01*
G75*
G02*
X96290000Y-44100000I-75000J0D01*
G01*
X94990000Y-44100000D01*
G75*
G02*
X94915000Y-44025000I0J75000D01*
G01*
G37*
G36*
G01*
X94915000Y-44525000D02*
X94915000Y-44375000D01*
G75*
G02*
X94990000Y-44300000I75000J0D01*
G01*
X96290000Y-44300000D01*
G75*
G02*
X96365000Y-44375000I0J-75000D01*
G01*
X96365000Y-44525000D01*
G75*
G02*
X96290000Y-44600000I-75000J0D01*
G01*
X94990000Y-44600000D01*
G75*
G02*
X94915000Y-44525000I0J75000D01*
G01*
G37*
G36*
G01*
X94915000Y-45025000D02*
X94915000Y-44875000D01*
G75*
G02*
X94990000Y-44800000I75000J0D01*
G01*
X96290000Y-44800000D01*
G75*
G02*
X96365000Y-44875000I0J-75000D01*
G01*
X96365000Y-45025000D01*
G75*
G02*
X96290000Y-45100000I-75000J0D01*
G01*
X94990000Y-45100000D01*
G75*
G02*
X94915000Y-45025000I0J75000D01*
G01*
G37*
G36*
G01*
X94915000Y-45525000D02*
X94915000Y-45375000D01*
G75*
G02*
X94990000Y-45300000I75000J0D01*
G01*
X96290000Y-45300000D01*
G75*
G02*
X96365000Y-45375000I0J-75000D01*
G01*
X96365000Y-45525000D01*
G75*
G02*
X96290000Y-45600000I-75000J0D01*
G01*
X94990000Y-45600000D01*
G75*
G02*
X94915000Y-45525000I0J75000D01*
G01*
G37*
G36*
G01*
X99215000Y-45525000D02*
X99215000Y-45375000D01*
G75*
G02*
X99290000Y-45300000I75000J0D01*
G01*
X100590000Y-45300000D01*
G75*
G02*
X100665000Y-45375000I0J-75000D01*
G01*
X100665000Y-45525000D01*
G75*
G02*
X100590000Y-45600000I-75000J0D01*
G01*
X99290000Y-45600000D01*
G75*
G02*
X99215000Y-45525000I0J75000D01*
G01*
G37*
G36*
G01*
X99215000Y-45025000D02*
X99215000Y-44875000D01*
G75*
G02*
X99290000Y-44800000I75000J0D01*
G01*
X100590000Y-44800000D01*
G75*
G02*
X100665000Y-44875000I0J-75000D01*
G01*
X100665000Y-45025000D01*
G75*
G02*
X100590000Y-45100000I-75000J0D01*
G01*
X99290000Y-45100000D01*
G75*
G02*
X99215000Y-45025000I0J75000D01*
G01*
G37*
G36*
G01*
X99215000Y-44525000D02*
X99215000Y-44375000D01*
G75*
G02*
X99290000Y-44300000I75000J0D01*
G01*
X100590000Y-44300000D01*
G75*
G02*
X100665000Y-44375000I0J-75000D01*
G01*
X100665000Y-44525000D01*
G75*
G02*
X100590000Y-44600000I-75000J0D01*
G01*
X99290000Y-44600000D01*
G75*
G02*
X99215000Y-44525000I0J75000D01*
G01*
G37*
G36*
G01*
X99215000Y-44025000D02*
X99215000Y-43875000D01*
G75*
G02*
X99290000Y-43800000I75000J0D01*
G01*
X100590000Y-43800000D01*
G75*
G02*
X100665000Y-43875000I0J-75000D01*
G01*
X100665000Y-44025000D01*
G75*
G02*
X100590000Y-44100000I-75000J0D01*
G01*
X99290000Y-44100000D01*
G75*
G02*
X99215000Y-44025000I0J75000D01*
G01*
G37*
G36*
G01*
X99215000Y-43525000D02*
X99215000Y-43375000D01*
G75*
G02*
X99290000Y-43300000I75000J0D01*
G01*
X100590000Y-43300000D01*
G75*
G02*
X100665000Y-43375000I0J-75000D01*
G01*
X100665000Y-43525000D01*
G75*
G02*
X100590000Y-43600000I-75000J0D01*
G01*
X99290000Y-43600000D01*
G75*
G02*
X99215000Y-43525000I0J75000D01*
G01*
G37*
G36*
G01*
X97020000Y-44200000D02*
X97020000Y-43760000D01*
G75*
G02*
X97195000Y-43585000I175000J0D01*
G01*
X97545000Y-43585000D01*
G75*
G02*
X97720000Y-43760000I0J-175000D01*
G01*
X97720000Y-44200000D01*
G75*
G02*
X97545000Y-44375000I-175000J0D01*
G01*
X97195000Y-44375000D01*
G75*
G02*
X97020000Y-44200000I0J175000D01*
G01*
G37*
G36*
G01*
X97020000Y-45140000D02*
X97020000Y-44700000D01*
G75*
G02*
X97195000Y-44525000I175000J0D01*
G01*
X97545000Y-44525000D01*
G75*
G02*
X97720000Y-44700000I0J-175000D01*
G01*
X97720000Y-45140000D01*
G75*
G02*
X97545000Y-45315000I-175000J0D01*
G01*
X97195000Y-45315000D01*
G75*
G02*
X97020000Y-45140000I0J175000D01*
G01*
G37*
G36*
G01*
X97860000Y-44200000D02*
X97860000Y-43760000D01*
G75*
G02*
X98035000Y-43585000I175000J0D01*
G01*
X98385000Y-43585000D01*
G75*
G02*
X98560000Y-43760000I0J-175000D01*
G01*
X98560000Y-44200000D01*
G75*
G02*
X98385000Y-44375000I-175000J0D01*
G01*
X98035000Y-44375000D01*
G75*
G02*
X97860000Y-44200000I0J175000D01*
G01*
G37*
G36*
G01*
X97860000Y-45140000D02*
X97860000Y-44700000D01*
G75*
G02*
X98035000Y-44525000I175000J0D01*
G01*
X98385000Y-44525000D01*
G75*
G02*
X98560000Y-44700000I0J-175000D01*
G01*
X98560000Y-45140000D01*
G75*
G02*
X98385000Y-45315000I-175000J0D01*
G01*
X98035000Y-45315000D01*
G75*
G02*
X97860000Y-45140000I0J175000D01*
G01*
G37*
%TD*%
M02*
