%TF.GenerationSoftware,KiCad,Pcbnew,(5.1.8)-1*%
%TF.CreationDate,2021-01-13T10:35:39-05:00*%
%TF.ProjectId,LED_Panel,4c45445f-5061-46e6-956c-2e6b69636164,rev?*%
%TF.SameCoordinates,Original*%
%TF.FileFunction,Soldermask,Bot*%
%TF.FilePolarity,Negative*%
%FSLAX46Y46*%
G04 Gerber Fmt 4.6, Leading zero omitted, Abs format (unit mm)*
G04 Created by KiCad (PCBNEW (5.1.8)-1) date 2021-01-13 10:35:39*
%MOMM*%
%LPD*%
G01*
G04 APERTURE LIST*
%ADD10O,1.600000X1.600000*%
%ADD11R,1.600000X1.600000*%
%ADD12C,8.600000*%
%ADD13C,0.900000*%
%ADD14C,1.700000*%
%ADD15R,1.700000X1.700000*%
%ADD16C,2.000000*%
%ADD17O,1.700000X1.700000*%
%ADD18C,1.600000*%
G04 APERTURE END LIST*
D10*
%TO.C,U8*%
X176530000Y-34925000D03*
X184150000Y-17145000D03*
X176530000Y-32385000D03*
X184150000Y-19685000D03*
X176530000Y-29845000D03*
X184150000Y-22225000D03*
X176530000Y-27305000D03*
X184150000Y-24765000D03*
X176530000Y-24765000D03*
X184150000Y-27305000D03*
X176530000Y-22225000D03*
X184150000Y-29845000D03*
X176530000Y-19685000D03*
X184150000Y-32385000D03*
X176530000Y-17145000D03*
D11*
X184150000Y-34925000D03*
%TD*%
D12*
%TO.C,REF\u002A\u002A*%
X278130000Y-101600000D03*
D13*
X281355000Y-101600000D03*
X280410419Y-103880419D03*
X278130000Y-104825000D03*
X275849581Y-103880419D03*
X274905000Y-101600000D03*
X275849581Y-99319581D03*
X278130000Y-98375000D03*
X280410419Y-99319581D03*
%TD*%
D12*
%TO.C,REF\u002A\u002A*%
X139700000Y-101600000D03*
D13*
X142925000Y-101600000D03*
X141980419Y-103880419D03*
X139700000Y-104825000D03*
X137419581Y-103880419D03*
X136475000Y-101600000D03*
X137419581Y-99319581D03*
X139700000Y-98375000D03*
X141980419Y-99319581D03*
%TD*%
D12*
%TO.C,REF\u002A\u002A*%
X278130000Y-19050000D03*
D13*
X281355000Y-19050000D03*
X280410419Y-21330419D03*
X278130000Y-22275000D03*
X275849581Y-21330419D03*
X274905000Y-19050000D03*
X275849581Y-16769581D03*
X278130000Y-15825000D03*
X280410419Y-16769581D03*
%TD*%
D12*
%TO.C,REF\u002A\u002A*%
X139700000Y-19050000D03*
D13*
X142925000Y-19050000D03*
X141980419Y-21330419D03*
X139700000Y-22275000D03*
X137419581Y-21330419D03*
X136475000Y-19050000D03*
X137419581Y-16769581D03*
X139700000Y-15825000D03*
X141980419Y-16769581D03*
%TD*%
D14*
%TO.C,D1*%
X256540000Y-97790000D03*
X254000000Y-97790000D03*
X251460000Y-97790000D03*
X248920000Y-97790000D03*
X246380000Y-97790000D03*
X243840000Y-97790000D03*
X241300000Y-97790000D03*
X238760000Y-97790000D03*
X236220000Y-97790000D03*
X233680000Y-97790000D03*
X233680000Y-90170000D03*
X236220000Y-90170000D03*
X238760000Y-90170000D03*
X241300000Y-90170000D03*
X243840000Y-90170000D03*
X246380000Y-90170000D03*
X248920000Y-90170000D03*
X251460000Y-90170000D03*
X254000000Y-90170000D03*
D15*
X256540000Y-90170000D03*
%TD*%
%TO.C,D3*%
X203200000Y-90170000D03*
D14*
X200660000Y-90170000D03*
X198120000Y-90170000D03*
X195580000Y-90170000D03*
X193040000Y-90170000D03*
X190500000Y-90170000D03*
X187960000Y-90170000D03*
X185420000Y-90170000D03*
X182880000Y-90170000D03*
X180340000Y-90170000D03*
X180340000Y-97790000D03*
X182880000Y-97790000D03*
X185420000Y-97790000D03*
X187960000Y-97790000D03*
X190500000Y-97790000D03*
X193040000Y-97790000D03*
X195580000Y-97790000D03*
X198120000Y-97790000D03*
X200660000Y-97790000D03*
X203200000Y-97790000D03*
%TD*%
D16*
%TO.C,D6*%
X227315000Y-44400000D03*
X226015000Y-42100000D03*
X224715000Y-44400000D03*
X223415000Y-42100000D03*
X222115000Y-44400000D03*
X227315000Y-69900000D03*
X226015000Y-72200000D03*
X224715000Y-69900000D03*
X223415000Y-72200000D03*
X222115000Y-69900000D03*
X195715000Y-69900000D03*
X194415000Y-72200000D03*
X193115000Y-69900000D03*
X191815000Y-72200000D03*
X190515000Y-69900000D03*
X190515000Y-44400000D03*
X191815000Y-42100000D03*
X193115000Y-44400000D03*
X194415000Y-42100000D03*
X195715000Y-44400000D03*
%TD*%
D15*
%TO.C,J1*%
X139700000Y-88900000D03*
D17*
X137160000Y-88900000D03*
X139700000Y-86360000D03*
X137160000Y-86360000D03*
X139700000Y-83820000D03*
X137160000Y-83820000D03*
%TD*%
D15*
%TO.C,J2*%
X137160000Y-72390000D03*
D17*
X137160000Y-69850000D03*
%TD*%
D11*
%TO.C,RN1*%
X262890000Y-102870000D03*
D10*
X260350000Y-102870000D03*
X257810000Y-102870000D03*
X255270000Y-102870000D03*
X252730000Y-102870000D03*
X250190000Y-102870000D03*
X247650000Y-102870000D03*
X245110000Y-102870000D03*
X242570000Y-102870000D03*
X240030000Y-102870000D03*
X237490000Y-102870000D03*
%TD*%
%TO.C,RN4*%
X149860000Y-102870000D03*
X152400000Y-102870000D03*
X154940000Y-102870000D03*
X157480000Y-102870000D03*
X160020000Y-102870000D03*
X162560000Y-102870000D03*
X165100000Y-102870000D03*
X167640000Y-102870000D03*
X170180000Y-102870000D03*
X172720000Y-102870000D03*
D11*
X175260000Y-102870000D03*
%TD*%
%TO.C,U2*%
X259715000Y-78740000D03*
D10*
X241935000Y-86360000D03*
X257175000Y-78740000D03*
X244475000Y-86360000D03*
X254635000Y-78740000D03*
X247015000Y-86360000D03*
X252095000Y-78740000D03*
X249555000Y-86360000D03*
X249555000Y-78740000D03*
X252095000Y-86360000D03*
X247015000Y-78740000D03*
X254635000Y-86360000D03*
X244475000Y-78740000D03*
X257175000Y-86360000D03*
X241935000Y-78740000D03*
X259715000Y-86360000D03*
%TD*%
D11*
%TO.C,U3*%
X236855000Y-78740000D03*
D10*
X219075000Y-86360000D03*
X234315000Y-78740000D03*
X221615000Y-86360000D03*
X231775000Y-78740000D03*
X224155000Y-86360000D03*
X229235000Y-78740000D03*
X226695000Y-86360000D03*
X226695000Y-78740000D03*
X229235000Y-86360000D03*
X224155000Y-78740000D03*
X231775000Y-86360000D03*
X221615000Y-78740000D03*
X234315000Y-86360000D03*
X219075000Y-78740000D03*
X236855000Y-86360000D03*
%TD*%
%TO.C,U5*%
X192405000Y-86360000D03*
X174625000Y-78740000D03*
X189865000Y-86360000D03*
X177165000Y-78740000D03*
X187325000Y-86360000D03*
X179705000Y-78740000D03*
X184785000Y-86360000D03*
X182245000Y-78740000D03*
X182245000Y-86360000D03*
X184785000Y-78740000D03*
X179705000Y-86360000D03*
X187325000Y-78740000D03*
X177165000Y-86360000D03*
X189865000Y-78740000D03*
X174625000Y-86360000D03*
D11*
X192405000Y-78740000D03*
%TD*%
%TO.C,U6*%
X169545000Y-78740000D03*
D10*
X151765000Y-86360000D03*
X167005000Y-78740000D03*
X154305000Y-86360000D03*
X164465000Y-78740000D03*
X156845000Y-86360000D03*
X161925000Y-78740000D03*
X159385000Y-86360000D03*
X159385000Y-78740000D03*
X161925000Y-86360000D03*
X156845000Y-78740000D03*
X164465000Y-86360000D03*
X154305000Y-78740000D03*
X167005000Y-86360000D03*
X151765000Y-78740000D03*
X169545000Y-86360000D03*
%TD*%
D11*
%TO.C,U7*%
X148590000Y-17145000D03*
D10*
X156210000Y-34925000D03*
X148590000Y-19685000D03*
X156210000Y-32385000D03*
X148590000Y-22225000D03*
X156210000Y-29845000D03*
X148590000Y-24765000D03*
X156210000Y-27305000D03*
X148590000Y-27305000D03*
X156210000Y-24765000D03*
X148590000Y-29845000D03*
X156210000Y-22225000D03*
X148590000Y-32385000D03*
X156210000Y-19685000D03*
X148590000Y-34925000D03*
X156210000Y-17145000D03*
%TD*%
D11*
%TO.C,U9*%
X190500000Y-17145000D03*
D10*
X198120000Y-34925000D03*
X190500000Y-19685000D03*
X198120000Y-32385000D03*
X190500000Y-22225000D03*
X198120000Y-29845000D03*
X190500000Y-24765000D03*
X198120000Y-27305000D03*
X190500000Y-27305000D03*
X198120000Y-24765000D03*
X190500000Y-29845000D03*
X198120000Y-22225000D03*
X190500000Y-32385000D03*
X198120000Y-19685000D03*
X190500000Y-34925000D03*
X198120000Y-17145000D03*
%TD*%
D11*
%TO.C,U10*%
X226695000Y-34925000D03*
D10*
X219075000Y-17145000D03*
X226695000Y-32385000D03*
X219075000Y-19685000D03*
X226695000Y-29845000D03*
X219075000Y-22225000D03*
X226695000Y-27305000D03*
X219075000Y-24765000D03*
X226695000Y-24765000D03*
X219075000Y-27305000D03*
X226695000Y-22225000D03*
X219075000Y-29845000D03*
X226695000Y-19685000D03*
X219075000Y-32385000D03*
X226695000Y-17145000D03*
X219075000Y-34925000D03*
%TD*%
%TO.C,U11*%
X240665000Y-17145000D03*
X233045000Y-34925000D03*
X240665000Y-19685000D03*
X233045000Y-32385000D03*
X240665000Y-22225000D03*
X233045000Y-29845000D03*
X240665000Y-24765000D03*
X233045000Y-27305000D03*
X240665000Y-27305000D03*
X233045000Y-24765000D03*
X240665000Y-29845000D03*
X233045000Y-22225000D03*
X240665000Y-32385000D03*
X233045000Y-19685000D03*
X240665000Y-34925000D03*
D11*
X233045000Y-17145000D03*
%TD*%
D10*
%TO.C,U12*%
X262255000Y-34925000D03*
X269875000Y-17145000D03*
X262255000Y-32385000D03*
X269875000Y-19685000D03*
X262255000Y-29845000D03*
X269875000Y-22225000D03*
X262255000Y-27305000D03*
X269875000Y-24765000D03*
X262255000Y-24765000D03*
X269875000Y-27305000D03*
X262255000Y-22225000D03*
X269875000Y-29845000D03*
X262255000Y-19685000D03*
X269875000Y-32385000D03*
X262255000Y-17145000D03*
D11*
X269875000Y-34925000D03*
%TD*%
D15*
%TO.C,D2*%
X229870000Y-90170000D03*
D14*
X227330000Y-90170000D03*
X224790000Y-90170000D03*
X222250000Y-90170000D03*
X219710000Y-90170000D03*
X217170000Y-90170000D03*
X214630000Y-90170000D03*
X212090000Y-90170000D03*
X209550000Y-90170000D03*
X207010000Y-90170000D03*
X207010000Y-97790000D03*
X209550000Y-97790000D03*
X212090000Y-97790000D03*
X214630000Y-97790000D03*
X217170000Y-97790000D03*
X219710000Y-97790000D03*
X222250000Y-97790000D03*
X224790000Y-97790000D03*
X227330000Y-97790000D03*
X229870000Y-97790000D03*
%TD*%
%TO.C,D4*%
X176530000Y-97790000D03*
X173990000Y-97790000D03*
X171450000Y-97790000D03*
X168910000Y-97790000D03*
X166370000Y-97790000D03*
X163830000Y-97790000D03*
X161290000Y-97790000D03*
X158750000Y-97790000D03*
X156210000Y-97790000D03*
X153670000Y-97790000D03*
X153670000Y-90170000D03*
X156210000Y-90170000D03*
X158750000Y-90170000D03*
X161290000Y-90170000D03*
X163830000Y-90170000D03*
X166370000Y-90170000D03*
X168910000Y-90170000D03*
X171450000Y-90170000D03*
X173990000Y-90170000D03*
D15*
X176530000Y-90170000D03*
%TD*%
D16*
%TO.C,D5*%
X184770000Y-44400000D03*
X183470000Y-42100000D03*
X182170000Y-44400000D03*
X180870000Y-42100000D03*
X179570000Y-44400000D03*
X184770000Y-69900000D03*
X183470000Y-72200000D03*
X182170000Y-69900000D03*
X180870000Y-72200000D03*
X179570000Y-69900000D03*
X153170000Y-69900000D03*
X151870000Y-72200000D03*
X150570000Y-69900000D03*
X149270000Y-72200000D03*
X147970000Y-69900000D03*
X147970000Y-44400000D03*
X149270000Y-42100000D03*
X150570000Y-44400000D03*
X151870000Y-42100000D03*
X153170000Y-44400000D03*
%TD*%
%TO.C,D7*%
X238260000Y-44400000D03*
X236960000Y-42100000D03*
X235660000Y-44400000D03*
X234360000Y-42100000D03*
X233060000Y-44400000D03*
X233060000Y-69900000D03*
X234360000Y-72200000D03*
X235660000Y-69900000D03*
X236960000Y-72200000D03*
X238260000Y-69900000D03*
X264660000Y-69900000D03*
X265960000Y-72200000D03*
X267260000Y-69900000D03*
X268560000Y-72200000D03*
X269860000Y-69900000D03*
X264660000Y-44400000D03*
X265960000Y-42100000D03*
X267260000Y-44400000D03*
X268560000Y-42100000D03*
X269860000Y-44400000D03*
%TD*%
D11*
%TO.C,RN2*%
X233680000Y-102870000D03*
D10*
X231140000Y-102870000D03*
X228600000Y-102870000D03*
X226060000Y-102870000D03*
X223520000Y-102870000D03*
X220980000Y-102870000D03*
X218440000Y-102870000D03*
X215900000Y-102870000D03*
X213360000Y-102870000D03*
X210820000Y-102870000D03*
X208280000Y-102870000D03*
%TD*%
%TO.C,RN3*%
X179070000Y-102870000D03*
X181610000Y-102870000D03*
X184150000Y-102870000D03*
X186690000Y-102870000D03*
X189230000Y-102870000D03*
X191770000Y-102870000D03*
X194310000Y-102870000D03*
X196850000Y-102870000D03*
X199390000Y-102870000D03*
X201930000Y-102870000D03*
D11*
X204470000Y-102870000D03*
%TD*%
%TO.C,U1*%
X281305000Y-79375000D03*
D18*
X278765000Y-79375000D03*
X276225000Y-79375000D03*
X273685000Y-79375000D03*
X273685000Y-86995000D03*
X276225000Y-86995000D03*
X278765000Y-86995000D03*
X281305000Y-86995000D03*
%TD*%
D11*
%TO.C,U4*%
X214630000Y-78740000D03*
D10*
X196850000Y-86360000D03*
X212090000Y-78740000D03*
X199390000Y-86360000D03*
X209550000Y-78740000D03*
X201930000Y-86360000D03*
X207010000Y-78740000D03*
X204470000Y-86360000D03*
X204470000Y-78740000D03*
X207010000Y-86360000D03*
X201930000Y-78740000D03*
X209550000Y-86360000D03*
X199390000Y-78740000D03*
X212090000Y-86360000D03*
X196850000Y-78740000D03*
X214630000Y-86360000D03*
%TD*%
M02*
