%FSLAX45Y45*%
G04 Gerber Fmt 4.5, Leading zero omitted, Abs format (unit mm)*
G04 Created by KiCad (PCBNEW (5.1.8)-1) date 2021-01-13 10:36:35*
%MOMM*%
%LPD*%
G01*
G04 APERTURE LIST*
%TA.AperFunction,Profile*%
%ADD10C,0.050000*%
%TD*%
%ADD11C,0.200000*%
%ADD12C,0.300000*%
G04 APERTURE END LIST*
D10*
X13335000Y-1778000D02*
X13335000Y-10160000D01*
X27940000Y-1270000D02*
X13843000Y-1270000D01*
X28448000Y-1778000D02*
X28448000Y-10160000D01*
X13970000Y-10795000D02*
X27813000Y-10795000D01*
X13335000Y-1778000D02*
G75*
G02*
X13843000Y-1270000I508000J0D01*
G01*
X27940000Y-1270000D02*
G75*
G02*
X28448000Y-1778000I0J-508000D01*
G01*
X13970000Y-10795000D02*
G75*
G02*
X13335000Y-10160000I0J635000D01*
G01*
X28448000Y-10160000D02*
G75*
G02*
X27813000Y-10795000I-635000J0D01*
G01*
D11*
X14465300Y-3797300D02*
X14490700Y-3822700D01*
X14490700Y-3797300D02*
X14465300Y-3822700D01*
X15417800Y-8305800D02*
X15443200Y-8331200D01*
X15443200Y-8305800D02*
X15417800Y-8331200D01*
X16243300Y-5448300D02*
X16268700Y-5473700D01*
X16268700Y-5448300D02*
X16243300Y-5473700D01*
X16243300Y-5575300D02*
X16268700Y-5600700D01*
X16268700Y-5575300D02*
X16243300Y-5600700D01*
X16243300Y-5702300D02*
X16268700Y-5727700D01*
X16268700Y-5702300D02*
X16243300Y-5727700D01*
X16281063Y-5295900D02*
X16306463Y-5321300D01*
X16306463Y-5295900D02*
X16281063Y-5321300D01*
X16941800Y-8305800D02*
X16967200Y-8331200D01*
X16967200Y-8305800D02*
X16941800Y-8331200D01*
X16986250Y-3625850D02*
X17011650Y-3651250D01*
X17011650Y-3625850D02*
X16986250Y-3651250D01*
X17056100Y-3695700D02*
X17081500Y-3721100D01*
X17081500Y-3695700D02*
X17056100Y-3721100D01*
X17157700Y-3721100D02*
X17183100Y-3746500D01*
X17183100Y-3721100D02*
X17157700Y-3746500D01*
X17284700Y-3746500D02*
X17310100Y-3771900D01*
X17310100Y-3746500D02*
X17284700Y-3771900D01*
X17449800Y-1638300D02*
X17475200Y-1663700D01*
X17475200Y-1638300D02*
X17449800Y-1663700D01*
X17728800Y-8280800D02*
X17754200Y-8306200D01*
X17754200Y-8280800D02*
X17728800Y-8306200D01*
X18006399Y-1496399D02*
X18031799Y-1521799D01*
X18031799Y-1496399D02*
X18006399Y-1521799D01*
X18544201Y-1496399D02*
X18569601Y-1521799D01*
X18569601Y-1496399D02*
X18544201Y-1521799D01*
X18783300Y-1701800D02*
X18808700Y-1727200D01*
X18808700Y-1701800D02*
X18783300Y-1727200D01*
X19139300Y-8280800D02*
X19164700Y-8306200D01*
X19164700Y-8280800D02*
X19139300Y-8306200D01*
X19901300Y-8280800D02*
X19926700Y-8306200D01*
X19926700Y-8280800D02*
X19901300Y-8306200D01*
X20358100Y-5473700D02*
X20383500Y-5499100D01*
X20383500Y-5473700D02*
X20358100Y-5499100D01*
X20370800Y-5575300D02*
X20396200Y-5600700D01*
X20396200Y-5575300D02*
X20370800Y-5600700D01*
X20370800Y-5702300D02*
X20396200Y-5727700D01*
X20396200Y-5702300D02*
X20370800Y-5727700D01*
X20408563Y-5384800D02*
X20433963Y-5410200D01*
X20433963Y-5384800D02*
X20408563Y-5410200D01*
X21285511Y-3543300D02*
X21310911Y-3568700D01*
X21310911Y-3543300D02*
X21285511Y-3568700D01*
X21399500Y-3594100D02*
X21424900Y-3619500D01*
X21424900Y-3594100D02*
X21399500Y-3619500D01*
X21475700Y-3670300D02*
X21501100Y-3695700D01*
X21501100Y-3670300D02*
X21475700Y-3695700D01*
X21628100Y-3721100D02*
X21653500Y-3746500D01*
X21653500Y-3721100D02*
X21628100Y-3746500D01*
X21640800Y-1638300D02*
X21666200Y-1663700D01*
X21666200Y-1638300D02*
X21640800Y-1663700D01*
X22123800Y-8280800D02*
X22149200Y-8306200D01*
X22149200Y-8280800D02*
X22123800Y-8306200D01*
X22260899Y-1496399D02*
X22286299Y-1521799D01*
X22286299Y-1496399D02*
X22260899Y-1521799D01*
X22705399Y-1496399D02*
X22730799Y-1521799D01*
X22730799Y-1496399D02*
X22705399Y-1521799D01*
X23037800Y-1701800D02*
X23063200Y-1727200D01*
X23063200Y-1701800D02*
X23037800Y-1727200D01*
X23697800Y-8280800D02*
X23723200Y-8306200D01*
X23723200Y-8280800D02*
X23697800Y-8306200D01*
X24459800Y-8280800D02*
X24485200Y-8306200D01*
X24485200Y-8280800D02*
X24459800Y-8306200D01*
X24688800Y-5448300D02*
X24714200Y-5473700D01*
X24714200Y-5448300D02*
X24688800Y-5473700D01*
X24688800Y-5575300D02*
X24714200Y-5600700D01*
X24714200Y-5575300D02*
X24688800Y-5600700D01*
X24688800Y-5702300D02*
X24714200Y-5727700D01*
X24714200Y-5702300D02*
X24688800Y-5727700D01*
X24726563Y-5321300D02*
X24751963Y-5346700D01*
X24751963Y-5321300D02*
X24726563Y-5346700D01*
X25260300Y-1955800D02*
X25285700Y-1981200D01*
X25285700Y-1955800D02*
X25260300Y-1981200D01*
X25514300Y-9448800D02*
X25539700Y-9474200D01*
X25539700Y-9448800D02*
X25514300Y-9474200D01*
X25540011Y-3582622D02*
X25565411Y-3608022D01*
X25565411Y-3582622D02*
X25540011Y-3608022D01*
X25641300Y-3594100D02*
X25666700Y-3619500D01*
X25666700Y-3594100D02*
X25641300Y-3619500D01*
X25742900Y-3619500D02*
X25768300Y-3644900D01*
X25768300Y-3619500D02*
X25742900Y-3644900D01*
X25844500Y-3619500D02*
X25869900Y-3644900D01*
X25869900Y-3619500D02*
X25844500Y-3644900D01*
X25958800Y-8281599D02*
X25984200Y-8306999D01*
X25984200Y-8281599D02*
X25958800Y-8306999D01*
X26149300Y-8369300D02*
X26174700Y-8394700D01*
X26174700Y-8369300D02*
X26149300Y-8394700D01*
X26212800Y-8496300D02*
X26238200Y-8521700D01*
X26238200Y-8496300D02*
X26212800Y-8521700D01*
X18069000Y-9017000D02*
G75*
G03*
X18069000Y-9017000I-35000J0D01*
G01*
X18069000Y-9779000D02*
G75*
G03*
X18069000Y-9779000I-35000J0D01*
G01*
X18323000Y-9017000D02*
G75*
G03*
X18323000Y-9017000I-35000J0D01*
G01*
X18323000Y-9779000D02*
G75*
G03*
X18323000Y-9779000I-35000J0D01*
G01*
X18577000Y-9017000D02*
G75*
G03*
X18577000Y-9017000I-35000J0D01*
G01*
X18577000Y-9779000D02*
G75*
G03*
X18577000Y-9779000I-35000J0D01*
G01*
X18831000Y-9017000D02*
G75*
G03*
X18831000Y-9017000I-35000J0D01*
G01*
X18831000Y-9779000D02*
G75*
G03*
X18831000Y-9779000I-35000J0D01*
G01*
X19085000Y-9017000D02*
G75*
G03*
X19085000Y-9017000I-35000J0D01*
G01*
X19085000Y-9779000D02*
G75*
G03*
X19085000Y-9779000I-35000J0D01*
G01*
X19339000Y-9017000D02*
G75*
G03*
X19339000Y-9017000I-35000J0D01*
G01*
X19339000Y-9779000D02*
G75*
G03*
X19339000Y-9779000I-35000J0D01*
G01*
X19593000Y-9017000D02*
G75*
G03*
X19593000Y-9017000I-35000J0D01*
G01*
X19593000Y-9779000D02*
G75*
G03*
X19593000Y-9779000I-35000J0D01*
G01*
X19847000Y-9017000D02*
G75*
G03*
X19847000Y-9017000I-35000J0D01*
G01*
X19847000Y-9779000D02*
G75*
G03*
X19847000Y-9779000I-35000J0D01*
G01*
X20101000Y-9017000D02*
G75*
G03*
X20101000Y-9017000I-35000J0D01*
G01*
X20101000Y-9779000D02*
G75*
G03*
X20101000Y-9779000I-35000J0D01*
G01*
X20355000Y-9017000D02*
G75*
G03*
X20355000Y-9017000I-35000J0D01*
G01*
X20355000Y-9779000D02*
G75*
G03*
X20355000Y-9779000I-35000J0D01*
G01*
X23403000Y-9017000D02*
G75*
G03*
X23403000Y-9017000I-35000J0D01*
G01*
X23403000Y-9779000D02*
G75*
G03*
X23403000Y-9779000I-35000J0D01*
G01*
X23657000Y-9017000D02*
G75*
G03*
X23657000Y-9017000I-35000J0D01*
G01*
X23657000Y-9779000D02*
G75*
G03*
X23657000Y-9779000I-35000J0D01*
G01*
X23911000Y-9017000D02*
G75*
G03*
X23911000Y-9017000I-35000J0D01*
G01*
X23911000Y-9779000D02*
G75*
G03*
X23911000Y-9779000I-35000J0D01*
G01*
X24165000Y-9017000D02*
G75*
G03*
X24165000Y-9017000I-35000J0D01*
G01*
X24165000Y-9779000D02*
G75*
G03*
X24165000Y-9779000I-35000J0D01*
G01*
X24419000Y-9017000D02*
G75*
G03*
X24419000Y-9017000I-35000J0D01*
G01*
X24419000Y-9779000D02*
G75*
G03*
X24419000Y-9779000I-35000J0D01*
G01*
X24673000Y-9017000D02*
G75*
G03*
X24673000Y-9017000I-35000J0D01*
G01*
X24673000Y-9779000D02*
G75*
G03*
X24673000Y-9779000I-35000J0D01*
G01*
X24927000Y-9017000D02*
G75*
G03*
X24927000Y-9017000I-35000J0D01*
G01*
X24927000Y-9779000D02*
G75*
G03*
X24927000Y-9779000I-35000J0D01*
G01*
X25181000Y-9017000D02*
G75*
G03*
X25181000Y-9017000I-35000J0D01*
G01*
X25181000Y-9779000D02*
G75*
G03*
X25181000Y-9779000I-35000J0D01*
G01*
X25435000Y-9017000D02*
G75*
G03*
X25435000Y-9017000I-35000J0D01*
G01*
X25435000Y-9779000D02*
G75*
G03*
X25435000Y-9779000I-35000J0D01*
G01*
X25689000Y-9017000D02*
G75*
G03*
X25689000Y-9017000I-35000J0D01*
G01*
X25689000Y-9779000D02*
G75*
G03*
X25689000Y-9779000I-35000J0D01*
G01*
X20736000Y-9017000D02*
G75*
G03*
X20736000Y-9017000I-35000J0D01*
G01*
X20736000Y-9779000D02*
G75*
G03*
X20736000Y-9779000I-35000J0D01*
G01*
X20990000Y-9017000D02*
G75*
G03*
X20990000Y-9017000I-35000J0D01*
G01*
X20990000Y-9779000D02*
G75*
G03*
X20990000Y-9779000I-35000J0D01*
G01*
X21244000Y-9017000D02*
G75*
G03*
X21244000Y-9017000I-35000J0D01*
G01*
X21244000Y-9779000D02*
G75*
G03*
X21244000Y-9779000I-35000J0D01*
G01*
X21498000Y-9017000D02*
G75*
G03*
X21498000Y-9017000I-35000J0D01*
G01*
X21498000Y-9779000D02*
G75*
G03*
X21498000Y-9779000I-35000J0D01*
G01*
X21752000Y-9017000D02*
G75*
G03*
X21752000Y-9017000I-35000J0D01*
G01*
X21752000Y-9779000D02*
G75*
G03*
X21752000Y-9779000I-35000J0D01*
G01*
X22006000Y-9017000D02*
G75*
G03*
X22006000Y-9017000I-35000J0D01*
G01*
X22006000Y-9779000D02*
G75*
G03*
X22006000Y-9779000I-35000J0D01*
G01*
X22260000Y-9017000D02*
G75*
G03*
X22260000Y-9017000I-35000J0D01*
G01*
X22260000Y-9779000D02*
G75*
G03*
X22260000Y-9779000I-35000J0D01*
G01*
X22514000Y-9017000D02*
G75*
G03*
X22514000Y-9017000I-35000J0D01*
G01*
X22514000Y-9779000D02*
G75*
G03*
X22514000Y-9779000I-35000J0D01*
G01*
X22768000Y-9017000D02*
G75*
G03*
X22768000Y-9017000I-35000J0D01*
G01*
X22768000Y-9779000D02*
G75*
G03*
X22768000Y-9779000I-35000J0D01*
G01*
X23022000Y-9017000D02*
G75*
G03*
X23022000Y-9017000I-35000J0D01*
G01*
X23022000Y-9779000D02*
G75*
G03*
X23022000Y-9779000I-35000J0D01*
G01*
X15402000Y-9017000D02*
G75*
G03*
X15402000Y-9017000I-35000J0D01*
G01*
X15402000Y-9779000D02*
G75*
G03*
X15402000Y-9779000I-35000J0D01*
G01*
X15656000Y-9017000D02*
G75*
G03*
X15656000Y-9017000I-35000J0D01*
G01*
X15656000Y-9779000D02*
G75*
G03*
X15656000Y-9779000I-35000J0D01*
G01*
X15910000Y-9017000D02*
G75*
G03*
X15910000Y-9017000I-35000J0D01*
G01*
X15910000Y-9779000D02*
G75*
G03*
X15910000Y-9779000I-35000J0D01*
G01*
X16164000Y-9017000D02*
G75*
G03*
X16164000Y-9017000I-35000J0D01*
G01*
X16164000Y-9779000D02*
G75*
G03*
X16164000Y-9779000I-35000J0D01*
G01*
X16418000Y-9017000D02*
G75*
G03*
X16418000Y-9017000I-35000J0D01*
G01*
X16418000Y-9779000D02*
G75*
G03*
X16418000Y-9779000I-35000J0D01*
G01*
X16672000Y-9017000D02*
G75*
G03*
X16672000Y-9017000I-35000J0D01*
G01*
X16672000Y-9779000D02*
G75*
G03*
X16672000Y-9779000I-35000J0D01*
G01*
X16926000Y-9017000D02*
G75*
G03*
X16926000Y-9017000I-35000J0D01*
G01*
X16926000Y-9779000D02*
G75*
G03*
X16926000Y-9779000I-35000J0D01*
G01*
X17180000Y-9017000D02*
G75*
G03*
X17180000Y-9017000I-35000J0D01*
G01*
X17180000Y-9779000D02*
G75*
G03*
X17180000Y-9779000I-35000J0D01*
G01*
X17434000Y-9017000D02*
G75*
G03*
X17434000Y-9017000I-35000J0D01*
G01*
X17434000Y-9779000D02*
G75*
G03*
X17434000Y-9779000I-35000J0D01*
G01*
X17688000Y-9017000D02*
G75*
G03*
X17688000Y-9017000I-35000J0D01*
G01*
X17688000Y-9779000D02*
G75*
G03*
X17688000Y-9779000I-35000J0D01*
G01*
X17462500Y-7834000D02*
X17462500Y-7914000D01*
X17422500Y-7874000D02*
X17502500Y-7874000D01*
X17462500Y-8596000D02*
X17462500Y-8676000D01*
X17422500Y-8636000D02*
X17502500Y-8636000D01*
X17716500Y-7834000D02*
X17716500Y-7914000D01*
X17676500Y-7874000D02*
X17756500Y-7874000D01*
X17716500Y-8596000D02*
X17716500Y-8676000D01*
X17676500Y-8636000D02*
X17756500Y-8636000D01*
X17970500Y-7834000D02*
X17970500Y-7914000D01*
X17930500Y-7874000D02*
X18010500Y-7874000D01*
X17970500Y-8596000D02*
X17970500Y-8676000D01*
X17930500Y-8636000D02*
X18010500Y-8636000D01*
X18224500Y-7834000D02*
X18224500Y-7914000D01*
X18184500Y-7874000D02*
X18264500Y-7874000D01*
X18224500Y-8596000D02*
X18224500Y-8676000D01*
X18184500Y-8636000D02*
X18264500Y-8636000D01*
X18478500Y-7834000D02*
X18478500Y-7914000D01*
X18438500Y-7874000D02*
X18518500Y-7874000D01*
X18478500Y-8596000D02*
X18478500Y-8676000D01*
X18438500Y-8636000D02*
X18518500Y-8636000D01*
X18732500Y-7834000D02*
X18732500Y-7914000D01*
X18692500Y-7874000D02*
X18772500Y-7874000D01*
X18732500Y-8596000D02*
X18732500Y-8676000D01*
X18692500Y-8636000D02*
X18772500Y-8636000D01*
X18986500Y-7834000D02*
X18986500Y-7914000D01*
X18946500Y-7874000D02*
X19026500Y-7874000D01*
X18986500Y-8596000D02*
X18986500Y-8676000D01*
X18946500Y-8636000D02*
X19026500Y-8636000D01*
X19240500Y-7834000D02*
X19240500Y-7914000D01*
X19200500Y-7874000D02*
X19280500Y-7874000D01*
X19240500Y-8596000D02*
X19240500Y-8676000D01*
X19200500Y-8636000D02*
X19280500Y-8636000D01*
X17653000Y-1674500D02*
X17653000Y-1754500D01*
X17613000Y-1714500D02*
X17693000Y-1714500D01*
X17653000Y-1928500D02*
X17653000Y-2008500D01*
X17613000Y-1968500D02*
X17693000Y-1968500D01*
X17653000Y-2182500D02*
X17653000Y-2262500D01*
X17613000Y-2222500D02*
X17693000Y-2222500D01*
X17653000Y-2436500D02*
X17653000Y-2516500D01*
X17613000Y-2476500D02*
X17693000Y-2476500D01*
X17653000Y-2690500D02*
X17653000Y-2770500D01*
X17613000Y-2730500D02*
X17693000Y-2730500D01*
X17653000Y-2944500D02*
X17653000Y-3024500D01*
X17613000Y-2984500D02*
X17693000Y-2984500D01*
X17653000Y-3198500D02*
X17653000Y-3278500D01*
X17613000Y-3238500D02*
X17693000Y-3238500D01*
X17653000Y-3452500D02*
X17653000Y-3532500D01*
X17613000Y-3492500D02*
X17693000Y-3492500D01*
X18415000Y-1674500D02*
X18415000Y-1754500D01*
X18375000Y-1714500D02*
X18455000Y-1714500D01*
X18415000Y-1928500D02*
X18415000Y-2008500D01*
X18375000Y-1968500D02*
X18455000Y-1968500D01*
X18415000Y-2182500D02*
X18415000Y-2262500D01*
X18375000Y-2222500D02*
X18455000Y-2222500D01*
X18415000Y-2436500D02*
X18415000Y-2516500D01*
X18375000Y-2476500D02*
X18455000Y-2476500D01*
X18415000Y-2690500D02*
X18415000Y-2770500D01*
X18375000Y-2730500D02*
X18455000Y-2730500D01*
X18415000Y-2944500D02*
X18415000Y-3024500D01*
X18375000Y-2984500D02*
X18455000Y-2984500D01*
X18415000Y-3198500D02*
X18415000Y-3278500D01*
X18375000Y-3238500D02*
X18455000Y-3238500D01*
X18415000Y-3452500D02*
X18415000Y-3532500D01*
X18375000Y-3492500D02*
X18455000Y-3492500D01*
X20828000Y-10247000D02*
X20828000Y-10327000D01*
X20788000Y-10287000D02*
X20868000Y-10287000D01*
X21082000Y-10247000D02*
X21082000Y-10327000D01*
X21042000Y-10287000D02*
X21122000Y-10287000D01*
X21336000Y-10247000D02*
X21336000Y-10327000D01*
X21296000Y-10287000D02*
X21376000Y-10287000D01*
X21590000Y-10247000D02*
X21590000Y-10327000D01*
X21550000Y-10287000D02*
X21630000Y-10287000D01*
X21844000Y-10247000D02*
X21844000Y-10327000D01*
X21804000Y-10287000D02*
X21884000Y-10287000D01*
X22098000Y-10247000D02*
X22098000Y-10327000D01*
X22058000Y-10287000D02*
X22138000Y-10287000D01*
X22352000Y-10247000D02*
X22352000Y-10327000D01*
X22312000Y-10287000D02*
X22392000Y-10287000D01*
X22606000Y-10247000D02*
X22606000Y-10327000D01*
X22566000Y-10287000D02*
X22646000Y-10287000D01*
X22860000Y-10247000D02*
X22860000Y-10327000D01*
X22820000Y-10287000D02*
X22900000Y-10287000D01*
X23114000Y-10247000D02*
X23114000Y-10327000D01*
X23074000Y-10287000D02*
X23154000Y-10287000D01*
X23368000Y-10247000D02*
X23368000Y-10327000D01*
X23328000Y-10287000D02*
X23408000Y-10287000D01*
X23749000Y-10247000D02*
X23749000Y-10327000D01*
X23709000Y-10287000D02*
X23789000Y-10287000D01*
X24003000Y-10247000D02*
X24003000Y-10327000D01*
X23963000Y-10287000D02*
X24043000Y-10287000D01*
X24257000Y-10247000D02*
X24257000Y-10327000D01*
X24217000Y-10287000D02*
X24297000Y-10287000D01*
X24511000Y-10247000D02*
X24511000Y-10327000D01*
X24471000Y-10287000D02*
X24551000Y-10287000D01*
X24765000Y-10247000D02*
X24765000Y-10327000D01*
X24725000Y-10287000D02*
X24805000Y-10287000D01*
X25019000Y-10247000D02*
X25019000Y-10327000D01*
X24979000Y-10287000D02*
X25059000Y-10287000D01*
X25273000Y-10247000D02*
X25273000Y-10327000D01*
X25233000Y-10287000D02*
X25313000Y-10287000D01*
X25527000Y-10247000D02*
X25527000Y-10327000D01*
X25487000Y-10287000D02*
X25567000Y-10287000D01*
X25781000Y-10247000D02*
X25781000Y-10327000D01*
X25741000Y-10287000D02*
X25821000Y-10287000D01*
X26035000Y-10247000D02*
X26035000Y-10327000D01*
X25995000Y-10287000D02*
X26075000Y-10287000D01*
X26289000Y-10247000D02*
X26289000Y-10327000D01*
X26249000Y-10287000D02*
X26329000Y-10287000D01*
X14859000Y-1674500D02*
X14859000Y-1754500D01*
X14819000Y-1714500D02*
X14899000Y-1714500D01*
X14859000Y-1928500D02*
X14859000Y-2008500D01*
X14819000Y-1968500D02*
X14899000Y-1968500D01*
X14859000Y-2182500D02*
X14859000Y-2262500D01*
X14819000Y-2222500D02*
X14899000Y-2222500D01*
X14859000Y-2436500D02*
X14859000Y-2516500D01*
X14819000Y-2476500D02*
X14899000Y-2476500D01*
X14859000Y-2690500D02*
X14859000Y-2770500D01*
X14819000Y-2730500D02*
X14899000Y-2730500D01*
X14859000Y-2944500D02*
X14859000Y-3024500D01*
X14819000Y-2984500D02*
X14899000Y-2984500D01*
X14859000Y-3198500D02*
X14859000Y-3278500D01*
X14819000Y-3238500D02*
X14899000Y-3238500D01*
X14859000Y-3452500D02*
X14859000Y-3532500D01*
X14819000Y-3492500D02*
X14899000Y-3492500D01*
X15621000Y-1674500D02*
X15621000Y-1754500D01*
X15581000Y-1714500D02*
X15661000Y-1714500D01*
X15621000Y-1928500D02*
X15621000Y-2008500D01*
X15581000Y-1968500D02*
X15661000Y-1968500D01*
X15621000Y-2182500D02*
X15621000Y-2262500D01*
X15581000Y-2222500D02*
X15661000Y-2222500D01*
X15621000Y-2436500D02*
X15621000Y-2516500D01*
X15581000Y-2476500D02*
X15661000Y-2476500D01*
X15621000Y-2690500D02*
X15621000Y-2770500D01*
X15581000Y-2730500D02*
X15661000Y-2730500D01*
X15621000Y-2944500D02*
X15621000Y-3024500D01*
X15581000Y-2984500D02*
X15661000Y-2984500D01*
X15621000Y-3198500D02*
X15621000Y-3278500D01*
X15581000Y-3238500D02*
X15661000Y-3238500D01*
X15621000Y-3452500D02*
X15621000Y-3532500D01*
X15581000Y-3492500D02*
X15661000Y-3492500D01*
X23304500Y-1674500D02*
X23304500Y-1754500D01*
X23264500Y-1714500D02*
X23344500Y-1714500D01*
X23304500Y-1928500D02*
X23304500Y-2008500D01*
X23264500Y-1968500D02*
X23344500Y-1968500D01*
X23304500Y-2182500D02*
X23304500Y-2262500D01*
X23264500Y-2222500D02*
X23344500Y-2222500D01*
X23304500Y-2436500D02*
X23304500Y-2516500D01*
X23264500Y-2476500D02*
X23344500Y-2476500D01*
X23304500Y-2690500D02*
X23304500Y-2770500D01*
X23264500Y-2730500D02*
X23344500Y-2730500D01*
X23304500Y-2944500D02*
X23304500Y-3024500D01*
X23264500Y-2984500D02*
X23344500Y-2984500D01*
X23304500Y-3198500D02*
X23304500Y-3278500D01*
X23264500Y-3238500D02*
X23344500Y-3238500D01*
X23304500Y-3452500D02*
X23304500Y-3532500D01*
X23264500Y-3492500D02*
X23344500Y-3492500D01*
X24066500Y-1674500D02*
X24066500Y-1754500D01*
X24026500Y-1714500D02*
X24106500Y-1714500D01*
X24066500Y-1928500D02*
X24066500Y-2008500D01*
X24026500Y-1968500D02*
X24106500Y-1968500D01*
X24066500Y-2182500D02*
X24066500Y-2262500D01*
X24026500Y-2222500D02*
X24106500Y-2222500D01*
X24066500Y-2436500D02*
X24066500Y-2516500D01*
X24026500Y-2476500D02*
X24106500Y-2476500D01*
X24066500Y-2690500D02*
X24066500Y-2770500D01*
X24026500Y-2730500D02*
X24106500Y-2730500D01*
X24066500Y-2944500D02*
X24066500Y-3024500D01*
X24026500Y-2984500D02*
X24106500Y-2984500D01*
X24066500Y-3198500D02*
X24066500Y-3278500D01*
X24026500Y-3238500D02*
X24106500Y-3238500D01*
X24066500Y-3452500D02*
X24066500Y-3532500D01*
X24026500Y-3492500D02*
X24106500Y-3492500D01*
X14986000Y-10247000D02*
X14986000Y-10327000D01*
X14946000Y-10287000D02*
X15026000Y-10287000D01*
X15240000Y-10247000D02*
X15240000Y-10327000D01*
X15200000Y-10287000D02*
X15280000Y-10287000D01*
X15494000Y-10247000D02*
X15494000Y-10327000D01*
X15454000Y-10287000D02*
X15534000Y-10287000D01*
X15748000Y-10247000D02*
X15748000Y-10327000D01*
X15708000Y-10287000D02*
X15788000Y-10287000D01*
X16002000Y-10247000D02*
X16002000Y-10327000D01*
X15962000Y-10287000D02*
X16042000Y-10287000D01*
X16256000Y-10247000D02*
X16256000Y-10327000D01*
X16216000Y-10287000D02*
X16296000Y-10287000D01*
X16510000Y-10247000D02*
X16510000Y-10327000D01*
X16470000Y-10287000D02*
X16550000Y-10287000D01*
X16764000Y-10247000D02*
X16764000Y-10327000D01*
X16724000Y-10287000D02*
X16804000Y-10287000D01*
X17018000Y-10247000D02*
X17018000Y-10327000D01*
X16978000Y-10287000D02*
X17058000Y-10287000D01*
X17272000Y-10247000D02*
X17272000Y-10327000D01*
X17232000Y-10287000D02*
X17312000Y-10287000D01*
X17526000Y-10247000D02*
X17526000Y-10327000D01*
X17486000Y-10287000D02*
X17566000Y-10287000D01*
X17907000Y-10247000D02*
X17907000Y-10327000D01*
X17867000Y-10287000D02*
X17947000Y-10287000D01*
X18161000Y-10247000D02*
X18161000Y-10327000D01*
X18121000Y-10287000D02*
X18201000Y-10287000D01*
X18415000Y-10247000D02*
X18415000Y-10327000D01*
X18375000Y-10287000D02*
X18455000Y-10287000D01*
X18669000Y-10247000D02*
X18669000Y-10327000D01*
X18629000Y-10287000D02*
X18709000Y-10287000D01*
X18923000Y-10247000D02*
X18923000Y-10327000D01*
X18883000Y-10287000D02*
X18963000Y-10287000D01*
X19177000Y-10247000D02*
X19177000Y-10327000D01*
X19137000Y-10287000D02*
X19217000Y-10287000D01*
X19431000Y-10247000D02*
X19431000Y-10327000D01*
X19391000Y-10287000D02*
X19471000Y-10287000D01*
X19685000Y-10247000D02*
X19685000Y-10327000D01*
X19645000Y-10287000D02*
X19725000Y-10287000D01*
X19939000Y-10247000D02*
X19939000Y-10327000D01*
X19899000Y-10287000D02*
X19979000Y-10287000D01*
X20193000Y-10247000D02*
X20193000Y-10327000D01*
X20153000Y-10287000D02*
X20233000Y-10287000D01*
X20447000Y-10247000D02*
X20447000Y-10327000D01*
X20407000Y-10287000D02*
X20487000Y-10287000D01*
X21907500Y-1674500D02*
X21907500Y-1754500D01*
X21867500Y-1714500D02*
X21947500Y-1714500D01*
X21907500Y-1928500D02*
X21907500Y-2008500D01*
X21867500Y-1968500D02*
X21947500Y-1968500D01*
X21907500Y-2182500D02*
X21907500Y-2262500D01*
X21867500Y-2222500D02*
X21947500Y-2222500D01*
X21907500Y-2436500D02*
X21907500Y-2516500D01*
X21867500Y-2476500D02*
X21947500Y-2476500D01*
X21907500Y-2690500D02*
X21907500Y-2770500D01*
X21867500Y-2730500D02*
X21947500Y-2730500D01*
X21907500Y-2944500D02*
X21907500Y-3024500D01*
X21867500Y-2984500D02*
X21947500Y-2984500D01*
X21907500Y-3198500D02*
X21907500Y-3278500D01*
X21867500Y-3238500D02*
X21947500Y-3238500D01*
X21907500Y-3452500D02*
X21907500Y-3532500D01*
X21867500Y-3492500D02*
X21947500Y-3492500D01*
X22669500Y-1674500D02*
X22669500Y-1754500D01*
X22629500Y-1714500D02*
X22709500Y-1714500D01*
X22669500Y-1928500D02*
X22669500Y-2008500D01*
X22629500Y-1968500D02*
X22709500Y-1968500D01*
X22669500Y-2182500D02*
X22669500Y-2262500D01*
X22629500Y-2222500D02*
X22709500Y-2222500D01*
X22669500Y-2436500D02*
X22669500Y-2516500D01*
X22629500Y-2476500D02*
X22709500Y-2476500D01*
X22669500Y-2690500D02*
X22669500Y-2770500D01*
X22629500Y-2730500D02*
X22709500Y-2730500D01*
X22669500Y-2944500D02*
X22669500Y-3024500D01*
X22629500Y-2984500D02*
X22709500Y-2984500D01*
X22669500Y-3198500D02*
X22669500Y-3278500D01*
X22629500Y-3238500D02*
X22709500Y-3238500D01*
X22669500Y-3452500D02*
X22669500Y-3532500D01*
X22629500Y-3492500D02*
X22709500Y-3492500D01*
X19685000Y-7834000D02*
X19685000Y-7914000D01*
X19645000Y-7874000D02*
X19725000Y-7874000D01*
X19685000Y-8596000D02*
X19685000Y-8676000D01*
X19645000Y-8636000D02*
X19725000Y-8636000D01*
X19939000Y-7834000D02*
X19939000Y-7914000D01*
X19899000Y-7874000D02*
X19979000Y-7874000D01*
X19939000Y-8596000D02*
X19939000Y-8676000D01*
X19899000Y-8636000D02*
X19979000Y-8636000D01*
X20193000Y-7834000D02*
X20193000Y-7914000D01*
X20153000Y-7874000D02*
X20233000Y-7874000D01*
X20193000Y-8596000D02*
X20193000Y-8676000D01*
X20153000Y-8636000D02*
X20233000Y-8636000D01*
X20447000Y-7834000D02*
X20447000Y-7914000D01*
X20407000Y-7874000D02*
X20487000Y-7874000D01*
X20447000Y-8596000D02*
X20447000Y-8676000D01*
X20407000Y-8636000D02*
X20487000Y-8636000D01*
X20701000Y-7834000D02*
X20701000Y-7914000D01*
X20661000Y-7874000D02*
X20741000Y-7874000D01*
X20701000Y-8596000D02*
X20701000Y-8676000D01*
X20661000Y-8636000D02*
X20741000Y-8636000D01*
X20955000Y-7834000D02*
X20955000Y-7914000D01*
X20915000Y-7874000D02*
X20995000Y-7874000D01*
X20955000Y-8596000D02*
X20955000Y-8676000D01*
X20915000Y-8636000D02*
X20995000Y-8636000D01*
X21209000Y-7834000D02*
X21209000Y-7914000D01*
X21169000Y-7874000D02*
X21249000Y-7874000D01*
X21209000Y-8596000D02*
X21209000Y-8676000D01*
X21169000Y-8636000D02*
X21249000Y-8636000D01*
X21463000Y-7834000D02*
X21463000Y-7914000D01*
X21423000Y-7874000D02*
X21503000Y-7874000D01*
X21463000Y-8596000D02*
X21463000Y-8676000D01*
X21423000Y-8636000D02*
X21503000Y-8636000D01*
X24193500Y-7834000D02*
X24193500Y-7914000D01*
X24153500Y-7874000D02*
X24233500Y-7874000D01*
X24193500Y-8596000D02*
X24193500Y-8676000D01*
X24153500Y-8636000D02*
X24233500Y-8636000D01*
X24447500Y-7834000D02*
X24447500Y-7914000D01*
X24407500Y-7874000D02*
X24487500Y-7874000D01*
X24447500Y-8596000D02*
X24447500Y-8676000D01*
X24407500Y-8636000D02*
X24487500Y-8636000D01*
X24701500Y-7834000D02*
X24701500Y-7914000D01*
X24661500Y-7874000D02*
X24741500Y-7874000D01*
X24701500Y-8596000D02*
X24701500Y-8676000D01*
X24661500Y-8636000D02*
X24741500Y-8636000D01*
X24955500Y-7834000D02*
X24955500Y-7914000D01*
X24915500Y-7874000D02*
X24995500Y-7874000D01*
X24955500Y-8596000D02*
X24955500Y-8676000D01*
X24915500Y-8636000D02*
X24995500Y-8636000D01*
X25209500Y-7834000D02*
X25209500Y-7914000D01*
X25169500Y-7874000D02*
X25249500Y-7874000D01*
X25209500Y-8596000D02*
X25209500Y-8676000D01*
X25169500Y-8636000D02*
X25249500Y-8636000D01*
X25463500Y-7834000D02*
X25463500Y-7914000D01*
X25423500Y-7874000D02*
X25503500Y-7874000D01*
X25463500Y-8596000D02*
X25463500Y-8676000D01*
X25423500Y-8636000D02*
X25503500Y-8636000D01*
X25717500Y-7834000D02*
X25717500Y-7914000D01*
X25677500Y-7874000D02*
X25757500Y-7874000D01*
X25717500Y-8596000D02*
X25717500Y-8676000D01*
X25677500Y-8636000D02*
X25757500Y-8636000D01*
X25971500Y-7834000D02*
X25971500Y-7914000D01*
X25931500Y-7874000D02*
X26011500Y-7874000D01*
X25971500Y-8596000D02*
X25971500Y-8676000D01*
X25931500Y-8636000D02*
X26011500Y-8636000D01*
X26225500Y-1674500D02*
X26225500Y-1754500D01*
X26185500Y-1714500D02*
X26265500Y-1714500D01*
X26225500Y-1928500D02*
X26225500Y-2008500D01*
X26185500Y-1968500D02*
X26265500Y-1968500D01*
X26225500Y-2182500D02*
X26225500Y-2262500D01*
X26185500Y-2222500D02*
X26265500Y-2222500D01*
X26225500Y-2436500D02*
X26225500Y-2516500D01*
X26185500Y-2476500D02*
X26265500Y-2476500D01*
X26225500Y-2690500D02*
X26225500Y-2770500D01*
X26185500Y-2730500D02*
X26265500Y-2730500D01*
X26225500Y-2944500D02*
X26225500Y-3024500D01*
X26185500Y-2984500D02*
X26265500Y-2984500D01*
X26225500Y-3198500D02*
X26225500Y-3278500D01*
X26185500Y-3238500D02*
X26265500Y-3238500D01*
X26225500Y-3452500D02*
X26225500Y-3532500D01*
X26185500Y-3492500D02*
X26265500Y-3492500D01*
X26987500Y-1674500D02*
X26987500Y-1754500D01*
X26947500Y-1714500D02*
X27027500Y-1714500D01*
X26987500Y-1928500D02*
X26987500Y-2008500D01*
X26947500Y-1968500D02*
X27027500Y-1968500D01*
X26987500Y-2182500D02*
X26987500Y-2262500D01*
X26947500Y-2222500D02*
X27027500Y-2222500D01*
X26987500Y-2436500D02*
X26987500Y-2516500D01*
X26947500Y-2476500D02*
X27027500Y-2476500D01*
X26987500Y-2690500D02*
X26987500Y-2770500D01*
X26947500Y-2730500D02*
X27027500Y-2730500D01*
X26987500Y-2944500D02*
X26987500Y-3024500D01*
X26947500Y-2984500D02*
X27027500Y-2984500D01*
X26987500Y-3198500D02*
X26987500Y-3278500D01*
X26947500Y-3238500D02*
X27027500Y-3238500D01*
X26987500Y-3452500D02*
X26987500Y-3532500D01*
X26947500Y-3492500D02*
X27027500Y-3492500D01*
X15176500Y-7834000D02*
X15176500Y-7914000D01*
X15136500Y-7874000D02*
X15216500Y-7874000D01*
X15176500Y-8596000D02*
X15176500Y-8676000D01*
X15136500Y-8636000D02*
X15216500Y-8636000D01*
X15430500Y-7834000D02*
X15430500Y-7914000D01*
X15390500Y-7874000D02*
X15470500Y-7874000D01*
X15430500Y-8596000D02*
X15430500Y-8676000D01*
X15390500Y-8636000D02*
X15470500Y-8636000D01*
X15684500Y-7834000D02*
X15684500Y-7914000D01*
X15644500Y-7874000D02*
X15724500Y-7874000D01*
X15684500Y-8596000D02*
X15684500Y-8676000D01*
X15644500Y-8636000D02*
X15724500Y-8636000D01*
X15938500Y-7834000D02*
X15938500Y-7914000D01*
X15898500Y-7874000D02*
X15978500Y-7874000D01*
X15938500Y-8596000D02*
X15938500Y-8676000D01*
X15898500Y-8636000D02*
X15978500Y-8636000D01*
X16192500Y-7834000D02*
X16192500Y-7914000D01*
X16152500Y-7874000D02*
X16232500Y-7874000D01*
X16192500Y-8596000D02*
X16192500Y-8676000D01*
X16152500Y-8636000D02*
X16232500Y-8636000D01*
X16446500Y-7834000D02*
X16446500Y-7914000D01*
X16406500Y-7874000D02*
X16486500Y-7874000D01*
X16446500Y-8596000D02*
X16446500Y-8676000D01*
X16406500Y-8636000D02*
X16486500Y-8636000D01*
X16700500Y-7834000D02*
X16700500Y-7914000D01*
X16660500Y-7874000D02*
X16740500Y-7874000D01*
X16700500Y-8596000D02*
X16700500Y-8676000D01*
X16660500Y-8636000D02*
X16740500Y-8636000D01*
X16954500Y-7834000D02*
X16954500Y-7914000D01*
X16914500Y-7874000D02*
X16994500Y-7874000D01*
X16954500Y-8596000D02*
X16954500Y-8676000D01*
X16914500Y-8636000D02*
X16994500Y-8636000D01*
X19050000Y-1674500D02*
X19050000Y-1754500D01*
X19010000Y-1714500D02*
X19090000Y-1714500D01*
X19050000Y-1928500D02*
X19050000Y-2008500D01*
X19010000Y-1968500D02*
X19090000Y-1968500D01*
X19050000Y-2182500D02*
X19050000Y-2262500D01*
X19010000Y-2222500D02*
X19090000Y-2222500D01*
X19050000Y-2436500D02*
X19050000Y-2516500D01*
X19010000Y-2476500D02*
X19090000Y-2476500D01*
X19050000Y-2690500D02*
X19050000Y-2770500D01*
X19010000Y-2730500D02*
X19090000Y-2730500D01*
X19050000Y-2944500D02*
X19050000Y-3024500D01*
X19010000Y-2984500D02*
X19090000Y-2984500D01*
X19050000Y-3198500D02*
X19050000Y-3278500D01*
X19010000Y-3238500D02*
X19090000Y-3238500D01*
X19050000Y-3452500D02*
X19050000Y-3532500D01*
X19010000Y-3492500D02*
X19090000Y-3492500D01*
X19812000Y-1674500D02*
X19812000Y-1754500D01*
X19772000Y-1714500D02*
X19852000Y-1714500D01*
X19812000Y-1928500D02*
X19812000Y-2008500D01*
X19772000Y-1968500D02*
X19852000Y-1968500D01*
X19812000Y-2182500D02*
X19812000Y-2262500D01*
X19772000Y-2222500D02*
X19852000Y-2222500D01*
X19812000Y-2436500D02*
X19812000Y-2516500D01*
X19772000Y-2476500D02*
X19852000Y-2476500D01*
X19812000Y-2690500D02*
X19812000Y-2770500D01*
X19772000Y-2730500D02*
X19852000Y-2730500D01*
X19812000Y-2944500D02*
X19812000Y-3024500D01*
X19772000Y-2984500D02*
X19852000Y-2984500D01*
X19812000Y-3198500D02*
X19812000Y-3278500D01*
X19772000Y-3238500D02*
X19852000Y-3238500D01*
X19812000Y-3452500D02*
X19812000Y-3532500D01*
X19772000Y-3492500D02*
X19852000Y-3492500D01*
X21907500Y-7834000D02*
X21907500Y-7914000D01*
X21867500Y-7874000D02*
X21947500Y-7874000D01*
X21907500Y-8596000D02*
X21907500Y-8676000D01*
X21867500Y-8636000D02*
X21947500Y-8636000D01*
X22161500Y-7834000D02*
X22161500Y-7914000D01*
X22121500Y-7874000D02*
X22201500Y-7874000D01*
X22161500Y-8596000D02*
X22161500Y-8676000D01*
X22121500Y-8636000D02*
X22201500Y-8636000D01*
X22415500Y-7834000D02*
X22415500Y-7914000D01*
X22375500Y-7874000D02*
X22455500Y-7874000D01*
X22415500Y-8596000D02*
X22415500Y-8676000D01*
X22375500Y-8636000D02*
X22455500Y-8636000D01*
X22669500Y-7834000D02*
X22669500Y-7914000D01*
X22629500Y-7874000D02*
X22709500Y-7874000D01*
X22669500Y-8596000D02*
X22669500Y-8676000D01*
X22629500Y-8636000D02*
X22709500Y-8636000D01*
X22923500Y-7834000D02*
X22923500Y-7914000D01*
X22883500Y-7874000D02*
X22963500Y-7874000D01*
X22923500Y-8596000D02*
X22923500Y-8676000D01*
X22883500Y-8636000D02*
X22963500Y-8636000D01*
X23177500Y-7834000D02*
X23177500Y-7914000D01*
X23137500Y-7874000D02*
X23217500Y-7874000D01*
X23177500Y-8596000D02*
X23177500Y-8676000D01*
X23137500Y-8636000D02*
X23217500Y-8636000D01*
X23431500Y-7834000D02*
X23431500Y-7914000D01*
X23391500Y-7874000D02*
X23471500Y-7874000D01*
X23431500Y-8596000D02*
X23431500Y-8676000D01*
X23391500Y-8636000D02*
X23471500Y-8636000D01*
X23685500Y-7834000D02*
X23685500Y-7914000D01*
X23645500Y-7874000D02*
X23725500Y-7874000D01*
X23685500Y-8596000D02*
X23685500Y-8676000D01*
X23645500Y-8636000D02*
X23725500Y-8636000D01*
X27403856Y-7972856D02*
X27403856Y-7902144D01*
X27333144Y-7902144D01*
X27333144Y-7972856D01*
X27403856Y-7972856D01*
X27403856Y-8734856D02*
X27403856Y-8664144D01*
X27333144Y-8664144D01*
X27333144Y-8734856D01*
X27403856Y-8734856D01*
X27657856Y-7972856D02*
X27657856Y-7902144D01*
X27587144Y-7902144D01*
X27587144Y-7972856D01*
X27657856Y-7972856D01*
X27657856Y-8734856D02*
X27657856Y-8664144D01*
X27587144Y-8664144D01*
X27587144Y-8734856D01*
X27657856Y-8734856D01*
X27911856Y-7972856D02*
X27911856Y-7902144D01*
X27841144Y-7902144D01*
X27841144Y-7972856D01*
X27911856Y-7972856D01*
X27911856Y-8734856D02*
X27911856Y-8664144D01*
X27841144Y-8664144D01*
X27841144Y-8734856D01*
X27911856Y-8734856D01*
X28165856Y-7972856D02*
X28165856Y-7902144D01*
X28095144Y-7902144D01*
X28095144Y-7972856D01*
X28165856Y-7972856D01*
X28165856Y-8734856D02*
X28165856Y-8664144D01*
X28095144Y-8664144D01*
X28095144Y-8734856D01*
X28165856Y-8734856D01*
X13751356Y-7020356D02*
X13751356Y-6949644D01*
X13680644Y-6949644D01*
X13680644Y-7020356D01*
X13751356Y-7020356D01*
X13751356Y-7274356D02*
X13751356Y-7203644D01*
X13680644Y-7203644D01*
X13680644Y-7274356D01*
X13751356Y-7274356D01*
X13751356Y-8417356D02*
X13751356Y-8346644D01*
X13680644Y-8346644D01*
X13680644Y-8417356D01*
X13751356Y-8417356D01*
X13751356Y-8671356D02*
X13751356Y-8600644D01*
X13680644Y-8600644D01*
X13680644Y-8671356D01*
X13751356Y-8671356D01*
X13751356Y-8925356D02*
X13751356Y-8854644D01*
X13680644Y-8854644D01*
X13680644Y-8925356D01*
X13751356Y-8925356D01*
X14005356Y-8417356D02*
X14005356Y-8346644D01*
X13934644Y-8346644D01*
X13934644Y-8417356D01*
X14005356Y-8417356D01*
X14005356Y-8671356D02*
X14005356Y-8600644D01*
X13934644Y-8600644D01*
X13934644Y-8671356D01*
X14005356Y-8671356D01*
X14005356Y-8925356D02*
X14005356Y-8854644D01*
X13934644Y-8854644D01*
X13934644Y-8925356D01*
X14005356Y-8925356D01*
X14797000Y-4500000D02*
X14857000Y-4440000D01*
X14797000Y-4380000D01*
X14737000Y-4440000D01*
X14797000Y-4500000D01*
X14797000Y-7050000D02*
X14857000Y-6990000D01*
X14797000Y-6930000D01*
X14737000Y-6990000D01*
X14797000Y-7050000D01*
X14927000Y-4270000D02*
X14987000Y-4210000D01*
X14927000Y-4150000D01*
X14867000Y-4210000D01*
X14927000Y-4270000D01*
X14927000Y-7280000D02*
X14987000Y-7220000D01*
X14927000Y-7160000D01*
X14867000Y-7220000D01*
X14927000Y-7280000D01*
X15057000Y-4500000D02*
X15117000Y-4440000D01*
X15057000Y-4380000D01*
X14997000Y-4440000D01*
X15057000Y-4500000D01*
X15057000Y-7050000D02*
X15117000Y-6990000D01*
X15057000Y-6930000D01*
X14997000Y-6990000D01*
X15057000Y-7050000D01*
X15187000Y-4270000D02*
X15247000Y-4210000D01*
X15187000Y-4150000D01*
X15127000Y-4210000D01*
X15187000Y-4270000D01*
X15187000Y-7280000D02*
X15247000Y-7220000D01*
X15187000Y-7160000D01*
X15127000Y-7220000D01*
X15187000Y-7280000D01*
X15317000Y-4500000D02*
X15377000Y-4440000D01*
X15317000Y-4380000D01*
X15257000Y-4440000D01*
X15317000Y-4500000D01*
X15317000Y-7050000D02*
X15377000Y-6990000D01*
X15317000Y-6930000D01*
X15257000Y-6990000D01*
X15317000Y-7050000D01*
X17957000Y-4500000D02*
X18017000Y-4440000D01*
X17957000Y-4380000D01*
X17897000Y-4440000D01*
X17957000Y-4500000D01*
X17957000Y-7050000D02*
X18017000Y-6990000D01*
X17957000Y-6930000D01*
X17897000Y-6990000D01*
X17957000Y-7050000D01*
X18087000Y-4270000D02*
X18147000Y-4210000D01*
X18087000Y-4150000D01*
X18027000Y-4210000D01*
X18087000Y-4270000D01*
X18087000Y-7280000D02*
X18147000Y-7220000D01*
X18087000Y-7160000D01*
X18027000Y-7220000D01*
X18087000Y-7280000D01*
X18217000Y-4500000D02*
X18277000Y-4440000D01*
X18217000Y-4380000D01*
X18157000Y-4440000D01*
X18217000Y-4500000D01*
X18217000Y-7050000D02*
X18277000Y-6990000D01*
X18217000Y-6930000D01*
X18157000Y-6990000D01*
X18217000Y-7050000D01*
X18347000Y-4270000D02*
X18407000Y-4210000D01*
X18347000Y-4150000D01*
X18287000Y-4210000D01*
X18347000Y-4270000D01*
X18347000Y-7280000D02*
X18407000Y-7220000D01*
X18347000Y-7160000D01*
X18287000Y-7220000D01*
X18347000Y-7280000D01*
X18477000Y-4500000D02*
X18537000Y-4440000D01*
X18477000Y-4380000D01*
X18417000Y-4440000D01*
X18477000Y-4500000D01*
X18477000Y-7050000D02*
X18537000Y-6990000D01*
X18477000Y-6930000D01*
X18417000Y-6990000D01*
X18477000Y-7050000D01*
X23306000Y-4500000D02*
X23366000Y-4440000D01*
X23306000Y-4380000D01*
X23246000Y-4440000D01*
X23306000Y-4500000D01*
X23306000Y-7050000D02*
X23366000Y-6990000D01*
X23306000Y-6930000D01*
X23246000Y-6990000D01*
X23306000Y-7050000D01*
X23436000Y-4270000D02*
X23496000Y-4210000D01*
X23436000Y-4150000D01*
X23376000Y-4210000D01*
X23436000Y-4270000D01*
X23436000Y-7280000D02*
X23496000Y-7220000D01*
X23436000Y-7160000D01*
X23376000Y-7220000D01*
X23436000Y-7280000D01*
X23566000Y-4500000D02*
X23626000Y-4440000D01*
X23566000Y-4380000D01*
X23506000Y-4440000D01*
X23566000Y-4500000D01*
X23566000Y-7050000D02*
X23626000Y-6990000D01*
X23566000Y-6930000D01*
X23506000Y-6990000D01*
X23566000Y-7050000D01*
X23696000Y-4270000D02*
X23756000Y-4210000D01*
X23696000Y-4150000D01*
X23636000Y-4210000D01*
X23696000Y-4270000D01*
X23696000Y-7280000D02*
X23756000Y-7220000D01*
X23696000Y-7160000D01*
X23636000Y-7220000D01*
X23696000Y-7280000D01*
X23826000Y-4500000D02*
X23886000Y-4440000D01*
X23826000Y-4380000D01*
X23766000Y-4440000D01*
X23826000Y-4500000D01*
X23826000Y-7050000D02*
X23886000Y-6990000D01*
X23826000Y-6930000D01*
X23766000Y-6990000D01*
X23826000Y-7050000D01*
X26466000Y-4500000D02*
X26526000Y-4440000D01*
X26466000Y-4380000D01*
X26406000Y-4440000D01*
X26466000Y-4500000D01*
X26466000Y-7050000D02*
X26526000Y-6990000D01*
X26466000Y-6930000D01*
X26406000Y-6990000D01*
X26466000Y-7050000D01*
X26596000Y-4270000D02*
X26656000Y-4210000D01*
X26596000Y-4150000D01*
X26536000Y-4210000D01*
X26596000Y-4270000D01*
X26596000Y-7280000D02*
X26656000Y-7220000D01*
X26596000Y-7160000D01*
X26536000Y-7220000D01*
X26596000Y-7280000D01*
X26726000Y-4500000D02*
X26786000Y-4440000D01*
X26726000Y-4380000D01*
X26666000Y-4440000D01*
X26726000Y-4500000D01*
X26726000Y-7050000D02*
X26786000Y-6990000D01*
X26726000Y-6930000D01*
X26666000Y-6990000D01*
X26726000Y-7050000D01*
X26856000Y-4270000D02*
X26916000Y-4210000D01*
X26856000Y-4150000D01*
X26796000Y-4210000D01*
X26856000Y-4270000D01*
X26856000Y-7280000D02*
X26916000Y-7220000D01*
X26856000Y-7160000D01*
X26796000Y-7220000D01*
X26856000Y-7280000D01*
X26986000Y-4500000D02*
X27046000Y-4440000D01*
X26986000Y-4380000D01*
X26926000Y-4440000D01*
X26986000Y-4500000D01*
X26986000Y-7050000D02*
X27046000Y-6990000D01*
X26986000Y-6930000D01*
X26926000Y-6990000D01*
X26986000Y-7050000D01*
X19051500Y-4500000D02*
X19111500Y-4440000D01*
X19051500Y-4380000D01*
X18991500Y-4440000D01*
X19051500Y-4500000D01*
X19051500Y-7050000D02*
X19111500Y-6990000D01*
X19051500Y-6930000D01*
X18991500Y-6990000D01*
X19051500Y-7050000D01*
X19181500Y-4270000D02*
X19241500Y-4210000D01*
X19181500Y-4150000D01*
X19121500Y-4210000D01*
X19181500Y-4270000D01*
X19181500Y-7280000D02*
X19241500Y-7220000D01*
X19181500Y-7160000D01*
X19121500Y-7220000D01*
X19181500Y-7280000D01*
X19311500Y-4500000D02*
X19371500Y-4440000D01*
X19311500Y-4380000D01*
X19251500Y-4440000D01*
X19311500Y-4500000D01*
X19311500Y-7050000D02*
X19371500Y-6990000D01*
X19311500Y-6930000D01*
X19251500Y-6990000D01*
X19311500Y-7050000D01*
X19441500Y-4270000D02*
X19501500Y-4210000D01*
X19441500Y-4150000D01*
X19381500Y-4210000D01*
X19441500Y-4270000D01*
X19441500Y-7280000D02*
X19501500Y-7220000D01*
X19441500Y-7160000D01*
X19381500Y-7220000D01*
X19441500Y-7280000D01*
X19571500Y-4500000D02*
X19631500Y-4440000D01*
X19571500Y-4380000D01*
X19511500Y-4440000D01*
X19571500Y-4500000D01*
X19571500Y-7050000D02*
X19631500Y-6990000D01*
X19571500Y-6930000D01*
X19511500Y-6990000D01*
X19571500Y-7050000D01*
X22211500Y-4500000D02*
X22271500Y-4440000D01*
X22211500Y-4380000D01*
X22151500Y-4440000D01*
X22211500Y-4500000D01*
X22211500Y-7050000D02*
X22271500Y-6990000D01*
X22211500Y-6930000D01*
X22151500Y-6990000D01*
X22211500Y-7050000D01*
X22341500Y-4270000D02*
X22401500Y-4210000D01*
X22341500Y-4150000D01*
X22281500Y-4210000D01*
X22341500Y-4270000D01*
X22341500Y-7280000D02*
X22401500Y-7220000D01*
X22341500Y-7160000D01*
X22281500Y-7220000D01*
X22341500Y-7280000D01*
X22471500Y-4500000D02*
X22531500Y-4440000D01*
X22471500Y-4380000D01*
X22411500Y-4440000D01*
X22471500Y-4500000D01*
X22471500Y-7050000D02*
X22531500Y-6990000D01*
X22471500Y-6930000D01*
X22411500Y-6990000D01*
X22471500Y-7050000D01*
X22601500Y-4270000D02*
X22661500Y-4210000D01*
X22601500Y-4150000D01*
X22541500Y-4210000D01*
X22601500Y-4270000D01*
X22601500Y-7280000D02*
X22661500Y-7220000D01*
X22601500Y-7160000D01*
X22541500Y-7220000D01*
X22601500Y-7280000D01*
X22731500Y-4500000D02*
X22791500Y-4440000D01*
X22731500Y-4380000D01*
X22671500Y-4440000D01*
X22731500Y-4500000D01*
X22731500Y-7050000D02*
X22791500Y-6990000D01*
X22731500Y-6930000D01*
X22671500Y-6990000D01*
X22731500Y-7050000D01*
D12*
X13618928Y-11263214D02*
X13618928Y-10963214D01*
X13690357Y-10963214D01*
X13733214Y-10977500D01*
X13761786Y-11006072D01*
X13776071Y-11034643D01*
X13790357Y-11091786D01*
X13790357Y-11134643D01*
X13776071Y-11191786D01*
X13761786Y-11220357D01*
X13733214Y-11248929D01*
X13690357Y-11263214D01*
X13618928Y-11263214D01*
X13918928Y-11263214D02*
X13918928Y-11063214D01*
X13918928Y-11120357D02*
X13933214Y-11091786D01*
X13947500Y-11077500D01*
X13976071Y-11063214D01*
X14004643Y-11063214D01*
X14104643Y-11263214D02*
X14104643Y-11063214D01*
X14104643Y-10963214D02*
X14090357Y-10977500D01*
X14104643Y-10991786D01*
X14118928Y-10977500D01*
X14104643Y-10963214D01*
X14104643Y-10991786D01*
X14290357Y-11263214D02*
X14261786Y-11248929D01*
X14247500Y-11220357D01*
X14247500Y-10963214D01*
X14447500Y-11263214D02*
X14418928Y-11248929D01*
X14404643Y-11220357D01*
X14404643Y-10963214D01*
X14790357Y-11263214D02*
X14790357Y-10963214D01*
X14890357Y-11177500D01*
X14990357Y-10963214D01*
X14990357Y-11263214D01*
X15261786Y-11263214D02*
X15261786Y-11106072D01*
X15247500Y-11077500D01*
X15218928Y-11063214D01*
X15161786Y-11063214D01*
X15133214Y-11077500D01*
X15261786Y-11248929D02*
X15233214Y-11263214D01*
X15161786Y-11263214D01*
X15133214Y-11248929D01*
X15118928Y-11220357D01*
X15118928Y-11191786D01*
X15133214Y-11163214D01*
X15161786Y-11148929D01*
X15233214Y-11148929D01*
X15261786Y-11134643D01*
X15404643Y-11063214D02*
X15404643Y-11363214D01*
X15404643Y-11077500D02*
X15433214Y-11063214D01*
X15490357Y-11063214D01*
X15518928Y-11077500D01*
X15533214Y-11091786D01*
X15547500Y-11120357D01*
X15547500Y-11206071D01*
X15533214Y-11234643D01*
X15518928Y-11248929D01*
X15490357Y-11263214D01*
X15433214Y-11263214D01*
X15404643Y-11248929D01*
X15676071Y-11234643D02*
X15690357Y-11248929D01*
X15676071Y-11263214D01*
X15661786Y-11248929D01*
X15676071Y-11234643D01*
X15676071Y-11263214D01*
X15676071Y-11077500D02*
X15690357Y-11091786D01*
X15676071Y-11106072D01*
X15661786Y-11091786D01*
X15676071Y-11077500D01*
X15676071Y-11106072D01*
X13307100Y-11744800D02*
X13332500Y-11770200D01*
X13332500Y-11744800D02*
X13307100Y-11770200D01*
X13676071Y-11593214D02*
X13704643Y-11593214D01*
X13733214Y-11607500D01*
X13747500Y-11621786D01*
X13761786Y-11650357D01*
X13776071Y-11707500D01*
X13776071Y-11778929D01*
X13761786Y-11836071D01*
X13747500Y-11864643D01*
X13733214Y-11878929D01*
X13704643Y-11893214D01*
X13676071Y-11893214D01*
X13647500Y-11878929D01*
X13633214Y-11864643D01*
X13618928Y-11836071D01*
X13604643Y-11778929D01*
X13604643Y-11707500D01*
X13618928Y-11650357D01*
X13633214Y-11621786D01*
X13647500Y-11607500D01*
X13676071Y-11593214D01*
X13904643Y-11864643D02*
X13918928Y-11878929D01*
X13904643Y-11893214D01*
X13890357Y-11878929D01*
X13904643Y-11864643D01*
X13904643Y-11893214D01*
X14033214Y-11621786D02*
X14047500Y-11607500D01*
X14076071Y-11593214D01*
X14147500Y-11593214D01*
X14176071Y-11607500D01*
X14190357Y-11621786D01*
X14204643Y-11650357D01*
X14204643Y-11678929D01*
X14190357Y-11721786D01*
X14018928Y-11893214D01*
X14204643Y-11893214D01*
X14476071Y-11593214D02*
X14333214Y-11593214D01*
X14318928Y-11736071D01*
X14333214Y-11721786D01*
X14361786Y-11707500D01*
X14433214Y-11707500D01*
X14461786Y-11721786D01*
X14476071Y-11736071D01*
X14490357Y-11764643D01*
X14490357Y-11836071D01*
X14476071Y-11864643D01*
X14461786Y-11878929D01*
X14433214Y-11893214D01*
X14361786Y-11893214D01*
X14333214Y-11878929D01*
X14318928Y-11864643D01*
X14618928Y-11893214D02*
X14618928Y-11693214D01*
X14618928Y-11721786D02*
X14633214Y-11707500D01*
X14661786Y-11693214D01*
X14704643Y-11693214D01*
X14733214Y-11707500D01*
X14747500Y-11736071D01*
X14747500Y-11893214D01*
X14747500Y-11736071D02*
X14761786Y-11707500D01*
X14790357Y-11693214D01*
X14833214Y-11693214D01*
X14861786Y-11707500D01*
X14876071Y-11736071D01*
X14876071Y-11893214D01*
X15018928Y-11893214D02*
X15018928Y-11693214D01*
X15018928Y-11721786D02*
X15033214Y-11707500D01*
X15061786Y-11693214D01*
X15104643Y-11693214D01*
X15133214Y-11707500D01*
X15147500Y-11736071D01*
X15147500Y-11893214D01*
X15147500Y-11736071D02*
X15161786Y-11707500D01*
X15190357Y-11693214D01*
X15233214Y-11693214D01*
X15261786Y-11707500D01*
X15276071Y-11736071D01*
X15276071Y-11893214D01*
X15861786Y-11578929D02*
X15604643Y-11964643D01*
X16247500Y-11593214D02*
X16276071Y-11593214D01*
X16304643Y-11607500D01*
X16318928Y-11621786D01*
X16333214Y-11650357D01*
X16347500Y-11707500D01*
X16347500Y-11778929D01*
X16333214Y-11836071D01*
X16318928Y-11864643D01*
X16304643Y-11878929D01*
X16276071Y-11893214D01*
X16247500Y-11893214D01*
X16218928Y-11878929D01*
X16204643Y-11864643D01*
X16190357Y-11836071D01*
X16176071Y-11778929D01*
X16176071Y-11707500D01*
X16190357Y-11650357D01*
X16204643Y-11621786D01*
X16218928Y-11607500D01*
X16247500Y-11593214D01*
X16476071Y-11864643D02*
X16490357Y-11878929D01*
X16476071Y-11893214D01*
X16461786Y-11878929D01*
X16476071Y-11864643D01*
X16476071Y-11893214D01*
X16676071Y-11593214D02*
X16704643Y-11593214D01*
X16733214Y-11607500D01*
X16747500Y-11621786D01*
X16761786Y-11650357D01*
X16776071Y-11707500D01*
X16776071Y-11778929D01*
X16761786Y-11836071D01*
X16747500Y-11864643D01*
X16733214Y-11878929D01*
X16704643Y-11893214D01*
X16676071Y-11893214D01*
X16647500Y-11878929D01*
X16633214Y-11864643D01*
X16618928Y-11836071D01*
X16604643Y-11778929D01*
X16604643Y-11707500D01*
X16618928Y-11650357D01*
X16633214Y-11621786D01*
X16647500Y-11607500D01*
X16676071Y-11593214D01*
X17061786Y-11893214D02*
X16890357Y-11893214D01*
X16976071Y-11893214D02*
X16976071Y-11593214D01*
X16947500Y-11636071D01*
X16918928Y-11664643D01*
X16890357Y-11678929D01*
X17247500Y-11593214D02*
X17276071Y-11593214D01*
X17304643Y-11607500D01*
X17318928Y-11621786D01*
X17333214Y-11650357D01*
X17347500Y-11707500D01*
X17347500Y-11778929D01*
X17333214Y-11836071D01*
X17318928Y-11864643D01*
X17304643Y-11878929D01*
X17276071Y-11893214D01*
X17247500Y-11893214D01*
X17218928Y-11878929D01*
X17204643Y-11864643D01*
X17190357Y-11836071D01*
X17176071Y-11778929D01*
X17176071Y-11707500D01*
X17190357Y-11650357D01*
X17204643Y-11621786D01*
X17218928Y-11607500D01*
X17247500Y-11593214D01*
X17461786Y-11593214D02*
X17461786Y-11650357D01*
X17576071Y-11593214D02*
X17576071Y-11650357D01*
X18018928Y-12007500D02*
X18004643Y-11993214D01*
X17976071Y-11950357D01*
X17961786Y-11921786D01*
X17947500Y-11878929D01*
X17933214Y-11807500D01*
X17933214Y-11750357D01*
X17947500Y-11678929D01*
X17961786Y-11636071D01*
X17976071Y-11607500D01*
X18004643Y-11564643D01*
X18018928Y-11550357D01*
X18261786Y-11693214D02*
X18261786Y-11893214D01*
X18190357Y-11578929D02*
X18118928Y-11793214D01*
X18304643Y-11793214D01*
X18547500Y-11593214D02*
X18490357Y-11593214D01*
X18461786Y-11607500D01*
X18447500Y-11621786D01*
X18418928Y-11664643D01*
X18404643Y-11721786D01*
X18404643Y-11836071D01*
X18418928Y-11864643D01*
X18433214Y-11878929D01*
X18461786Y-11893214D01*
X18518928Y-11893214D01*
X18547500Y-11878929D01*
X18561786Y-11864643D01*
X18576071Y-11836071D01*
X18576071Y-11764643D01*
X18561786Y-11736071D01*
X18547500Y-11721786D01*
X18518928Y-11707500D01*
X18461786Y-11707500D01*
X18433214Y-11721786D01*
X18418928Y-11736071D01*
X18404643Y-11764643D01*
X18933214Y-11893214D02*
X18933214Y-11593214D01*
X19061786Y-11893214D02*
X19061786Y-11736071D01*
X19047500Y-11707500D01*
X19018928Y-11693214D01*
X18976071Y-11693214D01*
X18947500Y-11707500D01*
X18933214Y-11721786D01*
X19247500Y-11893214D02*
X19218928Y-11878929D01*
X19204643Y-11864643D01*
X19190357Y-11836071D01*
X19190357Y-11750357D01*
X19204643Y-11721786D01*
X19218928Y-11707500D01*
X19247500Y-11693214D01*
X19290357Y-11693214D01*
X19318928Y-11707500D01*
X19333214Y-11721786D01*
X19347500Y-11750357D01*
X19347500Y-11836071D01*
X19333214Y-11864643D01*
X19318928Y-11878929D01*
X19290357Y-11893214D01*
X19247500Y-11893214D01*
X19518928Y-11893214D02*
X19490357Y-11878929D01*
X19476071Y-11850357D01*
X19476071Y-11593214D01*
X19747500Y-11878929D02*
X19718928Y-11893214D01*
X19661786Y-11893214D01*
X19633214Y-11878929D01*
X19618928Y-11850357D01*
X19618928Y-11736071D01*
X19633214Y-11707500D01*
X19661786Y-11693214D01*
X19718928Y-11693214D01*
X19747500Y-11707500D01*
X19761786Y-11736071D01*
X19761786Y-11764643D01*
X19618928Y-11793214D01*
X19876071Y-11878929D02*
X19904643Y-11893214D01*
X19961786Y-11893214D01*
X19990357Y-11878929D01*
X20004643Y-11850357D01*
X20004643Y-11836071D01*
X19990357Y-11807500D01*
X19961786Y-11793214D01*
X19918928Y-11793214D01*
X19890357Y-11778929D01*
X19876071Y-11750357D01*
X19876071Y-11736071D01*
X19890357Y-11707500D01*
X19918928Y-11693214D01*
X19961786Y-11693214D01*
X19990357Y-11707500D01*
X20104643Y-12007500D02*
X20118928Y-11993214D01*
X20147500Y-11950357D01*
X20161786Y-11921786D01*
X20176071Y-11878929D01*
X20190357Y-11807500D01*
X20190357Y-11750357D01*
X20176071Y-11678929D01*
X20161786Y-11636071D01*
X20147500Y-11607500D01*
X20118928Y-11564643D01*
X20104643Y-11550357D01*
X13332500Y-12153500D02*
G75*
G03*
X13332500Y-12153500I-35000J0D01*
G01*
X13676071Y-11989214D02*
X13704643Y-11989214D01*
X13733214Y-12003500D01*
X13747500Y-12017786D01*
X13761786Y-12046357D01*
X13776071Y-12103500D01*
X13776071Y-12174929D01*
X13761786Y-12232071D01*
X13747500Y-12260643D01*
X13733214Y-12274929D01*
X13704643Y-12289214D01*
X13676071Y-12289214D01*
X13647500Y-12274929D01*
X13633214Y-12260643D01*
X13618928Y-12232071D01*
X13604643Y-12174929D01*
X13604643Y-12103500D01*
X13618928Y-12046357D01*
X13633214Y-12017786D01*
X13647500Y-12003500D01*
X13676071Y-11989214D01*
X13904643Y-12260643D02*
X13918928Y-12274929D01*
X13904643Y-12289214D01*
X13890357Y-12274929D01*
X13904643Y-12260643D01*
X13904643Y-12289214D01*
X14018928Y-11989214D02*
X14218928Y-11989214D01*
X14090357Y-12289214D01*
X14390357Y-11989214D02*
X14418928Y-11989214D01*
X14447500Y-12003500D01*
X14461786Y-12017786D01*
X14476071Y-12046357D01*
X14490357Y-12103500D01*
X14490357Y-12174929D01*
X14476071Y-12232071D01*
X14461786Y-12260643D01*
X14447500Y-12274929D01*
X14418928Y-12289214D01*
X14390357Y-12289214D01*
X14361786Y-12274929D01*
X14347500Y-12260643D01*
X14333214Y-12232071D01*
X14318928Y-12174929D01*
X14318928Y-12103500D01*
X14333214Y-12046357D01*
X14347500Y-12017786D01*
X14361786Y-12003500D01*
X14390357Y-11989214D01*
X14618928Y-12289214D02*
X14618928Y-12089214D01*
X14618928Y-12117786D02*
X14633214Y-12103500D01*
X14661786Y-12089214D01*
X14704643Y-12089214D01*
X14733214Y-12103500D01*
X14747500Y-12132071D01*
X14747500Y-12289214D01*
X14747500Y-12132071D02*
X14761786Y-12103500D01*
X14790357Y-12089214D01*
X14833214Y-12089214D01*
X14861786Y-12103500D01*
X14876071Y-12132071D01*
X14876071Y-12289214D01*
X15018928Y-12289214D02*
X15018928Y-12089214D01*
X15018928Y-12117786D02*
X15033214Y-12103500D01*
X15061786Y-12089214D01*
X15104643Y-12089214D01*
X15133214Y-12103500D01*
X15147500Y-12132071D01*
X15147500Y-12289214D01*
X15147500Y-12132071D02*
X15161786Y-12103500D01*
X15190357Y-12089214D01*
X15233214Y-12089214D01*
X15261786Y-12103500D01*
X15276071Y-12132071D01*
X15276071Y-12289214D01*
X15861786Y-11974929D02*
X15604643Y-12360643D01*
X16247500Y-11989214D02*
X16276071Y-11989214D01*
X16304643Y-12003500D01*
X16318928Y-12017786D01*
X16333214Y-12046357D01*
X16347500Y-12103500D01*
X16347500Y-12174929D01*
X16333214Y-12232071D01*
X16318928Y-12260643D01*
X16304643Y-12274929D01*
X16276071Y-12289214D01*
X16247500Y-12289214D01*
X16218928Y-12274929D01*
X16204643Y-12260643D01*
X16190357Y-12232071D01*
X16176071Y-12174929D01*
X16176071Y-12103500D01*
X16190357Y-12046357D01*
X16204643Y-12017786D01*
X16218928Y-12003500D01*
X16247500Y-11989214D01*
X16476071Y-12260643D02*
X16490357Y-12274929D01*
X16476071Y-12289214D01*
X16461786Y-12274929D01*
X16476071Y-12260643D01*
X16476071Y-12289214D01*
X16676071Y-11989214D02*
X16704643Y-11989214D01*
X16733214Y-12003500D01*
X16747500Y-12017786D01*
X16761786Y-12046357D01*
X16776071Y-12103500D01*
X16776071Y-12174929D01*
X16761786Y-12232071D01*
X16747500Y-12260643D01*
X16733214Y-12274929D01*
X16704643Y-12289214D01*
X16676071Y-12289214D01*
X16647500Y-12274929D01*
X16633214Y-12260643D01*
X16618928Y-12232071D01*
X16604643Y-12174929D01*
X16604643Y-12103500D01*
X16618928Y-12046357D01*
X16633214Y-12017786D01*
X16647500Y-12003500D01*
X16676071Y-11989214D01*
X16890357Y-12017786D02*
X16904643Y-12003500D01*
X16933214Y-11989214D01*
X17004643Y-11989214D01*
X17033214Y-12003500D01*
X17047500Y-12017786D01*
X17061786Y-12046357D01*
X17061786Y-12074929D01*
X17047500Y-12117786D01*
X16876071Y-12289214D01*
X17061786Y-12289214D01*
X17233214Y-12117786D02*
X17204643Y-12103500D01*
X17190357Y-12089214D01*
X17176071Y-12060643D01*
X17176071Y-12046357D01*
X17190357Y-12017786D01*
X17204643Y-12003500D01*
X17233214Y-11989214D01*
X17290357Y-11989214D01*
X17318928Y-12003500D01*
X17333214Y-12017786D01*
X17347500Y-12046357D01*
X17347500Y-12060643D01*
X17333214Y-12089214D01*
X17318928Y-12103500D01*
X17290357Y-12117786D01*
X17233214Y-12117786D01*
X17204643Y-12132071D01*
X17190357Y-12146357D01*
X17176071Y-12174929D01*
X17176071Y-12232071D01*
X17190357Y-12260643D01*
X17204643Y-12274929D01*
X17233214Y-12289214D01*
X17290357Y-12289214D01*
X17318928Y-12274929D01*
X17333214Y-12260643D01*
X17347500Y-12232071D01*
X17347500Y-12174929D01*
X17333214Y-12146357D01*
X17318928Y-12132071D01*
X17290357Y-12117786D01*
X17461786Y-11989214D02*
X17461786Y-12046357D01*
X17576071Y-11989214D02*
X17576071Y-12046357D01*
X18018928Y-12403500D02*
X18004643Y-12389214D01*
X17976071Y-12346357D01*
X17961786Y-12317786D01*
X17947500Y-12274929D01*
X17933214Y-12203500D01*
X17933214Y-12146357D01*
X17947500Y-12074929D01*
X17961786Y-12032071D01*
X17976071Y-12003500D01*
X18004643Y-11960643D01*
X18018928Y-11946357D01*
X18176071Y-12117786D02*
X18147500Y-12103500D01*
X18133214Y-12089214D01*
X18118928Y-12060643D01*
X18118928Y-12046357D01*
X18133214Y-12017786D01*
X18147500Y-12003500D01*
X18176071Y-11989214D01*
X18233214Y-11989214D01*
X18261786Y-12003500D01*
X18276071Y-12017786D01*
X18290357Y-12046357D01*
X18290357Y-12060643D01*
X18276071Y-12089214D01*
X18261786Y-12103500D01*
X18233214Y-12117786D01*
X18176071Y-12117786D01*
X18147500Y-12132071D01*
X18133214Y-12146357D01*
X18118928Y-12174929D01*
X18118928Y-12232071D01*
X18133214Y-12260643D01*
X18147500Y-12274929D01*
X18176071Y-12289214D01*
X18233214Y-12289214D01*
X18261786Y-12274929D01*
X18276071Y-12260643D01*
X18290357Y-12232071D01*
X18290357Y-12174929D01*
X18276071Y-12146357D01*
X18261786Y-12132071D01*
X18233214Y-12117786D01*
X18476071Y-11989214D02*
X18504643Y-11989214D01*
X18533214Y-12003500D01*
X18547500Y-12017786D01*
X18561786Y-12046357D01*
X18576071Y-12103500D01*
X18576071Y-12174929D01*
X18561786Y-12232071D01*
X18547500Y-12260643D01*
X18533214Y-12274929D01*
X18504643Y-12289214D01*
X18476071Y-12289214D01*
X18447500Y-12274929D01*
X18433214Y-12260643D01*
X18418928Y-12232071D01*
X18404643Y-12174929D01*
X18404643Y-12103500D01*
X18418928Y-12046357D01*
X18433214Y-12017786D01*
X18447500Y-12003500D01*
X18476071Y-11989214D01*
X18933214Y-12289214D02*
X18933214Y-11989214D01*
X19061786Y-12289214D02*
X19061786Y-12132071D01*
X19047500Y-12103500D01*
X19018928Y-12089214D01*
X18976071Y-12089214D01*
X18947500Y-12103500D01*
X18933214Y-12117786D01*
X19247500Y-12289214D02*
X19218928Y-12274929D01*
X19204643Y-12260643D01*
X19190357Y-12232071D01*
X19190357Y-12146357D01*
X19204643Y-12117786D01*
X19218928Y-12103500D01*
X19247500Y-12089214D01*
X19290357Y-12089214D01*
X19318928Y-12103500D01*
X19333214Y-12117786D01*
X19347500Y-12146357D01*
X19347500Y-12232071D01*
X19333214Y-12260643D01*
X19318928Y-12274929D01*
X19290357Y-12289214D01*
X19247500Y-12289214D01*
X19518928Y-12289214D02*
X19490357Y-12274929D01*
X19476071Y-12246357D01*
X19476071Y-11989214D01*
X19747500Y-12274929D02*
X19718928Y-12289214D01*
X19661786Y-12289214D01*
X19633214Y-12274929D01*
X19618928Y-12246357D01*
X19618928Y-12132071D01*
X19633214Y-12103500D01*
X19661786Y-12089214D01*
X19718928Y-12089214D01*
X19747500Y-12103500D01*
X19761786Y-12132071D01*
X19761786Y-12160643D01*
X19618928Y-12189214D01*
X19876071Y-12274929D02*
X19904643Y-12289214D01*
X19961786Y-12289214D01*
X19990357Y-12274929D01*
X20004643Y-12246357D01*
X20004643Y-12232071D01*
X19990357Y-12203500D01*
X19961786Y-12189214D01*
X19918928Y-12189214D01*
X19890357Y-12174929D01*
X19876071Y-12146357D01*
X19876071Y-12132071D01*
X19890357Y-12103500D01*
X19918928Y-12089214D01*
X19961786Y-12089214D01*
X19990357Y-12103500D01*
X20104643Y-12403500D02*
X20118928Y-12389214D01*
X20147500Y-12346357D01*
X20161786Y-12317786D01*
X20176071Y-12274929D01*
X20190357Y-12203500D01*
X20190357Y-12146357D01*
X20176071Y-12074929D01*
X20161786Y-12032071D01*
X20147500Y-12003500D01*
X20118928Y-11960643D01*
X20104643Y-11946357D01*
X13292500Y-12509500D02*
X13292500Y-12589500D01*
X13252500Y-12549500D02*
X13332500Y-12549500D01*
X13676071Y-12385214D02*
X13704643Y-12385214D01*
X13733214Y-12399500D01*
X13747500Y-12413786D01*
X13761786Y-12442357D01*
X13776071Y-12499500D01*
X13776071Y-12570929D01*
X13761786Y-12628071D01*
X13747500Y-12656643D01*
X13733214Y-12670929D01*
X13704643Y-12685214D01*
X13676071Y-12685214D01*
X13647500Y-12670929D01*
X13633214Y-12656643D01*
X13618928Y-12628071D01*
X13604643Y-12570929D01*
X13604643Y-12499500D01*
X13618928Y-12442357D01*
X13633214Y-12413786D01*
X13647500Y-12399500D01*
X13676071Y-12385214D01*
X13904643Y-12656643D02*
X13918928Y-12670929D01*
X13904643Y-12685214D01*
X13890357Y-12670929D01*
X13904643Y-12656643D01*
X13904643Y-12685214D01*
X14090357Y-12513786D02*
X14061786Y-12499500D01*
X14047500Y-12485214D01*
X14033214Y-12456643D01*
X14033214Y-12442357D01*
X14047500Y-12413786D01*
X14061786Y-12399500D01*
X14090357Y-12385214D01*
X14147500Y-12385214D01*
X14176071Y-12399500D01*
X14190357Y-12413786D01*
X14204643Y-12442357D01*
X14204643Y-12456643D01*
X14190357Y-12485214D01*
X14176071Y-12499500D01*
X14147500Y-12513786D01*
X14090357Y-12513786D01*
X14061786Y-12528071D01*
X14047500Y-12542357D01*
X14033214Y-12570929D01*
X14033214Y-12628071D01*
X14047500Y-12656643D01*
X14061786Y-12670929D01*
X14090357Y-12685214D01*
X14147500Y-12685214D01*
X14176071Y-12670929D01*
X14190357Y-12656643D01*
X14204643Y-12628071D01*
X14204643Y-12570929D01*
X14190357Y-12542357D01*
X14176071Y-12528071D01*
X14147500Y-12513786D01*
X14390357Y-12385214D02*
X14418928Y-12385214D01*
X14447500Y-12399500D01*
X14461786Y-12413786D01*
X14476071Y-12442357D01*
X14490357Y-12499500D01*
X14490357Y-12570929D01*
X14476071Y-12628071D01*
X14461786Y-12656643D01*
X14447500Y-12670929D01*
X14418928Y-12685214D01*
X14390357Y-12685214D01*
X14361786Y-12670929D01*
X14347500Y-12656643D01*
X14333214Y-12628071D01*
X14318928Y-12570929D01*
X14318928Y-12499500D01*
X14333214Y-12442357D01*
X14347500Y-12413786D01*
X14361786Y-12399500D01*
X14390357Y-12385214D01*
X14618928Y-12685214D02*
X14618928Y-12485214D01*
X14618928Y-12513786D02*
X14633214Y-12499500D01*
X14661786Y-12485214D01*
X14704643Y-12485214D01*
X14733214Y-12499500D01*
X14747500Y-12528071D01*
X14747500Y-12685214D01*
X14747500Y-12528071D02*
X14761786Y-12499500D01*
X14790357Y-12485214D01*
X14833214Y-12485214D01*
X14861786Y-12499500D01*
X14876071Y-12528071D01*
X14876071Y-12685214D01*
X15018928Y-12685214D02*
X15018928Y-12485214D01*
X15018928Y-12513786D02*
X15033214Y-12499500D01*
X15061786Y-12485214D01*
X15104643Y-12485214D01*
X15133214Y-12499500D01*
X15147500Y-12528071D01*
X15147500Y-12685214D01*
X15147500Y-12528071D02*
X15161786Y-12499500D01*
X15190357Y-12485214D01*
X15233214Y-12485214D01*
X15261786Y-12499500D01*
X15276071Y-12528071D01*
X15276071Y-12685214D01*
X15861786Y-12370929D02*
X15604643Y-12756643D01*
X16247500Y-12385214D02*
X16276071Y-12385214D01*
X16304643Y-12399500D01*
X16318928Y-12413786D01*
X16333214Y-12442357D01*
X16347500Y-12499500D01*
X16347500Y-12570929D01*
X16333214Y-12628071D01*
X16318928Y-12656643D01*
X16304643Y-12670929D01*
X16276071Y-12685214D01*
X16247500Y-12685214D01*
X16218928Y-12670929D01*
X16204643Y-12656643D01*
X16190357Y-12628071D01*
X16176071Y-12570929D01*
X16176071Y-12499500D01*
X16190357Y-12442357D01*
X16204643Y-12413786D01*
X16218928Y-12399500D01*
X16247500Y-12385214D01*
X16476071Y-12656643D02*
X16490357Y-12670929D01*
X16476071Y-12685214D01*
X16461786Y-12670929D01*
X16476071Y-12656643D01*
X16476071Y-12685214D01*
X16676071Y-12385214D02*
X16704643Y-12385214D01*
X16733214Y-12399500D01*
X16747500Y-12413786D01*
X16761786Y-12442357D01*
X16776071Y-12499500D01*
X16776071Y-12570929D01*
X16761786Y-12628071D01*
X16747500Y-12656643D01*
X16733214Y-12670929D01*
X16704643Y-12685214D01*
X16676071Y-12685214D01*
X16647500Y-12670929D01*
X16633214Y-12656643D01*
X16618928Y-12628071D01*
X16604643Y-12570929D01*
X16604643Y-12499500D01*
X16618928Y-12442357D01*
X16633214Y-12413786D01*
X16647500Y-12399500D01*
X16676071Y-12385214D01*
X16876071Y-12385214D02*
X17061786Y-12385214D01*
X16961786Y-12499500D01*
X17004643Y-12499500D01*
X17033214Y-12513786D01*
X17047500Y-12528071D01*
X17061786Y-12556643D01*
X17061786Y-12628071D01*
X17047500Y-12656643D01*
X17033214Y-12670929D01*
X17004643Y-12685214D01*
X16918928Y-12685214D01*
X16890357Y-12670929D01*
X16876071Y-12656643D01*
X17347500Y-12685214D02*
X17176071Y-12685214D01*
X17261786Y-12685214D02*
X17261786Y-12385214D01*
X17233214Y-12428071D01*
X17204643Y-12456643D01*
X17176071Y-12470929D01*
X17461786Y-12385214D02*
X17461786Y-12442357D01*
X17576071Y-12385214D02*
X17576071Y-12442357D01*
X18018928Y-12799500D02*
X18004643Y-12785214D01*
X17976071Y-12742357D01*
X17961786Y-12713786D01*
X17947500Y-12670929D01*
X17933214Y-12599500D01*
X17933214Y-12542357D01*
X17947500Y-12470929D01*
X17961786Y-12428071D01*
X17976071Y-12399500D01*
X18004643Y-12356643D01*
X18018928Y-12342357D01*
X18118928Y-12413786D02*
X18133214Y-12399500D01*
X18161786Y-12385214D01*
X18233214Y-12385214D01*
X18261786Y-12399500D01*
X18276071Y-12413786D01*
X18290357Y-12442357D01*
X18290357Y-12470929D01*
X18276071Y-12513786D01*
X18104643Y-12685214D01*
X18290357Y-12685214D01*
X18404643Y-12413786D02*
X18418928Y-12399500D01*
X18447500Y-12385214D01*
X18518928Y-12385214D01*
X18547500Y-12399500D01*
X18561786Y-12413786D01*
X18576071Y-12442357D01*
X18576071Y-12470929D01*
X18561786Y-12513786D01*
X18390357Y-12685214D01*
X18576071Y-12685214D01*
X18761786Y-12385214D02*
X18790357Y-12385214D01*
X18818928Y-12399500D01*
X18833214Y-12413786D01*
X18847500Y-12442357D01*
X18861786Y-12499500D01*
X18861786Y-12570929D01*
X18847500Y-12628071D01*
X18833214Y-12656643D01*
X18818928Y-12670929D01*
X18790357Y-12685214D01*
X18761786Y-12685214D01*
X18733214Y-12670929D01*
X18718928Y-12656643D01*
X18704643Y-12628071D01*
X18690357Y-12570929D01*
X18690357Y-12499500D01*
X18704643Y-12442357D01*
X18718928Y-12413786D01*
X18733214Y-12399500D01*
X18761786Y-12385214D01*
X19218928Y-12685214D02*
X19218928Y-12385214D01*
X19347500Y-12685214D02*
X19347500Y-12528071D01*
X19333214Y-12499500D01*
X19304643Y-12485214D01*
X19261786Y-12485214D01*
X19233214Y-12499500D01*
X19218928Y-12513786D01*
X19533214Y-12685214D02*
X19504643Y-12670929D01*
X19490357Y-12656643D01*
X19476071Y-12628071D01*
X19476071Y-12542357D01*
X19490357Y-12513786D01*
X19504643Y-12499500D01*
X19533214Y-12485214D01*
X19576071Y-12485214D01*
X19604643Y-12499500D01*
X19618928Y-12513786D01*
X19633214Y-12542357D01*
X19633214Y-12628071D01*
X19618928Y-12656643D01*
X19604643Y-12670929D01*
X19576071Y-12685214D01*
X19533214Y-12685214D01*
X19804643Y-12685214D02*
X19776071Y-12670929D01*
X19761786Y-12642357D01*
X19761786Y-12385214D01*
X20033214Y-12670929D02*
X20004643Y-12685214D01*
X19947500Y-12685214D01*
X19918928Y-12670929D01*
X19904643Y-12642357D01*
X19904643Y-12528071D01*
X19918928Y-12499500D01*
X19947500Y-12485214D01*
X20004643Y-12485214D01*
X20033214Y-12499500D01*
X20047500Y-12528071D01*
X20047500Y-12556643D01*
X19904643Y-12585214D01*
X20161786Y-12670929D02*
X20190357Y-12685214D01*
X20247500Y-12685214D01*
X20276071Y-12670929D01*
X20290357Y-12642357D01*
X20290357Y-12628071D01*
X20276071Y-12599500D01*
X20247500Y-12585214D01*
X20204643Y-12585214D01*
X20176071Y-12570929D01*
X20161786Y-12542357D01*
X20161786Y-12528071D01*
X20176071Y-12499500D01*
X20204643Y-12485214D01*
X20247500Y-12485214D01*
X20276071Y-12499500D01*
X20390357Y-12799500D02*
X20404643Y-12785214D01*
X20433214Y-12742357D01*
X20447500Y-12713786D01*
X20461786Y-12670929D01*
X20476071Y-12599500D01*
X20476071Y-12542357D01*
X20461786Y-12470929D01*
X20447500Y-12428071D01*
X20433214Y-12399500D01*
X20404643Y-12356643D01*
X20390357Y-12342357D01*
X13317856Y-12980856D02*
X13317856Y-12910144D01*
X13247144Y-12910144D01*
X13247144Y-12980856D01*
X13317856Y-12980856D01*
X13776071Y-13081214D02*
X13604643Y-13081214D01*
X13690357Y-13081214D02*
X13690357Y-12781214D01*
X13661786Y-12824071D01*
X13633214Y-12852643D01*
X13604643Y-12866929D01*
X13904643Y-13052643D02*
X13918928Y-13066929D01*
X13904643Y-13081214D01*
X13890357Y-13066929D01*
X13904643Y-13052643D01*
X13904643Y-13081214D01*
X14104643Y-12781214D02*
X14133214Y-12781214D01*
X14161786Y-12795500D01*
X14176071Y-12809786D01*
X14190357Y-12838357D01*
X14204643Y-12895500D01*
X14204643Y-12966929D01*
X14190357Y-13024071D01*
X14176071Y-13052643D01*
X14161786Y-13066929D01*
X14133214Y-13081214D01*
X14104643Y-13081214D01*
X14076071Y-13066929D01*
X14061786Y-13052643D01*
X14047500Y-13024071D01*
X14033214Y-12966929D01*
X14033214Y-12895500D01*
X14047500Y-12838357D01*
X14061786Y-12809786D01*
X14076071Y-12795500D01*
X14104643Y-12781214D01*
X14390357Y-12781214D02*
X14418928Y-12781214D01*
X14447500Y-12795500D01*
X14461786Y-12809786D01*
X14476071Y-12838357D01*
X14490357Y-12895500D01*
X14490357Y-12966929D01*
X14476071Y-13024071D01*
X14461786Y-13052643D01*
X14447500Y-13066929D01*
X14418928Y-13081214D01*
X14390357Y-13081214D01*
X14361786Y-13066929D01*
X14347500Y-13052643D01*
X14333214Y-13024071D01*
X14318928Y-12966929D01*
X14318928Y-12895500D01*
X14333214Y-12838357D01*
X14347500Y-12809786D01*
X14361786Y-12795500D01*
X14390357Y-12781214D01*
X14618928Y-13081214D02*
X14618928Y-12881214D01*
X14618928Y-12909786D02*
X14633214Y-12895500D01*
X14661786Y-12881214D01*
X14704643Y-12881214D01*
X14733214Y-12895500D01*
X14747500Y-12924071D01*
X14747500Y-13081214D01*
X14747500Y-12924071D02*
X14761786Y-12895500D01*
X14790357Y-12881214D01*
X14833214Y-12881214D01*
X14861786Y-12895500D01*
X14876071Y-12924071D01*
X14876071Y-13081214D01*
X15018928Y-13081214D02*
X15018928Y-12881214D01*
X15018928Y-12909786D02*
X15033214Y-12895500D01*
X15061786Y-12881214D01*
X15104643Y-12881214D01*
X15133214Y-12895500D01*
X15147500Y-12924071D01*
X15147500Y-13081214D01*
X15147500Y-12924071D02*
X15161786Y-12895500D01*
X15190357Y-12881214D01*
X15233214Y-12881214D01*
X15261786Y-12895500D01*
X15276071Y-12924071D01*
X15276071Y-13081214D01*
X15861786Y-12766929D02*
X15604643Y-13152643D01*
X16247500Y-12781214D02*
X16276071Y-12781214D01*
X16304643Y-12795500D01*
X16318928Y-12809786D01*
X16333214Y-12838357D01*
X16347500Y-12895500D01*
X16347500Y-12966929D01*
X16333214Y-13024071D01*
X16318928Y-13052643D01*
X16304643Y-13066929D01*
X16276071Y-13081214D01*
X16247500Y-13081214D01*
X16218928Y-13066929D01*
X16204643Y-13052643D01*
X16190357Y-13024071D01*
X16176071Y-12966929D01*
X16176071Y-12895500D01*
X16190357Y-12838357D01*
X16204643Y-12809786D01*
X16218928Y-12795500D01*
X16247500Y-12781214D01*
X16476071Y-13052643D02*
X16490357Y-13066929D01*
X16476071Y-13081214D01*
X16461786Y-13066929D01*
X16476071Y-13052643D01*
X16476071Y-13081214D01*
X16676071Y-12781214D02*
X16704643Y-12781214D01*
X16733214Y-12795500D01*
X16747500Y-12809786D01*
X16761786Y-12838357D01*
X16776071Y-12895500D01*
X16776071Y-12966929D01*
X16761786Y-13024071D01*
X16747500Y-13052643D01*
X16733214Y-13066929D01*
X16704643Y-13081214D01*
X16676071Y-13081214D01*
X16647500Y-13066929D01*
X16633214Y-13052643D01*
X16618928Y-13024071D01*
X16604643Y-12966929D01*
X16604643Y-12895500D01*
X16618928Y-12838357D01*
X16633214Y-12809786D01*
X16647500Y-12795500D01*
X16676071Y-12781214D01*
X16876071Y-12781214D02*
X17061786Y-12781214D01*
X16961786Y-12895500D01*
X17004643Y-12895500D01*
X17033214Y-12909786D01*
X17047500Y-12924071D01*
X17061786Y-12952643D01*
X17061786Y-13024071D01*
X17047500Y-13052643D01*
X17033214Y-13066929D01*
X17004643Y-13081214D01*
X16918928Y-13081214D01*
X16890357Y-13066929D01*
X16876071Y-13052643D01*
X17204643Y-13081214D02*
X17261786Y-13081214D01*
X17290357Y-13066929D01*
X17304643Y-13052643D01*
X17333214Y-13009786D01*
X17347500Y-12952643D01*
X17347500Y-12838357D01*
X17333214Y-12809786D01*
X17318928Y-12795500D01*
X17290357Y-12781214D01*
X17233214Y-12781214D01*
X17204643Y-12795500D01*
X17190357Y-12809786D01*
X17176071Y-12838357D01*
X17176071Y-12909786D01*
X17190357Y-12938357D01*
X17204643Y-12952643D01*
X17233214Y-12966929D01*
X17290357Y-12966929D01*
X17318928Y-12952643D01*
X17333214Y-12938357D01*
X17347500Y-12909786D01*
X17461786Y-12781214D02*
X17461786Y-12838357D01*
X17576071Y-12781214D02*
X17576071Y-12838357D01*
X18018928Y-13195500D02*
X18004643Y-13181214D01*
X17976071Y-13138357D01*
X17961786Y-13109786D01*
X17947500Y-13066929D01*
X17933214Y-12995500D01*
X17933214Y-12938357D01*
X17947500Y-12866929D01*
X17961786Y-12824071D01*
X17976071Y-12795500D01*
X18004643Y-12752643D01*
X18018928Y-12738357D01*
X18290357Y-13081214D02*
X18118928Y-13081214D01*
X18204643Y-13081214D02*
X18204643Y-12781214D01*
X18176071Y-12824071D01*
X18147500Y-12852643D01*
X18118928Y-12866929D01*
X18547500Y-12781214D02*
X18490357Y-12781214D01*
X18461786Y-12795500D01*
X18447500Y-12809786D01*
X18418928Y-12852643D01*
X18404643Y-12909786D01*
X18404643Y-13024071D01*
X18418928Y-13052643D01*
X18433214Y-13066929D01*
X18461786Y-13081214D01*
X18518928Y-13081214D01*
X18547500Y-13066929D01*
X18561786Y-13052643D01*
X18576071Y-13024071D01*
X18576071Y-12952643D01*
X18561786Y-12924071D01*
X18547500Y-12909786D01*
X18518928Y-12895500D01*
X18461786Y-12895500D01*
X18433214Y-12909786D01*
X18418928Y-12924071D01*
X18404643Y-12952643D01*
X18933214Y-13081214D02*
X18933214Y-12781214D01*
X19061786Y-13081214D02*
X19061786Y-12924071D01*
X19047500Y-12895500D01*
X19018928Y-12881214D01*
X18976071Y-12881214D01*
X18947500Y-12895500D01*
X18933214Y-12909786D01*
X19247500Y-13081214D02*
X19218928Y-13066929D01*
X19204643Y-13052643D01*
X19190357Y-13024071D01*
X19190357Y-12938357D01*
X19204643Y-12909786D01*
X19218928Y-12895500D01*
X19247500Y-12881214D01*
X19290357Y-12881214D01*
X19318928Y-12895500D01*
X19333214Y-12909786D01*
X19347500Y-12938357D01*
X19347500Y-13024071D01*
X19333214Y-13052643D01*
X19318928Y-13066929D01*
X19290357Y-13081214D01*
X19247500Y-13081214D01*
X19518928Y-13081214D02*
X19490357Y-13066929D01*
X19476071Y-13038357D01*
X19476071Y-12781214D01*
X19747500Y-13066929D02*
X19718928Y-13081214D01*
X19661786Y-13081214D01*
X19633214Y-13066929D01*
X19618928Y-13038357D01*
X19618928Y-12924071D01*
X19633214Y-12895500D01*
X19661786Y-12881214D01*
X19718928Y-12881214D01*
X19747500Y-12895500D01*
X19761786Y-12924071D01*
X19761786Y-12952643D01*
X19618928Y-12981214D01*
X19876071Y-13066929D02*
X19904643Y-13081214D01*
X19961786Y-13081214D01*
X19990357Y-13066929D01*
X20004643Y-13038357D01*
X20004643Y-13024071D01*
X19990357Y-12995500D01*
X19961786Y-12981214D01*
X19918928Y-12981214D01*
X19890357Y-12966929D01*
X19876071Y-12938357D01*
X19876071Y-12924071D01*
X19890357Y-12895500D01*
X19918928Y-12881214D01*
X19961786Y-12881214D01*
X19990357Y-12895500D01*
X20104643Y-13195500D02*
X20118928Y-13181214D01*
X20147500Y-13138357D01*
X20161786Y-13109786D01*
X20176071Y-13066929D01*
X20190357Y-12995500D01*
X20190357Y-12938357D01*
X20176071Y-12866929D01*
X20161786Y-12824071D01*
X20147500Y-12795500D01*
X20118928Y-12752643D01*
X20104643Y-12738357D01*
X13272500Y-13401500D02*
X13332500Y-13341500D01*
X13272500Y-13281500D01*
X13212500Y-13341500D01*
X13272500Y-13401500D01*
X13776071Y-13477214D02*
X13604643Y-13477214D01*
X13690357Y-13477214D02*
X13690357Y-13177214D01*
X13661786Y-13220071D01*
X13633214Y-13248643D01*
X13604643Y-13262929D01*
X13904643Y-13448643D02*
X13918928Y-13462929D01*
X13904643Y-13477214D01*
X13890357Y-13462929D01*
X13904643Y-13448643D01*
X13904643Y-13477214D01*
X14033214Y-13205786D02*
X14047500Y-13191500D01*
X14076071Y-13177214D01*
X14147500Y-13177214D01*
X14176071Y-13191500D01*
X14190357Y-13205786D01*
X14204643Y-13234357D01*
X14204643Y-13262929D01*
X14190357Y-13305786D01*
X14018928Y-13477214D01*
X14204643Y-13477214D01*
X14390357Y-13177214D02*
X14418928Y-13177214D01*
X14447500Y-13191500D01*
X14461786Y-13205786D01*
X14476071Y-13234357D01*
X14490357Y-13291500D01*
X14490357Y-13362929D01*
X14476071Y-13420071D01*
X14461786Y-13448643D01*
X14447500Y-13462929D01*
X14418928Y-13477214D01*
X14390357Y-13477214D01*
X14361786Y-13462929D01*
X14347500Y-13448643D01*
X14333214Y-13420071D01*
X14318928Y-13362929D01*
X14318928Y-13291500D01*
X14333214Y-13234357D01*
X14347500Y-13205786D01*
X14361786Y-13191500D01*
X14390357Y-13177214D01*
X14618928Y-13477214D02*
X14618928Y-13277214D01*
X14618928Y-13305786D02*
X14633214Y-13291500D01*
X14661786Y-13277214D01*
X14704643Y-13277214D01*
X14733214Y-13291500D01*
X14747500Y-13320071D01*
X14747500Y-13477214D01*
X14747500Y-13320071D02*
X14761786Y-13291500D01*
X14790357Y-13277214D01*
X14833214Y-13277214D01*
X14861786Y-13291500D01*
X14876071Y-13320071D01*
X14876071Y-13477214D01*
X15018928Y-13477214D02*
X15018928Y-13277214D01*
X15018928Y-13305786D02*
X15033214Y-13291500D01*
X15061786Y-13277214D01*
X15104643Y-13277214D01*
X15133214Y-13291500D01*
X15147500Y-13320071D01*
X15147500Y-13477214D01*
X15147500Y-13320071D02*
X15161786Y-13291500D01*
X15190357Y-13277214D01*
X15233214Y-13277214D01*
X15261786Y-13291500D01*
X15276071Y-13320071D01*
X15276071Y-13477214D01*
X15861786Y-13162929D02*
X15604643Y-13548643D01*
X16247500Y-13177214D02*
X16276071Y-13177214D01*
X16304643Y-13191500D01*
X16318928Y-13205786D01*
X16333214Y-13234357D01*
X16347500Y-13291500D01*
X16347500Y-13362929D01*
X16333214Y-13420071D01*
X16318928Y-13448643D01*
X16304643Y-13462929D01*
X16276071Y-13477214D01*
X16247500Y-13477214D01*
X16218928Y-13462929D01*
X16204643Y-13448643D01*
X16190357Y-13420071D01*
X16176071Y-13362929D01*
X16176071Y-13291500D01*
X16190357Y-13234357D01*
X16204643Y-13205786D01*
X16218928Y-13191500D01*
X16247500Y-13177214D01*
X16476071Y-13448643D02*
X16490357Y-13462929D01*
X16476071Y-13477214D01*
X16461786Y-13462929D01*
X16476071Y-13448643D01*
X16476071Y-13477214D01*
X16676071Y-13177214D02*
X16704643Y-13177214D01*
X16733214Y-13191500D01*
X16747500Y-13205786D01*
X16761786Y-13234357D01*
X16776071Y-13291500D01*
X16776071Y-13362929D01*
X16761786Y-13420071D01*
X16747500Y-13448643D01*
X16733214Y-13462929D01*
X16704643Y-13477214D01*
X16676071Y-13477214D01*
X16647500Y-13462929D01*
X16633214Y-13448643D01*
X16618928Y-13420071D01*
X16604643Y-13362929D01*
X16604643Y-13291500D01*
X16618928Y-13234357D01*
X16633214Y-13205786D01*
X16647500Y-13191500D01*
X16676071Y-13177214D01*
X17033214Y-13277214D02*
X17033214Y-13477214D01*
X16961786Y-13162929D02*
X16890357Y-13377214D01*
X17076071Y-13377214D01*
X17161786Y-13177214D02*
X17361786Y-13177214D01*
X17233214Y-13477214D01*
X17461786Y-13177214D02*
X17461786Y-13234357D01*
X17576071Y-13177214D02*
X17576071Y-13234357D01*
X18018928Y-13591500D02*
X18004643Y-13577214D01*
X17976071Y-13534357D01*
X17961786Y-13505786D01*
X17947500Y-13462929D01*
X17933214Y-13391500D01*
X17933214Y-13334357D01*
X17947500Y-13262929D01*
X17961786Y-13220071D01*
X17976071Y-13191500D01*
X18004643Y-13148643D01*
X18018928Y-13134357D01*
X18261786Y-13177214D02*
X18204643Y-13177214D01*
X18176071Y-13191500D01*
X18161786Y-13205786D01*
X18133214Y-13248643D01*
X18118928Y-13305786D01*
X18118928Y-13420071D01*
X18133214Y-13448643D01*
X18147500Y-13462929D01*
X18176071Y-13477214D01*
X18233214Y-13477214D01*
X18261786Y-13462929D01*
X18276071Y-13448643D01*
X18290357Y-13420071D01*
X18290357Y-13348643D01*
X18276071Y-13320071D01*
X18261786Y-13305786D01*
X18233214Y-13291500D01*
X18176071Y-13291500D01*
X18147500Y-13305786D01*
X18133214Y-13320071D01*
X18118928Y-13348643D01*
X18476071Y-13177214D02*
X18504643Y-13177214D01*
X18533214Y-13191500D01*
X18547500Y-13205786D01*
X18561786Y-13234357D01*
X18576071Y-13291500D01*
X18576071Y-13362929D01*
X18561786Y-13420071D01*
X18547500Y-13448643D01*
X18533214Y-13462929D01*
X18504643Y-13477214D01*
X18476071Y-13477214D01*
X18447500Y-13462929D01*
X18433214Y-13448643D01*
X18418928Y-13420071D01*
X18404643Y-13362929D01*
X18404643Y-13291500D01*
X18418928Y-13234357D01*
X18433214Y-13205786D01*
X18447500Y-13191500D01*
X18476071Y-13177214D01*
X18933214Y-13477214D02*
X18933214Y-13177214D01*
X19061786Y-13477214D02*
X19061786Y-13320071D01*
X19047500Y-13291500D01*
X19018928Y-13277214D01*
X18976071Y-13277214D01*
X18947500Y-13291500D01*
X18933214Y-13305786D01*
X19247500Y-13477214D02*
X19218928Y-13462929D01*
X19204643Y-13448643D01*
X19190357Y-13420071D01*
X19190357Y-13334357D01*
X19204643Y-13305786D01*
X19218928Y-13291500D01*
X19247500Y-13277214D01*
X19290357Y-13277214D01*
X19318928Y-13291500D01*
X19333214Y-13305786D01*
X19347500Y-13334357D01*
X19347500Y-13420071D01*
X19333214Y-13448643D01*
X19318928Y-13462929D01*
X19290357Y-13477214D01*
X19247500Y-13477214D01*
X19518928Y-13477214D02*
X19490357Y-13462929D01*
X19476071Y-13434357D01*
X19476071Y-13177214D01*
X19747500Y-13462929D02*
X19718928Y-13477214D01*
X19661786Y-13477214D01*
X19633214Y-13462929D01*
X19618928Y-13434357D01*
X19618928Y-13320071D01*
X19633214Y-13291500D01*
X19661786Y-13277214D01*
X19718928Y-13277214D01*
X19747500Y-13291500D01*
X19761786Y-13320071D01*
X19761786Y-13348643D01*
X19618928Y-13377214D01*
X19876071Y-13462929D02*
X19904643Y-13477214D01*
X19961786Y-13477214D01*
X19990357Y-13462929D01*
X20004643Y-13434357D01*
X20004643Y-13420071D01*
X19990357Y-13391500D01*
X19961786Y-13377214D01*
X19918928Y-13377214D01*
X19890357Y-13362929D01*
X19876071Y-13334357D01*
X19876071Y-13320071D01*
X19890357Y-13291500D01*
X19918928Y-13277214D01*
X19961786Y-13277214D01*
X19990357Y-13291500D01*
X20104643Y-13591500D02*
X20118928Y-13577214D01*
X20147500Y-13534357D01*
X20161786Y-13505786D01*
X20176071Y-13462929D01*
X20190357Y-13391500D01*
X20190357Y-13334357D01*
X20176071Y-13262929D01*
X20161786Y-13220071D01*
X20147500Y-13191500D01*
X20118928Y-13148643D01*
X20104643Y-13134357D01*
M02*
