%TF.GenerationSoftware,KiCad,Pcbnew,(5.1.8)-1*%
%TF.CreationDate,2021-01-13T10:35:39-05:00*%
%TF.ProjectId,LED_Panel,4c45445f-5061-46e6-956c-2e6b69636164,rev?*%
%TF.SameCoordinates,Original*%
%TF.FileFunction,Legend,Top*%
%TF.FilePolarity,Positive*%
%FSLAX46Y46*%
G04 Gerber Fmt 4.6, Leading zero omitted, Abs format (unit mm)*
G04 Created by KiCad (PCBNEW (5.1.8)-1) date 2021-01-13 10:35:39*
%MOMM*%
%LPD*%
G01*
G04 APERTURE LIST*
%ADD10C,0.100000*%
%ADD11C,0.150000*%
%ADD12C,0.120000*%
%ADD13C,0.152400*%
G04 APERTURE END LIST*
D10*
G36*
X145415000Y-30480000D02*
G01*
X141605000Y-33020000D01*
X144145000Y-29210000D01*
X145415000Y-29210000D01*
X145415000Y-30480000D01*
G37*
X145415000Y-30480000D02*
X141605000Y-33020000D01*
X144145000Y-29210000D01*
X145415000Y-29210000D01*
X145415000Y-30480000D01*
G36*
X146050000Y-33020000D02*
G01*
X142240000Y-34290000D01*
X144780000Y-31750000D01*
X146050000Y-31750000D01*
X146050000Y-33020000D01*
G37*
X146050000Y-33020000D02*
X142240000Y-34290000D01*
X144780000Y-31750000D01*
X146050000Y-31750000D01*
X146050000Y-33020000D01*
G36*
X139700000Y-29845000D02*
G01*
X142240000Y-29845000D01*
X142240000Y-31115000D01*
X139700000Y-31115000D01*
X142240000Y-36195000D01*
X139700000Y-36195000D01*
X139700000Y-41275000D01*
X138430000Y-41275000D01*
X138430000Y-36195000D01*
X135890000Y-36195000D01*
X138430000Y-31115000D01*
X135890000Y-31115000D01*
X135890000Y-29845000D01*
X138430000Y-29845000D01*
X138430000Y-27305000D01*
X139700000Y-27305000D01*
X139700000Y-29845000D01*
G37*
X139700000Y-29845000D02*
X142240000Y-29845000D01*
X142240000Y-31115000D01*
X139700000Y-31115000D01*
X142240000Y-36195000D01*
X139700000Y-36195000D01*
X139700000Y-41275000D01*
X138430000Y-41275000D01*
X138430000Y-36195000D01*
X135890000Y-36195000D01*
X138430000Y-31115000D01*
X135890000Y-31115000D01*
X135890000Y-29845000D01*
X138430000Y-29845000D01*
X138430000Y-27305000D01*
X139700000Y-27305000D01*
X139700000Y-29845000D01*
G36*
X279400000Y-38100000D02*
G01*
X273050000Y-38100000D01*
X274320000Y-35560000D01*
X275590000Y-36830000D01*
X278130000Y-34290000D01*
X279400000Y-38100000D01*
G37*
X279400000Y-38100000D02*
X273050000Y-38100000D01*
X274320000Y-35560000D01*
X275590000Y-36830000D01*
X278130000Y-34290000D01*
X279400000Y-38100000D01*
G36*
X275590000Y-43180000D02*
G01*
X276860000Y-44450000D01*
X275590000Y-45720000D01*
X279400000Y-49530000D01*
X273050000Y-45720000D01*
X274320000Y-44450000D01*
X273050000Y-43180000D01*
X279400000Y-39370000D01*
X275590000Y-43180000D01*
G37*
X275590000Y-43180000D02*
X276860000Y-44450000D01*
X275590000Y-45720000D01*
X279400000Y-49530000D01*
X273050000Y-45720000D01*
X274320000Y-44450000D01*
X273050000Y-43180000D01*
X279400000Y-39370000D01*
X275590000Y-43180000D01*
D11*
X281503333Y-61330952D02*
X281455714Y-61378571D01*
X281312857Y-61473809D01*
X281217619Y-61521428D01*
X281074761Y-61569047D01*
X280836666Y-61616666D01*
X280646190Y-61616666D01*
X280408095Y-61569047D01*
X280265238Y-61521428D01*
X280170000Y-61473809D01*
X280027142Y-61378571D01*
X279979523Y-61330952D01*
X281074761Y-60521428D02*
X281122380Y-60616666D01*
X281122380Y-60807142D01*
X281074761Y-60902380D01*
X281027142Y-60950000D01*
X280931904Y-60997619D01*
X280646190Y-60997619D01*
X280550952Y-60950000D01*
X280503333Y-60902380D01*
X280455714Y-60807142D01*
X280455714Y-60616666D01*
X280503333Y-60521428D01*
X281503333Y-60188095D02*
X281455714Y-60140476D01*
X281312857Y-60045238D01*
X281217619Y-59997619D01*
X281074761Y-59950000D01*
X280836666Y-59902380D01*
X280646190Y-59902380D01*
X280408095Y-59950000D01*
X280265238Y-59997619D01*
X280170000Y-60045238D01*
X280027142Y-60140476D01*
X279979523Y-60188095D01*
X280836666Y-58711904D02*
X280836666Y-58235714D01*
X281122380Y-58807142D02*
X280122380Y-58473809D01*
X281122380Y-58140476D01*
X280455714Y-57378571D02*
X281122380Y-57378571D01*
X280455714Y-57807142D02*
X280979523Y-57807142D01*
X281074761Y-57759523D01*
X281122380Y-57664285D01*
X281122380Y-57521428D01*
X281074761Y-57426190D01*
X281027142Y-57378571D01*
X281074761Y-56950000D02*
X281122380Y-56854761D01*
X281122380Y-56664285D01*
X281074761Y-56569047D01*
X280979523Y-56521428D01*
X280931904Y-56521428D01*
X280836666Y-56569047D01*
X280789047Y-56664285D01*
X280789047Y-56807142D01*
X280741428Y-56902380D01*
X280646190Y-56950000D01*
X280598571Y-56950000D01*
X280503333Y-56902380D01*
X280455714Y-56807142D01*
X280455714Y-56664285D01*
X280503333Y-56569047D01*
X280455714Y-56235714D02*
X280455714Y-55854761D01*
X280122380Y-56092857D02*
X280979523Y-56092857D01*
X281074761Y-56045238D01*
X281122380Y-55950000D01*
X281122380Y-55854761D01*
X281074761Y-55140476D02*
X281122380Y-55235714D01*
X281122380Y-55426190D01*
X281074761Y-55521428D01*
X280979523Y-55569047D01*
X280598571Y-55569047D01*
X280503333Y-55521428D01*
X280455714Y-55426190D01*
X280455714Y-55235714D01*
X280503333Y-55140476D01*
X280598571Y-55092857D01*
X280693809Y-55092857D01*
X280789047Y-55569047D01*
X280455714Y-54664285D02*
X281122380Y-54664285D01*
X280550952Y-54664285D02*
X280503333Y-54616666D01*
X280455714Y-54521428D01*
X280455714Y-54378571D01*
X280503333Y-54283333D01*
X280598571Y-54235714D01*
X281122380Y-54235714D01*
X281122380Y-52997619D02*
X280122380Y-52997619D01*
X280598571Y-52997619D02*
X280598571Y-52426190D01*
X281122380Y-52426190D02*
X280122380Y-52426190D01*
X281122380Y-51950000D02*
X280455714Y-51950000D01*
X280122380Y-51950000D02*
X280170000Y-51997619D01*
X280217619Y-51950000D01*
X280170000Y-51902380D01*
X280122380Y-51950000D01*
X280217619Y-51950000D01*
X280455714Y-51045238D02*
X281265238Y-51045238D01*
X281360476Y-51092857D01*
X281408095Y-51140476D01*
X281455714Y-51235714D01*
X281455714Y-51378571D01*
X281408095Y-51473809D01*
X281074761Y-51045238D02*
X281122380Y-51140476D01*
X281122380Y-51330952D01*
X281074761Y-51426190D01*
X281027142Y-51473809D01*
X280931904Y-51521428D01*
X280646190Y-51521428D01*
X280550952Y-51473809D01*
X280503333Y-51426190D01*
X280455714Y-51330952D01*
X280455714Y-51140476D01*
X280503333Y-51045238D01*
X280455714Y-50140476D02*
X281265238Y-50140476D01*
X281360476Y-50188095D01*
X281408095Y-50235714D01*
X281455714Y-50330952D01*
X281455714Y-50473809D01*
X281408095Y-50569047D01*
X281074761Y-50140476D02*
X281122380Y-50235714D01*
X281122380Y-50426190D01*
X281074761Y-50521428D01*
X281027142Y-50569047D01*
X280931904Y-50616666D01*
X280646190Y-50616666D01*
X280550952Y-50569047D01*
X280503333Y-50521428D01*
X280455714Y-50426190D01*
X280455714Y-50235714D01*
X280503333Y-50140476D01*
X281122380Y-49664285D02*
X280455714Y-49664285D01*
X280122380Y-49664285D02*
X280170000Y-49711904D01*
X280217619Y-49664285D01*
X280170000Y-49616666D01*
X280122380Y-49664285D01*
X280217619Y-49664285D01*
X280455714Y-49188095D02*
X281122380Y-49188095D01*
X280550952Y-49188095D02*
X280503333Y-49140476D01*
X280455714Y-49045238D01*
X280455714Y-48902380D01*
X280503333Y-48807142D01*
X280598571Y-48759523D01*
X281122380Y-48759523D01*
X281074761Y-48330952D02*
X281122380Y-48235714D01*
X281122380Y-48045238D01*
X281074761Y-47950000D01*
X280979523Y-47902380D01*
X280931904Y-47902380D01*
X280836666Y-47950000D01*
X280789047Y-48045238D01*
X280789047Y-48188095D01*
X280741428Y-48283333D01*
X280646190Y-48330952D01*
X280598571Y-48330952D01*
X280503333Y-48283333D01*
X280455714Y-48188095D01*
X280455714Y-48045238D01*
X280503333Y-47950000D01*
X280741428Y-47473809D02*
X280741428Y-46711904D01*
X281027142Y-45664285D02*
X281074761Y-45711904D01*
X281122380Y-45854761D01*
X281122380Y-45950000D01*
X281074761Y-46092857D01*
X280979523Y-46188095D01*
X280884285Y-46235714D01*
X280693809Y-46283333D01*
X280550952Y-46283333D01*
X280360476Y-46235714D01*
X280265238Y-46188095D01*
X280170000Y-46092857D01*
X280122380Y-45950000D01*
X280122380Y-45854761D01*
X280170000Y-45711904D01*
X280217619Y-45664285D01*
X281122380Y-44807142D02*
X280598571Y-44807142D01*
X280503333Y-44854761D01*
X280455714Y-44950000D01*
X280455714Y-45140476D01*
X280503333Y-45235714D01*
X281074761Y-44807142D02*
X281122380Y-44902380D01*
X281122380Y-45140476D01*
X281074761Y-45235714D01*
X280979523Y-45283333D01*
X280884285Y-45283333D01*
X280789047Y-45235714D01*
X280741428Y-45140476D01*
X280741428Y-44902380D01*
X280693809Y-44807142D01*
X281074761Y-44378571D02*
X281122380Y-44283333D01*
X281122380Y-44092857D01*
X281074761Y-43997619D01*
X280979523Y-43950000D01*
X280931904Y-43950000D01*
X280836666Y-43997619D01*
X280789047Y-44092857D01*
X280789047Y-44235714D01*
X280741428Y-44330952D01*
X280646190Y-44378571D01*
X280598571Y-44378571D01*
X280503333Y-44330952D01*
X280455714Y-44235714D01*
X280455714Y-44092857D01*
X280503333Y-43997619D01*
X281074761Y-43569047D02*
X281122380Y-43473809D01*
X281122380Y-43283333D01*
X281074761Y-43188095D01*
X280979523Y-43140476D01*
X280931904Y-43140476D01*
X280836666Y-43188095D01*
X280789047Y-43283333D01*
X280789047Y-43426190D01*
X280741428Y-43521428D01*
X280646190Y-43569047D01*
X280598571Y-43569047D01*
X280503333Y-43521428D01*
X280455714Y-43426190D01*
X280455714Y-43283333D01*
X280503333Y-43188095D01*
X281122380Y-42711904D02*
X280455714Y-42711904D01*
X280122380Y-42711904D02*
X280170000Y-42759523D01*
X280217619Y-42711904D01*
X280170000Y-42664285D01*
X280122380Y-42711904D01*
X280217619Y-42711904D01*
X281122380Y-41807142D02*
X280122380Y-41807142D01*
X281074761Y-41807142D02*
X281122380Y-41902380D01*
X281122380Y-42092857D01*
X281074761Y-42188095D01*
X281027142Y-42235714D01*
X280931904Y-42283333D01*
X280646190Y-42283333D01*
X280550952Y-42235714D01*
X280503333Y-42188095D01*
X280455714Y-42092857D01*
X280455714Y-41902380D01*
X280503333Y-41807142D01*
X280455714Y-41426190D02*
X281122380Y-41188095D01*
X280455714Y-40950000D02*
X281122380Y-41188095D01*
X281360476Y-41283333D01*
X281408095Y-41330952D01*
X281455714Y-41426190D01*
X281074761Y-40521428D02*
X281122380Y-40521428D01*
X281217619Y-40569047D01*
X281265238Y-40616666D01*
X281122380Y-39330952D02*
X280122380Y-39330952D01*
X280836666Y-38997619D01*
X280122380Y-38664285D01*
X281122380Y-38664285D01*
X281122380Y-38188095D02*
X280455714Y-38188095D01*
X280122380Y-38188095D02*
X280170000Y-38235714D01*
X280217619Y-38188095D01*
X280170000Y-38140476D01*
X280122380Y-38188095D01*
X280217619Y-38188095D01*
X281122380Y-37569047D02*
X281074761Y-37664285D01*
X280979523Y-37711904D01*
X280122380Y-37711904D01*
X281122380Y-37045238D02*
X281074761Y-37140476D01*
X280979523Y-37188095D01*
X280122380Y-37188095D01*
X281122380Y-36664285D02*
X280455714Y-36664285D01*
X280122380Y-36664285D02*
X280170000Y-36711904D01*
X280217619Y-36664285D01*
X280170000Y-36616666D01*
X280122380Y-36664285D01*
X280217619Y-36664285D01*
X281122380Y-36188095D02*
X280122380Y-36188095D01*
X280503333Y-36188095D02*
X280455714Y-36092857D01*
X280455714Y-35902380D01*
X280503333Y-35807142D01*
X280550952Y-35759523D01*
X280646190Y-35711904D01*
X280931904Y-35711904D01*
X281027142Y-35759523D01*
X281074761Y-35807142D01*
X281122380Y-35902380D01*
X281122380Y-36092857D01*
X281074761Y-36188095D01*
X280455714Y-35378571D02*
X281122380Y-35140476D01*
X280455714Y-34902380D02*
X281122380Y-35140476D01*
X281360476Y-35235714D01*
X281408095Y-35283333D01*
X281455714Y-35378571D01*
X280455714Y-34664285D02*
X280455714Y-34283333D01*
X280122380Y-34521428D02*
X280979523Y-34521428D01*
X281074761Y-34473809D01*
X281122380Y-34378571D01*
X281122380Y-34283333D01*
X281074761Y-33569047D02*
X281122380Y-33664285D01*
X281122380Y-33854761D01*
X281074761Y-33950000D01*
X280979523Y-33997619D01*
X280598571Y-33997619D01*
X280503333Y-33950000D01*
X280455714Y-33854761D01*
X280455714Y-33664285D01*
X280503333Y-33569047D01*
X280598571Y-33521428D01*
X280693809Y-33521428D01*
X280789047Y-33997619D01*
X281074761Y-32378571D02*
X281122380Y-32235714D01*
X281122380Y-31997619D01*
X281074761Y-31902380D01*
X281027142Y-31854761D01*
X280931904Y-31807142D01*
X280836666Y-31807142D01*
X280741428Y-31854761D01*
X280693809Y-31902380D01*
X280646190Y-31997619D01*
X280598571Y-32188095D01*
X280550952Y-32283333D01*
X280503333Y-32330952D01*
X280408095Y-32378571D01*
X280312857Y-32378571D01*
X280217619Y-32330952D01*
X280170000Y-32283333D01*
X280122380Y-32188095D01*
X280122380Y-31950000D01*
X280170000Y-31807142D01*
X280455714Y-31521428D02*
X280455714Y-31140476D01*
X280122380Y-31378571D02*
X280979523Y-31378571D01*
X281074761Y-31330952D01*
X281122380Y-31235714D01*
X281122380Y-31140476D01*
X280455714Y-30378571D02*
X281122380Y-30378571D01*
X280455714Y-30807142D02*
X280979523Y-30807142D01*
X281074761Y-30759523D01*
X281122380Y-30664285D01*
X281122380Y-30521428D01*
X281074761Y-30426190D01*
X281027142Y-30378571D01*
X281122380Y-29473809D02*
X280122380Y-29473809D01*
X281074761Y-29473809D02*
X281122380Y-29569047D01*
X281122380Y-29759523D01*
X281074761Y-29854761D01*
X281027142Y-29902380D01*
X280931904Y-29950000D01*
X280646190Y-29950000D01*
X280550952Y-29902380D01*
X280503333Y-29854761D01*
X280455714Y-29759523D01*
X280455714Y-29569047D01*
X280503333Y-29473809D01*
X281122380Y-28997619D02*
X280455714Y-28997619D01*
X280122380Y-28997619D02*
X280170000Y-29045238D01*
X280217619Y-28997619D01*
X280170000Y-28950000D01*
X280122380Y-28997619D01*
X280217619Y-28997619D01*
X281122380Y-28378571D02*
X281074761Y-28473809D01*
X281027142Y-28521428D01*
X280931904Y-28569047D01*
X280646190Y-28569047D01*
X280550952Y-28521428D01*
X280503333Y-28473809D01*
X280455714Y-28378571D01*
X280455714Y-28235714D01*
X280503333Y-28140476D01*
X280550952Y-28092857D01*
X280646190Y-28045238D01*
X280931904Y-28045238D01*
X281027142Y-28092857D01*
X281074761Y-28140476D01*
X281122380Y-28235714D01*
X281122380Y-28378571D01*
X281074761Y-27664285D02*
X281122380Y-27569047D01*
X281122380Y-27378571D01*
X281074761Y-27283333D01*
X280979523Y-27235714D01*
X280931904Y-27235714D01*
X280836666Y-27283333D01*
X280789047Y-27378571D01*
X280789047Y-27521428D01*
X280741428Y-27616666D01*
X280646190Y-27664285D01*
X280598571Y-27664285D01*
X280503333Y-27616666D01*
X280455714Y-27521428D01*
X280455714Y-27378571D01*
X280503333Y-27283333D01*
X137977619Y-47657142D02*
X138453809Y-47323809D01*
X137977619Y-47085714D02*
X138977619Y-47085714D01*
X138977619Y-47466666D01*
X138930000Y-47561904D01*
X138882380Y-47609523D01*
X138787142Y-47657142D01*
X138644285Y-47657142D01*
X138549047Y-47609523D01*
X138501428Y-47561904D01*
X138453809Y-47466666D01*
X138453809Y-47085714D01*
X138025238Y-48466666D02*
X137977619Y-48371428D01*
X137977619Y-48180952D01*
X138025238Y-48085714D01*
X138120476Y-48038095D01*
X138501428Y-48038095D01*
X138596666Y-48085714D01*
X138644285Y-48180952D01*
X138644285Y-48371428D01*
X138596666Y-48466666D01*
X138501428Y-48514285D01*
X138406190Y-48514285D01*
X138310952Y-48038095D01*
X138644285Y-48847619D02*
X137977619Y-49085714D01*
X138644285Y-49323809D01*
X137977619Y-49704761D02*
X138644285Y-49704761D01*
X138977619Y-49704761D02*
X138930000Y-49657142D01*
X138882380Y-49704761D01*
X138930000Y-49752380D01*
X138977619Y-49704761D01*
X138882380Y-49704761D01*
X138025238Y-50133333D02*
X137977619Y-50228571D01*
X137977619Y-50419047D01*
X138025238Y-50514285D01*
X138120476Y-50561904D01*
X138168095Y-50561904D01*
X138263333Y-50514285D01*
X138310952Y-50419047D01*
X138310952Y-50276190D01*
X138358571Y-50180952D01*
X138453809Y-50133333D01*
X138501428Y-50133333D01*
X138596666Y-50180952D01*
X138644285Y-50276190D01*
X138644285Y-50419047D01*
X138596666Y-50514285D01*
X137977619Y-50990476D02*
X138644285Y-50990476D01*
X138977619Y-50990476D02*
X138930000Y-50942857D01*
X138882380Y-50990476D01*
X138930000Y-51038095D01*
X138977619Y-50990476D01*
X138882380Y-50990476D01*
X137977619Y-51609523D02*
X138025238Y-51514285D01*
X138072857Y-51466666D01*
X138168095Y-51419047D01*
X138453809Y-51419047D01*
X138549047Y-51466666D01*
X138596666Y-51514285D01*
X138644285Y-51609523D01*
X138644285Y-51752380D01*
X138596666Y-51847619D01*
X138549047Y-51895238D01*
X138453809Y-51942857D01*
X138168095Y-51942857D01*
X138072857Y-51895238D01*
X138025238Y-51847619D01*
X137977619Y-51752380D01*
X137977619Y-51609523D01*
X138644285Y-52371428D02*
X137977619Y-52371428D01*
X138549047Y-52371428D02*
X138596666Y-52419047D01*
X138644285Y-52514285D01*
X138644285Y-52657142D01*
X138596666Y-52752380D01*
X138501428Y-52800000D01*
X137977619Y-52800000D01*
X137977619Y-54561904D02*
X137977619Y-53990476D01*
X137977619Y-54276190D02*
X138977619Y-54276190D01*
X138834761Y-54180952D01*
X138739523Y-54085714D01*
X138691904Y-53990476D01*
X136437619Y-46815952D02*
X135723333Y-46815952D01*
X135580476Y-46768333D01*
X135485238Y-46673095D01*
X135437619Y-46530238D01*
X135437619Y-46435000D01*
X135437619Y-47768333D02*
X135437619Y-47292142D01*
X136437619Y-47292142D01*
X135532857Y-48673095D02*
X135485238Y-48625476D01*
X135437619Y-48482619D01*
X135437619Y-48387380D01*
X135485238Y-48244523D01*
X135580476Y-48149285D01*
X135675714Y-48101666D01*
X135866190Y-48054047D01*
X136009047Y-48054047D01*
X136199523Y-48101666D01*
X136294761Y-48149285D01*
X136390000Y-48244523D01*
X136437619Y-48387380D01*
X136437619Y-48482619D01*
X136390000Y-48625476D01*
X136342380Y-48673095D01*
X136437619Y-49387380D02*
X135723333Y-49387380D01*
X135580476Y-49339761D01*
X135485238Y-49244523D01*
X135437619Y-49101666D01*
X135437619Y-49006428D01*
X135437619Y-50339761D02*
X135437619Y-49863571D01*
X136437619Y-49863571D01*
X135532857Y-51244523D02*
X135485238Y-51196904D01*
X135437619Y-51054047D01*
X135437619Y-50958809D01*
X135485238Y-50815952D01*
X135580476Y-50720714D01*
X135675714Y-50673095D01*
X135866190Y-50625476D01*
X136009047Y-50625476D01*
X136199523Y-50673095D01*
X136294761Y-50720714D01*
X136390000Y-50815952D01*
X136437619Y-50958809D01*
X136437619Y-51054047D01*
X136390000Y-51196904D01*
X136342380Y-51244523D01*
X136437619Y-51958809D02*
X135723333Y-51958809D01*
X135580476Y-51911190D01*
X135485238Y-51815952D01*
X135437619Y-51673095D01*
X135437619Y-51577857D01*
X135437619Y-52911190D02*
X135437619Y-52435000D01*
X136437619Y-52435000D01*
X135532857Y-53815952D02*
X135485238Y-53768333D01*
X135437619Y-53625476D01*
X135437619Y-53530238D01*
X135485238Y-53387380D01*
X135580476Y-53292142D01*
X135675714Y-53244523D01*
X135866190Y-53196904D01*
X136009047Y-53196904D01*
X136199523Y-53244523D01*
X136294761Y-53292142D01*
X136390000Y-53387380D01*
X136437619Y-53530238D01*
X136437619Y-53625476D01*
X136390000Y-53768333D01*
X136342380Y-53815952D01*
X136437619Y-54530238D02*
X135723333Y-54530238D01*
X135580476Y-54482619D01*
X135485238Y-54387380D01*
X135437619Y-54244523D01*
X135437619Y-54149285D01*
X135437619Y-55482619D02*
X135437619Y-55006428D01*
X136437619Y-55006428D01*
X135532857Y-56387380D02*
X135485238Y-56339761D01*
X135437619Y-56196904D01*
X135437619Y-56101666D01*
X135485238Y-55958809D01*
X135580476Y-55863571D01*
X135675714Y-55815952D01*
X135866190Y-55768333D01*
X136009047Y-55768333D01*
X136199523Y-55815952D01*
X136294761Y-55863571D01*
X136390000Y-55958809D01*
X136437619Y-56101666D01*
X136437619Y-56196904D01*
X136390000Y-56339761D01*
X136342380Y-56387380D01*
X140517619Y-47680952D02*
X140517619Y-47204761D01*
X141517619Y-47204761D01*
X141041428Y-48014285D02*
X141041428Y-48347619D01*
X140517619Y-48490476D02*
X140517619Y-48014285D01*
X141517619Y-48014285D01*
X141517619Y-48490476D01*
X140517619Y-48919047D02*
X141517619Y-48919047D01*
X141517619Y-49157142D01*
X141470000Y-49300000D01*
X141374761Y-49395238D01*
X141279523Y-49442857D01*
X141089047Y-49490476D01*
X140946190Y-49490476D01*
X140755714Y-49442857D01*
X140660476Y-49395238D01*
X140565238Y-49300000D01*
X140517619Y-49157142D01*
X140517619Y-48919047D01*
X140517619Y-50680952D02*
X141517619Y-50680952D01*
X141517619Y-51061904D01*
X141470000Y-51157142D01*
X141422380Y-51204761D01*
X141327142Y-51252380D01*
X141184285Y-51252380D01*
X141089047Y-51204761D01*
X141041428Y-51157142D01*
X140993809Y-51061904D01*
X140993809Y-50680952D01*
X140517619Y-52109523D02*
X141041428Y-52109523D01*
X141136666Y-52061904D01*
X141184285Y-51966666D01*
X141184285Y-51776190D01*
X141136666Y-51680952D01*
X140565238Y-52109523D02*
X140517619Y-52014285D01*
X140517619Y-51776190D01*
X140565238Y-51680952D01*
X140660476Y-51633333D01*
X140755714Y-51633333D01*
X140850952Y-51680952D01*
X140898571Y-51776190D01*
X140898571Y-52014285D01*
X140946190Y-52109523D01*
X141184285Y-52585714D02*
X140517619Y-52585714D01*
X141089047Y-52585714D02*
X141136666Y-52633333D01*
X141184285Y-52728571D01*
X141184285Y-52871428D01*
X141136666Y-52966666D01*
X141041428Y-53014285D01*
X140517619Y-53014285D01*
X140565238Y-53871428D02*
X140517619Y-53776190D01*
X140517619Y-53585714D01*
X140565238Y-53490476D01*
X140660476Y-53442857D01*
X141041428Y-53442857D01*
X141136666Y-53490476D01*
X141184285Y-53585714D01*
X141184285Y-53776190D01*
X141136666Y-53871428D01*
X141041428Y-53919047D01*
X140946190Y-53919047D01*
X140850952Y-53442857D01*
X140517619Y-54490476D02*
X140565238Y-54395238D01*
X140660476Y-54347619D01*
X141517619Y-54347619D01*
D12*
%TO.C,U8*%
X177690000Y-36255000D02*
X179340000Y-36255000D01*
X177690000Y-15815000D02*
X177690000Y-36255000D01*
X182990000Y-15815000D02*
X177690000Y-15815000D01*
X182990000Y-36255000D02*
X182990000Y-15815000D01*
X181340000Y-36255000D02*
X182990000Y-36255000D01*
X179340000Y-36255000D02*
G75*
G02*
X181340000Y-36255000I1000000J0D01*
G01*
%TO.C,C1*%
X278656252Y-93150000D02*
X276333748Y-93150000D01*
X278656252Y-89730000D02*
X276333748Y-89730000D01*
%TO.C,C2*%
X265538748Y-84260000D02*
X267861252Y-84260000D01*
X265538748Y-80840000D02*
X267861252Y-80840000D01*
D10*
%TO.C,D1*%
X245140000Y-93770000D02*
X245540000Y-93770000D01*
X245140000Y-92070000D02*
X245140000Y-93770000D01*
X245140000Y-93770000D02*
X244740000Y-93770000D01*
X245140000Y-94270000D02*
X244740000Y-93770000D01*
X245540000Y-93770000D02*
X245140000Y-94270000D01*
X245640000Y-94370000D02*
X244740000Y-94370000D01*
X245140000Y-94470000D02*
X245140000Y-95970000D01*
X257840000Y-99170000D02*
X257840000Y-98670000D01*
X257840000Y-99170000D02*
X257340000Y-99170000D01*
X257840000Y-88770000D02*
X257840000Y-89270000D01*
X257840000Y-88770000D02*
X257340000Y-88770000D01*
X232340000Y-99170000D02*
X232840000Y-99170000D01*
X232340000Y-99170000D02*
X232340000Y-98670000D01*
X232340000Y-88770000D02*
X232340000Y-89270000D01*
X232340000Y-88770000D02*
X232840000Y-88770000D01*
%TO.C,D3*%
X179000000Y-88770000D02*
X179500000Y-88770000D01*
X179000000Y-88770000D02*
X179000000Y-89270000D01*
X179000000Y-99170000D02*
X179000000Y-98670000D01*
X179000000Y-99170000D02*
X179500000Y-99170000D01*
X204500000Y-88770000D02*
X204000000Y-88770000D01*
X204500000Y-88770000D02*
X204500000Y-89270000D01*
X204500000Y-99170000D02*
X204000000Y-99170000D01*
X204500000Y-99170000D02*
X204500000Y-98670000D01*
X191800000Y-94470000D02*
X191800000Y-95970000D01*
X192300000Y-94370000D02*
X191400000Y-94370000D01*
X192200000Y-93770000D02*
X191800000Y-94270000D01*
X191800000Y-94270000D02*
X191400000Y-93770000D01*
X191800000Y-93770000D02*
X191400000Y-93770000D01*
X191800000Y-92070000D02*
X191800000Y-93770000D01*
X191800000Y-93770000D02*
X192200000Y-93770000D01*
D12*
%TO.C,D6*%
X188915000Y-70150000D02*
X188915000Y-57150000D01*
X228915000Y-44150000D02*
X228915000Y-70150000D01*
X188915000Y-57150000D02*
X188915000Y-44150000D01*
X226415000Y-57150000D02*
G75*
G03*
X226415000Y-57150000I-17500000J0D01*
G01*
X219915000Y-57150000D02*
G75*
G03*
X219915000Y-57150000I-11000000J0D01*
G01*
X210415000Y-71150000D02*
G75*
G03*
X210415000Y-71150000I-1500000J0D01*
G01*
X210915000Y-43150000D02*
G75*
G03*
X210915000Y-43150000I-2000000J0D01*
G01*
%TO.C,J1*%
X141030000Y-82490000D02*
X135830000Y-82490000D01*
X141030000Y-87630000D02*
X141030000Y-82490000D01*
X135830000Y-90230000D02*
X135830000Y-82490000D01*
X141030000Y-87630000D02*
X138430000Y-87630000D01*
X138430000Y-87630000D02*
X138430000Y-90230000D01*
X138430000Y-90230000D02*
X135830000Y-90230000D01*
X141030000Y-88900000D02*
X141030000Y-90230000D01*
X141030000Y-90230000D02*
X139700000Y-90230000D01*
%TO.C,J2*%
X138490000Y-68520000D02*
X135830000Y-68520000D01*
X138490000Y-71120000D02*
X138490000Y-68520000D01*
X135830000Y-71120000D02*
X135830000Y-68520000D01*
X138490000Y-71120000D02*
X135830000Y-71120000D01*
X138490000Y-72390000D02*
X138490000Y-73720000D01*
X138490000Y-73720000D02*
X137160000Y-73720000D01*
%TO.C,R1*%
X276771263Y-73575000D02*
X278218737Y-73575000D01*
X276771263Y-76285000D02*
X278218737Y-76285000D01*
%TO.C,RN1*%
X264330000Y-104270000D02*
X264330000Y-101470000D01*
X264330000Y-101470000D02*
X236050000Y-101470000D01*
X236050000Y-101470000D02*
X236050000Y-104270000D01*
X236050000Y-104270000D02*
X264330000Y-104270000D01*
X261620000Y-104270000D02*
X261620000Y-101470000D01*
%TO.C,RN4*%
X173990000Y-104270000D02*
X173990000Y-101470000D01*
X148420000Y-104270000D02*
X176700000Y-104270000D01*
X148420000Y-101470000D02*
X148420000Y-104270000D01*
X176700000Y-101470000D02*
X148420000Y-101470000D01*
X176700000Y-104270000D02*
X176700000Y-101470000D01*
D13*
%TO.C,RN5*%
X165277800Y-33467040D02*
X165277800Y-33842960D01*
X161112200Y-33467040D02*
X161112200Y-33842960D01*
%TO.C,RN6*%
X202387200Y-33467040D02*
X202387200Y-33842960D01*
X206552800Y-33467040D02*
X206552800Y-33842960D01*
%TO.C,RN8*%
X171627800Y-33467040D02*
X171627800Y-33842960D01*
X167462200Y-33467040D02*
X167462200Y-33842960D01*
%TO.C,RN9*%
X210642200Y-33467040D02*
X210642200Y-33842960D01*
X214807800Y-33467040D02*
X214807800Y-33842960D01*
D12*
%TO.C,U2*%
X261045000Y-81550000D02*
X261045000Y-79900000D01*
X261045000Y-79900000D02*
X240605000Y-79900000D01*
X240605000Y-79900000D02*
X240605000Y-85200000D01*
X240605000Y-85200000D02*
X261045000Y-85200000D01*
X261045000Y-85200000D02*
X261045000Y-83550000D01*
X261045000Y-83550000D02*
G75*
G02*
X261045000Y-81550000I0J1000000D01*
G01*
%TO.C,U3*%
X238185000Y-81550000D02*
X238185000Y-79900000D01*
X238185000Y-79900000D02*
X217745000Y-79900000D01*
X217745000Y-79900000D02*
X217745000Y-85200000D01*
X217745000Y-85200000D02*
X238185000Y-85200000D01*
X238185000Y-85200000D02*
X238185000Y-83550000D01*
X238185000Y-83550000D02*
G75*
G02*
X238185000Y-81550000I0J1000000D01*
G01*
%TO.C,U5*%
X193735000Y-85200000D02*
X193735000Y-83550000D01*
X173295000Y-85200000D02*
X193735000Y-85200000D01*
X173295000Y-79900000D02*
X173295000Y-85200000D01*
X193735000Y-79900000D02*
X173295000Y-79900000D01*
X193735000Y-81550000D02*
X193735000Y-79900000D01*
X193735000Y-83550000D02*
G75*
G02*
X193735000Y-81550000I0J1000000D01*
G01*
%TO.C,U6*%
X170875000Y-81550000D02*
X170875000Y-79900000D01*
X170875000Y-79900000D02*
X150435000Y-79900000D01*
X150435000Y-79900000D02*
X150435000Y-85200000D01*
X150435000Y-85200000D02*
X170875000Y-85200000D01*
X170875000Y-85200000D02*
X170875000Y-83550000D01*
X170875000Y-83550000D02*
G75*
G02*
X170875000Y-81550000I0J1000000D01*
G01*
%TO.C,U7*%
X151400000Y-15815000D02*
X149750000Y-15815000D01*
X149750000Y-15815000D02*
X149750000Y-36255000D01*
X149750000Y-36255000D02*
X155050000Y-36255000D01*
X155050000Y-36255000D02*
X155050000Y-15815000D01*
X155050000Y-15815000D02*
X153400000Y-15815000D01*
X153400000Y-15815000D02*
G75*
G02*
X151400000Y-15815000I-1000000J0D01*
G01*
%TO.C,U9*%
X193310000Y-15815000D02*
X191660000Y-15815000D01*
X191660000Y-15815000D02*
X191660000Y-36255000D01*
X191660000Y-36255000D02*
X196960000Y-36255000D01*
X196960000Y-36255000D02*
X196960000Y-15815000D01*
X196960000Y-15815000D02*
X195310000Y-15815000D01*
X195310000Y-15815000D02*
G75*
G02*
X193310000Y-15815000I-1000000J0D01*
G01*
%TO.C,U10*%
X223885000Y-36255000D02*
X225535000Y-36255000D01*
X225535000Y-36255000D02*
X225535000Y-15815000D01*
X225535000Y-15815000D02*
X220235000Y-15815000D01*
X220235000Y-15815000D02*
X220235000Y-36255000D01*
X220235000Y-36255000D02*
X221885000Y-36255000D01*
X221885000Y-36255000D02*
G75*
G02*
X223885000Y-36255000I1000000J0D01*
G01*
%TO.C,U11*%
X239505000Y-15815000D02*
X237855000Y-15815000D01*
X239505000Y-36255000D02*
X239505000Y-15815000D01*
X234205000Y-36255000D02*
X239505000Y-36255000D01*
X234205000Y-15815000D02*
X234205000Y-36255000D01*
X235855000Y-15815000D02*
X234205000Y-15815000D01*
X237855000Y-15815000D02*
G75*
G02*
X235855000Y-15815000I-1000000J0D01*
G01*
%TO.C,U12*%
X263415000Y-36255000D02*
X265065000Y-36255000D01*
X263415000Y-15815000D02*
X263415000Y-36255000D01*
X268715000Y-15815000D02*
X263415000Y-15815000D01*
X268715000Y-36255000D02*
X268715000Y-15815000D01*
X267065000Y-36255000D02*
X268715000Y-36255000D01*
X265065000Y-36255000D02*
G75*
G02*
X267065000Y-36255000I1000000J0D01*
G01*
D10*
%TO.C,D2*%
X218470000Y-93770000D02*
X218870000Y-93770000D01*
X218470000Y-92070000D02*
X218470000Y-93770000D01*
X218470000Y-93770000D02*
X218070000Y-93770000D01*
X218470000Y-94270000D02*
X218070000Y-93770000D01*
X218870000Y-93770000D02*
X218470000Y-94270000D01*
X218970000Y-94370000D02*
X218070000Y-94370000D01*
X218470000Y-94470000D02*
X218470000Y-95970000D01*
X231170000Y-99170000D02*
X231170000Y-98670000D01*
X231170000Y-99170000D02*
X230670000Y-99170000D01*
X231170000Y-88770000D02*
X231170000Y-89270000D01*
X231170000Y-88770000D02*
X230670000Y-88770000D01*
X205670000Y-99170000D02*
X206170000Y-99170000D01*
X205670000Y-99170000D02*
X205670000Y-98670000D01*
X205670000Y-88770000D02*
X205670000Y-89270000D01*
X205670000Y-88770000D02*
X206170000Y-88770000D01*
%TO.C,D4*%
X152330000Y-88770000D02*
X152830000Y-88770000D01*
X152330000Y-88770000D02*
X152330000Y-89270000D01*
X152330000Y-99170000D02*
X152330000Y-98670000D01*
X152330000Y-99170000D02*
X152830000Y-99170000D01*
X177830000Y-88770000D02*
X177330000Y-88770000D01*
X177830000Y-88770000D02*
X177830000Y-89270000D01*
X177830000Y-99170000D02*
X177330000Y-99170000D01*
X177830000Y-99170000D02*
X177830000Y-98670000D01*
X165130000Y-94470000D02*
X165130000Y-95970000D01*
X165630000Y-94370000D02*
X164730000Y-94370000D01*
X165530000Y-93770000D02*
X165130000Y-94270000D01*
X165130000Y-94270000D02*
X164730000Y-93770000D01*
X165130000Y-93770000D02*
X164730000Y-93770000D01*
X165130000Y-92070000D02*
X165130000Y-93770000D01*
X165130000Y-93770000D02*
X165530000Y-93770000D01*
D12*
%TO.C,D5*%
X168370000Y-43150000D02*
G75*
G03*
X168370000Y-43150000I-2000000J0D01*
G01*
X167870000Y-71150000D02*
G75*
G03*
X167870000Y-71150000I-1500000J0D01*
G01*
X177370000Y-57150000D02*
G75*
G03*
X177370000Y-57150000I-11000000J0D01*
G01*
X183870000Y-57150000D02*
G75*
G03*
X183870000Y-57150000I-17500000J0D01*
G01*
X146370000Y-57150000D02*
X146370000Y-44150000D01*
X186370000Y-44150000D02*
X186370000Y-70150000D01*
X146370000Y-70150000D02*
X146370000Y-57150000D01*
%TO.C,D7*%
X231460000Y-70150000D02*
X231460000Y-57150000D01*
X271460000Y-44150000D02*
X271460000Y-70150000D01*
X231460000Y-57150000D02*
X231460000Y-44150000D01*
X268960000Y-57150000D02*
G75*
G03*
X268960000Y-57150000I-17500000J0D01*
G01*
X262460000Y-57150000D02*
G75*
G03*
X262460000Y-57150000I-11000000J0D01*
G01*
X252960000Y-71150000D02*
G75*
G03*
X252960000Y-71150000I-1500000J0D01*
G01*
X253460000Y-43150000D02*
G75*
G03*
X253460000Y-43150000I-2000000J0D01*
G01*
%TO.C,RN2*%
X232410000Y-104270000D02*
X232410000Y-101470000D01*
X206840000Y-104270000D02*
X235120000Y-104270000D01*
X206840000Y-101470000D02*
X206840000Y-104270000D01*
X235120000Y-101470000D02*
X206840000Y-101470000D01*
X235120000Y-104270000D02*
X235120000Y-101470000D01*
%TO.C,RN3*%
X205910000Y-104270000D02*
X205910000Y-101470000D01*
X205910000Y-101470000D02*
X177630000Y-101470000D01*
X177630000Y-101470000D02*
X177630000Y-104270000D01*
X177630000Y-104270000D02*
X205910000Y-104270000D01*
X203200000Y-104270000D02*
X203200000Y-101470000D01*
D13*
%TO.C,RN7*%
X245567200Y-33467040D02*
X245567200Y-33842960D01*
X249732800Y-33467040D02*
X249732800Y-33842960D01*
%TO.C,RN10*%
X257352800Y-33467040D02*
X257352800Y-33842960D01*
X253187200Y-33467040D02*
X253187200Y-33842960D01*
D10*
%TO.C,U1*%
X272505000Y-79775000D02*
X272505000Y-80075000D01*
X272805000Y-79775000D02*
X272505000Y-79775000D01*
X272505000Y-86575000D02*
X272505000Y-86275000D01*
X272805000Y-86575000D02*
X272505000Y-86575000D01*
X282505000Y-86575000D02*
X282505000Y-86275000D01*
X282205000Y-86575000D02*
X282505000Y-86575000D01*
X282505000Y-79775000D02*
X282505000Y-80075000D01*
X282205000Y-79775000D02*
X282505000Y-79775000D01*
D12*
%TO.C,U4*%
X215960000Y-85200000D02*
X215960000Y-83550000D01*
X195520000Y-85200000D02*
X215960000Y-85200000D01*
X195520000Y-79900000D02*
X195520000Y-85200000D01*
X215960000Y-79900000D02*
X195520000Y-79900000D01*
X215960000Y-81550000D02*
X215960000Y-79900000D01*
X215960000Y-83550000D02*
G75*
G02*
X215960000Y-81550000I0J1000000D01*
G01*
%TO.C,U8*%
D11*
X179578095Y-36707380D02*
X179578095Y-37516904D01*
X179625714Y-37612142D01*
X179673333Y-37659761D01*
X179768571Y-37707380D01*
X179959047Y-37707380D01*
X180054285Y-37659761D01*
X180101904Y-37612142D01*
X180149523Y-37516904D01*
X180149523Y-36707380D01*
X180768571Y-37135952D02*
X180673333Y-37088333D01*
X180625714Y-37040714D01*
X180578095Y-36945476D01*
X180578095Y-36897857D01*
X180625714Y-36802619D01*
X180673333Y-36755000D01*
X180768571Y-36707380D01*
X180959047Y-36707380D01*
X181054285Y-36755000D01*
X181101904Y-36802619D01*
X181149523Y-36897857D01*
X181149523Y-36945476D01*
X181101904Y-37040714D01*
X181054285Y-37088333D01*
X180959047Y-37135952D01*
X180768571Y-37135952D01*
X180673333Y-37183571D01*
X180625714Y-37231190D01*
X180578095Y-37326428D01*
X180578095Y-37516904D01*
X180625714Y-37612142D01*
X180673333Y-37659761D01*
X180768571Y-37707380D01*
X180959047Y-37707380D01*
X181054285Y-37659761D01*
X181101904Y-37612142D01*
X181149523Y-37516904D01*
X181149523Y-37326428D01*
X181101904Y-37231190D01*
X181054285Y-37183571D01*
X180959047Y-37135952D01*
%TO.C,C1*%
X277328333Y-94447142D02*
X277280714Y-94494761D01*
X277137857Y-94542380D01*
X277042619Y-94542380D01*
X276899761Y-94494761D01*
X276804523Y-94399523D01*
X276756904Y-94304285D01*
X276709285Y-94113809D01*
X276709285Y-93970952D01*
X276756904Y-93780476D01*
X276804523Y-93685238D01*
X276899761Y-93590000D01*
X277042619Y-93542380D01*
X277137857Y-93542380D01*
X277280714Y-93590000D01*
X277328333Y-93637619D01*
X278280714Y-94542380D02*
X277709285Y-94542380D01*
X277995000Y-94542380D02*
X277995000Y-93542380D01*
X277899761Y-93685238D01*
X277804523Y-93780476D01*
X277709285Y-93828095D01*
%TO.C,C2*%
X266533333Y-80257142D02*
X266485714Y-80304761D01*
X266342857Y-80352380D01*
X266247619Y-80352380D01*
X266104761Y-80304761D01*
X266009523Y-80209523D01*
X265961904Y-80114285D01*
X265914285Y-79923809D01*
X265914285Y-79780952D01*
X265961904Y-79590476D01*
X266009523Y-79495238D01*
X266104761Y-79400000D01*
X266247619Y-79352380D01*
X266342857Y-79352380D01*
X266485714Y-79400000D01*
X266533333Y-79447619D01*
X266914285Y-79447619D02*
X266961904Y-79400000D01*
X267057142Y-79352380D01*
X267295238Y-79352380D01*
X267390476Y-79400000D01*
X267438095Y-79447619D01*
X267485714Y-79542857D01*
X267485714Y-79638095D01*
X267438095Y-79780952D01*
X266866666Y-80352380D01*
X267485714Y-80352380D01*
%TO.C,D1*%
X259092380Y-94908095D02*
X258092380Y-94908095D01*
X258092380Y-94670000D01*
X258140000Y-94527142D01*
X258235238Y-94431904D01*
X258330476Y-94384285D01*
X258520952Y-94336666D01*
X258663809Y-94336666D01*
X258854285Y-94384285D01*
X258949523Y-94431904D01*
X259044761Y-94527142D01*
X259092380Y-94670000D01*
X259092380Y-94908095D01*
X259092380Y-93384285D02*
X259092380Y-93955714D01*
X259092380Y-93670000D02*
X258092380Y-93670000D01*
X258235238Y-93765238D01*
X258330476Y-93860476D01*
X258378095Y-93955714D01*
%TO.C,D3*%
X205752380Y-94908095D02*
X204752380Y-94908095D01*
X204752380Y-94670000D01*
X204800000Y-94527142D01*
X204895238Y-94431904D01*
X204990476Y-94384285D01*
X205180952Y-94336666D01*
X205323809Y-94336666D01*
X205514285Y-94384285D01*
X205609523Y-94431904D01*
X205704761Y-94527142D01*
X205752380Y-94670000D01*
X205752380Y-94908095D01*
X204752380Y-94003333D02*
X204752380Y-93384285D01*
X205133333Y-93717619D01*
X205133333Y-93574761D01*
X205180952Y-93479523D01*
X205228571Y-93431904D01*
X205323809Y-93384285D01*
X205561904Y-93384285D01*
X205657142Y-93431904D01*
X205704761Y-93479523D01*
X205752380Y-93574761D01*
X205752380Y-93860476D01*
X205704761Y-93955714D01*
X205657142Y-94003333D01*
%TO.C,D6*%
X208176904Y-77602380D02*
X208176904Y-76602380D01*
X208415000Y-76602380D01*
X208557857Y-76650000D01*
X208653095Y-76745238D01*
X208700714Y-76840476D01*
X208748333Y-77030952D01*
X208748333Y-77173809D01*
X208700714Y-77364285D01*
X208653095Y-77459523D01*
X208557857Y-77554761D01*
X208415000Y-77602380D01*
X208176904Y-77602380D01*
X209605476Y-76602380D02*
X209415000Y-76602380D01*
X209319761Y-76650000D01*
X209272142Y-76697619D01*
X209176904Y-76840476D01*
X209129285Y-77030952D01*
X209129285Y-77411904D01*
X209176904Y-77507142D01*
X209224523Y-77554761D01*
X209319761Y-77602380D01*
X209510238Y-77602380D01*
X209605476Y-77554761D01*
X209653095Y-77507142D01*
X209700714Y-77411904D01*
X209700714Y-77173809D01*
X209653095Y-77078571D01*
X209605476Y-77030952D01*
X209510238Y-76983333D01*
X209319761Y-76983333D01*
X209224523Y-77030952D01*
X209176904Y-77078571D01*
X209129285Y-77173809D01*
%TO.C,J1*%
X138096666Y-90682380D02*
X138096666Y-91396666D01*
X138049047Y-91539523D01*
X137953809Y-91634761D01*
X137810952Y-91682380D01*
X137715714Y-91682380D01*
X139096666Y-91682380D02*
X138525238Y-91682380D01*
X138810952Y-91682380D02*
X138810952Y-90682380D01*
X138715714Y-90825238D01*
X138620476Y-90920476D01*
X138525238Y-90968095D01*
%TO.C,J2*%
X136826666Y-74172380D02*
X136826666Y-74886666D01*
X136779047Y-75029523D01*
X136683809Y-75124761D01*
X136540952Y-75172380D01*
X136445714Y-75172380D01*
X137255238Y-74267619D02*
X137302857Y-74220000D01*
X137398095Y-74172380D01*
X137636190Y-74172380D01*
X137731428Y-74220000D01*
X137779047Y-74267619D01*
X137826666Y-74362857D01*
X137826666Y-74458095D01*
X137779047Y-74600952D01*
X137207619Y-75172380D01*
X137826666Y-75172380D01*
%TO.C,R1*%
X277328333Y-73102380D02*
X276995000Y-72626190D01*
X276756904Y-73102380D02*
X276756904Y-72102380D01*
X277137857Y-72102380D01*
X277233095Y-72150000D01*
X277280714Y-72197619D01*
X277328333Y-72292857D01*
X277328333Y-72435714D01*
X277280714Y-72530952D01*
X277233095Y-72578571D01*
X277137857Y-72626190D01*
X276756904Y-72626190D01*
X278280714Y-73102380D02*
X277709285Y-73102380D01*
X277995000Y-73102380D02*
X277995000Y-72102380D01*
X277899761Y-72245238D01*
X277804523Y-72340476D01*
X277709285Y-72388095D01*
%TO.C,RN1*%
X248229523Y-105722380D02*
X247896190Y-105246190D01*
X247658095Y-105722380D02*
X247658095Y-104722380D01*
X248039047Y-104722380D01*
X248134285Y-104770000D01*
X248181904Y-104817619D01*
X248229523Y-104912857D01*
X248229523Y-105055714D01*
X248181904Y-105150952D01*
X248134285Y-105198571D01*
X248039047Y-105246190D01*
X247658095Y-105246190D01*
X248658095Y-105722380D02*
X248658095Y-104722380D01*
X249229523Y-105722380D01*
X249229523Y-104722380D01*
X250229523Y-105722380D02*
X249658095Y-105722380D01*
X249943809Y-105722380D02*
X249943809Y-104722380D01*
X249848571Y-104865238D01*
X249753333Y-104960476D01*
X249658095Y-105008095D01*
%TO.C,RN4*%
X160599523Y-105722380D02*
X160266190Y-105246190D01*
X160028095Y-105722380D02*
X160028095Y-104722380D01*
X160409047Y-104722380D01*
X160504285Y-104770000D01*
X160551904Y-104817619D01*
X160599523Y-104912857D01*
X160599523Y-105055714D01*
X160551904Y-105150952D01*
X160504285Y-105198571D01*
X160409047Y-105246190D01*
X160028095Y-105246190D01*
X161028095Y-105722380D02*
X161028095Y-104722380D01*
X161599523Y-105722380D01*
X161599523Y-104722380D01*
X162504285Y-105055714D02*
X162504285Y-105722380D01*
X162266190Y-104674761D02*
X162028095Y-105389047D01*
X162647142Y-105389047D01*
%TO.C,RN5*%
X163647380Y-34345476D02*
X163171190Y-34678809D01*
X163647380Y-34916904D02*
X162647380Y-34916904D01*
X162647380Y-34535952D01*
X162695000Y-34440714D01*
X162742619Y-34393095D01*
X162837857Y-34345476D01*
X162980714Y-34345476D01*
X163075952Y-34393095D01*
X163123571Y-34440714D01*
X163171190Y-34535952D01*
X163171190Y-34916904D01*
X163647380Y-33916904D02*
X162647380Y-33916904D01*
X163647380Y-33345476D01*
X162647380Y-33345476D01*
X162647380Y-32393095D02*
X162647380Y-32869285D01*
X163123571Y-32916904D01*
X163075952Y-32869285D01*
X163028333Y-32774047D01*
X163028333Y-32535952D01*
X163075952Y-32440714D01*
X163123571Y-32393095D01*
X163218809Y-32345476D01*
X163456904Y-32345476D01*
X163552142Y-32393095D01*
X163599761Y-32440714D01*
X163647380Y-32535952D01*
X163647380Y-32774047D01*
X163599761Y-32869285D01*
X163552142Y-32916904D01*
X163647380Y-36464523D02*
X163171190Y-36797857D01*
X163647380Y-37035952D02*
X162647380Y-37035952D01*
X162647380Y-36655000D01*
X162695000Y-36559761D01*
X162742619Y-36512142D01*
X162837857Y-36464523D01*
X162980714Y-36464523D01*
X163075952Y-36512142D01*
X163123571Y-36559761D01*
X163171190Y-36655000D01*
X163171190Y-37035952D01*
X163742619Y-36274047D02*
X163742619Y-35512142D01*
X163647380Y-35274047D02*
X162647380Y-35274047D01*
X162647380Y-34893095D01*
X162695000Y-34797857D01*
X162742619Y-34750238D01*
X162837857Y-34702619D01*
X162980714Y-34702619D01*
X163075952Y-34750238D01*
X163123571Y-34797857D01*
X163171190Y-34893095D01*
X163171190Y-35274047D01*
X163647380Y-33845476D02*
X163123571Y-33845476D01*
X163028333Y-33893095D01*
X162980714Y-33988333D01*
X162980714Y-34178809D01*
X163028333Y-34274047D01*
X163599761Y-33845476D02*
X163647380Y-33940714D01*
X163647380Y-34178809D01*
X163599761Y-34274047D01*
X163504523Y-34321666D01*
X163409285Y-34321666D01*
X163314047Y-34274047D01*
X163266428Y-34178809D01*
X163266428Y-33940714D01*
X163218809Y-33845476D01*
X163599761Y-32940714D02*
X163647380Y-33035952D01*
X163647380Y-33226428D01*
X163599761Y-33321666D01*
X163552142Y-33369285D01*
X163456904Y-33416904D01*
X163171190Y-33416904D01*
X163075952Y-33369285D01*
X163028333Y-33321666D01*
X162980714Y-33226428D01*
X162980714Y-33035952D01*
X163028333Y-32940714D01*
X163647380Y-32512142D02*
X162647380Y-32512142D01*
X163266428Y-32416904D02*
X163647380Y-32131190D01*
X162980714Y-32131190D02*
X163361666Y-32512142D01*
X162647380Y-31512142D02*
X162647380Y-31416904D01*
X162695000Y-31321666D01*
X162742619Y-31274047D01*
X162837857Y-31226428D01*
X163028333Y-31178809D01*
X163266428Y-31178809D01*
X163456904Y-31226428D01*
X163552142Y-31274047D01*
X163599761Y-31321666D01*
X163647380Y-31416904D01*
X163647380Y-31512142D01*
X163599761Y-31607380D01*
X163552142Y-31655000D01*
X163456904Y-31702619D01*
X163266428Y-31750238D01*
X163028333Y-31750238D01*
X162837857Y-31702619D01*
X162742619Y-31655000D01*
X162695000Y-31607380D01*
X162647380Y-31512142D01*
X163075952Y-30607380D02*
X163028333Y-30702619D01*
X162980714Y-30750238D01*
X162885476Y-30797857D01*
X162837857Y-30797857D01*
X162742619Y-30750238D01*
X162695000Y-30702619D01*
X162647380Y-30607380D01*
X162647380Y-30416904D01*
X162695000Y-30321666D01*
X162742619Y-30274047D01*
X162837857Y-30226428D01*
X162885476Y-30226428D01*
X162980714Y-30274047D01*
X163028333Y-30321666D01*
X163075952Y-30416904D01*
X163075952Y-30607380D01*
X163123571Y-30702619D01*
X163171190Y-30750238D01*
X163266428Y-30797857D01*
X163456904Y-30797857D01*
X163552142Y-30750238D01*
X163599761Y-30702619D01*
X163647380Y-30607380D01*
X163647380Y-30416904D01*
X163599761Y-30321666D01*
X163552142Y-30274047D01*
X163456904Y-30226428D01*
X163266428Y-30226428D01*
X163171190Y-30274047D01*
X163123571Y-30321666D01*
X163075952Y-30416904D01*
X165314380Y-32423100D02*
X165552476Y-32423100D01*
X165457238Y-32661195D02*
X165552476Y-32423100D01*
X165457238Y-32185004D01*
X165742952Y-32565957D02*
X165552476Y-32423100D01*
X165742952Y-32280242D01*
X165314380Y-32423100D02*
X165552476Y-32423100D01*
X165457238Y-32661195D02*
X165552476Y-32423100D01*
X165457238Y-32185004D01*
X165742952Y-32565957D02*
X165552476Y-32423100D01*
X165742952Y-32280242D01*
%TO.C,RN6*%
X204922380Y-34345476D02*
X204446190Y-34678809D01*
X204922380Y-34916904D02*
X203922380Y-34916904D01*
X203922380Y-34535952D01*
X203970000Y-34440714D01*
X204017619Y-34393095D01*
X204112857Y-34345476D01*
X204255714Y-34345476D01*
X204350952Y-34393095D01*
X204398571Y-34440714D01*
X204446190Y-34535952D01*
X204446190Y-34916904D01*
X204922380Y-33916904D02*
X203922380Y-33916904D01*
X204922380Y-33345476D01*
X203922380Y-33345476D01*
X203922380Y-32440714D02*
X203922380Y-32631190D01*
X203970000Y-32726428D01*
X204017619Y-32774047D01*
X204160476Y-32869285D01*
X204350952Y-32916904D01*
X204731904Y-32916904D01*
X204827142Y-32869285D01*
X204874761Y-32821666D01*
X204922380Y-32726428D01*
X204922380Y-32535952D01*
X204874761Y-32440714D01*
X204827142Y-32393095D01*
X204731904Y-32345476D01*
X204493809Y-32345476D01*
X204398571Y-32393095D01*
X204350952Y-32440714D01*
X204303333Y-32535952D01*
X204303333Y-32726428D01*
X204350952Y-32821666D01*
X204398571Y-32869285D01*
X204493809Y-32916904D01*
X204922380Y-36464523D02*
X204446190Y-36797857D01*
X204922380Y-37035952D02*
X203922380Y-37035952D01*
X203922380Y-36655000D01*
X203970000Y-36559761D01*
X204017619Y-36512142D01*
X204112857Y-36464523D01*
X204255714Y-36464523D01*
X204350952Y-36512142D01*
X204398571Y-36559761D01*
X204446190Y-36655000D01*
X204446190Y-37035952D01*
X205017619Y-36274047D02*
X205017619Y-35512142D01*
X204922380Y-35274047D02*
X203922380Y-35274047D01*
X203922380Y-34893095D01*
X203970000Y-34797857D01*
X204017619Y-34750238D01*
X204112857Y-34702619D01*
X204255714Y-34702619D01*
X204350952Y-34750238D01*
X204398571Y-34797857D01*
X204446190Y-34893095D01*
X204446190Y-35274047D01*
X204922380Y-33845476D02*
X204398571Y-33845476D01*
X204303333Y-33893095D01*
X204255714Y-33988333D01*
X204255714Y-34178809D01*
X204303333Y-34274047D01*
X204874761Y-33845476D02*
X204922380Y-33940714D01*
X204922380Y-34178809D01*
X204874761Y-34274047D01*
X204779523Y-34321666D01*
X204684285Y-34321666D01*
X204589047Y-34274047D01*
X204541428Y-34178809D01*
X204541428Y-33940714D01*
X204493809Y-33845476D01*
X204874761Y-32940714D02*
X204922380Y-33035952D01*
X204922380Y-33226428D01*
X204874761Y-33321666D01*
X204827142Y-33369285D01*
X204731904Y-33416904D01*
X204446190Y-33416904D01*
X204350952Y-33369285D01*
X204303333Y-33321666D01*
X204255714Y-33226428D01*
X204255714Y-33035952D01*
X204303333Y-32940714D01*
X204922380Y-32512142D02*
X203922380Y-32512142D01*
X204541428Y-32416904D02*
X204922380Y-32131190D01*
X204255714Y-32131190D02*
X204636666Y-32512142D01*
X203922380Y-31512142D02*
X203922380Y-31416904D01*
X203970000Y-31321666D01*
X204017619Y-31274047D01*
X204112857Y-31226428D01*
X204303333Y-31178809D01*
X204541428Y-31178809D01*
X204731904Y-31226428D01*
X204827142Y-31274047D01*
X204874761Y-31321666D01*
X204922380Y-31416904D01*
X204922380Y-31512142D01*
X204874761Y-31607380D01*
X204827142Y-31655000D01*
X204731904Y-31702619D01*
X204541428Y-31750238D01*
X204303333Y-31750238D01*
X204112857Y-31702619D01*
X204017619Y-31655000D01*
X203970000Y-31607380D01*
X203922380Y-31512142D01*
X204350952Y-30607380D02*
X204303333Y-30702619D01*
X204255714Y-30750238D01*
X204160476Y-30797857D01*
X204112857Y-30797857D01*
X204017619Y-30750238D01*
X203970000Y-30702619D01*
X203922380Y-30607380D01*
X203922380Y-30416904D01*
X203970000Y-30321666D01*
X204017619Y-30274047D01*
X204112857Y-30226428D01*
X204160476Y-30226428D01*
X204255714Y-30274047D01*
X204303333Y-30321666D01*
X204350952Y-30416904D01*
X204350952Y-30607380D01*
X204398571Y-30702619D01*
X204446190Y-30750238D01*
X204541428Y-30797857D01*
X204731904Y-30797857D01*
X204827142Y-30750238D01*
X204874761Y-30702619D01*
X204922380Y-30607380D01*
X204922380Y-30416904D01*
X204874761Y-30321666D01*
X204827142Y-30274047D01*
X204731904Y-30226428D01*
X204541428Y-30226428D01*
X204446190Y-30274047D01*
X204398571Y-30321666D01*
X204350952Y-30416904D01*
X206589380Y-32423100D02*
X206827476Y-32423100D01*
X206732238Y-32661195D02*
X206827476Y-32423100D01*
X206732238Y-32185004D01*
X207017952Y-32565957D02*
X206827476Y-32423100D01*
X207017952Y-32280242D01*
X206589380Y-32423100D02*
X206827476Y-32423100D01*
X206732238Y-32661195D02*
X206827476Y-32423100D01*
X206732238Y-32185004D01*
X207017952Y-32565957D02*
X206827476Y-32423100D01*
X207017952Y-32280242D01*
%TO.C,RN8*%
X169997380Y-34345476D02*
X169521190Y-34678809D01*
X169997380Y-34916904D02*
X168997380Y-34916904D01*
X168997380Y-34535952D01*
X169045000Y-34440714D01*
X169092619Y-34393095D01*
X169187857Y-34345476D01*
X169330714Y-34345476D01*
X169425952Y-34393095D01*
X169473571Y-34440714D01*
X169521190Y-34535952D01*
X169521190Y-34916904D01*
X169997380Y-33916904D02*
X168997380Y-33916904D01*
X169997380Y-33345476D01*
X168997380Y-33345476D01*
X169425952Y-32726428D02*
X169378333Y-32821666D01*
X169330714Y-32869285D01*
X169235476Y-32916904D01*
X169187857Y-32916904D01*
X169092619Y-32869285D01*
X169045000Y-32821666D01*
X168997380Y-32726428D01*
X168997380Y-32535952D01*
X169045000Y-32440714D01*
X169092619Y-32393095D01*
X169187857Y-32345476D01*
X169235476Y-32345476D01*
X169330714Y-32393095D01*
X169378333Y-32440714D01*
X169425952Y-32535952D01*
X169425952Y-32726428D01*
X169473571Y-32821666D01*
X169521190Y-32869285D01*
X169616428Y-32916904D01*
X169806904Y-32916904D01*
X169902142Y-32869285D01*
X169949761Y-32821666D01*
X169997380Y-32726428D01*
X169997380Y-32535952D01*
X169949761Y-32440714D01*
X169902142Y-32393095D01*
X169806904Y-32345476D01*
X169616428Y-32345476D01*
X169521190Y-32393095D01*
X169473571Y-32440714D01*
X169425952Y-32535952D01*
X169997380Y-36464523D02*
X169521190Y-36797857D01*
X169997380Y-37035952D02*
X168997380Y-37035952D01*
X168997380Y-36655000D01*
X169045000Y-36559761D01*
X169092619Y-36512142D01*
X169187857Y-36464523D01*
X169330714Y-36464523D01*
X169425952Y-36512142D01*
X169473571Y-36559761D01*
X169521190Y-36655000D01*
X169521190Y-37035952D01*
X170092619Y-36274047D02*
X170092619Y-35512142D01*
X169997380Y-35274047D02*
X168997380Y-35274047D01*
X168997380Y-34893095D01*
X169045000Y-34797857D01*
X169092619Y-34750238D01*
X169187857Y-34702619D01*
X169330714Y-34702619D01*
X169425952Y-34750238D01*
X169473571Y-34797857D01*
X169521190Y-34893095D01*
X169521190Y-35274047D01*
X169997380Y-33845476D02*
X169473571Y-33845476D01*
X169378333Y-33893095D01*
X169330714Y-33988333D01*
X169330714Y-34178809D01*
X169378333Y-34274047D01*
X169949761Y-33845476D02*
X169997380Y-33940714D01*
X169997380Y-34178809D01*
X169949761Y-34274047D01*
X169854523Y-34321666D01*
X169759285Y-34321666D01*
X169664047Y-34274047D01*
X169616428Y-34178809D01*
X169616428Y-33940714D01*
X169568809Y-33845476D01*
X169949761Y-32940714D02*
X169997380Y-33035952D01*
X169997380Y-33226428D01*
X169949761Y-33321666D01*
X169902142Y-33369285D01*
X169806904Y-33416904D01*
X169521190Y-33416904D01*
X169425952Y-33369285D01*
X169378333Y-33321666D01*
X169330714Y-33226428D01*
X169330714Y-33035952D01*
X169378333Y-32940714D01*
X169997380Y-32512142D02*
X168997380Y-32512142D01*
X169616428Y-32416904D02*
X169997380Y-32131190D01*
X169330714Y-32131190D02*
X169711666Y-32512142D01*
X168997380Y-31512142D02*
X168997380Y-31416904D01*
X169045000Y-31321666D01*
X169092619Y-31274047D01*
X169187857Y-31226428D01*
X169378333Y-31178809D01*
X169616428Y-31178809D01*
X169806904Y-31226428D01*
X169902142Y-31274047D01*
X169949761Y-31321666D01*
X169997380Y-31416904D01*
X169997380Y-31512142D01*
X169949761Y-31607380D01*
X169902142Y-31655000D01*
X169806904Y-31702619D01*
X169616428Y-31750238D01*
X169378333Y-31750238D01*
X169187857Y-31702619D01*
X169092619Y-31655000D01*
X169045000Y-31607380D01*
X168997380Y-31512142D01*
X169425952Y-30607380D02*
X169378333Y-30702619D01*
X169330714Y-30750238D01*
X169235476Y-30797857D01*
X169187857Y-30797857D01*
X169092619Y-30750238D01*
X169045000Y-30702619D01*
X168997380Y-30607380D01*
X168997380Y-30416904D01*
X169045000Y-30321666D01*
X169092619Y-30274047D01*
X169187857Y-30226428D01*
X169235476Y-30226428D01*
X169330714Y-30274047D01*
X169378333Y-30321666D01*
X169425952Y-30416904D01*
X169425952Y-30607380D01*
X169473571Y-30702619D01*
X169521190Y-30750238D01*
X169616428Y-30797857D01*
X169806904Y-30797857D01*
X169902142Y-30750238D01*
X169949761Y-30702619D01*
X169997380Y-30607380D01*
X169997380Y-30416904D01*
X169949761Y-30321666D01*
X169902142Y-30274047D01*
X169806904Y-30226428D01*
X169616428Y-30226428D01*
X169521190Y-30274047D01*
X169473571Y-30321666D01*
X169425952Y-30416904D01*
X171664380Y-32423100D02*
X171902476Y-32423100D01*
X171807238Y-32661195D02*
X171902476Y-32423100D01*
X171807238Y-32185004D01*
X172092952Y-32565957D02*
X171902476Y-32423100D01*
X172092952Y-32280242D01*
X171664380Y-32423100D02*
X171902476Y-32423100D01*
X171807238Y-32661195D02*
X171902476Y-32423100D01*
X171807238Y-32185004D01*
X172092952Y-32565957D02*
X171902476Y-32423100D01*
X172092952Y-32280242D01*
%TO.C,RN9*%
X213177380Y-34345476D02*
X212701190Y-34678809D01*
X213177380Y-34916904D02*
X212177380Y-34916904D01*
X212177380Y-34535952D01*
X212225000Y-34440714D01*
X212272619Y-34393095D01*
X212367857Y-34345476D01*
X212510714Y-34345476D01*
X212605952Y-34393095D01*
X212653571Y-34440714D01*
X212701190Y-34535952D01*
X212701190Y-34916904D01*
X213177380Y-33916904D02*
X212177380Y-33916904D01*
X213177380Y-33345476D01*
X212177380Y-33345476D01*
X213177380Y-32821666D02*
X213177380Y-32631190D01*
X213129761Y-32535952D01*
X213082142Y-32488333D01*
X212939285Y-32393095D01*
X212748809Y-32345476D01*
X212367857Y-32345476D01*
X212272619Y-32393095D01*
X212225000Y-32440714D01*
X212177380Y-32535952D01*
X212177380Y-32726428D01*
X212225000Y-32821666D01*
X212272619Y-32869285D01*
X212367857Y-32916904D01*
X212605952Y-32916904D01*
X212701190Y-32869285D01*
X212748809Y-32821666D01*
X212796428Y-32726428D01*
X212796428Y-32535952D01*
X212748809Y-32440714D01*
X212701190Y-32393095D01*
X212605952Y-32345476D01*
X213177380Y-36464523D02*
X212701190Y-36797857D01*
X213177380Y-37035952D02*
X212177380Y-37035952D01*
X212177380Y-36655000D01*
X212225000Y-36559761D01*
X212272619Y-36512142D01*
X212367857Y-36464523D01*
X212510714Y-36464523D01*
X212605952Y-36512142D01*
X212653571Y-36559761D01*
X212701190Y-36655000D01*
X212701190Y-37035952D01*
X213272619Y-36274047D02*
X213272619Y-35512142D01*
X213177380Y-35274047D02*
X212177380Y-35274047D01*
X212177380Y-34893095D01*
X212225000Y-34797857D01*
X212272619Y-34750238D01*
X212367857Y-34702619D01*
X212510714Y-34702619D01*
X212605952Y-34750238D01*
X212653571Y-34797857D01*
X212701190Y-34893095D01*
X212701190Y-35274047D01*
X213177380Y-33845476D02*
X212653571Y-33845476D01*
X212558333Y-33893095D01*
X212510714Y-33988333D01*
X212510714Y-34178809D01*
X212558333Y-34274047D01*
X213129761Y-33845476D02*
X213177380Y-33940714D01*
X213177380Y-34178809D01*
X213129761Y-34274047D01*
X213034523Y-34321666D01*
X212939285Y-34321666D01*
X212844047Y-34274047D01*
X212796428Y-34178809D01*
X212796428Y-33940714D01*
X212748809Y-33845476D01*
X213129761Y-32940714D02*
X213177380Y-33035952D01*
X213177380Y-33226428D01*
X213129761Y-33321666D01*
X213082142Y-33369285D01*
X212986904Y-33416904D01*
X212701190Y-33416904D01*
X212605952Y-33369285D01*
X212558333Y-33321666D01*
X212510714Y-33226428D01*
X212510714Y-33035952D01*
X212558333Y-32940714D01*
X213177380Y-32512142D02*
X212177380Y-32512142D01*
X212796428Y-32416904D02*
X213177380Y-32131190D01*
X212510714Y-32131190D02*
X212891666Y-32512142D01*
X212177380Y-31512142D02*
X212177380Y-31416904D01*
X212225000Y-31321666D01*
X212272619Y-31274047D01*
X212367857Y-31226428D01*
X212558333Y-31178809D01*
X212796428Y-31178809D01*
X212986904Y-31226428D01*
X213082142Y-31274047D01*
X213129761Y-31321666D01*
X213177380Y-31416904D01*
X213177380Y-31512142D01*
X213129761Y-31607380D01*
X213082142Y-31655000D01*
X212986904Y-31702619D01*
X212796428Y-31750238D01*
X212558333Y-31750238D01*
X212367857Y-31702619D01*
X212272619Y-31655000D01*
X212225000Y-31607380D01*
X212177380Y-31512142D01*
X212605952Y-30607380D02*
X212558333Y-30702619D01*
X212510714Y-30750238D01*
X212415476Y-30797857D01*
X212367857Y-30797857D01*
X212272619Y-30750238D01*
X212225000Y-30702619D01*
X212177380Y-30607380D01*
X212177380Y-30416904D01*
X212225000Y-30321666D01*
X212272619Y-30274047D01*
X212367857Y-30226428D01*
X212415476Y-30226428D01*
X212510714Y-30274047D01*
X212558333Y-30321666D01*
X212605952Y-30416904D01*
X212605952Y-30607380D01*
X212653571Y-30702619D01*
X212701190Y-30750238D01*
X212796428Y-30797857D01*
X212986904Y-30797857D01*
X213082142Y-30750238D01*
X213129761Y-30702619D01*
X213177380Y-30607380D01*
X213177380Y-30416904D01*
X213129761Y-30321666D01*
X213082142Y-30274047D01*
X212986904Y-30226428D01*
X212796428Y-30226428D01*
X212701190Y-30274047D01*
X212653571Y-30321666D01*
X212605952Y-30416904D01*
X214844380Y-32423100D02*
X215082476Y-32423100D01*
X214987238Y-32661195D02*
X215082476Y-32423100D01*
X214987238Y-32185004D01*
X215272952Y-32565957D02*
X215082476Y-32423100D01*
X215272952Y-32280242D01*
X214844380Y-32423100D02*
X215082476Y-32423100D01*
X214987238Y-32661195D02*
X215082476Y-32423100D01*
X214987238Y-32185004D01*
X215272952Y-32565957D02*
X215082476Y-32423100D01*
X215272952Y-32280242D01*
%TO.C,U2*%
X261497380Y-83311904D02*
X262306904Y-83311904D01*
X262402142Y-83264285D01*
X262449761Y-83216666D01*
X262497380Y-83121428D01*
X262497380Y-82930952D01*
X262449761Y-82835714D01*
X262402142Y-82788095D01*
X262306904Y-82740476D01*
X261497380Y-82740476D01*
X261592619Y-82311904D02*
X261545000Y-82264285D01*
X261497380Y-82169047D01*
X261497380Y-81930952D01*
X261545000Y-81835714D01*
X261592619Y-81788095D01*
X261687857Y-81740476D01*
X261783095Y-81740476D01*
X261925952Y-81788095D01*
X262497380Y-82359523D01*
X262497380Y-81740476D01*
%TO.C,U3*%
X238637380Y-83311904D02*
X239446904Y-83311904D01*
X239542142Y-83264285D01*
X239589761Y-83216666D01*
X239637380Y-83121428D01*
X239637380Y-82930952D01*
X239589761Y-82835714D01*
X239542142Y-82788095D01*
X239446904Y-82740476D01*
X238637380Y-82740476D01*
X238637380Y-82359523D02*
X238637380Y-81740476D01*
X239018333Y-82073809D01*
X239018333Y-81930952D01*
X239065952Y-81835714D01*
X239113571Y-81788095D01*
X239208809Y-81740476D01*
X239446904Y-81740476D01*
X239542142Y-81788095D01*
X239589761Y-81835714D01*
X239637380Y-81930952D01*
X239637380Y-82216666D01*
X239589761Y-82311904D01*
X239542142Y-82359523D01*
%TO.C,U5*%
X194187380Y-83311904D02*
X194996904Y-83311904D01*
X195092142Y-83264285D01*
X195139761Y-83216666D01*
X195187380Y-83121428D01*
X195187380Y-82930952D01*
X195139761Y-82835714D01*
X195092142Y-82788095D01*
X194996904Y-82740476D01*
X194187380Y-82740476D01*
X194187380Y-81788095D02*
X194187380Y-82264285D01*
X194663571Y-82311904D01*
X194615952Y-82264285D01*
X194568333Y-82169047D01*
X194568333Y-81930952D01*
X194615952Y-81835714D01*
X194663571Y-81788095D01*
X194758809Y-81740476D01*
X194996904Y-81740476D01*
X195092142Y-81788095D01*
X195139761Y-81835714D01*
X195187380Y-81930952D01*
X195187380Y-82169047D01*
X195139761Y-82264285D01*
X195092142Y-82311904D01*
%TO.C,U6*%
X171327380Y-83311904D02*
X172136904Y-83311904D01*
X172232142Y-83264285D01*
X172279761Y-83216666D01*
X172327380Y-83121428D01*
X172327380Y-82930952D01*
X172279761Y-82835714D01*
X172232142Y-82788095D01*
X172136904Y-82740476D01*
X171327380Y-82740476D01*
X171327380Y-81835714D02*
X171327380Y-82026190D01*
X171375000Y-82121428D01*
X171422619Y-82169047D01*
X171565476Y-82264285D01*
X171755952Y-82311904D01*
X172136904Y-82311904D01*
X172232142Y-82264285D01*
X172279761Y-82216666D01*
X172327380Y-82121428D01*
X172327380Y-81930952D01*
X172279761Y-81835714D01*
X172232142Y-81788095D01*
X172136904Y-81740476D01*
X171898809Y-81740476D01*
X171803571Y-81788095D01*
X171755952Y-81835714D01*
X171708333Y-81930952D01*
X171708333Y-82121428D01*
X171755952Y-82216666D01*
X171803571Y-82264285D01*
X171898809Y-82311904D01*
%TO.C,U7*%
X151638095Y-14267380D02*
X151638095Y-15076904D01*
X151685714Y-15172142D01*
X151733333Y-15219761D01*
X151828571Y-15267380D01*
X152019047Y-15267380D01*
X152114285Y-15219761D01*
X152161904Y-15172142D01*
X152209523Y-15076904D01*
X152209523Y-14267380D01*
X152590476Y-14267380D02*
X153257142Y-14267380D01*
X152828571Y-15267380D01*
%TO.C,U9*%
X193548095Y-14267380D02*
X193548095Y-15076904D01*
X193595714Y-15172142D01*
X193643333Y-15219761D01*
X193738571Y-15267380D01*
X193929047Y-15267380D01*
X194024285Y-15219761D01*
X194071904Y-15172142D01*
X194119523Y-15076904D01*
X194119523Y-14267380D01*
X194643333Y-15267380D02*
X194833809Y-15267380D01*
X194929047Y-15219761D01*
X194976666Y-15172142D01*
X195071904Y-15029285D01*
X195119523Y-14838809D01*
X195119523Y-14457857D01*
X195071904Y-14362619D01*
X195024285Y-14315000D01*
X194929047Y-14267380D01*
X194738571Y-14267380D01*
X194643333Y-14315000D01*
X194595714Y-14362619D01*
X194548095Y-14457857D01*
X194548095Y-14695952D01*
X194595714Y-14791190D01*
X194643333Y-14838809D01*
X194738571Y-14886428D01*
X194929047Y-14886428D01*
X195024285Y-14838809D01*
X195071904Y-14791190D01*
X195119523Y-14695952D01*
%TO.C,U10*%
X221646904Y-36707380D02*
X221646904Y-37516904D01*
X221694523Y-37612142D01*
X221742142Y-37659761D01*
X221837380Y-37707380D01*
X222027857Y-37707380D01*
X222123095Y-37659761D01*
X222170714Y-37612142D01*
X222218333Y-37516904D01*
X222218333Y-36707380D01*
X223218333Y-37707380D02*
X222646904Y-37707380D01*
X222932619Y-37707380D02*
X222932619Y-36707380D01*
X222837380Y-36850238D01*
X222742142Y-36945476D01*
X222646904Y-36993095D01*
X223837380Y-36707380D02*
X223932619Y-36707380D01*
X224027857Y-36755000D01*
X224075476Y-36802619D01*
X224123095Y-36897857D01*
X224170714Y-37088333D01*
X224170714Y-37326428D01*
X224123095Y-37516904D01*
X224075476Y-37612142D01*
X224027857Y-37659761D01*
X223932619Y-37707380D01*
X223837380Y-37707380D01*
X223742142Y-37659761D01*
X223694523Y-37612142D01*
X223646904Y-37516904D01*
X223599285Y-37326428D01*
X223599285Y-37088333D01*
X223646904Y-36897857D01*
X223694523Y-36802619D01*
X223742142Y-36755000D01*
X223837380Y-36707380D01*
%TO.C,U11*%
X235616904Y-14267380D02*
X235616904Y-15076904D01*
X235664523Y-15172142D01*
X235712142Y-15219761D01*
X235807380Y-15267380D01*
X235997857Y-15267380D01*
X236093095Y-15219761D01*
X236140714Y-15172142D01*
X236188333Y-15076904D01*
X236188333Y-14267380D01*
X237188333Y-15267380D02*
X236616904Y-15267380D01*
X236902619Y-15267380D02*
X236902619Y-14267380D01*
X236807380Y-14410238D01*
X236712142Y-14505476D01*
X236616904Y-14553095D01*
X238140714Y-15267380D02*
X237569285Y-15267380D01*
X237855000Y-15267380D02*
X237855000Y-14267380D01*
X237759761Y-14410238D01*
X237664523Y-14505476D01*
X237569285Y-14553095D01*
%TO.C,U12*%
X264826904Y-36707380D02*
X264826904Y-37516904D01*
X264874523Y-37612142D01*
X264922142Y-37659761D01*
X265017380Y-37707380D01*
X265207857Y-37707380D01*
X265303095Y-37659761D01*
X265350714Y-37612142D01*
X265398333Y-37516904D01*
X265398333Y-36707380D01*
X266398333Y-37707380D02*
X265826904Y-37707380D01*
X266112619Y-37707380D02*
X266112619Y-36707380D01*
X266017380Y-36850238D01*
X265922142Y-36945476D01*
X265826904Y-36993095D01*
X266779285Y-36802619D02*
X266826904Y-36755000D01*
X266922142Y-36707380D01*
X267160238Y-36707380D01*
X267255476Y-36755000D01*
X267303095Y-36802619D01*
X267350714Y-36897857D01*
X267350714Y-36993095D01*
X267303095Y-37135952D01*
X266731666Y-37707380D01*
X267350714Y-37707380D01*
%TO.C,D2*%
X232422380Y-94908095D02*
X231422380Y-94908095D01*
X231422380Y-94670000D01*
X231470000Y-94527142D01*
X231565238Y-94431904D01*
X231660476Y-94384285D01*
X231850952Y-94336666D01*
X231993809Y-94336666D01*
X232184285Y-94384285D01*
X232279523Y-94431904D01*
X232374761Y-94527142D01*
X232422380Y-94670000D01*
X232422380Y-94908095D01*
X231517619Y-93955714D02*
X231470000Y-93908095D01*
X231422380Y-93812857D01*
X231422380Y-93574761D01*
X231470000Y-93479523D01*
X231517619Y-93431904D01*
X231612857Y-93384285D01*
X231708095Y-93384285D01*
X231850952Y-93431904D01*
X232422380Y-94003333D01*
X232422380Y-93384285D01*
%TO.C,D4*%
X179082380Y-94908095D02*
X178082380Y-94908095D01*
X178082380Y-94670000D01*
X178130000Y-94527142D01*
X178225238Y-94431904D01*
X178320476Y-94384285D01*
X178510952Y-94336666D01*
X178653809Y-94336666D01*
X178844285Y-94384285D01*
X178939523Y-94431904D01*
X179034761Y-94527142D01*
X179082380Y-94670000D01*
X179082380Y-94908095D01*
X178415714Y-93479523D02*
X179082380Y-93479523D01*
X178034761Y-93717619D02*
X178749047Y-93955714D01*
X178749047Y-93336666D01*
%TO.C,D5*%
X165631904Y-77602380D02*
X165631904Y-76602380D01*
X165870000Y-76602380D01*
X166012857Y-76650000D01*
X166108095Y-76745238D01*
X166155714Y-76840476D01*
X166203333Y-77030952D01*
X166203333Y-77173809D01*
X166155714Y-77364285D01*
X166108095Y-77459523D01*
X166012857Y-77554761D01*
X165870000Y-77602380D01*
X165631904Y-77602380D01*
X167108095Y-76602380D02*
X166631904Y-76602380D01*
X166584285Y-77078571D01*
X166631904Y-77030952D01*
X166727142Y-76983333D01*
X166965238Y-76983333D01*
X167060476Y-77030952D01*
X167108095Y-77078571D01*
X167155714Y-77173809D01*
X167155714Y-77411904D01*
X167108095Y-77507142D01*
X167060476Y-77554761D01*
X166965238Y-77602380D01*
X166727142Y-77602380D01*
X166631904Y-77554761D01*
X166584285Y-77507142D01*
%TO.C,D7*%
X250721904Y-77602380D02*
X250721904Y-76602380D01*
X250960000Y-76602380D01*
X251102857Y-76650000D01*
X251198095Y-76745238D01*
X251245714Y-76840476D01*
X251293333Y-77030952D01*
X251293333Y-77173809D01*
X251245714Y-77364285D01*
X251198095Y-77459523D01*
X251102857Y-77554761D01*
X250960000Y-77602380D01*
X250721904Y-77602380D01*
X251626666Y-76602380D02*
X252293333Y-76602380D01*
X251864761Y-77602380D01*
%TO.C,RN2*%
X219019523Y-105722380D02*
X218686190Y-105246190D01*
X218448095Y-105722380D02*
X218448095Y-104722380D01*
X218829047Y-104722380D01*
X218924285Y-104770000D01*
X218971904Y-104817619D01*
X219019523Y-104912857D01*
X219019523Y-105055714D01*
X218971904Y-105150952D01*
X218924285Y-105198571D01*
X218829047Y-105246190D01*
X218448095Y-105246190D01*
X219448095Y-105722380D02*
X219448095Y-104722380D01*
X220019523Y-105722380D01*
X220019523Y-104722380D01*
X220448095Y-104817619D02*
X220495714Y-104770000D01*
X220590952Y-104722380D01*
X220829047Y-104722380D01*
X220924285Y-104770000D01*
X220971904Y-104817619D01*
X221019523Y-104912857D01*
X221019523Y-105008095D01*
X220971904Y-105150952D01*
X220400476Y-105722380D01*
X221019523Y-105722380D01*
%TO.C,RN3*%
X189809523Y-105722380D02*
X189476190Y-105246190D01*
X189238095Y-105722380D02*
X189238095Y-104722380D01*
X189619047Y-104722380D01*
X189714285Y-104770000D01*
X189761904Y-104817619D01*
X189809523Y-104912857D01*
X189809523Y-105055714D01*
X189761904Y-105150952D01*
X189714285Y-105198571D01*
X189619047Y-105246190D01*
X189238095Y-105246190D01*
X190238095Y-105722380D02*
X190238095Y-104722380D01*
X190809523Y-105722380D01*
X190809523Y-104722380D01*
X191190476Y-104722380D02*
X191809523Y-104722380D01*
X191476190Y-105103333D01*
X191619047Y-105103333D01*
X191714285Y-105150952D01*
X191761904Y-105198571D01*
X191809523Y-105293809D01*
X191809523Y-105531904D01*
X191761904Y-105627142D01*
X191714285Y-105674761D01*
X191619047Y-105722380D01*
X191333333Y-105722380D01*
X191238095Y-105674761D01*
X191190476Y-105627142D01*
%TO.C,RN7*%
X248102380Y-34345476D02*
X247626190Y-34678809D01*
X248102380Y-34916904D02*
X247102380Y-34916904D01*
X247102380Y-34535952D01*
X247150000Y-34440714D01*
X247197619Y-34393095D01*
X247292857Y-34345476D01*
X247435714Y-34345476D01*
X247530952Y-34393095D01*
X247578571Y-34440714D01*
X247626190Y-34535952D01*
X247626190Y-34916904D01*
X248102380Y-33916904D02*
X247102380Y-33916904D01*
X248102380Y-33345476D01*
X247102380Y-33345476D01*
X247102380Y-32964523D02*
X247102380Y-32297857D01*
X248102380Y-32726428D01*
X248102380Y-36464523D02*
X247626190Y-36797857D01*
X248102380Y-37035952D02*
X247102380Y-37035952D01*
X247102380Y-36655000D01*
X247150000Y-36559761D01*
X247197619Y-36512142D01*
X247292857Y-36464523D01*
X247435714Y-36464523D01*
X247530952Y-36512142D01*
X247578571Y-36559761D01*
X247626190Y-36655000D01*
X247626190Y-37035952D01*
X248197619Y-36274047D02*
X248197619Y-35512142D01*
X248102380Y-35274047D02*
X247102380Y-35274047D01*
X247102380Y-34893095D01*
X247150000Y-34797857D01*
X247197619Y-34750238D01*
X247292857Y-34702619D01*
X247435714Y-34702619D01*
X247530952Y-34750238D01*
X247578571Y-34797857D01*
X247626190Y-34893095D01*
X247626190Y-35274047D01*
X248102380Y-33845476D02*
X247578571Y-33845476D01*
X247483333Y-33893095D01*
X247435714Y-33988333D01*
X247435714Y-34178809D01*
X247483333Y-34274047D01*
X248054761Y-33845476D02*
X248102380Y-33940714D01*
X248102380Y-34178809D01*
X248054761Y-34274047D01*
X247959523Y-34321666D01*
X247864285Y-34321666D01*
X247769047Y-34274047D01*
X247721428Y-34178809D01*
X247721428Y-33940714D01*
X247673809Y-33845476D01*
X248054761Y-32940714D02*
X248102380Y-33035952D01*
X248102380Y-33226428D01*
X248054761Y-33321666D01*
X248007142Y-33369285D01*
X247911904Y-33416904D01*
X247626190Y-33416904D01*
X247530952Y-33369285D01*
X247483333Y-33321666D01*
X247435714Y-33226428D01*
X247435714Y-33035952D01*
X247483333Y-32940714D01*
X248102380Y-32512142D02*
X247102380Y-32512142D01*
X247721428Y-32416904D02*
X248102380Y-32131190D01*
X247435714Y-32131190D02*
X247816666Y-32512142D01*
X247102380Y-31512142D02*
X247102380Y-31416904D01*
X247150000Y-31321666D01*
X247197619Y-31274047D01*
X247292857Y-31226428D01*
X247483333Y-31178809D01*
X247721428Y-31178809D01*
X247911904Y-31226428D01*
X248007142Y-31274047D01*
X248054761Y-31321666D01*
X248102380Y-31416904D01*
X248102380Y-31512142D01*
X248054761Y-31607380D01*
X248007142Y-31655000D01*
X247911904Y-31702619D01*
X247721428Y-31750238D01*
X247483333Y-31750238D01*
X247292857Y-31702619D01*
X247197619Y-31655000D01*
X247150000Y-31607380D01*
X247102380Y-31512142D01*
X247530952Y-30607380D02*
X247483333Y-30702619D01*
X247435714Y-30750238D01*
X247340476Y-30797857D01*
X247292857Y-30797857D01*
X247197619Y-30750238D01*
X247150000Y-30702619D01*
X247102380Y-30607380D01*
X247102380Y-30416904D01*
X247150000Y-30321666D01*
X247197619Y-30274047D01*
X247292857Y-30226428D01*
X247340476Y-30226428D01*
X247435714Y-30274047D01*
X247483333Y-30321666D01*
X247530952Y-30416904D01*
X247530952Y-30607380D01*
X247578571Y-30702619D01*
X247626190Y-30750238D01*
X247721428Y-30797857D01*
X247911904Y-30797857D01*
X248007142Y-30750238D01*
X248054761Y-30702619D01*
X248102380Y-30607380D01*
X248102380Y-30416904D01*
X248054761Y-30321666D01*
X248007142Y-30274047D01*
X247911904Y-30226428D01*
X247721428Y-30226428D01*
X247626190Y-30274047D01*
X247578571Y-30321666D01*
X247530952Y-30416904D01*
X249769380Y-32423100D02*
X250007476Y-32423100D01*
X249912238Y-32661195D02*
X250007476Y-32423100D01*
X249912238Y-32185004D01*
X250197952Y-32565957D02*
X250007476Y-32423100D01*
X250197952Y-32280242D01*
X249769380Y-32423100D02*
X250007476Y-32423100D01*
X249912238Y-32661195D02*
X250007476Y-32423100D01*
X249912238Y-32185004D01*
X250197952Y-32565957D02*
X250007476Y-32423100D01*
X250197952Y-32280242D01*
%TO.C,RN10*%
X255722380Y-34821666D02*
X255246190Y-35155000D01*
X255722380Y-35393095D02*
X254722380Y-35393095D01*
X254722380Y-35012142D01*
X254770000Y-34916904D01*
X254817619Y-34869285D01*
X254912857Y-34821666D01*
X255055714Y-34821666D01*
X255150952Y-34869285D01*
X255198571Y-34916904D01*
X255246190Y-35012142D01*
X255246190Y-35393095D01*
X255722380Y-34393095D02*
X254722380Y-34393095D01*
X255722380Y-33821666D01*
X254722380Y-33821666D01*
X255722380Y-32821666D02*
X255722380Y-33393095D01*
X255722380Y-33107380D02*
X254722380Y-33107380D01*
X254865238Y-33202619D01*
X254960476Y-33297857D01*
X255008095Y-33393095D01*
X254722380Y-32202619D02*
X254722380Y-32107380D01*
X254770000Y-32012142D01*
X254817619Y-31964523D01*
X254912857Y-31916904D01*
X255103333Y-31869285D01*
X255341428Y-31869285D01*
X255531904Y-31916904D01*
X255627142Y-31964523D01*
X255674761Y-32012142D01*
X255722380Y-32107380D01*
X255722380Y-32202619D01*
X255674761Y-32297857D01*
X255627142Y-32345476D01*
X255531904Y-32393095D01*
X255341428Y-32440714D01*
X255103333Y-32440714D01*
X254912857Y-32393095D01*
X254817619Y-32345476D01*
X254770000Y-32297857D01*
X254722380Y-32202619D01*
X255722380Y-36464523D02*
X255246190Y-36797857D01*
X255722380Y-37035952D02*
X254722380Y-37035952D01*
X254722380Y-36655000D01*
X254770000Y-36559761D01*
X254817619Y-36512142D01*
X254912857Y-36464523D01*
X255055714Y-36464523D01*
X255150952Y-36512142D01*
X255198571Y-36559761D01*
X255246190Y-36655000D01*
X255246190Y-37035952D01*
X255817619Y-36274047D02*
X255817619Y-35512142D01*
X255722380Y-35274047D02*
X254722380Y-35274047D01*
X254722380Y-34893095D01*
X254770000Y-34797857D01*
X254817619Y-34750238D01*
X254912857Y-34702619D01*
X255055714Y-34702619D01*
X255150952Y-34750238D01*
X255198571Y-34797857D01*
X255246190Y-34893095D01*
X255246190Y-35274047D01*
X255722380Y-33845476D02*
X255198571Y-33845476D01*
X255103333Y-33893095D01*
X255055714Y-33988333D01*
X255055714Y-34178809D01*
X255103333Y-34274047D01*
X255674761Y-33845476D02*
X255722380Y-33940714D01*
X255722380Y-34178809D01*
X255674761Y-34274047D01*
X255579523Y-34321666D01*
X255484285Y-34321666D01*
X255389047Y-34274047D01*
X255341428Y-34178809D01*
X255341428Y-33940714D01*
X255293809Y-33845476D01*
X255674761Y-32940714D02*
X255722380Y-33035952D01*
X255722380Y-33226428D01*
X255674761Y-33321666D01*
X255627142Y-33369285D01*
X255531904Y-33416904D01*
X255246190Y-33416904D01*
X255150952Y-33369285D01*
X255103333Y-33321666D01*
X255055714Y-33226428D01*
X255055714Y-33035952D01*
X255103333Y-32940714D01*
X255722380Y-32512142D02*
X254722380Y-32512142D01*
X255341428Y-32416904D02*
X255722380Y-32131190D01*
X255055714Y-32131190D02*
X255436666Y-32512142D01*
X254722380Y-31512142D02*
X254722380Y-31416904D01*
X254770000Y-31321666D01*
X254817619Y-31274047D01*
X254912857Y-31226428D01*
X255103333Y-31178809D01*
X255341428Y-31178809D01*
X255531904Y-31226428D01*
X255627142Y-31274047D01*
X255674761Y-31321666D01*
X255722380Y-31416904D01*
X255722380Y-31512142D01*
X255674761Y-31607380D01*
X255627142Y-31655000D01*
X255531904Y-31702619D01*
X255341428Y-31750238D01*
X255103333Y-31750238D01*
X254912857Y-31702619D01*
X254817619Y-31655000D01*
X254770000Y-31607380D01*
X254722380Y-31512142D01*
X255150952Y-30607380D02*
X255103333Y-30702619D01*
X255055714Y-30750238D01*
X254960476Y-30797857D01*
X254912857Y-30797857D01*
X254817619Y-30750238D01*
X254770000Y-30702619D01*
X254722380Y-30607380D01*
X254722380Y-30416904D01*
X254770000Y-30321666D01*
X254817619Y-30274047D01*
X254912857Y-30226428D01*
X254960476Y-30226428D01*
X255055714Y-30274047D01*
X255103333Y-30321666D01*
X255150952Y-30416904D01*
X255150952Y-30607380D01*
X255198571Y-30702619D01*
X255246190Y-30750238D01*
X255341428Y-30797857D01*
X255531904Y-30797857D01*
X255627142Y-30750238D01*
X255674761Y-30702619D01*
X255722380Y-30607380D01*
X255722380Y-30416904D01*
X255674761Y-30321666D01*
X255627142Y-30274047D01*
X255531904Y-30226428D01*
X255341428Y-30226428D01*
X255246190Y-30274047D01*
X255198571Y-30321666D01*
X255150952Y-30416904D01*
X257389380Y-32423100D02*
X257627476Y-32423100D01*
X257532238Y-32661195D02*
X257627476Y-32423100D01*
X257532238Y-32185004D01*
X257817952Y-32565957D02*
X257627476Y-32423100D01*
X257817952Y-32280242D01*
X257389380Y-32423100D02*
X257627476Y-32423100D01*
X257532238Y-32661195D02*
X257627476Y-32423100D01*
X257532238Y-32185004D01*
X257817952Y-32565957D02*
X257627476Y-32423100D01*
X257817952Y-32280242D01*
%TO.C,U1*%
X283277380Y-84186904D02*
X284086904Y-84186904D01*
X284182142Y-84139285D01*
X284229761Y-84091666D01*
X284277380Y-83996428D01*
X284277380Y-83805952D01*
X284229761Y-83710714D01*
X284182142Y-83663095D01*
X284086904Y-83615476D01*
X283277380Y-83615476D01*
X284277380Y-82615476D02*
X284277380Y-83186904D01*
X284277380Y-82901190D02*
X283277380Y-82901190D01*
X283420238Y-82996428D01*
X283515476Y-83091666D01*
X283563095Y-83186904D01*
%TO.C,U4*%
X216412380Y-83311904D02*
X217221904Y-83311904D01*
X217317142Y-83264285D01*
X217364761Y-83216666D01*
X217412380Y-83121428D01*
X217412380Y-82930952D01*
X217364761Y-82835714D01*
X217317142Y-82788095D01*
X217221904Y-82740476D01*
X216412380Y-82740476D01*
X216745714Y-81835714D02*
X217412380Y-81835714D01*
X216364761Y-82073809D02*
X217079047Y-82311904D01*
X217079047Y-81692857D01*
%TD*%
M02*
