%FSLAX45Y45*%
G04 Gerber Fmt 4.5, Leading zero omitted, Abs format (unit mm)*
G04 Created by KiCad (PCBNEW (5.1.8)-1) date 2021-01-13 10:36:35*
%MOMM*%
%LPD*%
G01*
G04 APERTURE LIST*
%TA.AperFunction,Profile*%
%ADD10C,0.050000*%
%TD*%
%ADD11C,0.200000*%
%ADD12C,0.300000*%
G04 APERTURE END LIST*
D10*
X13335000Y-1778000D02*
X13335000Y-10160000D01*
X27940000Y-1270000D02*
X13843000Y-1270000D01*
X28448000Y-1778000D02*
X28448000Y-10160000D01*
X13970000Y-10795000D02*
X27813000Y-10795000D01*
X13335000Y-1778000D02*
G75*
G02*
X13843000Y-1270000I508000J0D01*
G01*
X27940000Y-1270000D02*
G75*
G02*
X28448000Y-1778000I0J-508000D01*
G01*
X13970000Y-10795000D02*
G75*
G02*
X13335000Y-10160000I0J635000D01*
G01*
X28448000Y-10160000D02*
G75*
G02*
X27813000Y-10795000I-635000J0D01*
G01*
D11*
X13617500Y-1875000D02*
X13677500Y-1935000D01*
X13677500Y-1875000D02*
X13617500Y-1935000D01*
X13711958Y-1646958D02*
X13771958Y-1706958D01*
X13771958Y-1646958D02*
X13711958Y-1706958D01*
X13711958Y-2103042D02*
X13771958Y-2163042D01*
X13771958Y-2103042D02*
X13711958Y-2163042D01*
X13940000Y-1552500D02*
X14000000Y-1612500D01*
X14000000Y-1552500D02*
X13940000Y-1612500D01*
X13940000Y-2197500D02*
X14000000Y-2257500D01*
X14000000Y-2197500D02*
X13940000Y-2257500D01*
X14168042Y-1646958D02*
X14228042Y-1706958D01*
X14228042Y-1646958D02*
X14168042Y-1706958D01*
X14168042Y-2103042D02*
X14228042Y-2163042D01*
X14228042Y-2103042D02*
X14168042Y-2163042D01*
X14262500Y-1875000D02*
X14322500Y-1935000D01*
X14322500Y-1875000D02*
X14262500Y-1935000D01*
X27460500Y-10130000D02*
X27520500Y-10190000D01*
X27520500Y-10130000D02*
X27460500Y-10190000D01*
X27554958Y-9901958D02*
X27614958Y-9961958D01*
X27614958Y-9901958D02*
X27554958Y-9961958D01*
X27554958Y-10358042D02*
X27614958Y-10418042D01*
X27614958Y-10358042D02*
X27554958Y-10418042D01*
X27783000Y-9807500D02*
X27843000Y-9867500D01*
X27843000Y-9807500D02*
X27783000Y-9867500D01*
X27783000Y-10452500D02*
X27843000Y-10512500D01*
X27843000Y-10452500D02*
X27783000Y-10512500D01*
X28011042Y-9901958D02*
X28071042Y-9961958D01*
X28071042Y-9901958D02*
X28011042Y-9961958D01*
X28011042Y-10358042D02*
X28071042Y-10418042D01*
X28071042Y-10358042D02*
X28011042Y-10418042D01*
X28105500Y-10130000D02*
X28165500Y-10190000D01*
X28165500Y-10130000D02*
X28105500Y-10190000D01*
X27460500Y-1875000D02*
X27520500Y-1935000D01*
X27520500Y-1875000D02*
X27460500Y-1935000D01*
X27554958Y-1646958D02*
X27614958Y-1706958D01*
X27614958Y-1646958D02*
X27554958Y-1706958D01*
X27554958Y-2103042D02*
X27614958Y-2163042D01*
X27614958Y-2103042D02*
X27554958Y-2163042D01*
X27783000Y-1552500D02*
X27843000Y-1612500D01*
X27843000Y-1552500D02*
X27783000Y-1612500D01*
X27783000Y-2197500D02*
X27843000Y-2257500D01*
X27843000Y-2197500D02*
X27783000Y-2257500D01*
X28011042Y-1646958D02*
X28071042Y-1706958D01*
X28071042Y-1646958D02*
X28011042Y-1706958D01*
X28011042Y-2103042D02*
X28071042Y-2163042D01*
X28071042Y-2103042D02*
X28011042Y-2163042D01*
X28105500Y-1875000D02*
X28165500Y-1935000D01*
X28165500Y-1875000D02*
X28105500Y-1935000D01*
X13617500Y-10130000D02*
X13677500Y-10190000D01*
X13677500Y-10130000D02*
X13617500Y-10190000D01*
X13711958Y-9901958D02*
X13771958Y-9961958D01*
X13771958Y-9901958D02*
X13711958Y-9961958D01*
X13711958Y-10358042D02*
X13771958Y-10418042D01*
X13771958Y-10358042D02*
X13711958Y-10418042D01*
X13940000Y-9807500D02*
X14000000Y-9867500D01*
X14000000Y-9807500D02*
X13940000Y-9867500D01*
X13940000Y-10452500D02*
X14000000Y-10512500D01*
X14000000Y-10452500D02*
X13940000Y-10512500D01*
X14168042Y-9901958D02*
X14228042Y-9961958D01*
X14228042Y-9901958D02*
X14168042Y-9961958D01*
X14168042Y-10358042D02*
X14228042Y-10418042D01*
X14228042Y-10358042D02*
X14168042Y-10418042D01*
X14262500Y-10130000D02*
X14322500Y-10190000D01*
X14322500Y-10130000D02*
X14262500Y-10190000D01*
X14185000Y-1905000D02*
G75*
G03*
X14185000Y-1905000I-215000J0D01*
G01*
X28028000Y-10160000D02*
G75*
G03*
X28028000Y-10160000I-215000J0D01*
G01*
X28028000Y-1905000D02*
G75*
G03*
X28028000Y-1905000I-215000J0D01*
G01*
X14185000Y-10160000D02*
G75*
G03*
X14185000Y-10160000I-215000J0D01*
G01*
D12*
X13618928Y-11263214D02*
X13618928Y-10963214D01*
X13690357Y-10963214D01*
X13733214Y-10977500D01*
X13761786Y-11006072D01*
X13776071Y-11034643D01*
X13790357Y-11091786D01*
X13790357Y-11134643D01*
X13776071Y-11191786D01*
X13761786Y-11220357D01*
X13733214Y-11248929D01*
X13690357Y-11263214D01*
X13618928Y-11263214D01*
X13918928Y-11263214D02*
X13918928Y-11063214D01*
X13918928Y-11120357D02*
X13933214Y-11091786D01*
X13947500Y-11077500D01*
X13976071Y-11063214D01*
X14004643Y-11063214D01*
X14104643Y-11263214D02*
X14104643Y-11063214D01*
X14104643Y-10963214D02*
X14090357Y-10977500D01*
X14104643Y-10991786D01*
X14118928Y-10977500D01*
X14104643Y-10963214D01*
X14104643Y-10991786D01*
X14290357Y-11263214D02*
X14261786Y-11248929D01*
X14247500Y-11220357D01*
X14247500Y-10963214D01*
X14447500Y-11263214D02*
X14418928Y-11248929D01*
X14404643Y-11220357D01*
X14404643Y-10963214D01*
X14790357Y-11263214D02*
X14790357Y-10963214D01*
X14890357Y-11177500D01*
X14990357Y-10963214D01*
X14990357Y-11263214D01*
X15261786Y-11263214D02*
X15261786Y-11106072D01*
X15247500Y-11077500D01*
X15218928Y-11063214D01*
X15161786Y-11063214D01*
X15133214Y-11077500D01*
X15261786Y-11248929D02*
X15233214Y-11263214D01*
X15161786Y-11263214D01*
X15133214Y-11248929D01*
X15118928Y-11220357D01*
X15118928Y-11191786D01*
X15133214Y-11163214D01*
X15161786Y-11148929D01*
X15233214Y-11148929D01*
X15261786Y-11134643D01*
X15404643Y-11063214D02*
X15404643Y-11363214D01*
X15404643Y-11077500D02*
X15433214Y-11063214D01*
X15490357Y-11063214D01*
X15518928Y-11077500D01*
X15533214Y-11091786D01*
X15547500Y-11120357D01*
X15547500Y-11206071D01*
X15533214Y-11234643D01*
X15518928Y-11248929D01*
X15490357Y-11263214D01*
X15433214Y-11263214D01*
X15404643Y-11248929D01*
X15676071Y-11234643D02*
X15690357Y-11248929D01*
X15676071Y-11263214D01*
X15661786Y-11248929D01*
X15676071Y-11234643D01*
X15676071Y-11263214D01*
X15676071Y-11077500D02*
X15690357Y-11091786D01*
X15676071Y-11106072D01*
X15661786Y-11091786D01*
X15676071Y-11077500D01*
X15676071Y-11106072D01*
X13272500Y-11727500D02*
X13332500Y-11787500D01*
X13332500Y-11727500D02*
X13272500Y-11787500D01*
X13676071Y-11593214D02*
X13704643Y-11593214D01*
X13733214Y-11607500D01*
X13747500Y-11621786D01*
X13761786Y-11650357D01*
X13776071Y-11707500D01*
X13776071Y-11778929D01*
X13761786Y-11836071D01*
X13747500Y-11864643D01*
X13733214Y-11878929D01*
X13704643Y-11893214D01*
X13676071Y-11893214D01*
X13647500Y-11878929D01*
X13633214Y-11864643D01*
X13618928Y-11836071D01*
X13604643Y-11778929D01*
X13604643Y-11707500D01*
X13618928Y-11650357D01*
X13633214Y-11621786D01*
X13647500Y-11607500D01*
X13676071Y-11593214D01*
X13904643Y-11864643D02*
X13918928Y-11878929D01*
X13904643Y-11893214D01*
X13890357Y-11878929D01*
X13904643Y-11864643D01*
X13904643Y-11893214D01*
X14176071Y-11593214D02*
X14118928Y-11593214D01*
X14090357Y-11607500D01*
X14076071Y-11621786D01*
X14047500Y-11664643D01*
X14033214Y-11721786D01*
X14033214Y-11836071D01*
X14047500Y-11864643D01*
X14061786Y-11878929D01*
X14090357Y-11893214D01*
X14147500Y-11893214D01*
X14176071Y-11878929D01*
X14190357Y-11864643D01*
X14204643Y-11836071D01*
X14204643Y-11764643D01*
X14190357Y-11736071D01*
X14176071Y-11721786D01*
X14147500Y-11707500D01*
X14090357Y-11707500D01*
X14061786Y-11721786D01*
X14047500Y-11736071D01*
X14033214Y-11764643D01*
X14390357Y-11593214D02*
X14418928Y-11593214D01*
X14447500Y-11607500D01*
X14461786Y-11621786D01*
X14476071Y-11650357D01*
X14490357Y-11707500D01*
X14490357Y-11778929D01*
X14476071Y-11836071D01*
X14461786Y-11864643D01*
X14447500Y-11878929D01*
X14418928Y-11893214D01*
X14390357Y-11893214D01*
X14361786Y-11878929D01*
X14347500Y-11864643D01*
X14333214Y-11836071D01*
X14318928Y-11778929D01*
X14318928Y-11707500D01*
X14333214Y-11650357D01*
X14347500Y-11621786D01*
X14361786Y-11607500D01*
X14390357Y-11593214D01*
X14618928Y-11893214D02*
X14618928Y-11693214D01*
X14618928Y-11721786D02*
X14633214Y-11707500D01*
X14661786Y-11693214D01*
X14704643Y-11693214D01*
X14733214Y-11707500D01*
X14747500Y-11736071D01*
X14747500Y-11893214D01*
X14747500Y-11736071D02*
X14761786Y-11707500D01*
X14790357Y-11693214D01*
X14833214Y-11693214D01*
X14861786Y-11707500D01*
X14876071Y-11736071D01*
X14876071Y-11893214D01*
X15018928Y-11893214D02*
X15018928Y-11693214D01*
X15018928Y-11721786D02*
X15033214Y-11707500D01*
X15061786Y-11693214D01*
X15104643Y-11693214D01*
X15133214Y-11707500D01*
X15147500Y-11736071D01*
X15147500Y-11893214D01*
X15147500Y-11736071D02*
X15161786Y-11707500D01*
X15190357Y-11693214D01*
X15233214Y-11693214D01*
X15261786Y-11707500D01*
X15276071Y-11736071D01*
X15276071Y-11893214D01*
X15861786Y-11578929D02*
X15604643Y-11964643D01*
X16247500Y-11593214D02*
X16276071Y-11593214D01*
X16304643Y-11607500D01*
X16318928Y-11621786D01*
X16333214Y-11650357D01*
X16347500Y-11707500D01*
X16347500Y-11778929D01*
X16333214Y-11836071D01*
X16318928Y-11864643D01*
X16304643Y-11878929D01*
X16276071Y-11893214D01*
X16247500Y-11893214D01*
X16218928Y-11878929D01*
X16204643Y-11864643D01*
X16190357Y-11836071D01*
X16176071Y-11778929D01*
X16176071Y-11707500D01*
X16190357Y-11650357D01*
X16204643Y-11621786D01*
X16218928Y-11607500D01*
X16247500Y-11593214D01*
X16476071Y-11864643D02*
X16490357Y-11878929D01*
X16476071Y-11893214D01*
X16461786Y-11878929D01*
X16476071Y-11864643D01*
X16476071Y-11893214D01*
X16676071Y-11593214D02*
X16704643Y-11593214D01*
X16733214Y-11607500D01*
X16747500Y-11621786D01*
X16761786Y-11650357D01*
X16776071Y-11707500D01*
X16776071Y-11778929D01*
X16761786Y-11836071D01*
X16747500Y-11864643D01*
X16733214Y-11878929D01*
X16704643Y-11893214D01*
X16676071Y-11893214D01*
X16647500Y-11878929D01*
X16633214Y-11864643D01*
X16618928Y-11836071D01*
X16604643Y-11778929D01*
X16604643Y-11707500D01*
X16618928Y-11650357D01*
X16633214Y-11621786D01*
X16647500Y-11607500D01*
X16676071Y-11593214D01*
X16890357Y-11621786D02*
X16904643Y-11607500D01*
X16933214Y-11593214D01*
X17004643Y-11593214D01*
X17033214Y-11607500D01*
X17047500Y-11621786D01*
X17061786Y-11650357D01*
X17061786Y-11678929D01*
X17047500Y-11721786D01*
X16876071Y-11893214D01*
X17061786Y-11893214D01*
X17318928Y-11693214D02*
X17318928Y-11893214D01*
X17247500Y-11578929D02*
X17176071Y-11793214D01*
X17361786Y-11793214D01*
X17461786Y-11593214D02*
X17461786Y-11650357D01*
X17576071Y-11593214D02*
X17576071Y-11650357D01*
X18018928Y-12007500D02*
X18004643Y-11993214D01*
X17976071Y-11950357D01*
X17961786Y-11921786D01*
X17947500Y-11878929D01*
X17933214Y-11807500D01*
X17933214Y-11750357D01*
X17947500Y-11678929D01*
X17961786Y-11636071D01*
X17976071Y-11607500D01*
X18004643Y-11564643D01*
X18018928Y-11550357D01*
X18104643Y-11593214D02*
X18290357Y-11593214D01*
X18190357Y-11707500D01*
X18233214Y-11707500D01*
X18261786Y-11721786D01*
X18276071Y-11736071D01*
X18290357Y-11764643D01*
X18290357Y-11836071D01*
X18276071Y-11864643D01*
X18261786Y-11878929D01*
X18233214Y-11893214D01*
X18147500Y-11893214D01*
X18118928Y-11878929D01*
X18104643Y-11864643D01*
X18404643Y-11621786D02*
X18418928Y-11607500D01*
X18447500Y-11593214D01*
X18518928Y-11593214D01*
X18547500Y-11607500D01*
X18561786Y-11621786D01*
X18576071Y-11650357D01*
X18576071Y-11678929D01*
X18561786Y-11721786D01*
X18390357Y-11893214D01*
X18576071Y-11893214D01*
X18933214Y-11893214D02*
X18933214Y-11593214D01*
X19061786Y-11893214D02*
X19061786Y-11736071D01*
X19047500Y-11707500D01*
X19018928Y-11693214D01*
X18976071Y-11693214D01*
X18947500Y-11707500D01*
X18933214Y-11721786D01*
X19247500Y-11893214D02*
X19218928Y-11878929D01*
X19204643Y-11864643D01*
X19190357Y-11836071D01*
X19190357Y-11750357D01*
X19204643Y-11721786D01*
X19218928Y-11707500D01*
X19247500Y-11693214D01*
X19290357Y-11693214D01*
X19318928Y-11707500D01*
X19333214Y-11721786D01*
X19347500Y-11750357D01*
X19347500Y-11836071D01*
X19333214Y-11864643D01*
X19318928Y-11878929D01*
X19290357Y-11893214D01*
X19247500Y-11893214D01*
X19518928Y-11893214D02*
X19490357Y-11878929D01*
X19476071Y-11850357D01*
X19476071Y-11593214D01*
X19747500Y-11878929D02*
X19718928Y-11893214D01*
X19661786Y-11893214D01*
X19633214Y-11878929D01*
X19618928Y-11850357D01*
X19618928Y-11736071D01*
X19633214Y-11707500D01*
X19661786Y-11693214D01*
X19718928Y-11693214D01*
X19747500Y-11707500D01*
X19761786Y-11736071D01*
X19761786Y-11764643D01*
X19618928Y-11793214D01*
X19876071Y-11878929D02*
X19904643Y-11893214D01*
X19961786Y-11893214D01*
X19990357Y-11878929D01*
X20004643Y-11850357D01*
X20004643Y-11836071D01*
X19990357Y-11807500D01*
X19961786Y-11793214D01*
X19918928Y-11793214D01*
X19890357Y-11778929D01*
X19876071Y-11750357D01*
X19876071Y-11736071D01*
X19890357Y-11707500D01*
X19918928Y-11693214D01*
X19961786Y-11693214D01*
X19990357Y-11707500D01*
X20104643Y-12007500D02*
X20118928Y-11993214D01*
X20147500Y-11950357D01*
X20161786Y-11921786D01*
X20176071Y-11878929D01*
X20190357Y-11807500D01*
X20190357Y-11750357D01*
X20176071Y-11678929D01*
X20161786Y-11636071D01*
X20147500Y-11607500D01*
X20118928Y-11564643D01*
X20104643Y-11550357D01*
X20647500Y-12007500D02*
X20633214Y-11993214D01*
X20604643Y-11950357D01*
X20590357Y-11921786D01*
X20576071Y-11878929D01*
X20561786Y-11807500D01*
X20561786Y-11750357D01*
X20576071Y-11678929D01*
X20590357Y-11636071D01*
X20604643Y-11607500D01*
X20633214Y-11564643D01*
X20647500Y-11550357D01*
X20761786Y-11693214D02*
X20761786Y-11893214D01*
X20761786Y-11721786D02*
X20776071Y-11707500D01*
X20804643Y-11693214D01*
X20847500Y-11693214D01*
X20876071Y-11707500D01*
X20890357Y-11736071D01*
X20890357Y-11893214D01*
X21076071Y-11893214D02*
X21047500Y-11878929D01*
X21033214Y-11864643D01*
X21018928Y-11836071D01*
X21018928Y-11750357D01*
X21033214Y-11721786D01*
X21047500Y-11707500D01*
X21076071Y-11693214D01*
X21118928Y-11693214D01*
X21147500Y-11707500D01*
X21161786Y-11721786D01*
X21176071Y-11750357D01*
X21176071Y-11836071D01*
X21161786Y-11864643D01*
X21147500Y-11878929D01*
X21118928Y-11893214D01*
X21076071Y-11893214D01*
X21261786Y-11693214D02*
X21376071Y-11693214D01*
X21304643Y-11593214D02*
X21304643Y-11850357D01*
X21318928Y-11878929D01*
X21347500Y-11893214D01*
X21376071Y-11893214D01*
X21704643Y-11693214D02*
X21704643Y-11993214D01*
X21704643Y-11707500D02*
X21733214Y-11693214D01*
X21790357Y-11693214D01*
X21818928Y-11707500D01*
X21833214Y-11721786D01*
X21847500Y-11750357D01*
X21847500Y-11836071D01*
X21833214Y-11864643D01*
X21818928Y-11878929D01*
X21790357Y-11893214D01*
X21733214Y-11893214D01*
X21704643Y-11878929D01*
X22018928Y-11893214D02*
X21990357Y-11878929D01*
X21976071Y-11850357D01*
X21976071Y-11593214D01*
X22261786Y-11893214D02*
X22261786Y-11736071D01*
X22247500Y-11707500D01*
X22218928Y-11693214D01*
X22161786Y-11693214D01*
X22133214Y-11707500D01*
X22261786Y-11878929D02*
X22233214Y-11893214D01*
X22161786Y-11893214D01*
X22133214Y-11878929D01*
X22118928Y-11850357D01*
X22118928Y-11821786D01*
X22133214Y-11793214D01*
X22161786Y-11778929D01*
X22233214Y-11778929D01*
X22261786Y-11764643D01*
X22361786Y-11693214D02*
X22476071Y-11693214D01*
X22404643Y-11593214D02*
X22404643Y-11850357D01*
X22418928Y-11878929D01*
X22447500Y-11893214D01*
X22476071Y-11893214D01*
X22690357Y-11878929D02*
X22661786Y-11893214D01*
X22604643Y-11893214D01*
X22576071Y-11878929D01*
X22561786Y-11850357D01*
X22561786Y-11736071D01*
X22576071Y-11707500D01*
X22604643Y-11693214D01*
X22661786Y-11693214D01*
X22690357Y-11707500D01*
X22704643Y-11736071D01*
X22704643Y-11764643D01*
X22561786Y-11793214D01*
X22961786Y-11893214D02*
X22961786Y-11593214D01*
X22961786Y-11878929D02*
X22933214Y-11893214D01*
X22876071Y-11893214D01*
X22847500Y-11878929D01*
X22833214Y-11864643D01*
X22818928Y-11836071D01*
X22818928Y-11750357D01*
X22833214Y-11721786D01*
X22847500Y-11707500D01*
X22876071Y-11693214D01*
X22933214Y-11693214D01*
X22961786Y-11707500D01*
X23076071Y-12007500D02*
X23090357Y-11993214D01*
X23118928Y-11950357D01*
X23133214Y-11921786D01*
X23147500Y-11878929D01*
X23161786Y-11807500D01*
X23161786Y-11750357D01*
X23147500Y-11678929D01*
X23133214Y-11636071D01*
X23118928Y-11607500D01*
X23090357Y-11564643D01*
X23076071Y-11550357D01*
X13332500Y-12153500D02*
G75*
G03*
X13332500Y-12153500I-215000J0D01*
G01*
X13747500Y-12089214D02*
X13747500Y-12289214D01*
X13676071Y-11974929D02*
X13604643Y-12189214D01*
X13790357Y-12189214D01*
X13904643Y-12260643D02*
X13918928Y-12274929D01*
X13904643Y-12289214D01*
X13890357Y-12274929D01*
X13904643Y-12260643D01*
X13904643Y-12289214D01*
X14018928Y-11989214D02*
X14204643Y-11989214D01*
X14104643Y-12103500D01*
X14147500Y-12103500D01*
X14176071Y-12117786D01*
X14190357Y-12132071D01*
X14204643Y-12160643D01*
X14204643Y-12232071D01*
X14190357Y-12260643D01*
X14176071Y-12274929D01*
X14147500Y-12289214D01*
X14061786Y-12289214D01*
X14033214Y-12274929D01*
X14018928Y-12260643D01*
X14390357Y-11989214D02*
X14418928Y-11989214D01*
X14447500Y-12003500D01*
X14461786Y-12017786D01*
X14476071Y-12046357D01*
X14490357Y-12103500D01*
X14490357Y-12174929D01*
X14476071Y-12232071D01*
X14461786Y-12260643D01*
X14447500Y-12274929D01*
X14418928Y-12289214D01*
X14390357Y-12289214D01*
X14361786Y-12274929D01*
X14347500Y-12260643D01*
X14333214Y-12232071D01*
X14318928Y-12174929D01*
X14318928Y-12103500D01*
X14333214Y-12046357D01*
X14347500Y-12017786D01*
X14361786Y-12003500D01*
X14390357Y-11989214D01*
X14618928Y-12289214D02*
X14618928Y-12089214D01*
X14618928Y-12117786D02*
X14633214Y-12103500D01*
X14661786Y-12089214D01*
X14704643Y-12089214D01*
X14733214Y-12103500D01*
X14747500Y-12132071D01*
X14747500Y-12289214D01*
X14747500Y-12132071D02*
X14761786Y-12103500D01*
X14790357Y-12089214D01*
X14833214Y-12089214D01*
X14861786Y-12103500D01*
X14876071Y-12132071D01*
X14876071Y-12289214D01*
X15018928Y-12289214D02*
X15018928Y-12089214D01*
X15018928Y-12117786D02*
X15033214Y-12103500D01*
X15061786Y-12089214D01*
X15104643Y-12089214D01*
X15133214Y-12103500D01*
X15147500Y-12132071D01*
X15147500Y-12289214D01*
X15147500Y-12132071D02*
X15161786Y-12103500D01*
X15190357Y-12089214D01*
X15233214Y-12089214D01*
X15261786Y-12103500D01*
X15276071Y-12132071D01*
X15276071Y-12289214D01*
X15861786Y-11974929D02*
X15604643Y-12360643D01*
X16247500Y-11989214D02*
X16276071Y-11989214D01*
X16304643Y-12003500D01*
X16318928Y-12017786D01*
X16333214Y-12046357D01*
X16347500Y-12103500D01*
X16347500Y-12174929D01*
X16333214Y-12232071D01*
X16318928Y-12260643D01*
X16304643Y-12274929D01*
X16276071Y-12289214D01*
X16247500Y-12289214D01*
X16218928Y-12274929D01*
X16204643Y-12260643D01*
X16190357Y-12232071D01*
X16176071Y-12174929D01*
X16176071Y-12103500D01*
X16190357Y-12046357D01*
X16204643Y-12017786D01*
X16218928Y-12003500D01*
X16247500Y-11989214D01*
X16476071Y-12260643D02*
X16490357Y-12274929D01*
X16476071Y-12289214D01*
X16461786Y-12274929D01*
X16476071Y-12260643D01*
X16476071Y-12289214D01*
X16776071Y-12289214D02*
X16604643Y-12289214D01*
X16690357Y-12289214D02*
X16690357Y-11989214D01*
X16661786Y-12032071D01*
X16633214Y-12060643D01*
X16604643Y-12074929D01*
X17033214Y-11989214D02*
X16976071Y-11989214D01*
X16947500Y-12003500D01*
X16933214Y-12017786D01*
X16904643Y-12060643D01*
X16890357Y-12117786D01*
X16890357Y-12232071D01*
X16904643Y-12260643D01*
X16918928Y-12274929D01*
X16947500Y-12289214D01*
X17004643Y-12289214D01*
X17033214Y-12274929D01*
X17047500Y-12260643D01*
X17061786Y-12232071D01*
X17061786Y-12160643D01*
X17047500Y-12132071D01*
X17033214Y-12117786D01*
X17004643Y-12103500D01*
X16947500Y-12103500D01*
X16918928Y-12117786D01*
X16904643Y-12132071D01*
X16890357Y-12160643D01*
X17204643Y-12289214D02*
X17261786Y-12289214D01*
X17290357Y-12274929D01*
X17304643Y-12260643D01*
X17333214Y-12217786D01*
X17347500Y-12160643D01*
X17347500Y-12046357D01*
X17333214Y-12017786D01*
X17318928Y-12003500D01*
X17290357Y-11989214D01*
X17233214Y-11989214D01*
X17204643Y-12003500D01*
X17190357Y-12017786D01*
X17176071Y-12046357D01*
X17176071Y-12117786D01*
X17190357Y-12146357D01*
X17204643Y-12160643D01*
X17233214Y-12174929D01*
X17290357Y-12174929D01*
X17318928Y-12160643D01*
X17333214Y-12146357D01*
X17347500Y-12117786D01*
X17461786Y-11989214D02*
X17461786Y-12046357D01*
X17576071Y-11989214D02*
X17576071Y-12046357D01*
X18018928Y-12403500D02*
X18004643Y-12389214D01*
X17976071Y-12346357D01*
X17961786Y-12317786D01*
X17947500Y-12274929D01*
X17933214Y-12203500D01*
X17933214Y-12146357D01*
X17947500Y-12074929D01*
X17961786Y-12032071D01*
X17976071Y-12003500D01*
X18004643Y-11960643D01*
X18018928Y-11946357D01*
X18261786Y-12089214D02*
X18261786Y-12289214D01*
X18190357Y-11974929D02*
X18118928Y-12189214D01*
X18304643Y-12189214D01*
X18647500Y-12289214D02*
X18647500Y-11989214D01*
X18776071Y-12289214D02*
X18776071Y-12132071D01*
X18761786Y-12103500D01*
X18733214Y-12089214D01*
X18690357Y-12089214D01*
X18661786Y-12103500D01*
X18647500Y-12117786D01*
X18961786Y-12289214D02*
X18933214Y-12274929D01*
X18918928Y-12260643D01*
X18904643Y-12232071D01*
X18904643Y-12146357D01*
X18918928Y-12117786D01*
X18933214Y-12103500D01*
X18961786Y-12089214D01*
X19004643Y-12089214D01*
X19033214Y-12103500D01*
X19047500Y-12117786D01*
X19061786Y-12146357D01*
X19061786Y-12232071D01*
X19047500Y-12260643D01*
X19033214Y-12274929D01*
X19004643Y-12289214D01*
X18961786Y-12289214D01*
X19233214Y-12289214D02*
X19204643Y-12274929D01*
X19190357Y-12246357D01*
X19190357Y-11989214D01*
X19461786Y-12274929D02*
X19433214Y-12289214D01*
X19376071Y-12289214D01*
X19347500Y-12274929D01*
X19333214Y-12246357D01*
X19333214Y-12132071D01*
X19347500Y-12103500D01*
X19376071Y-12089214D01*
X19433214Y-12089214D01*
X19461786Y-12103500D01*
X19476071Y-12132071D01*
X19476071Y-12160643D01*
X19333214Y-12189214D01*
X19590357Y-12274929D02*
X19618928Y-12289214D01*
X19676071Y-12289214D01*
X19704643Y-12274929D01*
X19718928Y-12246357D01*
X19718928Y-12232071D01*
X19704643Y-12203500D01*
X19676071Y-12189214D01*
X19633214Y-12189214D01*
X19604643Y-12174929D01*
X19590357Y-12146357D01*
X19590357Y-12132071D01*
X19604643Y-12103500D01*
X19633214Y-12089214D01*
X19676071Y-12089214D01*
X19704643Y-12103500D01*
X19818928Y-12403500D02*
X19833214Y-12389214D01*
X19861786Y-12346357D01*
X19876071Y-12317786D01*
X19890357Y-12274929D01*
X19904643Y-12203500D01*
X19904643Y-12146357D01*
X19890357Y-12074929D01*
X19876071Y-12032071D01*
X19861786Y-12003500D01*
X19833214Y-11960643D01*
X19818928Y-11946357D01*
X20361786Y-12403500D02*
X20347500Y-12389214D01*
X20318928Y-12346357D01*
X20304643Y-12317786D01*
X20290357Y-12274929D01*
X20276071Y-12203500D01*
X20276071Y-12146357D01*
X20290357Y-12074929D01*
X20304643Y-12032071D01*
X20318928Y-12003500D01*
X20347500Y-11960643D01*
X20361786Y-11946357D01*
X20476071Y-12089214D02*
X20476071Y-12289214D01*
X20476071Y-12117786D02*
X20490357Y-12103500D01*
X20518928Y-12089214D01*
X20561786Y-12089214D01*
X20590357Y-12103500D01*
X20604643Y-12132071D01*
X20604643Y-12289214D01*
X20790357Y-12289214D02*
X20761786Y-12274929D01*
X20747500Y-12260643D01*
X20733214Y-12232071D01*
X20733214Y-12146357D01*
X20747500Y-12117786D01*
X20761786Y-12103500D01*
X20790357Y-12089214D01*
X20833214Y-12089214D01*
X20861786Y-12103500D01*
X20876071Y-12117786D01*
X20890357Y-12146357D01*
X20890357Y-12232071D01*
X20876071Y-12260643D01*
X20861786Y-12274929D01*
X20833214Y-12289214D01*
X20790357Y-12289214D01*
X20976071Y-12089214D02*
X21090357Y-12089214D01*
X21018928Y-11989214D02*
X21018928Y-12246357D01*
X21033214Y-12274929D01*
X21061786Y-12289214D01*
X21090357Y-12289214D01*
X21418928Y-12089214D02*
X21418928Y-12389214D01*
X21418928Y-12103500D02*
X21447500Y-12089214D01*
X21504643Y-12089214D01*
X21533214Y-12103500D01*
X21547500Y-12117786D01*
X21561786Y-12146357D01*
X21561786Y-12232071D01*
X21547500Y-12260643D01*
X21533214Y-12274929D01*
X21504643Y-12289214D01*
X21447500Y-12289214D01*
X21418928Y-12274929D01*
X21733214Y-12289214D02*
X21704643Y-12274929D01*
X21690357Y-12246357D01*
X21690357Y-11989214D01*
X21976071Y-12289214D02*
X21976071Y-12132071D01*
X21961786Y-12103500D01*
X21933214Y-12089214D01*
X21876071Y-12089214D01*
X21847500Y-12103500D01*
X21976071Y-12274929D02*
X21947500Y-12289214D01*
X21876071Y-12289214D01*
X21847500Y-12274929D01*
X21833214Y-12246357D01*
X21833214Y-12217786D01*
X21847500Y-12189214D01*
X21876071Y-12174929D01*
X21947500Y-12174929D01*
X21976071Y-12160643D01*
X22076071Y-12089214D02*
X22190357Y-12089214D01*
X22118928Y-11989214D02*
X22118928Y-12246357D01*
X22133214Y-12274929D01*
X22161786Y-12289214D01*
X22190357Y-12289214D01*
X22404643Y-12274929D02*
X22376071Y-12289214D01*
X22318928Y-12289214D01*
X22290357Y-12274929D01*
X22276071Y-12246357D01*
X22276071Y-12132071D01*
X22290357Y-12103500D01*
X22318928Y-12089214D01*
X22376071Y-12089214D01*
X22404643Y-12103500D01*
X22418928Y-12132071D01*
X22418928Y-12160643D01*
X22276071Y-12189214D01*
X22676071Y-12289214D02*
X22676071Y-11989214D01*
X22676071Y-12274929D02*
X22647500Y-12289214D01*
X22590357Y-12289214D01*
X22561786Y-12274929D01*
X22547500Y-12260643D01*
X22533214Y-12232071D01*
X22533214Y-12146357D01*
X22547500Y-12117786D01*
X22561786Y-12103500D01*
X22590357Y-12089214D01*
X22647500Y-12089214D01*
X22676071Y-12103500D01*
X22790357Y-12403500D02*
X22804643Y-12389214D01*
X22833214Y-12346357D01*
X22847500Y-12317786D01*
X22861786Y-12274929D01*
X22876071Y-12203500D01*
X22876071Y-12146357D01*
X22861786Y-12074929D01*
X22847500Y-12032071D01*
X22833214Y-12003500D01*
X22804643Y-11960643D01*
X22790357Y-11946357D01*
M02*
