M48
; DRILL file {KiCad (5.1.8)-1} date 01/13/21 10:36:26
; FORMAT={-:-/ absolute / metric / decimal}
; #@! TF.CreationDate,2021-01-13T10:36:26-05:00
; #@! TF.GenerationSoftware,Kicad,Pcbnew,(5.1.8)-1
; #@! TF.FileFunction,Plated,1,2,PTH
FMAT,2
METRIC
T1C0.254
T2C0.700
T3C0.800
T4C1.000
T5C1.200
%
G90
G05
T1
X144.78Y-38.1
X154.305Y-83.185
X162.56Y-54.61
X162.56Y-55.88
X162.56Y-57.15
X162.938Y-53.086
X169.545Y-83.185
X169.989Y-36.386
X170.688Y-37.084
X171.704Y-37.338
X172.974Y-37.592
X174.625Y-16.51
X177.415Y-82.935
X180.191Y-15.091
X185.569Y-15.091
X187.96Y-17.145
X191.52Y-82.935
X199.14Y-82.935
X203.708Y-54.864
X203.835Y-55.88
X203.835Y-57.15
X204.213Y-53.975
X212.982Y-35.56
X214.122Y-36.068
X214.884Y-36.83
X216.408Y-37.338
X216.535Y-16.51
X221.365Y-82.935
X222.736Y-15.091
X227.181Y-15.091
X230.505Y-17.145
X237.105Y-82.935
X244.725Y-82.935
X247.015Y-54.61
X247.015Y-55.88
X247.015Y-57.15
X247.393Y-53.34
X252.73Y-19.685
X255.27Y-94.615
X255.527Y-35.953
X256.54Y-36.068
X257.556Y-36.322
X258.572Y-36.322
X259.715Y-82.943
X261.62Y-83.82
X262.255Y-85.09
T2
X180.34Y-90.17
X180.34Y-97.79
X182.88Y-90.17
X182.88Y-97.79
X185.42Y-90.17
X185.42Y-97.79
X187.96Y-90.17
X187.96Y-97.79
X190.5Y-90.17
X190.5Y-97.79
X193.04Y-90.17
X193.04Y-97.79
X195.58Y-90.17
X195.58Y-97.79
X198.12Y-90.17
X198.12Y-97.79
X200.66Y-90.17
X200.66Y-97.79
X203.2Y-90.17
X203.2Y-97.79
X233.68Y-90.17
X233.68Y-97.79
X236.22Y-90.17
X236.22Y-97.79
X238.76Y-90.17
X238.76Y-97.79
X241.3Y-90.17
X241.3Y-97.79
X243.84Y-90.17
X243.84Y-97.79
X246.38Y-90.17
X246.38Y-97.79
X248.92Y-90.17
X248.92Y-97.79
X251.46Y-90.17
X251.46Y-97.79
X254.0Y-90.17
X254.0Y-97.79
X256.54Y-90.17
X256.54Y-97.79
X207.01Y-90.17
X207.01Y-97.79
X209.55Y-90.17
X209.55Y-97.79
X212.09Y-90.17
X212.09Y-97.79
X214.63Y-90.17
X214.63Y-97.79
X217.17Y-90.17
X217.17Y-97.79
X219.71Y-90.17
X219.71Y-97.79
X222.25Y-90.17
X222.25Y-97.79
X224.79Y-90.17
X224.79Y-97.79
X227.33Y-90.17
X227.33Y-97.79
X229.87Y-90.17
X229.87Y-97.79
X153.67Y-90.17
X153.67Y-97.79
X156.21Y-90.17
X156.21Y-97.79
X158.75Y-90.17
X158.75Y-97.79
X161.29Y-90.17
X161.29Y-97.79
X163.83Y-90.17
X163.83Y-97.79
X166.37Y-90.17
X166.37Y-97.79
X168.91Y-90.17
X168.91Y-97.79
X171.45Y-90.17
X171.45Y-97.79
X173.99Y-90.17
X173.99Y-97.79
X176.53Y-90.17
X176.53Y-97.79
T3
X174.625Y-78.74
X174.625Y-86.36
X177.165Y-78.74
X177.165Y-86.36
X179.705Y-78.74
X179.705Y-86.36
X182.245Y-78.74
X182.245Y-86.36
X184.785Y-78.74
X184.785Y-86.36
X187.325Y-78.74
X187.325Y-86.36
X189.865Y-78.74
X189.865Y-86.36
X192.405Y-78.74
X192.405Y-86.36
X176.53Y-17.145
X176.53Y-19.685
X176.53Y-22.225
X176.53Y-24.765
X176.53Y-27.305
X176.53Y-29.845
X176.53Y-32.385
X176.53Y-34.925
X184.15Y-17.145
X184.15Y-19.685
X184.15Y-22.225
X184.15Y-24.765
X184.15Y-27.305
X184.15Y-29.845
X184.15Y-32.385
X184.15Y-34.925
X208.28Y-102.87
X210.82Y-102.87
X213.36Y-102.87
X215.9Y-102.87
X218.44Y-102.87
X220.98Y-102.87
X223.52Y-102.87
X226.06Y-102.87
X228.6Y-102.87
X231.14Y-102.87
X233.68Y-102.87
X237.49Y-102.87
X240.03Y-102.87
X242.57Y-102.87
X245.11Y-102.87
X247.65Y-102.87
X250.19Y-102.87
X252.73Y-102.87
X255.27Y-102.87
X257.81Y-102.87
X260.35Y-102.87
X262.89Y-102.87
X148.59Y-17.145
X148.59Y-19.685
X148.59Y-22.225
X148.59Y-24.765
X148.59Y-27.305
X148.59Y-29.845
X148.59Y-32.385
X148.59Y-34.925
X156.21Y-17.145
X156.21Y-19.685
X156.21Y-22.225
X156.21Y-24.765
X156.21Y-27.305
X156.21Y-29.845
X156.21Y-32.385
X156.21Y-34.925
X233.045Y-17.145
X233.045Y-19.685
X233.045Y-22.225
X233.045Y-24.765
X233.045Y-27.305
X233.045Y-29.845
X233.045Y-32.385
X233.045Y-34.925
X240.665Y-17.145
X240.665Y-19.685
X240.665Y-22.225
X240.665Y-24.765
X240.665Y-27.305
X240.665Y-29.845
X240.665Y-32.385
X240.665Y-34.925
X149.86Y-102.87
X152.4Y-102.87
X154.94Y-102.87
X157.48Y-102.87
X160.02Y-102.87
X162.56Y-102.87
X165.1Y-102.87
X167.64Y-102.87
X170.18Y-102.87
X172.72Y-102.87
X175.26Y-102.87
X179.07Y-102.87
X181.61Y-102.87
X184.15Y-102.87
X186.69Y-102.87
X189.23Y-102.87
X191.77Y-102.87
X194.31Y-102.87
X196.85Y-102.87
X199.39Y-102.87
X201.93Y-102.87
X204.47Y-102.87
X219.075Y-17.145
X219.075Y-19.685
X219.075Y-22.225
X219.075Y-24.765
X219.075Y-27.305
X219.075Y-29.845
X219.075Y-32.385
X219.075Y-34.925
X226.695Y-17.145
X226.695Y-19.685
X226.695Y-22.225
X226.695Y-24.765
X226.695Y-27.305
X226.695Y-29.845
X226.695Y-32.385
X226.695Y-34.925
X196.85Y-78.74
X196.85Y-86.36
X199.39Y-78.74
X199.39Y-86.36
X201.93Y-78.74
X201.93Y-86.36
X204.47Y-78.74
X204.47Y-86.36
X207.01Y-78.74
X207.01Y-86.36
X209.55Y-78.74
X209.55Y-86.36
X212.09Y-78.74
X212.09Y-86.36
X214.63Y-78.74
X214.63Y-86.36
X241.935Y-78.74
X241.935Y-86.36
X244.475Y-78.74
X244.475Y-86.36
X247.015Y-78.74
X247.015Y-86.36
X249.555Y-78.74
X249.555Y-86.36
X252.095Y-78.74
X252.095Y-86.36
X254.635Y-78.74
X254.635Y-86.36
X257.175Y-78.74
X257.175Y-86.36
X259.715Y-78.74
X259.715Y-86.36
X262.255Y-17.145
X262.255Y-19.685
X262.255Y-22.225
X262.255Y-24.765
X262.255Y-27.305
X262.255Y-29.845
X262.255Y-32.385
X262.255Y-34.925
X269.875Y-17.145
X269.875Y-19.685
X269.875Y-22.225
X269.875Y-24.765
X269.875Y-27.305
X269.875Y-29.845
X269.875Y-32.385
X269.875Y-34.925
X151.765Y-78.74
X151.765Y-86.36
X154.305Y-78.74
X154.305Y-86.36
X156.845Y-78.74
X156.845Y-86.36
X159.385Y-78.74
X159.385Y-86.36
X161.925Y-78.74
X161.925Y-86.36
X164.465Y-78.74
X164.465Y-86.36
X167.005Y-78.74
X167.005Y-86.36
X169.545Y-78.74
X169.545Y-86.36
X190.5Y-17.145
X190.5Y-19.685
X190.5Y-22.225
X190.5Y-24.765
X190.5Y-27.305
X190.5Y-29.845
X190.5Y-32.385
X190.5Y-34.925
X198.12Y-17.145
X198.12Y-19.685
X198.12Y-22.225
X198.12Y-24.765
X198.12Y-27.305
X198.12Y-29.845
X198.12Y-32.385
X198.12Y-34.925
X219.075Y-78.74
X219.075Y-86.36
X221.615Y-78.74
X221.615Y-86.36
X224.155Y-78.74
X224.155Y-86.36
X226.695Y-78.74
X226.695Y-86.36
X229.235Y-78.74
X229.235Y-86.36
X231.775Y-78.74
X231.775Y-86.36
X234.315Y-78.74
X234.315Y-86.36
X236.855Y-78.74
X236.855Y-86.36
T4
X273.685Y-79.375
X273.685Y-86.995
X276.225Y-79.375
X276.225Y-86.995
X278.765Y-79.375
X278.765Y-86.995
X281.305Y-79.375
X281.305Y-86.995
X137.16Y-69.85
X137.16Y-72.39
X137.16Y-83.82
X137.16Y-86.36
X137.16Y-88.9
X139.7Y-83.82
X139.7Y-86.36
X139.7Y-88.9
T5
X147.97Y-44.4
X147.97Y-69.9
X149.27Y-42.1
X149.27Y-72.2
X150.57Y-44.4
X150.57Y-69.9
X151.87Y-42.1
X151.87Y-72.2
X153.17Y-44.4
X153.17Y-69.9
X179.57Y-44.4
X179.57Y-69.9
X180.87Y-42.1
X180.87Y-72.2
X182.17Y-44.4
X182.17Y-69.9
X183.47Y-42.1
X183.47Y-72.2
X184.77Y-44.4
X184.77Y-69.9
X233.06Y-44.4
X233.06Y-69.9
X234.36Y-42.1
X234.36Y-72.2
X235.66Y-44.4
X235.66Y-69.9
X236.96Y-42.1
X236.96Y-72.2
X238.26Y-44.4
X238.26Y-69.9
X264.66Y-44.4
X264.66Y-69.9
X265.96Y-42.1
X265.96Y-72.2
X267.26Y-44.4
X267.26Y-69.9
X268.56Y-42.1
X268.56Y-72.2
X269.86Y-44.4
X269.86Y-69.9
X190.515Y-44.4
X190.515Y-69.9
X191.815Y-42.1
X191.815Y-72.2
X193.115Y-44.4
X193.115Y-69.9
X194.415Y-42.1
X194.415Y-72.2
X195.715Y-44.4
X195.715Y-69.9
X222.115Y-44.4
X222.115Y-69.9
X223.415Y-42.1
X223.415Y-72.2
X224.715Y-44.4
X224.715Y-69.9
X226.015Y-42.1
X226.015Y-72.2
X227.315Y-44.4
X227.315Y-69.9
T0
M30
