M48
; DRILL file {KiCad (5.1.8)-1} date 01/13/21 10:36:26
; FORMAT={-:-/ absolute / metric / decimal}
; #@! TF.CreationDate,2021-01-13T10:36:26-05:00
; #@! TF.GenerationSoftware,Kicad,Pcbnew,(5.1.8)-1
; #@! TF.FileFunction,NonPlated,1,2,NPTH
FMAT,2
METRIC
T1C0.600
T2C4.300
%
G90
G05
T1
X136.475Y-19.05
X137.42Y-16.77
X137.42Y-21.33
X139.7Y-15.825
X139.7Y-22.275
X141.98Y-16.77
X141.98Y-21.33
X142.925Y-19.05
X274.905Y-101.6
X275.85Y-99.32
X275.85Y-103.88
X278.13Y-98.375
X278.13Y-104.825
X280.41Y-99.32
X280.41Y-103.88
X281.355Y-101.6
X274.905Y-19.05
X275.85Y-16.77
X275.85Y-21.33
X278.13Y-15.825
X278.13Y-22.275
X280.41Y-16.77
X280.41Y-21.33
X281.355Y-19.05
X136.475Y-101.6
X137.42Y-99.32
X137.42Y-103.88
X139.7Y-98.375
X139.7Y-104.825
X141.98Y-99.32
X141.98Y-103.88
X142.925Y-101.6
T2
X139.7Y-19.05
X278.13Y-101.6
X278.13Y-19.05
X139.7Y-101.6
T0
M30
