%TF.GenerationSoftware,KiCad,Pcbnew,(5.1.8)-1*%
%TF.CreationDate,2021-01-26T11:35:07-05:00*%
%TF.ProjectId,SSD8_Row,53534438-5f52-46f7-972e-6b696361645f,rev?*%
%TF.SameCoordinates,Original*%
%TF.FileFunction,Legend,Bot*%
%TF.FilePolarity,Positive*%
%FSLAX46Y46*%
G04 Gerber Fmt 4.6, Leading zero omitted, Abs format (unit mm)*
G04 Created by KiCad (PCBNEW (5.1.8)-1) date 2021-01-26 11:35:07*
%MOMM*%
%LPD*%
G01*
G04 APERTURE LIST*
%ADD10C,0.120000*%
%ADD11C,0.150000*%
G04 APERTURE END LIST*
D10*
%TO.C,J2*%
X54550000Y-36770000D02*
X54550000Y-39370000D01*
X54550000Y-36770000D02*
X64830000Y-36770000D01*
X64830000Y-36770000D02*
X64830000Y-41970000D01*
X57150000Y-41970000D02*
X64830000Y-41970000D01*
X57150000Y-39370000D02*
X57150000Y-41970000D01*
X54550000Y-39370000D02*
X57150000Y-39370000D01*
X54550000Y-41970000D02*
X55880000Y-41970000D01*
X54550000Y-40640000D02*
X54550000Y-41970000D01*
%TO.C,J1*%
X34230000Y-36770000D02*
X34230000Y-39370000D01*
X34230000Y-36770000D02*
X39430000Y-36770000D01*
X39430000Y-36770000D02*
X39430000Y-41970000D01*
X36830000Y-41970000D02*
X39430000Y-41970000D01*
X36830000Y-39370000D02*
X36830000Y-41970000D01*
X34230000Y-39370000D02*
X36830000Y-39370000D01*
X34230000Y-41970000D02*
X35560000Y-41970000D01*
X34230000Y-40640000D02*
X34230000Y-41970000D01*
%TO.C,J3*%
X44390000Y-40640000D02*
X44390000Y-41970000D01*
X44390000Y-41970000D02*
X45720000Y-41970000D01*
X44390000Y-39370000D02*
X46990000Y-39370000D01*
X46990000Y-39370000D02*
X46990000Y-41970000D01*
X46990000Y-41970000D02*
X49590000Y-41970000D01*
X49590000Y-36770000D02*
X49590000Y-41970000D01*
X44390000Y-36770000D02*
X49590000Y-36770000D01*
X44390000Y-36770000D02*
X44390000Y-39370000D01*
%TO.C,J2*%
D11*
X52562380Y-39036666D02*
X53276666Y-39036666D01*
X53419523Y-38989047D01*
X53514761Y-38893809D01*
X53562380Y-38750952D01*
X53562380Y-38655714D01*
X52657619Y-39465238D02*
X52610000Y-39512857D01*
X52562380Y-39608095D01*
X52562380Y-39846190D01*
X52610000Y-39941428D01*
X52657619Y-39989047D01*
X52752857Y-40036666D01*
X52848095Y-40036666D01*
X52990952Y-39989047D01*
X53562380Y-39417619D01*
X53562380Y-40036666D01*
%TO.C,J1*%
X32242380Y-39036666D02*
X32956666Y-39036666D01*
X33099523Y-38989047D01*
X33194761Y-38893809D01*
X33242380Y-38750952D01*
X33242380Y-38655714D01*
X33242380Y-40036666D02*
X33242380Y-39465238D01*
X33242380Y-39750952D02*
X32242380Y-39750952D01*
X32385238Y-39655714D01*
X32480476Y-39560476D01*
X32528095Y-39465238D01*
%TO.C,J3*%
X42402380Y-39036666D02*
X43116666Y-39036666D01*
X43259523Y-38989047D01*
X43354761Y-38893809D01*
X43402380Y-38750952D01*
X43402380Y-38655714D01*
X42402380Y-39417619D02*
X42402380Y-40036666D01*
X42783333Y-39703333D01*
X42783333Y-39846190D01*
X42830952Y-39941428D01*
X42878571Y-39989047D01*
X42973809Y-40036666D01*
X43211904Y-40036666D01*
X43307142Y-39989047D01*
X43354761Y-39941428D01*
X43402380Y-39846190D01*
X43402380Y-39560476D01*
X43354761Y-39465238D01*
X43307142Y-39417619D01*
%TD*%
M02*
