M48
; DRILL file {KiCad (5.1.8)-1} date 01/26/21 11:35:02
; FORMAT={-:-/ absolute / metric / decimal}
; #@! TF.CreationDate,2021-01-26T11:35:02-05:00
; #@! TF.GenerationSoftware,Kicad,Pcbnew,(5.1.8)-1
FMAT,2
METRIC
T1C0.400
T2C1.000
T3C0.600
T4C4.300
%
G90
G05
T1
X29.882Y-19.05
X29.882Y-21.59
X29.882Y-24.13
X29.882Y-26.67
X31.332Y-20.32
X31.332Y-22.86
X31.332Y-25.4
X31.332Y-27.94
X42.582Y-19.05
X42.582Y-21.59
X42.582Y-24.13
X42.582Y-26.67
X43.18Y-34.29
X44.032Y-20.32
X44.032Y-22.86
X44.032Y-25.4
X44.032Y-27.94
X55.282Y-19.05
X55.282Y-21.59
X55.282Y-24.13
X55.282Y-26.67
X56.732Y-20.32
X56.732Y-22.86
X56.732Y-25.4
X56.732Y-27.94
X67.982Y-19.05
X67.982Y-21.59
X67.982Y-24.13
X67.982Y-26.67
X69.432Y-20.32
X69.432Y-22.86
X69.432Y-25.4
X69.432Y-27.94
X74.676Y-25.4
X75.692Y-27.94
X76.962Y-26.67
X77.978Y-24.13
X78.994Y-19.05
X80.01Y-21.59
X81.28Y-22.86
X82.296Y-20.32
X88.302Y-19.05
X88.302Y-21.59
X88.302Y-24.13
X88.302Y-26.67
X88.9Y-36.068
X89.752Y-20.32
X89.752Y-22.86
X89.752Y-25.4
X89.752Y-27.94
X101.002Y-19.05
X101.002Y-21.59
X101.002Y-24.13
X101.002Y-26.67
X101.6Y-36.576
X102.452Y-20.32
X102.452Y-22.86
X102.452Y-25.4
X102.452Y-27.94
X113.702Y-19.05
X113.702Y-21.59
X113.702Y-24.13
X113.702Y-26.67
X113.792Y-34.036
X115.152Y-20.32
X115.152Y-22.86
X115.152Y-25.4
X115.152Y-27.94
X126.402Y-19.05
X126.402Y-21.59
X126.402Y-24.13
X126.402Y-26.67
X126.492Y-35.052
X127.852Y-20.32
X127.852Y-22.86
X127.852Y-25.4
X127.852Y-27.94
T2
X45.72Y-38.1
X45.72Y-40.64
X48.26Y-38.1
X48.26Y-40.64
X55.88Y-38.1
X55.88Y-40.64
X58.42Y-38.1
X58.42Y-40.64
X60.96Y-38.1
X60.96Y-40.64
X63.5Y-38.1
X63.5Y-40.64
X35.56Y-38.1
X35.56Y-40.64
X38.1Y-38.1
X38.1Y-40.64
T3
X134.57Y-38.1
X135.515Y-35.82
X135.515Y-40.38
X137.795Y-34.875
X137.795Y-41.325
X140.075Y-35.82
X140.075Y-40.38
X141.02Y-38.1
X16.46Y-19.05
X17.405Y-16.77
X17.405Y-21.33
X19.685Y-15.825
X19.685Y-22.275
X21.965Y-16.77
X21.965Y-21.33
X22.91Y-19.05
X16.46Y-38.1
X17.405Y-35.82
X17.405Y-40.38
X19.685Y-34.875
X19.685Y-41.325
X21.965Y-35.82
X21.965Y-40.38
X22.91Y-38.1
X134.57Y-19.05
X135.515Y-16.77
X135.515Y-21.33
X137.795Y-15.825
X137.795Y-22.275
X140.075Y-16.77
X140.075Y-21.33
X141.02Y-19.05
T4
X137.795Y-38.1
X19.685Y-19.05
X19.685Y-38.1
X137.795Y-19.05
T0
M30
