%TF.GenerationSoftware,KiCad,Pcbnew,(5.1.8)-1*%
%TF.CreationDate,2021-01-26T11:35:07-05:00*%
%TF.ProjectId,SSD8_Row,53534438-5f52-46f7-972e-6b696361645f,rev?*%
%TF.SameCoordinates,Original*%
%TF.FileFunction,Soldermask,Top*%
%TF.FilePolarity,Negative*%
%FSLAX46Y46*%
G04 Gerber Fmt 4.6, Leading zero omitted, Abs format (unit mm)*
G04 Created by KiCad (PCBNEW (5.1.8)-1) date 2021-01-26 11:35:07*
%MOMM*%
%LPD*%
G01*
G04 APERTURE LIST*
%ADD10R,1.700000X1.700000*%
%ADD11O,1.700000X1.700000*%
%ADD12C,8.600000*%
%ADD13C,0.900000*%
%ADD14R,1.650000X3.000000*%
G04 APERTURE END LIST*
D10*
%TO.C,J2*%
X55880000Y-40640000D03*
D11*
X55880000Y-38100000D03*
X58420000Y-40640000D03*
X58420000Y-38100000D03*
X60960000Y-40640000D03*
X60960000Y-38100000D03*
X63500000Y-40640000D03*
X63500000Y-38100000D03*
%TD*%
D12*
%TO.C,REF\u002A\u002A*%
X19685000Y-38100000D03*
D13*
X22910000Y-38100000D03*
X21965419Y-40380419D03*
X19685000Y-41325000D03*
X17404581Y-40380419D03*
X16460000Y-38100000D03*
X17404581Y-35819581D03*
X19685000Y-34875000D03*
X21965419Y-35819581D03*
%TD*%
D12*
%TO.C,REF\u002A\u002A*%
X19685000Y-19050000D03*
D13*
X22910000Y-19050000D03*
X21965419Y-21330419D03*
X19685000Y-22275000D03*
X17404581Y-21330419D03*
X16460000Y-19050000D03*
X17404581Y-16769581D03*
X19685000Y-15825000D03*
X21965419Y-16769581D03*
%TD*%
D12*
%TO.C,REF\u002A\u002A*%
X137795000Y-38100000D03*
D13*
X141020000Y-38100000D03*
X140075419Y-40380419D03*
X137795000Y-41325000D03*
X135514581Y-40380419D03*
X134570000Y-38100000D03*
X135514581Y-35819581D03*
X137795000Y-34875000D03*
X140075419Y-35819581D03*
%TD*%
D12*
%TO.C,REF\u002A\u002A*%
X137795000Y-19050000D03*
D13*
X141020000Y-19050000D03*
X140075419Y-21330419D03*
X137795000Y-22275000D03*
X135514581Y-21330419D03*
X134570000Y-19050000D03*
X135514581Y-16769581D03*
X137795000Y-15825000D03*
X140075419Y-16769581D03*
%TD*%
D14*
%TO.C,D4*%
X72507000Y-15995000D03*
X70607000Y-15995000D03*
X68707000Y-15995000D03*
X66807000Y-15995000D03*
X64907000Y-15995000D03*
X64907000Y-30995000D03*
X66807000Y-30995000D03*
X68707000Y-30995000D03*
X70607000Y-30995000D03*
X72507000Y-30995000D03*
%TD*%
%TO.C,D1*%
X34407000Y-15995000D03*
X32507000Y-15995000D03*
X30607000Y-15995000D03*
X28707000Y-15995000D03*
X26807000Y-15995000D03*
X26807000Y-30995000D03*
X28707000Y-30995000D03*
X30607000Y-30995000D03*
X32507000Y-30995000D03*
X34407000Y-30995000D03*
%TD*%
%TO.C,D5*%
X92827000Y-15995000D03*
X90927000Y-15995000D03*
X89027000Y-15995000D03*
X87127000Y-15995000D03*
X85227000Y-15995000D03*
X85227000Y-30995000D03*
X87127000Y-30995000D03*
X89027000Y-30995000D03*
X90927000Y-30995000D03*
X92827000Y-30995000D03*
%TD*%
%TO.C,D2*%
X47107000Y-30995000D03*
X45207000Y-30995000D03*
X43307000Y-30995000D03*
X41407000Y-30995000D03*
X39507000Y-30995000D03*
X39507000Y-15995000D03*
X41407000Y-15995000D03*
X43307000Y-15995000D03*
X45207000Y-15995000D03*
X47107000Y-15995000D03*
%TD*%
%TO.C,D6*%
X105527000Y-30995000D03*
X103627000Y-30995000D03*
X101727000Y-30995000D03*
X99827000Y-30995000D03*
X97927000Y-30995000D03*
X97927000Y-15995000D03*
X99827000Y-15995000D03*
X101727000Y-15995000D03*
X103627000Y-15995000D03*
X105527000Y-15995000D03*
%TD*%
%TO.C,D3*%
X59807000Y-30995000D03*
X57907000Y-30995000D03*
X56007000Y-30995000D03*
X54107000Y-30995000D03*
X52207000Y-30995000D03*
X52207000Y-15995000D03*
X54107000Y-15995000D03*
X56007000Y-15995000D03*
X57907000Y-15995000D03*
X59807000Y-15995000D03*
%TD*%
%TO.C,D7*%
X118227000Y-30995000D03*
X116327000Y-30995000D03*
X114427000Y-30995000D03*
X112527000Y-30995000D03*
X110627000Y-30995000D03*
X110627000Y-15995000D03*
X112527000Y-15995000D03*
X114427000Y-15995000D03*
X116327000Y-15995000D03*
X118227000Y-15995000D03*
%TD*%
%TO.C,D8*%
X130927000Y-15995000D03*
X129027000Y-15995000D03*
X127127000Y-15995000D03*
X125227000Y-15995000D03*
X123327000Y-15995000D03*
X123327000Y-30995000D03*
X125227000Y-30995000D03*
X127127000Y-30995000D03*
X129027000Y-30995000D03*
X130927000Y-30995000D03*
%TD*%
D10*
%TO.C,J1*%
X35560000Y-40640000D03*
D11*
X35560000Y-38100000D03*
X38100000Y-40640000D03*
X38100000Y-38100000D03*
%TD*%
%TO.C,J3*%
X48260000Y-38100000D03*
X48260000Y-40640000D03*
X45720000Y-38100000D03*
D10*
X45720000Y-40640000D03*
%TD*%
M02*
