%TF.GenerationSoftware,KiCad,Pcbnew,(5.1.8)-1*%
%TF.CreationDate,2021-01-26T11:35:07-05:00*%
%TF.ProjectId,SSD8_Row,53534438-5f52-46f7-972e-6b696361645f,rev?*%
%TF.SameCoordinates,Original*%
%TF.FileFunction,Copper,L1,Top*%
%TF.FilePolarity,Positive*%
%FSLAX46Y46*%
G04 Gerber Fmt 4.6, Leading zero omitted, Abs format (unit mm)*
G04 Created by KiCad (PCBNEW (5.1.8)-1) date 2021-01-26 11:35:07*
%MOMM*%
%LPD*%
G01*
G04 APERTURE LIST*
%TA.AperFunction,ComponentPad*%
%ADD10R,1.700000X1.700000*%
%TD*%
%TA.AperFunction,ComponentPad*%
%ADD11O,1.700000X1.700000*%
%TD*%
%TA.AperFunction,WasherPad*%
%ADD12C,8.600000*%
%TD*%
%TA.AperFunction,WasherPad*%
%ADD13C,0.900000*%
%TD*%
%TA.AperFunction,SMDPad,CuDef*%
%ADD14R,1.650000X3.000000*%
%TD*%
%TA.AperFunction,ViaPad*%
%ADD15C,0.800000*%
%TD*%
%TA.AperFunction,Conductor*%
%ADD16C,0.250000*%
%TD*%
G04 APERTURE END LIST*
D10*
%TO.P,J2,1*%
%TO.N,/SEG_F*%
X55880000Y-40640000D03*
D11*
%TO.P,J2,2*%
%TO.N,/SEG_E*%
X55880000Y-38100000D03*
%TO.P,J2,3*%
%TO.N,/SEG_G*%
X58420000Y-40640000D03*
%TO.P,J2,4*%
%TO.N,/SEG_D*%
X58420000Y-38100000D03*
%TO.P,J2,5*%
%TO.N,/SEG_B*%
X60960000Y-40640000D03*
%TO.P,J2,6*%
%TO.N,/SEG_C*%
X60960000Y-38100000D03*
%TO.P,J2,7*%
%TO.N,/SEG_A*%
X63500000Y-40640000D03*
%TO.P,J2,8*%
%TO.N,/SEG_DP*%
X63500000Y-38100000D03*
%TD*%
D12*
%TO.P,REF\u002A\u002A,*%
%TO.N,*%
X19685000Y-38100000D03*
D13*
X22910000Y-38100000D03*
X21965419Y-40380419D03*
X19685000Y-41325000D03*
X17404581Y-40380419D03*
X16460000Y-38100000D03*
X17404581Y-35819581D03*
X19685000Y-34875000D03*
X21965419Y-35819581D03*
%TD*%
D12*
%TO.P,REF\u002A\u002A,*%
%TO.N,*%
X19685000Y-19050000D03*
D13*
X22910000Y-19050000D03*
X21965419Y-21330419D03*
X19685000Y-22275000D03*
X17404581Y-21330419D03*
X16460000Y-19050000D03*
X17404581Y-16769581D03*
X19685000Y-15825000D03*
X21965419Y-16769581D03*
%TD*%
D12*
%TO.P,REF\u002A\u002A,*%
%TO.N,*%
X137795000Y-38100000D03*
D13*
X141020000Y-38100000D03*
X140075419Y-40380419D03*
X137795000Y-41325000D03*
X135514581Y-40380419D03*
X134570000Y-38100000D03*
X135514581Y-35819581D03*
X137795000Y-34875000D03*
X140075419Y-35819581D03*
%TD*%
D12*
%TO.P,REF\u002A\u002A,*%
%TO.N,*%
X137795000Y-19050000D03*
D13*
X141020000Y-19050000D03*
X140075419Y-21330419D03*
X137795000Y-22275000D03*
X135514581Y-21330419D03*
X134570000Y-19050000D03*
X135514581Y-16769581D03*
X137795000Y-15825000D03*
X140075419Y-16769581D03*
%TD*%
D14*
%TO.P,D4,10*%
%TO.N,/SEG_G*%
X72507000Y-15995000D03*
%TO.P,D4,9*%
%TO.N,/SEG_F*%
X70607000Y-15995000D03*
%TO.P,D4,8*%
%TO.N,/DIG_3*%
X68707000Y-15995000D03*
%TO.P,D4,7*%
%TO.N,/SEG_A*%
X66807000Y-15995000D03*
%TO.P,D4,6*%
%TO.N,/SEG_B*%
X64907000Y-15995000D03*
%TO.P,D4,5*%
%TO.N,/SEG_DP*%
X64907000Y-30995000D03*
%TO.P,D4,4*%
%TO.N,/SEG_C*%
X66807000Y-30995000D03*
%TO.P,D4,3*%
%TO.N,/DIG_3*%
X68707000Y-30995000D03*
%TO.P,D4,2*%
%TO.N,/SEG_D*%
X70607000Y-30995000D03*
%TO.P,D4,1*%
%TO.N,/SEG_E*%
X72507000Y-30995000D03*
%TD*%
%TO.P,D1,10*%
%TO.N,/SEG_G*%
X34407000Y-15995000D03*
%TO.P,D1,9*%
%TO.N,/SEG_F*%
X32507000Y-15995000D03*
%TO.P,D1,8*%
%TO.N,/DIG_0*%
X30607000Y-15995000D03*
%TO.P,D1,7*%
%TO.N,/SEG_A*%
X28707000Y-15995000D03*
%TO.P,D1,6*%
%TO.N,/SEG_B*%
X26807000Y-15995000D03*
%TO.P,D1,5*%
%TO.N,/SEG_DP*%
X26807000Y-30995000D03*
%TO.P,D1,4*%
%TO.N,/SEG_C*%
X28707000Y-30995000D03*
%TO.P,D1,3*%
%TO.N,/DIG_0*%
X30607000Y-30995000D03*
%TO.P,D1,2*%
%TO.N,/SEG_D*%
X32507000Y-30995000D03*
%TO.P,D1,1*%
%TO.N,/SEG_E*%
X34407000Y-30995000D03*
%TD*%
%TO.P,D5,10*%
%TO.N,/SEG_G*%
X92827000Y-15995000D03*
%TO.P,D5,9*%
%TO.N,/SEG_F*%
X90927000Y-15995000D03*
%TO.P,D5,8*%
%TO.N,/DIG_4*%
X89027000Y-15995000D03*
%TO.P,D5,7*%
%TO.N,/SEG_A*%
X87127000Y-15995000D03*
%TO.P,D5,6*%
%TO.N,/SEG_B*%
X85227000Y-15995000D03*
%TO.P,D5,5*%
%TO.N,/SEG_DP*%
X85227000Y-30995000D03*
%TO.P,D5,4*%
%TO.N,/SEG_C*%
X87127000Y-30995000D03*
%TO.P,D5,3*%
%TO.N,/DIG_4*%
X89027000Y-30995000D03*
%TO.P,D5,2*%
%TO.N,/SEG_D*%
X90927000Y-30995000D03*
%TO.P,D5,1*%
%TO.N,/SEG_E*%
X92827000Y-30995000D03*
%TD*%
%TO.P,D2,1*%
%TO.N,/SEG_E*%
X47107000Y-30995000D03*
%TO.P,D2,2*%
%TO.N,/SEG_D*%
X45207000Y-30995000D03*
%TO.P,D2,3*%
%TO.N,/DIG_1*%
X43307000Y-30995000D03*
%TO.P,D2,4*%
%TO.N,/SEG_C*%
X41407000Y-30995000D03*
%TO.P,D2,5*%
%TO.N,/SEG_DP*%
X39507000Y-30995000D03*
%TO.P,D2,6*%
%TO.N,/SEG_B*%
X39507000Y-15995000D03*
%TO.P,D2,7*%
%TO.N,/SEG_A*%
X41407000Y-15995000D03*
%TO.P,D2,8*%
%TO.N,/DIG_1*%
X43307000Y-15995000D03*
%TO.P,D2,9*%
%TO.N,/SEG_F*%
X45207000Y-15995000D03*
%TO.P,D2,10*%
%TO.N,/SEG_G*%
X47107000Y-15995000D03*
%TD*%
%TO.P,D6,1*%
%TO.N,/SEG_E*%
X105527000Y-30995000D03*
%TO.P,D6,2*%
%TO.N,/SEG_D*%
X103627000Y-30995000D03*
%TO.P,D6,3*%
%TO.N,/DIG_5*%
X101727000Y-30995000D03*
%TO.P,D6,4*%
%TO.N,/SEG_C*%
X99827000Y-30995000D03*
%TO.P,D6,5*%
%TO.N,/SEG_DP*%
X97927000Y-30995000D03*
%TO.P,D6,6*%
%TO.N,/SEG_B*%
X97927000Y-15995000D03*
%TO.P,D6,7*%
%TO.N,/SEG_A*%
X99827000Y-15995000D03*
%TO.P,D6,8*%
%TO.N,/DIG_5*%
X101727000Y-15995000D03*
%TO.P,D6,9*%
%TO.N,/SEG_F*%
X103627000Y-15995000D03*
%TO.P,D6,10*%
%TO.N,/SEG_G*%
X105527000Y-15995000D03*
%TD*%
%TO.P,D3,1*%
%TO.N,/SEG_E*%
X59807000Y-30995000D03*
%TO.P,D3,2*%
%TO.N,/SEG_D*%
X57907000Y-30995000D03*
%TO.P,D3,3*%
%TO.N,/DIG_2*%
X56007000Y-30995000D03*
%TO.P,D3,4*%
%TO.N,/SEG_C*%
X54107000Y-30995000D03*
%TO.P,D3,5*%
%TO.N,/SEG_DP*%
X52207000Y-30995000D03*
%TO.P,D3,6*%
%TO.N,/SEG_B*%
X52207000Y-15995000D03*
%TO.P,D3,7*%
%TO.N,/SEG_A*%
X54107000Y-15995000D03*
%TO.P,D3,8*%
%TO.N,/DIG_2*%
X56007000Y-15995000D03*
%TO.P,D3,9*%
%TO.N,/SEG_F*%
X57907000Y-15995000D03*
%TO.P,D3,10*%
%TO.N,/SEG_G*%
X59807000Y-15995000D03*
%TD*%
%TO.P,D7,1*%
%TO.N,/SEG_E*%
X118227000Y-30995000D03*
%TO.P,D7,2*%
%TO.N,/SEG_D*%
X116327000Y-30995000D03*
%TO.P,D7,3*%
%TO.N,/DIG_6*%
X114427000Y-30995000D03*
%TO.P,D7,4*%
%TO.N,/SEG_C*%
X112527000Y-30995000D03*
%TO.P,D7,5*%
%TO.N,/SEG_DP*%
X110627000Y-30995000D03*
%TO.P,D7,6*%
%TO.N,/SEG_B*%
X110627000Y-15995000D03*
%TO.P,D7,7*%
%TO.N,/SEG_A*%
X112527000Y-15995000D03*
%TO.P,D7,8*%
%TO.N,/DIG_6*%
X114427000Y-15995000D03*
%TO.P,D7,9*%
%TO.N,/SEG_F*%
X116327000Y-15995000D03*
%TO.P,D7,10*%
%TO.N,/SEG_G*%
X118227000Y-15995000D03*
%TD*%
%TO.P,D8,10*%
%TO.N,/SEG_G*%
X130927000Y-15995000D03*
%TO.P,D8,9*%
%TO.N,/SEG_F*%
X129027000Y-15995000D03*
%TO.P,D8,8*%
%TO.N,/DIG_7*%
X127127000Y-15995000D03*
%TO.P,D8,7*%
%TO.N,/SEG_A*%
X125227000Y-15995000D03*
%TO.P,D8,6*%
%TO.N,/SEG_B*%
X123327000Y-15995000D03*
%TO.P,D8,5*%
%TO.N,/SEG_DP*%
X123327000Y-30995000D03*
%TO.P,D8,4*%
%TO.N,/SEG_C*%
X125227000Y-30995000D03*
%TO.P,D8,3*%
%TO.N,/DIG_7*%
X127127000Y-30995000D03*
%TO.P,D8,2*%
%TO.N,/SEG_D*%
X129027000Y-30995000D03*
%TO.P,D8,1*%
%TO.N,/SEG_E*%
X130927000Y-30995000D03*
%TD*%
D10*
%TO.P,J1,1*%
%TO.N,/DIG_0*%
X35560000Y-40640000D03*
D11*
%TO.P,J1,2*%
%TO.N,/DIG_2*%
X35560000Y-38100000D03*
%TO.P,J1,3*%
%TO.N,/DIG_1*%
X38100000Y-40640000D03*
%TO.P,J1,4*%
%TO.N,/DIG_3*%
X38100000Y-38100000D03*
%TD*%
%TO.P,J3,4*%
%TO.N,/DIG_7*%
X48260000Y-38100000D03*
%TO.P,J3,3*%
%TO.N,/DIG_5*%
X48260000Y-40640000D03*
%TO.P,J3,2*%
%TO.N,/DIG_6*%
X45720000Y-38100000D03*
D10*
%TO.P,J3,1*%
%TO.N,/DIG_4*%
X45720000Y-40640000D03*
%TD*%
D15*
%TO.N,/SEG_G*%
X31332000Y-22860000D03*
X44032000Y-22860000D03*
X56732000Y-22860000D03*
X69432000Y-22860000D03*
X89752000Y-22860000D03*
X102452000Y-22860000D03*
X115152000Y-22860000D03*
X127852000Y-22860000D03*
X81280000Y-22860000D03*
%TO.N,/SEG_F*%
X31332000Y-20320000D03*
X44032000Y-20320000D03*
X56732000Y-20320000D03*
X69432000Y-20320000D03*
X89752000Y-20320000D03*
X102452000Y-20320000D03*
X115152000Y-20320000D03*
X127852000Y-20320000D03*
X82296000Y-20320000D03*
%TO.N,/SEG_A*%
X29882000Y-19050000D03*
X42582000Y-19050000D03*
X55282000Y-19050000D03*
X67982000Y-19050000D03*
X88302000Y-19050000D03*
X101002000Y-19050000D03*
X113702000Y-19050000D03*
X126402000Y-19050000D03*
X78994000Y-19050000D03*
%TO.N,/SEG_B*%
X29882000Y-21590000D03*
X42582000Y-21590000D03*
X55282000Y-21590000D03*
X67982000Y-21590000D03*
X88302000Y-21590000D03*
X101002000Y-21590000D03*
X113702000Y-21590000D03*
X126402000Y-21590000D03*
X80010000Y-21590000D03*
%TO.N,/SEG_DP*%
X29882000Y-24130000D03*
X42582000Y-24130000D03*
X55282000Y-24130000D03*
X67982000Y-24130000D03*
X88302000Y-24130000D03*
X101002000Y-24130000D03*
X113702000Y-24130000D03*
X126402000Y-24130000D03*
X77978000Y-24130000D03*
%TO.N,/SEG_C*%
X29882000Y-26670000D03*
X42582000Y-26670000D03*
X55282000Y-26670000D03*
X67982000Y-26670000D03*
X88302000Y-26670000D03*
X101002000Y-26670000D03*
X113702000Y-26670000D03*
X126402000Y-26670000D03*
X76962000Y-26670000D03*
%TO.N,/SEG_D*%
X31332000Y-27940000D03*
X44032000Y-27940000D03*
X56732000Y-27940000D03*
X69432000Y-27940000D03*
X89752000Y-27940000D03*
X102452000Y-27940000D03*
X115152000Y-27940000D03*
X127852000Y-27940000D03*
X75692000Y-27940000D03*
%TO.N,/SEG_E*%
X31332000Y-25400000D03*
X44032000Y-25400000D03*
X56732000Y-25400000D03*
X69432000Y-25400000D03*
X89752000Y-25400000D03*
X102452000Y-25400000D03*
X115152000Y-25400000D03*
X127852000Y-25400000D03*
X74676000Y-25400000D03*
%TO.N,/DIG_4*%
X88900000Y-36068000D03*
%TO.N,/DIG_5*%
X101600000Y-36576000D03*
%TO.N,/DIG_2*%
X43180000Y-34290000D03*
%TO.N,/DIG_6*%
X113792000Y-34036000D03*
%TO.N,/DIG_7*%
X126492000Y-35052000D03*
%TD*%
D16*
%TO.N,/SEG_G*%
X34407000Y-19785000D02*
X31332000Y-22860000D01*
X34407000Y-15995000D02*
X34407000Y-19785000D01*
X47107000Y-19785000D02*
X44032000Y-22860000D01*
X47107000Y-15995000D02*
X47107000Y-19785000D01*
X59807000Y-19785000D02*
X56732000Y-22860000D01*
X59807000Y-15995000D02*
X59807000Y-19785000D01*
X72507000Y-19785000D02*
X69432000Y-22860000D01*
X72507000Y-15995000D02*
X72507000Y-19785000D01*
X92827000Y-19785000D02*
X89752000Y-22860000D01*
X92827000Y-15995000D02*
X92827000Y-19785000D01*
X105527000Y-19785000D02*
X102452000Y-22860000D01*
X105527000Y-15995000D02*
X105527000Y-19785000D01*
X118227000Y-19785000D02*
X115152000Y-22860000D01*
X118227000Y-15995000D02*
X118227000Y-19785000D01*
X130927000Y-19785000D02*
X127852000Y-22860000D01*
X130927000Y-15995000D02*
X130927000Y-19785000D01*
X60045011Y-42265011D02*
X64922989Y-42265011D01*
X58420000Y-40640000D02*
X60045011Y-42265011D01*
X64922989Y-42265011D02*
X66548000Y-40640000D01*
X66548000Y-40640000D02*
X73152000Y-40640000D01*
X81280000Y-33410870D02*
X81280000Y-22860000D01*
X74050870Y-40640000D02*
X81280000Y-33410870D01*
X73152000Y-40640000D02*
X74050870Y-40640000D01*
%TO.N,/SEG_F*%
X32507000Y-19145000D02*
X31332000Y-20320000D01*
X32507000Y-15995000D02*
X32507000Y-19145000D01*
X45207000Y-19145000D02*
X44032000Y-20320000D01*
X45207000Y-15995000D02*
X45207000Y-19145000D01*
X57907000Y-19145000D02*
X56732000Y-20320000D01*
X57907000Y-15995000D02*
X57907000Y-19145000D01*
X70607000Y-19145000D02*
X69432000Y-20320000D01*
X70607000Y-15995000D02*
X70607000Y-19145000D01*
X90927000Y-19145000D02*
X89752000Y-20320000D01*
X90927000Y-15995000D02*
X90927000Y-19145000D01*
X103627000Y-19145000D02*
X102452000Y-20320000D01*
X103627000Y-15995000D02*
X103627000Y-19145000D01*
X116327000Y-19145000D02*
X115152000Y-20320000D01*
X116327000Y-15995000D02*
X116327000Y-19145000D01*
X129027000Y-19145000D02*
X127852000Y-20320000D01*
X129027000Y-15995000D02*
X129027000Y-19145000D01*
X82296000Y-33031280D02*
X82296000Y-20320000D01*
X74179280Y-41148000D02*
X82296000Y-33031280D01*
X67056000Y-41148000D02*
X74179280Y-41148000D01*
X65488979Y-42715021D02*
X67056000Y-41148000D01*
X57955021Y-42715021D02*
X65488979Y-42715021D01*
X55880000Y-40640000D02*
X57955021Y-42715021D01*
%TO.N,/DIG_0*%
X30607000Y-30995000D02*
X30607000Y-15995000D01*
X30607000Y-35687000D02*
X35560000Y-40640000D01*
X30607000Y-30995000D02*
X30607000Y-35687000D01*
%TO.N,/SEG_A*%
X28707000Y-17875000D02*
X29882000Y-19050000D01*
X28707000Y-15995000D02*
X28707000Y-17875000D01*
X41407000Y-17875000D02*
X42582000Y-19050000D01*
X41407000Y-15995000D02*
X41407000Y-17875000D01*
X54107000Y-17875000D02*
X55282000Y-19050000D01*
X54107000Y-15995000D02*
X54107000Y-17875000D01*
X66807000Y-17875000D02*
X67982000Y-19050000D01*
X66807000Y-15995000D02*
X66807000Y-17875000D01*
X87127000Y-17875000D02*
X88302000Y-19050000D01*
X87127000Y-15995000D02*
X87127000Y-17875000D01*
X99827000Y-17875000D02*
X101002000Y-19050000D01*
X99827000Y-15995000D02*
X99827000Y-17875000D01*
X112527000Y-17875000D02*
X113702000Y-19050000D01*
X112527000Y-15995000D02*
X112527000Y-17875000D01*
X125227000Y-17875000D02*
X126402000Y-19050000D01*
X125227000Y-15995000D02*
X125227000Y-17875000D01*
X73794050Y-39624000D02*
X78994000Y-34424050D01*
X64516000Y-39624000D02*
X73794050Y-39624000D01*
X63500000Y-40640000D02*
X64516000Y-39624000D01*
X78994000Y-34424050D02*
X78994000Y-19050000D01*
%TO.N,/SEG_B*%
X26807000Y-18515000D02*
X29882000Y-21590000D01*
X26807000Y-15995000D02*
X26807000Y-18515000D01*
X39507000Y-18515000D02*
X42582000Y-21590000D01*
X39507000Y-15995000D02*
X39507000Y-18515000D01*
X52207000Y-18515000D02*
X55282000Y-21590000D01*
X52207000Y-15995000D02*
X52207000Y-18515000D01*
X64907000Y-18515000D02*
X67982000Y-21590000D01*
X64907000Y-15995000D02*
X64907000Y-18515000D01*
X85227000Y-18515000D02*
X88302000Y-21590000D01*
X85227000Y-15995000D02*
X85227000Y-18515000D01*
X97927000Y-18515000D02*
X101002000Y-21590000D01*
X97927000Y-15995000D02*
X97927000Y-18515000D01*
X110627000Y-18515000D02*
X113702000Y-21590000D01*
X110627000Y-15995000D02*
X110627000Y-18515000D01*
X123327000Y-18515000D02*
X126402000Y-21590000D01*
X123327000Y-15995000D02*
X123327000Y-18515000D01*
X80010000Y-34044460D02*
X80010000Y-21590000D01*
X73922460Y-40132000D02*
X80010000Y-34044460D01*
X64356999Y-41815001D02*
X66040000Y-40132000D01*
X62135001Y-41815001D02*
X64356999Y-41815001D01*
X66040000Y-40132000D02*
X73922460Y-40132000D01*
X60960000Y-40640000D02*
X62135001Y-41815001D01*
%TO.N,/SEG_DP*%
X26807000Y-27205000D02*
X29882000Y-24130000D01*
X26807000Y-30995000D02*
X26807000Y-27205000D01*
X39507000Y-27205000D02*
X42582000Y-24130000D01*
X39507000Y-30995000D02*
X39507000Y-27205000D01*
X52207000Y-27205000D02*
X55282000Y-24130000D01*
X52207000Y-30995000D02*
X52207000Y-27205000D01*
X64907000Y-27205000D02*
X67982000Y-24130000D01*
X64907000Y-30995000D02*
X64907000Y-27205000D01*
X85227000Y-27205000D02*
X88302000Y-24130000D01*
X85227000Y-30995000D02*
X85227000Y-27205000D01*
X97927000Y-27205000D02*
X101002000Y-24130000D01*
X97927000Y-30995000D02*
X97927000Y-27205000D01*
X110627000Y-27205000D02*
X113702000Y-24130000D01*
X110627000Y-30995000D02*
X110627000Y-27205000D01*
X123327000Y-27205000D02*
X126402000Y-24130000D01*
X123327000Y-30995000D02*
X123327000Y-27205000D01*
X73665640Y-39116000D02*
X77978000Y-34803640D01*
X64516000Y-39116000D02*
X73665640Y-39116000D01*
X63500000Y-38100000D02*
X64516000Y-39116000D01*
X77978000Y-34803640D02*
X77978000Y-24130000D01*
%TO.N,/SEG_C*%
X28707000Y-27845000D02*
X29882000Y-26670000D01*
X28707000Y-30995000D02*
X28707000Y-27845000D01*
X41407000Y-27845000D02*
X42582000Y-26670000D01*
X41407000Y-30995000D02*
X41407000Y-27845000D01*
X54107000Y-27845000D02*
X55282000Y-26670000D01*
X54107000Y-30995000D02*
X54107000Y-27845000D01*
X66807000Y-27845000D02*
X67982000Y-26670000D01*
X66807000Y-30995000D02*
X66807000Y-27845000D01*
X87127000Y-27845000D02*
X88302000Y-26670000D01*
X87127000Y-30995000D02*
X87127000Y-27845000D01*
X99827000Y-27845000D02*
X101002000Y-26670000D01*
X99827000Y-30995000D02*
X99827000Y-27845000D01*
X112527000Y-27845000D02*
X113702000Y-26670000D01*
X112527000Y-30995000D02*
X112527000Y-27845000D01*
X125227000Y-27845000D02*
X126402000Y-26670000D01*
X125227000Y-30995000D02*
X125227000Y-27845000D01*
X76962000Y-35183230D02*
X76962000Y-26670000D01*
X73537230Y-38608000D02*
X76962000Y-35183230D01*
X66040000Y-38608000D02*
X73537230Y-38608000D01*
X64356999Y-36924999D02*
X66040000Y-38608000D01*
X62135001Y-36924999D02*
X64356999Y-36924999D01*
X60960000Y-38100000D02*
X62135001Y-36924999D01*
%TO.N,/SEG_D*%
X32507000Y-29115000D02*
X31332000Y-27940000D01*
X32507000Y-30995000D02*
X32507000Y-29115000D01*
X45207000Y-29115000D02*
X44032000Y-27940000D01*
X45207000Y-30995000D02*
X45207000Y-29115000D01*
X57907000Y-29115000D02*
X56732000Y-27940000D01*
X57907000Y-30995000D02*
X57907000Y-29115000D01*
X70607000Y-29115000D02*
X69432000Y-27940000D01*
X70607000Y-30995000D02*
X70607000Y-29115000D01*
X90927000Y-29115000D02*
X89752000Y-27940000D01*
X90927000Y-30995000D02*
X90927000Y-29115000D01*
X103627000Y-29115000D02*
X102452000Y-27940000D01*
X103627000Y-30995000D02*
X103627000Y-29115000D01*
X116327000Y-29115000D02*
X115152000Y-27940000D01*
X116327000Y-30995000D02*
X116327000Y-29115000D01*
X129027000Y-29115000D02*
X127852000Y-27940000D01*
X129027000Y-30995000D02*
X129027000Y-29115000D01*
X75692000Y-35816820D02*
X75692000Y-27940000D01*
X66548000Y-38100000D02*
X73408820Y-38100000D01*
X64922989Y-36474989D02*
X66548000Y-38100000D01*
X60045011Y-36474989D02*
X64922989Y-36474989D01*
X58420000Y-38100000D02*
X60045011Y-36474989D01*
X73408820Y-38100000D02*
X75692000Y-35816820D01*
%TO.N,/SEG_E*%
X55118000Y-38100000D02*
X55118000Y-38608000D01*
X34407000Y-28475000D02*
X31332000Y-25400000D01*
X34407000Y-30995000D02*
X34407000Y-28475000D01*
X47107000Y-28475000D02*
X44032000Y-25400000D01*
X47107000Y-30995000D02*
X47107000Y-28475000D01*
X59807000Y-28475000D02*
X56732000Y-25400000D01*
X59807000Y-30995000D02*
X59807000Y-28475000D01*
X72507000Y-28475000D02*
X69432000Y-25400000D01*
X72507000Y-30995000D02*
X72507000Y-28475000D01*
X92827000Y-28475000D02*
X89752000Y-25400000D01*
X92827000Y-30995000D02*
X92827000Y-28475000D01*
X105527000Y-28475000D02*
X102452000Y-25400000D01*
X105527000Y-30995000D02*
X105527000Y-28475000D01*
X118227000Y-28475000D02*
X115152000Y-25400000D01*
X118227000Y-30995000D02*
X118227000Y-28475000D01*
X130927000Y-28475000D02*
X127852000Y-25400000D01*
X130927000Y-30995000D02*
X130927000Y-28475000D01*
X73280410Y-37592000D02*
X74676000Y-36196410D01*
X74676000Y-36196410D02*
X74676000Y-25400000D01*
X66676410Y-37592000D02*
X73280410Y-37592000D01*
X65109390Y-36024980D02*
X66676410Y-37592000D01*
X57955021Y-36024979D02*
X65109390Y-36024980D01*
X55880000Y-38100000D02*
X57955021Y-36024979D01*
%TO.N,/DIG_4*%
X89027000Y-30995000D02*
X89027000Y-15995000D01*
X88900000Y-31122000D02*
X89027000Y-30995000D01*
X88900000Y-36068000D02*
X88900000Y-31122000D01*
%TO.N,/DIG_1*%
X43307000Y-15995000D02*
X43307000Y-30995000D01*
X36924999Y-37535999D02*
X36924999Y-39464999D01*
X37535999Y-36924999D02*
X36924999Y-37535999D01*
X39127001Y-36924999D02*
X37535999Y-36924999D01*
X43307000Y-32745000D02*
X39127001Y-36924999D01*
X36924999Y-39464999D02*
X38100000Y-40640000D01*
X43307000Y-30995000D02*
X43307000Y-32745000D01*
%TO.N,/DIG_5*%
X101727000Y-15995000D02*
X101727000Y-30995000D01*
X101092000Y-31630000D02*
X101727000Y-30995000D01*
X101600000Y-31122000D02*
X101727000Y-30995000D01*
X101600000Y-36576000D02*
X101600000Y-31122000D01*
%TO.N,/DIG_2*%
X56007000Y-30995000D02*
X56007000Y-15995000D01*
X54462000Y-34290000D02*
X43180000Y-34290000D01*
X56007000Y-32745000D02*
X54462000Y-34290000D01*
X56007000Y-30995000D02*
X56007000Y-32745000D01*
%TO.N,/DIG_6*%
X114427000Y-30995000D02*
X114427000Y-15995000D01*
X114427000Y-33401000D02*
X113792000Y-34036000D01*
X114427000Y-30995000D02*
X114427000Y-33401000D01*
%TO.N,/DIG_3*%
X68707000Y-15995000D02*
X68707000Y-30995000D01*
X38100000Y-38100000D02*
X40640000Y-38100000D01*
X68707000Y-32162502D02*
X68707000Y-30995000D01*
X66129492Y-34740010D02*
X68707000Y-32162502D01*
X43999990Y-34740010D02*
X66129492Y-34740010D01*
X40640000Y-38100000D02*
X43999990Y-34740010D01*
%TO.N,/DIG_7*%
X127127000Y-15995000D02*
X127127000Y-30995000D01*
X126492000Y-35052000D02*
X127000000Y-34544000D01*
X127000000Y-31122000D02*
X127127000Y-30995000D01*
X127000000Y-34544000D02*
X127000000Y-31122000D01*
%TD*%
M02*
