%TF.GenerationSoftware,KiCad,Pcbnew,(5.1.8)-1*%
%TF.CreationDate,2021-01-26T11:35:07-05:00*%
%TF.ProjectId,SSD8_Row,53534438-5f52-46f7-972e-6b696361645f,rev?*%
%TF.SameCoordinates,Original*%
%TF.FileFunction,Copper,L2,Bot*%
%TF.FilePolarity,Positive*%
%FSLAX46Y46*%
G04 Gerber Fmt 4.6, Leading zero omitted, Abs format (unit mm)*
G04 Created by KiCad (PCBNEW (5.1.8)-1) date 2021-01-26 11:35:07*
%MOMM*%
%LPD*%
G01*
G04 APERTURE LIST*
%TA.AperFunction,ComponentPad*%
%ADD10R,1.700000X1.700000*%
%TD*%
%TA.AperFunction,ComponentPad*%
%ADD11O,1.700000X1.700000*%
%TD*%
%TA.AperFunction,WasherPad*%
%ADD12C,8.600000*%
%TD*%
%TA.AperFunction,WasherPad*%
%ADD13C,0.900000*%
%TD*%
%TA.AperFunction,ViaPad*%
%ADD14C,0.800000*%
%TD*%
%TA.AperFunction,Conductor*%
%ADD15C,0.250000*%
%TD*%
G04 APERTURE END LIST*
D10*
%TO.P,J2,1*%
%TO.N,/SEG_F*%
X55880000Y-40640000D03*
D11*
%TO.P,J2,2*%
%TO.N,/SEG_E*%
X55880000Y-38100000D03*
%TO.P,J2,3*%
%TO.N,/SEG_G*%
X58420000Y-40640000D03*
%TO.P,J2,4*%
%TO.N,/SEG_D*%
X58420000Y-38100000D03*
%TO.P,J2,5*%
%TO.N,/SEG_B*%
X60960000Y-40640000D03*
%TO.P,J2,6*%
%TO.N,/SEG_C*%
X60960000Y-38100000D03*
%TO.P,J2,7*%
%TO.N,/SEG_A*%
X63500000Y-40640000D03*
%TO.P,J2,8*%
%TO.N,/SEG_DP*%
X63500000Y-38100000D03*
%TD*%
D12*
%TO.P,REF\u002A\u002A,*%
%TO.N,*%
X19685000Y-38100000D03*
D13*
X22910000Y-38100000D03*
X21965419Y-40380419D03*
X19685000Y-41325000D03*
X17404581Y-40380419D03*
X16460000Y-38100000D03*
X17404581Y-35819581D03*
X19685000Y-34875000D03*
X21965419Y-35819581D03*
%TD*%
D12*
%TO.P,REF\u002A\u002A,*%
%TO.N,*%
X19685000Y-19050000D03*
D13*
X22910000Y-19050000D03*
X21965419Y-21330419D03*
X19685000Y-22275000D03*
X17404581Y-21330419D03*
X16460000Y-19050000D03*
X17404581Y-16769581D03*
X19685000Y-15825000D03*
X21965419Y-16769581D03*
%TD*%
D12*
%TO.P,REF\u002A\u002A,*%
%TO.N,*%
X137795000Y-38100000D03*
D13*
X141020000Y-38100000D03*
X140075419Y-40380419D03*
X137795000Y-41325000D03*
X135514581Y-40380419D03*
X134570000Y-38100000D03*
X135514581Y-35819581D03*
X137795000Y-34875000D03*
X140075419Y-35819581D03*
%TD*%
D12*
%TO.P,REF\u002A\u002A,*%
%TO.N,*%
X137795000Y-19050000D03*
D13*
X141020000Y-19050000D03*
X140075419Y-21330419D03*
X137795000Y-22275000D03*
X135514581Y-21330419D03*
X134570000Y-19050000D03*
X135514581Y-16769581D03*
X137795000Y-15825000D03*
X140075419Y-16769581D03*
%TD*%
D10*
%TO.P,J1,1*%
%TO.N,/DIG_0*%
X35560000Y-40640000D03*
D11*
%TO.P,J1,2*%
%TO.N,/DIG_2*%
X35560000Y-38100000D03*
%TO.P,J1,3*%
%TO.N,/DIG_1*%
X38100000Y-40640000D03*
%TO.P,J1,4*%
%TO.N,/DIG_3*%
X38100000Y-38100000D03*
%TD*%
%TO.P,J3,4*%
%TO.N,/DIG_7*%
X48260000Y-38100000D03*
%TO.P,J3,3*%
%TO.N,/DIG_5*%
X48260000Y-40640000D03*
%TO.P,J3,2*%
%TO.N,/DIG_6*%
X45720000Y-38100000D03*
D10*
%TO.P,J3,1*%
%TO.N,/DIG_4*%
X45720000Y-40640000D03*
%TD*%
D14*
%TO.N,/SEG_G*%
X31332000Y-22860000D03*
X44032000Y-22860000D03*
X56732000Y-22860000D03*
X69432000Y-22860000D03*
X89752000Y-22860000D03*
X102452000Y-22860000D03*
X115152000Y-22860000D03*
X127852000Y-22860000D03*
X81280000Y-22860000D03*
%TO.N,/SEG_F*%
X31332000Y-20320000D03*
X44032000Y-20320000D03*
X56732000Y-20320000D03*
X69432000Y-20320000D03*
X89752000Y-20320000D03*
X102452000Y-20320000D03*
X115152000Y-20320000D03*
X127852000Y-20320000D03*
X82296000Y-20320000D03*
%TO.N,/SEG_A*%
X29882000Y-19050000D03*
X42582000Y-19050000D03*
X55282000Y-19050000D03*
X67982000Y-19050000D03*
X88302000Y-19050000D03*
X101002000Y-19050000D03*
X113702000Y-19050000D03*
X126402000Y-19050000D03*
X78994000Y-19050000D03*
%TO.N,/SEG_B*%
X29882000Y-21590000D03*
X42582000Y-21590000D03*
X55282000Y-21590000D03*
X67982000Y-21590000D03*
X88302000Y-21590000D03*
X101002000Y-21590000D03*
X113702000Y-21590000D03*
X126402000Y-21590000D03*
X80010000Y-21590000D03*
%TO.N,/SEG_DP*%
X29882000Y-24130000D03*
X42582000Y-24130000D03*
X55282000Y-24130000D03*
X67982000Y-24130000D03*
X88302000Y-24130000D03*
X101002000Y-24130000D03*
X113702000Y-24130000D03*
X126402000Y-24130000D03*
X77978000Y-24130000D03*
%TO.N,/SEG_C*%
X29882000Y-26670000D03*
X42582000Y-26670000D03*
X55282000Y-26670000D03*
X67982000Y-26670000D03*
X88302000Y-26670000D03*
X101002000Y-26670000D03*
X113702000Y-26670000D03*
X126402000Y-26670000D03*
X76962000Y-26670000D03*
%TO.N,/SEG_D*%
X31332000Y-27940000D03*
X44032000Y-27940000D03*
X56732000Y-27940000D03*
X69432000Y-27940000D03*
X89752000Y-27940000D03*
X102452000Y-27940000D03*
X115152000Y-27940000D03*
X127852000Y-27940000D03*
X75692000Y-27940000D03*
%TO.N,/SEG_E*%
X31332000Y-25400000D03*
X44032000Y-25400000D03*
X56732000Y-25400000D03*
X69432000Y-25400000D03*
X89752000Y-25400000D03*
X102452000Y-25400000D03*
X115152000Y-25400000D03*
X127852000Y-25400000D03*
X74676000Y-25400000D03*
%TO.N,/DIG_4*%
X88900000Y-36068000D03*
%TO.N,/DIG_5*%
X101600000Y-36576000D03*
%TO.N,/DIG_2*%
X43180000Y-34290000D03*
%TO.N,/DIG_6*%
X113792000Y-34036000D03*
%TO.N,/DIG_7*%
X126492000Y-35052000D03*
%TD*%
D15*
%TO.N,/SEG_G*%
X127852000Y-22860000D02*
X115152000Y-22860000D01*
X115152000Y-22860000D02*
X102452000Y-22860000D01*
X102452000Y-22860000D02*
X89752000Y-22860000D01*
X89752000Y-22860000D02*
X78232000Y-22860000D01*
X69432000Y-22860000D02*
X56732000Y-22860000D01*
X56732000Y-22860000D02*
X44032000Y-22860000D01*
X44032000Y-22860000D02*
X31242000Y-22860000D01*
X74676000Y-22860000D02*
X69432000Y-22860000D01*
X78232000Y-22860000D02*
X74676000Y-22860000D01*
%TO.N,/SEG_F*%
X127852000Y-20320000D02*
X115152000Y-20320000D01*
X115152000Y-20320000D02*
X102362000Y-20320000D01*
X102362000Y-20320000D02*
X102452000Y-20320000D01*
X102452000Y-20320000D02*
X89752000Y-20320000D01*
X69432000Y-20320000D02*
X56732000Y-20320000D01*
X56732000Y-20320000D02*
X43942000Y-20320000D01*
X43942000Y-20320000D02*
X44032000Y-20320000D01*
X44032000Y-20320000D02*
X31332000Y-20320000D01*
X75692000Y-20320000D02*
X69432000Y-20320000D01*
X89752000Y-20320000D02*
X83312000Y-20320000D01*
X82296000Y-20320000D02*
X75692000Y-20320000D01*
X83312000Y-20320000D02*
X82296000Y-20320000D01*
%TO.N,/SEG_A*%
X113792000Y-19050000D02*
X113702000Y-19050000D01*
X29882000Y-19050000D02*
X42582000Y-19050000D01*
X42582000Y-19050000D02*
X55282000Y-19050000D01*
X55282000Y-19050000D02*
X67982000Y-19050000D01*
X67982000Y-19050000D02*
X74422000Y-19050000D01*
X88302000Y-19050000D02*
X101002000Y-19050000D01*
X101002000Y-19050000D02*
X113702000Y-19050000D01*
X113702000Y-19050000D02*
X126402000Y-19050000D01*
X78994000Y-19050000D02*
X88302000Y-19050000D01*
X74422000Y-19050000D02*
X78994000Y-19050000D01*
%TO.N,/SEG_B*%
X88302000Y-21590000D02*
X88392000Y-21590000D01*
X101002000Y-21590000D02*
X101092000Y-21590000D01*
X29882000Y-21590000D02*
X42582000Y-21590000D01*
X42582000Y-21590000D02*
X55282000Y-21590000D01*
X55282000Y-21590000D02*
X67982000Y-21590000D01*
X67982000Y-21590000D02*
X76962000Y-21590000D01*
X88302000Y-21590000D02*
X101002000Y-21590000D01*
X101002000Y-21590000D02*
X113792000Y-21590000D01*
X113792000Y-21590000D02*
X113702000Y-21590000D01*
X113702000Y-21590000D02*
X126492000Y-21590000D01*
X126492000Y-21590000D02*
X126402000Y-21590000D01*
X80010000Y-21590000D02*
X88302000Y-21590000D01*
X76962000Y-21590000D02*
X80010000Y-21590000D01*
%TO.N,/SEG_DP*%
X29882000Y-24130000D02*
X42582000Y-24130000D01*
X42582000Y-24130000D02*
X55282000Y-24130000D01*
X55282000Y-24130000D02*
X67982000Y-24130000D01*
X88392000Y-24130000D02*
X88302000Y-24130000D01*
X88302000Y-24130000D02*
X101002000Y-24130000D01*
X101002000Y-24130000D02*
X113792000Y-24130000D01*
X113792000Y-24130000D02*
X113702000Y-24130000D01*
X113702000Y-24130000D02*
X126492000Y-24130000D01*
X126492000Y-24130000D02*
X126402000Y-24130000D01*
X79502000Y-24130000D02*
X88392000Y-24130000D01*
X77978000Y-24130000D02*
X79502000Y-24130000D01*
X67982000Y-24130000D02*
X77978000Y-24130000D01*
%TO.N,/SEG_C*%
X67982000Y-26670000D02*
X68072000Y-26670000D01*
X29882000Y-26670000D02*
X42672000Y-26670000D01*
X42672000Y-26670000D02*
X42582000Y-26670000D01*
X42582000Y-26670000D02*
X55282000Y-26670000D01*
X55282000Y-26670000D02*
X67982000Y-26670000D01*
X88302000Y-26670000D02*
X101002000Y-26670000D01*
X101002000Y-26670000D02*
X113792000Y-26670000D01*
X113792000Y-26670000D02*
X113702000Y-26670000D01*
X113702000Y-26670000D02*
X126402000Y-26670000D01*
X82042000Y-26670000D02*
X88392000Y-26670000D01*
X76962000Y-26670000D02*
X82042000Y-26670000D01*
X67982000Y-26670000D02*
X76962000Y-26670000D01*
%TO.N,/SEG_D*%
X115152000Y-27940000D02*
X115062000Y-27940000D01*
X31332000Y-27940000D02*
X44032000Y-27940000D01*
X44032000Y-27940000D02*
X56732000Y-27940000D01*
X56732000Y-27940000D02*
X69432000Y-27940000D01*
X89752000Y-27940000D02*
X102362000Y-27940000D01*
X102362000Y-27940000D02*
X115152000Y-27940000D01*
X115152000Y-27940000D02*
X127852000Y-27940000D01*
X83312000Y-27940000D02*
X89752000Y-27940000D01*
X79502000Y-27940000D02*
X83312000Y-27940000D01*
X79375000Y-27940000D02*
X79502000Y-27940000D01*
X75692000Y-27940000D02*
X79375000Y-27940000D01*
X69432000Y-27940000D02*
X75692000Y-27940000D01*
%TO.N,/SEG_E*%
X56732000Y-25400000D02*
X56642000Y-25400000D01*
X127852000Y-25400000D02*
X115152000Y-25400000D01*
X115152000Y-25400000D02*
X102362000Y-25400000D01*
X102362000Y-25400000D02*
X102452000Y-25400000D01*
X102452000Y-25400000D02*
X89752000Y-25400000D01*
X89752000Y-25400000D02*
X80772000Y-25400000D01*
X69432000Y-25400000D02*
X56732000Y-25400000D01*
X56732000Y-25400000D02*
X44032000Y-25400000D01*
X44032000Y-25400000D02*
X31242000Y-25400000D01*
X80645000Y-25400000D02*
X78232000Y-25400000D01*
X80772000Y-25400000D02*
X80645000Y-25400000D01*
X74676000Y-25400000D02*
X69432000Y-25400000D01*
X78232000Y-25400000D02*
X74676000Y-25400000D01*
%TO.N,/DIG_4*%
X47885997Y-39275001D02*
X49116999Y-39275001D01*
X46520998Y-40640000D02*
X47885997Y-39275001D01*
X45720000Y-40640000D02*
X46520998Y-40640000D01*
X52324000Y-36068000D02*
X88900000Y-36068000D01*
X49116999Y-39275001D02*
X52324000Y-36068000D01*
%TO.N,/DIG_5*%
X48260000Y-40640000D02*
X48768000Y-40640000D01*
X101382999Y-36793001D02*
X101600000Y-36576000D01*
X52614999Y-36793001D02*
X101382999Y-36793001D01*
X48768000Y-40640000D02*
X52614999Y-36793001D01*
%TO.N,/DIG_2*%
X39370000Y-34290000D02*
X35560000Y-38100000D01*
X43180000Y-34290000D02*
X39370000Y-34290000D01*
%TO.N,/DIG_6*%
X45720000Y-38100000D02*
X49784000Y-34036000D01*
X49784000Y-34036000D02*
X113792000Y-34036000D01*
%TO.N,/DIG_7*%
X48260000Y-38100000D02*
X51308000Y-35052000D01*
X51308000Y-35052000D02*
X126492000Y-35052000D01*
%TD*%
M02*
