M48
; DRILL file {KiCad (5.1.8)-1} date 01/26/21 11:35:39
; FORMAT={-:-/ absolute / metric / decimal}
; #@! TF.CreationDate,2021-01-26T11:35:39-05:00
; #@! TF.GenerationSoftware,Kicad,Pcbnew,(5.1.8)-1
FMAT,2
METRIC
T1C0.400
T2C1.000
T3C0.600
T4C4.300
%
G90
G05
T1
X29.21Y-29.21
X29.21Y-30.48
X29.21Y-38.1
X29.21Y-39.37
X31.75Y-31.75
X31.75Y-33.02
X31.75Y-35.56
X31.75Y-36.83
X67.31Y-29.21
X67.31Y-30.48
X67.31Y-38.1
X67.31Y-39.37
X69.85Y-31.75
X69.85Y-33.02
X69.85Y-35.56
X69.85Y-36.83
X88.9Y-35.56
X90.17Y-31.75
X91.44Y-36.83
X92.71Y-33.02
X93.98Y-39.37
X95.25Y-30.48
X96.52Y-38.1
X97.79Y-29.21
X105.41Y-29.21
X105.41Y-30.48
X105.41Y-38.1
X105.41Y-39.37
X107.95Y-31.75
X107.95Y-33.02
X107.95Y-35.56
X107.95Y-36.83
X143.51Y-29.21
X143.51Y-30.48
X143.51Y-38.1
X143.51Y-39.37
X146.05Y-31.75
X146.05Y-33.02
X146.05Y-35.56
X146.05Y-36.83
T2
X88.9Y-44.45
X88.9Y-46.99
X91.44Y-44.45
X91.44Y-46.99
X93.98Y-44.45
X93.98Y-46.99
X96.52Y-44.45
X96.52Y-46.99
X78.74Y-44.45
X78.74Y-46.99
X81.28Y-44.45
X81.28Y-46.99
T3
X152.985Y-27.94
X153.93Y-25.66
X153.93Y-30.22
X156.21Y-24.715
X156.21Y-31.165
X158.49Y-25.66
X158.49Y-30.22
X159.435Y-27.94
X15.825Y-44.45
X16.77Y-42.17
X16.77Y-46.73
X19.05Y-41.225
X19.05Y-47.675
X21.33Y-42.17
X21.33Y-46.73
X22.275Y-44.45
X15.825Y-27.94
X16.77Y-25.66
X16.77Y-30.22
X19.05Y-24.715
X19.05Y-31.165
X21.33Y-25.66
X21.33Y-30.22
X22.275Y-27.94
X152.985Y-44.45
X153.93Y-42.17
X153.93Y-46.73
X156.21Y-41.225
X156.21Y-47.675
X158.49Y-42.17
X158.49Y-46.73
X159.435Y-44.45
T4
X156.21Y-44.45
X156.21Y-27.94
X19.05Y-44.45
X19.05Y-27.94
T0
M30
