%TF.GenerationSoftware,KiCad,Pcbnew,(5.1.8)-1*%
%TF.CreationDate,2021-01-26T11:35:44-05:00*%
%TF.ProjectId,SSD4_Row,53534434-5f52-46f7-972e-6b696361645f,rev?*%
%TF.SameCoordinates,Original*%
%TF.FileFunction,Copper,L2,Bot*%
%TF.FilePolarity,Positive*%
%FSLAX46Y46*%
G04 Gerber Fmt 4.6, Leading zero omitted, Abs format (unit mm)*
G04 Created by KiCad (PCBNEW (5.1.8)-1) date 2021-01-26 11:35:44*
%MOMM*%
%LPD*%
G01*
G04 APERTURE LIST*
%TA.AperFunction,WasherPad*%
%ADD10C,8.600000*%
%TD*%
%TA.AperFunction,WasherPad*%
%ADD11C,0.900000*%
%TD*%
%TA.AperFunction,ComponentPad*%
%ADD12R,1.700000X1.700000*%
%TD*%
%TA.AperFunction,ComponentPad*%
%ADD13O,1.700000X1.700000*%
%TD*%
%TA.AperFunction,ViaPad*%
%ADD14C,0.800000*%
%TD*%
%TA.AperFunction,Conductor*%
%ADD15C,0.250000*%
%TD*%
G04 APERTURE END LIST*
D10*
%TO.P,REF\u002A\u002A,*%
%TO.N,*%
X19050000Y-27940000D03*
D11*
X22275000Y-27940000D03*
X21330419Y-30220419D03*
X19050000Y-31165000D03*
X16769581Y-30220419D03*
X15825000Y-27940000D03*
X16769581Y-25659581D03*
X19050000Y-24715000D03*
X21330419Y-25659581D03*
%TD*%
D10*
%TO.P,REF\u002A\u002A,*%
%TO.N,*%
X19050000Y-44450000D03*
D11*
X22275000Y-44450000D03*
X21330419Y-46730419D03*
X19050000Y-47675000D03*
X16769581Y-46730419D03*
X15825000Y-44450000D03*
X16769581Y-42169581D03*
X19050000Y-41225000D03*
X21330419Y-42169581D03*
%TD*%
D10*
%TO.P,REF\u002A\u002A,*%
%TO.N,*%
X156210000Y-44450000D03*
D11*
X159435000Y-44450000D03*
X158490419Y-46730419D03*
X156210000Y-47675000D03*
X153929581Y-46730419D03*
X152985000Y-44450000D03*
X153929581Y-42169581D03*
X156210000Y-41225000D03*
X158490419Y-42169581D03*
%TD*%
D10*
%TO.P,REF\u002A\u002A,*%
%TO.N,*%
X156210000Y-27940000D03*
D11*
X159435000Y-27940000D03*
X158490419Y-30220419D03*
X156210000Y-31165000D03*
X153929581Y-30220419D03*
X152985000Y-27940000D03*
X153929581Y-25659581D03*
X156210000Y-24715000D03*
X158490419Y-25659581D03*
%TD*%
D12*
%TO.P,J1,1*%
%TO.N,/DIG_0*%
X78740000Y-46990000D03*
D13*
%TO.P,J1,2*%
%TO.N,/DIG_2*%
X78740000Y-44450000D03*
%TO.P,J1,3*%
%TO.N,/DIG_1*%
X81280000Y-46990000D03*
%TO.P,J1,4*%
%TO.N,/DIG_3*%
X81280000Y-44450000D03*
%TD*%
D12*
%TO.P,J2,1*%
%TO.N,/SEG_F*%
X88900000Y-46990000D03*
D13*
%TO.P,J2,2*%
%TO.N,/SEG_E*%
X88900000Y-44450000D03*
%TO.P,J2,3*%
%TO.N,/SEG_G*%
X91440000Y-46990000D03*
%TO.P,J2,4*%
%TO.N,/SEG_D*%
X91440000Y-44450000D03*
%TO.P,J2,5*%
%TO.N,/SEG_B*%
X93980000Y-46990000D03*
%TO.P,J2,6*%
%TO.N,/SEG_C*%
X93980000Y-44450000D03*
%TO.P,J2,7*%
%TO.N,/SEG_A*%
X96520000Y-46990000D03*
%TO.P,J2,8*%
%TO.N,/SEG_DP*%
X96520000Y-44450000D03*
%TD*%
D14*
%TO.N,/SEG_G*%
X69850000Y-33020000D03*
X31750000Y-33020000D03*
X107950000Y-33020000D03*
X146050000Y-33020000D03*
X92710000Y-33020000D03*
%TO.N,/SEG_F*%
X69850000Y-31750000D03*
X31750000Y-31750000D03*
X107950000Y-31750000D03*
X146050000Y-31750000D03*
X90170000Y-31750000D03*
%TO.N,/SEG_A*%
X67310000Y-29210000D03*
X29210000Y-29210000D03*
X105410000Y-29210000D03*
X143510000Y-29210000D03*
X97790000Y-29210000D03*
%TO.N,/SEG_B*%
X67310000Y-30480000D03*
X29210000Y-30480000D03*
X105410000Y-30480000D03*
X143510000Y-30480000D03*
X95250000Y-30480000D03*
%TO.N,/SEG_DP*%
X67310000Y-38100000D03*
X29210000Y-38100000D03*
X105410000Y-38100000D03*
X143510000Y-38100000D03*
X96520000Y-38100000D03*
%TO.N,/SEG_C*%
X67310000Y-39370000D03*
X29210000Y-39370000D03*
X105410000Y-39370000D03*
X143510000Y-39370000D03*
X93980000Y-39370000D03*
%TO.N,/SEG_D*%
X69850000Y-36830000D03*
X31750000Y-36830000D03*
X107950000Y-36830000D03*
X146050000Y-36830000D03*
X91440000Y-36830000D03*
%TO.N,/SEG_E*%
X69850000Y-35560000D03*
X31750000Y-35560000D03*
X107950000Y-35560000D03*
X146050000Y-35560000D03*
X88900000Y-35560000D03*
%TD*%
D15*
%TO.N,/SEG_G*%
X146050000Y-33020000D02*
X107950000Y-33020000D01*
X69850000Y-33020000D02*
X31750000Y-33020000D01*
X91440000Y-33020000D02*
X69850000Y-33020000D01*
X107950000Y-33020000D02*
X91440000Y-33020000D01*
%TO.N,/SEG_F*%
X31750000Y-31750000D02*
X69850000Y-31750000D01*
X107950000Y-31750000D02*
X146050000Y-31750000D01*
X88900000Y-31750000D02*
X107950000Y-31750000D01*
X69850000Y-31750000D02*
X88900000Y-31750000D01*
%TO.N,/SEG_A*%
X29210000Y-29210000D02*
X67310000Y-29210000D01*
X105410000Y-29210000D02*
X143510000Y-29210000D01*
X67310000Y-29210000D02*
X96520000Y-29210000D01*
X97790000Y-29210000D02*
X105410000Y-29210000D01*
X96520000Y-29210000D02*
X97790000Y-29210000D01*
%TO.N,/SEG_B*%
X143510000Y-30480000D02*
X105410000Y-30480000D01*
X105410000Y-30480000D02*
X67310000Y-30480000D01*
X67310000Y-30480000D02*
X29210000Y-30480000D01*
%TO.N,/SEG_DP*%
X29210000Y-38100000D02*
X67310000Y-38100000D01*
X105410000Y-38100000D02*
X143510000Y-38100000D01*
X97790000Y-38100000D02*
X105410000Y-38100000D01*
X96520000Y-38100000D02*
X97790000Y-38100000D01*
X67310000Y-38100000D02*
X96520000Y-38100000D01*
%TO.N,/SEG_C*%
X143510000Y-39370000D02*
X105410000Y-39370000D01*
X67310000Y-39370000D02*
X29210000Y-39370000D01*
X93980000Y-39370000D02*
X67310000Y-39370000D01*
X105410000Y-39370000D02*
X93980000Y-39370000D01*
%TO.N,/SEG_D*%
X146050000Y-36830000D02*
X107950000Y-36830000D01*
X69850000Y-36830000D02*
X31750000Y-36830000D01*
X91440000Y-36830000D02*
X69850000Y-36830000D01*
X107950000Y-36830000D02*
X91440000Y-36830000D01*
%TO.N,/SEG_E*%
X31750000Y-35560000D02*
X69850000Y-35560000D01*
X107950000Y-35560000D02*
X146050000Y-35560000D01*
X90170000Y-35560000D02*
X107950000Y-35560000D01*
X88900000Y-35560000D02*
X90170000Y-35560000D01*
X69850000Y-35560000D02*
X88900000Y-35560000D01*
%TD*%
M02*
