%TF.GenerationSoftware,KiCad,Pcbnew,(5.1.8)-1*%
%TF.CreationDate,2021-01-26T11:35:44-05:00*%
%TF.ProjectId,SSD4_Row,53534434-5f52-46f7-972e-6b696361645f,rev?*%
%TF.SameCoordinates,Original*%
%TF.FileFunction,Soldermask,Bot*%
%TF.FilePolarity,Negative*%
%FSLAX46Y46*%
G04 Gerber Fmt 4.6, Leading zero omitted, Abs format (unit mm)*
G04 Created by KiCad (PCBNEW (5.1.8)-1) date 2021-01-26 11:35:44*
%MOMM*%
%LPD*%
G01*
G04 APERTURE LIST*
%ADD10C,8.600000*%
%ADD11C,0.900000*%
%ADD12R,1.700000X1.700000*%
%ADD13O,1.700000X1.700000*%
G04 APERTURE END LIST*
D10*
%TO.C,REF\u002A\u002A*%
X19050000Y-27940000D03*
D11*
X22275000Y-27940000D03*
X21330419Y-30220419D03*
X19050000Y-31165000D03*
X16769581Y-30220419D03*
X15825000Y-27940000D03*
X16769581Y-25659581D03*
X19050000Y-24715000D03*
X21330419Y-25659581D03*
%TD*%
D10*
%TO.C,REF\u002A\u002A*%
X19050000Y-44450000D03*
D11*
X22275000Y-44450000D03*
X21330419Y-46730419D03*
X19050000Y-47675000D03*
X16769581Y-46730419D03*
X15825000Y-44450000D03*
X16769581Y-42169581D03*
X19050000Y-41225000D03*
X21330419Y-42169581D03*
%TD*%
D10*
%TO.C,REF\u002A\u002A*%
X156210000Y-44450000D03*
D11*
X159435000Y-44450000D03*
X158490419Y-46730419D03*
X156210000Y-47675000D03*
X153929581Y-46730419D03*
X152985000Y-44450000D03*
X153929581Y-42169581D03*
X156210000Y-41225000D03*
X158490419Y-42169581D03*
%TD*%
D10*
%TO.C,REF\u002A\u002A*%
X156210000Y-27940000D03*
D11*
X159435000Y-27940000D03*
X158490419Y-30220419D03*
X156210000Y-31165000D03*
X153929581Y-30220419D03*
X152985000Y-27940000D03*
X153929581Y-25659581D03*
X156210000Y-24715000D03*
X158490419Y-25659581D03*
%TD*%
D12*
%TO.C,J1*%
X78740000Y-46990000D03*
D13*
X78740000Y-44450000D03*
X81280000Y-46990000D03*
X81280000Y-44450000D03*
%TD*%
D12*
%TO.C,J2*%
X88900000Y-46990000D03*
D13*
X88900000Y-44450000D03*
X91440000Y-46990000D03*
X91440000Y-44450000D03*
X93980000Y-46990000D03*
X93980000Y-44450000D03*
X96520000Y-46990000D03*
X96520000Y-44450000D03*
%TD*%
M02*
