%TF.GenerationSoftware,KiCad,Pcbnew,(5.1.8)-1*%
%TF.CreationDate,2021-01-20T16:16:19-05:00*%
%TF.ProjectId,Switch_SSD_Row,53776974-6368-45f5-9353-445f526f772e,rev?*%
%TF.SameCoordinates,Original*%
%TF.FileFunction,Legend,Top*%
%TF.FilePolarity,Positive*%
%FSLAX46Y46*%
G04 Gerber Fmt 4.6, Leading zero omitted, Abs format (unit mm)*
G04 Created by KiCad (PCBNEW (5.1.8)-1) date 2021-01-20 16:16:19*
%MOMM*%
%LPD*%
G01*
G04 APERTURE LIST*
%ADD10C,0.150000*%
%ADD11C,0.120000*%
G04 APERTURE END LIST*
D10*
X122492380Y-48347761D02*
X122635238Y-48395380D01*
X122873333Y-48395380D01*
X122968571Y-48347761D01*
X123016190Y-48300142D01*
X123063809Y-48204904D01*
X123063809Y-48109666D01*
X123016190Y-48014428D01*
X122968571Y-47966809D01*
X122873333Y-47919190D01*
X122682857Y-47871571D01*
X122587619Y-47823952D01*
X122540000Y-47776333D01*
X122492380Y-47681095D01*
X122492380Y-47585857D01*
X122540000Y-47490619D01*
X122587619Y-47443000D01*
X122682857Y-47395380D01*
X122920952Y-47395380D01*
X123063809Y-47443000D01*
X123397142Y-47728714D02*
X123587619Y-48395380D01*
X123778095Y-47919190D01*
X123968571Y-48395380D01*
X124159047Y-47728714D01*
X124540000Y-48395380D02*
X124540000Y-47728714D01*
X124540000Y-47395380D02*
X124492380Y-47443000D01*
X124540000Y-47490619D01*
X124587619Y-47443000D01*
X124540000Y-47395380D01*
X124540000Y-47490619D01*
X124873333Y-47728714D02*
X125254285Y-47728714D01*
X125016190Y-47395380D02*
X125016190Y-48252523D01*
X125063809Y-48347761D01*
X125159047Y-48395380D01*
X125254285Y-48395380D01*
X126016190Y-48347761D02*
X125920952Y-48395380D01*
X125730476Y-48395380D01*
X125635238Y-48347761D01*
X125587619Y-48300142D01*
X125540000Y-48204904D01*
X125540000Y-47919190D01*
X125587619Y-47823952D01*
X125635238Y-47776333D01*
X125730476Y-47728714D01*
X125920952Y-47728714D01*
X126016190Y-47776333D01*
X126444761Y-48395380D02*
X126444761Y-47395380D01*
X126873333Y-48395380D02*
X126873333Y-47871571D01*
X126825714Y-47776333D01*
X126730476Y-47728714D01*
X126587619Y-47728714D01*
X126492380Y-47776333D01*
X126444761Y-47823952D01*
X128063809Y-48347761D02*
X128206666Y-48395380D01*
X128444761Y-48395380D01*
X128540000Y-48347761D01*
X128587619Y-48300142D01*
X128635238Y-48204904D01*
X128635238Y-48109666D01*
X128587619Y-48014428D01*
X128540000Y-47966809D01*
X128444761Y-47919190D01*
X128254285Y-47871571D01*
X128159047Y-47823952D01*
X128111428Y-47776333D01*
X128063809Y-47681095D01*
X128063809Y-47585857D01*
X128111428Y-47490619D01*
X128159047Y-47443000D01*
X128254285Y-47395380D01*
X128492380Y-47395380D01*
X128635238Y-47443000D01*
X129016190Y-48347761D02*
X129159047Y-48395380D01*
X129397142Y-48395380D01*
X129492380Y-48347761D01*
X129540000Y-48300142D01*
X129587619Y-48204904D01*
X129587619Y-48109666D01*
X129540000Y-48014428D01*
X129492380Y-47966809D01*
X129397142Y-47919190D01*
X129206666Y-47871571D01*
X129111428Y-47823952D01*
X129063809Y-47776333D01*
X129016190Y-47681095D01*
X129016190Y-47585857D01*
X129063809Y-47490619D01*
X129111428Y-47443000D01*
X129206666Y-47395380D01*
X129444761Y-47395380D01*
X129587619Y-47443000D01*
X130016190Y-48395380D02*
X130016190Y-47395380D01*
X130254285Y-47395380D01*
X130397142Y-47443000D01*
X130492380Y-47538238D01*
X130540000Y-47633476D01*
X130587619Y-47823952D01*
X130587619Y-47966809D01*
X130540000Y-48157285D01*
X130492380Y-48252523D01*
X130397142Y-48347761D01*
X130254285Y-48395380D01*
X130016190Y-48395380D01*
X131778095Y-48395380D02*
X131778095Y-47395380D01*
X132111428Y-48109666D01*
X132444761Y-47395380D01*
X132444761Y-48395380D01*
X133063809Y-48395380D02*
X132968571Y-48347761D01*
X132920952Y-48300142D01*
X132873333Y-48204904D01*
X132873333Y-47919190D01*
X132920952Y-47823952D01*
X132968571Y-47776333D01*
X133063809Y-47728714D01*
X133206666Y-47728714D01*
X133301904Y-47776333D01*
X133349523Y-47823952D01*
X133397142Y-47919190D01*
X133397142Y-48204904D01*
X133349523Y-48300142D01*
X133301904Y-48347761D01*
X133206666Y-48395380D01*
X133063809Y-48395380D01*
X134254285Y-48395380D02*
X134254285Y-47395380D01*
X134254285Y-48347761D02*
X134159047Y-48395380D01*
X133968571Y-48395380D01*
X133873333Y-48347761D01*
X133825714Y-48300142D01*
X133778095Y-48204904D01*
X133778095Y-47919190D01*
X133825714Y-47823952D01*
X133873333Y-47776333D01*
X133968571Y-47728714D01*
X134159047Y-47728714D01*
X134254285Y-47776333D01*
X135159047Y-47728714D02*
X135159047Y-48395380D01*
X134730476Y-47728714D02*
X134730476Y-48252523D01*
X134778095Y-48347761D01*
X134873333Y-48395380D01*
X135016190Y-48395380D01*
X135111428Y-48347761D01*
X135159047Y-48300142D01*
X135778095Y-48395380D02*
X135682857Y-48347761D01*
X135635238Y-48252523D01*
X135635238Y-47395380D01*
X136540000Y-48347761D02*
X136444761Y-48395380D01*
X136254285Y-48395380D01*
X136159047Y-48347761D01*
X136111428Y-48252523D01*
X136111428Y-47871571D01*
X136159047Y-47776333D01*
X136254285Y-47728714D01*
X136444761Y-47728714D01*
X136540000Y-47776333D01*
X136587619Y-47871571D01*
X136587619Y-47966809D01*
X136111428Y-48062047D01*
X126397142Y-50045380D02*
X126063809Y-49569190D01*
X125825714Y-50045380D02*
X125825714Y-49045380D01*
X126206666Y-49045380D01*
X126301904Y-49093000D01*
X126349523Y-49140619D01*
X126397142Y-49235857D01*
X126397142Y-49378714D01*
X126349523Y-49473952D01*
X126301904Y-49521571D01*
X126206666Y-49569190D01*
X125825714Y-49569190D01*
X127206666Y-49997761D02*
X127111428Y-50045380D01*
X126920952Y-50045380D01*
X126825714Y-49997761D01*
X126778095Y-49902523D01*
X126778095Y-49521571D01*
X126825714Y-49426333D01*
X126920952Y-49378714D01*
X127111428Y-49378714D01*
X127206666Y-49426333D01*
X127254285Y-49521571D01*
X127254285Y-49616809D01*
X126778095Y-49712047D01*
X127587619Y-49378714D02*
X127825714Y-50045380D01*
X128063809Y-49378714D01*
X128444761Y-50045380D02*
X128444761Y-49378714D01*
X128444761Y-49045380D02*
X128397142Y-49093000D01*
X128444761Y-49140619D01*
X128492380Y-49093000D01*
X128444761Y-49045380D01*
X128444761Y-49140619D01*
X128873333Y-49997761D02*
X128968571Y-50045380D01*
X129159047Y-50045380D01*
X129254285Y-49997761D01*
X129301904Y-49902523D01*
X129301904Y-49854904D01*
X129254285Y-49759666D01*
X129159047Y-49712047D01*
X129016190Y-49712047D01*
X128920952Y-49664428D01*
X128873333Y-49569190D01*
X128873333Y-49521571D01*
X128920952Y-49426333D01*
X129016190Y-49378714D01*
X129159047Y-49378714D01*
X129254285Y-49426333D01*
X129730476Y-50045380D02*
X129730476Y-49378714D01*
X129730476Y-49045380D02*
X129682857Y-49093000D01*
X129730476Y-49140619D01*
X129778095Y-49093000D01*
X129730476Y-49045380D01*
X129730476Y-49140619D01*
X130349523Y-50045380D02*
X130254285Y-49997761D01*
X130206666Y-49950142D01*
X130159047Y-49854904D01*
X130159047Y-49569190D01*
X130206666Y-49473952D01*
X130254285Y-49426333D01*
X130349523Y-49378714D01*
X130492380Y-49378714D01*
X130587619Y-49426333D01*
X130635238Y-49473952D01*
X130682857Y-49569190D01*
X130682857Y-49854904D01*
X130635238Y-49950142D01*
X130587619Y-49997761D01*
X130492380Y-50045380D01*
X130349523Y-50045380D01*
X131111428Y-49378714D02*
X131111428Y-50045380D01*
X131111428Y-49473952D02*
X131159047Y-49426333D01*
X131254285Y-49378714D01*
X131397142Y-49378714D01*
X131492380Y-49426333D01*
X131540000Y-49521571D01*
X131540000Y-50045380D01*
X133301904Y-50045380D02*
X132730476Y-50045380D01*
X133016190Y-50045380D02*
X133016190Y-49045380D01*
X132920952Y-49188238D01*
X132825714Y-49283476D01*
X132730476Y-49331095D01*
X43252190Y-47696380D02*
X43252190Y-46696380D01*
X43585523Y-47410666D01*
X43918857Y-46696380D01*
X43918857Y-47696380D01*
X44395047Y-47696380D02*
X44395047Y-47029714D01*
X44395047Y-46696380D02*
X44347428Y-46744000D01*
X44395047Y-46791619D01*
X44442666Y-46744000D01*
X44395047Y-46696380D01*
X44395047Y-46791619D01*
X45014095Y-47696380D02*
X44918857Y-47648761D01*
X44871238Y-47553523D01*
X44871238Y-46696380D01*
X45537904Y-47696380D02*
X45442666Y-47648761D01*
X45395047Y-47553523D01*
X45395047Y-46696380D01*
X45918857Y-47696380D02*
X45918857Y-47029714D01*
X45918857Y-46696380D02*
X45871238Y-46744000D01*
X45918857Y-46791619D01*
X45966476Y-46744000D01*
X45918857Y-46696380D01*
X45918857Y-46791619D01*
X46395047Y-47696380D02*
X46395047Y-46696380D01*
X46395047Y-47077333D02*
X46490285Y-47029714D01*
X46680761Y-47029714D01*
X46776000Y-47077333D01*
X46823619Y-47124952D01*
X46871238Y-47220190D01*
X46871238Y-47505904D01*
X46823619Y-47601142D01*
X46776000Y-47648761D01*
X46680761Y-47696380D01*
X46490285Y-47696380D01*
X46395047Y-47648761D01*
X47204571Y-47029714D02*
X47442666Y-47696380D01*
X47680761Y-47029714D02*
X47442666Y-47696380D01*
X47347428Y-47934476D01*
X47299809Y-47982095D01*
X47204571Y-48029714D01*
X47918857Y-47029714D02*
X48299809Y-47029714D01*
X48061714Y-46696380D02*
X48061714Y-47553523D01*
X48109333Y-47648761D01*
X48204571Y-47696380D01*
X48299809Y-47696380D01*
X49014095Y-47648761D02*
X48918857Y-47696380D01*
X48728380Y-47696380D01*
X48633142Y-47648761D01*
X48585523Y-47553523D01*
X48585523Y-47172571D01*
X48633142Y-47077333D01*
X48728380Y-47029714D01*
X48918857Y-47029714D01*
X49014095Y-47077333D01*
X49061714Y-47172571D01*
X49061714Y-47267809D01*
X48585523Y-47363047D01*
X50204571Y-47648761D02*
X50347428Y-47696380D01*
X50585523Y-47696380D01*
X50680761Y-47648761D01*
X50728380Y-47601142D01*
X50776000Y-47505904D01*
X50776000Y-47410666D01*
X50728380Y-47315428D01*
X50680761Y-47267809D01*
X50585523Y-47220190D01*
X50395047Y-47172571D01*
X50299809Y-47124952D01*
X50252190Y-47077333D01*
X50204571Y-46982095D01*
X50204571Y-46886857D01*
X50252190Y-46791619D01*
X50299809Y-46744000D01*
X50395047Y-46696380D01*
X50633142Y-46696380D01*
X50776000Y-46744000D01*
X51061714Y-47029714D02*
X51442666Y-47029714D01*
X51204571Y-46696380D02*
X51204571Y-47553523D01*
X51252190Y-47648761D01*
X51347428Y-47696380D01*
X51442666Y-47696380D01*
X52204571Y-47029714D02*
X52204571Y-47696380D01*
X51776000Y-47029714D02*
X51776000Y-47553523D01*
X51823619Y-47648761D01*
X51918857Y-47696380D01*
X52061714Y-47696380D01*
X52156952Y-47648761D01*
X52204571Y-47601142D01*
X53109333Y-47696380D02*
X53109333Y-46696380D01*
X53109333Y-47648761D02*
X53014095Y-47696380D01*
X52823619Y-47696380D01*
X52728380Y-47648761D01*
X52680761Y-47601142D01*
X52633142Y-47505904D01*
X52633142Y-47220190D01*
X52680761Y-47124952D01*
X52728380Y-47077333D01*
X52823619Y-47029714D01*
X53014095Y-47029714D01*
X53109333Y-47077333D01*
X53585523Y-47696380D02*
X53585523Y-47029714D01*
X53585523Y-46696380D02*
X53537904Y-46744000D01*
X53585523Y-46791619D01*
X53633142Y-46744000D01*
X53585523Y-46696380D01*
X53585523Y-46791619D01*
X54204571Y-47696380D02*
X54109333Y-47648761D01*
X54061714Y-47601142D01*
X54014095Y-47505904D01*
X54014095Y-47220190D01*
X54061714Y-47124952D01*
X54109333Y-47077333D01*
X54204571Y-47029714D01*
X54347428Y-47029714D01*
X54442666Y-47077333D01*
X54490285Y-47124952D01*
X54537904Y-47220190D01*
X54537904Y-47505904D01*
X54490285Y-47601142D01*
X54442666Y-47648761D01*
X54347428Y-47696380D01*
X54204571Y-47696380D01*
X54918857Y-47648761D02*
X55014095Y-47696380D01*
X55204571Y-47696380D01*
X55299809Y-47648761D01*
X55347428Y-47553523D01*
X55347428Y-47505904D01*
X55299809Y-47410666D01*
X55204571Y-47363047D01*
X55061714Y-47363047D01*
X54966476Y-47315428D01*
X54918857Y-47220190D01*
X54918857Y-47172571D01*
X54966476Y-47077333D01*
X55061714Y-47029714D01*
X55204571Y-47029714D01*
X55299809Y-47077333D01*
X39784000Y-50109333D02*
X39736380Y-50061714D01*
X39641142Y-49918857D01*
X39593523Y-49823619D01*
X39545904Y-49680761D01*
X39498285Y-49442666D01*
X39498285Y-49252190D01*
X39545904Y-49014095D01*
X39593523Y-48871238D01*
X39641142Y-48776000D01*
X39736380Y-48633142D01*
X39784000Y-48585523D01*
X40593523Y-49680761D02*
X40498285Y-49728380D01*
X40307809Y-49728380D01*
X40212571Y-49680761D01*
X40164952Y-49633142D01*
X40117333Y-49537904D01*
X40117333Y-49252190D01*
X40164952Y-49156952D01*
X40212571Y-49109333D01*
X40307809Y-49061714D01*
X40498285Y-49061714D01*
X40593523Y-49109333D01*
X40926857Y-50109333D02*
X40974476Y-50061714D01*
X41069714Y-49918857D01*
X41117333Y-49823619D01*
X41164952Y-49680761D01*
X41212571Y-49442666D01*
X41212571Y-49252190D01*
X41164952Y-49014095D01*
X41117333Y-48871238D01*
X41069714Y-48776000D01*
X40974476Y-48633142D01*
X40926857Y-48585523D01*
X42403047Y-49442666D02*
X42879238Y-49442666D01*
X42307809Y-49728380D02*
X42641142Y-48728380D01*
X42974476Y-49728380D01*
X43736380Y-49061714D02*
X43736380Y-49728380D01*
X43307809Y-49061714D02*
X43307809Y-49585523D01*
X43355428Y-49680761D01*
X43450666Y-49728380D01*
X43593523Y-49728380D01*
X43688761Y-49680761D01*
X43736380Y-49633142D01*
X44164952Y-49680761D02*
X44260190Y-49728380D01*
X44450666Y-49728380D01*
X44545904Y-49680761D01*
X44593523Y-49585523D01*
X44593523Y-49537904D01*
X44545904Y-49442666D01*
X44450666Y-49395047D01*
X44307809Y-49395047D01*
X44212571Y-49347428D01*
X44164952Y-49252190D01*
X44164952Y-49204571D01*
X44212571Y-49109333D01*
X44307809Y-49061714D01*
X44450666Y-49061714D01*
X44545904Y-49109333D01*
X44879238Y-49061714D02*
X45260190Y-49061714D01*
X45022095Y-48728380D02*
X45022095Y-49585523D01*
X45069714Y-49680761D01*
X45164952Y-49728380D01*
X45260190Y-49728380D01*
X45974476Y-49680761D02*
X45879238Y-49728380D01*
X45688761Y-49728380D01*
X45593523Y-49680761D01*
X45545904Y-49585523D01*
X45545904Y-49204571D01*
X45593523Y-49109333D01*
X45688761Y-49061714D01*
X45879238Y-49061714D01*
X45974476Y-49109333D01*
X46022095Y-49204571D01*
X46022095Y-49299809D01*
X45545904Y-49395047D01*
X46450666Y-49061714D02*
X46450666Y-49728380D01*
X46450666Y-49156952D02*
X46498285Y-49109333D01*
X46593523Y-49061714D01*
X46736380Y-49061714D01*
X46831619Y-49109333D01*
X46879238Y-49204571D01*
X46879238Y-49728380D01*
X48117333Y-49728380D02*
X48117333Y-48728380D01*
X48117333Y-49204571D02*
X48688761Y-49204571D01*
X48688761Y-49728380D02*
X48688761Y-48728380D01*
X49164952Y-49728380D02*
X49164952Y-49061714D01*
X49164952Y-48728380D02*
X49117333Y-48776000D01*
X49164952Y-48823619D01*
X49212571Y-48776000D01*
X49164952Y-48728380D01*
X49164952Y-48823619D01*
X50069714Y-49061714D02*
X50069714Y-49871238D01*
X50022095Y-49966476D01*
X49974476Y-50014095D01*
X49879238Y-50061714D01*
X49736380Y-50061714D01*
X49641142Y-50014095D01*
X50069714Y-49680761D02*
X49974476Y-49728380D01*
X49784000Y-49728380D01*
X49688761Y-49680761D01*
X49641142Y-49633142D01*
X49593523Y-49537904D01*
X49593523Y-49252190D01*
X49641142Y-49156952D01*
X49688761Y-49109333D01*
X49784000Y-49061714D01*
X49974476Y-49061714D01*
X50069714Y-49109333D01*
X50974476Y-49061714D02*
X50974476Y-49871238D01*
X50926857Y-49966476D01*
X50879238Y-50014095D01*
X50784000Y-50061714D01*
X50641142Y-50061714D01*
X50545904Y-50014095D01*
X50974476Y-49680761D02*
X50879238Y-49728380D01*
X50688761Y-49728380D01*
X50593523Y-49680761D01*
X50545904Y-49633142D01*
X50498285Y-49537904D01*
X50498285Y-49252190D01*
X50545904Y-49156952D01*
X50593523Y-49109333D01*
X50688761Y-49061714D01*
X50879238Y-49061714D01*
X50974476Y-49109333D01*
X51450666Y-49728380D02*
X51450666Y-49061714D01*
X51450666Y-48728380D02*
X51403047Y-48776000D01*
X51450666Y-48823619D01*
X51498285Y-48776000D01*
X51450666Y-48728380D01*
X51450666Y-48823619D01*
X51926857Y-49061714D02*
X51926857Y-49728380D01*
X51926857Y-49156952D02*
X51974476Y-49109333D01*
X52069714Y-49061714D01*
X52212571Y-49061714D01*
X52307809Y-49109333D01*
X52355428Y-49204571D01*
X52355428Y-49728380D01*
X52784000Y-49680761D02*
X52879238Y-49728380D01*
X53069714Y-49728380D01*
X53164952Y-49680761D01*
X53212571Y-49585523D01*
X53212571Y-49537904D01*
X53164952Y-49442666D01*
X53069714Y-49395047D01*
X52926857Y-49395047D01*
X52831619Y-49347428D01*
X52784000Y-49252190D01*
X52784000Y-49204571D01*
X52831619Y-49109333D01*
X52926857Y-49061714D01*
X53069714Y-49061714D01*
X53164952Y-49109333D01*
X53641142Y-49347428D02*
X54403047Y-49347428D01*
X55450666Y-49633142D02*
X55403047Y-49680761D01*
X55260190Y-49728380D01*
X55164952Y-49728380D01*
X55022095Y-49680761D01*
X54926857Y-49585523D01*
X54879238Y-49490285D01*
X54831619Y-49299809D01*
X54831619Y-49156952D01*
X54879238Y-48966476D01*
X54926857Y-48871238D01*
X55022095Y-48776000D01*
X55164952Y-48728380D01*
X55260190Y-48728380D01*
X55403047Y-48776000D01*
X55450666Y-48823619D01*
X56307809Y-49728380D02*
X56307809Y-49204571D01*
X56260190Y-49109333D01*
X56164952Y-49061714D01*
X55974476Y-49061714D01*
X55879238Y-49109333D01*
X56307809Y-49680761D02*
X56212571Y-49728380D01*
X55974476Y-49728380D01*
X55879238Y-49680761D01*
X55831619Y-49585523D01*
X55831619Y-49490285D01*
X55879238Y-49395047D01*
X55974476Y-49347428D01*
X56212571Y-49347428D01*
X56307809Y-49299809D01*
X56736380Y-49680761D02*
X56831619Y-49728380D01*
X57022095Y-49728380D01*
X57117333Y-49680761D01*
X57164952Y-49585523D01*
X57164952Y-49537904D01*
X57117333Y-49442666D01*
X57022095Y-49395047D01*
X56879238Y-49395047D01*
X56784000Y-49347428D01*
X56736380Y-49252190D01*
X56736380Y-49204571D01*
X56784000Y-49109333D01*
X56879238Y-49061714D01*
X57022095Y-49061714D01*
X57117333Y-49109333D01*
X57545904Y-49680761D02*
X57641142Y-49728380D01*
X57831619Y-49728380D01*
X57926857Y-49680761D01*
X57974476Y-49585523D01*
X57974476Y-49537904D01*
X57926857Y-49442666D01*
X57831619Y-49395047D01*
X57688761Y-49395047D01*
X57593523Y-49347428D01*
X57545904Y-49252190D01*
X57545904Y-49204571D01*
X57593523Y-49109333D01*
X57688761Y-49061714D01*
X57831619Y-49061714D01*
X57926857Y-49109333D01*
X58403047Y-49728380D02*
X58403047Y-49061714D01*
X58403047Y-48728380D02*
X58355428Y-48776000D01*
X58403047Y-48823619D01*
X58450666Y-48776000D01*
X58403047Y-48728380D01*
X58403047Y-48823619D01*
X59307809Y-49728380D02*
X59307809Y-48728380D01*
X59307809Y-49680761D02*
X59212571Y-49728380D01*
X59022095Y-49728380D01*
X58926857Y-49680761D01*
X58879238Y-49633142D01*
X58831619Y-49537904D01*
X58831619Y-49252190D01*
X58879238Y-49156952D01*
X58926857Y-49109333D01*
X59022095Y-49061714D01*
X59212571Y-49061714D01*
X59307809Y-49109333D01*
X59688761Y-49061714D02*
X59926857Y-49728380D01*
X60164952Y-49061714D02*
X59926857Y-49728380D01*
X59831619Y-49966476D01*
X59784000Y-50014095D01*
X59688761Y-50061714D01*
X44656952Y-51268380D02*
X44656952Y-51982666D01*
X44609333Y-52125523D01*
X44514095Y-52220761D01*
X44371238Y-52268380D01*
X44276000Y-52268380D01*
X45609333Y-52268380D02*
X45133142Y-52268380D01*
X45133142Y-51268380D01*
X46514095Y-52173142D02*
X46466476Y-52220761D01*
X46323619Y-52268380D01*
X46228380Y-52268380D01*
X46085523Y-52220761D01*
X45990285Y-52125523D01*
X45942666Y-52030285D01*
X45895047Y-51839809D01*
X45895047Y-51696952D01*
X45942666Y-51506476D01*
X45990285Y-51411238D01*
X46085523Y-51316000D01*
X46228380Y-51268380D01*
X46323619Y-51268380D01*
X46466476Y-51316000D01*
X46514095Y-51363619D01*
X47228380Y-51268380D02*
X47228380Y-51982666D01*
X47180761Y-52125523D01*
X47085523Y-52220761D01*
X46942666Y-52268380D01*
X46847428Y-52268380D01*
X48180761Y-52268380D02*
X47704571Y-52268380D01*
X47704571Y-51268380D01*
X49085523Y-52173142D02*
X49037904Y-52220761D01*
X48895047Y-52268380D01*
X48799809Y-52268380D01*
X48656952Y-52220761D01*
X48561714Y-52125523D01*
X48514095Y-52030285D01*
X48466476Y-51839809D01*
X48466476Y-51696952D01*
X48514095Y-51506476D01*
X48561714Y-51411238D01*
X48656952Y-51316000D01*
X48799809Y-51268380D01*
X48895047Y-51268380D01*
X49037904Y-51316000D01*
X49085523Y-51363619D01*
X49799809Y-51268380D02*
X49799809Y-51982666D01*
X49752190Y-52125523D01*
X49656952Y-52220761D01*
X49514095Y-52268380D01*
X49418857Y-52268380D01*
X50752190Y-52268380D02*
X50276000Y-52268380D01*
X50276000Y-51268380D01*
X51656952Y-52173142D02*
X51609333Y-52220761D01*
X51466476Y-52268380D01*
X51371238Y-52268380D01*
X51228380Y-52220761D01*
X51133142Y-52125523D01*
X51085523Y-52030285D01*
X51037904Y-51839809D01*
X51037904Y-51696952D01*
X51085523Y-51506476D01*
X51133142Y-51411238D01*
X51228380Y-51316000D01*
X51371238Y-51268380D01*
X51466476Y-51268380D01*
X51609333Y-51316000D01*
X51656952Y-51363619D01*
X52371238Y-51268380D02*
X52371238Y-51982666D01*
X52323619Y-52125523D01*
X52228380Y-52220761D01*
X52085523Y-52268380D01*
X51990285Y-52268380D01*
X53323619Y-52268380D02*
X52847428Y-52268380D01*
X52847428Y-51268380D01*
X54228380Y-52173142D02*
X54180761Y-52220761D01*
X54037904Y-52268380D01*
X53942666Y-52268380D01*
X53799809Y-52220761D01*
X53704571Y-52125523D01*
X53656952Y-52030285D01*
X53609333Y-51839809D01*
X53609333Y-51696952D01*
X53656952Y-51506476D01*
X53704571Y-51411238D01*
X53799809Y-51316000D01*
X53942666Y-51268380D01*
X54037904Y-51268380D01*
X54180761Y-51316000D01*
X54228380Y-51363619D01*
D11*
%TO.C,D1*%
X29560000Y-27330000D02*
X41560000Y-27330000D01*
X41560000Y-27330000D02*
X41560000Y-45830000D01*
X41560000Y-45830000D02*
X29560000Y-45830000D01*
X29560000Y-45830000D02*
X29560000Y-27330000D01*
%TO.C,D2*%
X67660000Y-45830000D02*
X67660000Y-27330000D01*
X79660000Y-45830000D02*
X67660000Y-45830000D01*
X79660000Y-27330000D02*
X79660000Y-45830000D01*
X67660000Y-27330000D02*
X79660000Y-27330000D01*
%TO.C,D3*%
X105760000Y-45830000D02*
X105760000Y-27330000D01*
X117760000Y-45830000D02*
X105760000Y-45830000D01*
X117760000Y-27330000D02*
X117760000Y-45830000D01*
X105760000Y-27330000D02*
X117760000Y-27330000D01*
%TO.C,D4*%
X143860000Y-27330000D02*
X155860000Y-27330000D01*
X155860000Y-27330000D02*
X155860000Y-45830000D01*
X155860000Y-45830000D02*
X143860000Y-45830000D01*
X143860000Y-45830000D02*
X143860000Y-27330000D01*
%TO.C,D1*%
D10*
X34821904Y-48282380D02*
X34821904Y-47282380D01*
X35060000Y-47282380D01*
X35202857Y-47330000D01*
X35298095Y-47425238D01*
X35345714Y-47520476D01*
X35393333Y-47710952D01*
X35393333Y-47853809D01*
X35345714Y-48044285D01*
X35298095Y-48139523D01*
X35202857Y-48234761D01*
X35060000Y-48282380D01*
X34821904Y-48282380D01*
X36345714Y-48282380D02*
X35774285Y-48282380D01*
X36060000Y-48282380D02*
X36060000Y-47282380D01*
X35964761Y-47425238D01*
X35869523Y-47520476D01*
X35774285Y-47568095D01*
%TO.C,D2*%
X72921904Y-48282380D02*
X72921904Y-47282380D01*
X73160000Y-47282380D01*
X73302857Y-47330000D01*
X73398095Y-47425238D01*
X73445714Y-47520476D01*
X73493333Y-47710952D01*
X73493333Y-47853809D01*
X73445714Y-48044285D01*
X73398095Y-48139523D01*
X73302857Y-48234761D01*
X73160000Y-48282380D01*
X72921904Y-48282380D01*
X73874285Y-47377619D02*
X73921904Y-47330000D01*
X74017142Y-47282380D01*
X74255238Y-47282380D01*
X74350476Y-47330000D01*
X74398095Y-47377619D01*
X74445714Y-47472857D01*
X74445714Y-47568095D01*
X74398095Y-47710952D01*
X73826666Y-48282380D01*
X74445714Y-48282380D01*
%TO.C,D3*%
X111021904Y-48282380D02*
X111021904Y-47282380D01*
X111260000Y-47282380D01*
X111402857Y-47330000D01*
X111498095Y-47425238D01*
X111545714Y-47520476D01*
X111593333Y-47710952D01*
X111593333Y-47853809D01*
X111545714Y-48044285D01*
X111498095Y-48139523D01*
X111402857Y-48234761D01*
X111260000Y-48282380D01*
X111021904Y-48282380D01*
X111926666Y-47282380D02*
X112545714Y-47282380D01*
X112212380Y-47663333D01*
X112355238Y-47663333D01*
X112450476Y-47710952D01*
X112498095Y-47758571D01*
X112545714Y-47853809D01*
X112545714Y-48091904D01*
X112498095Y-48187142D01*
X112450476Y-48234761D01*
X112355238Y-48282380D01*
X112069523Y-48282380D01*
X111974285Y-48234761D01*
X111926666Y-48187142D01*
%TO.C,D4*%
X149121904Y-48282380D02*
X149121904Y-47282380D01*
X149360000Y-47282380D01*
X149502857Y-47330000D01*
X149598095Y-47425238D01*
X149645714Y-47520476D01*
X149693333Y-47710952D01*
X149693333Y-47853809D01*
X149645714Y-48044285D01*
X149598095Y-48139523D01*
X149502857Y-48234761D01*
X149360000Y-48282380D01*
X149121904Y-48282380D01*
X150550476Y-47615714D02*
X150550476Y-48282380D01*
X150312380Y-47234761D02*
X150074285Y-47949047D01*
X150693333Y-47949047D01*
%TD*%
M02*
