M48
; DRILL file {KiCad (5.1.8)-1} date 01/20/21 16:16:13
; FORMAT={-:-/ absolute / metric / decimal}
; #@! TF.CreationDate,2021-01-20T16:16:13-05:00
; #@! TF.GenerationSoftware,Kicad,Pcbnew,(5.1.8)-1
FMAT,2
METRIC
T1C0.762
T2C1.000
T3C0.600
T4C4.300
%
G90
G05
T1
X144.85Y-28.62
X144.85Y-44.4
X147.39Y-28.62
X147.39Y-44.4
X149.86Y-28.62
X149.86Y-44.4
X152.33Y-28.62
X152.33Y-44.4
X154.87Y-28.62
X154.87Y-44.4
X68.65Y-28.62
X68.65Y-44.4
X71.19Y-28.62
X71.19Y-44.4
X73.66Y-28.62
X73.66Y-44.4
X76.13Y-28.62
X76.13Y-44.4
X78.67Y-28.62
X78.67Y-44.4
X106.75Y-28.62
X106.75Y-44.4
X109.29Y-28.62
X109.29Y-44.4
X111.76Y-28.62
X111.76Y-44.4
X114.23Y-28.62
X114.23Y-44.4
X116.77Y-28.62
X116.77Y-44.4
X30.55Y-28.62
X30.55Y-44.4
X33.09Y-28.62
X33.09Y-44.4
X35.56Y-28.62
X35.56Y-44.4
X38.03Y-28.62
X38.03Y-44.4
X40.57Y-28.62
X40.57Y-44.4
T2
X86.36Y-41.91
X86.36Y-44.45
X88.9Y-41.91
X88.9Y-44.45
X91.44Y-41.91
X91.44Y-44.45
X93.98Y-41.91
X93.98Y-44.45
X96.52Y-41.91
X96.52Y-44.45
X99.06Y-41.91
X99.06Y-44.45
T3
X19.635Y-26.924
X20.58Y-24.644
X20.58Y-29.204
X22.86Y-23.699
X22.86Y-30.149
X25.14Y-24.644
X25.14Y-29.204
X26.085Y-26.924
X19.635Y-46.228
X20.58Y-43.948
X20.58Y-48.508
X22.86Y-43.003
X22.86Y-49.453
X25.14Y-43.948
X25.14Y-48.508
X26.085Y-46.228
X159.335Y-46.228
X160.28Y-43.948
X160.28Y-48.508
X162.56Y-43.003
X162.56Y-49.453
X164.84Y-43.948
X164.84Y-48.508
X165.785Y-46.228
X159.335Y-26.924
X160.28Y-24.644
X160.28Y-29.204
X162.56Y-23.699
X162.56Y-30.149
X164.84Y-24.644
X164.84Y-29.204
X165.785Y-26.924
T4
X22.86Y-26.924
X22.86Y-46.228
X162.56Y-46.228
X162.56Y-26.924
T0
M30
