%TF.GenerationSoftware,KiCad,Pcbnew,(5.1.8)-1*%
%TF.CreationDate,2021-01-20T16:16:19-05:00*%
%TF.ProjectId,Switch_SSD_Row,53776974-6368-45f5-9353-445f526f772e,rev?*%
%TF.SameCoordinates,Original*%
%TF.FileFunction,Copper,L1,Top*%
%TF.FilePolarity,Positive*%
%FSLAX46Y46*%
G04 Gerber Fmt 4.6, Leading zero omitted, Abs format (unit mm)*
G04 Created by KiCad (PCBNEW (5.1.8)-1) date 2021-01-20 16:16:19*
%MOMM*%
%LPD*%
G01*
G04 APERTURE LIST*
%TA.AperFunction,WasherPad*%
%ADD10C,8.600000*%
%TD*%
%TA.AperFunction,WasherPad*%
%ADD11C,0.900000*%
%TD*%
%TA.AperFunction,ComponentPad*%
%ADD12C,1.524000*%
%TD*%
%TA.AperFunction,ComponentPad*%
%ADD13R,1.700000X1.700000*%
%TD*%
%TA.AperFunction,ComponentPad*%
%ADD14O,1.700000X1.700000*%
%TD*%
%TA.AperFunction,Conductor*%
%ADD15C,0.300000*%
%TD*%
G04 APERTURE END LIST*
D10*
%TO.P,REF\u002A\u002A,*%
%TO.N,*%
X162560000Y-46228000D03*
D11*
X165785000Y-46228000D03*
X164840419Y-48508419D03*
X162560000Y-49453000D03*
X160279581Y-48508419D03*
X159335000Y-46228000D03*
X160279581Y-43947581D03*
X162560000Y-43003000D03*
X164840419Y-43947581D03*
%TD*%
D10*
%TO.P,REF\u002A\u002A,*%
%TO.N,*%
X162560000Y-26924000D03*
D11*
X165785000Y-26924000D03*
X164840419Y-29204419D03*
X162560000Y-30149000D03*
X160279581Y-29204419D03*
X159335000Y-26924000D03*
X160279581Y-24643581D03*
X162560000Y-23699000D03*
X164840419Y-24643581D03*
%TD*%
D10*
%TO.P,REF\u002A\u002A,*%
%TO.N,*%
X22860000Y-46228000D03*
D11*
X26085000Y-46228000D03*
X25140419Y-48508419D03*
X22860000Y-49453000D03*
X20579581Y-48508419D03*
X19635000Y-46228000D03*
X20579581Y-43947581D03*
X22860000Y-43003000D03*
X25140419Y-43947581D03*
%TD*%
D10*
%TO.P,REF\u002A\u002A,*%
%TO.N,*%
X22860000Y-26924000D03*
D11*
X26085000Y-26924000D03*
X25140419Y-29204419D03*
X22860000Y-30149000D03*
X20579581Y-29204419D03*
X19635000Y-26924000D03*
X20579581Y-24643581D03*
X22860000Y-23699000D03*
X25140419Y-24643581D03*
%TD*%
D12*
%TO.P,D1,10*%
%TO.N,/SEG_G*%
X30550000Y-28620000D03*
%TO.P,D1,9*%
%TO.N,/SEG_F*%
X33090000Y-28620000D03*
%TO.P,D1,8*%
%TO.N,/DIG_0*%
X35560000Y-28620000D03*
%TO.P,D1,7*%
%TO.N,/SEG_A*%
X38030000Y-28620000D03*
%TO.P,D1,6*%
%TO.N,/SEG_B*%
X40570000Y-28620000D03*
%TO.P,D1,5*%
%TO.N,/SEG_DP*%
X40570000Y-44400000D03*
%TO.P,D1,4*%
%TO.N,/SEG_C*%
X38030000Y-44400000D03*
%TO.P,D1,3*%
%TO.N,/DIG_0*%
X35560000Y-44400000D03*
%TO.P,D1,2*%
%TO.N,/SEG_D*%
X33090000Y-44400000D03*
%TO.P,D1,1*%
%TO.N,/SEG_E*%
X30550000Y-44400000D03*
%TD*%
%TO.P,D2,1*%
%TO.N,/SEG_E*%
X68650000Y-44400000D03*
%TO.P,D2,2*%
%TO.N,/SEG_D*%
X71190000Y-44400000D03*
%TO.P,D2,3*%
%TO.N,/DIG_1*%
X73660000Y-44400000D03*
%TO.P,D2,4*%
%TO.N,/SEG_C*%
X76130000Y-44400000D03*
%TO.P,D2,5*%
%TO.N,/SEG_DP*%
X78670000Y-44400000D03*
%TO.P,D2,6*%
%TO.N,/SEG_B*%
X78670000Y-28620000D03*
%TO.P,D2,7*%
%TO.N,/SEG_A*%
X76130000Y-28620000D03*
%TO.P,D2,8*%
%TO.N,/DIG_1*%
X73660000Y-28620000D03*
%TO.P,D2,9*%
%TO.N,/SEG_F*%
X71190000Y-28620000D03*
%TO.P,D2,10*%
%TO.N,/SEG_G*%
X68650000Y-28620000D03*
%TD*%
%TO.P,D3,1*%
%TO.N,/SEG_E*%
X106750000Y-44400000D03*
%TO.P,D3,2*%
%TO.N,/SEG_D*%
X109290000Y-44400000D03*
%TO.P,D3,3*%
%TO.N,/DIG_2*%
X111760000Y-44400000D03*
%TO.P,D3,4*%
%TO.N,/SEG_C*%
X114230000Y-44400000D03*
%TO.P,D3,5*%
%TO.N,/SEG_DP*%
X116770000Y-44400000D03*
%TO.P,D3,6*%
%TO.N,/SEG_B*%
X116770000Y-28620000D03*
%TO.P,D3,7*%
%TO.N,/SEG_A*%
X114230000Y-28620000D03*
%TO.P,D3,8*%
%TO.N,/DIG_2*%
X111760000Y-28620000D03*
%TO.P,D3,9*%
%TO.N,/SEG_F*%
X109290000Y-28620000D03*
%TO.P,D3,10*%
%TO.N,/SEG_G*%
X106750000Y-28620000D03*
%TD*%
%TO.P,D4,10*%
%TO.N,/SEG_G*%
X144850000Y-28620000D03*
%TO.P,D4,9*%
%TO.N,/SEG_F*%
X147390000Y-28620000D03*
%TO.P,D4,8*%
%TO.N,/DIG_3*%
X149860000Y-28620000D03*
%TO.P,D4,7*%
%TO.N,/SEG_A*%
X152330000Y-28620000D03*
%TO.P,D4,6*%
%TO.N,/SEG_B*%
X154870000Y-28620000D03*
%TO.P,D4,5*%
%TO.N,/SEG_DP*%
X154870000Y-44400000D03*
%TO.P,D4,4*%
%TO.N,/SEG_C*%
X152330000Y-44400000D03*
%TO.P,D4,3*%
%TO.N,/DIG_3*%
X149860000Y-44400000D03*
%TO.P,D4,2*%
%TO.N,/SEG_D*%
X147390000Y-44400000D03*
%TO.P,D4,1*%
%TO.N,/SEG_E*%
X144850000Y-44400000D03*
%TD*%
D13*
%TO.P,J1,1*%
%TO.N,/DIG_0*%
X99060000Y-41910000D03*
D14*
%TO.P,J1,2*%
%TO.N,/DIG_1*%
X99060000Y-44450000D03*
%TO.P,J1,3*%
%TO.N,/DIG_2*%
X96520000Y-41910000D03*
%TO.P,J1,4*%
%TO.N,/DIG_3*%
X96520000Y-44450000D03*
%TO.P,J1,5*%
%TO.N,/SEG_F*%
X93980000Y-41910000D03*
%TO.P,J1,6*%
%TO.N,/SEG_G*%
X93980000Y-44450000D03*
%TO.P,J1,7*%
%TO.N,/SEG_A*%
X91440000Y-41910000D03*
%TO.P,J1,8*%
%TO.N,/SEG_B*%
X91440000Y-44450000D03*
%TO.P,J1,9*%
%TO.N,/SEG_DP*%
X88900000Y-41910000D03*
%TO.P,J1,10*%
%TO.N,/SEG_C*%
X88900000Y-44450000D03*
%TO.P,J1,11*%
%TO.N,/SEG_D*%
X86360000Y-41910000D03*
%TO.P,J1,12*%
%TO.N,/SEG_E*%
X86360000Y-44450000D03*
%TD*%
D15*
%TO.N,/SEG_G*%
X68650000Y-28620000D02*
X68650000Y-26600000D01*
X68650000Y-26600000D02*
X69850000Y-25400000D01*
X79246002Y-25400000D02*
X95250000Y-41403998D01*
X69850000Y-25400000D02*
X79246002Y-25400000D01*
X93980000Y-43686002D02*
X93980000Y-44450000D01*
X95250000Y-42416002D02*
X93980000Y-43686002D01*
X95250000Y-41403998D02*
X95250000Y-42416002D01*
X67037989Y-27007989D02*
X68650000Y-28620000D01*
X32162011Y-27007989D02*
X67037989Y-27007989D01*
X30550000Y-28620000D02*
X32162011Y-27007989D01*
%TO.N,/SEG_F*%
X93980000Y-40841118D02*
X93980000Y-41910000D01*
X73902000Y-25908000D02*
X79046882Y-25908000D01*
X79046882Y-25908000D02*
X93980000Y-40841118D01*
X71190000Y-28620000D02*
X73902000Y-25908000D01*
X34202001Y-27507999D02*
X33090000Y-28620000D01*
X41103761Y-27507999D02*
X34202001Y-27507999D01*
X43327763Y-29732001D02*
X41103761Y-27507999D01*
X70077999Y-29732001D02*
X43327763Y-29732001D01*
X71190000Y-28620000D02*
X70077999Y-29732001D01*
%TO.N,/SEG_A*%
X77242001Y-29732001D02*
X76130000Y-28620000D01*
X79262001Y-29732001D02*
X77242001Y-29732001D01*
X91440000Y-41910000D02*
X79262001Y-29732001D01*
X40142021Y-30732021D02*
X38030000Y-28620000D01*
X74017979Y-30732021D02*
X40142021Y-30732021D01*
X76130000Y-28620000D02*
X74017979Y-30732021D01*
%TO.N,/SEG_B*%
X79926002Y-28620000D02*
X78670000Y-28620000D01*
X92640001Y-41333999D02*
X79926002Y-28620000D01*
X92640001Y-43249999D02*
X92640001Y-41333999D01*
X91440000Y-44450000D02*
X92640001Y-43249999D01*
X77557999Y-27507999D02*
X78670000Y-28620000D01*
X73126239Y-27507999D02*
X77557999Y-27507999D01*
X72547999Y-28086239D02*
X73126239Y-27507999D01*
X72547999Y-28907763D02*
X72547999Y-28086239D01*
X71223751Y-30232011D02*
X72547999Y-28907763D01*
X42182011Y-30232011D02*
X71223751Y-30232011D01*
X40570000Y-28620000D02*
X42182011Y-30232011D01*
%TO.N,/SEG_DP*%
X79920001Y-45650001D02*
X78670000Y-44400000D01*
X86936001Y-45650001D02*
X79920001Y-45650001D01*
X87560001Y-45026001D02*
X86936001Y-45650001D01*
X87560001Y-44013997D02*
X87560001Y-45026001D01*
X88900000Y-42673998D02*
X87560001Y-44013997D01*
X88900000Y-41910000D02*
X88900000Y-42673998D01*
X77928000Y-44400000D02*
X78670000Y-44400000D01*
X73126239Y-43287999D02*
X76815999Y-43287999D01*
X72547999Y-43866239D02*
X73126239Y-43287999D01*
X72547999Y-44800001D02*
X72547999Y-43866239D01*
X76815999Y-43287999D02*
X77928000Y-44400000D01*
X71335989Y-46012011D02*
X72547999Y-44800001D01*
X42182011Y-46012011D02*
X71335989Y-46012011D01*
X40570000Y-44400000D02*
X42182011Y-46012011D01*
%TO.N,/SEG_C*%
X87199989Y-46150011D02*
X88900000Y-44450000D01*
X77880011Y-46150011D02*
X87199989Y-46150011D01*
X76130000Y-44400000D02*
X77880011Y-46150011D01*
X40142021Y-46512021D02*
X38030000Y-44400000D01*
X74017979Y-46512021D02*
X40142021Y-46512021D01*
X76130000Y-44400000D02*
X74017979Y-46512021D01*
%TO.N,/SEG_D*%
X73680000Y-41910000D02*
X71190000Y-44400000D01*
X86360000Y-41910000D02*
X73680000Y-41910000D01*
X34202001Y-43287999D02*
X33090000Y-44400000D01*
X41103761Y-43287999D02*
X34202001Y-43287999D01*
X43327763Y-45512001D02*
X41103761Y-43287999D01*
X70077999Y-45512001D02*
X43327763Y-45512001D01*
X71190000Y-44400000D02*
X70077999Y-45512001D01*
%TO.N,/SEG_E*%
X87560001Y-43249999D02*
X86360000Y-44450000D01*
X87560001Y-41333999D02*
X87560001Y-43249999D01*
X86936001Y-40709999D02*
X87560001Y-41333999D01*
X72340001Y-40709999D02*
X86936001Y-40709999D01*
X68650000Y-44400000D02*
X72340001Y-40709999D01*
X32162009Y-42787991D02*
X41310873Y-42787991D01*
X30550000Y-44400000D02*
X32162009Y-42787991D01*
X42922882Y-44400000D02*
X68650000Y-44400000D01*
X41310873Y-42787991D02*
X42922882Y-44400000D01*
%TO.N,/DIG_2*%
X111760000Y-31540002D02*
X111760000Y-28620000D01*
X100050003Y-43249999D02*
X111760000Y-31540002D01*
X97859999Y-43249999D02*
X100050003Y-43249999D01*
X96520000Y-41910000D02*
X97859999Y-43249999D01*
X111760000Y-28620000D02*
X111760000Y-44400000D01*
%TO.N,/DIG_3*%
X96520000Y-44450000D02*
X98806000Y-46736000D01*
X147524000Y-46736000D02*
X149860000Y-44400000D01*
X98806000Y-46736000D02*
X147524000Y-46736000D01*
X149860000Y-44400000D02*
X149860000Y-28620000D01*
%TD*%
M02*
