M48
; DRILL file {KiCad (5.1.8)-1} date 01/20/21 16:15:17
; FORMAT={-:-/ absolute / metric / decimal}
; #@! TF.CreationDate,2021-01-20T16:15:17-05:00
; #@! TF.GenerationSoftware,Kicad,Pcbnew,(5.1.8)-1
FMAT,2
METRIC
T1C0.200
T2C0.350
T3C0.500
T4C0.550
T5C0.800
T6C0.900
T7C1.000
T8C0.600
T9C4.300
%
G90
G05
T1
X106.322Y-83.185
X119.38Y-34.925
T2
X33.02Y-68.58
X39.37Y-66.675
X41.275Y-46.99
X41.91Y-55.88
X45.926Y-60.941
X46.99Y-77.47
X47.625Y-48.26
X47.625Y-68.58
X48.26Y-54.61
X48.647Y-86.995
X48.895Y-46.99
X48.895Y-52.07
X48.895Y-65.405
X49.53Y-57.15
X50.8Y-57.785
X50.8Y-65.405
X52.07Y-63.5
X52.705Y-59.212
X52.705Y-69.85
X53.34Y-77.47
X53.975Y-26.67
X54.61Y-29.21
X54.61Y-53.34
X55.245Y-25.4
X55.88Y-45.085
X56.515Y-23.495
X57.15Y-47.625
X58.42Y-48.895
X58.42Y-55.181
X60.325Y-36.83
X60.325Y-60.941
X60.325Y-62.865
X60.935Y-61.57
X61.595Y-48.26
X63.5Y-43.18
X63.5Y-44.45
X63.5Y-45.72
X64.008Y-56.388
X64.135Y-52.07
X64.135Y-53.34
X65.024Y-56.388
X65.405Y-60.96
X66.04Y-56.388
X66.675Y-62.23
X67.031Y-56.413
X67.564Y-57.404
X67.945Y-60.325
X68.072Y-56.388
X68.58Y-54.356
X69.621Y-53.34
X72.39Y-55.245
X72.39Y-68.58
X74.93Y-64.135
X75.565Y-93.345
X78.74Y-40.64
X78.74Y-41.91
X78.74Y-43.18
X78.74Y-45.085
X78.74Y-46.355
X82.55Y-46.355
X83.185Y-24.765
X83.185Y-42.545
X84.455Y-65.405
X84.455Y-69.215
X85.09Y-54.61
X91.44Y-48.895
X92.71Y-24.765
X93.98Y-73.66
X93.98Y-78.74
X95.25Y-74.93
X95.885Y-52.705
X95.885Y-80.01
X96.52Y-74.93
X97.155Y-67.945
X97.79Y-23.495
X97.79Y-68.58
X98.425Y-69.215
X99.695Y-34.29
X102.235Y-60.325
X102.87Y-62.865
X102.87Y-66.04
X102.87Y-71.12
X103.505Y-55.88
X104.181Y-53.299
X104.228Y-39.204
X105.41Y-34.925
X106.951Y-66.113
X107.315Y-40.64
X107.76Y-33.649
X107.95Y-64.77
X108.349Y-36.83
X108.585Y-38.1
X109.607Y-33.02
X109.855Y-35.56
X114.935Y-39.37
X118.745Y-33.655
X118.928Y-92.929
X119.38Y-47.625
X119.38Y-69.3
X120.015Y-87.63
X120.015Y-90.805
X120.65Y-69.3
X121.92Y-67.31
X121.92Y-90.805
X122.555Y-41.275
X127.0Y-67.31
X127.635Y-88.265
X128.27Y-62.865
X128.997Y-39.37
X129.54Y-37.465
X130.07Y-36.198
X130.574Y-35.052
X131.078Y-33.528
X131.898Y-31.422
X133.223Y-30.988
X134.62Y-30.48
X139.7Y-77.47
X145.415Y-78.105
T5
X62.865Y-64.77
X62.865Y-67.31
X62.865Y-69.85
X62.865Y-72.39
X70.485Y-64.77
X70.485Y-67.31
X70.485Y-69.85
X70.485Y-72.39
X76.835Y-52.705
X76.835Y-57.585
X109.855Y-57.15
X109.855Y-59.69
X109.855Y-62.23
X109.855Y-64.77
X109.855Y-67.31
X109.855Y-69.85
X109.855Y-72.39
X109.855Y-74.93
X109.855Y-77.47
X109.855Y-80.01
X109.855Y-82.55
X109.855Y-85.09
X109.855Y-87.63
X109.855Y-90.17
X117.475Y-57.15
X117.475Y-59.69
X117.475Y-62.23
X117.475Y-64.77
X117.475Y-67.31
X117.475Y-69.85
X117.475Y-72.39
X117.475Y-74.93
X117.475Y-77.47
X117.475Y-80.01
X117.475Y-82.55
X117.475Y-85.09
X117.475Y-87.63
X117.475Y-90.17
X44.958Y-29.464
X44.958Y-32.004
X44.958Y-34.544
X44.958Y-37.084
X44.958Y-39.624
X44.958Y-42.164
X44.958Y-44.704
X44.958Y-47.244
X44.958Y-49.784
X44.958Y-52.324
X44.958Y-54.864
X44.958Y-57.404
X52.578Y-29.464
X52.578Y-32.004
X52.578Y-34.544
X52.578Y-37.084
X52.578Y-39.624
X52.578Y-42.164
X52.578Y-44.704
X52.578Y-47.244
X52.578Y-49.784
X52.578Y-52.324
X52.578Y-54.864
X52.578Y-57.404
X64.77Y-83.82
X64.77Y-91.44
X92.71Y-57.15
X92.71Y-59.69
X92.71Y-62.23
X92.71Y-64.77
X92.71Y-67.31
X92.71Y-69.85
X92.71Y-72.39
X92.71Y-74.93
X92.71Y-77.47
X92.71Y-80.01
X92.71Y-82.55
X92.71Y-85.09
X92.71Y-87.63
X92.71Y-90.17
X100.33Y-57.15
X100.33Y-59.69
X100.33Y-62.23
X100.33Y-64.77
X100.33Y-67.31
X100.33Y-69.85
X100.33Y-72.39
X100.33Y-74.93
X100.33Y-77.47
X100.33Y-80.01
X100.33Y-82.55
X100.33Y-85.09
X100.33Y-87.63
X100.33Y-90.17
X124.46Y-57.15
X124.46Y-59.69
X124.46Y-62.23
X124.46Y-64.77
X124.46Y-67.31
X124.46Y-69.85
X124.46Y-72.39
X124.46Y-74.93
X124.46Y-77.47
X124.46Y-80.01
X124.46Y-82.55
X124.46Y-85.09
X124.46Y-87.63
X124.46Y-90.17
X132.08Y-57.15
X132.08Y-59.69
X132.08Y-62.23
X132.08Y-64.77
X132.08Y-67.31
X132.08Y-69.85
X132.08Y-72.39
X132.08Y-74.93
X132.08Y-77.47
X132.08Y-80.01
X132.08Y-82.55
X132.08Y-85.09
X132.08Y-87.63
X132.08Y-90.17
X59.055Y-83.82
X59.055Y-91.44
T6
X84.709Y-45.085
X87.249Y-45.085
X84.709Y-37.465
X87.249Y-37.465
X91.694Y-45.085
X94.234Y-45.085
X91.694Y-37.465
X94.234Y-37.465
T7
X116.967Y-47.625
X116.967Y-50.165
X33.02Y-52.07
X33.02Y-54.61
X33.02Y-57.15
X33.02Y-59.69
X33.02Y-62.23
X33.02Y-64.77
X103.759Y-18.669
X103.759Y-21.209
X106.299Y-18.669
X106.299Y-21.209
X128.397Y-47.625
X128.397Y-50.165
X125.095Y-18.415
X125.095Y-20.955
X125.095Y-23.495
X33.02Y-71.628
X33.02Y-74.168
X33.02Y-76.708
X35.56Y-71.628
X35.56Y-74.168
X35.56Y-76.708
X85.979Y-18.669
X85.979Y-21.209
X88.519Y-18.669
X88.519Y-21.209
X45.72Y-17.78
X45.72Y-20.32
X48.26Y-17.78
X48.26Y-20.32
X50.8Y-17.78
X50.8Y-20.32
X53.34Y-17.78
X53.34Y-20.32
X55.88Y-17.78
X55.88Y-20.32
X58.42Y-17.78
X58.42Y-20.32
X131.445Y-18.415
X131.445Y-20.955
X131.445Y-23.495
X118.745Y-18.415
X118.745Y-20.955
X118.745Y-23.495
X66.04Y-17.78
X66.04Y-20.32
X68.58Y-17.78
X68.58Y-20.32
X71.12Y-17.78
X71.12Y-20.32
X73.66Y-17.78
X73.66Y-20.32
X76.2Y-17.78
X76.2Y-20.32
X78.74Y-17.78
X78.74Y-20.32
X99.695Y-47.752
X99.695Y-50.292
X71.12Y-90.932
X73.66Y-90.932
X94.615Y-27.94
X94.615Y-30.48
X97.155Y-27.94
X97.155Y-30.48
X58.166Y-29.718
X60.706Y-29.718
X63.246Y-29.718
X65.786Y-29.718
X111.125Y-47.752
X111.125Y-50.292
X83.82Y-27.94
X83.82Y-30.48
X86.36Y-27.94
X86.36Y-30.48
X137.795Y-58.42
X137.795Y-60.96
X137.795Y-63.5
X137.795Y-66.04
X137.795Y-68.58
X137.795Y-71.12
X137.795Y-73.66
X137.795Y-76.2
X122.682Y-47.625
X122.682Y-50.165
X105.41Y-47.752
X105.41Y-50.292
X144.145Y-58.42
X144.145Y-60.96
X144.145Y-63.5
X144.145Y-66.04
X144.145Y-68.58
X144.145Y-71.12
X144.145Y-73.66
X144.145Y-76.2
X73.025Y-27.94
X73.025Y-30.48
X75.565Y-27.94
X75.565Y-30.48
X144.145Y-31.75
X144.145Y-34.29
X144.145Y-36.83
X144.145Y-39.37
X144.145Y-41.91
X144.145Y-44.45
X144.145Y-46.99
X144.145Y-49.53
X112.395Y-18.415
X112.395Y-20.955
X112.395Y-23.495
X137.795Y-31.75
X137.795Y-34.29
X137.795Y-36.83
X137.795Y-39.37
X137.795Y-41.91
X137.795Y-44.45
X137.795Y-46.99
X137.795Y-49.53
X94.869Y-18.669
X94.869Y-21.209
X97.409Y-18.669
X97.409Y-21.209
T8
X136.475Y-21.59
X137.42Y-19.31
X137.42Y-23.87
X139.7Y-18.365
X139.7Y-24.815
X141.98Y-19.31
X141.98Y-23.87
X142.925Y-21.59
X33.605Y-86.36
X34.55Y-84.08
X34.55Y-88.64
X36.83Y-83.135
X36.83Y-89.585
X39.11Y-84.08
X39.11Y-88.64
X40.055Y-86.36
X33.605Y-21.59
X34.55Y-19.31
X34.55Y-23.87
X36.83Y-18.365
X36.83Y-24.815
X39.11Y-19.31
X39.11Y-23.87
X40.055Y-21.59
X136.475Y-86.36
X137.42Y-84.08
X137.42Y-88.64
X139.7Y-83.135
X139.7Y-89.585
X141.98Y-84.08
X141.98Y-88.64
X142.925Y-86.36
T9
X36.83Y-86.36
X36.83Y-21.59
X139.7Y-86.36
X139.7Y-21.59
T3
G00X45.776Y-92.291
M15
G01X45.776Y-92.941
M16
G05
G00X52.776Y-92.291
M15
G01X52.776Y-92.941
M16
G05
T4
G00X46.626Y-89.916
M15
G01X46.926Y-89.916
M16
G05
G00X51.626Y-89.916
M15
G01X51.926Y-89.916
M16
G05
T0
M30
