%TF.GenerationSoftware,KiCad,Pcbnew,(5.1.8)-1*%
%TF.CreationDate,2021-01-20T16:15:24-05:00*%
%TF.ProjectId,Switch_Panel,53776974-6368-45f5-9061-6e656c2e6b69,rev?*%
%TF.SameCoordinates,Original*%
%TF.FileFunction,Paste,Top*%
%TF.FilePolarity,Positive*%
%FSLAX46Y46*%
G04 Gerber Fmt 4.6, Leading zero omitted, Abs format (unit mm)*
G04 Created by KiCad (PCBNEW (5.1.8)-1) date 2021-01-20 16:15:24*
%MOMM*%
%LPD*%
G01*
G04 APERTURE LIST*
%ADD10R,1.700000X0.700000*%
%ADD11R,0.400000X1.350000*%
%ADD12R,0.550000X1.500000*%
%ADD13R,1.500000X0.550000*%
G04 APERTURE END LIST*
D10*
%TO.C,RN2*%
X71365000Y-40640000D03*
X71365000Y-39370000D03*
X71365000Y-38100000D03*
X71365000Y-36830000D03*
X71365000Y-41910000D03*
X71365000Y-43180000D03*
X71365000Y-44450000D03*
X71365000Y-45720000D03*
X61985000Y-40640000D03*
X61985000Y-41910000D03*
X61985000Y-39370000D03*
X61985000Y-38100000D03*
X61985000Y-36830000D03*
X61985000Y-43180000D03*
X61985000Y-44450000D03*
X61985000Y-45720000D03*
%TD*%
%TO.C,R4*%
G36*
G01*
X44904999Y-78405000D02*
X47805001Y-78405000D01*
G75*
G02*
X48055000Y-78654999I0J-249999D01*
G01*
X48055000Y-79455001D01*
G75*
G02*
X47805001Y-79705000I-249999J0D01*
G01*
X44904999Y-79705000D01*
G75*
G02*
X44655000Y-79455001I0J249999D01*
G01*
X44655000Y-78654999D01*
G75*
G02*
X44904999Y-78405000I249999J0D01*
G01*
G37*
G36*
G01*
X44904999Y-82855000D02*
X47805001Y-82855000D01*
G75*
G02*
X48055000Y-83104999I0J-249999D01*
G01*
X48055000Y-83905001D01*
G75*
G02*
X47805001Y-84155000I-249999J0D01*
G01*
X44904999Y-84155000D01*
G75*
G02*
X44655000Y-83905001I0J249999D01*
G01*
X44655000Y-83104999D01*
G75*
G02*
X44904999Y-82855000I249999J0D01*
G01*
G37*
%TD*%
%TO.C,C1*%
G36*
G01*
X84535000Y-59870002D02*
X84535000Y-56969998D01*
G75*
G02*
X84784998Y-56720000I249998J0D01*
G01*
X85860002Y-56720000D01*
G75*
G02*
X86110000Y-56969998I0J-249998D01*
G01*
X86110000Y-59870002D01*
G75*
G02*
X85860002Y-60120000I-249998J0D01*
G01*
X84784998Y-60120000D01*
G75*
G02*
X84535000Y-59870002I0J249998D01*
G01*
G37*
G36*
G01*
X80260000Y-59870002D02*
X80260000Y-56969998D01*
G75*
G02*
X80509998Y-56720000I249998J0D01*
G01*
X81585002Y-56720000D01*
G75*
G02*
X81835000Y-56969998I0J-249998D01*
G01*
X81835000Y-59870002D01*
G75*
G02*
X81585002Y-60120000I-249998J0D01*
G01*
X80509998Y-60120000D01*
G75*
G02*
X80260000Y-59870002I0J249998D01*
G01*
G37*
%TD*%
%TO.C,C2*%
G36*
G01*
X80260000Y-53520002D02*
X80260000Y-50619998D01*
G75*
G02*
X80509998Y-50370000I249998J0D01*
G01*
X81585002Y-50370000D01*
G75*
G02*
X81835000Y-50619998I0J-249998D01*
G01*
X81835000Y-53520002D01*
G75*
G02*
X81585002Y-53770000I-249998J0D01*
G01*
X80509998Y-53770000D01*
G75*
G02*
X80260000Y-53520002I0J249998D01*
G01*
G37*
G36*
G01*
X84535000Y-53520002D02*
X84535000Y-50619998D01*
G75*
G02*
X84784998Y-50370000I249998J0D01*
G01*
X85860002Y-50370000D01*
G75*
G02*
X86110000Y-50619998I0J-249998D01*
G01*
X86110000Y-53520002D01*
G75*
G02*
X85860002Y-53770000I-249998J0D01*
G01*
X84784998Y-53770000D01*
G75*
G02*
X84535000Y-53520002I0J249998D01*
G01*
G37*
%TD*%
%TO.C,C3*%
G36*
G01*
X48587998Y-70692000D02*
X51488002Y-70692000D01*
G75*
G02*
X51738000Y-70941998I0J-249998D01*
G01*
X51738000Y-72017002D01*
G75*
G02*
X51488002Y-72267000I-249998J0D01*
G01*
X48587998Y-72267000D01*
G75*
G02*
X48338000Y-72017002I0J249998D01*
G01*
X48338000Y-70941998D01*
G75*
G02*
X48587998Y-70692000I249998J0D01*
G01*
G37*
G36*
G01*
X48587998Y-66417000D02*
X51488002Y-66417000D01*
G75*
G02*
X51738000Y-66666998I0J-249998D01*
G01*
X51738000Y-67742002D01*
G75*
G02*
X51488002Y-67992000I-249998J0D01*
G01*
X48587998Y-67992000D01*
G75*
G02*
X48338000Y-67742002I0J249998D01*
G01*
X48338000Y-66666998D01*
G75*
G02*
X48587998Y-66417000I249998J0D01*
G01*
G37*
%TD*%
%TO.C,C4*%
G36*
G01*
X39747000Y-75745002D02*
X39747000Y-72844998D01*
G75*
G02*
X39996998Y-72595000I249998J0D01*
G01*
X41072002Y-72595000D01*
G75*
G02*
X41322000Y-72844998I0J-249998D01*
G01*
X41322000Y-75745002D01*
G75*
G02*
X41072002Y-75995000I-249998J0D01*
G01*
X39996998Y-75995000D01*
G75*
G02*
X39747000Y-75745002I0J249998D01*
G01*
G37*
G36*
G01*
X44022000Y-75745002D02*
X44022000Y-72844998D01*
G75*
G02*
X44271998Y-72595000I249998J0D01*
G01*
X45347002Y-72595000D01*
G75*
G02*
X45597000Y-72844998I0J-249998D01*
G01*
X45597000Y-75745002D01*
G75*
G02*
X45347002Y-75995000I-249998J0D01*
G01*
X44271998Y-75995000D01*
G75*
G02*
X44022000Y-75745002I0J249998D01*
G01*
G37*
%TD*%
D11*
%TO.C,J1*%
X49276000Y-89916000D03*
X49926000Y-89916000D03*
X50576000Y-89916000D03*
X48626000Y-89916000D03*
X47976000Y-89916000D03*
%TD*%
%TO.C,R1*%
G36*
G01*
X37200000Y-52264999D02*
X37200000Y-54415001D01*
G75*
G02*
X36950001Y-54665000I-249999J0D01*
G01*
X36149999Y-54665000D01*
G75*
G02*
X35900000Y-54415001I0J249999D01*
G01*
X35900000Y-52264999D01*
G75*
G02*
X36149999Y-52015000I249999J0D01*
G01*
X36950001Y-52015000D01*
G75*
G02*
X37200000Y-52264999I0J-249999D01*
G01*
G37*
G36*
G01*
X40300000Y-52264999D02*
X40300000Y-54415001D01*
G75*
G02*
X40050001Y-54665000I-249999J0D01*
G01*
X39249999Y-54665000D01*
G75*
G02*
X39000000Y-54415001I0J249999D01*
G01*
X39000000Y-52264999D01*
G75*
G02*
X39249999Y-52015000I249999J0D01*
G01*
X40050001Y-52015000D01*
G75*
G02*
X40300000Y-52264999I0J-249999D01*
G01*
G37*
%TD*%
%TO.C,R3*%
G36*
G01*
X51889999Y-78405000D02*
X54790001Y-78405000D01*
G75*
G02*
X55040000Y-78654999I0J-249999D01*
G01*
X55040000Y-79455001D01*
G75*
G02*
X54790001Y-79705000I-249999J0D01*
G01*
X51889999Y-79705000D01*
G75*
G02*
X51640000Y-79455001I0J249999D01*
G01*
X51640000Y-78654999D01*
G75*
G02*
X51889999Y-78405000I249999J0D01*
G01*
G37*
G36*
G01*
X51889999Y-82855000D02*
X54790001Y-82855000D01*
G75*
G02*
X55040000Y-83104999I0J-249999D01*
G01*
X55040000Y-83905001D01*
G75*
G02*
X54790001Y-84155000I-249999J0D01*
G01*
X51889999Y-84155000D01*
G75*
G02*
X51640000Y-83905001I0J249999D01*
G01*
X51640000Y-83104999D01*
G75*
G02*
X51889999Y-82855000I249999J0D01*
G01*
G37*
%TD*%
%TO.C,R5*%
G36*
G01*
X35900000Y-65591001D02*
X35900000Y-63440999D01*
G75*
G02*
X36149999Y-63191000I249999J0D01*
G01*
X36950001Y-63191000D01*
G75*
G02*
X37200000Y-63440999I0J-249999D01*
G01*
X37200000Y-65591001D01*
G75*
G02*
X36950001Y-65841000I-249999J0D01*
G01*
X36149999Y-65841000D01*
G75*
G02*
X35900000Y-65591001I0J249999D01*
G01*
G37*
G36*
G01*
X39000000Y-65591001D02*
X39000000Y-63440999D01*
G75*
G02*
X39249999Y-63191000I249999J0D01*
G01*
X40050001Y-63191000D01*
G75*
G02*
X40300000Y-63440999I0J-249999D01*
G01*
X40300000Y-65591001D01*
G75*
G02*
X40050001Y-65841000I-249999J0D01*
G01*
X39249999Y-65841000D01*
G75*
G02*
X39000000Y-65591001I0J249999D01*
G01*
G37*
%TD*%
%TO.C,R6*%
G36*
G01*
X39000000Y-60511001D02*
X39000000Y-58360999D01*
G75*
G02*
X39249999Y-58111000I249999J0D01*
G01*
X40050001Y-58111000D01*
G75*
G02*
X40300000Y-58360999I0J-249999D01*
G01*
X40300000Y-60511001D01*
G75*
G02*
X40050001Y-60761000I-249999J0D01*
G01*
X39249999Y-60761000D01*
G75*
G02*
X39000000Y-60511001I0J249999D01*
G01*
G37*
G36*
G01*
X35900000Y-60511001D02*
X35900000Y-58360999D01*
G75*
G02*
X36149999Y-58111000I249999J0D01*
G01*
X36950001Y-58111000D01*
G75*
G02*
X37200000Y-58360999I0J-249999D01*
G01*
X37200000Y-60511001D01*
G75*
G02*
X36950001Y-60761000I-249999J0D01*
G01*
X36149999Y-60761000D01*
G75*
G02*
X35900000Y-60511001I0J249999D01*
G01*
G37*
%TD*%
%TO.C,R7*%
G36*
G01*
X82990001Y-66410000D02*
X80839999Y-66410000D01*
G75*
G02*
X80590000Y-66160001I0J249999D01*
G01*
X80590000Y-65359999D01*
G75*
G02*
X80839999Y-65110000I249999J0D01*
G01*
X82990001Y-65110000D01*
G75*
G02*
X83240000Y-65359999I0J-249999D01*
G01*
X83240000Y-66160001D01*
G75*
G02*
X82990001Y-66410000I-249999J0D01*
G01*
G37*
G36*
G01*
X82990001Y-69510000D02*
X80839999Y-69510000D01*
G75*
G02*
X80590000Y-69260001I0J249999D01*
G01*
X80590000Y-68459999D01*
G75*
G02*
X80839999Y-68210000I249999J0D01*
G01*
X82990001Y-68210000D01*
G75*
G02*
X83240000Y-68459999I0J-249999D01*
G01*
X83240000Y-69260001D01*
G75*
G02*
X82990001Y-69510000I-249999J0D01*
G01*
G37*
%TD*%
%TO.C,R8*%
G36*
G01*
X76005001Y-69510000D02*
X73854999Y-69510000D01*
G75*
G02*
X73605000Y-69260001I0J249999D01*
G01*
X73605000Y-68459999D01*
G75*
G02*
X73854999Y-68210000I249999J0D01*
G01*
X76005001Y-68210000D01*
G75*
G02*
X76255000Y-68459999I0J-249999D01*
G01*
X76255000Y-69260001D01*
G75*
G02*
X76005001Y-69510000I-249999J0D01*
G01*
G37*
G36*
G01*
X76005001Y-66410000D02*
X73854999Y-66410000D01*
G75*
G02*
X73605000Y-66160001I0J249999D01*
G01*
X73605000Y-65359999D01*
G75*
G02*
X73854999Y-65110000I249999J0D01*
G01*
X76005001Y-65110000D01*
G75*
G02*
X76255000Y-65359999I0J-249999D01*
G01*
X76255000Y-66160001D01*
G75*
G02*
X76005001Y-66410000I-249999J0D01*
G01*
G37*
%TD*%
%TO.C,R9*%
G36*
G01*
X39564999Y-41615000D02*
X41715001Y-41615000D01*
G75*
G02*
X41965000Y-41864999I0J-249999D01*
G01*
X41965000Y-42665001D01*
G75*
G02*
X41715001Y-42915000I-249999J0D01*
G01*
X39564999Y-42915000D01*
G75*
G02*
X39315000Y-42665001I0J249999D01*
G01*
X39315000Y-41864999D01*
G75*
G02*
X39564999Y-41615000I249999J0D01*
G01*
G37*
G36*
G01*
X39564999Y-44715000D02*
X41715001Y-44715000D01*
G75*
G02*
X41965000Y-44964999I0J-249999D01*
G01*
X41965000Y-45765001D01*
G75*
G02*
X41715001Y-46015000I-249999J0D01*
G01*
X39564999Y-46015000D01*
G75*
G02*
X39315000Y-45765001I0J249999D01*
G01*
X39315000Y-44964999D01*
G75*
G02*
X39564999Y-44715000I249999J0D01*
G01*
G37*
%TD*%
D12*
%TO.C,U1*%
X69475000Y-50410000D03*
D13*
X70875000Y-57410000D03*
X70875000Y-56610000D03*
X70875000Y-55810000D03*
X70875000Y-55010000D03*
X70875000Y-54210000D03*
X70875000Y-53410000D03*
X70875000Y-52610000D03*
X70875000Y-51810000D03*
D12*
X68675000Y-50410000D03*
X67875000Y-50410000D03*
X67075000Y-50410000D03*
X66275000Y-50410000D03*
X65475000Y-50410000D03*
X64675000Y-50410000D03*
X63875000Y-50410000D03*
D13*
X62475000Y-51810000D03*
X62475000Y-52610000D03*
X62475000Y-53410000D03*
X62475000Y-54210000D03*
X62475000Y-55010000D03*
X62475000Y-55810000D03*
X62475000Y-56610000D03*
X62475000Y-57410000D03*
D12*
X63875000Y-58810000D03*
X64675000Y-58810000D03*
X65475000Y-58810000D03*
X66275000Y-58810000D03*
X67075000Y-58810000D03*
X67875000Y-58810000D03*
X68675000Y-58810000D03*
X69475000Y-58810000D03*
%TD*%
D10*
%TO.C,RN1*%
X120895000Y-31750000D03*
X120895000Y-33020000D03*
X120895000Y-34290000D03*
X120895000Y-40640000D03*
X120895000Y-39370000D03*
X120895000Y-38100000D03*
X120895000Y-35560000D03*
X120895000Y-36830000D03*
X111515000Y-31750000D03*
X111515000Y-33020000D03*
X111515000Y-34290000D03*
X111515000Y-35560000D03*
X111515000Y-40640000D03*
X111515000Y-39370000D03*
X111515000Y-38100000D03*
X111515000Y-36830000D03*
%TD*%
%TO.C,R2*%
G36*
G01*
X58080000Y-73219999D02*
X58080000Y-75370001D01*
G75*
G02*
X57830001Y-75620000I-249999J0D01*
G01*
X57029999Y-75620000D01*
G75*
G02*
X56780000Y-75370001I0J249999D01*
G01*
X56780000Y-73219999D01*
G75*
G02*
X57029999Y-72970000I249999J0D01*
G01*
X57830001Y-72970000D01*
G75*
G02*
X58080000Y-73219999I0J-249999D01*
G01*
G37*
G36*
G01*
X54980000Y-73219999D02*
X54980000Y-75370001D01*
G75*
G02*
X54730001Y-75620000I-249999J0D01*
G01*
X53929999Y-75620000D01*
G75*
G02*
X53680000Y-75370001I0J249999D01*
G01*
X53680000Y-73219999D01*
G75*
G02*
X53929999Y-72970000I249999J0D01*
G01*
X54730001Y-72970000D01*
G75*
G02*
X54980000Y-73219999I0J-249999D01*
G01*
G37*
%TD*%
M02*
