%TF.GenerationSoftware,KiCad,Pcbnew,(5.1.8)-1*%
%TF.CreationDate,2021-01-20T16:15:24-05:00*%
%TF.ProjectId,Switch_Panel,53776974-6368-45f5-9061-6e656c2e6b69,rev?*%
%TF.SameCoordinates,Original*%
%TF.FileFunction,Soldermask,Top*%
%TF.FilePolarity,Negative*%
%FSLAX46Y46*%
G04 Gerber Fmt 4.6, Leading zero omitted, Abs format (unit mm)*
G04 Created by KiCad (PCBNEW (5.1.8)-1) date 2021-01-20 16:15:24*
%MOMM*%
%LPD*%
G01*
G04 APERTURE LIST*
%ADD10R,1.600000X1.600000*%
%ADD11O,1.600000X1.600000*%
%ADD12R,1.700000X0.700000*%
%ADD13C,8.600000*%
%ADD14C,0.900000*%
%ADD15R,0.400000X1.350000*%
%ADD16O,1.250000X0.950000*%
%ADD17O,1.000000X1.550000*%
%ADD18R,1.700000X1.700000*%
%ADD19O,1.700000X1.700000*%
%ADD20R,0.550000X1.500000*%
%ADD21R,1.500000X0.550000*%
%ADD22C,1.500000*%
%ADD23C,1.800000*%
%ADD24R,1.800000X1.800000*%
G04 APERTURE END LIST*
D10*
%TO.C,U6*%
X100330000Y-90170000D03*
D11*
X92710000Y-57150000D03*
X100330000Y-87630000D03*
X92710000Y-59690000D03*
X100330000Y-85090000D03*
X92710000Y-62230000D03*
X100330000Y-82550000D03*
X92710000Y-64770000D03*
X100330000Y-80010000D03*
X92710000Y-67310000D03*
X100330000Y-77470000D03*
X92710000Y-69850000D03*
X100330000Y-74930000D03*
X92710000Y-72390000D03*
X100330000Y-72390000D03*
X92710000Y-74930000D03*
X100330000Y-69850000D03*
X92710000Y-77470000D03*
X100330000Y-67310000D03*
X92710000Y-80010000D03*
X100330000Y-64770000D03*
X92710000Y-82550000D03*
X100330000Y-62230000D03*
X92710000Y-85090000D03*
X100330000Y-59690000D03*
X92710000Y-87630000D03*
X100330000Y-57150000D03*
X92710000Y-90170000D03*
%TD*%
%TO.C,U5*%
X109855000Y-90170000D03*
X117475000Y-57150000D03*
X109855000Y-87630000D03*
X117475000Y-59690000D03*
X109855000Y-85090000D03*
X117475000Y-62230000D03*
X109855000Y-82550000D03*
X117475000Y-64770000D03*
X109855000Y-80010000D03*
X117475000Y-67310000D03*
X109855000Y-77470000D03*
X117475000Y-69850000D03*
X109855000Y-74930000D03*
X117475000Y-72390000D03*
X109855000Y-72390000D03*
X117475000Y-74930000D03*
X109855000Y-69850000D03*
X117475000Y-77470000D03*
X109855000Y-67310000D03*
X117475000Y-80010000D03*
X109855000Y-64770000D03*
X117475000Y-82550000D03*
X109855000Y-62230000D03*
X117475000Y-85090000D03*
X109855000Y-59690000D03*
X117475000Y-87630000D03*
X109855000Y-57150000D03*
D10*
X117475000Y-90170000D03*
%TD*%
D12*
%TO.C,RN2*%
X71365000Y-40640000D03*
X71365000Y-39370000D03*
X71365000Y-38100000D03*
X71365000Y-36830000D03*
X71365000Y-41910000D03*
X71365000Y-43180000D03*
X71365000Y-44450000D03*
X71365000Y-45720000D03*
X61985000Y-40640000D03*
X61985000Y-41910000D03*
X61985000Y-39370000D03*
X61985000Y-38100000D03*
X61985000Y-36830000D03*
X61985000Y-43180000D03*
X61985000Y-44450000D03*
X61985000Y-45720000D03*
%TD*%
D11*
%TO.C,D2*%
X64770000Y-91440000D03*
D10*
X64770000Y-83820000D03*
%TD*%
%TO.C,R4*%
G36*
G01*
X44904999Y-78405000D02*
X47805001Y-78405000D01*
G75*
G02*
X48055000Y-78654999I0J-249999D01*
G01*
X48055000Y-79455001D01*
G75*
G02*
X47805001Y-79705000I-249999J0D01*
G01*
X44904999Y-79705000D01*
G75*
G02*
X44655000Y-79455001I0J249999D01*
G01*
X44655000Y-78654999D01*
G75*
G02*
X44904999Y-78405000I249999J0D01*
G01*
G37*
G36*
G01*
X44904999Y-82855000D02*
X47805001Y-82855000D01*
G75*
G02*
X48055000Y-83104999I0J-249999D01*
G01*
X48055000Y-83905001D01*
G75*
G02*
X47805001Y-84155000I-249999J0D01*
G01*
X44904999Y-84155000D01*
G75*
G02*
X44655000Y-83905001I0J249999D01*
G01*
X44655000Y-83104999D01*
G75*
G02*
X44904999Y-82855000I249999J0D01*
G01*
G37*
%TD*%
D13*
%TO.C,REF\u002A\u002A*%
X139700000Y-21590000D03*
D14*
X142925000Y-21590000D03*
X141980419Y-23870419D03*
X139700000Y-24815000D03*
X137419581Y-23870419D03*
X136475000Y-21590000D03*
X137419581Y-19309581D03*
X139700000Y-18365000D03*
X141980419Y-19309581D03*
%TD*%
%TO.C,REF\u002A\u002A*%
X141980419Y-84079581D03*
X139700000Y-83135000D03*
X137419581Y-84079581D03*
X136475000Y-86360000D03*
X137419581Y-88640419D03*
X139700000Y-89585000D03*
X141980419Y-88640419D03*
X142925000Y-86360000D03*
D13*
X139700000Y-86360000D03*
%TD*%
%TO.C,REF\u002A\u002A*%
X36830000Y-86360000D03*
D14*
X40055000Y-86360000D03*
X39110419Y-88640419D03*
X36830000Y-89585000D03*
X34549581Y-88640419D03*
X33605000Y-86360000D03*
X34549581Y-84079581D03*
X36830000Y-83135000D03*
X39110419Y-84079581D03*
%TD*%
D13*
%TO.C,REF\u002A\u002A*%
X36830000Y-21590000D03*
D14*
X40055000Y-21590000D03*
X39110419Y-23870419D03*
X36830000Y-24815000D03*
X34549581Y-23870419D03*
X33605000Y-21590000D03*
X34549581Y-19309581D03*
X36830000Y-18365000D03*
X39110419Y-19309581D03*
%TD*%
%TO.C,C1*%
G36*
G01*
X84535000Y-59870002D02*
X84535000Y-56969998D01*
G75*
G02*
X84784998Y-56720000I249998J0D01*
G01*
X85860002Y-56720000D01*
G75*
G02*
X86110000Y-56969998I0J-249998D01*
G01*
X86110000Y-59870002D01*
G75*
G02*
X85860002Y-60120000I-249998J0D01*
G01*
X84784998Y-60120000D01*
G75*
G02*
X84535000Y-59870002I0J249998D01*
G01*
G37*
G36*
G01*
X80260000Y-59870002D02*
X80260000Y-56969998D01*
G75*
G02*
X80509998Y-56720000I249998J0D01*
G01*
X81585002Y-56720000D01*
G75*
G02*
X81835000Y-56969998I0J-249998D01*
G01*
X81835000Y-59870002D01*
G75*
G02*
X81585002Y-60120000I-249998J0D01*
G01*
X80509998Y-60120000D01*
G75*
G02*
X80260000Y-59870002I0J249998D01*
G01*
G37*
%TD*%
%TO.C,C2*%
G36*
G01*
X80260000Y-53520002D02*
X80260000Y-50619998D01*
G75*
G02*
X80509998Y-50370000I249998J0D01*
G01*
X81585002Y-50370000D01*
G75*
G02*
X81835000Y-50619998I0J-249998D01*
G01*
X81835000Y-53520002D01*
G75*
G02*
X81585002Y-53770000I-249998J0D01*
G01*
X80509998Y-53770000D01*
G75*
G02*
X80260000Y-53520002I0J249998D01*
G01*
G37*
G36*
G01*
X84535000Y-53520002D02*
X84535000Y-50619998D01*
G75*
G02*
X84784998Y-50370000I249998J0D01*
G01*
X85860002Y-50370000D01*
G75*
G02*
X86110000Y-50619998I0J-249998D01*
G01*
X86110000Y-53520002D01*
G75*
G02*
X85860002Y-53770000I-249998J0D01*
G01*
X84784998Y-53770000D01*
G75*
G02*
X84535000Y-53520002I0J249998D01*
G01*
G37*
%TD*%
%TO.C,C3*%
G36*
G01*
X48587998Y-70692000D02*
X51488002Y-70692000D01*
G75*
G02*
X51738000Y-70941998I0J-249998D01*
G01*
X51738000Y-72017002D01*
G75*
G02*
X51488002Y-72267000I-249998J0D01*
G01*
X48587998Y-72267000D01*
G75*
G02*
X48338000Y-72017002I0J249998D01*
G01*
X48338000Y-70941998D01*
G75*
G02*
X48587998Y-70692000I249998J0D01*
G01*
G37*
G36*
G01*
X48587998Y-66417000D02*
X51488002Y-66417000D01*
G75*
G02*
X51738000Y-66666998I0J-249998D01*
G01*
X51738000Y-67742002D01*
G75*
G02*
X51488002Y-67992000I-249998J0D01*
G01*
X48587998Y-67992000D01*
G75*
G02*
X48338000Y-67742002I0J249998D01*
G01*
X48338000Y-66666998D01*
G75*
G02*
X48587998Y-66417000I249998J0D01*
G01*
G37*
%TD*%
%TO.C,C4*%
G36*
G01*
X39747000Y-75745002D02*
X39747000Y-72844998D01*
G75*
G02*
X39996998Y-72595000I249998J0D01*
G01*
X41072002Y-72595000D01*
G75*
G02*
X41322000Y-72844998I0J-249998D01*
G01*
X41322000Y-75745002D01*
G75*
G02*
X41072002Y-75995000I-249998J0D01*
G01*
X39996998Y-75995000D01*
G75*
G02*
X39747000Y-75745002I0J249998D01*
G01*
G37*
G36*
G01*
X44022000Y-75745002D02*
X44022000Y-72844998D01*
G75*
G02*
X44271998Y-72595000I249998J0D01*
G01*
X45347002Y-72595000D01*
G75*
G02*
X45597000Y-72844998I0J-249998D01*
G01*
X45597000Y-75745002D01*
G75*
G02*
X45347002Y-75995000I-249998J0D01*
G01*
X44271998Y-75995000D01*
G75*
G02*
X44022000Y-75745002I0J249998D01*
G01*
G37*
%TD*%
D15*
%TO.C,J1*%
X49276000Y-89916000D03*
X49926000Y-89916000D03*
X50576000Y-89916000D03*
X48626000Y-89916000D03*
X47976000Y-89916000D03*
D16*
X51776000Y-89916000D03*
X46776000Y-89916000D03*
D17*
X45776000Y-92616000D03*
X52776000Y-92616000D03*
%TD*%
D18*
%TO.C,J2*%
X71120000Y-90932000D03*
D19*
X73660000Y-90932000D03*
%TD*%
D18*
%TO.C,J3*%
X35560000Y-76708000D03*
D19*
X33020000Y-76708000D03*
X35560000Y-74168000D03*
X33020000Y-74168000D03*
X35560000Y-71628000D03*
X33020000Y-71628000D03*
%TD*%
D18*
%TO.C,J4*%
X33020000Y-64770000D03*
D19*
X33020000Y-62230000D03*
X33020000Y-59690000D03*
X33020000Y-57150000D03*
X33020000Y-54610000D03*
X33020000Y-52070000D03*
%TD*%
D18*
%TO.C,J7*%
X137795000Y-49530000D03*
D19*
X137795000Y-46990000D03*
X137795000Y-44450000D03*
X137795000Y-41910000D03*
X137795000Y-39370000D03*
X137795000Y-36830000D03*
X137795000Y-34290000D03*
X137795000Y-31750000D03*
%TD*%
%TO.C,J8*%
X144145000Y-76200000D03*
X144145000Y-73660000D03*
X144145000Y-71120000D03*
X144145000Y-68580000D03*
X144145000Y-66040000D03*
X144145000Y-63500000D03*
X144145000Y-60960000D03*
D18*
X144145000Y-58420000D03*
%TD*%
%TO.C,R1*%
G36*
G01*
X37200000Y-52264999D02*
X37200000Y-54415001D01*
G75*
G02*
X36950001Y-54665000I-249999J0D01*
G01*
X36149999Y-54665000D01*
G75*
G02*
X35900000Y-54415001I0J249999D01*
G01*
X35900000Y-52264999D01*
G75*
G02*
X36149999Y-52015000I249999J0D01*
G01*
X36950001Y-52015000D01*
G75*
G02*
X37200000Y-52264999I0J-249999D01*
G01*
G37*
G36*
G01*
X40300000Y-52264999D02*
X40300000Y-54415001D01*
G75*
G02*
X40050001Y-54665000I-249999J0D01*
G01*
X39249999Y-54665000D01*
G75*
G02*
X39000000Y-54415001I0J249999D01*
G01*
X39000000Y-52264999D01*
G75*
G02*
X39249999Y-52015000I249999J0D01*
G01*
X40050001Y-52015000D01*
G75*
G02*
X40300000Y-52264999I0J-249999D01*
G01*
G37*
%TD*%
%TO.C,R3*%
G36*
G01*
X51889999Y-78405000D02*
X54790001Y-78405000D01*
G75*
G02*
X55040000Y-78654999I0J-249999D01*
G01*
X55040000Y-79455001D01*
G75*
G02*
X54790001Y-79705000I-249999J0D01*
G01*
X51889999Y-79705000D01*
G75*
G02*
X51640000Y-79455001I0J249999D01*
G01*
X51640000Y-78654999D01*
G75*
G02*
X51889999Y-78405000I249999J0D01*
G01*
G37*
G36*
G01*
X51889999Y-82855000D02*
X54790001Y-82855000D01*
G75*
G02*
X55040000Y-83104999I0J-249999D01*
G01*
X55040000Y-83905001D01*
G75*
G02*
X54790001Y-84155000I-249999J0D01*
G01*
X51889999Y-84155000D01*
G75*
G02*
X51640000Y-83905001I0J249999D01*
G01*
X51640000Y-83104999D01*
G75*
G02*
X51889999Y-82855000I249999J0D01*
G01*
G37*
%TD*%
%TO.C,R5*%
G36*
G01*
X35900000Y-65591001D02*
X35900000Y-63440999D01*
G75*
G02*
X36149999Y-63191000I249999J0D01*
G01*
X36950001Y-63191000D01*
G75*
G02*
X37200000Y-63440999I0J-249999D01*
G01*
X37200000Y-65591001D01*
G75*
G02*
X36950001Y-65841000I-249999J0D01*
G01*
X36149999Y-65841000D01*
G75*
G02*
X35900000Y-65591001I0J249999D01*
G01*
G37*
G36*
G01*
X39000000Y-65591001D02*
X39000000Y-63440999D01*
G75*
G02*
X39249999Y-63191000I249999J0D01*
G01*
X40050001Y-63191000D01*
G75*
G02*
X40300000Y-63440999I0J-249999D01*
G01*
X40300000Y-65591001D01*
G75*
G02*
X40050001Y-65841000I-249999J0D01*
G01*
X39249999Y-65841000D01*
G75*
G02*
X39000000Y-65591001I0J249999D01*
G01*
G37*
%TD*%
%TO.C,R6*%
G36*
G01*
X39000000Y-60511001D02*
X39000000Y-58360999D01*
G75*
G02*
X39249999Y-58111000I249999J0D01*
G01*
X40050001Y-58111000D01*
G75*
G02*
X40300000Y-58360999I0J-249999D01*
G01*
X40300000Y-60511001D01*
G75*
G02*
X40050001Y-60761000I-249999J0D01*
G01*
X39249999Y-60761000D01*
G75*
G02*
X39000000Y-60511001I0J249999D01*
G01*
G37*
G36*
G01*
X35900000Y-60511001D02*
X35900000Y-58360999D01*
G75*
G02*
X36149999Y-58111000I249999J0D01*
G01*
X36950001Y-58111000D01*
G75*
G02*
X37200000Y-58360999I0J-249999D01*
G01*
X37200000Y-60511001D01*
G75*
G02*
X36950001Y-60761000I-249999J0D01*
G01*
X36149999Y-60761000D01*
G75*
G02*
X35900000Y-60511001I0J249999D01*
G01*
G37*
%TD*%
%TO.C,R7*%
G36*
G01*
X82990001Y-66410000D02*
X80839999Y-66410000D01*
G75*
G02*
X80590000Y-66160001I0J249999D01*
G01*
X80590000Y-65359999D01*
G75*
G02*
X80839999Y-65110000I249999J0D01*
G01*
X82990001Y-65110000D01*
G75*
G02*
X83240000Y-65359999I0J-249999D01*
G01*
X83240000Y-66160001D01*
G75*
G02*
X82990001Y-66410000I-249999J0D01*
G01*
G37*
G36*
G01*
X82990001Y-69510000D02*
X80839999Y-69510000D01*
G75*
G02*
X80590000Y-69260001I0J249999D01*
G01*
X80590000Y-68459999D01*
G75*
G02*
X80839999Y-68210000I249999J0D01*
G01*
X82990001Y-68210000D01*
G75*
G02*
X83240000Y-68459999I0J-249999D01*
G01*
X83240000Y-69260001D01*
G75*
G02*
X82990001Y-69510000I-249999J0D01*
G01*
G37*
%TD*%
%TO.C,R8*%
G36*
G01*
X76005001Y-69510000D02*
X73854999Y-69510000D01*
G75*
G02*
X73605000Y-69260001I0J249999D01*
G01*
X73605000Y-68459999D01*
G75*
G02*
X73854999Y-68210000I249999J0D01*
G01*
X76005001Y-68210000D01*
G75*
G02*
X76255000Y-68459999I0J-249999D01*
G01*
X76255000Y-69260001D01*
G75*
G02*
X76005001Y-69510000I-249999J0D01*
G01*
G37*
G36*
G01*
X76005001Y-66410000D02*
X73854999Y-66410000D01*
G75*
G02*
X73605000Y-66160001I0J249999D01*
G01*
X73605000Y-65359999D01*
G75*
G02*
X73854999Y-65110000I249999J0D01*
G01*
X76005001Y-65110000D01*
G75*
G02*
X76255000Y-65359999I0J-249999D01*
G01*
X76255000Y-66160001D01*
G75*
G02*
X76005001Y-66410000I-249999J0D01*
G01*
G37*
%TD*%
%TO.C,R9*%
G36*
G01*
X39564999Y-41615000D02*
X41715001Y-41615000D01*
G75*
G02*
X41965000Y-41864999I0J-249999D01*
G01*
X41965000Y-42665001D01*
G75*
G02*
X41715001Y-42915000I-249999J0D01*
G01*
X39564999Y-42915000D01*
G75*
G02*
X39315000Y-42665001I0J249999D01*
G01*
X39315000Y-41864999D01*
G75*
G02*
X39564999Y-41615000I249999J0D01*
G01*
G37*
G36*
G01*
X39564999Y-44715000D02*
X41715001Y-44715000D01*
G75*
G02*
X41965000Y-44964999I0J-249999D01*
G01*
X41965000Y-45765001D01*
G75*
G02*
X41715001Y-46015000I-249999J0D01*
G01*
X39564999Y-46015000D01*
G75*
G02*
X39315000Y-45765001I0J249999D01*
G01*
X39315000Y-44964999D01*
G75*
G02*
X39564999Y-44715000I249999J0D01*
G01*
G37*
%TD*%
%TO.C,SW4*%
X112395000Y-18415000D03*
D19*
X112395000Y-20955000D03*
X112395000Y-23495000D03*
%TD*%
D18*
%TO.C,SW5*%
X118745000Y-18415000D03*
D19*
X118745000Y-20955000D03*
X118745000Y-23495000D03*
%TD*%
D18*
%TO.C,SW6*%
X99695000Y-47752000D03*
D19*
X99695000Y-50292000D03*
%TD*%
D18*
%TO.C,SW7*%
X105410000Y-47752000D03*
D19*
X105410000Y-50292000D03*
%TD*%
D18*
%TO.C,SW8*%
X111125000Y-47752000D03*
D19*
X111125000Y-50292000D03*
%TD*%
%TO.C,SW9*%
X125095000Y-23495000D03*
X125095000Y-20955000D03*
D18*
X125095000Y-18415000D03*
%TD*%
D19*
%TO.C,SW10*%
X116967000Y-50165000D03*
D18*
X116967000Y-47625000D03*
%TD*%
%TO.C,SW11*%
X131445000Y-18415000D03*
D19*
X131445000Y-20955000D03*
X131445000Y-23495000D03*
%TD*%
%TO.C,SW12*%
X122682000Y-50165000D03*
D18*
X122682000Y-47625000D03*
%TD*%
D19*
%TO.C,SW13*%
X128397000Y-50165000D03*
D18*
X128397000Y-47625000D03*
%TD*%
D20*
%TO.C,U1*%
X69475000Y-50410000D03*
D21*
X70875000Y-57410000D03*
X70875000Y-56610000D03*
X70875000Y-55810000D03*
X70875000Y-55010000D03*
X70875000Y-54210000D03*
X70875000Y-53410000D03*
X70875000Y-52610000D03*
X70875000Y-51810000D03*
D20*
X68675000Y-50410000D03*
X67875000Y-50410000D03*
X67075000Y-50410000D03*
X66275000Y-50410000D03*
X65475000Y-50410000D03*
X64675000Y-50410000D03*
X63875000Y-50410000D03*
D21*
X62475000Y-51810000D03*
X62475000Y-52610000D03*
X62475000Y-53410000D03*
X62475000Y-54210000D03*
X62475000Y-55010000D03*
X62475000Y-55810000D03*
X62475000Y-56610000D03*
X62475000Y-57410000D03*
D20*
X63875000Y-58810000D03*
X64675000Y-58810000D03*
X65475000Y-58810000D03*
X66275000Y-58810000D03*
X67075000Y-58810000D03*
X67875000Y-58810000D03*
X68675000Y-58810000D03*
X69475000Y-58810000D03*
%TD*%
D10*
%TO.C,U2*%
X70485000Y-72390000D03*
D11*
X62865000Y-64770000D03*
X70485000Y-69850000D03*
X62865000Y-67310000D03*
X70485000Y-67310000D03*
X62865000Y-69850000D03*
X70485000Y-64770000D03*
X62865000Y-72390000D03*
%TD*%
D10*
%TO.C,U3*%
X52578000Y-57404000D03*
D11*
X44958000Y-29464000D03*
X52578000Y-54864000D03*
X44958000Y-32004000D03*
X52578000Y-52324000D03*
X44958000Y-34544000D03*
X52578000Y-49784000D03*
X44958000Y-37084000D03*
X52578000Y-47244000D03*
X44958000Y-39624000D03*
X52578000Y-44704000D03*
X44958000Y-42164000D03*
X52578000Y-42164000D03*
X44958000Y-44704000D03*
X52578000Y-39624000D03*
X44958000Y-47244000D03*
X52578000Y-37084000D03*
X44958000Y-49784000D03*
X52578000Y-34544000D03*
X44958000Y-52324000D03*
X52578000Y-32004000D03*
X44958000Y-54864000D03*
X52578000Y-29464000D03*
X44958000Y-57404000D03*
%TD*%
D10*
%TO.C,U4*%
X132080000Y-90170000D03*
D11*
X124460000Y-57150000D03*
X132080000Y-87630000D03*
X124460000Y-59690000D03*
X132080000Y-85090000D03*
X124460000Y-62230000D03*
X132080000Y-82550000D03*
X124460000Y-64770000D03*
X132080000Y-80010000D03*
X124460000Y-67310000D03*
X132080000Y-77470000D03*
X124460000Y-69850000D03*
X132080000Y-74930000D03*
X124460000Y-72390000D03*
X132080000Y-72390000D03*
X124460000Y-74930000D03*
X132080000Y-69850000D03*
X124460000Y-77470000D03*
X132080000Y-67310000D03*
X124460000Y-80010000D03*
X132080000Y-64770000D03*
X124460000Y-82550000D03*
X132080000Y-62230000D03*
X124460000Y-85090000D03*
X132080000Y-59690000D03*
X124460000Y-87630000D03*
X132080000Y-57150000D03*
X124460000Y-90170000D03*
%TD*%
D22*
%TO.C,Y1*%
X76835000Y-52705000D03*
X76835000Y-57585000D03*
%TD*%
D12*
%TO.C,RN1*%
X120895000Y-31750000D03*
X120895000Y-33020000D03*
X120895000Y-34290000D03*
X120895000Y-40640000D03*
X120895000Y-39370000D03*
X120895000Y-38100000D03*
X120895000Y-35560000D03*
X120895000Y-36830000D03*
X111515000Y-31750000D03*
X111515000Y-33020000D03*
X111515000Y-34290000D03*
X111515000Y-35560000D03*
X111515000Y-40640000D03*
X111515000Y-39370000D03*
X111515000Y-38100000D03*
X111515000Y-36830000D03*
%TD*%
D19*
%TO.C,SW1*%
X73025000Y-30480000D03*
X75565000Y-30480000D03*
X73025000Y-27940000D03*
D18*
X75565000Y-27940000D03*
%TD*%
D19*
%TO.C,SW2*%
X83820000Y-30480000D03*
X86360000Y-30480000D03*
X83820000Y-27940000D03*
D18*
X86360000Y-27940000D03*
%TD*%
D19*
%TO.C,SW3*%
X94615000Y-30480000D03*
X97155000Y-30480000D03*
X94615000Y-27940000D03*
D18*
X97155000Y-27940000D03*
%TD*%
%TO.C,SW14*%
X88519000Y-18669000D03*
D19*
X85979000Y-18669000D03*
X88519000Y-21209000D03*
X85979000Y-21209000D03*
%TD*%
D18*
%TO.C,SW15*%
X97409000Y-18669000D03*
D19*
X94869000Y-18669000D03*
X97409000Y-21209000D03*
X94869000Y-21209000D03*
%TD*%
D18*
%TO.C,SW16*%
X106299000Y-18669000D03*
D19*
X103759000Y-18669000D03*
X106299000Y-21209000D03*
X103759000Y-21209000D03*
%TD*%
D10*
%TO.C,D1*%
X59055000Y-83820000D03*
D11*
X59055000Y-91440000D03*
%TD*%
D23*
%TO.C,D3*%
X94234000Y-45085000D03*
D24*
X91694000Y-45085000D03*
%TD*%
%TO.C,D4*%
X84709000Y-37465000D03*
D23*
X87249000Y-37465000D03*
%TD*%
D24*
%TO.C,D5*%
X84709000Y-45085000D03*
D23*
X87249000Y-45085000D03*
%TD*%
%TO.C,D6*%
X94234000Y-37465000D03*
D24*
X91694000Y-37465000D03*
%TD*%
D19*
%TO.C,J5*%
X66040000Y-17780000D03*
X66040000Y-20320000D03*
X68580000Y-17780000D03*
X68580000Y-20320000D03*
X71120000Y-17780000D03*
X71120000Y-20320000D03*
X73660000Y-17780000D03*
X73660000Y-20320000D03*
X76200000Y-17780000D03*
X76200000Y-20320000D03*
X78740000Y-17780000D03*
D18*
X78740000Y-20320000D03*
%TD*%
%TO.C,J6*%
X58420000Y-20320000D03*
D19*
X58420000Y-17780000D03*
X55880000Y-20320000D03*
X55880000Y-17780000D03*
X53340000Y-20320000D03*
X53340000Y-17780000D03*
X50800000Y-20320000D03*
X50800000Y-17780000D03*
X48260000Y-20320000D03*
X48260000Y-17780000D03*
X45720000Y-20320000D03*
X45720000Y-17780000D03*
%TD*%
%TO.C,J9*%
X144145000Y-31750000D03*
X144145000Y-34290000D03*
X144145000Y-36830000D03*
X144145000Y-39370000D03*
X144145000Y-41910000D03*
X144145000Y-44450000D03*
X144145000Y-46990000D03*
D18*
X144145000Y-49530000D03*
%TD*%
%TO.C,J10*%
X137795000Y-58420000D03*
D19*
X137795000Y-60960000D03*
X137795000Y-63500000D03*
X137795000Y-66040000D03*
X137795000Y-68580000D03*
X137795000Y-71120000D03*
X137795000Y-73660000D03*
X137795000Y-76200000D03*
%TD*%
D18*
%TO.C,J11*%
X58166000Y-29718000D03*
D19*
X60706000Y-29718000D03*
X63246000Y-29718000D03*
X65786000Y-29718000D03*
%TD*%
%TO.C,R2*%
G36*
G01*
X58080000Y-73219999D02*
X58080000Y-75370001D01*
G75*
G02*
X57830001Y-75620000I-249999J0D01*
G01*
X57029999Y-75620000D01*
G75*
G02*
X56780000Y-75370001I0J249999D01*
G01*
X56780000Y-73219999D01*
G75*
G02*
X57029999Y-72970000I249999J0D01*
G01*
X57830001Y-72970000D01*
G75*
G02*
X58080000Y-73219999I0J-249999D01*
G01*
G37*
G36*
G01*
X54980000Y-73219999D02*
X54980000Y-75370001D01*
G75*
G02*
X54730001Y-75620000I-249999J0D01*
G01*
X53929999Y-75620000D01*
G75*
G02*
X53680000Y-75370001I0J249999D01*
G01*
X53680000Y-73219999D01*
G75*
G02*
X53929999Y-72970000I249999J0D01*
G01*
X54730001Y-72970000D01*
G75*
G02*
X54980000Y-73219999I0J-249999D01*
G01*
G37*
%TD*%
M02*
