%TF.GenerationSoftware,KiCad,Pcbnew,(5.1.8)-1*%
%TF.CreationDate,2021-01-20T16:15:24-05:00*%
%TF.ProjectId,Switch_Panel,53776974-6368-45f5-9061-6e656c2e6b69,rev?*%
%TF.SameCoordinates,Original*%
%TF.FileFunction,Legend,Top*%
%TF.FilePolarity,Positive*%
%FSLAX46Y46*%
G04 Gerber Fmt 4.6, Leading zero omitted, Abs format (unit mm)*
G04 Created by KiCad (PCBNEW (5.1.8)-1) date 2021-01-20 16:15:24*
%MOMM*%
%LPD*%
G01*
G04 APERTURE LIST*
%ADD10C,0.150000*%
%ADD11C,0.100000*%
%ADD12C,0.120000*%
G04 APERTURE END LIST*
D10*
X35314095Y-55205380D02*
X35885523Y-55205380D01*
X35599809Y-56205380D02*
X35599809Y-55205380D01*
X36123619Y-55205380D02*
X36790285Y-56205380D01*
X36790285Y-55205380D02*
X36123619Y-56205380D01*
X37171238Y-56205380D02*
X37171238Y-55205380D01*
X37409333Y-55205380D01*
X37552190Y-55253000D01*
X37647428Y-55348238D01*
X37695047Y-55443476D01*
X37742666Y-55633952D01*
X37742666Y-55776809D01*
X37695047Y-55967285D01*
X37647428Y-56062523D01*
X37552190Y-56157761D01*
X37409333Y-56205380D01*
X37171238Y-56205380D01*
X35909333Y-57602380D02*
X35576000Y-57126190D01*
X35337904Y-57602380D02*
X35337904Y-56602380D01*
X35718857Y-56602380D01*
X35814095Y-56650000D01*
X35861714Y-56697619D01*
X35909333Y-56792857D01*
X35909333Y-56935714D01*
X35861714Y-57030952D01*
X35814095Y-57078571D01*
X35718857Y-57126190D01*
X35337904Y-57126190D01*
X36242666Y-56602380D02*
X36909333Y-57602380D01*
X36909333Y-56602380D02*
X36242666Y-57602380D01*
X37290285Y-57602380D02*
X37290285Y-56602380D01*
X37528380Y-56602380D01*
X37671238Y-56650000D01*
X37766476Y-56745238D01*
X37814095Y-56840476D01*
X37861714Y-57030952D01*
X37861714Y-57173809D01*
X37814095Y-57364285D01*
X37766476Y-57459523D01*
X37671238Y-57554761D01*
X37528380Y-57602380D01*
X37290285Y-57602380D01*
X31972571Y-40298666D02*
X32448761Y-40298666D01*
X31877333Y-40584380D02*
X32210666Y-39584380D01*
X32544000Y-40584380D01*
X32734476Y-39584380D02*
X33305904Y-39584380D01*
X33020190Y-40584380D02*
X33020190Y-39584380D01*
X33639238Y-40584380D02*
X33639238Y-39584380D01*
X33972571Y-40298666D01*
X34305904Y-39584380D01*
X34305904Y-40584380D01*
X34782095Y-40060571D02*
X35115428Y-40060571D01*
X35258285Y-40584380D02*
X34782095Y-40584380D01*
X34782095Y-39584380D01*
X35258285Y-39584380D01*
X36210666Y-39632000D02*
X36115428Y-39584380D01*
X35972571Y-39584380D01*
X35829714Y-39632000D01*
X35734476Y-39727238D01*
X35686857Y-39822476D01*
X35639238Y-40012952D01*
X35639238Y-40155809D01*
X35686857Y-40346285D01*
X35734476Y-40441523D01*
X35829714Y-40536761D01*
X35972571Y-40584380D01*
X36067809Y-40584380D01*
X36210666Y-40536761D01*
X36258285Y-40489142D01*
X36258285Y-40155809D01*
X36067809Y-40155809D01*
X36639238Y-40298666D02*
X37115428Y-40298666D01*
X36544000Y-40584380D02*
X36877333Y-39584380D01*
X37210666Y-40584380D01*
X30932952Y-39060380D02*
X30932952Y-38060380D01*
X31313904Y-38060380D01*
X31409142Y-38108000D01*
X31456761Y-38155619D01*
X31504380Y-38250857D01*
X31504380Y-38393714D01*
X31456761Y-38488952D01*
X31409142Y-38536571D01*
X31313904Y-38584190D01*
X30932952Y-38584190D01*
X32075809Y-39060380D02*
X31980571Y-39012761D01*
X31932952Y-38965142D01*
X31885333Y-38869904D01*
X31885333Y-38584190D01*
X31932952Y-38488952D01*
X31980571Y-38441333D01*
X32075809Y-38393714D01*
X32218666Y-38393714D01*
X32313904Y-38441333D01*
X32361523Y-38488952D01*
X32409142Y-38584190D01*
X32409142Y-38869904D01*
X32361523Y-38965142D01*
X32313904Y-39012761D01*
X32218666Y-39060380D01*
X32075809Y-39060380D01*
X32742476Y-38393714D02*
X32932952Y-39060380D01*
X33123428Y-38584190D01*
X33313904Y-39060380D01*
X33504380Y-38393714D01*
X34266285Y-39012761D02*
X34171047Y-39060380D01*
X33980571Y-39060380D01*
X33885333Y-39012761D01*
X33837714Y-38917523D01*
X33837714Y-38536571D01*
X33885333Y-38441333D01*
X33980571Y-38393714D01*
X34171047Y-38393714D01*
X34266285Y-38441333D01*
X34313904Y-38536571D01*
X34313904Y-38631809D01*
X33837714Y-38727047D01*
X34742476Y-39060380D02*
X34742476Y-38393714D01*
X34742476Y-38584190D02*
X34790095Y-38488952D01*
X34837714Y-38441333D01*
X34932952Y-38393714D01*
X35028190Y-38393714D01*
X35742476Y-39012761D02*
X35647238Y-39060380D01*
X35456761Y-39060380D01*
X35361523Y-39012761D01*
X35313904Y-38917523D01*
X35313904Y-38536571D01*
X35361523Y-38441333D01*
X35456761Y-38393714D01*
X35647238Y-38393714D01*
X35742476Y-38441333D01*
X35790095Y-38536571D01*
X35790095Y-38631809D01*
X35313904Y-38727047D01*
X36647238Y-39060380D02*
X36647238Y-38060380D01*
X36647238Y-39012761D02*
X36552000Y-39060380D01*
X36361523Y-39060380D01*
X36266285Y-39012761D01*
X36218666Y-38965142D01*
X36171047Y-38869904D01*
X36171047Y-38584190D01*
X36218666Y-38488952D01*
X36266285Y-38441333D01*
X36361523Y-38393714D01*
X36552000Y-38393714D01*
X36647238Y-38441333D01*
X38218666Y-38536571D02*
X38361523Y-38584190D01*
X38409142Y-38631809D01*
X38456761Y-38727047D01*
X38456761Y-38869904D01*
X38409142Y-38965142D01*
X38361523Y-39012761D01*
X38266285Y-39060380D01*
X37885333Y-39060380D01*
X37885333Y-38060380D01*
X38218666Y-38060380D01*
X38313904Y-38108000D01*
X38361523Y-38155619D01*
X38409142Y-38250857D01*
X38409142Y-38346095D01*
X38361523Y-38441333D01*
X38313904Y-38488952D01*
X38218666Y-38536571D01*
X37885333Y-38536571D01*
X38790095Y-38393714D02*
X39028190Y-39060380D01*
X39266285Y-38393714D02*
X39028190Y-39060380D01*
X38932952Y-39298476D01*
X38885333Y-39346095D01*
X38790095Y-39393714D01*
X30988000Y-32004000D02*
X31496000Y-32004000D01*
X30988000Y-33020000D02*
X31496000Y-33020000D01*
X30988000Y-34036000D02*
X31496000Y-34036000D01*
X30988000Y-35052000D02*
X31496000Y-35052000D01*
X33020000Y-37084000D02*
X33020000Y-36576000D01*
X34036000Y-37084000D02*
X34036000Y-36576000D01*
X35052000Y-37084000D02*
X35052000Y-36576000D01*
X36068000Y-37084000D02*
X36068000Y-36576000D01*
X37592000Y-35052000D02*
X38100000Y-35052000D01*
X38100000Y-34036000D02*
X37592000Y-34036000D01*
X37592000Y-33020000D02*
X38100000Y-33020000D01*
X37592000Y-32004000D02*
X38100000Y-32004000D01*
X36068000Y-30480000D02*
X36068000Y-29972000D01*
X35052000Y-30480000D02*
X35052000Y-29972000D01*
X34036000Y-30480000D02*
X34036000Y-29972000D01*
X33020000Y-30480000D02*
X33020000Y-29972000D01*
X31496000Y-31496000D02*
X30988000Y-31496000D01*
X30988000Y-32512000D02*
X31496000Y-32512000D01*
X31496000Y-33528000D02*
X30988000Y-33528000D01*
X30988000Y-34544000D02*
X31496000Y-34544000D01*
X31496000Y-35560000D02*
X30988000Y-35560000D01*
X36576000Y-36576000D02*
X36576000Y-37084000D01*
X35560000Y-36576000D02*
X35560000Y-37084000D01*
X34544000Y-36576000D02*
X34544000Y-37084000D01*
X33528000Y-36576000D02*
X33528000Y-37084000D01*
X32512000Y-36576000D02*
X32512000Y-37084000D01*
X37592000Y-35560000D02*
X38100000Y-35560000D01*
X37592000Y-34544000D02*
X38100000Y-34544000D01*
X37592000Y-33528000D02*
X38100000Y-33528000D01*
X37592000Y-32512000D02*
X38100000Y-32512000D01*
X37592000Y-31496000D02*
X38100000Y-31496000D01*
X36576000Y-30480000D02*
X36576000Y-29972000D01*
X35560000Y-30480000D02*
X35560000Y-29972000D01*
X34544000Y-30480000D02*
X34544000Y-29972000D01*
X33528000Y-30480000D02*
X33528000Y-29972000D01*
X32512000Y-30480000D02*
X32512000Y-29972000D01*
D11*
G36*
X37592000Y-36576000D02*
G01*
X31496000Y-36576000D01*
X31496000Y-30480000D01*
X37592000Y-30480000D01*
X37592000Y-36576000D01*
G37*
X37592000Y-36576000D02*
X31496000Y-36576000D01*
X31496000Y-30480000D01*
X37592000Y-30480000D01*
X37592000Y-36576000D01*
D10*
X77629142Y-84780380D02*
X77295809Y-84304190D01*
X77057714Y-84780380D02*
X77057714Y-83780380D01*
X77438666Y-83780380D01*
X77533904Y-83828000D01*
X77581523Y-83875619D01*
X77629142Y-83970857D01*
X77629142Y-84113714D01*
X77581523Y-84208952D01*
X77533904Y-84256571D01*
X77438666Y-84304190D01*
X77057714Y-84304190D01*
X78438666Y-84732761D02*
X78343428Y-84780380D01*
X78152952Y-84780380D01*
X78057714Y-84732761D01*
X78010095Y-84637523D01*
X78010095Y-84256571D01*
X78057714Y-84161333D01*
X78152952Y-84113714D01*
X78343428Y-84113714D01*
X78438666Y-84161333D01*
X78486285Y-84256571D01*
X78486285Y-84351809D01*
X78010095Y-84447047D01*
X78819619Y-84113714D02*
X79057714Y-84780380D01*
X79295809Y-84113714D01*
X79676761Y-84780380D02*
X79676761Y-84113714D01*
X79676761Y-83780380D02*
X79629142Y-83828000D01*
X79676761Y-83875619D01*
X79724380Y-83828000D01*
X79676761Y-83780380D01*
X79676761Y-83875619D01*
X80105333Y-84732761D02*
X80200571Y-84780380D01*
X80391047Y-84780380D01*
X80486285Y-84732761D01*
X80533904Y-84637523D01*
X80533904Y-84589904D01*
X80486285Y-84494666D01*
X80391047Y-84447047D01*
X80248190Y-84447047D01*
X80152952Y-84399428D01*
X80105333Y-84304190D01*
X80105333Y-84256571D01*
X80152952Y-84161333D01*
X80248190Y-84113714D01*
X80391047Y-84113714D01*
X80486285Y-84161333D01*
X80962476Y-84780380D02*
X80962476Y-84113714D01*
X80962476Y-83780380D02*
X80914857Y-83828000D01*
X80962476Y-83875619D01*
X81010095Y-83828000D01*
X80962476Y-83780380D01*
X80962476Y-83875619D01*
X81581523Y-84780380D02*
X81486285Y-84732761D01*
X81438666Y-84685142D01*
X81391047Y-84589904D01*
X81391047Y-84304190D01*
X81438666Y-84208952D01*
X81486285Y-84161333D01*
X81581523Y-84113714D01*
X81724380Y-84113714D01*
X81819619Y-84161333D01*
X81867238Y-84208952D01*
X81914857Y-84304190D01*
X81914857Y-84589904D01*
X81867238Y-84685142D01*
X81819619Y-84732761D01*
X81724380Y-84780380D01*
X81581523Y-84780380D01*
X82343428Y-84113714D02*
X82343428Y-84780380D01*
X82343428Y-84208952D02*
X82391047Y-84161333D01*
X82486285Y-84113714D01*
X82629142Y-84113714D01*
X82724380Y-84161333D01*
X82772000Y-84256571D01*
X82772000Y-84780380D01*
X84533904Y-84780380D02*
X83962476Y-84780380D01*
X84248190Y-84780380D02*
X84248190Y-83780380D01*
X84152952Y-83923238D01*
X84057714Y-84018476D01*
X83962476Y-84066095D01*
X75644952Y-81240380D02*
X75644952Y-81954666D01*
X75597333Y-82097523D01*
X75502095Y-82192761D01*
X75359238Y-82240380D01*
X75264000Y-82240380D01*
X76597333Y-82240380D02*
X76121142Y-82240380D01*
X76121142Y-81240380D01*
X77502095Y-82145142D02*
X77454476Y-82192761D01*
X77311619Y-82240380D01*
X77216380Y-82240380D01*
X77073523Y-82192761D01*
X76978285Y-82097523D01*
X76930666Y-82002285D01*
X76883047Y-81811809D01*
X76883047Y-81668952D01*
X76930666Y-81478476D01*
X76978285Y-81383238D01*
X77073523Y-81288000D01*
X77216380Y-81240380D01*
X77311619Y-81240380D01*
X77454476Y-81288000D01*
X77502095Y-81335619D01*
X78216380Y-81240380D02*
X78216380Y-81954666D01*
X78168761Y-82097523D01*
X78073523Y-82192761D01*
X77930666Y-82240380D01*
X77835428Y-82240380D01*
X79168761Y-82240380D02*
X78692571Y-82240380D01*
X78692571Y-81240380D01*
X80073523Y-82145142D02*
X80025904Y-82192761D01*
X79883047Y-82240380D01*
X79787809Y-82240380D01*
X79644952Y-82192761D01*
X79549714Y-82097523D01*
X79502095Y-82002285D01*
X79454476Y-81811809D01*
X79454476Y-81668952D01*
X79502095Y-81478476D01*
X79549714Y-81383238D01*
X79644952Y-81288000D01*
X79787809Y-81240380D01*
X79883047Y-81240380D01*
X80025904Y-81288000D01*
X80073523Y-81335619D01*
X80787809Y-81240380D02*
X80787809Y-81954666D01*
X80740190Y-82097523D01*
X80644952Y-82192761D01*
X80502095Y-82240380D01*
X80406857Y-82240380D01*
X81740190Y-82240380D02*
X81264000Y-82240380D01*
X81264000Y-81240380D01*
X82644952Y-82145142D02*
X82597333Y-82192761D01*
X82454476Y-82240380D01*
X82359238Y-82240380D01*
X82216380Y-82192761D01*
X82121142Y-82097523D01*
X82073523Y-82002285D01*
X82025904Y-81811809D01*
X82025904Y-81668952D01*
X82073523Y-81478476D01*
X82121142Y-81383238D01*
X82216380Y-81288000D01*
X82359238Y-81240380D01*
X82454476Y-81240380D01*
X82597333Y-81288000D01*
X82644952Y-81335619D01*
X83359238Y-81240380D02*
X83359238Y-81954666D01*
X83311619Y-82097523D01*
X83216380Y-82192761D01*
X83073523Y-82240380D01*
X82978285Y-82240380D01*
X84311619Y-82240380D02*
X83835428Y-82240380D01*
X83835428Y-81240380D01*
X85216380Y-82145142D02*
X85168761Y-82192761D01*
X85025904Y-82240380D01*
X84930666Y-82240380D01*
X84787809Y-82192761D01*
X84692571Y-82097523D01*
X84644952Y-82002285D01*
X84597333Y-81811809D01*
X84597333Y-81668952D01*
X84644952Y-81478476D01*
X84692571Y-81383238D01*
X84787809Y-81288000D01*
X84930666Y-81240380D01*
X85025904Y-81240380D01*
X85168761Y-81288000D01*
X85216380Y-81335619D01*
X74240190Y-80208380D02*
X74240190Y-79208380D01*
X74573523Y-79922666D01*
X74906857Y-79208380D01*
X74906857Y-80208380D01*
X75383047Y-80208380D02*
X75383047Y-79541714D01*
X75383047Y-79208380D02*
X75335428Y-79256000D01*
X75383047Y-79303619D01*
X75430666Y-79256000D01*
X75383047Y-79208380D01*
X75383047Y-79303619D01*
X76002095Y-80208380D02*
X75906857Y-80160761D01*
X75859238Y-80065523D01*
X75859238Y-79208380D01*
X76525904Y-80208380D02*
X76430666Y-80160761D01*
X76383047Y-80065523D01*
X76383047Y-79208380D01*
X76906857Y-80208380D02*
X76906857Y-79541714D01*
X76906857Y-79208380D02*
X76859238Y-79256000D01*
X76906857Y-79303619D01*
X76954476Y-79256000D01*
X76906857Y-79208380D01*
X76906857Y-79303619D01*
X77383047Y-80208380D02*
X77383047Y-79208380D01*
X77383047Y-79589333D02*
X77478285Y-79541714D01*
X77668761Y-79541714D01*
X77764000Y-79589333D01*
X77811619Y-79636952D01*
X77859238Y-79732190D01*
X77859238Y-80017904D01*
X77811619Y-80113142D01*
X77764000Y-80160761D01*
X77668761Y-80208380D01*
X77478285Y-80208380D01*
X77383047Y-80160761D01*
X78192571Y-79541714D02*
X78430666Y-80208380D01*
X78668761Y-79541714D02*
X78430666Y-80208380D01*
X78335428Y-80446476D01*
X78287809Y-80494095D01*
X78192571Y-80541714D01*
X78906857Y-79541714D02*
X79287809Y-79541714D01*
X79049714Y-79208380D02*
X79049714Y-80065523D01*
X79097333Y-80160761D01*
X79192571Y-80208380D01*
X79287809Y-80208380D01*
X80002095Y-80160761D02*
X79906857Y-80208380D01*
X79716380Y-80208380D01*
X79621142Y-80160761D01*
X79573523Y-80065523D01*
X79573523Y-79684571D01*
X79621142Y-79589333D01*
X79716380Y-79541714D01*
X79906857Y-79541714D01*
X80002095Y-79589333D01*
X80049714Y-79684571D01*
X80049714Y-79779809D01*
X79573523Y-79875047D01*
X81192571Y-80160761D02*
X81335428Y-80208380D01*
X81573523Y-80208380D01*
X81668761Y-80160761D01*
X81716380Y-80113142D01*
X81764000Y-80017904D01*
X81764000Y-79922666D01*
X81716380Y-79827428D01*
X81668761Y-79779809D01*
X81573523Y-79732190D01*
X81383047Y-79684571D01*
X81287809Y-79636952D01*
X81240190Y-79589333D01*
X81192571Y-79494095D01*
X81192571Y-79398857D01*
X81240190Y-79303619D01*
X81287809Y-79256000D01*
X81383047Y-79208380D01*
X81621142Y-79208380D01*
X81764000Y-79256000D01*
X82049714Y-79541714D02*
X82430666Y-79541714D01*
X82192571Y-79208380D02*
X82192571Y-80065523D01*
X82240190Y-80160761D01*
X82335428Y-80208380D01*
X82430666Y-80208380D01*
X83192571Y-79541714D02*
X83192571Y-80208380D01*
X82764000Y-79541714D02*
X82764000Y-80065523D01*
X82811619Y-80160761D01*
X82906857Y-80208380D01*
X83049714Y-80208380D01*
X83144952Y-80160761D01*
X83192571Y-80113142D01*
X84097333Y-80208380D02*
X84097333Y-79208380D01*
X84097333Y-80160761D02*
X84002095Y-80208380D01*
X83811619Y-80208380D01*
X83716380Y-80160761D01*
X83668761Y-80113142D01*
X83621142Y-80017904D01*
X83621142Y-79732190D01*
X83668761Y-79636952D01*
X83716380Y-79589333D01*
X83811619Y-79541714D01*
X84002095Y-79541714D01*
X84097333Y-79589333D01*
X84573523Y-80208380D02*
X84573523Y-79541714D01*
X84573523Y-79208380D02*
X84525904Y-79256000D01*
X84573523Y-79303619D01*
X84621142Y-79256000D01*
X84573523Y-79208380D01*
X84573523Y-79303619D01*
X85192571Y-80208380D02*
X85097333Y-80160761D01*
X85049714Y-80113142D01*
X85002095Y-80017904D01*
X85002095Y-79732190D01*
X85049714Y-79636952D01*
X85097333Y-79589333D01*
X85192571Y-79541714D01*
X85335428Y-79541714D01*
X85430666Y-79589333D01*
X85478285Y-79636952D01*
X85525904Y-79732190D01*
X85525904Y-80017904D01*
X85478285Y-80113142D01*
X85430666Y-80160761D01*
X85335428Y-80208380D01*
X85192571Y-80208380D01*
X85906857Y-80160761D02*
X86002095Y-80208380D01*
X86192571Y-80208380D01*
X86287809Y-80160761D01*
X86335428Y-80065523D01*
X86335428Y-80017904D01*
X86287809Y-79922666D01*
X86192571Y-79875047D01*
X86049714Y-79875047D01*
X85954476Y-79827428D01*
X85906857Y-79732190D01*
X85906857Y-79684571D01*
X85954476Y-79589333D01*
X86049714Y-79541714D01*
X86192571Y-79541714D01*
X86287809Y-79589333D01*
X70772000Y-78557333D02*
X70724380Y-78509714D01*
X70629142Y-78366857D01*
X70581523Y-78271619D01*
X70533904Y-78128761D01*
X70486285Y-77890666D01*
X70486285Y-77700190D01*
X70533904Y-77462095D01*
X70581523Y-77319238D01*
X70629142Y-77224000D01*
X70724380Y-77081142D01*
X70772000Y-77033523D01*
X71581523Y-78128761D02*
X71486285Y-78176380D01*
X71295809Y-78176380D01*
X71200571Y-78128761D01*
X71152952Y-78081142D01*
X71105333Y-77985904D01*
X71105333Y-77700190D01*
X71152952Y-77604952D01*
X71200571Y-77557333D01*
X71295809Y-77509714D01*
X71486285Y-77509714D01*
X71581523Y-77557333D01*
X71914857Y-78557333D02*
X71962476Y-78509714D01*
X72057714Y-78366857D01*
X72105333Y-78271619D01*
X72152952Y-78128761D01*
X72200571Y-77890666D01*
X72200571Y-77700190D01*
X72152952Y-77462095D01*
X72105333Y-77319238D01*
X72057714Y-77224000D01*
X71962476Y-77081142D01*
X71914857Y-77033523D01*
X73391047Y-77890666D02*
X73867238Y-77890666D01*
X73295809Y-78176380D02*
X73629142Y-77176380D01*
X73962476Y-78176380D01*
X74724380Y-77509714D02*
X74724380Y-78176380D01*
X74295809Y-77509714D02*
X74295809Y-78033523D01*
X74343428Y-78128761D01*
X74438666Y-78176380D01*
X74581523Y-78176380D01*
X74676761Y-78128761D01*
X74724380Y-78081142D01*
X75152952Y-78128761D02*
X75248190Y-78176380D01*
X75438666Y-78176380D01*
X75533904Y-78128761D01*
X75581523Y-78033523D01*
X75581523Y-77985904D01*
X75533904Y-77890666D01*
X75438666Y-77843047D01*
X75295809Y-77843047D01*
X75200571Y-77795428D01*
X75152952Y-77700190D01*
X75152952Y-77652571D01*
X75200571Y-77557333D01*
X75295809Y-77509714D01*
X75438666Y-77509714D01*
X75533904Y-77557333D01*
X75867238Y-77509714D02*
X76248190Y-77509714D01*
X76010095Y-77176380D02*
X76010095Y-78033523D01*
X76057714Y-78128761D01*
X76152952Y-78176380D01*
X76248190Y-78176380D01*
X76962476Y-78128761D02*
X76867238Y-78176380D01*
X76676761Y-78176380D01*
X76581523Y-78128761D01*
X76533904Y-78033523D01*
X76533904Y-77652571D01*
X76581523Y-77557333D01*
X76676761Y-77509714D01*
X76867238Y-77509714D01*
X76962476Y-77557333D01*
X77010095Y-77652571D01*
X77010095Y-77747809D01*
X76533904Y-77843047D01*
X77438666Y-77509714D02*
X77438666Y-78176380D01*
X77438666Y-77604952D02*
X77486285Y-77557333D01*
X77581523Y-77509714D01*
X77724380Y-77509714D01*
X77819619Y-77557333D01*
X77867238Y-77652571D01*
X77867238Y-78176380D01*
X79105333Y-78176380D02*
X79105333Y-77176380D01*
X79105333Y-77652571D02*
X79676761Y-77652571D01*
X79676761Y-78176380D02*
X79676761Y-77176380D01*
X80152952Y-78176380D02*
X80152952Y-77509714D01*
X80152952Y-77176380D02*
X80105333Y-77224000D01*
X80152952Y-77271619D01*
X80200571Y-77224000D01*
X80152952Y-77176380D01*
X80152952Y-77271619D01*
X81057714Y-77509714D02*
X81057714Y-78319238D01*
X81010095Y-78414476D01*
X80962476Y-78462095D01*
X80867238Y-78509714D01*
X80724380Y-78509714D01*
X80629142Y-78462095D01*
X81057714Y-78128761D02*
X80962476Y-78176380D01*
X80772000Y-78176380D01*
X80676761Y-78128761D01*
X80629142Y-78081142D01*
X80581523Y-77985904D01*
X80581523Y-77700190D01*
X80629142Y-77604952D01*
X80676761Y-77557333D01*
X80772000Y-77509714D01*
X80962476Y-77509714D01*
X81057714Y-77557333D01*
X81962476Y-77509714D02*
X81962476Y-78319238D01*
X81914857Y-78414476D01*
X81867238Y-78462095D01*
X81772000Y-78509714D01*
X81629142Y-78509714D01*
X81533904Y-78462095D01*
X81962476Y-78128761D02*
X81867238Y-78176380D01*
X81676761Y-78176380D01*
X81581523Y-78128761D01*
X81533904Y-78081142D01*
X81486285Y-77985904D01*
X81486285Y-77700190D01*
X81533904Y-77604952D01*
X81581523Y-77557333D01*
X81676761Y-77509714D01*
X81867238Y-77509714D01*
X81962476Y-77557333D01*
X82438666Y-78176380D02*
X82438666Y-77509714D01*
X82438666Y-77176380D02*
X82391047Y-77224000D01*
X82438666Y-77271619D01*
X82486285Y-77224000D01*
X82438666Y-77176380D01*
X82438666Y-77271619D01*
X82914857Y-77509714D02*
X82914857Y-78176380D01*
X82914857Y-77604952D02*
X82962476Y-77557333D01*
X83057714Y-77509714D01*
X83200571Y-77509714D01*
X83295809Y-77557333D01*
X83343428Y-77652571D01*
X83343428Y-78176380D01*
X83772000Y-78128761D02*
X83867238Y-78176380D01*
X84057714Y-78176380D01*
X84152952Y-78128761D01*
X84200571Y-78033523D01*
X84200571Y-77985904D01*
X84152952Y-77890666D01*
X84057714Y-77843047D01*
X83914857Y-77843047D01*
X83819619Y-77795428D01*
X83772000Y-77700190D01*
X83772000Y-77652571D01*
X83819619Y-77557333D01*
X83914857Y-77509714D01*
X84057714Y-77509714D01*
X84152952Y-77557333D01*
X84629142Y-77795428D02*
X85391047Y-77795428D01*
X86438666Y-78081142D02*
X86391047Y-78128761D01*
X86248190Y-78176380D01*
X86152952Y-78176380D01*
X86010095Y-78128761D01*
X85914857Y-78033523D01*
X85867238Y-77938285D01*
X85819619Y-77747809D01*
X85819619Y-77604952D01*
X85867238Y-77414476D01*
X85914857Y-77319238D01*
X86010095Y-77224000D01*
X86152952Y-77176380D01*
X86248190Y-77176380D01*
X86391047Y-77224000D01*
X86438666Y-77271619D01*
X87295809Y-78176380D02*
X87295809Y-77652571D01*
X87248190Y-77557333D01*
X87152952Y-77509714D01*
X86962476Y-77509714D01*
X86867238Y-77557333D01*
X87295809Y-78128761D02*
X87200571Y-78176380D01*
X86962476Y-78176380D01*
X86867238Y-78128761D01*
X86819619Y-78033523D01*
X86819619Y-77938285D01*
X86867238Y-77843047D01*
X86962476Y-77795428D01*
X87200571Y-77795428D01*
X87295809Y-77747809D01*
X87724380Y-78128761D02*
X87819619Y-78176380D01*
X88010095Y-78176380D01*
X88105333Y-78128761D01*
X88152952Y-78033523D01*
X88152952Y-77985904D01*
X88105333Y-77890666D01*
X88010095Y-77843047D01*
X87867238Y-77843047D01*
X87772000Y-77795428D01*
X87724380Y-77700190D01*
X87724380Y-77652571D01*
X87772000Y-77557333D01*
X87867238Y-77509714D01*
X88010095Y-77509714D01*
X88105333Y-77557333D01*
X88533904Y-78128761D02*
X88629142Y-78176380D01*
X88819619Y-78176380D01*
X88914857Y-78128761D01*
X88962476Y-78033523D01*
X88962476Y-77985904D01*
X88914857Y-77890666D01*
X88819619Y-77843047D01*
X88676761Y-77843047D01*
X88581523Y-77795428D01*
X88533904Y-77700190D01*
X88533904Y-77652571D01*
X88581523Y-77557333D01*
X88676761Y-77509714D01*
X88819619Y-77509714D01*
X88914857Y-77557333D01*
X89391047Y-78176380D02*
X89391047Y-77509714D01*
X89391047Y-77176380D02*
X89343428Y-77224000D01*
X89391047Y-77271619D01*
X89438666Y-77224000D01*
X89391047Y-77176380D01*
X89391047Y-77271619D01*
X90295809Y-78176380D02*
X90295809Y-77176380D01*
X90295809Y-78128761D02*
X90200571Y-78176380D01*
X90010095Y-78176380D01*
X89914857Y-78128761D01*
X89867238Y-78081142D01*
X89819619Y-77985904D01*
X89819619Y-77700190D01*
X89867238Y-77604952D01*
X89914857Y-77557333D01*
X90010095Y-77509714D01*
X90200571Y-77509714D01*
X90295809Y-77557333D01*
X90676761Y-77509714D02*
X90914857Y-78176380D01*
X91152952Y-77509714D02*
X90914857Y-78176380D01*
X90819619Y-78414476D01*
X90772000Y-78462095D01*
X90676761Y-78509714D01*
X73930857Y-76096761D02*
X74073714Y-76144380D01*
X74311809Y-76144380D01*
X74407047Y-76096761D01*
X74454666Y-76049142D01*
X74502285Y-75953904D01*
X74502285Y-75858666D01*
X74454666Y-75763428D01*
X74407047Y-75715809D01*
X74311809Y-75668190D01*
X74121333Y-75620571D01*
X74026095Y-75572952D01*
X73978476Y-75525333D01*
X73930857Y-75430095D01*
X73930857Y-75334857D01*
X73978476Y-75239619D01*
X74026095Y-75192000D01*
X74121333Y-75144380D01*
X74359428Y-75144380D01*
X74502285Y-75192000D01*
X74835619Y-75477714D02*
X75026095Y-76144380D01*
X75216571Y-75668190D01*
X75407047Y-76144380D01*
X75597523Y-75477714D01*
X75978476Y-76144380D02*
X75978476Y-75477714D01*
X75978476Y-75144380D02*
X75930857Y-75192000D01*
X75978476Y-75239619D01*
X76026095Y-75192000D01*
X75978476Y-75144380D01*
X75978476Y-75239619D01*
X76311809Y-75477714D02*
X76692761Y-75477714D01*
X76454666Y-75144380D02*
X76454666Y-76001523D01*
X76502285Y-76096761D01*
X76597523Y-76144380D01*
X76692761Y-76144380D01*
X77454666Y-76096761D02*
X77359428Y-76144380D01*
X77168952Y-76144380D01*
X77073714Y-76096761D01*
X77026095Y-76049142D01*
X76978476Y-75953904D01*
X76978476Y-75668190D01*
X77026095Y-75572952D01*
X77073714Y-75525333D01*
X77168952Y-75477714D01*
X77359428Y-75477714D01*
X77454666Y-75525333D01*
X77883238Y-76144380D02*
X77883238Y-75144380D01*
X78311809Y-76144380D02*
X78311809Y-75620571D01*
X78264190Y-75525333D01*
X78168952Y-75477714D01*
X78026095Y-75477714D01*
X77930857Y-75525333D01*
X77883238Y-75572952D01*
X80121333Y-76049142D02*
X80073714Y-76096761D01*
X79930857Y-76144380D01*
X79835619Y-76144380D01*
X79692761Y-76096761D01*
X79597523Y-76001523D01*
X79549904Y-75906285D01*
X79502285Y-75715809D01*
X79502285Y-75572952D01*
X79549904Y-75382476D01*
X79597523Y-75287238D01*
X79692761Y-75192000D01*
X79835619Y-75144380D01*
X79930857Y-75144380D01*
X80073714Y-75192000D01*
X80121333Y-75239619D01*
X80692761Y-76144380D02*
X80597523Y-76096761D01*
X80549904Y-76049142D01*
X80502285Y-75953904D01*
X80502285Y-75668190D01*
X80549904Y-75572952D01*
X80597523Y-75525333D01*
X80692761Y-75477714D01*
X80835619Y-75477714D01*
X80930857Y-75525333D01*
X80978476Y-75572952D01*
X81026095Y-75668190D01*
X81026095Y-75953904D01*
X80978476Y-76049142D01*
X80930857Y-76096761D01*
X80835619Y-76144380D01*
X80692761Y-76144380D01*
X81454666Y-75477714D02*
X81454666Y-76144380D01*
X81454666Y-75572952D02*
X81502285Y-75525333D01*
X81597523Y-75477714D01*
X81740380Y-75477714D01*
X81835619Y-75525333D01*
X81883238Y-75620571D01*
X81883238Y-76144380D01*
X82216571Y-75477714D02*
X82597523Y-75477714D01*
X82359428Y-75144380D02*
X82359428Y-76001523D01*
X82407047Y-76096761D01*
X82502285Y-76144380D01*
X82597523Y-76144380D01*
X82930857Y-76144380D02*
X82930857Y-75477714D01*
X82930857Y-75668190D02*
X82978476Y-75572952D01*
X83026095Y-75525333D01*
X83121333Y-75477714D01*
X83216571Y-75477714D01*
X83692761Y-76144380D02*
X83597523Y-76096761D01*
X83549904Y-76049142D01*
X83502285Y-75953904D01*
X83502285Y-75668190D01*
X83549904Y-75572952D01*
X83597523Y-75525333D01*
X83692761Y-75477714D01*
X83835619Y-75477714D01*
X83930857Y-75525333D01*
X83978476Y-75572952D01*
X84026095Y-75668190D01*
X84026095Y-75953904D01*
X83978476Y-76049142D01*
X83930857Y-76096761D01*
X83835619Y-76144380D01*
X83692761Y-76144380D01*
X84597523Y-76144380D02*
X84502285Y-76096761D01*
X84454666Y-76001523D01*
X84454666Y-75144380D01*
X86073714Y-75620571D02*
X86216571Y-75668190D01*
X86264190Y-75715809D01*
X86311809Y-75811047D01*
X86311809Y-75953904D01*
X86264190Y-76049142D01*
X86216571Y-76096761D01*
X86121333Y-76144380D01*
X85740380Y-76144380D01*
X85740380Y-75144380D01*
X86073714Y-75144380D01*
X86168952Y-75192000D01*
X86216571Y-75239619D01*
X86264190Y-75334857D01*
X86264190Y-75430095D01*
X86216571Y-75525333D01*
X86168952Y-75572952D01*
X86073714Y-75620571D01*
X85740380Y-75620571D01*
X86883238Y-76144380D02*
X86788000Y-76096761D01*
X86740380Y-76049142D01*
X86692761Y-75953904D01*
X86692761Y-75668190D01*
X86740380Y-75572952D01*
X86788000Y-75525333D01*
X86883238Y-75477714D01*
X87026095Y-75477714D01*
X87121333Y-75525333D01*
X87168952Y-75572952D01*
X87216571Y-75668190D01*
X87216571Y-75953904D01*
X87168952Y-76049142D01*
X87121333Y-76096761D01*
X87026095Y-76144380D01*
X86883238Y-76144380D01*
X88073714Y-76144380D02*
X88073714Y-75620571D01*
X88026095Y-75525333D01*
X87930857Y-75477714D01*
X87740380Y-75477714D01*
X87645142Y-75525333D01*
X88073714Y-76096761D02*
X87978476Y-76144380D01*
X87740380Y-76144380D01*
X87645142Y-76096761D01*
X87597523Y-76001523D01*
X87597523Y-75906285D01*
X87645142Y-75811047D01*
X87740380Y-75763428D01*
X87978476Y-75763428D01*
X88073714Y-75715809D01*
X88549904Y-76144380D02*
X88549904Y-75477714D01*
X88549904Y-75668190D02*
X88597523Y-75572952D01*
X88645142Y-75525333D01*
X88740380Y-75477714D01*
X88835619Y-75477714D01*
X89597523Y-76144380D02*
X89597523Y-75144380D01*
X89597523Y-76096761D02*
X89502285Y-76144380D01*
X89311809Y-76144380D01*
X89216571Y-76096761D01*
X89168952Y-76049142D01*
X89121333Y-75953904D01*
X89121333Y-75668190D01*
X89168952Y-75572952D01*
X89216571Y-75525333D01*
X89311809Y-75477714D01*
X89502285Y-75477714D01*
X89597523Y-75525333D01*
D12*
%TO.C,U6*%
X97520000Y-91500000D02*
X99170000Y-91500000D01*
X99170000Y-91500000D02*
X99170000Y-55820000D01*
X99170000Y-55820000D02*
X93870000Y-55820000D01*
X93870000Y-55820000D02*
X93870000Y-91500000D01*
X93870000Y-91500000D02*
X95520000Y-91500000D01*
X95520000Y-91500000D02*
G75*
G02*
X97520000Y-91500000I1000000J0D01*
G01*
%TO.C,U5*%
X111015000Y-91500000D02*
X112665000Y-91500000D01*
X111015000Y-55820000D02*
X111015000Y-91500000D01*
X116315000Y-55820000D02*
X111015000Y-55820000D01*
X116315000Y-91500000D02*
X116315000Y-55820000D01*
X114665000Y-91500000D02*
X116315000Y-91500000D01*
X112665000Y-91500000D02*
G75*
G02*
X114665000Y-91500000I1000000J0D01*
G01*
D11*
%TO.C,RN2*%
X62775000Y-46275000D02*
X62775000Y-46625000D01*
X62775000Y-46625000D02*
X63775000Y-46625000D01*
X70575000Y-46225000D02*
X70575000Y-46625000D01*
X70575000Y-46625000D02*
X69775000Y-46625000D01*
X70575000Y-36325000D02*
X70575000Y-35925000D01*
X70575000Y-35925000D02*
X69725000Y-35925000D01*
X63825000Y-35925000D02*
X63225000Y-35925000D01*
X63225000Y-35925000D02*
X62725000Y-36425000D01*
X62725000Y-36425000D02*
X62125000Y-36425000D01*
D12*
%TO.C,D2*%
X65890000Y-85510000D02*
X63650000Y-85510000D01*
X63650000Y-85510000D02*
X63650000Y-89750000D01*
X63650000Y-89750000D02*
X65890000Y-89750000D01*
X65890000Y-89750000D02*
X65890000Y-85510000D01*
X64770000Y-84860000D02*
X64770000Y-85510000D01*
X64770000Y-90400000D02*
X64770000Y-89750000D01*
X65890000Y-86230000D02*
X63650000Y-86230000D01*
X65890000Y-86350000D02*
X63650000Y-86350000D01*
X65890000Y-86110000D02*
X63650000Y-86110000D01*
%TO.C,R4*%
X44645000Y-79893748D02*
X44645000Y-82666252D01*
X48065000Y-79893748D02*
X48065000Y-82666252D01*
%TO.C,C1*%
X82023748Y-60130000D02*
X84346252Y-60130000D01*
X82023748Y-56710000D02*
X84346252Y-56710000D01*
%TO.C,C2*%
X82023748Y-50360000D02*
X84346252Y-50360000D01*
X82023748Y-53780000D02*
X84346252Y-53780000D01*
%TO.C,C3*%
X48328000Y-68180748D02*
X48328000Y-70503252D01*
X51748000Y-68180748D02*
X51748000Y-70503252D01*
%TO.C,C4*%
X41510748Y-72585000D02*
X43833252Y-72585000D01*
X41510748Y-76005000D02*
X43833252Y-76005000D01*
D11*
%TO.C,J1*%
X45176000Y-94816000D02*
X45176000Y-95366000D01*
X45176000Y-95366000D02*
X45826000Y-95366000D01*
X53376000Y-94766000D02*
X53376000Y-95366000D01*
X53376000Y-95366000D02*
X52976000Y-95366000D01*
X52876000Y-89666000D02*
X53376000Y-89666000D01*
X53376000Y-89666000D02*
X53376000Y-90366000D01*
X45926000Y-89666000D02*
X45476000Y-89666000D01*
X45476000Y-89666000D02*
X45176000Y-90016000D01*
X45176000Y-90016000D02*
X45176000Y-90316000D01*
X45176000Y-90316000D02*
X45026000Y-90316000D01*
D12*
%TO.C,J2*%
X74990000Y-92262000D02*
X74990000Y-89602000D01*
X72390000Y-92262000D02*
X74990000Y-92262000D01*
X72390000Y-89602000D02*
X74990000Y-89602000D01*
X72390000Y-92262000D02*
X72390000Y-89602000D01*
X71120000Y-92262000D02*
X69790000Y-92262000D01*
X69790000Y-92262000D02*
X69790000Y-90932000D01*
%TO.C,J3*%
X36890000Y-70298000D02*
X31690000Y-70298000D01*
X36890000Y-75438000D02*
X36890000Y-70298000D01*
X31690000Y-78038000D02*
X31690000Y-70298000D01*
X36890000Y-75438000D02*
X34290000Y-75438000D01*
X34290000Y-75438000D02*
X34290000Y-78038000D01*
X34290000Y-78038000D02*
X31690000Y-78038000D01*
X36890000Y-76708000D02*
X36890000Y-78038000D01*
X36890000Y-78038000D02*
X35560000Y-78038000D01*
%TO.C,J4*%
X34350000Y-63500000D02*
X31690000Y-63500000D01*
X34350000Y-63500000D02*
X34350000Y-50740000D01*
X34350000Y-50740000D02*
X31690000Y-50740000D01*
X31690000Y-63500000D02*
X31690000Y-50740000D01*
X31690000Y-66100000D02*
X31690000Y-64770000D01*
X33020000Y-66100000D02*
X31690000Y-66100000D01*
%TO.C,J7*%
X139125000Y-48260000D02*
X136465000Y-48260000D01*
X139125000Y-48260000D02*
X139125000Y-30420000D01*
X139125000Y-30420000D02*
X136465000Y-30420000D01*
X136465000Y-48260000D02*
X136465000Y-30420000D01*
X136465000Y-50860000D02*
X136465000Y-49530000D01*
X137795000Y-50860000D02*
X136465000Y-50860000D01*
%TO.C,J8*%
X144145000Y-57090000D02*
X145475000Y-57090000D01*
X145475000Y-57090000D02*
X145475000Y-58420000D01*
X145475000Y-59690000D02*
X145475000Y-77530000D01*
X142815000Y-77530000D02*
X145475000Y-77530000D01*
X142815000Y-59690000D02*
X142815000Y-77530000D01*
X142815000Y-59690000D02*
X145475000Y-59690000D01*
%TO.C,R1*%
X38823737Y-51985000D02*
X37376263Y-51985000D01*
X38823737Y-54695000D02*
X37376263Y-54695000D01*
%TO.C,R3*%
X55050000Y-79893748D02*
X55050000Y-82666252D01*
X51630000Y-79893748D02*
X51630000Y-82666252D01*
%TO.C,R5*%
X37376263Y-63161000D02*
X38823737Y-63161000D01*
X37376263Y-65871000D02*
X38823737Y-65871000D01*
%TO.C,R6*%
X37376263Y-60791000D02*
X38823737Y-60791000D01*
X37376263Y-58081000D02*
X38823737Y-58081000D01*
%TO.C,R7*%
X83270000Y-68033737D02*
X83270000Y-66586263D01*
X80560000Y-68033737D02*
X80560000Y-66586263D01*
%TO.C,R8*%
X73575000Y-68033737D02*
X73575000Y-66586263D01*
X76285000Y-68033737D02*
X76285000Y-66586263D01*
%TO.C,R9*%
X41995000Y-43091263D02*
X41995000Y-44538737D01*
X39285000Y-43091263D02*
X39285000Y-44538737D01*
%TO.C,SW4*%
X111065000Y-19685000D02*
X113725000Y-19685000D01*
X111065000Y-19685000D02*
X111065000Y-24825000D01*
X111065000Y-24825000D02*
X113725000Y-24825000D01*
X113725000Y-19685000D02*
X113725000Y-24825000D01*
X113725000Y-17085000D02*
X113725000Y-18415000D01*
X112395000Y-17085000D02*
X113725000Y-17085000D01*
%TO.C,SW5*%
X117415000Y-19685000D02*
X120075000Y-19685000D01*
X117415000Y-19685000D02*
X117415000Y-24825000D01*
X117415000Y-24825000D02*
X120075000Y-24825000D01*
X120075000Y-19685000D02*
X120075000Y-24825000D01*
X120075000Y-17085000D02*
X120075000Y-18415000D01*
X118745000Y-17085000D02*
X120075000Y-17085000D01*
%TO.C,SW6*%
X98365000Y-49022000D02*
X101025000Y-49022000D01*
X98365000Y-49022000D02*
X98365000Y-51622000D01*
X98365000Y-51622000D02*
X101025000Y-51622000D01*
X101025000Y-49022000D02*
X101025000Y-51622000D01*
X101025000Y-46422000D02*
X101025000Y-47752000D01*
X99695000Y-46422000D02*
X101025000Y-46422000D01*
%TO.C,SW7*%
X104080000Y-49022000D02*
X106740000Y-49022000D01*
X104080000Y-49022000D02*
X104080000Y-51622000D01*
X104080000Y-51622000D02*
X106740000Y-51622000D01*
X106740000Y-49022000D02*
X106740000Y-51622000D01*
X106740000Y-46422000D02*
X106740000Y-47752000D01*
X105410000Y-46422000D02*
X106740000Y-46422000D01*
%TO.C,SW8*%
X109795000Y-49022000D02*
X112455000Y-49022000D01*
X109795000Y-49022000D02*
X109795000Y-51622000D01*
X109795000Y-51622000D02*
X112455000Y-51622000D01*
X112455000Y-49022000D02*
X112455000Y-51622000D01*
X112455000Y-46422000D02*
X112455000Y-47752000D01*
X111125000Y-46422000D02*
X112455000Y-46422000D01*
%TO.C,SW9*%
X125095000Y-17085000D02*
X126425000Y-17085000D01*
X126425000Y-17085000D02*
X126425000Y-18415000D01*
X126425000Y-19685000D02*
X126425000Y-24825000D01*
X123765000Y-24825000D02*
X126425000Y-24825000D01*
X123765000Y-19685000D02*
X123765000Y-24825000D01*
X123765000Y-19685000D02*
X126425000Y-19685000D01*
%TO.C,SW10*%
X116967000Y-46295000D02*
X118297000Y-46295000D01*
X118297000Y-46295000D02*
X118297000Y-47625000D01*
X118297000Y-48895000D02*
X118297000Y-51495000D01*
X115637000Y-51495000D02*
X118297000Y-51495000D01*
X115637000Y-48895000D02*
X115637000Y-51495000D01*
X115637000Y-48895000D02*
X118297000Y-48895000D01*
%TO.C,SW11*%
X130115000Y-19685000D02*
X132775000Y-19685000D01*
X130115000Y-19685000D02*
X130115000Y-24825000D01*
X130115000Y-24825000D02*
X132775000Y-24825000D01*
X132775000Y-19685000D02*
X132775000Y-24825000D01*
X132775000Y-17085000D02*
X132775000Y-18415000D01*
X131445000Y-17085000D02*
X132775000Y-17085000D01*
%TO.C,SW12*%
X122682000Y-46295000D02*
X124012000Y-46295000D01*
X124012000Y-46295000D02*
X124012000Y-47625000D01*
X124012000Y-48895000D02*
X124012000Y-51495000D01*
X121352000Y-51495000D02*
X124012000Y-51495000D01*
X121352000Y-48895000D02*
X121352000Y-51495000D01*
X121352000Y-48895000D02*
X124012000Y-48895000D01*
%TO.C,SW13*%
X128397000Y-46295000D02*
X129727000Y-46295000D01*
X129727000Y-46295000D02*
X129727000Y-47625000D01*
X129727000Y-48895000D02*
X129727000Y-51495000D01*
X127067000Y-51495000D02*
X129727000Y-51495000D01*
X127067000Y-48895000D02*
X127067000Y-51495000D01*
X127067000Y-48895000D02*
X129727000Y-48895000D01*
D11*
%TO.C,U1*%
X69825000Y-58210000D02*
X69925000Y-58210000D01*
X69925000Y-58210000D02*
X70275000Y-57860000D01*
X70275000Y-57860000D02*
X70275000Y-57760000D01*
X70275000Y-57760000D02*
X71575000Y-57760000D01*
X63075000Y-58210000D02*
X63525000Y-58210000D01*
X63075000Y-58210000D02*
X63075000Y-57760000D01*
X63075000Y-51010000D02*
X63075000Y-51460000D01*
X63075000Y-51010000D02*
X63525000Y-51010000D01*
X70275000Y-51010000D02*
X69825000Y-51010000D01*
X70275000Y-51010000D02*
X70275000Y-51460000D01*
D12*
%TO.C,U2*%
X67675000Y-73720000D02*
X69325000Y-73720000D01*
X69325000Y-73720000D02*
X69325000Y-63440000D01*
X69325000Y-63440000D02*
X64025000Y-63440000D01*
X64025000Y-63440000D02*
X64025000Y-73720000D01*
X64025000Y-73720000D02*
X65675000Y-73720000D01*
X65675000Y-73720000D02*
G75*
G02*
X67675000Y-73720000I1000000J0D01*
G01*
%TO.C,U3*%
X49768000Y-58734000D02*
X51418000Y-58734000D01*
X51418000Y-58734000D02*
X51418000Y-28134000D01*
X51418000Y-28134000D02*
X46118000Y-28134000D01*
X46118000Y-28134000D02*
X46118000Y-58734000D01*
X46118000Y-58734000D02*
X47768000Y-58734000D01*
X47768000Y-58734000D02*
G75*
G02*
X49768000Y-58734000I1000000J0D01*
G01*
%TO.C,U4*%
X129270000Y-91500000D02*
X130920000Y-91500000D01*
X130920000Y-91500000D02*
X130920000Y-55820000D01*
X130920000Y-55820000D02*
X125620000Y-55820000D01*
X125620000Y-55820000D02*
X125620000Y-91500000D01*
X125620000Y-91500000D02*
X127270000Y-91500000D01*
X127270000Y-91500000D02*
G75*
G02*
X129270000Y-91500000I1000000J0D01*
G01*
%TO.C,Y1*%
X79360000Y-52020000D02*
X79360000Y-58270000D01*
X74310000Y-52020000D02*
X74310000Y-58270000D01*
X74310000Y-52020000D02*
G75*
G02*
X79360000Y-52020000I2525000J0D01*
G01*
X74310000Y-58270000D02*
G75*
G03*
X79360000Y-58270000I2525000J0D01*
G01*
D11*
%TO.C,RN1*%
X120155000Y-41045000D02*
X120755000Y-41045000D01*
X119655000Y-41545000D02*
X120155000Y-41045000D01*
X119055000Y-41545000D02*
X119655000Y-41545000D01*
X112305000Y-41545000D02*
X113155000Y-41545000D01*
X112305000Y-41145000D02*
X112305000Y-41545000D01*
X112305000Y-30845000D02*
X113105000Y-30845000D01*
X112305000Y-31245000D02*
X112305000Y-30845000D01*
X120105000Y-30845000D02*
X119105000Y-30845000D01*
X120105000Y-31195000D02*
X120105000Y-30845000D01*
D12*
%TO.C,SW1*%
X75565000Y-26610000D02*
X76895000Y-26610000D01*
X76895000Y-26610000D02*
X76895000Y-27940000D01*
X74295000Y-26610000D02*
X74295000Y-29210000D01*
X74295000Y-29210000D02*
X76895000Y-29210000D01*
X76895000Y-29210000D02*
X76895000Y-31810000D01*
X71695000Y-31810000D02*
X76895000Y-31810000D01*
X71695000Y-26610000D02*
X71695000Y-31810000D01*
X71695000Y-26610000D02*
X74295000Y-26610000D01*
%TO.C,SW2*%
X86360000Y-26610000D02*
X87690000Y-26610000D01*
X87690000Y-26610000D02*
X87690000Y-27940000D01*
X85090000Y-26610000D02*
X85090000Y-29210000D01*
X85090000Y-29210000D02*
X87690000Y-29210000D01*
X87690000Y-29210000D02*
X87690000Y-31810000D01*
X82490000Y-31810000D02*
X87690000Y-31810000D01*
X82490000Y-26610000D02*
X82490000Y-31810000D01*
X82490000Y-26610000D02*
X85090000Y-26610000D01*
%TO.C,SW3*%
X97155000Y-26610000D02*
X98485000Y-26610000D01*
X98485000Y-26610000D02*
X98485000Y-27940000D01*
X95885000Y-26610000D02*
X95885000Y-29210000D01*
X95885000Y-29210000D02*
X98485000Y-29210000D01*
X98485000Y-29210000D02*
X98485000Y-31810000D01*
X93285000Y-31810000D02*
X98485000Y-31810000D01*
X93285000Y-26610000D02*
X93285000Y-31810000D01*
X93285000Y-26610000D02*
X95885000Y-26610000D01*
%TO.C,SW14*%
X84649000Y-17339000D02*
X87249000Y-17339000D01*
X84649000Y-17339000D02*
X84649000Y-22539000D01*
X84649000Y-22539000D02*
X89849000Y-22539000D01*
X89849000Y-19939000D02*
X89849000Y-22539000D01*
X87249000Y-19939000D02*
X89849000Y-19939000D01*
X87249000Y-17339000D02*
X87249000Y-19939000D01*
X89849000Y-17339000D02*
X89849000Y-18669000D01*
X88519000Y-17339000D02*
X89849000Y-17339000D01*
%TO.C,SW15*%
X93539000Y-17339000D02*
X96139000Y-17339000D01*
X93539000Y-17339000D02*
X93539000Y-22539000D01*
X93539000Y-22539000D02*
X98739000Y-22539000D01*
X98739000Y-19939000D02*
X98739000Y-22539000D01*
X96139000Y-19939000D02*
X98739000Y-19939000D01*
X96139000Y-17339000D02*
X96139000Y-19939000D01*
X98739000Y-17339000D02*
X98739000Y-18669000D01*
X97409000Y-17339000D02*
X98739000Y-17339000D01*
%TO.C,SW16*%
X102429000Y-17339000D02*
X105029000Y-17339000D01*
X102429000Y-17339000D02*
X102429000Y-22539000D01*
X102429000Y-22539000D02*
X107629000Y-22539000D01*
X107629000Y-19939000D02*
X107629000Y-22539000D01*
X105029000Y-19939000D02*
X107629000Y-19939000D01*
X105029000Y-17339000D02*
X105029000Y-19939000D01*
X107629000Y-17339000D02*
X107629000Y-18669000D01*
X106299000Y-17339000D02*
X107629000Y-17339000D01*
%TO.C,D1*%
X60175000Y-86110000D02*
X57935000Y-86110000D01*
X60175000Y-86350000D02*
X57935000Y-86350000D01*
X60175000Y-86230000D02*
X57935000Y-86230000D01*
X59055000Y-90400000D02*
X59055000Y-89750000D01*
X59055000Y-84860000D02*
X59055000Y-85510000D01*
X60175000Y-89750000D02*
X60175000Y-85510000D01*
X57935000Y-89750000D02*
X60175000Y-89750000D01*
X57935000Y-85510000D02*
X57935000Y-89750000D01*
X60175000Y-85510000D02*
X57935000Y-85510000D01*
%TO.C,D3*%
X91404000Y-43849000D02*
X91404000Y-44005000D01*
X91404000Y-46165000D02*
X91404000Y-46321000D01*
X94005130Y-46164837D02*
G75*
G02*
X91923039Y-46165000I-1041130J1079837D01*
G01*
X94005130Y-44005163D02*
G75*
G03*
X91923039Y-44005000I-1041130J-1079837D01*
G01*
X94636335Y-46163608D02*
G75*
G02*
X91404000Y-46320516I-1672335J1078608D01*
G01*
X94636335Y-44006392D02*
G75*
G03*
X91404000Y-43849484I-1672335J-1078608D01*
G01*
%TO.C,D4*%
X84419000Y-38545000D02*
X84419000Y-38701000D01*
X84419000Y-36229000D02*
X84419000Y-36385000D01*
X87651335Y-36386392D02*
G75*
G03*
X84419000Y-36229484I-1672335J-1078608D01*
G01*
X87651335Y-38543608D02*
G75*
G02*
X84419000Y-38700516I-1672335J1078608D01*
G01*
X87020130Y-36385163D02*
G75*
G03*
X84938039Y-36385000I-1041130J-1079837D01*
G01*
X87020130Y-38544837D02*
G75*
G02*
X84938039Y-38545000I-1041130J1079837D01*
G01*
%TO.C,D5*%
X84419000Y-46165000D02*
X84419000Y-46321000D01*
X84419000Y-43849000D02*
X84419000Y-44005000D01*
X87651335Y-44006392D02*
G75*
G03*
X84419000Y-43849484I-1672335J-1078608D01*
G01*
X87651335Y-46163608D02*
G75*
G02*
X84419000Y-46320516I-1672335J1078608D01*
G01*
X87020130Y-44005163D02*
G75*
G03*
X84938039Y-44005000I-1041130J-1079837D01*
G01*
X87020130Y-46164837D02*
G75*
G02*
X84938039Y-46165000I-1041130J1079837D01*
G01*
%TO.C,D6*%
X91404000Y-36229000D02*
X91404000Y-36385000D01*
X91404000Y-38545000D02*
X91404000Y-38701000D01*
X94005130Y-38544837D02*
G75*
G02*
X91923039Y-38545000I-1041130J1079837D01*
G01*
X94005130Y-36385163D02*
G75*
G03*
X91923039Y-36385000I-1041130J-1079837D01*
G01*
X94636335Y-38543608D02*
G75*
G02*
X91404000Y-38700516I-1672335J1078608D01*
G01*
X94636335Y-36386392D02*
G75*
G03*
X91404000Y-36229484I-1672335J-1078608D01*
G01*
%TO.C,J5*%
X80070000Y-16450000D02*
X80070000Y-19050000D01*
X80070000Y-16450000D02*
X64710000Y-16450000D01*
X64710000Y-16450000D02*
X64710000Y-21650000D01*
X77470000Y-21650000D02*
X64710000Y-21650000D01*
X77470000Y-19050000D02*
X77470000Y-21650000D01*
X80070000Y-19050000D02*
X77470000Y-19050000D01*
X80070000Y-21650000D02*
X78740000Y-21650000D01*
X80070000Y-20320000D02*
X80070000Y-21650000D01*
%TO.C,J6*%
X59750000Y-20320000D02*
X59750000Y-21650000D01*
X59750000Y-21650000D02*
X58420000Y-21650000D01*
X59750000Y-19050000D02*
X57150000Y-19050000D01*
X57150000Y-19050000D02*
X57150000Y-21650000D01*
X57150000Y-21650000D02*
X44390000Y-21650000D01*
X44390000Y-16450000D02*
X44390000Y-21650000D01*
X59750000Y-16450000D02*
X44390000Y-16450000D01*
X59750000Y-16450000D02*
X59750000Y-19050000D01*
%TO.C,J9*%
X145475000Y-48260000D02*
X142815000Y-48260000D01*
X145475000Y-48260000D02*
X145475000Y-30420000D01*
X145475000Y-30420000D02*
X142815000Y-30420000D01*
X142815000Y-48260000D02*
X142815000Y-30420000D01*
X142815000Y-50860000D02*
X142815000Y-49530000D01*
X144145000Y-50860000D02*
X142815000Y-50860000D01*
%TO.C,J10*%
X137795000Y-57090000D02*
X139125000Y-57090000D01*
X139125000Y-57090000D02*
X139125000Y-58420000D01*
X139125000Y-59690000D02*
X139125000Y-77530000D01*
X136465000Y-77530000D02*
X139125000Y-77530000D01*
X136465000Y-59690000D02*
X136465000Y-77530000D01*
X136465000Y-59690000D02*
X139125000Y-59690000D01*
%TO.C,J11*%
X56836000Y-29718000D02*
X56836000Y-28388000D01*
X56836000Y-28388000D02*
X58166000Y-28388000D01*
X59436000Y-28388000D02*
X67116000Y-28388000D01*
X67116000Y-31048000D02*
X67116000Y-28388000D01*
X59436000Y-31048000D02*
X67116000Y-31048000D01*
X59436000Y-31048000D02*
X59436000Y-28388000D01*
%TO.C,R2*%
X56603737Y-72940000D02*
X55156263Y-72940000D01*
X56603737Y-75650000D02*
X55156263Y-75650000D01*
%TO.C,U6*%
D10*
X95758095Y-91952380D02*
X95758095Y-92761904D01*
X95805714Y-92857142D01*
X95853333Y-92904761D01*
X95948571Y-92952380D01*
X96139047Y-92952380D01*
X96234285Y-92904761D01*
X96281904Y-92857142D01*
X96329523Y-92761904D01*
X96329523Y-91952380D01*
X97234285Y-91952380D02*
X97043809Y-91952380D01*
X96948571Y-92000000D01*
X96900952Y-92047619D01*
X96805714Y-92190476D01*
X96758095Y-92380952D01*
X96758095Y-92761904D01*
X96805714Y-92857142D01*
X96853333Y-92904761D01*
X96948571Y-92952380D01*
X97139047Y-92952380D01*
X97234285Y-92904761D01*
X97281904Y-92857142D01*
X97329523Y-92761904D01*
X97329523Y-92523809D01*
X97281904Y-92428571D01*
X97234285Y-92380952D01*
X97139047Y-92333333D01*
X96948571Y-92333333D01*
X96853333Y-92380952D01*
X96805714Y-92428571D01*
X96758095Y-92523809D01*
%TO.C,U5*%
X112903095Y-91952380D02*
X112903095Y-92761904D01*
X112950714Y-92857142D01*
X112998333Y-92904761D01*
X113093571Y-92952380D01*
X113284047Y-92952380D01*
X113379285Y-92904761D01*
X113426904Y-92857142D01*
X113474523Y-92761904D01*
X113474523Y-91952380D01*
X114426904Y-91952380D02*
X113950714Y-91952380D01*
X113903095Y-92428571D01*
X113950714Y-92380952D01*
X114045952Y-92333333D01*
X114284047Y-92333333D01*
X114379285Y-92380952D01*
X114426904Y-92428571D01*
X114474523Y-92523809D01*
X114474523Y-92761904D01*
X114426904Y-92857142D01*
X114379285Y-92904761D01*
X114284047Y-92952380D01*
X114045952Y-92952380D01*
X113950714Y-92904761D01*
X113903095Y-92857142D01*
%TO.C,RN2*%
X74127380Y-41965476D02*
X73651190Y-42298809D01*
X74127380Y-42536904D02*
X73127380Y-42536904D01*
X73127380Y-42155952D01*
X73175000Y-42060714D01*
X73222619Y-42013095D01*
X73317857Y-41965476D01*
X73460714Y-41965476D01*
X73555952Y-42013095D01*
X73603571Y-42060714D01*
X73651190Y-42155952D01*
X73651190Y-42536904D01*
X74127380Y-41536904D02*
X73127380Y-41536904D01*
X74127380Y-40965476D01*
X73127380Y-40965476D01*
X73222619Y-40536904D02*
X73175000Y-40489285D01*
X73127380Y-40394047D01*
X73127380Y-40155952D01*
X73175000Y-40060714D01*
X73222619Y-40013095D01*
X73317857Y-39965476D01*
X73413095Y-39965476D01*
X73555952Y-40013095D01*
X74127380Y-40584523D01*
X74127380Y-39965476D01*
%TO.C,D2*%
X67342380Y-88368095D02*
X66342380Y-88368095D01*
X66342380Y-88130000D01*
X66390000Y-87987142D01*
X66485238Y-87891904D01*
X66580476Y-87844285D01*
X66770952Y-87796666D01*
X66913809Y-87796666D01*
X67104285Y-87844285D01*
X67199523Y-87891904D01*
X67294761Y-87987142D01*
X67342380Y-88130000D01*
X67342380Y-88368095D01*
X66437619Y-87415714D02*
X66390000Y-87368095D01*
X66342380Y-87272857D01*
X66342380Y-87034761D01*
X66390000Y-86939523D01*
X66437619Y-86891904D01*
X66532857Y-86844285D01*
X66628095Y-86844285D01*
X66770952Y-86891904D01*
X67342380Y-87463333D01*
X67342380Y-86844285D01*
X67022380Y-84081904D02*
X66022380Y-84081904D01*
X67022380Y-83510476D02*
X66450952Y-83939047D01*
X66022380Y-83510476D02*
X66593809Y-84081904D01*
%TO.C,R4*%
X49457380Y-81446666D02*
X48981190Y-81780000D01*
X49457380Y-82018095D02*
X48457380Y-82018095D01*
X48457380Y-81637142D01*
X48505000Y-81541904D01*
X48552619Y-81494285D01*
X48647857Y-81446666D01*
X48790714Y-81446666D01*
X48885952Y-81494285D01*
X48933571Y-81541904D01*
X48981190Y-81637142D01*
X48981190Y-82018095D01*
X48790714Y-80589523D02*
X49457380Y-80589523D01*
X48409761Y-80827619D02*
X49124047Y-81065714D01*
X49124047Y-80446666D01*
%TO.C,C1*%
X83018333Y-56127142D02*
X82970714Y-56174761D01*
X82827857Y-56222380D01*
X82732619Y-56222380D01*
X82589761Y-56174761D01*
X82494523Y-56079523D01*
X82446904Y-55984285D01*
X82399285Y-55793809D01*
X82399285Y-55650952D01*
X82446904Y-55460476D01*
X82494523Y-55365238D01*
X82589761Y-55270000D01*
X82732619Y-55222380D01*
X82827857Y-55222380D01*
X82970714Y-55270000D01*
X83018333Y-55317619D01*
X83970714Y-56222380D02*
X83399285Y-56222380D01*
X83685000Y-56222380D02*
X83685000Y-55222380D01*
X83589761Y-55365238D01*
X83494523Y-55460476D01*
X83399285Y-55508095D01*
%TO.C,C2*%
X83018333Y-49777142D02*
X82970714Y-49824761D01*
X82827857Y-49872380D01*
X82732619Y-49872380D01*
X82589761Y-49824761D01*
X82494523Y-49729523D01*
X82446904Y-49634285D01*
X82399285Y-49443809D01*
X82399285Y-49300952D01*
X82446904Y-49110476D01*
X82494523Y-49015238D01*
X82589761Y-48920000D01*
X82732619Y-48872380D01*
X82827857Y-48872380D01*
X82970714Y-48920000D01*
X83018333Y-48967619D01*
X83399285Y-48967619D02*
X83446904Y-48920000D01*
X83542142Y-48872380D01*
X83780238Y-48872380D01*
X83875476Y-48920000D01*
X83923095Y-48967619D01*
X83970714Y-49062857D01*
X83970714Y-49158095D01*
X83923095Y-49300952D01*
X83351666Y-49872380D01*
X83970714Y-49872380D01*
%TO.C,C3*%
X53045142Y-69508666D02*
X53092761Y-69556285D01*
X53140380Y-69699142D01*
X53140380Y-69794380D01*
X53092761Y-69937238D01*
X52997523Y-70032476D01*
X52902285Y-70080095D01*
X52711809Y-70127714D01*
X52568952Y-70127714D01*
X52378476Y-70080095D01*
X52283238Y-70032476D01*
X52188000Y-69937238D01*
X52140380Y-69794380D01*
X52140380Y-69699142D01*
X52188000Y-69556285D01*
X52235619Y-69508666D01*
X52140380Y-69175333D02*
X52140380Y-68556285D01*
X52521333Y-68889619D01*
X52521333Y-68746761D01*
X52568952Y-68651523D01*
X52616571Y-68603904D01*
X52711809Y-68556285D01*
X52949904Y-68556285D01*
X53045142Y-68603904D01*
X53092761Y-68651523D01*
X53140380Y-68746761D01*
X53140380Y-69032476D01*
X53092761Y-69127714D01*
X53045142Y-69175333D01*
%TO.C,C4*%
X42505333Y-72002142D02*
X42457714Y-72049761D01*
X42314857Y-72097380D01*
X42219619Y-72097380D01*
X42076761Y-72049761D01*
X41981523Y-71954523D01*
X41933904Y-71859285D01*
X41886285Y-71668809D01*
X41886285Y-71525952D01*
X41933904Y-71335476D01*
X41981523Y-71240238D01*
X42076761Y-71145000D01*
X42219619Y-71097380D01*
X42314857Y-71097380D01*
X42457714Y-71145000D01*
X42505333Y-71192619D01*
X43362476Y-71430714D02*
X43362476Y-72097380D01*
X43124380Y-71049761D02*
X42886285Y-71764047D01*
X43505333Y-71764047D01*
%TO.C,J1*%
X48942666Y-86868380D02*
X48942666Y-87582666D01*
X48895047Y-87725523D01*
X48799809Y-87820761D01*
X48656952Y-87868380D01*
X48561714Y-87868380D01*
X49942666Y-87868380D02*
X49371238Y-87868380D01*
X49656952Y-87868380D02*
X49656952Y-86868380D01*
X49561714Y-87011238D01*
X49466476Y-87106476D01*
X49371238Y-87154095D01*
%TO.C,J2*%
X68242380Y-91265333D02*
X68956666Y-91265333D01*
X69099523Y-91312952D01*
X69194761Y-91408190D01*
X69242380Y-91551047D01*
X69242380Y-91646285D01*
X68337619Y-90836761D02*
X68290000Y-90789142D01*
X68242380Y-90693904D01*
X68242380Y-90455809D01*
X68290000Y-90360571D01*
X68337619Y-90312952D01*
X68432857Y-90265333D01*
X68528095Y-90265333D01*
X68670952Y-90312952D01*
X69242380Y-90884380D01*
X69242380Y-90265333D01*
%TO.C,J3*%
X33956666Y-78490380D02*
X33956666Y-79204666D01*
X33909047Y-79347523D01*
X33813809Y-79442761D01*
X33670952Y-79490380D01*
X33575714Y-79490380D01*
X34337619Y-78490380D02*
X34956666Y-78490380D01*
X34623333Y-78871333D01*
X34766190Y-78871333D01*
X34861428Y-78918952D01*
X34909047Y-78966571D01*
X34956666Y-79061809D01*
X34956666Y-79299904D01*
X34909047Y-79395142D01*
X34861428Y-79442761D01*
X34766190Y-79490380D01*
X34480476Y-79490380D01*
X34385238Y-79442761D01*
X34337619Y-79395142D01*
%TO.C,J4*%
X32686666Y-66992380D02*
X32686666Y-67706666D01*
X32639047Y-67849523D01*
X32543809Y-67944761D01*
X32400952Y-67992380D01*
X32305714Y-67992380D01*
X33591428Y-67325714D02*
X33591428Y-67992380D01*
X33353333Y-66944761D02*
X33115238Y-67659047D01*
X33734285Y-67659047D01*
%TO.C,J7*%
X137461666Y-51752380D02*
X137461666Y-52466666D01*
X137414047Y-52609523D01*
X137318809Y-52704761D01*
X137175952Y-52752380D01*
X137080714Y-52752380D01*
X137842619Y-51752380D02*
X138509285Y-51752380D01*
X138080714Y-52752380D01*
%TO.C,J8*%
X143811666Y-55102380D02*
X143811666Y-55816666D01*
X143764047Y-55959523D01*
X143668809Y-56054761D01*
X143525952Y-56102380D01*
X143430714Y-56102380D01*
X144430714Y-55530952D02*
X144335476Y-55483333D01*
X144287857Y-55435714D01*
X144240238Y-55340476D01*
X144240238Y-55292857D01*
X144287857Y-55197619D01*
X144335476Y-55150000D01*
X144430714Y-55102380D01*
X144621190Y-55102380D01*
X144716428Y-55150000D01*
X144764047Y-55197619D01*
X144811666Y-55292857D01*
X144811666Y-55340476D01*
X144764047Y-55435714D01*
X144716428Y-55483333D01*
X144621190Y-55530952D01*
X144430714Y-55530952D01*
X144335476Y-55578571D01*
X144287857Y-55626190D01*
X144240238Y-55721428D01*
X144240238Y-55911904D01*
X144287857Y-56007142D01*
X144335476Y-56054761D01*
X144430714Y-56102380D01*
X144621190Y-56102380D01*
X144716428Y-56054761D01*
X144764047Y-56007142D01*
X144811666Y-55911904D01*
X144811666Y-55721428D01*
X144764047Y-55626190D01*
X144716428Y-55578571D01*
X144621190Y-55530952D01*
%TO.C,R1*%
X39965333Y-51252380D02*
X39632000Y-50776190D01*
X39393904Y-51252380D02*
X39393904Y-50252380D01*
X39774857Y-50252380D01*
X39870095Y-50300000D01*
X39917714Y-50347619D01*
X39965333Y-50442857D01*
X39965333Y-50585714D01*
X39917714Y-50680952D01*
X39870095Y-50728571D01*
X39774857Y-50776190D01*
X39393904Y-50776190D01*
X40917714Y-51252380D02*
X40346285Y-51252380D01*
X40632000Y-51252380D02*
X40632000Y-50252380D01*
X40536761Y-50395238D01*
X40441523Y-50490476D01*
X40346285Y-50538095D01*
%TO.C,R3*%
X56442380Y-81446666D02*
X55966190Y-81780000D01*
X56442380Y-82018095D02*
X55442380Y-82018095D01*
X55442380Y-81637142D01*
X55490000Y-81541904D01*
X55537619Y-81494285D01*
X55632857Y-81446666D01*
X55775714Y-81446666D01*
X55870952Y-81494285D01*
X55918571Y-81541904D01*
X55966190Y-81637142D01*
X55966190Y-82018095D01*
X55442380Y-81113333D02*
X55442380Y-80494285D01*
X55823333Y-80827619D01*
X55823333Y-80684761D01*
X55870952Y-80589523D01*
X55918571Y-80541904D01*
X56013809Y-80494285D01*
X56251904Y-80494285D01*
X56347142Y-80541904D01*
X56394761Y-80589523D01*
X56442380Y-80684761D01*
X56442380Y-80970476D01*
X56394761Y-81065714D01*
X56347142Y-81113333D01*
%TO.C,R5*%
X37933333Y-62688380D02*
X37600000Y-62212190D01*
X37361904Y-62688380D02*
X37361904Y-61688380D01*
X37742857Y-61688380D01*
X37838095Y-61736000D01*
X37885714Y-61783619D01*
X37933333Y-61878857D01*
X37933333Y-62021714D01*
X37885714Y-62116952D01*
X37838095Y-62164571D01*
X37742857Y-62212190D01*
X37361904Y-62212190D01*
X38838095Y-61688380D02*
X38361904Y-61688380D01*
X38314285Y-62164571D01*
X38361904Y-62116952D01*
X38457142Y-62069333D01*
X38695238Y-62069333D01*
X38790476Y-62116952D01*
X38838095Y-62164571D01*
X38885714Y-62259809D01*
X38885714Y-62497904D01*
X38838095Y-62593142D01*
X38790476Y-62640761D01*
X38695238Y-62688380D01*
X38457142Y-62688380D01*
X38361904Y-62640761D01*
X38314285Y-62593142D01*
%TO.C,R6*%
X39965333Y-57608380D02*
X39632000Y-57132190D01*
X39393904Y-57608380D02*
X39393904Y-56608380D01*
X39774857Y-56608380D01*
X39870095Y-56656000D01*
X39917714Y-56703619D01*
X39965333Y-56798857D01*
X39965333Y-56941714D01*
X39917714Y-57036952D01*
X39870095Y-57084571D01*
X39774857Y-57132190D01*
X39393904Y-57132190D01*
X40822476Y-56608380D02*
X40632000Y-56608380D01*
X40536761Y-56656000D01*
X40489142Y-56703619D01*
X40393904Y-56846476D01*
X40346285Y-57036952D01*
X40346285Y-57417904D01*
X40393904Y-57513142D01*
X40441523Y-57560761D01*
X40536761Y-57608380D01*
X40727238Y-57608380D01*
X40822476Y-57560761D01*
X40870095Y-57513142D01*
X40917714Y-57417904D01*
X40917714Y-57179809D01*
X40870095Y-57084571D01*
X40822476Y-57036952D01*
X40727238Y-56989333D01*
X40536761Y-56989333D01*
X40441523Y-57036952D01*
X40393904Y-57084571D01*
X40346285Y-57179809D01*
%TO.C,R7*%
X80087380Y-67476666D02*
X79611190Y-67810000D01*
X80087380Y-68048095D02*
X79087380Y-68048095D01*
X79087380Y-67667142D01*
X79135000Y-67571904D01*
X79182619Y-67524285D01*
X79277857Y-67476666D01*
X79420714Y-67476666D01*
X79515952Y-67524285D01*
X79563571Y-67571904D01*
X79611190Y-67667142D01*
X79611190Y-68048095D01*
X79087380Y-67143333D02*
X79087380Y-66476666D01*
X80087380Y-66905238D01*
%TO.C,R8*%
X73102380Y-67476666D02*
X72626190Y-67810000D01*
X73102380Y-68048095D02*
X72102380Y-68048095D01*
X72102380Y-67667142D01*
X72150000Y-67571904D01*
X72197619Y-67524285D01*
X72292857Y-67476666D01*
X72435714Y-67476666D01*
X72530952Y-67524285D01*
X72578571Y-67571904D01*
X72626190Y-67667142D01*
X72626190Y-68048095D01*
X72530952Y-66905238D02*
X72483333Y-67000476D01*
X72435714Y-67048095D01*
X72340476Y-67095714D01*
X72292857Y-67095714D01*
X72197619Y-67048095D01*
X72150000Y-67000476D01*
X72102380Y-66905238D01*
X72102380Y-66714761D01*
X72150000Y-66619523D01*
X72197619Y-66571904D01*
X72292857Y-66524285D01*
X72340476Y-66524285D01*
X72435714Y-66571904D01*
X72483333Y-66619523D01*
X72530952Y-66714761D01*
X72530952Y-66905238D01*
X72578571Y-67000476D01*
X72626190Y-67048095D01*
X72721428Y-67095714D01*
X72911904Y-67095714D01*
X73007142Y-67048095D01*
X73054761Y-67000476D01*
X73102380Y-66905238D01*
X73102380Y-66714761D01*
X73054761Y-66619523D01*
X73007142Y-66571904D01*
X72911904Y-66524285D01*
X72721428Y-66524285D01*
X72626190Y-66571904D01*
X72578571Y-66619523D01*
X72530952Y-66714761D01*
%TO.C,R9*%
X43372380Y-43981666D02*
X42896190Y-44315000D01*
X43372380Y-44553095D02*
X42372380Y-44553095D01*
X42372380Y-44172142D01*
X42420000Y-44076904D01*
X42467619Y-44029285D01*
X42562857Y-43981666D01*
X42705714Y-43981666D01*
X42800952Y-44029285D01*
X42848571Y-44076904D01*
X42896190Y-44172142D01*
X42896190Y-44553095D01*
X43372380Y-43505476D02*
X43372380Y-43315000D01*
X43324761Y-43219761D01*
X43277142Y-43172142D01*
X43134285Y-43076904D01*
X42943809Y-43029285D01*
X42562857Y-43029285D01*
X42467619Y-43076904D01*
X42420000Y-43124523D01*
X42372380Y-43219761D01*
X42372380Y-43410238D01*
X42420000Y-43505476D01*
X42467619Y-43553095D01*
X42562857Y-43600714D01*
X42800952Y-43600714D01*
X42896190Y-43553095D01*
X42943809Y-43505476D01*
X42991428Y-43410238D01*
X42991428Y-43219761D01*
X42943809Y-43124523D01*
X42896190Y-43076904D01*
X42800952Y-43029285D01*
%TO.C,SW4*%
X111061666Y-16049761D02*
X111204523Y-16097380D01*
X111442619Y-16097380D01*
X111537857Y-16049761D01*
X111585476Y-16002142D01*
X111633095Y-15906904D01*
X111633095Y-15811666D01*
X111585476Y-15716428D01*
X111537857Y-15668809D01*
X111442619Y-15621190D01*
X111252142Y-15573571D01*
X111156904Y-15525952D01*
X111109285Y-15478333D01*
X111061666Y-15383095D01*
X111061666Y-15287857D01*
X111109285Y-15192619D01*
X111156904Y-15145000D01*
X111252142Y-15097380D01*
X111490238Y-15097380D01*
X111633095Y-15145000D01*
X111966428Y-15097380D02*
X112204523Y-16097380D01*
X112395000Y-15383095D01*
X112585476Y-16097380D01*
X112823571Y-15097380D01*
X113633095Y-15430714D02*
X113633095Y-16097380D01*
X113395000Y-15049761D02*
X113156904Y-15764047D01*
X113775952Y-15764047D01*
%TO.C,SW5*%
X117411666Y-16049761D02*
X117554523Y-16097380D01*
X117792619Y-16097380D01*
X117887857Y-16049761D01*
X117935476Y-16002142D01*
X117983095Y-15906904D01*
X117983095Y-15811666D01*
X117935476Y-15716428D01*
X117887857Y-15668809D01*
X117792619Y-15621190D01*
X117602142Y-15573571D01*
X117506904Y-15525952D01*
X117459285Y-15478333D01*
X117411666Y-15383095D01*
X117411666Y-15287857D01*
X117459285Y-15192619D01*
X117506904Y-15145000D01*
X117602142Y-15097380D01*
X117840238Y-15097380D01*
X117983095Y-15145000D01*
X118316428Y-15097380D02*
X118554523Y-16097380D01*
X118745000Y-15383095D01*
X118935476Y-16097380D01*
X119173571Y-15097380D01*
X120030714Y-15097380D02*
X119554523Y-15097380D01*
X119506904Y-15573571D01*
X119554523Y-15525952D01*
X119649761Y-15478333D01*
X119887857Y-15478333D01*
X119983095Y-15525952D01*
X120030714Y-15573571D01*
X120078333Y-15668809D01*
X120078333Y-15906904D01*
X120030714Y-16002142D01*
X119983095Y-16049761D01*
X119887857Y-16097380D01*
X119649761Y-16097380D01*
X119554523Y-16049761D01*
X119506904Y-16002142D01*
%TO.C,SW6*%
X98361666Y-45386761D02*
X98504523Y-45434380D01*
X98742619Y-45434380D01*
X98837857Y-45386761D01*
X98885476Y-45339142D01*
X98933095Y-45243904D01*
X98933095Y-45148666D01*
X98885476Y-45053428D01*
X98837857Y-45005809D01*
X98742619Y-44958190D01*
X98552142Y-44910571D01*
X98456904Y-44862952D01*
X98409285Y-44815333D01*
X98361666Y-44720095D01*
X98361666Y-44624857D01*
X98409285Y-44529619D01*
X98456904Y-44482000D01*
X98552142Y-44434380D01*
X98790238Y-44434380D01*
X98933095Y-44482000D01*
X99266428Y-44434380D02*
X99504523Y-45434380D01*
X99695000Y-44720095D01*
X99885476Y-45434380D01*
X100123571Y-44434380D01*
X100933095Y-44434380D02*
X100742619Y-44434380D01*
X100647380Y-44482000D01*
X100599761Y-44529619D01*
X100504523Y-44672476D01*
X100456904Y-44862952D01*
X100456904Y-45243904D01*
X100504523Y-45339142D01*
X100552142Y-45386761D01*
X100647380Y-45434380D01*
X100837857Y-45434380D01*
X100933095Y-45386761D01*
X100980714Y-45339142D01*
X101028333Y-45243904D01*
X101028333Y-45005809D01*
X100980714Y-44910571D01*
X100933095Y-44862952D01*
X100837857Y-44815333D01*
X100647380Y-44815333D01*
X100552142Y-44862952D01*
X100504523Y-44910571D01*
X100456904Y-45005809D01*
%TO.C,SW7*%
X104076666Y-45386761D02*
X104219523Y-45434380D01*
X104457619Y-45434380D01*
X104552857Y-45386761D01*
X104600476Y-45339142D01*
X104648095Y-45243904D01*
X104648095Y-45148666D01*
X104600476Y-45053428D01*
X104552857Y-45005809D01*
X104457619Y-44958190D01*
X104267142Y-44910571D01*
X104171904Y-44862952D01*
X104124285Y-44815333D01*
X104076666Y-44720095D01*
X104076666Y-44624857D01*
X104124285Y-44529619D01*
X104171904Y-44482000D01*
X104267142Y-44434380D01*
X104505238Y-44434380D01*
X104648095Y-44482000D01*
X104981428Y-44434380D02*
X105219523Y-45434380D01*
X105410000Y-44720095D01*
X105600476Y-45434380D01*
X105838571Y-44434380D01*
X106124285Y-44434380D02*
X106790952Y-44434380D01*
X106362380Y-45434380D01*
%TO.C,SW8*%
X109791666Y-45386761D02*
X109934523Y-45434380D01*
X110172619Y-45434380D01*
X110267857Y-45386761D01*
X110315476Y-45339142D01*
X110363095Y-45243904D01*
X110363095Y-45148666D01*
X110315476Y-45053428D01*
X110267857Y-45005809D01*
X110172619Y-44958190D01*
X109982142Y-44910571D01*
X109886904Y-44862952D01*
X109839285Y-44815333D01*
X109791666Y-44720095D01*
X109791666Y-44624857D01*
X109839285Y-44529619D01*
X109886904Y-44482000D01*
X109982142Y-44434380D01*
X110220238Y-44434380D01*
X110363095Y-44482000D01*
X110696428Y-44434380D02*
X110934523Y-45434380D01*
X111125000Y-44720095D01*
X111315476Y-45434380D01*
X111553571Y-44434380D01*
X112077380Y-44862952D02*
X111982142Y-44815333D01*
X111934523Y-44767714D01*
X111886904Y-44672476D01*
X111886904Y-44624857D01*
X111934523Y-44529619D01*
X111982142Y-44482000D01*
X112077380Y-44434380D01*
X112267857Y-44434380D01*
X112363095Y-44482000D01*
X112410714Y-44529619D01*
X112458333Y-44624857D01*
X112458333Y-44672476D01*
X112410714Y-44767714D01*
X112363095Y-44815333D01*
X112267857Y-44862952D01*
X112077380Y-44862952D01*
X111982142Y-44910571D01*
X111934523Y-44958190D01*
X111886904Y-45053428D01*
X111886904Y-45243904D01*
X111934523Y-45339142D01*
X111982142Y-45386761D01*
X112077380Y-45434380D01*
X112267857Y-45434380D01*
X112363095Y-45386761D01*
X112410714Y-45339142D01*
X112458333Y-45243904D01*
X112458333Y-45053428D01*
X112410714Y-44958190D01*
X112363095Y-44910571D01*
X112267857Y-44862952D01*
%TO.C,SW9*%
X123761666Y-16049761D02*
X123904523Y-16097380D01*
X124142619Y-16097380D01*
X124237857Y-16049761D01*
X124285476Y-16002142D01*
X124333095Y-15906904D01*
X124333095Y-15811666D01*
X124285476Y-15716428D01*
X124237857Y-15668809D01*
X124142619Y-15621190D01*
X123952142Y-15573571D01*
X123856904Y-15525952D01*
X123809285Y-15478333D01*
X123761666Y-15383095D01*
X123761666Y-15287857D01*
X123809285Y-15192619D01*
X123856904Y-15145000D01*
X123952142Y-15097380D01*
X124190238Y-15097380D01*
X124333095Y-15145000D01*
X124666428Y-15097380D02*
X124904523Y-16097380D01*
X125095000Y-15383095D01*
X125285476Y-16097380D01*
X125523571Y-15097380D01*
X125952142Y-16097380D02*
X126142619Y-16097380D01*
X126237857Y-16049761D01*
X126285476Y-16002142D01*
X126380714Y-15859285D01*
X126428333Y-15668809D01*
X126428333Y-15287857D01*
X126380714Y-15192619D01*
X126333095Y-15145000D01*
X126237857Y-15097380D01*
X126047380Y-15097380D01*
X125952142Y-15145000D01*
X125904523Y-15192619D01*
X125856904Y-15287857D01*
X125856904Y-15525952D01*
X125904523Y-15621190D01*
X125952142Y-15668809D01*
X126047380Y-15716428D01*
X126237857Y-15716428D01*
X126333095Y-15668809D01*
X126380714Y-15621190D01*
X126428333Y-15525952D01*
%TO.C,SW10*%
X115157476Y-45259761D02*
X115300333Y-45307380D01*
X115538428Y-45307380D01*
X115633666Y-45259761D01*
X115681285Y-45212142D01*
X115728904Y-45116904D01*
X115728904Y-45021666D01*
X115681285Y-44926428D01*
X115633666Y-44878809D01*
X115538428Y-44831190D01*
X115347952Y-44783571D01*
X115252714Y-44735952D01*
X115205095Y-44688333D01*
X115157476Y-44593095D01*
X115157476Y-44497857D01*
X115205095Y-44402619D01*
X115252714Y-44355000D01*
X115347952Y-44307380D01*
X115586047Y-44307380D01*
X115728904Y-44355000D01*
X116062238Y-44307380D02*
X116300333Y-45307380D01*
X116490809Y-44593095D01*
X116681285Y-45307380D01*
X116919380Y-44307380D01*
X117824142Y-45307380D02*
X117252714Y-45307380D01*
X117538428Y-45307380D02*
X117538428Y-44307380D01*
X117443190Y-44450238D01*
X117347952Y-44545476D01*
X117252714Y-44593095D01*
X118443190Y-44307380D02*
X118538428Y-44307380D01*
X118633666Y-44355000D01*
X118681285Y-44402619D01*
X118728904Y-44497857D01*
X118776523Y-44688333D01*
X118776523Y-44926428D01*
X118728904Y-45116904D01*
X118681285Y-45212142D01*
X118633666Y-45259761D01*
X118538428Y-45307380D01*
X118443190Y-45307380D01*
X118347952Y-45259761D01*
X118300333Y-45212142D01*
X118252714Y-45116904D01*
X118205095Y-44926428D01*
X118205095Y-44688333D01*
X118252714Y-44497857D01*
X118300333Y-44402619D01*
X118347952Y-44355000D01*
X118443190Y-44307380D01*
%TO.C,SW11*%
X129635476Y-16049761D02*
X129778333Y-16097380D01*
X130016428Y-16097380D01*
X130111666Y-16049761D01*
X130159285Y-16002142D01*
X130206904Y-15906904D01*
X130206904Y-15811666D01*
X130159285Y-15716428D01*
X130111666Y-15668809D01*
X130016428Y-15621190D01*
X129825952Y-15573571D01*
X129730714Y-15525952D01*
X129683095Y-15478333D01*
X129635476Y-15383095D01*
X129635476Y-15287857D01*
X129683095Y-15192619D01*
X129730714Y-15145000D01*
X129825952Y-15097380D01*
X130064047Y-15097380D01*
X130206904Y-15145000D01*
X130540238Y-15097380D02*
X130778333Y-16097380D01*
X130968809Y-15383095D01*
X131159285Y-16097380D01*
X131397380Y-15097380D01*
X132302142Y-16097380D02*
X131730714Y-16097380D01*
X132016428Y-16097380D02*
X132016428Y-15097380D01*
X131921190Y-15240238D01*
X131825952Y-15335476D01*
X131730714Y-15383095D01*
X133254523Y-16097380D02*
X132683095Y-16097380D01*
X132968809Y-16097380D02*
X132968809Y-15097380D01*
X132873571Y-15240238D01*
X132778333Y-15335476D01*
X132683095Y-15383095D01*
%TO.C,SW12*%
X120872476Y-45259761D02*
X121015333Y-45307380D01*
X121253428Y-45307380D01*
X121348666Y-45259761D01*
X121396285Y-45212142D01*
X121443904Y-45116904D01*
X121443904Y-45021666D01*
X121396285Y-44926428D01*
X121348666Y-44878809D01*
X121253428Y-44831190D01*
X121062952Y-44783571D01*
X120967714Y-44735952D01*
X120920095Y-44688333D01*
X120872476Y-44593095D01*
X120872476Y-44497857D01*
X120920095Y-44402619D01*
X120967714Y-44355000D01*
X121062952Y-44307380D01*
X121301047Y-44307380D01*
X121443904Y-44355000D01*
X121777238Y-44307380D02*
X122015333Y-45307380D01*
X122205809Y-44593095D01*
X122396285Y-45307380D01*
X122634380Y-44307380D01*
X123539142Y-45307380D02*
X122967714Y-45307380D01*
X123253428Y-45307380D02*
X123253428Y-44307380D01*
X123158190Y-44450238D01*
X123062952Y-44545476D01*
X122967714Y-44593095D01*
X123920095Y-44402619D02*
X123967714Y-44355000D01*
X124062952Y-44307380D01*
X124301047Y-44307380D01*
X124396285Y-44355000D01*
X124443904Y-44402619D01*
X124491523Y-44497857D01*
X124491523Y-44593095D01*
X124443904Y-44735952D01*
X123872476Y-45307380D01*
X124491523Y-45307380D01*
%TO.C,SW13*%
X126587476Y-45259761D02*
X126730333Y-45307380D01*
X126968428Y-45307380D01*
X127063666Y-45259761D01*
X127111285Y-45212142D01*
X127158904Y-45116904D01*
X127158904Y-45021666D01*
X127111285Y-44926428D01*
X127063666Y-44878809D01*
X126968428Y-44831190D01*
X126777952Y-44783571D01*
X126682714Y-44735952D01*
X126635095Y-44688333D01*
X126587476Y-44593095D01*
X126587476Y-44497857D01*
X126635095Y-44402619D01*
X126682714Y-44355000D01*
X126777952Y-44307380D01*
X127016047Y-44307380D01*
X127158904Y-44355000D01*
X127492238Y-44307380D02*
X127730333Y-45307380D01*
X127920809Y-44593095D01*
X128111285Y-45307380D01*
X128349380Y-44307380D01*
X129254142Y-45307380D02*
X128682714Y-45307380D01*
X128968428Y-45307380D02*
X128968428Y-44307380D01*
X128873190Y-44450238D01*
X128777952Y-44545476D01*
X128682714Y-44593095D01*
X129587476Y-44307380D02*
X130206523Y-44307380D01*
X129873190Y-44688333D01*
X130016047Y-44688333D01*
X130111285Y-44735952D01*
X130158904Y-44783571D01*
X130206523Y-44878809D01*
X130206523Y-45116904D01*
X130158904Y-45212142D01*
X130111285Y-45259761D01*
X130016047Y-45307380D01*
X129730333Y-45307380D01*
X129635095Y-45259761D01*
X129587476Y-45212142D01*
%TO.C,U1*%
X65913095Y-60312380D02*
X65913095Y-61121904D01*
X65960714Y-61217142D01*
X66008333Y-61264761D01*
X66103571Y-61312380D01*
X66294047Y-61312380D01*
X66389285Y-61264761D01*
X66436904Y-61217142D01*
X66484523Y-61121904D01*
X66484523Y-60312380D01*
X67484523Y-61312380D02*
X66913095Y-61312380D01*
X67198809Y-61312380D02*
X67198809Y-60312380D01*
X67103571Y-60455238D01*
X67008333Y-60550476D01*
X66913095Y-60598095D01*
%TO.C,U2*%
X65913095Y-74172380D02*
X65913095Y-74981904D01*
X65960714Y-75077142D01*
X66008333Y-75124761D01*
X66103571Y-75172380D01*
X66294047Y-75172380D01*
X66389285Y-75124761D01*
X66436904Y-75077142D01*
X66484523Y-74981904D01*
X66484523Y-74172380D01*
X66913095Y-74267619D02*
X66960714Y-74220000D01*
X67055952Y-74172380D01*
X67294047Y-74172380D01*
X67389285Y-74220000D01*
X67436904Y-74267619D01*
X67484523Y-74362857D01*
X67484523Y-74458095D01*
X67436904Y-74600952D01*
X66865476Y-75172380D01*
X67484523Y-75172380D01*
%TO.C,U3*%
X48006095Y-59186380D02*
X48006095Y-59995904D01*
X48053714Y-60091142D01*
X48101333Y-60138761D01*
X48196571Y-60186380D01*
X48387047Y-60186380D01*
X48482285Y-60138761D01*
X48529904Y-60091142D01*
X48577523Y-59995904D01*
X48577523Y-59186380D01*
X48958476Y-59186380D02*
X49577523Y-59186380D01*
X49244190Y-59567333D01*
X49387047Y-59567333D01*
X49482285Y-59614952D01*
X49529904Y-59662571D01*
X49577523Y-59757809D01*
X49577523Y-59995904D01*
X49529904Y-60091142D01*
X49482285Y-60138761D01*
X49387047Y-60186380D01*
X49101333Y-60186380D01*
X49006095Y-60138761D01*
X48958476Y-60091142D01*
%TO.C,U4*%
X127508095Y-91952380D02*
X127508095Y-92761904D01*
X127555714Y-92857142D01*
X127603333Y-92904761D01*
X127698571Y-92952380D01*
X127889047Y-92952380D01*
X127984285Y-92904761D01*
X128031904Y-92857142D01*
X128079523Y-92761904D01*
X128079523Y-91952380D01*
X128984285Y-92285714D02*
X128984285Y-92952380D01*
X128746190Y-91904761D02*
X128508095Y-92619047D01*
X129127142Y-92619047D01*
%TO.C,Y1*%
X80336190Y-55621190D02*
X80812380Y-55621190D01*
X79812380Y-55954523D02*
X80336190Y-55621190D01*
X79812380Y-55287857D01*
X80812380Y-54430714D02*
X80812380Y-55002142D01*
X80812380Y-54716428D02*
X79812380Y-54716428D01*
X79955238Y-54811666D01*
X80050476Y-54906904D01*
X80098095Y-55002142D01*
%TO.C,RN1*%
X109657380Y-36885476D02*
X109181190Y-37218809D01*
X109657380Y-37456904D02*
X108657380Y-37456904D01*
X108657380Y-37075952D01*
X108705000Y-36980714D01*
X108752619Y-36933095D01*
X108847857Y-36885476D01*
X108990714Y-36885476D01*
X109085952Y-36933095D01*
X109133571Y-36980714D01*
X109181190Y-37075952D01*
X109181190Y-37456904D01*
X109657380Y-36456904D02*
X108657380Y-36456904D01*
X109657380Y-35885476D01*
X108657380Y-35885476D01*
X109657380Y-34885476D02*
X109657380Y-35456904D01*
X109657380Y-35171190D02*
X108657380Y-35171190D01*
X108800238Y-35266428D01*
X108895476Y-35361666D01*
X108943095Y-35456904D01*
%TO.C,SW1*%
X72961666Y-25574761D02*
X73104523Y-25622380D01*
X73342619Y-25622380D01*
X73437857Y-25574761D01*
X73485476Y-25527142D01*
X73533095Y-25431904D01*
X73533095Y-25336666D01*
X73485476Y-25241428D01*
X73437857Y-25193809D01*
X73342619Y-25146190D01*
X73152142Y-25098571D01*
X73056904Y-25050952D01*
X73009285Y-25003333D01*
X72961666Y-24908095D01*
X72961666Y-24812857D01*
X73009285Y-24717619D01*
X73056904Y-24670000D01*
X73152142Y-24622380D01*
X73390238Y-24622380D01*
X73533095Y-24670000D01*
X73866428Y-24622380D02*
X74104523Y-25622380D01*
X74295000Y-24908095D01*
X74485476Y-25622380D01*
X74723571Y-24622380D01*
X75628333Y-25622380D02*
X75056904Y-25622380D01*
X75342619Y-25622380D02*
X75342619Y-24622380D01*
X75247380Y-24765238D01*
X75152142Y-24860476D01*
X75056904Y-24908095D01*
%TO.C,SW2*%
X83756666Y-25574761D02*
X83899523Y-25622380D01*
X84137619Y-25622380D01*
X84232857Y-25574761D01*
X84280476Y-25527142D01*
X84328095Y-25431904D01*
X84328095Y-25336666D01*
X84280476Y-25241428D01*
X84232857Y-25193809D01*
X84137619Y-25146190D01*
X83947142Y-25098571D01*
X83851904Y-25050952D01*
X83804285Y-25003333D01*
X83756666Y-24908095D01*
X83756666Y-24812857D01*
X83804285Y-24717619D01*
X83851904Y-24670000D01*
X83947142Y-24622380D01*
X84185238Y-24622380D01*
X84328095Y-24670000D01*
X84661428Y-24622380D02*
X84899523Y-25622380D01*
X85090000Y-24908095D01*
X85280476Y-25622380D01*
X85518571Y-24622380D01*
X85851904Y-24717619D02*
X85899523Y-24670000D01*
X85994761Y-24622380D01*
X86232857Y-24622380D01*
X86328095Y-24670000D01*
X86375714Y-24717619D01*
X86423333Y-24812857D01*
X86423333Y-24908095D01*
X86375714Y-25050952D01*
X85804285Y-25622380D01*
X86423333Y-25622380D01*
%TO.C,SW3*%
X94551666Y-25574761D02*
X94694523Y-25622380D01*
X94932619Y-25622380D01*
X95027857Y-25574761D01*
X95075476Y-25527142D01*
X95123095Y-25431904D01*
X95123095Y-25336666D01*
X95075476Y-25241428D01*
X95027857Y-25193809D01*
X94932619Y-25146190D01*
X94742142Y-25098571D01*
X94646904Y-25050952D01*
X94599285Y-25003333D01*
X94551666Y-24908095D01*
X94551666Y-24812857D01*
X94599285Y-24717619D01*
X94646904Y-24670000D01*
X94742142Y-24622380D01*
X94980238Y-24622380D01*
X95123095Y-24670000D01*
X95456428Y-24622380D02*
X95694523Y-25622380D01*
X95885000Y-24908095D01*
X96075476Y-25622380D01*
X96313571Y-24622380D01*
X96599285Y-24622380D02*
X97218333Y-24622380D01*
X96885000Y-25003333D01*
X97027857Y-25003333D01*
X97123095Y-25050952D01*
X97170714Y-25098571D01*
X97218333Y-25193809D01*
X97218333Y-25431904D01*
X97170714Y-25527142D01*
X97123095Y-25574761D01*
X97027857Y-25622380D01*
X96742142Y-25622380D01*
X96646904Y-25574761D01*
X96599285Y-25527142D01*
%TO.C,SW14*%
X85439476Y-16303761D02*
X85582333Y-16351380D01*
X85820428Y-16351380D01*
X85915666Y-16303761D01*
X85963285Y-16256142D01*
X86010904Y-16160904D01*
X86010904Y-16065666D01*
X85963285Y-15970428D01*
X85915666Y-15922809D01*
X85820428Y-15875190D01*
X85629952Y-15827571D01*
X85534714Y-15779952D01*
X85487095Y-15732333D01*
X85439476Y-15637095D01*
X85439476Y-15541857D01*
X85487095Y-15446619D01*
X85534714Y-15399000D01*
X85629952Y-15351380D01*
X85868047Y-15351380D01*
X86010904Y-15399000D01*
X86344238Y-15351380D02*
X86582333Y-16351380D01*
X86772809Y-15637095D01*
X86963285Y-16351380D01*
X87201380Y-15351380D01*
X88106142Y-16351380D02*
X87534714Y-16351380D01*
X87820428Y-16351380D02*
X87820428Y-15351380D01*
X87725190Y-15494238D01*
X87629952Y-15589476D01*
X87534714Y-15637095D01*
X88963285Y-15684714D02*
X88963285Y-16351380D01*
X88725190Y-15303761D02*
X88487095Y-16018047D01*
X89106142Y-16018047D01*
%TO.C,SW15*%
X94329476Y-16303761D02*
X94472333Y-16351380D01*
X94710428Y-16351380D01*
X94805666Y-16303761D01*
X94853285Y-16256142D01*
X94900904Y-16160904D01*
X94900904Y-16065666D01*
X94853285Y-15970428D01*
X94805666Y-15922809D01*
X94710428Y-15875190D01*
X94519952Y-15827571D01*
X94424714Y-15779952D01*
X94377095Y-15732333D01*
X94329476Y-15637095D01*
X94329476Y-15541857D01*
X94377095Y-15446619D01*
X94424714Y-15399000D01*
X94519952Y-15351380D01*
X94758047Y-15351380D01*
X94900904Y-15399000D01*
X95234238Y-15351380D02*
X95472333Y-16351380D01*
X95662809Y-15637095D01*
X95853285Y-16351380D01*
X96091380Y-15351380D01*
X96996142Y-16351380D02*
X96424714Y-16351380D01*
X96710428Y-16351380D02*
X96710428Y-15351380D01*
X96615190Y-15494238D01*
X96519952Y-15589476D01*
X96424714Y-15637095D01*
X97900904Y-15351380D02*
X97424714Y-15351380D01*
X97377095Y-15827571D01*
X97424714Y-15779952D01*
X97519952Y-15732333D01*
X97758047Y-15732333D01*
X97853285Y-15779952D01*
X97900904Y-15827571D01*
X97948523Y-15922809D01*
X97948523Y-16160904D01*
X97900904Y-16256142D01*
X97853285Y-16303761D01*
X97758047Y-16351380D01*
X97519952Y-16351380D01*
X97424714Y-16303761D01*
X97377095Y-16256142D01*
%TO.C,SW16*%
X103219476Y-16303761D02*
X103362333Y-16351380D01*
X103600428Y-16351380D01*
X103695666Y-16303761D01*
X103743285Y-16256142D01*
X103790904Y-16160904D01*
X103790904Y-16065666D01*
X103743285Y-15970428D01*
X103695666Y-15922809D01*
X103600428Y-15875190D01*
X103409952Y-15827571D01*
X103314714Y-15779952D01*
X103267095Y-15732333D01*
X103219476Y-15637095D01*
X103219476Y-15541857D01*
X103267095Y-15446619D01*
X103314714Y-15399000D01*
X103409952Y-15351380D01*
X103648047Y-15351380D01*
X103790904Y-15399000D01*
X104124238Y-15351380D02*
X104362333Y-16351380D01*
X104552809Y-15637095D01*
X104743285Y-16351380D01*
X104981380Y-15351380D01*
X105886142Y-16351380D02*
X105314714Y-16351380D01*
X105600428Y-16351380D02*
X105600428Y-15351380D01*
X105505190Y-15494238D01*
X105409952Y-15589476D01*
X105314714Y-15637095D01*
X106743285Y-15351380D02*
X106552809Y-15351380D01*
X106457571Y-15399000D01*
X106409952Y-15446619D01*
X106314714Y-15589476D01*
X106267095Y-15779952D01*
X106267095Y-16160904D01*
X106314714Y-16256142D01*
X106362333Y-16303761D01*
X106457571Y-16351380D01*
X106648047Y-16351380D01*
X106743285Y-16303761D01*
X106790904Y-16256142D01*
X106838523Y-16160904D01*
X106838523Y-15922809D01*
X106790904Y-15827571D01*
X106743285Y-15779952D01*
X106648047Y-15732333D01*
X106457571Y-15732333D01*
X106362333Y-15779952D01*
X106314714Y-15827571D01*
X106267095Y-15922809D01*
%TO.C,D1*%
X61627380Y-88368095D02*
X60627380Y-88368095D01*
X60627380Y-88130000D01*
X60675000Y-87987142D01*
X60770238Y-87891904D01*
X60865476Y-87844285D01*
X61055952Y-87796666D01*
X61198809Y-87796666D01*
X61389285Y-87844285D01*
X61484523Y-87891904D01*
X61579761Y-87987142D01*
X61627380Y-88130000D01*
X61627380Y-88368095D01*
X61627380Y-86844285D02*
X61627380Y-87415714D01*
X61627380Y-87130000D02*
X60627380Y-87130000D01*
X60770238Y-87225238D01*
X60865476Y-87320476D01*
X60913095Y-87415714D01*
X61307380Y-84081904D02*
X60307380Y-84081904D01*
X61307380Y-83510476D02*
X60735952Y-83939047D01*
X60307380Y-83510476D02*
X60878809Y-84081904D01*
%TO.C,D3*%
X92225904Y-42577380D02*
X92225904Y-41577380D01*
X92464000Y-41577380D01*
X92606857Y-41625000D01*
X92702095Y-41720238D01*
X92749714Y-41815476D01*
X92797333Y-42005952D01*
X92797333Y-42148809D01*
X92749714Y-42339285D01*
X92702095Y-42434523D01*
X92606857Y-42529761D01*
X92464000Y-42577380D01*
X92225904Y-42577380D01*
X93130666Y-41577380D02*
X93749714Y-41577380D01*
X93416380Y-41958333D01*
X93559238Y-41958333D01*
X93654476Y-42005952D01*
X93702095Y-42053571D01*
X93749714Y-42148809D01*
X93749714Y-42386904D01*
X93702095Y-42482142D01*
X93654476Y-42529761D01*
X93559238Y-42577380D01*
X93273523Y-42577380D01*
X93178285Y-42529761D01*
X93130666Y-42482142D01*
%TO.C,D4*%
X85240904Y-34615380D02*
X85240904Y-33615380D01*
X85479000Y-33615380D01*
X85621857Y-33663000D01*
X85717095Y-33758238D01*
X85764714Y-33853476D01*
X85812333Y-34043952D01*
X85812333Y-34186809D01*
X85764714Y-34377285D01*
X85717095Y-34472523D01*
X85621857Y-34567761D01*
X85479000Y-34615380D01*
X85240904Y-34615380D01*
X86669476Y-33948714D02*
X86669476Y-34615380D01*
X86431380Y-33567761D02*
X86193285Y-34282047D01*
X86812333Y-34282047D01*
%TO.C,D5*%
X85240904Y-42577380D02*
X85240904Y-41577380D01*
X85479000Y-41577380D01*
X85621857Y-41625000D01*
X85717095Y-41720238D01*
X85764714Y-41815476D01*
X85812333Y-42005952D01*
X85812333Y-42148809D01*
X85764714Y-42339285D01*
X85717095Y-42434523D01*
X85621857Y-42529761D01*
X85479000Y-42577380D01*
X85240904Y-42577380D01*
X86717095Y-41577380D02*
X86240904Y-41577380D01*
X86193285Y-42053571D01*
X86240904Y-42005952D01*
X86336142Y-41958333D01*
X86574238Y-41958333D01*
X86669476Y-42005952D01*
X86717095Y-42053571D01*
X86764714Y-42148809D01*
X86764714Y-42386904D01*
X86717095Y-42482142D01*
X86669476Y-42529761D01*
X86574238Y-42577380D01*
X86336142Y-42577380D01*
X86240904Y-42529761D01*
X86193285Y-42482142D01*
%TO.C,D6*%
X92225904Y-34957380D02*
X92225904Y-33957380D01*
X92464000Y-33957380D01*
X92606857Y-34005000D01*
X92702095Y-34100238D01*
X92749714Y-34195476D01*
X92797333Y-34385952D01*
X92797333Y-34528809D01*
X92749714Y-34719285D01*
X92702095Y-34814523D01*
X92606857Y-34909761D01*
X92464000Y-34957380D01*
X92225904Y-34957380D01*
X93654476Y-33957380D02*
X93464000Y-33957380D01*
X93368761Y-34005000D01*
X93321142Y-34052619D01*
X93225904Y-34195476D01*
X93178285Y-34385952D01*
X93178285Y-34766904D01*
X93225904Y-34862142D01*
X93273523Y-34909761D01*
X93368761Y-34957380D01*
X93559238Y-34957380D01*
X93654476Y-34909761D01*
X93702095Y-34862142D01*
X93749714Y-34766904D01*
X93749714Y-34528809D01*
X93702095Y-34433571D01*
X93654476Y-34385952D01*
X93559238Y-34338333D01*
X93368761Y-34338333D01*
X93273523Y-34385952D01*
X93225904Y-34433571D01*
X93178285Y-34528809D01*
%TO.C,J5*%
X80962380Y-19383333D02*
X81676666Y-19383333D01*
X81819523Y-19430952D01*
X81914761Y-19526190D01*
X81962380Y-19669047D01*
X81962380Y-19764285D01*
X80962380Y-18430952D02*
X80962380Y-18907142D01*
X81438571Y-18954761D01*
X81390952Y-18907142D01*
X81343333Y-18811904D01*
X81343333Y-18573809D01*
X81390952Y-18478571D01*
X81438571Y-18430952D01*
X81533809Y-18383333D01*
X81771904Y-18383333D01*
X81867142Y-18430952D01*
X81914761Y-18478571D01*
X81962380Y-18573809D01*
X81962380Y-18811904D01*
X81914761Y-18907142D01*
X81867142Y-18954761D01*
%TO.C,J6*%
X60642380Y-19383333D02*
X61356666Y-19383333D01*
X61499523Y-19430952D01*
X61594761Y-19526190D01*
X61642380Y-19669047D01*
X61642380Y-19764285D01*
X60642380Y-18478571D02*
X60642380Y-18669047D01*
X60690000Y-18764285D01*
X60737619Y-18811904D01*
X60880476Y-18907142D01*
X61070952Y-18954761D01*
X61451904Y-18954761D01*
X61547142Y-18907142D01*
X61594761Y-18859523D01*
X61642380Y-18764285D01*
X61642380Y-18573809D01*
X61594761Y-18478571D01*
X61547142Y-18430952D01*
X61451904Y-18383333D01*
X61213809Y-18383333D01*
X61118571Y-18430952D01*
X61070952Y-18478571D01*
X61023333Y-18573809D01*
X61023333Y-18764285D01*
X61070952Y-18859523D01*
X61118571Y-18907142D01*
X61213809Y-18954761D01*
%TO.C,J9*%
X143811666Y-51752380D02*
X143811666Y-52466666D01*
X143764047Y-52609523D01*
X143668809Y-52704761D01*
X143525952Y-52752380D01*
X143430714Y-52752380D01*
X144335476Y-52752380D02*
X144525952Y-52752380D01*
X144621190Y-52704761D01*
X144668809Y-52657142D01*
X144764047Y-52514285D01*
X144811666Y-52323809D01*
X144811666Y-51942857D01*
X144764047Y-51847619D01*
X144716428Y-51800000D01*
X144621190Y-51752380D01*
X144430714Y-51752380D01*
X144335476Y-51800000D01*
X144287857Y-51847619D01*
X144240238Y-51942857D01*
X144240238Y-52180952D01*
X144287857Y-52276190D01*
X144335476Y-52323809D01*
X144430714Y-52371428D01*
X144621190Y-52371428D01*
X144716428Y-52323809D01*
X144764047Y-52276190D01*
X144811666Y-52180952D01*
%TO.C,J10*%
X136985476Y-55102380D02*
X136985476Y-55816666D01*
X136937857Y-55959523D01*
X136842619Y-56054761D01*
X136699761Y-56102380D01*
X136604523Y-56102380D01*
X137985476Y-56102380D02*
X137414047Y-56102380D01*
X137699761Y-56102380D02*
X137699761Y-55102380D01*
X137604523Y-55245238D01*
X137509285Y-55340476D01*
X137414047Y-55388095D01*
X138604523Y-55102380D02*
X138699761Y-55102380D01*
X138795000Y-55150000D01*
X138842619Y-55197619D01*
X138890238Y-55292857D01*
X138937857Y-55483333D01*
X138937857Y-55721428D01*
X138890238Y-55911904D01*
X138842619Y-56007142D01*
X138795000Y-56054761D01*
X138699761Y-56102380D01*
X138604523Y-56102380D01*
X138509285Y-56054761D01*
X138461666Y-56007142D01*
X138414047Y-55911904D01*
X138366428Y-55721428D01*
X138366428Y-55483333D01*
X138414047Y-55292857D01*
X138461666Y-55197619D01*
X138509285Y-55150000D01*
X138604523Y-55102380D01*
%TO.C,J11*%
X54848380Y-30527523D02*
X55562666Y-30527523D01*
X55705523Y-30575142D01*
X55800761Y-30670380D01*
X55848380Y-30813238D01*
X55848380Y-30908476D01*
X55848380Y-29527523D02*
X55848380Y-30098952D01*
X55848380Y-29813238D02*
X54848380Y-29813238D01*
X54991238Y-29908476D01*
X55086476Y-30003714D01*
X55134095Y-30098952D01*
X55848380Y-28575142D02*
X55848380Y-29146571D01*
X55848380Y-28860857D02*
X54848380Y-28860857D01*
X54991238Y-28956095D01*
X55086476Y-29051333D01*
X55134095Y-29146571D01*
%TO.C,R2*%
X55713333Y-77027380D02*
X55380000Y-76551190D01*
X55141904Y-77027380D02*
X55141904Y-76027380D01*
X55522857Y-76027380D01*
X55618095Y-76075000D01*
X55665714Y-76122619D01*
X55713333Y-76217857D01*
X55713333Y-76360714D01*
X55665714Y-76455952D01*
X55618095Y-76503571D01*
X55522857Y-76551190D01*
X55141904Y-76551190D01*
X56094285Y-76122619D02*
X56141904Y-76075000D01*
X56237142Y-76027380D01*
X56475238Y-76027380D01*
X56570476Y-76075000D01*
X56618095Y-76122619D01*
X56665714Y-76217857D01*
X56665714Y-76313095D01*
X56618095Y-76455952D01*
X56046666Y-77027380D01*
X56665714Y-77027380D01*
%TD*%
M02*
