%TF.GenerationSoftware,KiCad,Pcbnew,(5.1.8)-1*%
%TF.CreationDate,2021-01-20T16:15:24-05:00*%
%TF.ProjectId,Switch_Panel,53776974-6368-45f5-9061-6e656c2e6b69,rev?*%
%TF.SameCoordinates,Original*%
%TF.FileFunction,Soldermask,Bot*%
%TF.FilePolarity,Negative*%
%FSLAX46Y46*%
G04 Gerber Fmt 4.6, Leading zero omitted, Abs format (unit mm)*
G04 Created by KiCad (PCBNEW (5.1.8)-1) date 2021-01-20 16:15:24*
%MOMM*%
%LPD*%
G01*
G04 APERTURE LIST*
%ADD10R,1.600000X1.600000*%
%ADD11O,1.600000X1.600000*%
%ADD12C,8.600000*%
%ADD13C,0.900000*%
%ADD14O,1.250000X0.950000*%
%ADD15O,1.000000X1.550000*%
%ADD16R,1.700000X1.700000*%
%ADD17O,1.700000X1.700000*%
%ADD18C,1.500000*%
%ADD19C,1.800000*%
%ADD20R,1.800000X1.800000*%
G04 APERTURE END LIST*
D10*
%TO.C,U6*%
X100330000Y-90170000D03*
D11*
X92710000Y-57150000D03*
X100330000Y-87630000D03*
X92710000Y-59690000D03*
X100330000Y-85090000D03*
X92710000Y-62230000D03*
X100330000Y-82550000D03*
X92710000Y-64770000D03*
X100330000Y-80010000D03*
X92710000Y-67310000D03*
X100330000Y-77470000D03*
X92710000Y-69850000D03*
X100330000Y-74930000D03*
X92710000Y-72390000D03*
X100330000Y-72390000D03*
X92710000Y-74930000D03*
X100330000Y-69850000D03*
X92710000Y-77470000D03*
X100330000Y-67310000D03*
X92710000Y-80010000D03*
X100330000Y-64770000D03*
X92710000Y-82550000D03*
X100330000Y-62230000D03*
X92710000Y-85090000D03*
X100330000Y-59690000D03*
X92710000Y-87630000D03*
X100330000Y-57150000D03*
X92710000Y-90170000D03*
%TD*%
%TO.C,U5*%
X109855000Y-90170000D03*
X117475000Y-57150000D03*
X109855000Y-87630000D03*
X117475000Y-59690000D03*
X109855000Y-85090000D03*
X117475000Y-62230000D03*
X109855000Y-82550000D03*
X117475000Y-64770000D03*
X109855000Y-80010000D03*
X117475000Y-67310000D03*
X109855000Y-77470000D03*
X117475000Y-69850000D03*
X109855000Y-74930000D03*
X117475000Y-72390000D03*
X109855000Y-72390000D03*
X117475000Y-74930000D03*
X109855000Y-69850000D03*
X117475000Y-77470000D03*
X109855000Y-67310000D03*
X117475000Y-80010000D03*
X109855000Y-64770000D03*
X117475000Y-82550000D03*
X109855000Y-62230000D03*
X117475000Y-85090000D03*
X109855000Y-59690000D03*
X117475000Y-87630000D03*
X109855000Y-57150000D03*
D10*
X117475000Y-90170000D03*
%TD*%
D11*
%TO.C,D2*%
X64770000Y-91440000D03*
D10*
X64770000Y-83820000D03*
%TD*%
D12*
%TO.C,REF\u002A\u002A*%
X139700000Y-21590000D03*
D13*
X142925000Y-21590000D03*
X141980419Y-23870419D03*
X139700000Y-24815000D03*
X137419581Y-23870419D03*
X136475000Y-21590000D03*
X137419581Y-19309581D03*
X139700000Y-18365000D03*
X141980419Y-19309581D03*
%TD*%
%TO.C,REF\u002A\u002A*%
X141980419Y-84079581D03*
X139700000Y-83135000D03*
X137419581Y-84079581D03*
X136475000Y-86360000D03*
X137419581Y-88640419D03*
X139700000Y-89585000D03*
X141980419Y-88640419D03*
X142925000Y-86360000D03*
D12*
X139700000Y-86360000D03*
%TD*%
%TO.C,REF\u002A\u002A*%
X36830000Y-86360000D03*
D13*
X40055000Y-86360000D03*
X39110419Y-88640419D03*
X36830000Y-89585000D03*
X34549581Y-88640419D03*
X33605000Y-86360000D03*
X34549581Y-84079581D03*
X36830000Y-83135000D03*
X39110419Y-84079581D03*
%TD*%
D12*
%TO.C,REF\u002A\u002A*%
X36830000Y-21590000D03*
D13*
X40055000Y-21590000D03*
X39110419Y-23870419D03*
X36830000Y-24815000D03*
X34549581Y-23870419D03*
X33605000Y-21590000D03*
X34549581Y-19309581D03*
X36830000Y-18365000D03*
X39110419Y-19309581D03*
%TD*%
D14*
%TO.C,J1*%
X51776000Y-89916000D03*
X46776000Y-89916000D03*
D15*
X45776000Y-92616000D03*
X52776000Y-92616000D03*
%TD*%
D16*
%TO.C,J2*%
X71120000Y-90932000D03*
D17*
X73660000Y-90932000D03*
%TD*%
D16*
%TO.C,J3*%
X35560000Y-76708000D03*
D17*
X33020000Y-76708000D03*
X35560000Y-74168000D03*
X33020000Y-74168000D03*
X35560000Y-71628000D03*
X33020000Y-71628000D03*
%TD*%
D16*
%TO.C,J4*%
X33020000Y-64770000D03*
D17*
X33020000Y-62230000D03*
X33020000Y-59690000D03*
X33020000Y-57150000D03*
X33020000Y-54610000D03*
X33020000Y-52070000D03*
%TD*%
D16*
%TO.C,J7*%
X137795000Y-49530000D03*
D17*
X137795000Y-46990000D03*
X137795000Y-44450000D03*
X137795000Y-41910000D03*
X137795000Y-39370000D03*
X137795000Y-36830000D03*
X137795000Y-34290000D03*
X137795000Y-31750000D03*
%TD*%
%TO.C,J8*%
X144145000Y-76200000D03*
X144145000Y-73660000D03*
X144145000Y-71120000D03*
X144145000Y-68580000D03*
X144145000Y-66040000D03*
X144145000Y-63500000D03*
X144145000Y-60960000D03*
D16*
X144145000Y-58420000D03*
%TD*%
%TO.C,SW4*%
X112395000Y-18415000D03*
D17*
X112395000Y-20955000D03*
X112395000Y-23495000D03*
%TD*%
D16*
%TO.C,SW5*%
X118745000Y-18415000D03*
D17*
X118745000Y-20955000D03*
X118745000Y-23495000D03*
%TD*%
D16*
%TO.C,SW6*%
X99695000Y-47752000D03*
D17*
X99695000Y-50292000D03*
%TD*%
D16*
%TO.C,SW7*%
X105410000Y-47752000D03*
D17*
X105410000Y-50292000D03*
%TD*%
D16*
%TO.C,SW8*%
X111125000Y-47752000D03*
D17*
X111125000Y-50292000D03*
%TD*%
%TO.C,SW9*%
X125095000Y-23495000D03*
X125095000Y-20955000D03*
D16*
X125095000Y-18415000D03*
%TD*%
D17*
%TO.C,SW10*%
X116967000Y-50165000D03*
D16*
X116967000Y-47625000D03*
%TD*%
%TO.C,SW11*%
X131445000Y-18415000D03*
D17*
X131445000Y-20955000D03*
X131445000Y-23495000D03*
%TD*%
%TO.C,SW12*%
X122682000Y-50165000D03*
D16*
X122682000Y-47625000D03*
%TD*%
D17*
%TO.C,SW13*%
X128397000Y-50165000D03*
D16*
X128397000Y-47625000D03*
%TD*%
D10*
%TO.C,U2*%
X70485000Y-72390000D03*
D11*
X62865000Y-64770000D03*
X70485000Y-69850000D03*
X62865000Y-67310000D03*
X70485000Y-67310000D03*
X62865000Y-69850000D03*
X70485000Y-64770000D03*
X62865000Y-72390000D03*
%TD*%
D10*
%TO.C,U3*%
X52578000Y-57404000D03*
D11*
X44958000Y-29464000D03*
X52578000Y-54864000D03*
X44958000Y-32004000D03*
X52578000Y-52324000D03*
X44958000Y-34544000D03*
X52578000Y-49784000D03*
X44958000Y-37084000D03*
X52578000Y-47244000D03*
X44958000Y-39624000D03*
X52578000Y-44704000D03*
X44958000Y-42164000D03*
X52578000Y-42164000D03*
X44958000Y-44704000D03*
X52578000Y-39624000D03*
X44958000Y-47244000D03*
X52578000Y-37084000D03*
X44958000Y-49784000D03*
X52578000Y-34544000D03*
X44958000Y-52324000D03*
X52578000Y-32004000D03*
X44958000Y-54864000D03*
X52578000Y-29464000D03*
X44958000Y-57404000D03*
%TD*%
D10*
%TO.C,U4*%
X132080000Y-90170000D03*
D11*
X124460000Y-57150000D03*
X132080000Y-87630000D03*
X124460000Y-59690000D03*
X132080000Y-85090000D03*
X124460000Y-62230000D03*
X132080000Y-82550000D03*
X124460000Y-64770000D03*
X132080000Y-80010000D03*
X124460000Y-67310000D03*
X132080000Y-77470000D03*
X124460000Y-69850000D03*
X132080000Y-74930000D03*
X124460000Y-72390000D03*
X132080000Y-72390000D03*
X124460000Y-74930000D03*
X132080000Y-69850000D03*
X124460000Y-77470000D03*
X132080000Y-67310000D03*
X124460000Y-80010000D03*
X132080000Y-64770000D03*
X124460000Y-82550000D03*
X132080000Y-62230000D03*
X124460000Y-85090000D03*
X132080000Y-59690000D03*
X124460000Y-87630000D03*
X132080000Y-57150000D03*
X124460000Y-90170000D03*
%TD*%
D18*
%TO.C,Y1*%
X76835000Y-52705000D03*
X76835000Y-57585000D03*
%TD*%
D17*
%TO.C,SW1*%
X73025000Y-30480000D03*
X75565000Y-30480000D03*
X73025000Y-27940000D03*
D16*
X75565000Y-27940000D03*
%TD*%
D17*
%TO.C,SW2*%
X83820000Y-30480000D03*
X86360000Y-30480000D03*
X83820000Y-27940000D03*
D16*
X86360000Y-27940000D03*
%TD*%
D17*
%TO.C,SW3*%
X94615000Y-30480000D03*
X97155000Y-30480000D03*
X94615000Y-27940000D03*
D16*
X97155000Y-27940000D03*
%TD*%
%TO.C,SW14*%
X88519000Y-18669000D03*
D17*
X85979000Y-18669000D03*
X88519000Y-21209000D03*
X85979000Y-21209000D03*
%TD*%
D16*
%TO.C,SW15*%
X97409000Y-18669000D03*
D17*
X94869000Y-18669000D03*
X97409000Y-21209000D03*
X94869000Y-21209000D03*
%TD*%
D16*
%TO.C,SW16*%
X106299000Y-18669000D03*
D17*
X103759000Y-18669000D03*
X106299000Y-21209000D03*
X103759000Y-21209000D03*
%TD*%
D10*
%TO.C,D1*%
X59055000Y-83820000D03*
D11*
X59055000Y-91440000D03*
%TD*%
D19*
%TO.C,D3*%
X94234000Y-45085000D03*
D20*
X91694000Y-45085000D03*
%TD*%
%TO.C,D4*%
X84709000Y-37465000D03*
D19*
X87249000Y-37465000D03*
%TD*%
D20*
%TO.C,D5*%
X84709000Y-45085000D03*
D19*
X87249000Y-45085000D03*
%TD*%
%TO.C,D6*%
X94234000Y-37465000D03*
D20*
X91694000Y-37465000D03*
%TD*%
D17*
%TO.C,J5*%
X66040000Y-17780000D03*
X66040000Y-20320000D03*
X68580000Y-17780000D03*
X68580000Y-20320000D03*
X71120000Y-17780000D03*
X71120000Y-20320000D03*
X73660000Y-17780000D03*
X73660000Y-20320000D03*
X76200000Y-17780000D03*
X76200000Y-20320000D03*
X78740000Y-17780000D03*
D16*
X78740000Y-20320000D03*
%TD*%
%TO.C,J6*%
X58420000Y-20320000D03*
D17*
X58420000Y-17780000D03*
X55880000Y-20320000D03*
X55880000Y-17780000D03*
X53340000Y-20320000D03*
X53340000Y-17780000D03*
X50800000Y-20320000D03*
X50800000Y-17780000D03*
X48260000Y-20320000D03*
X48260000Y-17780000D03*
X45720000Y-20320000D03*
X45720000Y-17780000D03*
%TD*%
%TO.C,J9*%
X144145000Y-31750000D03*
X144145000Y-34290000D03*
X144145000Y-36830000D03*
X144145000Y-39370000D03*
X144145000Y-41910000D03*
X144145000Y-44450000D03*
X144145000Y-46990000D03*
D16*
X144145000Y-49530000D03*
%TD*%
%TO.C,J10*%
X137795000Y-58420000D03*
D17*
X137795000Y-60960000D03*
X137795000Y-63500000D03*
X137795000Y-66040000D03*
X137795000Y-68580000D03*
X137795000Y-71120000D03*
X137795000Y-73660000D03*
X137795000Y-76200000D03*
%TD*%
D16*
%TO.C,J11*%
X58166000Y-29718000D03*
D17*
X60706000Y-29718000D03*
X63246000Y-29718000D03*
X65786000Y-29718000D03*
%TD*%
M02*
